<?xml version="1.0" standalone="no"?>
<!DOCTYPE svg PUBLIC "-//W3C//DTD SVG 1.1//EN" "http://www.w3.org/Graphics/SVG/1.1/DTD/svg11.dtd" >
<svg xmlns="http://www.w3.org/2000/svg" xmlns:xlink="http://www.w3.org/1999/xlink" version="1.1">
<metadata>
Created by FontForge 20170731 at Thu Mar  5 18:53:52 2020
 By Aleksey,,,
Copyright (c) 2015 by Colophon Foundry. All rights reserved.
</metadata>
<defs>
<font id="BasisGrotesque-Off-White" horiz-adv-x="0" >
  <font-face 
    font-family="Basis Grotesque Off-White"
    font-weight="350"
    font-stretch="normal"
    units-per-em="1000"
    panose-1="2 11 5 3 3 6 4 4 1 3"
    ascent="800"
    descent="-200"
    x-height="496"
    cap-height="700"
    bbox="-710 -271 1108 934"
    underline-thickness="50"
    underline-position="-150"
    unicode-range="U+000D-FB02"
  />
<missing-glyph horiz-adv-x="586" 
d="M60 700h466v-700h-466v700zM464 664h-342l171 -280zM272 350l-176 288v-576zM490 638l-176 -288l176 -288v576zM464 36l-171 280l-171 -280h342z" />
    <glyph glyph-name="f_i" unicode="fi" horiz-adv-x="541" 
d="M100 437h-77v59h77v94q0 75 38.5 117.5t112.5 42.5q28 0 51 -10l-12 -65q-18 7 -40 7q-32 0 -53 -22t-21 -65v-99h287v-496h-76v437h-211v-437h-76v437zM380 678h91v-94h-91v94z" />
    <glyph glyph-name="f_l" unicode="fl" horiz-adv-x="543" 
d="M101 437h-77v59h77v94q0 75 39 117.5t113 42.5q28 0 51 -10l-13 -65q-17 7 -39 7q-32 0 -53 -22t-21 -65v-99h117v-59h-117v-437h-77v437zM393 700h76v-700h-76v700z" />
    <glyph glyph-name=".notdef" horiz-adv-x="586" 
d="M60 700h466v-700h-466v700zM464 664h-342l171 -280zM272 350l-176 288v-576zM490 638l-176 -288l176 -288v576zM464 36l-171 280l-171 -280h342z" />
    <glyph glyph-name=".null" 
 />
    <glyph glyph-name="nonmarkingreturn" unicode="&#xd;" horiz-adv-x="289" 
 />
    <glyph glyph-name="space" unicode=" " horiz-adv-x="276" 
 />
    <glyph glyph-name="exclam" unicode="!" horiz-adv-x="265" 
d="M93 479v221h79v-221l-12 -297h-55zM85 98h95v-98h-95v98z" />
    <glyph glyph-name="quotedbl" unicode="&#x22;" horiz-adv-x="341" 
d="M59 644v56h79v-56l-13 -154h-53zM203 644v56h79v-56l-13 -154h-53z" />
    <glyph glyph-name="numbersign" unicode="#" horiz-adv-x="661" 
d="M157 225h-105v55h115l26 140h-121v55h131l42 225h70l-41 -225h165l41 225h71l-42 -225h105v-55h-115l-26 -140h121v-55h-131l-42 -225h-70l41 225h-165l-41 -225h-71zM403 280l25 140h-165l-25 -140h165z" />
    <glyph glyph-name="dollar" unicode="$" horiz-adv-x="644" 
d="M291 -11q-98 9 -160 67.5t-80 145.5l71 38q15 -79 57.5 -125.5t111.5 -56.5v278q-96 21 -151.5 69t-55.5 127q0 75 57.5 124.5t149.5 56.5v87h71v-90q75 -10 129.5 -54t77.5 -112l-63 -37q-20 55 -56.5 89.5t-87.5 44.5v-249q109 -23 165 -70.5t56 -125.5
q0 -55 -27.5 -100t-77.5 -73.5t-116 -34.5v-88h-71v89zM291 644q-59 -5 -95 -35t-36 -78q0 -45 33.5 -74.5t97.5 -48.5v236zM465.5 102.5q37.5 37.5 37.5 86.5q0 51 -35 81.5t-106 48.5v-261q66 7 103.5 44.5z" />
    <glyph glyph-name="percent" unicode="%" horiz-adv-x="881" 
d="M131 387q-39 23 -61 63t-22 89t22 89t61 63t88 23t88 -23t60.5 -63t21.5 -89t-21.5 -89t-60.5 -63t-88 -23t-88 23zM198 34l435 666l50 -34l-436 -666zM295.5 456q29.5 32 29.5 83t-29.5 83t-76.5 32q-48 0 -77 -32t-29 -83t29 -83t77 -32q47 0 76.5 32zM574 9
q-39 23 -61 63t-22 89t22 89t61 63t88 23t88 -23t60.5 -63t21.5 -89t-21.5 -89t-60.5 -63t-88 -23t-88 23zM738.5 78q29.5 32 29.5 83t-29.5 83t-76.5 32q-48 0 -77 -32t-29 -83t29 -83t77 -32q47 0 76.5 32z" />
    <glyph glyph-name="ampersand" unicode="&#x26;" horiz-adv-x="641" 
d="M163.5 13q-49.5 27 -77 74.5t-27.5 106.5q0 71 36 123t103 91q-52 76 -52 145q0 46 21.5 83t59 57.5t82.5 20.5q69 0 112.5 -37.5t43.5 -100.5q0 -57 -37.5 -98t-128.5 -87l168 -218q34 59 53 154l60 -34q-22 -100 -71 -176l91 -117h-90l-48 62q-76 -76 -187 -76
q-62 0 -111.5 27zM368 503.5q30 28.5 30 69.5q0 33 -25 56t-64 23q-37 0 -65.5 -26.5t-28.5 -71.5q0 -29 11.5 -56t34.5 -58q77 35 107 63.5zM423 113l-186 244q-51 -32 -76.5 -70t-25.5 -92q0 -65 42 -104t104 -39q83 0 142 61z" />
    <glyph glyph-name="quotesingle" unicode="'" horiz-adv-x="197" 
d="M59 644v56h79v-56l-13 -154h-53z" />
    <glyph glyph-name="parenleft" unicode="(" horiz-adv-x="336" 
d="M103.5 42.5q-30.5 107.5 -30.5 233.5t30.5 233.5t76.5 190.5h68q-44 -88 -70.5 -197.5t-26.5 -226.5t26.5 -226.5t70.5 -197.5h-68q-46 83 -76.5 190.5z" />
    <glyph glyph-name="parenright" unicode=")" horiz-adv-x="336" 
d="M159 48.5q26 109.5 26 227.5t-26 227.5t-71 196.5h68q46 -83 76.5 -190.5t30.5 -233.5t-30.5 -233.5t-76.5 -190.5h-68q45 87 71 196.5z" />
    <glyph glyph-name="asterisk" unicode="*" horiz-adv-x="409" 
d="M181 509l-87 -68l-39 67l104 42l-104 41l39 68l87 -69l-16 110h79l-17 -110l88 69l39 -68l-104 -41l104 -42l-39 -67l-88 68l17 -110h-79z" />
    <glyph glyph-name="plus" unicode="+" horiz-adv-x="516" 
d="M227 335h-177v60h177v178h61v-178h179v-60h-179v-178h-61v178z" />
    <glyph glyph-name="comma" unicode="," horiz-adv-x="189" 
d="M50 -117l31 117h-34v96h95v-96l-73 -124z" />
    <glyph glyph-name="hyphen" unicode="-" horiz-adv-x="453" 
d="M47 341h360v-60h-360v60z" />
    <glyph glyph-name="period" unicode="." horiz-adv-x="189" 
d="M47 96h95v-96h-95v96z" />
    <glyph glyph-name="slash" unicode="/" horiz-adv-x="495" 
d="M408 730h79l-400 -760h-79z" />
    <glyph glyph-name="zero" unicode="0" horiz-adv-x="711" 
d="M198.5 31.5q-69.5 45.5 -108 128.5t-38.5 190t38.5 190t108 128.5t157.5 45.5t157 -45.5t107.5 -128t38.5 -190.5t-38.5 -190.5t-107.5 -128t-157 -45.5t-157.5 45.5zM472.5 92q51.5 35 80.5 101.5t29 156.5t-29 156.5t-80.5 101.5t-116.5 35t-116.5 -35t-80.5 -101.5
t-29 -156.5t29 -156.5t80.5 -101.5t116.5 -35t116.5 35z" />
    <glyph glyph-name="one" unicode="1" horiz-adv-x="361" 
d="M201 595q-25 -29 -59.5 -41.5t-87.5 -12.5v71q59 0 95 21t60 67h70v-700h-78v595z" />
    <glyph glyph-name="two" unicode="2" horiz-adv-x="578" 
d="M55 56l269 266q54 54 77.5 96.5t23.5 92.5q0 62 -40 98t-107 36q-63 0 -103 -38.5t-40 -102.5q0 -25 8 -46l-74 -13q-12 31 -12 67q0 53 27.5 99.5t78 74.5t117.5 28q69 0 119 -25.5t76 -70t26 -100.5q0 -64 -27.5 -119t-98.5 -125l-198 -197h328v-77h-450v56z" />
    <glyph glyph-name="three" unicode="3" horiz-adv-x="584" 
d="M168.5 14.5q-53.5 28.5 -82 74.5t-28.5 97q0 35 10 58l74 -19q-5 -17 -5 -37q0 -58 43.5 -96t113.5 -38q69 0 112.5 38t43.5 107q0 72 -55 107.5t-143 35.5v67q83 0 124.5 36.5t41.5 89.5t-35.5 82.5t-96.5 29.5q-57 0 -94 -33.5t-37 -86.5q0 -17 5 -29l-73 -13
q-8 19 -8 47q0 50 26.5 91.5t74 66t107.5 24.5q98 0 152.5 -47.5t54.5 -122.5q0 -52 -29.5 -96t-87.5 -64q66 -18 109.5 -64.5t43.5 -115.5q0 -66 -30.5 -115.5t-84.5 -76t-121 -26.5q-72 0 -125.5 28.5z" />
    <glyph glyph-name="four" unicode="4" horiz-adv-x="581" 
d="M390 141h-341v71l341 488h79v-488h77v-71h-77v-141h-79v141zM390 212v371l-258 -371h258z" />
    <glyph glyph-name="five" unicode="5" horiz-adv-x="593" 
d="M165.5 13q-52.5 27 -80.5 71.5t-28 95.5q0 26 9 51l73 -18q-4 -16 -4 -29q0 -61 42 -95.5t113 -34.5q76 0 123.5 49t47.5 133q0 83 -43.5 129t-121.5 46q-53 0 -98 -31.5t-71 -76.5l-65 18l35 379h401v-71h-340l-27 -242q33 45 81 68t98 23q73 0 125 -31t79 -85.5
t27 -125.5q0 -72 -31.5 -129t-89 -89t-131.5 -32q-71 0 -123.5 27z" />
    <glyph glyph-name="six" unicode="6" horiz-adv-x="604" 
d="M172.5 24q-58.5 38 -89.5 111t-31 174q0 123 42 230q34 83 94.5 129t135.5 46q93 0 148 -45.5t55 -119.5q0 -26 -10 -53l-74 16q7 19 7 38q0 46 -32 72.5t-93 26.5q-57 0 -100 -38.5t-67 -106.5t-28 -155q29 51 81.5 80t110.5 29q66 0 119.5 -30t83.5 -83t30 -120
q0 -66 -31.5 -120.5t-87.5 -86.5t-126 -32q-79 0 -137.5 38zM393.5 73.5q38.5 20.5 61 58.5t22.5 90t-22.5 90t-61 58.5t-84.5 20.5t-84.5 -20.5t-62 -58.5t-23.5 -90t23.5 -90t62 -58.5t84.5 -20.5t84.5 20.5z" />
    <glyph glyph-name="seven" unicode="7" horiz-adv-x="536" 
d="M415 629h-373v71h451v-65l-282 -635h-77z" />
    <glyph glyph-name="eight" unicode="8" horiz-adv-x="574" 
d="M165.5 12q-52.5 26 -82.5 73t-30 109q0 61 32.5 108.5t85.5 72.5q-44 24 -70 66t-26 91q0 53 27.5 94.5t76 64.5t107.5 23t107.5 -23t76 -64.5t27.5 -94.5q0 -49 -26 -91t-70 -66q53 -25 85.5 -72.5t32.5 -108.5q0 -62 -30 -109t-82.5 -73t-120.5 -26t-120.5 26zM383 437
q38 34 38 91q0 56 -39 89.5t-96 33.5t-96 -33.5t-39 -89.5q0 -57 38 -91t97 -34t97 34zM397.5 92.5q43.5 39.5 43.5 103.5q0 42 -21 74.5t-56.5 50.5t-77.5 18t-77.5 -18t-56.5 -50.5t-21 -74.5q0 -64 43.5 -103.5t111.5 -39.5t111.5 39.5z" />
    <glyph glyph-name="nine" unicode="9" horiz-adv-x="604" 
d="M172 7.5q-46 21.5 -70.5 59t-24.5 85.5q0 28 9 52l74 -16q-7 -21 -7 -38q0 -46 33 -72.5t94 -26.5q87 0 137 80t57 218q-24 -52 -74 -79.5t-113 -27.5q-67 0 -121.5 30t-85.5 83t-31 120q0 66 31 120.5t87 86.5t127 32q124 0 190.5 -84.5t66.5 -238.5q0 -124 -42 -231
q-32 -82 -93 -128t-136 -46q-62 0 -108 21.5zM379 329.5q39 20.5 62.5 58.5t23.5 90t-23.5 90t-62.5 58.5t-84 20.5q-46 0 -84 -20.5t-61 -58.5t-23 -90t23 -90t61 -58.5t84 -20.5q45 0 84 20.5z" />
    <glyph glyph-name="colon" unicode=":" horiz-adv-x="189" 
d="M47 475h95v-96h-95v96zM47 96h95v-96h-95v96z" />
    <glyph glyph-name="semicolon" unicode=";" horiz-adv-x="189" 
d="M47 475h95v-96h-95v96zM49 -119l32 119h-34v96h95v-96l-73 -127z" />
    <glyph glyph-name="less" unicode="&#x3c;" horiz-adv-x="501" 
d="M48 273v74l405 199v-76l-333 -160l333 -160v-76z" />
    <glyph glyph-name="equal" unicode="=" horiz-adv-x="516" 
d="M50 475h417v-60h-417v60zM50 283h417v-61h-417v61z" />
    <glyph glyph-name="greater" unicode="&#x3e;" horiz-adv-x="501" 
d="M48 150l333 160l-333 160v76l405 -199v-74l-405 -199v76z" />
    <glyph glyph-name="question" unicode="?" horiz-adv-x="533" 
d="M217 198q0 54 18 89t68 78q57 48 79.5 81.5t22.5 80.5q0 55 -39 87.5t-102 32.5q-60 0 -100.5 -36t-40.5 -100q0 -21 8 -42l-70 -14q-13 26 -13 64q0 50 26 94.5t75 72.5t114 28q68 0 117.5 -23.5t75 -64.5t25.5 -92q0 -62 -26.5 -106.5t-98.5 -106.5q-34 -29 -47.5 -57
t-13.5 -80h-78v14zM209 98h96v-98h-96v98z" />
    <glyph glyph-name="at" unicode="@" horiz-adv-x="945" 
d="M255.5 -107q-90.5 45 -147 140t-56.5 236q0 122 56.5 224t157.5 161.5t228 59.5q106 0 195.5 -41.5t143.5 -125.5t54 -206q0 -91 -32.5 -162.5t-86.5 -111.5t-114 -40q-41 0 -66 22t-25 59q0 10 4 29q-23 -48 -69 -79t-95 -31q-47 0 -86 25t-61.5 71.5t-22.5 110.5
q0 96 36.5 165.5t93.5 105t117 35.5q44 0 80.5 -23t48.5 -64l12 71h67l-56 -378q-1 -8 -1 -17q0 -41 38 -41q34 0 68.5 28.5t57 85t22.5 135.5q0 92 -38 163t-112 110.5t-180 39.5q-95 0 -179 -50.5t-134.5 -138t-50.5 -194.5q0 -116 46 -196.5t122.5 -120t168.5 -39.5
q59 0 101.5 14.5t80.5 41.5l33 -54q-48 -33 -100 -49t-127 -16q-102 0 -192.5 45zM502.5 124.5q41.5 36.5 66 96t24.5 124.5q0 62 -29 97t-77 35q-45 0 -87 -29t-69 -83.5t-27 -127.5q0 -75 31 -112t78 -37q48 0 89.5 36.5z" />
    <glyph glyph-name="A" unicode="A" horiz-adv-x="658" 
d="M288 700h82l280 -700h-84l-81 208h-311l-82 -208h-84zM459 276l-112 286q-7 18 -11.5 31t-6.5 20q-7 -27 -18 -51l-111 -286h259z" />
    <glyph glyph-name="B" unicode="B" horiz-adv-x="637" 
d="M86 700h252q67 0 116.5 -21.5t76 -59t26.5 -85.5q0 -60 -34.5 -101t-83.5 -58q144 -44 144 -174q0 -60 -32.5 -105.5t-88 -70.5t-121.5 -25h-255v700zM334 406q66 0 105.5 27.5t39.5 84.5q0 58 -39.5 85.5t-105.5 27.5h-169v-225h169zM330 70q78 0 126 33t48 100
q0 68 -48 101t-126 33h-165v-267h165z" />
    <glyph glyph-name="C" unicode="C" horiz-adv-x="747" 
d="M220 33.5q-77 47.5 -121 130.5t-44 186q0 102 46.5 185t125.5 131t171 48q100 0 177 -48.5t115 -130.5l-62 -44q-43 81 -99 116.5t-133 35.5q-71 0 -131 -38t-95 -105t-35 -150t33.5 -150t93 -105t134.5 -38q79 0 136 37t98 115l60 -42q-54 -90 -122 -135.5t-175 -45.5
q-96 0 -173 47.5z" />
    <glyph glyph-name="D" unicode="D" horiz-adv-x="685" 
d="M86 700h190q104 0 184.5 -42t125 -121t44.5 -187t-44.5 -187t-125 -121t-184.5 -42h-190v700zM272 71q127 0 202.5 71t75.5 208t-75.5 208t-202.5 71h-107v-558h107z" />
    <glyph glyph-name="E" unicode="E" horiz-adv-x="587" 
d="M86 700h431v-70h-352v-233h324v-70h-324v-257h355v-70h-434v700z" />
    <glyph glyph-name="F" unicode="F" horiz-adv-x="590" 
d="M86 700h445v-70h-366v-253h336v-70h-336v-307h-79v700z" />
    <glyph glyph-name="G" unicode="G" horiz-adv-x="761" 
d="M216 33.5q-76 47.5 -118.5 130.5t-42.5 186q0 101 46.5 184.5t125.5 131.5t171 48q98 0 173 -45t117 -126l-60 -43q-77 145 -231 145q-69 0 -129.5 -38t-96.5 -105.5t-36 -151.5t32.5 -151t90.5 -104.5t132 -37.5q63 0 111.5 30t77 80.5t34.5 113.5h-247v67h326v-348h-53
l-24 124q-34 -65 -91 -101.5t-135 -36.5q-97 0 -173 47.5z" />
    <glyph glyph-name="H" unicode="H" horiz-adv-x="690" 
d="M86 700h79v-308h360v308h79v-700h-79v322h-360v-322h-79v700z" />
    <glyph glyph-name="I" unicode="I" horiz-adv-x="251" 
d="M86 700h79v-700h-79v700z" />
    <glyph glyph-name="J" unicode="J" horiz-adv-x="532" 
d="M105.5 42.5q-57.5 56.5 -57.5 156.5l80 -9q0 -65 37 -99t93 -34q60 0 95 37t35 106v500h79v-500q0 -64 -26 -112.5t-73.5 -75t-109.5 -26.5q-95 0 -152.5 56.5z" />
    <glyph glyph-name="K" unicode="K" horiz-adv-x="615" 
d="M86 700h79v-324l66 72l240 252h99l-243 -257l264 -443h-92l-230 382l-104 -109v-273h-79v700z" />
    <glyph glyph-name="L" unicode="L" horiz-adv-x="569" 
d="M86 700h79v-629h356v-71h-435v700z" />
    <glyph glyph-name="M" unicode="M" horiz-adv-x="853" 
d="M85 700h87l255 -628l254 628h87v-700h-77v550q-8 -24 -18.5 -53t-16.5 -45l-188 -452h-83l-188 451q-6 16 -16.5 45.5t-18.5 53.5v-550h-77v700z" />
    <glyph glyph-name="N" unicode="N" horiz-adv-x="703" 
d="M86 700h82l342 -531q24 -41 30 -55v586h77v-700h-83l-342 532q-24 41 -30 55v-587h-76v700z" />
    <glyph glyph-name="O" unicode="O" horiz-adv-x="784" 
d="M220.5 31.5q-76.5 45.5 -121 128.5t-44.5 190t44.5 190t121 128.5t171.5 45.5t171.5 -45.5t121 -128.5t44.5 -190t-44.5 -190t-121 -128.5t-171.5 -45.5t-171.5 45.5zM524.5 93.5q58.5 36.5 92 103t33.5 153.5t-33.5 153.5t-92 103t-132.5 36.5t-132.5 -36.5t-91.5 -103
t-33 -153.5t33 -153.5t91.5 -103t132.5 -36.5t132.5 36.5z" />
    <glyph glyph-name="P" unicode="P" horiz-adv-x="672" 
d="M86 700h290q112 0 178 -58.5t66 -159.5t-66 -160t-178 -59h-211v-263h-79v700zM373 333q83 0 125.5 38.5t42.5 110.5q0 71 -42.5 109.5t-125.5 38.5h-208v-297h208z" />
    <glyph glyph-name="Q" unicode="Q" horiz-adv-x="784" 
d="M432 -12q-26 -2 -40 -2q-95 0 -171.5 45.5t-121 128.5t-44.5 190t44.5 190t121 128.5t171.5 45.5t171.5 -45.5t121 -128.5t44.5 -190q0 -125 -59.5 -216t-158.5 -127q35 -51 83 -98l-58 -52q-61 62 -104 131zM524.5 93.5q58.5 36.5 92 103t33.5 153.5t-33.5 153.5
t-92 103t-132.5 36.5t-132.5 -36.5t-91.5 -103t-33 -153.5t33 -153.5t91.5 -103t132.5 -36.5t132.5 36.5z" />
    <glyph glyph-name="R" unicode="R" horiz-adv-x="632" 
d="M86 700h276q69 0 119.5 -25.5t77 -69.5t26.5 -100q0 -76 -44 -126.5t-125 -67.5l174 -311h-87l-173 305h-165v-305h-79v700zM351 374q75 0 114.5 32t39.5 96q0 65 -39.5 97t-114.5 32h-186v-257h186z" />
    <glyph glyph-name="S" unicode="S" horiz-adv-x="644" 
d="M143 46.5q-72 60.5 -92 155.5l71 38q18 -89 69.5 -137t136.5 -48q53 0 93 18.5t61 49t21 66.5q0 59 -47.5 93t-141.5 51q-109 20 -169.5 68t-60.5 131q0 53 29.5 94.5t82.5 64.5t120 23q93 0 160 -45.5t93 -124.5l-63 -37q-23 67 -72.5 102.5t-118.5 35.5q-67 0 -111 -30
t-44 -82q0 -54 49.5 -86.5t146.5 -51.5q112 -22 169.5 -70.5t57.5 -128.5q0 -59 -32 -107t-90 -75.5t-133 -27.5q-113 0 -185 60.5z" />
    <glyph glyph-name="T" unicode="T" horiz-adv-x="551" 
d="M236 629h-216v71h511v-71h-216v-629h-79v629z" />
    <glyph glyph-name="U" unicode="U" horiz-adv-x="670" 
d="M198.5 16.5q-58.5 30.5 -91 88t-32.5 138.5v457h79v-453q0 -87 50 -138.5t131 -51.5t131.5 51.5t50.5 138.5v453h79v-457q0 -81 -32.5 -138.5t-91.5 -88t-137 -30.5t-136.5 30.5z" />
    <glyph glyph-name="V" unicode="V" horiz-adv-x="614" 
d="M4 700h83l194 -538q16 -45 26 -80q10 35 26 80l195 538h82l-259 -700h-87z" />
    <glyph glyph-name="W" unicode="W" horiz-adv-x="894" 
d="M8 700h79l143 -529q13 -53 18 -77q5 24 18 78l138 528h86l139 -528l17 -78q5 24 19 77l142 529h80l-198 -700h-84l-158 601l-157 -601h-85z" />
    <glyph glyph-name="X" unicode="X" horiz-adv-x="572" 
d="M242 376l-203 324h88l158 -263l164 263h84l-202 -319l235 -381h-88l-193 315l-192 -315h-88z" />
    <glyph glyph-name="Y" unicode="Y" horiz-adv-x="550" 
d="M236 287l-229 413h85l161 -300q14 -26 22 -47q8 21 22 47l161 300h86l-229 -413v-287h-79v287z" />
    <glyph glyph-name="Z" unicode="Z" horiz-adv-x="593" 
d="M41 70l403 558h-390v72h478v-72l-398 -556h415v-72h-508v70z" />
    <glyph glyph-name="bracketleft" unicode="[" horiz-adv-x="324" 
d="M86 700h187v-68h-111v-714h111v-68h-187v850z" />
    <glyph glyph-name="backslash" unicode="\" horiz-adv-x="495" 
d="M8 730h79l400 -760h-79z" />
    <glyph glyph-name="bracketright" unicode="]" horiz-adv-x="324" 
d="M51 -82h111v714h-111v68h187v-850h-187v68z" />
    <glyph glyph-name="asciicircum" unicode="^" horiz-adv-x="441" 
d="M183 700h75l161 -250h-71l-127 196l-128 -196h-70z" />
    <glyph glyph-name="underscore" unicode="_" horiz-adv-x="452" 
d="M11 -7h430v-61h-430v61z" />
    <glyph glyph-name="grave" unicode="`" horiz-adv-x="289" 
d="M60 702h102l67 -143h-63z" />
    <glyph glyph-name="a" unicode="a" horiz-adv-x="542" 
d="M96.5 28.5q-45.5 42.5 -45.5 109.5q0 68 47.5 108t120.5 52l170 27v23q0 50 -31 75t-88 25t-89 -24.5t-32 -58.5q0 -6 2 -14l-65 -22q-7 19 -7 39q0 38 24 71t67.5 52t99.5 19q94 0 144.5 -42.5t50.5 -119.5v-224q0 -43 6.5 -69t24.5 -55h-77q-30 37 -30 100
q-19 -51 -67.5 -82.5t-104.5 -31.5q-75 0 -120.5 42.5zM314 80q37 27 56 71t19 93v21l-155 -26q-51 -8 -79 -34t-28 -64q0 -40 27.5 -64t73.5 -24q49 0 86 27z" />
    <glyph glyph-name="b" unicode="b" horiz-adv-x="604" 
d="M219.5 15.5q-47.5 29.5 -69.5 71.5v-87h-76v700h76v-289q28 45 76.5 72t107.5 27q65 0 117 -33.5t82 -93.5t30 -135t-31 -135t-85 -93.5t-122 -33.5q-58 0 -105.5 29.5zM403 78.5q39 24.5 60.5 69t21.5 100.5t-22 100.5t-61 69t-88 24.5t-87.5 -25t-60.5 -69.5t-22 -99.5
t21.5 -99.5t60.5 -69.5t88 -25q50 0 89 24.5z" />
    <glyph glyph-name="c" unicode="c" horiz-adv-x="546" 
d="M164.5 19.5q-57.5 33.5 -90.5 93.5t-33 135t34.5 135t92.5 93.5t127 33.5q77 0 131 -32.5t82 -92.5l-60 -38q-25 47 -64.5 70t-87.5 23q-49 0 -89.5 -23.5t-64 -67t-23.5 -101.5q0 -57 23 -101t63 -67.5t91 -23.5q55 0 91.5 23t63.5 69l57 -37q-33 -59 -87 -92t-126 -33
q-73 0 -130.5 33.5z" />
    <glyph glyph-name="d" unicode="d" horiz-adv-x="604" 
d="M157.5 19.5q-54.5 33.5 -85.5 93.5t-31 135t31.5 135t86 93.5t119.5 33.5q59 0 105 -26.5t71 -73.5v290h76v-700h-76v90q-22 -45 -68.5 -74.5t-105.5 -29.5q-68 0 -122.5 33.5zM378 79q39 25 61 69.5t22 99.5t-22 99.5t-61 69.5t-88 25q-50 0 -89 -24.5t-60.5 -69
t-21.5 -100.5t21.5 -100.5t60.5 -69t89 -24.5q49 0 88 25z" />
    <glyph glyph-name="e" unicode="e" horiz-adv-x="570" 
d="M163 19.5q-56 33.5 -89 93.5t-33 135t33 135t90 93.5t126 33.5q72 0 126 -31.5t83 -88t29 -128.5v-26h-412q4 -80 51 -132.5t122 -52.5q62 0 102.5 29.5t66.5 83.5l55 -33q-35 -72 -90 -108.5t-137 -36.5q-67 0 -123 33.5zM450 299q-3 70 -49 109.5t-112 39.5
q-65 0 -113 -42.5t-60 -106.5h334z" />
    <glyph glyph-name="f" unicode="f" horiz-adv-x="318" 
d="M100 437h-77v59h77v94q0 75 39 117.5t113 42.5q28 0 51 -10l-13 -65q-17 7 -39 7q-32 0 -53 -22t-21 -65v-99h117v-59h-117v-437h-77v437z" />
    <glyph glyph-name="g" unicode="g" horiz-adv-x="584" 
d="M167 -199q-49 19 -74.5 52t-25.5 74q0 28 14 53l71 -20q-8 -22 -8 -37q0 -36 37.5 -57t102.5 -21q78 0 118 46t40 137v73q-27 -44 -69 -68.5t-100 -24.5q-65 0 -118 30.5t-83.5 87.5t-30.5 133q0 77 31.5 134t84.5 87t116 30q58 0 101.5 -23.5t67.5 -63.5v73h76v-463
q0 -119 -61 -185t-173 -66q-68 0 -117 19zM402.5 124q45.5 50 45.5 135t-45.5 135t-120.5 50t-120 -50t-45 -135t45 -135t120 -50t120.5 50z" />
    <glyph glyph-name="h" unicode="h" horiz-adv-x="577" 
d="M74 700h76v-296q27 49 75 77.5t105 28.5q81 0 127 -46t46 -128v-336h-76v319q0 59 -33 91t-90 32q-39 0 -74.5 -22.5t-57.5 -62t-22 -88.5v-269h-76v700z" />
    <glyph glyph-name="i" unicode="i" horiz-adv-x="224" 
d="M74 496h76v-496h-76v496zM66 678h91v-94h-91v94z" />
    <glyph glyph-name="j" unicode="j" horiz-adv-x="224" 
d="M-33 -202l10 68q19 -8 40 -8q28 0 42.5 18.5t14.5 51.5v568h76v-563q0 -66 -30 -105t-93 -39q-31 0 -60 9zM66 678h91v-94h-91v94z" />
    <glyph glyph-name="k" unicode="k" horiz-adv-x="502" 
d="M74 700h76v-395l198 191h97l-178 -172l208 -324h-86l-175 272l-64 -62v-210h-76v700z" />
    <glyph glyph-name="l" unicode="l" horiz-adv-x="224" 
d="M74 700h76v-700h-76v700z" />
    <glyph glyph-name="m" unicode="m" horiz-adv-x="819" 
d="M74 496h76v-78q21 40 61.5 66t87.5 26q49 0 85 -25t52 -71q24 44 66 70t91 26q69 0 110.5 -39.5t41.5 -107.5v-363h-76v342q0 51 -25 76.5t-73 25.5q-33 0 -61.5 -20t-46 -60.5t-17.5 -98.5v-265h-76v339q0 49 -24 77t-70 28q-34 0 -63 -21t-46 -60.5t-17 -93.5v-269h-76
v496z" />
    <glyph glyph-name="n" unicode="n" horiz-adv-x="570" 
d="M74 496h76v-89q27 48 73 75.5t99 27.5q76 0 125 -44t49 -129v-337h-76v319q0 59 -33.5 91t-88.5 32q-39 0 -73 -22t-54.5 -61t-20.5 -86v-273h-76v496z" />
    <glyph glyph-name="o" unicode="o" horiz-adv-x="599" 
d="M171 17q-59 31 -94.5 90.5t-35.5 140.5t35.5 140.5t94.5 90.5t128 31t128.5 -31t95 -90.5t35.5 -140.5t-35.5 -140.5t-95 -90.5t-128.5 -31t-128 31zM391.5 79q41.5 25 65.5 69t24 100t-24 100t-65.5 69t-92.5 25q-50 0 -91.5 -25t-65.5 -69t-24 -100t24 -100t65.5 -69
t91.5 -25q51 0 92.5 25z" />
    <glyph glyph-name="p" unicode="p" horiz-adv-x="604" 
d="M74 496h76v-92q24 45 72.5 75.5t108.5 30.5q65 0 118 -33.5t83.5 -93.5t30.5 -135t-30.5 -134.5t-84 -93.5t-121.5 -34q-58 0 -104.5 25.5t-72.5 70.5v-286h-76v700zM403 79q39 25 60.5 69t21.5 100t-21.5 100t-60.5 69t-89 25t-89 -25t-60.5 -69.5t-21.5 -99.5
t21.5 -99.5t60.5 -69.5t89 -25t89 25z" />
    <glyph glyph-name="q" unicode="q" horiz-adv-x="604" 
d="M454 84q-27 -49 -72 -73.5t-103 -24.5q-66 0 -120.5 34t-86 94t-31.5 134q0 75 31.5 135t86 93.5t120.5 33.5q61 0 107.5 -27.5t67.5 -72.5v86h76v-700h-76v288zM379 79q39 25 60.5 69.5t21.5 99.5t-21.5 99.5t-60.5 69.5t-89 25t-89 -25t-60.5 -69t-21.5 -100t21.5 -100
t60.5 -69t89 -25t89 25z" />
    <glyph glyph-name="r" unicode="r" horiz-adv-x="351" 
d="M74 496h76v-90q19 46 56.5 75t85.5 29q23 0 41 -5l-12 -69q-16 6 -39 6q-36 0 -66.5 -24t-48 -65t-17.5 -89v-264h-76v496z" />
    <glyph glyph-name="s" unicode="s" horiz-adv-x="482" 
d="M125 26q-54 40 -79 104l64 39q18 -56 55.5 -87t92.5 -31q50 0 80.5 24.5t30.5 64.5q0 37 -30.5 58.5t-96.5 33.5q-76 13 -122 49t-46 97q0 60 49.5 96t121.5 36q73 0 119.5 -31t72.5 -90l-59 -34q-17 47 -52 70.5t-80 23.5q-44 0 -73 -18.5t-29 -51.5q0 -35 34 -56
t100 -34q80 -15 122 -50t42 -96q0 -42 -21.5 -77.5t-63.5 -57.5t-100 -22q-78 0 -132 40z" />
    <glyph glyph-name="t" unicode="t" horiz-adv-x="345" 
d="M148.5 20.5q-35.5 34.5 -35.5 105.5v311h-85v59h85v134h76v-134h119v-59h-119v-307q0 -39 17 -58t52 -19q18 0 38 6l7 -63q-28 -10 -62 -10q-57 0 -92.5 34.5z" />
    <glyph glyph-name="u" unicode="u" horiz-adv-x="569" 
d="M124.5 32q-50.5 46 -50.5 138v326h76v-317q0 -60 33 -92.5t88 -32.5q40 0 74 22.5t54 63t20 91.5v265h76v-496h-76v88q-24 -47 -69 -74.5t-98 -27.5q-77 0 -127.5 46z" />
    <glyph glyph-name="v" unicode="v" horiz-adv-x="494" 
d="M10 496h82l155 -406l156 406h81l-198 -496h-77z" />
    <glyph glyph-name="w" unicode="w" horiz-adv-x="689" 
d="M8 496h75l110 -408l111 408h81l111 -408l110 408h75l-143 -496h-81l-113 411l-112 -411h-81z" />
    <glyph glyph-name="x" unicode="x" horiz-adv-x="449" 
d="M185 264l-153 232h87l108 -172l109 172h85l-150 -228l175 -268h-85l-134 207l-134 -207h-90z" />
    <glyph glyph-name="y" unicode="y" horiz-adv-x="500" 
d="M63 -201l12 70q22 -9 39 -9q21 0 36 12.5t25 39.5l36 87l-204 497h86l157 -395l158 395h84l-249 -608q-21 -52 -51 -75t-76 -23q-31 0 -53 9z" />
    <glyph glyph-name="z" unicode="z" horiz-adv-x="481" 
d="M42 64l298 368h-289v64h374v-64l-298 -368h313v-64h-398v64z" />
    <glyph glyph-name="braceleft" unicode="{" horiz-adv-x="372" 
d="M167.5 -110q-35.5 40 -35.5 128v129q0 54 -17.5 74.5t-57.5 20.5v66q40 0 57.5 20.5t17.5 74.5v129q0 88 35.5 128t115.5 40h36v-68h-29q-39 0 -60.5 -22.5t-21.5 -68.5v-143q0 -55 -14.5 -81t-51.5 -42q37 -16 51.5 -42t14.5 -81v-143q0 -46 21.5 -68.5t60.5 -22.5h29
v-68h-36q-80 0 -115.5 40z" />
    <glyph glyph-name="bar" unicode="|" horiz-adv-x="247" 
d="M85 740h77v-850h-77v850z" />
    <glyph glyph-name="braceright" unicode="}" horiz-adv-x="372" 
d="M53 -82h29q39 0 60 22.5t21 68.5v143q0 55 15 81t51 42q-36 16 -51 42t-15 81v143q0 46 -21 68.5t-60 22.5h-29v68h35q80 0 116 -40t36 -128v-129q0 -54 17.5 -74.5t57.5 -20.5v-66q-40 0 -57.5 -20.5t-17.5 -74.5v-129q0 -88 -36 -128t-116 -40h-35v68z" />
    <glyph glyph-name="asciitilde" unicode="~" horiz-adv-x="438" 
d="M47 313q0 39 26.5 61.5t65.5 22.5q32 0 53.5 -10t45.5 -29q18 -14 29 -20t25 -6t23 8.5t9 21.5q0 10 -7 22l63 12q11 -15 11 -44q0 -39 -26.5 -61t-65.5 -22q-32 0 -53 10t-45 29q-17 14 -28.5 20.5t-26.5 6.5q-13 0 -22 -8.5t-9 -22.5q0 -11 6 -22l-62 -12
q-12 16 -12 43z" />
    <glyph glyph-name="uni00A0" unicode="&#xa0;" horiz-adv-x="276" 
 />
    <glyph glyph-name="exclamdown" unicode="&#xa1;" horiz-adv-x="265" 
d="M85 496h95v-98h-95v98zM93 17l12 297h55l12 -297v-221h-79v221z" />
    <glyph glyph-name="cent" unicode="&#xa2;" horiz-adv-x="546" 
d="M398.5 86.5q29.5 22.5 52.5 61.5l57 -37q-29 -52 -74.5 -84t-106.5 -39v-98h-71v99q-63 8 -112 43.5t-76 91t-27 124.5q0 68 28.5 123.5t77.5 91t109 44.5v113h71v-112q129 -12 181 -123l-60 -38q-20 39 -51.5 61.5t-69.5 28.5v-379q42 6 71.5 28.5zM156.5 123
q37.5 -50 99.5 -63v376q-61 -13 -99 -63t-38 -125t37.5 -125z" />
    <glyph glyph-name="sterling" unicode="&#xa3;" horiz-adv-x="562" 
d="M70 53q33 46 49 86.5t16 94.5q0 40 -10 83h-93v62h77q-23 65 -23 123q0 65 29 113t79.5 73.5t112.5 25.5q65 0 112.5 -22t73 -61t25.5 -88q0 -21 -3 -37t-11 -34l-72 12q11 29 11 56q0 44 -36.5 76t-100.5 32q-63 0 -103 -39t-40 -111q0 -27 5.5 -53.5t16.5 -65.5h200
v-62h-185q9 -45 9 -79q0 -50 -13.5 -89.5t-38.5 -79.5h350v-69h-437v53z" />
    <glyph glyph-name="currency" unicode="&#xa4;" horiz-adv-x="631" 
d="M68 153l66 66q-41 55 -41 131t41 131l-66 66l51 50l66 -65q59 41 130 41q72 0 131 -41l66 65l51 -50l-66 -66q40 -54 40 -131t-40 -131l66 -66l-51 -50l-66 65q-59 -41 -131 -41q-71 0 -130 41l-66 -65zM424 236q42 44 42 114t-42 114t-109 44q-66 0 -108 -44t-42 -114
t42 -114t108 -44q67 0 109 44z" />
    <glyph glyph-name="yen" unicode="&#xa5;" horiz-adv-x="558" 
d="M240 146h-149v61h149v80h-149v61h115l-188 352h86l153 -297q13 -26 22 -49q9 23 22 49l154 297h85l-188 -352h116v-61h-149v-80h149v-61h-149v-146h-79v146z" />
    <glyph glyph-name="brokenbar" unicode="&#xa6;" horiz-adv-x="247" 
d="M85 740h77v-358h-77v358zM85 248h77v-358h-77v358z" />
    <glyph glyph-name="section" unicode="&#xa7;" horiz-adv-x="517" 
d="M135 -57q-52 36 -79 96l58 41q22 -54 61 -81.5t90 -27.5q49 0 82.5 24.5t33.5 68.5t-33.5 72.5t-124.5 49.5q-78 17 -119.5 56t-41.5 93q0 31 14.5 58.5t40.5 46.5q-51 45 -51 113q0 50 26 86.5t69 55.5t94 19q77 0 128.5 -36t78.5 -96l-58 -41q-22 54 -60.5 81.5
t-90.5 27.5q-48 0 -82 -25t-34 -70q0 -40 34 -70t124 -51q87 -19 124 -52.5t37 -87.5q0 -68 -54 -110q50 -43 50 -116q0 -50 -25.5 -86.5t-68.5 -55.5t-94 -19q-77 0 -129 36zM386 284q0 33 -30.5 55t-101.5 37q-52 11 -89 31q-32 -27 -32 -63t29.5 -59t100.5 -40
q47 -11 86 -29q37 29 37 68z" />
    <glyph glyph-name="dieresis" unicode="&#xa8;" horiz-adv-x="380" 
d="M67 678h90v-89h-90v89zM223 678h90v-89h-90v89z" />
    <glyph glyph-name="copyright" unicode="&#xa9;" horiz-adv-x="841" 
d="M238.5 35q-83.5 49 -132.5 132.5t-49 182.5t49 182.5t132.5 132.5t182.5 49t182.5 -49t132.5 -132.5t49 -182.5t-49 -182.5t-132.5 -132.5t-182.5 -49t-182.5 49zM575 84q70 41 110.5 111.5t40.5 154.5t-40.5 154.5t-110.5 111.5t-154 41t-154 -41t-111 -111.5
t-41 -154.5t41 -154.5t111 -111.5t154 -41t154 41zM320.5 172q-45.5 26 -71 72.5t-25.5 105.5q0 58 26.5 104.5t72 73t99.5 26.5q62 0 106.5 -28t64.5 -78l-44 -29q-39 80 -127 80q-37 0 -68 -18.5t-49.5 -52t-18.5 -78.5q0 -67 39 -108t98 -41q84 0 128 85l44 -29
q-26 -53 -70 -82t-101 -29q-58 0 -103.5 26z" />
    <glyph glyph-name="ordfeminine" unicode="&#xaa;" horiz-adv-x="381" 
d="M80 322.5q-32 29.5 -32 76.5t32 75t86 37l113 18v11q0 69 -77 69q-36 0 -56.5 -14t-20.5 -36q0 -6 1 -10l-55 -19q-6 14 -6 28q0 26 17 49t48 36.5t72 13.5q68 0 103 -30t35 -85v-153q0 -30 4.5 -50t16.5 -39h-61q-20 22 -20 67q-17 -35 -48 -54.5t-69 -19.5
q-51 0 -83 29.5zM250.5 382q28.5 36 28.5 86v13l-103 -16q-31 -5 -49 -21t-18 -41q0 -26 17.5 -41.5t44.5 -15.5q51 0 79.5 36z" />
    <glyph glyph-name="guillemotleft" unicode="&#xab;" horiz-adv-x="504" 
d="M46 275l156 199h89l-155 -199l155 -199h-89zM224 275l156 199h89l-155 -199l155 -199h-89z" />
    <glyph glyph-name="logicalnot" unicode="&#xac;" horiz-adv-x="528" 
d="M378 333h-331v64h407v-198h-76v134z" />
    <glyph glyph-name="uni00AD" unicode="&#xad;" horiz-adv-x="453" 
d="M47 341h360v-60h-360v60z" />
    <glyph glyph-name="registered" unicode="&#xae;" horiz-adv-x="841" 
d="M238.5 35q-83.5 49 -132.5 132.5t-49 182.5t49 182.5t132.5 132.5t182.5 49t182.5 -49t132.5 -132.5t49 -182.5t-49 -182.5t-132.5 -132.5t-182.5 -49t-182.5 49zM575 84q70 41 110.5 111.5t40.5 154.5t-40.5 154.5t-110.5 111.5t-154 41t-154 -41t-111 -111.5
t-41 -154.5t41 -154.5t111 -111.5t154 -41t154 41zM282 549h160q61 0 95.5 -32t34.5 -84q0 -44 -27.5 -73t-73.5 -38l98 -171h-62l-96 168h-71v-168h-58v398zM440 366q36 0 56 18.5t20 48.5q0 31 -19.5 48.5t-56.5 17.5h-100v-133h100z" />
    <glyph glyph-name="macron" unicode="&#xaf;" horiz-adv-x="309" 
d="M46 667h217v-64h-217v64z" />
    <glyph glyph-name="degree" unicode="&#xb0;" horiz-adv-x="358" 
d="M109.5 460q-31.5 18 -49.5 49t-18 69q0 37 18 68t49.5 49.5t69.5 18.5q39 0 70 -18t49 -49.5t18 -68.5q0 -57 -39 -96.5t-98 -39.5q-38 0 -69.5 18zM237.5 519.5q22.5 23.5 22.5 58.5q0 34 -22.5 57.5t-58.5 23.5q-35 0 -57.5 -23.5t-22.5 -57.5t22.5 -58t57.5 -24
q36 0 58.5 23.5z" />
    <glyph glyph-name="plusminus" unicode="&#xb1;" horiz-adv-x="516" 
d="M227 334h-177v60h177v178h61v-178h179v-60h-179v-178h-61v178zM50 60h417v-60h-417v60z" />
    <glyph glyph-name="uni00B2" unicode="&#xb2;" horiz-adv-x="336" 
d="M52 471l130 126q27 26 36.5 45.5t9.5 42.5q0 22 -16 37t-44 15q-27 0 -44 -16t-17 -41q0 -14 4 -23l-52 -8q-6 15 -6 35q0 41 31.5 72t83.5 31q54 0 85.5 -28t31.5 -71q0 -35 -15 -62t-50 -62l-84 -82h152v-52h-236v41z" />
    <glyph glyph-name="uni00B3" unicode="&#xb3;" horiz-adv-x="339" 
d="M84 453.5q-34 30.5 -34 70.5q0 15 6 33l52 -12q-3 -7 -3 -18q0 -25 19.5 -39t49.5 -14q32 0 49.5 15.5t17.5 45.5t-26 45t-68 15v45q40 0 59 15t19 41q0 19 -16 31t-40 12q-25 0 -41 -13t-16 -35q0 -8 2 -16l-50 -7q-5 15 -5 28q0 38 30.5 64.5t79.5 26.5q52 0 82 -24.5
t30 -61.5q0 -24 -13 -44.5t-39 -33.5q30 -10 49.5 -33t19.5 -56q0 -51 -35.5 -81t-89.5 -30q-55 0 -89 30.5z" />
    <glyph glyph-name="acute" unicode="&#xb4;" horiz-adv-x="289" 
d="M127 702h102l-106 -143h-63z" />
    <glyph glyph-name="uni00B5" unicode="&#xb5;" horiz-adv-x="569" 
d="M74 496h76v-317q0 -60 33 -92.5t88 -32.5q40 0 74 22.5t54 63t20 91.5v265h76v-496h-76v88q-24 -47 -69 -74.5t-98 -27.5q-60 0 -104 30q2 -36 2 -63v-157h-76v700z" />
    <glyph glyph-name="paragraph" unicode="&#xb6;" horiz-adv-x="615" 
d="M292 325h-39q-59 0 -106.5 23t-75 66t-27.5 99t27.5 98.5t75 65.5t106.5 23h324v-65h-61v-755h-74v755h-77v-755h-73v445z" />
    <glyph glyph-name="periodcentered" unicode="&#xb7;" horiz-adv-x="189" 
d="M47 407h95v-96h-95v96z" />
    <glyph glyph-name="cedilla" unicode="&#xb8;" horiz-adv-x="298" 
d="M90.5 -188q-22.5 16 -29.5 44l47 12q7 -28 40 -28q15 0 25.5 10t10.5 27t-10.5 28t-28.5 11q-23 0 -47 -20l-31 29l34 91h53l-39 -73q19 13 48 13q32 0 53 -21.5t21 -55.5q0 -39 -26 -61t-65 -22q-33 0 -55.5 16z" />
    <glyph glyph-name="uni00B9" unicode="&#xb9;" horiz-adv-x="245" 
d="M120 705q-12 -13 -30 -18.5t-46 -5.5v56q33 0 51 10t29 33h53v-350h-57v275z" />
    <glyph glyph-name="ordmasculine" unicode="&#xba;" horiz-adv-x="455" 
d="M140.5 314.5q-41.5 21.5 -67.5 63t-26 97.5t26 97.5t67.5 63t87.5 21.5q45 0 86.5 -21.5t67.5 -63t26 -97.5t-26 -97.5t-67.5 -63t-86.5 -21.5q-46 0 -87.5 21.5zM313.5 383.5q34.5 36.5 34.5 91.5t-34.5 91.5t-85.5 36.5q-52 0 -86.5 -36.5t-34.5 -91.5t34.5 -91.5
t86.5 -36.5q51 0 85.5 36.5z" />
    <glyph glyph-name="guillemotright" unicode="&#xbb;" horiz-adv-x="504" 
d="M189 275l-155 199h89l156 -199l-156 -199h-89zM368 275l-155 199h89l156 -199l-156 -199h-89z" />
    <glyph glyph-name="onequarter" unicode="&#xbc;" horiz-adv-x="713" 
d="M120 625q-12 -13 -30 -18.5t-46 -5.5v56q33 0 51 10t29 33h53v-350h-57v275zM96 34l435 666l50 -34l-436 -666zM564 67h-168v50l168 233h59v-233h39v-50h-39v-67h-59v67zM564 117v149l-111 -149h111z" />
    <glyph glyph-name="onehalf" unicode="&#xbd;" horiz-adv-x="767" 
d="M120 625q-12 -13 -30 -18.5t-46 -5.5v56q33 0 51 10t29 33h53v-350h-57v275zM96 34l435 666l50 -34l-436 -666zM484 41l130 126q27 26 36.5 45.5t9.5 42.5q0 22 -16 37t-44 15q-27 0 -44 -16t-17 -41q0 -14 4 -23l-52 -8q-6 15 -6 35q0 41 31.5 72t83.5 31q54 0 85.5 -28
t31.5 -71q0 -35 -15 -62t-50 -62l-84 -82h152v-52h-236v41z" />
    <glyph glyph-name="threequarters" unicode="&#xbe;" horiz-adv-x="777" 
d="M84 373.5q-34 30.5 -34 70.5q0 15 6 33l52 -12q-3 -7 -3 -18q0 -25 19.5 -39t49.5 -14q32 0 49.5 15.5t17.5 45.5t-26 45t-68 15v45q40 0 59 15t19 41q0 19 -16 31t-40 12q-25 0 -41 -13t-16 -35q0 -8 2 -16l-50 -7q-5 15 -5 28q0 38 30.5 64.5t79.5 26.5q52 0 82 -24.5
t30 -61.5q0 -24 -13 -44.5t-39 -33.5q30 -10 49.5 -33t19.5 -56q0 -51 -35.5 -81t-89.5 -30q-55 0 -89 30.5zM160 34l435 666l50 -34l-436 -666zM628 67h-168v50l168 233h59v-233h39v-50h-39v-67h-59v67zM628 117v149l-111 -149h111z" />
    <glyph glyph-name="questiondown" unicode="&#xbf;" horiz-adv-x="533" 
d="M324 398h-95v98h95v-98zM316 298q0 -54 -18 -89t-68 -78q-57 -48 -79.5 -81.5t-22.5 -80.5q0 -55 39.5 -87.5t102.5 -32.5q59 0 99.5 36t40.5 100q0 21 -8 42l70 14q13 -26 13 -64q0 -50 -26 -94.5t-75 -72.5t-114 -28q-68 0 -117 23.5t-74.5 64.5t-25.5 92
q0 62 26 106.5t98 106.5q34 29 47.5 57t13.5 80h78v-14z" />
    <glyph glyph-name="Agrave" unicode="&#xc0;" horiz-adv-x="658" 
d="M288 700h82l280 -700h-84l-81 208h-311l-82 -208h-84zM459 276l-112 286q-7 18 -11.5 31t-6.5 20q-7 -27 -18 -51l-111 -286h259zM211 906h102l67 -143h-63z" />
    <glyph glyph-name="Aacute" unicode="&#xc1;" horiz-adv-x="658" 
d="M288 700h82l280 -700h-84l-81 208h-311l-82 -208h-84zM459 276l-112 286q-7 18 -11.5 31t-6.5 20q-7 -27 -18 -51l-111 -286h259zM360 906h102l-106 -143h-63z" />
    <glyph glyph-name="Acircumflex" unicode="&#xc2;" horiz-adv-x="658" 
d="M288 700h82l280 -700h-84l-81 208h-311l-82 -208h-84zM459 276l-112 286q-7 18 -11.5 31t-6.5 20q-7 -27 -18 -51l-111 -286h259zM299 906h61l101 -143h-63l-68 73l-69 -73h-63z" />
    <glyph glyph-name="Atilde" unicode="&#xc3;" horiz-adv-x="658" 
d="M288 700h82l280 -700h-84l-81 208h-311l-82 -208h-84zM459 276l-112 286q-7 18 -11.5 31t-6.5 20q-7 -27 -18 -51l-111 -286h259zM351 776.5q-21 10.5 -42 29.5q-18 15 -28.5 21t-26.5 6q-14 0 -22 -8t-8 -20q0 -13 6 -24l-56 -12q-11 20 -11 44q0 38 25.5 58t61.5 20
q35 0 56 -10.5t43 -29.5q16 -14 27 -20.5t27 -6.5q14 0 22 8.5t8 20.5q0 11 -5 23l55 12q11 -19 11 -44q0 -38 -25.5 -58t-61.5 -20q-35 0 -56 10.5z" />
    <glyph glyph-name="Adieresis" unicode="&#xc4;" horiz-adv-x="658" 
d="M288 700h82l280 -700h-84l-81 208h-311l-82 -208h-84zM459 276l-112 286q-7 18 -11.5 31t-6.5 20q-7 -27 -18 -51l-111 -286h259zM206 882h90v-89h-90v89zM363 882h90v-89h-90v89z" />
    <glyph glyph-name="Aring" unicode="&#xc5;" horiz-adv-x="658" 
d="M288 700h82l280 -700h-84l-81 208h-311l-82 -208h-84zM459 276l-112 286q-7 18 -11.5 31t-6.5 20q-7 -27 -18 -51l-111 -286h259zM261 771.5q-28 27.5 -28 67.5t28 67.5t68 27.5t68 -27.5t28 -67.5t-28 -67.5t-68 -27.5t-68 27.5zM362.5 805q13.5 14 13.5 34t-13.5 34
t-33.5 14t-33.5 -14t-13.5 -34t13.5 -34t33.5 -14t33.5 14z" />
    <glyph glyph-name="AE" unicode="&#xc6;" horiz-adv-x="933" 
d="M323 700h541v-70h-353v-233h325v-70h-325v-257h356v-70h-435v208h-247l-92 -208h-83zM432 276v354h-60l-157 -354h217z" />
    <glyph glyph-name="Ccedilla" unicode="&#xc7;" horiz-adv-x="747" 
d="M532 94q57 37 98 115l60 -42q-54 -90 -122 -135.5t-175 -45.5h-5l-23 -43q19 13 47 13q33 0 54 -21.5t21 -55.5q0 -39 -26 -61t-65 -22q-33 0 -55.5 16t-29.5 44l47 12q7 -28 40 -28q15 0 25.5 10t10.5 27t-10.5 28t-28.5 11q-24 0 -48 -20l-30 29l24 65q-83 12 -148 62
t-101.5 127.5t-36.5 170.5q0 102 46.5 185t125.5 131t171 48q100 0 177 -48.5t115 -130.5l-62 -44q-43 81 -99 116.5t-133 35.5q-71 0 -131 -38t-95 -105t-35 -150t33.5 -150t93 -105t134.5 -38q79 0 136 37z" />
    <glyph glyph-name="Egrave" unicode="&#xc8;" horiz-adv-x="587" 
d="M86 700h431v-70h-352v-233h324v-70h-324v-257h355v-70h-434v700zM187 906h102l67 -143h-63z" />
    <glyph glyph-name="Eacute" unicode="&#xc9;" horiz-adv-x="587" 
d="M86 700h431v-70h-352v-233h324v-70h-324v-257h355v-70h-434v700zM336 906h102l-106 -143h-63z" />
    <glyph glyph-name="Ecircumflex" unicode="&#xca;" horiz-adv-x="587" 
d="M86 700h431v-70h-352v-233h324v-70h-324v-257h355v-70h-434v700zM274 906h61l101 -143h-63l-68 73l-69 -73h-63z" />
    <glyph glyph-name="Edieresis" unicode="&#xcb;" horiz-adv-x="587" 
d="M86 700h431v-70h-352v-233h324v-70h-324v-257h355v-70h-434v700zM182 882h90v-89h-90v89zM339 882h90v-89h-90v89z" />
    <glyph glyph-name="Igrave" unicode="&#xcc;" horiz-adv-x="251" 
d="M86 700h79v-700h-79v700zM7 906h102l67 -143h-63z" />
    <glyph glyph-name="Iacute" unicode="&#xcd;" horiz-adv-x="251" 
d="M86 700h79v-700h-79v700zM157 906h102l-106 -143h-63z" />
    <glyph glyph-name="Icircumflex" unicode="&#xce;" horiz-adv-x="251" 
d="M86 700h79v-700h-79v700zM95 906h61l101 -143h-63l-68 73l-69 -73h-63z" />
    <glyph glyph-name="Idieresis" unicode="&#xcf;" horiz-adv-x="251" 
d="M86 700h79v-700h-79v700zM2 882h90v-89h-90v89zM159 882h90v-89h-90v89z" />
    <glyph glyph-name="Eth" unicode="&#xd0;" horiz-adv-x="714" 
d="M115 316h-75v68h75v316h190q104 0 184.5 -42t125 -121t44.5 -187t-44.5 -187t-125 -121t-184.5 -42h-190v316zM301 71q127 0 202.5 71t75.5 208t-75.5 208t-202.5 71h-107v-245h154v-68h-154v-245h107z" />
    <glyph glyph-name="Ntilde" unicode="&#xd1;" horiz-adv-x="703" 
d="M86 700h82l342 -531q24 -41 30 -55v586h77v-700h-83l-342 532q-24 41 -30 55v-587h-76v700zM377 776.5q-21 10.5 -42 29.5q-18 15 -28.5 21t-26.5 6q-14 0 -22 -8t-8 -20q0 -13 6 -24l-56 -12q-11 20 -11 44q0 38 25.5 58t61.5 20q35 0 56 -10.5t43 -29.5
q16 -14 27 -20.5t27 -6.5q14 0 22 8.5t8 20.5q0 11 -5 23l55 12q11 -19 11 -44q0 -38 -25.5 -58t-61.5 -20q-35 0 -56 10.5z" />
    <glyph glyph-name="Ograve" unicode="&#xd2;" horiz-adv-x="784" 
d="M220.5 31.5q-76.5 45.5 -121 128.5t-44.5 190t44.5 190t121 128.5t171.5 45.5t171.5 -45.5t121 -128.5t44.5 -190t-44.5 -190t-121 -128.5t-171.5 -45.5t-171.5 45.5zM524.5 93.5q58.5 36.5 92 103t33.5 153.5t-33.5 153.5t-92 103t-132.5 36.5t-132.5 -36.5t-91.5 -103
t-33 -153.5t33 -153.5t91.5 -103t132.5 -36.5t132.5 36.5zM274 906h102l67 -143h-63z" />
    <glyph glyph-name="Oacute" unicode="&#xd3;" horiz-adv-x="784" 
d="M220.5 31.5q-76.5 45.5 -121 128.5t-44.5 190t44.5 190t121 128.5t171.5 45.5t171.5 -45.5t121 -128.5t44.5 -190t-44.5 -190t-121 -128.5t-171.5 -45.5t-171.5 45.5zM524.5 93.5q58.5 36.5 92 103t33.5 153.5t-33.5 153.5t-92 103t-132.5 36.5t-132.5 -36.5t-91.5 -103
t-33 -153.5t33 -153.5t91.5 -103t132.5 -36.5t132.5 36.5zM423 906h102l-106 -143h-63z" />
    <glyph glyph-name="Ocircumflex" unicode="&#xd4;" horiz-adv-x="784" 
d="M220.5 31.5q-76.5 45.5 -121 128.5t-44.5 190t44.5 190t121 128.5t171.5 45.5t171.5 -45.5t121 -128.5t44.5 -190t-44.5 -190t-121 -128.5t-171.5 -45.5t-171.5 45.5zM524.5 93.5q58.5 36.5 92 103t33.5 153.5t-33.5 153.5t-92 103t-132.5 36.5t-132.5 -36.5t-91.5 -103
t-33 -153.5t33 -153.5t91.5 -103t132.5 -36.5t132.5 36.5zM362 906h61l101 -143h-63l-68 73l-69 -73h-63z" />
    <glyph glyph-name="Otilde" unicode="&#xd5;" horiz-adv-x="784" 
d="M220.5 31.5q-76.5 45.5 -121 128.5t-44.5 190t44.5 190t121 128.5t171.5 45.5t171.5 -45.5t121 -128.5t44.5 -190t-44.5 -190t-121 -128.5t-171.5 -45.5t-171.5 45.5zM524.5 93.5q58.5 36.5 92 103t33.5 153.5t-33.5 153.5t-92 103t-132.5 36.5t-132.5 -36.5t-91.5 -103
t-33 -153.5t33 -153.5t91.5 -103t132.5 -36.5t132.5 36.5zM414 776.5q-21 10.5 -42 29.5q-18 15 -28.5 21t-26.5 6q-14 0 -22 -8t-8 -20q0 -13 6 -24l-56 -12q-11 20 -11 44q0 38 25.5 58t61.5 20q35 0 56 -10.5t43 -29.5q16 -14 27 -20.5t27 -6.5q14 0 22 8.5t8 20.5
q0 11 -5 23l55 12q11 -19 11 -44q0 -38 -25.5 -58t-61.5 -20q-35 0 -56 10.5z" />
    <glyph glyph-name="Odieresis" unicode="&#xd6;" horiz-adv-x="784" 
d="M220.5 31.5q-76.5 45.5 -121 128.5t-44.5 190t44.5 190t121 128.5t171.5 45.5t171.5 -45.5t121 -128.5t44.5 -190t-44.5 -190t-121 -128.5t-171.5 -45.5t-171.5 45.5zM524.5 93.5q58.5 36.5 92 103t33.5 153.5t-33.5 153.5t-92 103t-132.5 36.5t-132.5 -36.5t-91.5 -103
t-33 -153.5t33 -153.5t91.5 -103t132.5 -36.5t132.5 36.5zM269 882h90v-89h-90v89zM426 882h90v-89h-90v89z" />
    <glyph glyph-name="multiply" unicode="&#xd7;" horiz-adv-x="507" 
d="M85 239l125 125l-125 126l42 43l127 -125l125 125l43 -43l-126 -126l126 -126l-43 -43l-125 127l-127 -127z" />
    <glyph glyph-name="Oslash" unicode="&#xd8;" horiz-adv-x="784" 
d="M692 526q37 -78 37 -176q0 -107 -44.5 -190t-121 -128.5t-171.5 -45.5q-72 0 -137 28l-25 -48l-61 34l26 49q-66 47 -103 125t-37 176q0 107 44.5 190t121 128.5t171.5 45.5q72 0 137 -28l25 48l61 -34l-26 -49q66 -47 103 -125zM160 215q25 -60 70 -99l265 506
q-47 21 -103 21q-74 0 -132.5 -36.5t-91.5 -103t-33 -153.5q0 -75 25 -135zM524.5 93.5q58.5 36.5 92 103t33.5 153.5q0 75 -25 135.5t-71 99.5l-265 -507q47 -21 103 -21q74 0 132.5 36.5z" />
    <glyph glyph-name="Ugrave" unicode="&#xd9;" horiz-adv-x="670" 
d="M198.5 16.5q-58.5 30.5 -91 88t-32.5 138.5v457h79v-453q0 -87 50 -138.5t131 -51.5t131.5 51.5t50.5 138.5v453h79v-457q0 -81 -32.5 -138.5t-91.5 -88t-137 -30.5t-136.5 30.5zM217 906h102l67 -143h-63z" />
    <glyph glyph-name="Uacute" unicode="&#xda;" horiz-adv-x="670" 
d="M198.5 16.5q-58.5 30.5 -91 88t-32.5 138.5v457h79v-453q0 -87 50 -138.5t131 -51.5t131.5 51.5t50.5 138.5v453h79v-457q0 -81 -32.5 -138.5t-91.5 -88t-137 -30.5t-136.5 30.5zM366 906h102l-106 -143h-63z" />
    <glyph glyph-name="Ucircumflex" unicode="&#xdb;" horiz-adv-x="670" 
d="M198.5 16.5q-58.5 30.5 -91 88t-32.5 138.5v457h79v-453q0 -87 50 -138.5t131 -51.5t131.5 51.5t50.5 138.5v453h79v-457q0 -81 -32.5 -138.5t-91.5 -88t-137 -30.5t-136.5 30.5zM305 906h61l101 -143h-63l-68 73l-69 -73h-63z" />
    <glyph glyph-name="Udieresis" unicode="&#xdc;" horiz-adv-x="670" 
d="M198.5 16.5q-58.5 30.5 -91 88t-32.5 138.5v457h79v-453q0 -87 50 -138.5t131 -51.5t131.5 51.5t50.5 138.5v453h79v-457q0 -81 -32.5 -138.5t-91.5 -88t-137 -30.5t-136.5 30.5zM212 882h90v-89h-90v89zM369 882h90v-89h-90v89z" />
    <glyph glyph-name="Yacute" unicode="&#xdd;" horiz-adv-x="550" 
d="M236 287l-229 413h85l161 -300q14 -26 22 -47q8 21 22 47l161 300h86l-229 -413v-287h-79v287zM306 906h102l-106 -143h-63z" />
    <glyph glyph-name="Thorn" unicode="&#xde;" horiz-adv-x="672" 
d="M86 700h79v-132h211q112 0 178 -58.5t66 -159.5t-66 -159.5t-178 -58.5h-211v-132h-79v700zM373 201q83 0 125.5 39t42.5 110t-42.5 110t-125.5 39h-208v-298h208z" />
    <glyph glyph-name="germandbls" unicode="&#xdf;" horiz-adv-x="590" 
d="M206 37l36 61q50 -46 107 -46q52 0 84.5 35.5t32.5 95.5q0 78 -55.5 121.5t-137.5 43.5h-24v67h24q67 0 107.5 34.5t40.5 93.5q0 48 -34 76.5t-87 28.5q-54 0 -88 -34.5t-34 -101.5v-512h-76v437h-77v59h77v15q0 68 28 113.5t73.5 67.5t97.5 22q88 0 141 -46t53 -119
q0 -61 -34 -101.5t-87 -58.5q78 -23 123 -73.5t45 -132.5q0 -54 -22.5 -99t-65.5 -71.5t-100 -26.5q-86 0 -148 51z" />
    <glyph glyph-name="agrave" unicode="&#xe0;" horiz-adv-x="542" 
d="M96.5 28.5q-45.5 42.5 -45.5 109.5q0 68 47.5 108t120.5 52l170 27v23q0 50 -31 75t-88 25t-89 -24.5t-32 -58.5q0 -6 2 -14l-65 -22q-7 19 -7 39q0 38 24 71t67.5 52t99.5 19q94 0 144.5 -42.5t50.5 -119.5v-224q0 -43 6.5 -69t24.5 -55h-77q-30 37 -30 100
q-19 -51 -67.5 -82.5t-104.5 -31.5q-75 0 -120.5 42.5zM314 80q37 27 56 71t19 93v21l-155 -26q-51 -8 -79 -34t-28 -64q0 -40 27.5 -64t73.5 -24q49 0 86 27zM144 702h102l67 -143h-63z" />
    <glyph glyph-name="aacute" unicode="&#xe1;" horiz-adv-x="542" 
d="M96.5 28.5q-45.5 42.5 -45.5 109.5q0 68 47.5 108t120.5 52l170 27v23q0 50 -31 75t-88 25t-89 -24.5t-32 -58.5q0 -6 2 -14l-65 -22q-7 19 -7 39q0 38 24 71t67.5 52t99.5 19q94 0 144.5 -42.5t50.5 -119.5v-224q0 -43 6.5 -69t24.5 -55h-77q-30 37 -30 100
q-19 -51 -67.5 -82.5t-104.5 -31.5q-75 0 -120.5 42.5zM314 80q37 27 56 71t19 93v21l-155 -26q-51 -8 -79 -34t-28 -64q0 -40 27.5 -64t73.5 -24q49 0 86 27zM286 702h102l-106 -143h-63z" />
    <glyph glyph-name="acircumflex" unicode="&#xe2;" horiz-adv-x="542" 
d="M96.5 28.5q-45.5 42.5 -45.5 109.5q0 68 47.5 108t120.5 52l170 27v23q0 50 -31 75t-88 25t-89 -24.5t-32 -58.5q0 -6 2 -14l-65 -22q-7 19 -7 39q0 38 24 71t67.5 52t99.5 19q94 0 144.5 -42.5t50.5 -119.5v-224q0 -43 6.5 -69t24.5 -55h-77q-30 37 -30 100
q-19 -51 -67.5 -82.5t-104.5 -31.5q-75 0 -120.5 42.5zM314 80q37 27 56 71t19 93v21l-155 -26q-51 -8 -79 -34t-28 -64q0 -40 27.5 -64t73.5 -24q49 0 86 27zM240 702h61l101 -143h-63l-69 73l-68 -73h-63z" />
    <glyph glyph-name="atilde" unicode="&#xe3;" horiz-adv-x="542" 
d="M96.5 28.5q-45.5 42.5 -45.5 109.5q0 68 47.5 108t120.5 52l170 27v23q0 50 -31 75t-88 25t-89 -24.5t-32 -58.5q0 -6 2 -14l-65 -22q-7 19 -7 39q0 38 24 71t67.5 52t99.5 19q94 0 144.5 -42.5t50.5 -119.5v-224q0 -43 6.5 -69t24.5 -55h-77q-30 37 -30 100
q-19 -51 -67.5 -82.5t-104.5 -31.5q-75 0 -120.5 42.5zM314 80q37 27 56 71t19 93v21l-155 -26q-51 -8 -79 -34t-28 -64q0 -40 27.5 -64t73.5 -24q49 0 86 27zM292 572.5q-21 10.5 -42 29.5q-18 15 -28.5 21t-26.5 6q-14 0 -22 -8t-8 -20q0 -13 6 -24l-56 -12q-11 20 -11 44
q0 38 25.5 58t61.5 20q35 0 56 -10.5t43 -29.5q16 -14 27 -20.5t27 -6.5q14 0 22 8.5t8 20.5q0 11 -5 23l55 12q11 -19 11 -44q0 -38 -25.5 -58t-61.5 -20q-35 0 -56 10.5z" />
    <glyph glyph-name="adieresis" unicode="&#xe4;" horiz-adv-x="542" 
d="M96.5 28.5q-45.5 42.5 -45.5 109.5q0 68 47.5 108t120.5 52l170 27v23q0 50 -31 75t-88 25t-89 -24.5t-32 -58.5q0 -6 2 -14l-65 -22q-7 19 -7 39q0 38 24 71t67.5 52t99.5 19q94 0 144.5 -42.5t50.5 -119.5v-224q0 -43 6.5 -69t24.5 -55h-77q-30 37 -30 100
q-19 -51 -67.5 -82.5t-104.5 -31.5q-75 0 -120.5 42.5zM314 80q37 27 56 71t19 93v21l-155 -26q-51 -8 -79 -34t-28 -64q0 -40 27.5 -64t73.5 -24q49 0 86 27zM147 678h90v-89h-90v89zM303 678h90v-89h-90v89z" />
    <glyph glyph-name="aring" unicode="&#xe5;" horiz-adv-x="542" 
d="M96.5 28.5q-45.5 42.5 -45.5 109.5q0 68 47.5 108t120.5 52l170 27v23q0 50 -31 75t-88 25t-89 -24.5t-32 -58.5q0 -6 2 -14l-65 -22q-7 19 -7 39q0 38 24 71t67.5 52t99.5 19q94 0 144.5 -42.5t50.5 -119.5v-224q0 -43 6.5 -69t24.5 -55h-77q-30 37 -30 100
q-19 -51 -67.5 -82.5t-104.5 -31.5q-75 0 -120.5 42.5zM314 80q37 27 56 71t19 93v21l-155 -26q-51 -8 -79 -34t-28 -64q0 -40 27.5 -64t73.5 -24q49 0 86 27zM202 567.5q-28 27.5 -28 67.5t28 67.5t68 27.5t68 -27.5t28 -67.5t-28 -67.5t-68 -27.5t-68 27.5zM303.5 601
q13.5 14 13.5 34t-13.5 34t-33.5 14t-33.5 -14t-13.5 -34t13.5 -34t33.5 -14t33.5 14z" />
    <glyph glyph-name="ae" unicode="&#xe6;" horiz-adv-x="919" 
d="M97 28q-47 42 -47 108q0 74 57 118t149 44h132v43q0 107 -118 107q-58 0 -89 -23.5t-31 -57.5q0 -7 2 -14l-65 -22q-7 15 -7 39q0 38 24 70t67 51t96 19q69 0 115 -24.5t65 -69.5q33 44 83.5 69t109.5 25q72 0 125.5 -31.5t82.5 -88t29 -128.5v-26h-412q3 -52 25 -94
t60.5 -66.5t88.5 -24.5q115 0 168 113l56 -33q-70 -145 -227 -145q-69 0 -126 37.5t-88 98.5q-25 -63 -81.5 -99.5t-119.5 -36.5q-77 0 -124 42zM800 298q-3 70 -49.5 110t-111.5 40q-66 0 -114 -42.5t-60 -107.5h335zM313.5 78.5q36.5 25.5 55.5 67t19 87.5v3h-126
q-69 0 -103 -27.5t-34 -71.5q0 -36 29 -60t74 -24q49 0 85.5 25.5z" />
    <glyph glyph-name="ccedilla" unicode="&#xe7;" horiz-adv-x="546" 
d="M387.5 79q36.5 23 63.5 69l57 -37q-33 -59 -87 -92t-126 -33h-11l-23 -43q19 13 47 13q33 0 54 -21.5t21 -55.5q0 -39 -26 -61t-65 -22q-33 0 -55.5 16t-29.5 44l47 12q7 -28 40 -28q15 0 25.5 10t10.5 27t-10.5 28t-28.5 11q-24 0 -48 -20l-30 29l25 67
q-88 18 -142.5 88t-54.5 168q0 75 34.5 135t92.5 93.5t127 33.5q77 0 131 -32.5t82 -92.5l-60 -38q-25 47 -64.5 70t-87.5 23q-49 0 -89.5 -23.5t-64 -67t-23.5 -101.5q0 -57 23 -101t63 -67.5t91 -23.5q55 0 91.5 23z" />
    <glyph glyph-name="egrave" unicode="&#xe8;" horiz-adv-x="570" 
d="M163 19.5q-56 33.5 -89 93.5t-33 135t33 135t90 93.5t126 33.5q72 0 126 -31.5t83 -88t29 -128.5v-26h-412q4 -80 51 -132.5t122 -52.5q62 0 102.5 29.5t66.5 83.5l55 -33q-35 -72 -90 -108.5t-137 -36.5q-67 0 -123 33.5zM450 299q-3 70 -49 109.5t-112 39.5
q-65 0 -113 -42.5t-60 -106.5h334zM162 702h102l67 -143h-63z" />
    <glyph glyph-name="eacute" unicode="&#xe9;" horiz-adv-x="570" 
d="M163 19.5q-56 33.5 -89 93.5t-33 135t33 135t90 93.5t126 33.5q72 0 126 -31.5t83 -88t29 -128.5v-26h-412q4 -80 51 -132.5t122 -52.5q62 0 102.5 29.5t66.5 83.5l55 -33q-35 -72 -90 -108.5t-137 -36.5q-67 0 -123 33.5zM450 299q-3 70 -49 109.5t-112 39.5
q-65 0 -113 -42.5t-60 -106.5h334zM304 702h102l-106 -143h-63z" />
    <glyph glyph-name="ecircumflex" unicode="&#xea;" horiz-adv-x="570" 
d="M163 19.5q-56 33.5 -89 93.5t-33 135t33 135t90 93.5t126 33.5q72 0 126 -31.5t83 -88t29 -128.5v-26h-412q4 -80 51 -132.5t122 -52.5q62 0 102.5 29.5t66.5 83.5l55 -33q-35 -72 -90 -108.5t-137 -36.5q-67 0 -123 33.5zM450 299q-3 70 -49 109.5t-112 39.5
q-65 0 -113 -42.5t-60 -106.5h334zM258 702h61l101 -143h-63l-69 73l-68 -73h-63z" />
    <glyph glyph-name="edieresis" unicode="&#xeb;" horiz-adv-x="570" 
d="M163 19.5q-56 33.5 -89 93.5t-33 135t33 135t90 93.5t126 33.5q72 0 126 -31.5t83 -88t29 -128.5v-26h-412q4 -80 51 -132.5t122 -52.5q62 0 102.5 29.5t66.5 83.5l55 -33q-35 -72 -90 -108.5t-137 -36.5q-67 0 -123 33.5zM450 299q-3 70 -49 109.5t-112 39.5
q-65 0 -113 -42.5t-60 -106.5h334zM165 678h90v-89h-90v89zM321 678h90v-89h-90v89z" />
    <glyph glyph-name="igrave" unicode="&#xec;" horiz-adv-x="224" 
d="M74 496h76v-496h-76v496zM-14 702h102l67 -143h-63z" />
    <glyph glyph-name="iacute" unicode="&#xed;" horiz-adv-x="224" 
d="M74 496h76v-496h-76v496zM128 702h102l-106 -143h-63z" />
    <glyph glyph-name="icircumflex" unicode="&#xee;" horiz-adv-x="224" 
d="M74 496h76v-496h-76v496zM82 702h61l101 -143h-63l-69 73l-68 -73h-63z" />
    <glyph glyph-name="idieresis" unicode="&#xef;" horiz-adv-x="224" 
d="M74 496h76v-496h-76v496zM-11 678h90v-89h-90v89zM145 678h90v-89h-90v89z" />
    <glyph glyph-name="eth" unicode="&#xf0;" horiz-adv-x="579" 
d="M169 14q-55 28 -88.5 82t-33.5 129q0 74 33.5 128t87 81.5t113.5 27.5t105.5 -24t68.5 -63q-22 103 -107 186l-128 -50l-20 57l97 38q-72 54 -138 82l35 56q106 -50 175 -110l99 38l22 -57l-73 -28q115 -126 115 -311q0 -97 -33.5 -162t-89 -96.5t-121.5 -31.5
q-64 0 -119 28zM370 71q38 20 61.5 59.5t23.5 93.5t-23.5 93.5t-61.5 59.5t-81 20t-81 -20t-61.5 -59.5t-23.5 -93.5t23.5 -93.5t61.5 -59.5t81 -20t81 20z" />
    <glyph glyph-name="ntilde" unicode="&#xf1;" horiz-adv-x="570" 
d="M74 496h76v-89q27 48 73 75.5t99 27.5q76 0 125 -44t49 -129v-337h-76v319q0 59 -33.5 91t-88.5 32q-39 0 -73 -22t-54.5 -61t-20.5 -86v-273h-76v496zM314 572.5q-21 10.5 -42 29.5q-18 15 -28.5 21t-26.5 6q-14 0 -22 -8t-8 -20q0 -13 6 -24l-56 -12q-11 20 -11 44
q0 38 25.5 58t61.5 20q35 0 56 -10.5t43 -29.5q16 -14 27 -20.5t27 -6.5q14 0 22 8.5t8 20.5q0 11 -5 23l55 12q11 -19 11 -44q0 -38 -25.5 -58t-61.5 -20q-35 0 -56 10.5z" />
    <glyph glyph-name="ograve" unicode="&#xf2;" horiz-adv-x="599" 
d="M171 17q-59 31 -94.5 90.5t-35.5 140.5t35.5 140.5t94.5 90.5t128 31t128.5 -31t95 -90.5t35.5 -140.5t-35.5 -140.5t-95 -90.5t-128.5 -31t-128 31zM391.5 79q41.5 25 65.5 69t24 100t-24 100t-65.5 69t-92.5 25q-50 0 -91.5 -25t-65.5 -69t-24 -100t24 -100t65.5 -69
t91.5 -25q51 0 92.5 25zM173 702h102l67 -143h-63z" />
    <glyph glyph-name="oacute" unicode="&#xf3;" horiz-adv-x="599" 
d="M171 17q-59 31 -94.5 90.5t-35.5 140.5t35.5 140.5t94.5 90.5t128 31t128.5 -31t95 -90.5t35.5 -140.5t-35.5 -140.5t-95 -90.5t-128.5 -31t-128 31zM391.5 79q41.5 25 65.5 69t24 100t-24 100t-65.5 69t-92.5 25q-50 0 -91.5 -25t-65.5 -69t-24 -100t24 -100t65.5 -69
t91.5 -25q51 0 92.5 25zM316 702h102l-106 -143h-63z" />
    <glyph glyph-name="ocircumflex" unicode="&#xf4;" horiz-adv-x="599" 
d="M171 17q-59 31 -94.5 90.5t-35.5 140.5t35.5 140.5t94.5 90.5t128 31t128.5 -31t95 -90.5t35.5 -140.5t-35.5 -140.5t-95 -90.5t-128.5 -31t-128 31zM391.5 79q41.5 25 65.5 69t24 100t-24 100t-65.5 69t-92.5 25q-50 0 -91.5 -25t-65.5 -69t-24 -100t24 -100t65.5 -69
t91.5 -25q51 0 92.5 25zM269 702h61l101 -143h-63l-69 73l-68 -73h-63z" />
    <glyph glyph-name="otilde" unicode="&#xf5;" horiz-adv-x="599" 
d="M171 17q-59 31 -94.5 90.5t-35.5 140.5t35.5 140.5t94.5 90.5t128 31t128.5 -31t95 -90.5t35.5 -140.5t-35.5 -140.5t-95 -90.5t-128.5 -31t-128 31zM391.5 79q41.5 25 65.5 69t24 100t-24 100t-65.5 69t-92.5 25q-50 0 -91.5 -25t-65.5 -69t-24 -100t24 -100t65.5 -69
t91.5 -25q51 0 92.5 25zM321 572.5q-21 10.5 -42 29.5q-18 15 -28.5 21t-26.5 6q-14 0 -22 -8t-8 -20q0 -13 6 -24l-56 -12q-11 20 -11 44q0 38 25.5 58t61.5 20q35 0 56 -10.5t43 -29.5q16 -14 27 -20.5t27 -6.5q14 0 22 8.5t8 20.5q0 11 -5 23l55 12q11 -19 11 -44
q0 -38 -25.5 -58t-61.5 -20q-35 0 -56 10.5z" />
    <glyph glyph-name="odieresis" unicode="&#xf6;" horiz-adv-x="599" 
d="M171 17q-59 31 -94.5 90.5t-35.5 140.5t35.5 140.5t94.5 90.5t128 31t128.5 -31t95 -90.5t35.5 -140.5t-35.5 -140.5t-95 -90.5t-128.5 -31t-128 31zM391.5 79q41.5 25 65.5 69t24 100t-24 100t-65.5 69t-92.5 25q-50 0 -91.5 -25t-65.5 -69t-24 -100t24 -100t65.5 -69
t91.5 -25q51 0 92.5 25zM176 678h90v-89h-90v89zM332 678h90v-89h-90v89z" />
    <glyph glyph-name="divide" unicode="&#xf7;" horiz-adv-x="516" 
d="M211 475h95v-96h-95v96zM211 96h95v-96h-95v96zM50 269h417v-60h-417v60z" />
    <glyph glyph-name="oslash" unicode="&#xf8;" horiz-adv-x="599" 
d="M532 369.5q26 -53.5 26 -121.5q0 -81 -35.5 -140.5t-95 -90.5t-128.5 -31q-53 0 -104 20l-22 -38l-57 32l22 38q-45 34 -71 87.5t-26 122.5q0 81 35.5 140.5t94.5 90.5t128 31q56 0 105 -20l23 38l57 -32l-23 -39q45 -34 71 -87.5zM133 166.5q15 -37.5 43 -64.5l192 327
q-34 13 -69 13q-50 0 -91.5 -25t-65.5 -69t-24 -100q0 -44 15 -81.5zM391.5 79q41.5 25 65.5 69t24 100q0 44 -15 81t-43 64l-192 -326q34 -13 68 -13q51 0 92.5 25z" />
    <glyph glyph-name="ugrave" unicode="&#xf9;" horiz-adv-x="569" 
d="M124.5 32q-50.5 46 -50.5 138v326h76v-317q0 -60 33 -92.5t88 -32.5q40 0 74 22.5t54 63t20 91.5v265h76v-496h-76v88q-24 -47 -69 -74.5t-98 -27.5q-77 0 -127.5 46zM158 702h102l67 -143h-63z" />
    <glyph glyph-name="uacute" unicode="&#xfa;" horiz-adv-x="569" 
d="M124.5 32q-50.5 46 -50.5 138v326h76v-317q0 -60 33 -92.5t88 -32.5q40 0 74 22.5t54 63t20 91.5v265h76v-496h-76v88q-24 -47 -69 -74.5t-98 -27.5q-77 0 -127.5 46zM301 702h102l-106 -143h-63z" />
    <glyph glyph-name="ucircumflex" unicode="&#xfb;" horiz-adv-x="569" 
d="M124.5 32q-50.5 46 -50.5 138v326h76v-317q0 -60 33 -92.5t88 -32.5q40 0 74 22.5t54 63t20 91.5v265h76v-496h-76v88q-24 -47 -69 -74.5t-98 -27.5q-77 0 -127.5 46zM254 702h61l101 -143h-63l-69 73l-68 -73h-63z" />
    <glyph glyph-name="udieresis" unicode="&#xfc;" horiz-adv-x="569" 
d="M124.5 32q-50.5 46 -50.5 138v326h76v-317q0 -60 33 -92.5t88 -32.5q40 0 74 22.5t54 63t20 91.5v265h76v-496h-76v88q-24 -47 -69 -74.5t-98 -27.5q-77 0 -127.5 46zM161 678h90v-89h-90v89zM317 678h90v-89h-90v89z" />
    <glyph glyph-name="yacute" unicode="&#xfd;" horiz-adv-x="500" 
d="M63 -201l12 70q22 -9 39 -9q21 0 36 12.5t25 39.5l36 87l-204 497h86l157 -395l158 395h84l-249 -608q-21 -52 -51 -75t-76 -23q-31 0 -53 9zM267 702h102l-106 -143h-63z" />
    <glyph glyph-name="thorn" unicode="&#xfe;" horiz-adv-x="604" 
d="M74 700h76v-296q24 45 73 75.5t109 30.5q65 0 117.5 -33.5t83 -93.5t30.5 -135t-30 -134.5t-83.5 -93.5t-121.5 -34q-58 0 -105 25.5t-73 70.5v-286h-76v904zM403 79q39 25 60.5 69t21.5 100t-21.5 100t-60.5 69t-89 25q-49 0 -88 -25t-60.5 -69.5t-21.5 -99.5
t21.5 -99.5t60.5 -69.5t88 -25q50 0 89 25z" />
    <glyph glyph-name="ydieresis" unicode="&#xff;" horiz-adv-x="500" 
d="M63 -201l12 70q22 -9 39 -9q21 0 36 12.5t25 39.5l36 87l-204 497h86l157 -395l158 395h84l-249 -608q-21 -52 -51 -75t-76 -23q-31 0 -53 9zM127 678h90v-89h-90v89zM283 678h90v-89h-90v89z" />
    <glyph glyph-name="Amacron" unicode="&#x100;" horiz-adv-x="658" 
d="M288 700h82l280 -700h-84l-81 208h-311l-82 -208h-84zM459 276l-112 286q-7 18 -11.5 31t-6.5 20q-7 -27 -18 -51l-111 -286h259zM221 871h217v-64h-217v64z" />
    <glyph glyph-name="amacron" unicode="&#x101;" horiz-adv-x="542" 
d="M96.5 28.5q-45.5 42.5 -45.5 109.5q0 68 47.5 108t120.5 52l170 27v23q0 50 -31 75t-88 25t-89 -24.5t-32 -58.5q0 -6 2 -14l-65 -22q-7 19 -7 39q0 38 24 71t67.5 52t99.5 19q94 0 144.5 -42.5t50.5 -119.5v-224q0 -43 6.5 -69t24.5 -55h-77q-30 37 -30 100
q-19 -51 -67.5 -82.5t-104.5 -31.5q-75 0 -120.5 42.5zM314 80q37 27 56 71t19 93v21l-155 -26q-51 -8 -79 -34t-28 -64q0 -40 27.5 -64t73.5 -24q49 0 86 27zM161 667h217v-64h-217v64z" />
    <glyph glyph-name="Abreve" unicode="&#x102;" horiz-adv-x="658" 
d="M288 700h82l280 -700h-84l-81 208h-311l-82 -208h-84zM459 276l-112 286q-7 18 -11.5 31t-6.5 20q-7 -27 -18 -51l-111 -286h259zM256 801q-28 29 -28 74h62q0 -20 10.5 -32t29.5 -12q18 0 28.5 12t10.5 32h62q0 -45 -28 -74t-73 -29q-46 0 -74 29z" />
    <glyph glyph-name="abreve" unicode="&#x103;" horiz-adv-x="542" 
d="M96.5 28.5q-45.5 42.5 -45.5 109.5q0 68 47.5 108t120.5 52l170 27v23q0 50 -31 75t-88 25t-89 -24.5t-32 -58.5q0 -6 2 -14l-65 -22q-7 19 -7 39q0 38 24 71t67.5 52t99.5 19q94 0 144.5 -42.5t50.5 -119.5v-224q0 -43 6.5 -69t24.5 -55h-77q-30 37 -30 100
q-19 -51 -67.5 -82.5t-104.5 -31.5q-75 0 -120.5 42.5zM314 80q37 27 56 71t19 93v21l-155 -26q-51 -8 -79 -34t-28 -64q0 -40 27.5 -64t73.5 -24q49 0 86 27zM196 597q-28 29 -28 74h62q0 -20 10.5 -32t29.5 -12q18 0 28.5 12t10.5 32h62q0 -45 -28 -74t-73 -29
q-46 0 -74 29z" />
    <glyph glyph-name="Aogonek" unicode="&#x104;" horiz-adv-x="658" 
d="M658 -192q-20 -6 -45 -6q-43 0 -73 24.5t-30 68.5q0 31 17.5 58t45.5 47h-7l-81 208h-311l-82 -208h-84l280 700h82l280 -700q-35 -19 -53 -41t-18 -44q0 -21 14 -33.5t36 -12.5q3 0 19 2zM459 276l-112 286q-7 18 -11.5 31t-6.5 20q-7 -27 -18 -51l-111 -286h259z" />
    <glyph glyph-name="aogonek" unicode="&#x105;" horiz-adv-x="542" 
d="M503 -192q-19 -6 -45 -6q-43 0 -73 24.5t-30 68.5q0 61 64 105q-30 39 -30 100q-19 -51 -67.5 -82.5t-104.5 -31.5q-75 0 -120.5 42.5t-45.5 109.5q0 68 47.5 108t120.5 52l170 27v23q0 50 -31 75t-88 25t-89 -24.5t-32 -58.5q0 -6 2 -14l-65 -22q-7 19 -7 39q0 38 24 71
t67.5 52t99.5 19q94 0 144.5 -42.5t50.5 -119.5v-224q0 -43 6.5 -69t24.5 -55h-1q-35 -19 -53 -41t-18 -44q0 -21 14 -33.5t36 -12.5q3 0 19 2zM389 265l-155 -26q-51 -8 -79 -34t-28 -64q0 -40 27.5 -64t73.5 -24q49 0 86 27t56 71t19 93v21z" />
    <glyph glyph-name="Cacute" unicode="&#x106;" horiz-adv-x="747" 
d="M220 33.5q-77 47.5 -121 130.5t-44 186q0 102 46.5 185t125.5 131t171 48q100 0 177 -48.5t115 -130.5l-62 -44q-43 81 -99 116.5t-133 35.5q-71 0 -131 -38t-95 -105t-35 -150t33.5 -150t93 -105t134.5 -38q79 0 136 37t98 115l60 -42q-54 -90 -122 -135.5t-175 -45.5
q-96 0 -173 47.5zM428 906h102l-106 -143h-63z" />
    <glyph glyph-name="cacute" unicode="&#x107;" horiz-adv-x="546" 
d="M164.5 19.5q-57.5 33.5 -90.5 93.5t-33 135t34.5 135t92.5 93.5t127 33.5q77 0 131 -32.5t82 -92.5l-60 -38q-25 47 -64.5 70t-87.5 23q-49 0 -89.5 -23.5t-64 -67t-23.5 -101.5q0 -57 23 -101t63 -67.5t91 -23.5q55 0 91.5 23t63.5 69l57 -37q-33 -59 -87 -92t-126 -33
q-73 0 -130.5 33.5zM309 702h102l-106 -143h-63z" />
    <glyph glyph-name="Ccircumflex" unicode="&#x108;" horiz-adv-x="747" 
d="M220 33.5q-77 47.5 -121 130.5t-44 186q0 102 46.5 185t125.5 131t171 48q100 0 177 -48.5t115 -130.5l-62 -44q-43 81 -99 116.5t-133 35.5q-71 0 -131 -38t-95 -105t-35 -150t33.5 -150t93 -105t134.5 -38q79 0 136 37t98 115l60 -42q-54 -90 -122 -135.5t-175 -45.5
q-96 0 -173 47.5zM366 906h61l101 -143h-63l-68 73l-69 -73h-63z" />
    <glyph glyph-name="ccircumflex" unicode="&#x109;" horiz-adv-x="546" 
d="M164.5 19.5q-57.5 33.5 -90.5 93.5t-33 135t34.5 135t92.5 93.5t127 33.5q77 0 131 -32.5t82 -92.5l-60 -38q-25 47 -64.5 70t-87.5 23q-49 0 -89.5 -23.5t-64 -67t-23.5 -101.5q0 -57 23 -101t63 -67.5t91 -23.5q55 0 91.5 23t63.5 69l57 -37q-33 -59 -87 -92t-126 -33
q-73 0 -130.5 33.5zM262 702h61l101 -143h-63l-69 73l-68 -73h-63z" />
    <glyph glyph-name="Cdotaccent" unicode="&#x10a;" horiz-adv-x="747" 
d="M220 33.5q-77 47.5 -121 130.5t-44 186q0 102 46.5 185t125.5 131t171 48q100 0 177 -48.5t115 -130.5l-62 -44q-43 81 -99 116.5t-133 35.5q-71 0 -131 -38t-95 -105t-35 -150t33.5 -150t93 -105t134.5 -38q79 0 136 37t98 115l60 -42q-54 -90 -122 -135.5t-175 -45.5
q-96 0 -173 47.5zM351 882h91v-94h-91v94z" />
    <glyph glyph-name="cdotaccent" unicode="&#x10b;" horiz-adv-x="546" 
d="M164.5 19.5q-57.5 33.5 -90.5 93.5t-33 135t34.5 135t92.5 93.5t127 33.5q77 0 131 -32.5t82 -92.5l-60 -38q-25 47 -64.5 70t-87.5 23q-49 0 -89.5 -23.5t-64 -67t-23.5 -101.5q0 -57 23 -101t63 -67.5t91 -23.5q55 0 91.5 23t63.5 69l57 -37q-33 -59 -87 -92t-126 -33
q-73 0 -130.5 33.5zM246 678h91v-94h-91v94z" />
    <glyph glyph-name="Ccaron" unicode="&#x10c;" horiz-adv-x="747" 
d="M220 33.5q-77 47.5 -121 130.5t-44 186q0 102 46.5 185t125.5 131t171 48q100 0 177 -48.5t115 -130.5l-62 -44q-43 81 -99 116.5t-133 35.5q-71 0 -131 -38t-95 -105t-35 -150t33.5 -150t93 -105t134.5 -38q79 0 136 37t98 115l60 -42q-54 -90 -122 -135.5t-175 -45.5
q-96 0 -173 47.5zM265 906h63l69 -73l68 73h63l-101 -143h-61z" />
    <glyph glyph-name="ccaron" unicode="&#x10d;" horiz-adv-x="546" 
d="M164.5 19.5q-57.5 33.5 -90.5 93.5t-33 135t34.5 135t92.5 93.5t127 33.5q77 0 131 -32.5t82 -92.5l-60 -38q-25 47 -64.5 70t-87.5 23q-49 0 -89.5 -23.5t-64 -67t-23.5 -101.5q0 -57 23 -101t63 -67.5t91 -23.5q55 0 91.5 23t63.5 69l57 -37q-33 -59 -87 -92t-126 -33
q-73 0 -130.5 33.5zM161 702h63l69 -73l68 73h63l-101 -143h-61z" />
    <glyph glyph-name="Dcaron" unicode="&#x10e;" horiz-adv-x="685" 
d="M86 700h190q104 0 184.5 -42t125 -121t44.5 -187t-44.5 -187t-125 -121t-184.5 -42h-190v700zM272 71q127 0 202.5 71t75.5 208t-75.5 208t-202.5 71h-107v-558h107zM121 906h63l69 -73l68 73h63l-101 -143h-61z" />
    <glyph glyph-name="dcaron" unicode="&#x10f;" horiz-adv-x="689" 
d="M157.5 19.5q-54.5 33.5 -85.5 93.5t-31 135t31.5 135t86 93.5t119.5 33.5q59 0 105 -26.5t71 -73.5v290h76v-700h-76v90q-22 -45 -68.5 -74.5t-105.5 -29.5q-68 0 -122.5 33.5zM378 79q39 25 61 69.5t22 99.5t-22 99.5t-61 69.5t-88 25q-50 0 -89 -24.5t-60.5 -69
t-21.5 -100.5t21.5 -100.5t60.5 -69t89 -24.5q49 0 88 25zM608 525l34 91h-36v84h83v-85l-63 -100z" />
    <glyph glyph-name="Dcroat" unicode="&#x110;" horiz-adv-x="714" 
d="M115 316h-75v68h75v316h190q104 0 184.5 -42t125 -121t44.5 -187t-44.5 -187t-125 -121t-184.5 -42h-190v316zM301 71q127 0 202.5 71t75.5 208t-75.5 208t-202.5 71h-107v-245h154v-68h-154v-245h107z" />
    <glyph glyph-name="dcroat" unicode="&#x111;" horiz-adv-x="604" 
d="M592 572h-62v-572h-76v90q-22 -45 -68.5 -74.5t-105.5 -29.5q-68 0 -122.5 33.5t-85.5 93.5t-31 135t31.5 135t86 93.5t119.5 33.5q59 0 105 -26.5t71 -73.5v162h-164v61h164v67h76v-67h62v-61zM378 79q39 25 61 69.5t22 99.5t-22 99.5t-61 69.5t-88 25q-50 0 -89 -24.5
t-60.5 -69t-21.5 -100.5t21.5 -100.5t60.5 -69t89 -24.5q49 0 88 25z" />
    <glyph glyph-name="Emacron" unicode="&#x112;" horiz-adv-x="587" 
d="M86 700h431v-70h-352v-233h324v-70h-324v-257h355v-70h-434v700zM196 871h217v-64h-217v64z" />
    <glyph glyph-name="emacron" unicode="&#x113;" horiz-adv-x="570" 
d="M163 19.5q-56 33.5 -89 93.5t-33 135t33 135t90 93.5t126 33.5q72 0 126 -31.5t83 -88t29 -128.5v-26h-412q4 -80 51 -132.5t122 -52.5q62 0 102.5 29.5t66.5 83.5l55 -33q-35 -72 -90 -108.5t-137 -36.5q-67 0 -123 33.5zM450 299q-3 70 -49 109.5t-112 39.5
q-65 0 -113 -42.5t-60 -106.5h334zM179 667h217v-64h-217v64z" />
    <glyph glyph-name="Ebreve" unicode="&#x114;" horiz-adv-x="587" 
d="M86 700h431v-70h-352v-233h324v-70h-324v-257h355v-70h-434v700zM231 801q-28 29 -28 74h62q0 -20 10.5 -32t29.5 -12q18 0 28.5 12t10.5 32h62q0 -45 -28 -74t-73 -29q-46 0 -74 29z" />
    <glyph glyph-name="ebreve" unicode="&#x115;" horiz-adv-x="570" 
d="M163 19.5q-56 33.5 -89 93.5t-33 135t33 135t90 93.5t126 33.5q72 0 126 -31.5t83 -88t29 -128.5v-26h-412q4 -80 51 -132.5t122 -52.5q62 0 102.5 29.5t66.5 83.5l55 -33q-35 -72 -90 -108.5t-137 -36.5q-67 0 -123 33.5zM450 299q-3 70 -49 109.5t-112 39.5
q-65 0 -113 -42.5t-60 -106.5h334zM214 597q-28 29 -28 74h62q0 -20 10.5 -32t29.5 -12q18 0 28.5 12t10.5 32h62q0 -45 -28 -74t-73 -29q-46 0 -74 29z" />
    <glyph glyph-name="Edotaccent" unicode="&#x116;" horiz-adv-x="587" 
d="M86 700h431v-70h-352v-233h324v-70h-324v-257h355v-70h-434v700zM259 882h91v-94h-91v94z" />
    <glyph glyph-name="edotaccent" unicode="&#x117;" horiz-adv-x="570" 
d="M163 19.5q-56 33.5 -89 93.5t-33 135t33 135t90 93.5t126 33.5q72 0 126 -31.5t83 -88t29 -128.5v-26h-412q4 -80 51 -132.5t122 -52.5q62 0 102.5 29.5t66.5 83.5l55 -33q-35 -72 -90 -108.5t-137 -36.5q-67 0 -123 33.5zM450 299q-3 70 -49 109.5t-112 39.5
q-65 0 -113 -42.5t-60 -106.5h334zM242 678h91v-94h-91v94z" />
    <glyph glyph-name="Eogonek" unicode="&#x118;" horiz-adv-x="587" 
d="M528 -192q-20 -6 -45 -6q-43 0 -73 24.5t-30 68.5q0 31 17.5 58t45.5 47h-357v700h431v-70h-352v-233h324v-70h-324v-257h355v-70q-35 -19 -53 -41t-18 -44q0 -21 14 -33.5t36 -12.5q3 0 19 2z" />
    <glyph glyph-name="eogonek" unicode="&#x119;" horiz-adv-x="570" 
d="M528 236h-412q4 -80 51 -132.5t122 -52.5q62 0 102.5 29.5t66.5 83.5l55 -33q-50 -104 -141 -132q-34 -19 -51 -40.5t-17 -43.5q0 -21 14 -33.5t36 -12.5q3 0 19 2l10 -63q-19 -6 -45 -6q-43 0 -73 24.5t-30 68.5q0 49 45 91q-66 1 -120.5 35t-86.5 93.5t-32 133.5
q0 75 33 135t90 93.5t126 33.5q72 0 126 -31.5t83 -88t29 -128.5v-26zM450 299q-3 70 -49 109.5t-112 39.5q-65 0 -113 -42.5t-60 -106.5h334z" />
    <glyph glyph-name="Ecaron" unicode="&#x11a;" horiz-adv-x="587" 
d="M86 700h431v-70h-352v-233h324v-70h-324v-257h355v-70h-434v700zM173 906h63l69 -73l68 73h63l-101 -143h-61z" />
    <glyph glyph-name="ecaron" unicode="&#x11b;" horiz-adv-x="570" 
d="M163 19.5q-56 33.5 -89 93.5t-33 135t33 135t90 93.5t126 33.5q72 0 126 -31.5t83 -88t29 -128.5v-26h-412q4 -80 51 -132.5t122 -52.5q62 0 102.5 29.5t66.5 83.5l55 -33q-35 -72 -90 -108.5t-137 -36.5q-67 0 -123 33.5zM450 299q-3 70 -49 109.5t-112 39.5
q-65 0 -113 -42.5t-60 -106.5h334zM156 702h63l69 -73l68 73h63l-101 -143h-61z" />
    <glyph glyph-name="Gcircumflex" unicode="&#x11c;" horiz-adv-x="761" 
d="M216 33.5q-76 47.5 -118.5 130.5t-42.5 186q0 101 46.5 184.5t125.5 131.5t171 48q98 0 173 -45t117 -126l-60 -43q-77 145 -231 145q-69 0 -129.5 -38t-96.5 -105.5t-36 -151.5t32.5 -151t90.5 -104.5t132 -37.5q63 0 111.5 30t77 80.5t34.5 113.5h-247v67h326v-348h-53
l-24 124q-34 -65 -91 -101.5t-135 -36.5q-97 0 -173 47.5zM367 906h61l101 -143h-63l-68 73l-69 -73h-63z" />
    <glyph glyph-name="gcircumflex" unicode="&#x11d;" horiz-adv-x="584" 
d="M167 -199q-49 19 -74.5 52t-25.5 74q0 28 14 53l71 -20q-8 -22 -8 -37q0 -36 37.5 -57t102.5 -21q78 0 118 46t40 137v73q-27 -44 -69 -68.5t-100 -24.5q-65 0 -118 30.5t-83.5 87.5t-30.5 133q0 77 31.5 134t84.5 87t116 30q58 0 101.5 -23.5t67.5 -63.5v73h76v-463
q0 -119 -61 -185t-173 -66q-68 0 -117 19zM402.5 124q45.5 50 45.5 135t-45.5 135t-120.5 50t-120 -50t-45 -135t45 -135t120 -50t120.5 50zM251 702h61l101 -143h-63l-69 73l-68 -73h-63z" />
    <glyph glyph-name="Gbreve" unicode="&#x11e;" horiz-adv-x="761" 
d="M216 33.5q-76 47.5 -118.5 130.5t-42.5 186q0 101 46.5 184.5t125.5 131.5t171 48q98 0 173 -45t117 -126l-60 -43q-77 145 -231 145q-69 0 -129.5 -38t-96.5 -105.5t-36 -151.5t32.5 -151t90.5 -104.5t132 -37.5q63 0 111.5 30t77 80.5t34.5 113.5h-247v67h326v-348h-53
l-24 124q-34 -65 -91 -101.5t-135 -36.5q-97 0 -173 47.5zM325 801q-28 29 -28 74h62q0 -20 10.5 -32t29.5 -12q18 0 28.5 12t10.5 32h62q0 -45 -28 -74t-73 -29q-46 0 -74 29z" />
    <glyph glyph-name="gbreve" unicode="&#x11f;" horiz-adv-x="584" 
d="M167 -199q-49 19 -74.5 52t-25.5 74q0 28 14 53l71 -20q-8 -22 -8 -37q0 -36 37.5 -57t102.5 -21q78 0 118 46t40 137v73q-27 -44 -69 -68.5t-100 -24.5q-65 0 -118 30.5t-83.5 87.5t-30.5 133q0 77 31.5 134t84.5 87t116 30q58 0 101.5 -23.5t67.5 -63.5v73h76v-463
q0 -119 -61 -185t-173 -66q-68 0 -117 19zM402.5 124q45.5 50 45.5 135t-45.5 135t-120.5 50t-120 -50t-45 -135t45 -135t120 -50t120.5 50zM208 597q-28 29 -28 74h62q0 -20 10.5 -32t29.5 -12q18 0 28.5 12t10.5 32h62q0 -45 -28 -74t-73 -29q-46 0 -74 29z" />
    <glyph glyph-name="Gdotaccent" unicode="&#x120;" horiz-adv-x="761" 
d="M216 33.5q-76 47.5 -118.5 130.5t-42.5 186q0 101 46.5 184.5t125.5 131.5t171 48q98 0 173 -45t117 -126l-60 -43q-77 145 -231 145q-69 0 -129.5 -38t-96.5 -105.5t-36 -151.5t32.5 -151t90.5 -104.5t132 -37.5q63 0 111.5 30t77 80.5t34.5 113.5h-247v67h326v-348h-53
l-24 124q-34 -65 -91 -101.5t-135 -36.5q-97 0 -173 47.5zM353 882h91v-94h-91v94z" />
    <glyph glyph-name="gdotaccent" unicode="&#x121;" horiz-adv-x="584" 
d="M167 -199q-49 19 -74.5 52t-25.5 74q0 28 14 53l71 -20q-8 -22 -8 -37q0 -36 37.5 -57t102.5 -21q78 0 118 46t40 137v73q-27 -44 -69 -68.5t-100 -24.5q-65 0 -118 30.5t-83.5 87.5t-30.5 133q0 77 31.5 134t84.5 87t116 30q58 0 101.5 -23.5t67.5 -63.5v73h76v-463
q0 -119 -61 -185t-173 -66q-68 0 -117 19zM402.5 124q45.5 50 45.5 135t-45.5 135t-120.5 50t-120 -50t-45 -135t45 -135t120 -50t120.5 50zM236 678h91v-94h-91v94z" />
    <glyph glyph-name="uni0122" unicode="&#x122;" horiz-adv-x="761" 
d="M216 33.5q-76 47.5 -118.5 130.5t-42.5 186q0 101 46.5 184.5t125.5 131.5t171 48q98 0 173 -45t117 -126l-60 -43q-77 145 -231 145q-69 0 -129.5 -38t-96.5 -105.5t-36 -151.5t32.5 -151t90.5 -104.5t132 -37.5q63 0 111.5 30t77 80.5t34.5 113.5h-247v67h326v-348h-53
l-24 124q-34 -65 -91 -101.5t-135 -36.5q-97 0 -173 47.5zM346 -264l31 111h-34v93h92v-93l-70 -118z" />
    <glyph glyph-name="uni0123" unicode="&#x123;" horiz-adv-x="584" 
d="M167 -199q-49 19 -74.5 52t-25.5 74q0 28 14 53l71 -20q-8 -22 -8 -37q0 -36 37.5 -57t102.5 -21q78 0 118 46t40 137v73q-27 -44 -69 -68.5t-100 -24.5q-65 0 -118 30.5t-83.5 87.5t-30.5 133q0 77 31.5 134t84.5 87t116 30q58 0 101.5 -23.5t67.5 -63.5v73h76v-463
q0 -119 -61 -185t-173 -66q-68 0 -117 19zM402.5 124q45.5 50 45.5 135t-45.5 135t-120.5 50t-120 -50t-45 -135t45 -135t120 -50t120.5 50zM225 656l93 121l20 -15l-59 -106h38v-93h-92v93z" />
    <glyph glyph-name="Hcircumflex" unicode="&#x124;" horiz-adv-x="690" 
d="M86 700h79v-308h360v308h79v-700h-79v322h-360v-322h-79v700zM315 906h61l101 -143h-63l-68 73l-69 -73h-63z" />
    <glyph glyph-name="hcircumflex" unicode="&#x125;" horiz-adv-x="577" 
d="M74 700h76v-296q27 49 75 77.5t105 28.5q81 0 127 -46t46 -128v-336h-76v319q0 59 -33 91t-90 32q-39 0 -74.5 -22.5t-57.5 -62t-22 -88.5v-269h-76v700zM159 906h61l101 -143h-63l-69 73l-68 -73h-63z" />
    <glyph glyph-name="Hbar" unicode="&#x126;" horiz-adv-x="690" 
d="M700 499h-96v-499h-79v322h-360v-322h-79v499h-96v64h96v137h79v-137h360v137h79v-137h96v-64zM525 499h-360v-107h360v107z" />
    <glyph glyph-name="hbar" unicode="&#x127;" horiz-adv-x="577" 
d="M457 464q46 -46 46 -128v-336h-76v319q0 59 -33 91t-90 32q-39 0 -74.5 -22.5t-57.5 -62t-22 -88.5v-269h-76v572h-63v61h63v67h76v-67h163v-61h-163v-168q27 49 75 77.5t105 28.5q81 0 127 -46z" />
    <glyph glyph-name="Itilde" unicode="&#x128;" horiz-adv-x="251" 
d="M86 700h79v-700h-79v700zM147 776.5q-21 10.5 -42 29.5q-18 15 -28.5 21t-26.5 6q-14 0 -22 -8t-8 -20q0 -13 6 -24l-56 -12q-11 20 -11 44q0 38 25.5 58t61.5 20q35 0 56 -10.5t43 -29.5q16 -14 27 -20.5t27 -6.5q14 0 22 8.5t8 20.5q0 11 -5 23l55 12q11 -19 11 -44
q0 -38 -25.5 -58t-61.5 -20q-35 0 -56 10.5z" />
    <glyph glyph-name="itilde" unicode="&#x129;" horiz-adv-x="224" 
d="M74 496h76v-496h-76v496zM134 572.5q-21 10.5 -42 29.5q-18 15 -28.5 21t-26.5 6q-14 0 -22 -8t-8 -20q0 -13 6 -24l-56 -12q-11 20 -11 44q0 38 25.5 58t61.5 20q35 0 56 -10.5t43 -29.5q16 -14 27 -20.5t27 -6.5q14 0 22 8.5t8 20.5q0 11 -5 23l55 12q11 -19 11 -44
q0 -38 -25.5 -58t-61.5 -20q-35 0 -56 10.5z" />
    <glyph glyph-name="Imacron" unicode="&#x12a;" horiz-adv-x="251" 
d="M86 700h79v-700h-79v700zM17 871h217v-64h-217v64z" />
    <glyph glyph-name="imacron" unicode="&#x12b;" horiz-adv-x="224" 
d="M74 496h76v-496h-76v496zM4 667h217v-64h-217v64z" />
    <glyph glyph-name="Ibreve" unicode="&#x12c;" horiz-adv-x="251" 
d="M86 700h79v-700h-79v700zM52 801q-28 29 -28 74h62q0 -20 10.5 -32t29.5 -12q18 0 28.5 12t10.5 32h62q0 -45 -28 -74t-73 -29q-46 0 -74 29z" />
    <glyph glyph-name="ibreve" unicode="&#x12d;" horiz-adv-x="224" 
d="M74 496h76v-496h-76v496zM38 597q-28 29 -28 74h62q0 -20 10.5 -32t29.5 -12q18 0 28.5 12t10.5 32h62q0 -45 -28 -74t-73 -29q-46 0 -74 29z" />
    <glyph glyph-name="Iogonek" unicode="&#x12e;" horiz-adv-x="251" 
d="M173 -192q-20 -6 -45 -6q-43 0 -73 24.5t-30 68.5q0 31 17.5 58t45.5 47h-2v700h79v-700q-35 -19 -53 -41t-18 -44q0 -21 14 -33.5t36 -12.5q3 0 19 2z" />
    <glyph glyph-name="iogonek" unicode="&#x12f;" horiz-adv-x="224" 
d="M157 584h-91v94h91v-94zM158 -192q-20 -6 -45 -6q-43 0 -73 24.5t-30 68.5q0 32 17.5 59t46.5 47v495h76v-496q-35 -19 -53 -41t-18 -44q0 -21 14 -33.5t36 -12.5q3 0 19 2z" />
    <glyph glyph-name="Idotaccent" unicode="&#x130;" horiz-adv-x="251" 
d="M86 700h79v-700h-79v700zM80 882h91v-94h-91v94z" />
    <glyph glyph-name="dotlessi" unicode="&#x131;" horiz-adv-x="224" 
d="M74 496h76v-496h-76v496z" />
    <glyph glyph-name="IJ" unicode="&#x132;" horiz-adv-x="763" 
d="M86 700h79v-700h-79v700zM336.5 42.5q-57.5 56.5 -57.5 156.5l80 -9q0 -65 37 -99t93 -34q60 0 95 37t35 106v500h79v-500q0 -64 -26 -112.5t-73.5 -75t-109.5 -26.5q-95 0 -152.5 56.5z" />
    <glyph glyph-name="ij" unicode="&#x133;" horiz-adv-x="449" 
d="M74 496h76v-496h-76v496zM66 678h91v-94h-91v94zM192 -202l10 68q19 -8 40 -8q28 0 42.5 18.5t14.5 51.5v568h76v-563q0 -66 -30 -105t-93 -39q-31 0 -60 9zM291 678h91v-94h-91v94z" />
    <glyph glyph-name="Jcircumflex" unicode="&#x134;" horiz-adv-x="532" 
d="M105.5 42.5q-57.5 56.5 -57.5 156.5l80 -9q0 -65 37 -99t93 -34q60 0 95 37t35 106v500h79v-500q0 -64 -26 -112.5t-73.5 -75t-109.5 -26.5q-95 0 -152.5 56.5zM398 906h61l101 -143h-63l-68 73l-69 -73h-63z" />
    <glyph glyph-name="jcircumflex" unicode="&#x135;" horiz-adv-x="224" 
d="M-33 -202l10 68q19 -8 40 -8q28 0 42.5 18.5t14.5 51.5v568h76v-563q0 -66 -30 -105t-93 -39q-31 0 -60 9zM82 702h61l101 -143h-63l-69 73l-68 -73h-63z" />
    <glyph glyph-name="uni0136" unicode="&#x136;" horiz-adv-x="615" 
d="M86 700h79v-324l66 72l240 252h99l-243 -257l264 -443h-92l-230 382l-104 -109v-273h-79v700zM277 -264l31 111h-34v93h92v-93l-70 -118z" />
    <glyph glyph-name="uni0137" unicode="&#x137;" horiz-adv-x="502" 
d="M74 700h76v-395l198 191h97l-178 -172l208 -324h-86l-175 272l-64 -62v-210h-76v700zM211 -264l31 111h-34v93h92v-93l-70 -118z" />
    <glyph glyph-name="kgreenlandic" unicode="&#x138;" horiz-adv-x="496" 
d="M74 496h76v-219l195 219h94l-177 -194l207 -302h-87l-172 244l-60 -67v-177h-76v496z" />
    <glyph glyph-name="Lacute" unicode="&#x139;" horiz-adv-x="569" 
d="M86 700h79v-629h356v-71h-435v700zM174 906h102l-106 -143h-63z" />
    <glyph glyph-name="lacute" unicode="&#x13a;" horiz-adv-x="224" 
d="M74 700h76v-700h-76v700zM128 906h102l-106 -143h-63z" />
    <glyph glyph-name="uni013B" unicode="&#x13b;" horiz-adv-x="569" 
d="M86 700h79v-629h356v-71h-435v700zM259 -264l31 111h-34v93h92v-93l-70 -118z" />
    <glyph glyph-name="uni013C" unicode="&#x13c;" horiz-adv-x="224" 
d="M74 700h76v-700h-76v700zM69 -264l31 111h-34v93h92v-93l-70 -118z" />
    <glyph glyph-name="Lcaron" unicode="&#x13d;" horiz-adv-x="569" 
d="M86 700h79v-629h356v-71h-435v700zM441 525l34 91h-36v84h83v-85l-63 -100z" />
    <glyph glyph-name="lcaron" unicode="&#x13e;" horiz-adv-x="304" 
d="M74 700h76v-700h-76v700zM223 525l34 91h-36v84h83v-85l-63 -100z" />
    <glyph glyph-name="Ldot" unicode="&#x13f;" horiz-adv-x="569" 
d="M86 700h79v-629h356v-71h-435v700zM368 398h95v-96h-95v96z" />
    <glyph glyph-name="ldot" unicode="&#x140;" horiz-adv-x="325" 
d="M74 700h76v-700h-76v700zM225 399h95v-96h-95v96z" />
    <glyph glyph-name="Lslash" unicode="&#x141;" horiz-adv-x="569" 
d="M521 71v-71h-435v215l-83 -53v80l83 53v405h79v-355l161 103v-79l-161 -103v-195h356z" />
    <glyph glyph-name="lslash" unicode="&#x142;" horiz-adv-x="224" 
d="M221 382l-71 -44v-338h-76v290l-72 -45v73l72 45v337h76v-289l71 44v-73z" />
    <glyph glyph-name="Nacute" unicode="&#x143;" horiz-adv-x="703" 
d="M86 700h82l342 -531q24 -41 30 -55v586h77v-700h-83l-342 532q-24 41 -30 55v-587h-76v700zM386 906h102l-106 -143h-63z" />
    <glyph glyph-name="nacute" unicode="&#x144;" horiz-adv-x="570" 
d="M74 496h76v-89q27 48 73 75.5t99 27.5q76 0 125 -44t49 -129v-337h-76v319q0 59 -33.5 91t-88.5 32q-39 0 -73 -22t-54.5 -61t-20.5 -86v-273h-76v496zM309 702h102l-106 -143h-63z" />
    <glyph glyph-name="uni0145" unicode="&#x145;" horiz-adv-x="703" 
d="M86 700h82l342 -531q24 -41 30 -55v586h77v-700h-83l-342 532q-24 41 -30 55v-587h-76v700zM312 -264l31 111h-34v93h92v-93l-70 -118z" />
    <glyph glyph-name="uni0146" unicode="&#x146;" horiz-adv-x="570" 
d="M74 496h76v-89q27 48 73 75.5t99 27.5q76 0 125 -44t49 -129v-337h-76v319q0 59 -33.5 91t-88.5 32q-39 0 -73 -22t-54.5 -61t-20.5 -86v-273h-76v496zM242 -264l31 111h-34v93h92v-93l-70 -118z" />
    <glyph glyph-name="Ncaron" unicode="&#x147;" horiz-adv-x="703" 
d="M86 700h82l342 -531q24 -41 30 -55v586h77v-700h-83l-342 532q-24 41 -30 55v-587h-76v700zM223 906h63l69 -73l68 73h63l-101 -143h-61z" />
    <glyph glyph-name="ncaron" unicode="&#x148;" horiz-adv-x="570" 
d="M74 496h76v-89q27 48 73 75.5t99 27.5q76 0 125 -44t49 -129v-337h-76v319q0 59 -33.5 91t-88.5 32q-39 0 -73 -22t-54.5 -61t-20.5 -86v-273h-76v496zM161 702h63l69 -73l68 73h63l-101 -143h-61z" />
    <glyph glyph-name="Eng" unicode="&#x14a;" horiz-adv-x="700" 
d="M396 -214.5q-19 3.5 -41 11.5l28 69q24 -13 55 -13q49 0 73.5 31.5t24.5 90.5v25l-344 532q-24 41 -30 55v-587h-76v700h82l339 -523q24 -41 30 -55v578h77v-722q0 -90 -45 -143t-127 -53q-27 0 -46 3.5z" />
    <glyph glyph-name="eng" unicode="&#x14b;" horiz-adv-x="570" 
d="M313 -202l10 68q19 -8 41 -8q28 0 42 18t14 52v391q0 59 -33.5 91t-88.5 32q-39 0 -73 -22t-54.5 -61t-20.5 -86v-273h-76v496h76v-89q28 48 73.5 75.5t98.5 27.5q75 0 124.5 -44t49.5 -129v-404q0 -66 -29.5 -105t-92.5 -39q-32 0 -61 9z" />
    <glyph glyph-name="Omacron" unicode="&#x14c;" horiz-adv-x="784" 
d="M220.5 31.5q-76.5 45.5 -121 128.5t-44.5 190t44.5 190t121 128.5t171.5 45.5t171.5 -45.5t121 -128.5t44.5 -190t-44.5 -190t-121 -128.5t-171.5 -45.5t-171.5 45.5zM524.5 93.5q58.5 36.5 92 103t33.5 153.5t-33.5 153.5t-92 103t-132.5 36.5t-132.5 -36.5t-91.5 -103
t-33 -153.5t33 -153.5t91.5 -103t132.5 -36.5t132.5 36.5zM284 871h217v-64h-217v64z" />
    <glyph glyph-name="omacron" unicode="&#x14d;" horiz-adv-x="599" 
d="M171 17q-59 31 -94.5 90.5t-35.5 140.5t35.5 140.5t94.5 90.5t128 31t128.5 -31t95 -90.5t35.5 -140.5t-35.5 -140.5t-95 -90.5t-128.5 -31t-128 31zM391.5 79q41.5 25 65.5 69t24 100t-24 100t-65.5 69t-92.5 25q-50 0 -91.5 -25t-65.5 -69t-24 -100t24 -100t65.5 -69
t91.5 -25q51 0 92.5 25zM191 667h217v-64h-217v64z" />
    <glyph glyph-name="Obreve" unicode="&#x14e;" horiz-adv-x="784" 
d="M220.5 31.5q-76.5 45.5 -121 128.5t-44.5 190t44.5 190t121 128.5t171.5 45.5t171.5 -45.5t121 -128.5t44.5 -190t-44.5 -190t-121 -128.5t-171.5 -45.5t-171.5 45.5zM524.5 93.5q58.5 36.5 92 103t33.5 153.5t-33.5 153.5t-92 103t-132.5 36.5t-132.5 -36.5t-91.5 -103
t-33 -153.5t33 -153.5t91.5 -103t132.5 -36.5t132.5 36.5zM319 801q-28 29 -28 74h62q0 -20 10.5 -32t29.5 -12q18 0 28.5 12t10.5 32h62q0 -45 -28 -74t-73 -29q-46 0 -74 29z" />
    <glyph glyph-name="obreve" unicode="&#x14f;" horiz-adv-x="599" 
d="M171 17q-59 31 -94.5 90.5t-35.5 140.5t35.5 140.5t94.5 90.5t128 31t128.5 -31t95 -90.5t35.5 -140.5t-35.5 -140.5t-95 -90.5t-128.5 -31t-128 31zM391.5 79q41.5 25 65.5 69t24 100t-24 100t-65.5 69t-92.5 25q-50 0 -91.5 -25t-65.5 -69t-24 -100t24 -100t65.5 -69
t91.5 -25q51 0 92.5 25zM226 597q-28 29 -28 74h62q0 -20 10.5 -32t29.5 -12q18 0 28.5 12t10.5 32h62q0 -45 -28 -74t-73 -29q-46 0 -74 29z" />
    <glyph glyph-name="Ohungarumlaut" unicode="&#x150;" horiz-adv-x="784" 
d="M220.5 31.5q-76.5 45.5 -121 128.5t-44.5 190t44.5 190t121 128.5t171.5 45.5t171.5 -45.5t121 -128.5t44.5 -190t-44.5 -190t-121 -128.5t-171.5 -45.5t-171.5 45.5zM524.5 93.5q58.5 36.5 92 103t33.5 153.5t-33.5 153.5t-92 103t-132.5 36.5t-132.5 -36.5t-91.5 -103
t-33 -153.5t33 -153.5t91.5 -103t132.5 -36.5t132.5 36.5zM329 906h102l-106 -143h-63zM487 906h103l-107 -143h-62z" />
    <glyph glyph-name="ohungarumlaut" unicode="&#x151;" horiz-adv-x="599" 
d="M171 17q-59 31 -94.5 90.5t-35.5 140.5t35.5 140.5t94.5 90.5t128 31t128.5 -31t95 -90.5t35.5 -140.5t-35.5 -140.5t-95 -90.5t-128.5 -31t-128 31zM391.5 79q41.5 25 65.5 69t24 100t-24 100t-65.5 69t-92.5 25q-50 0 -91.5 -25t-65.5 -69t-24 -100t24 -100t65.5 -69
t91.5 -25q51 0 92.5 25zM236 702h102l-106 -143h-63zM394 702h103l-107 -143h-62z" />
    <glyph glyph-name="OE" unicode="&#x152;" horiz-adv-x="1151" 
d="M220.5 31.5q-76.5 45.5 -121 128.5t-44.5 190t44.5 190t121 128.5t171.5 45.5q86 0 152.5 -35.5t105.5 -102.5v124h432v-70h-353v-233h325v-70h-325v-257h356v-70h-435v133q-89 -147 -258 -147q-95 0 -171.5 45.5zM524.5 93.5q58.5 36.5 92 103.5t33.5 153
q0 87 -33.5 153.5t-92 103t-132.5 36.5t-132.5 -36.5t-91.5 -103t-33 -153.5t33 -153.5t91.5 -103t132.5 -36.5t132.5 36.5z" />
    <glyph glyph-name="oe" unicode="&#x153;" horiz-adv-x="1008" 
d="M170 17q-59 31 -95 90.5t-36 140.5t36 140.5t95 90.5t128 31q68 0 126.5 -31.5t93.5 -88.5q33 55 88.5 87.5t122.5 32.5q72 0 125.5 -31.5t82.5 -88t29 -128.5v-26h-412q3 -52 25 -94t60.5 -66.5t88.5 -24.5q115 0 168 113l56 -33q-70 -145 -227 -145q-65 0 -119.5 32
t-87.5 87q-34 -57 -92.5 -88t-127.5 -31t-128 31zM889 298q-3 70 -49.5 110t-111.5 40q-66 0 -114.5 -42.5t-59.5 -107.5h335zM390.5 79q41.5 25 65.5 69t24 100t-24 100t-65.5 69t-92.5 25t-92.5 -25t-65.5 -69t-24 -100t24 -100t65.5 -69t92.5 -25t92.5 25z" />
    <glyph glyph-name="Racute" unicode="&#x154;" horiz-adv-x="632" 
d="M86 700h276q69 0 119.5 -25.5t77 -69.5t26.5 -100q0 -76 -44 -126.5t-125 -67.5l174 -311h-87l-173 305h-165v-305h-79v700zM351 374q75 0 114.5 32t39.5 96q0 65 -39.5 97t-114.5 32h-186v-257h186zM341 906h102l-106 -143h-63z" />
    <glyph glyph-name="racute" unicode="&#x155;" horiz-adv-x="351" 
d="M74 496h76v-90q19 46 56.5 75t85.5 29q23 0 41 -5l-12 -69q-16 6 -39 6q-36 0 -66.5 -24t-48 -65t-17.5 -89v-264h-76v496zM219 702h102l-106 -143h-63z" />
    <glyph glyph-name="uni0156" unicode="&#x156;" horiz-adv-x="632" 
d="M86 700h276q69 0 119.5 -25.5t77 -69.5t26.5 -100q0 -76 -44 -126.5t-125 -67.5l174 -311h-87l-173 305h-165v-305h-79v700zM351 374q75 0 114.5 32t39.5 96q0 65 -39.5 97t-114.5 32h-186v-257h186zM278 -264l31 111h-34v93h92v-93l-70 -118z" />
    <glyph glyph-name="uni0157" unicode="&#x157;" horiz-adv-x="351" 
d="M74 496h76v-90q19 46 56.5 75t85.5 29q23 0 41 -5l-12 -69q-16 6 -39 6q-36 0 -66.5 -24t-48 -65t-17.5 -89v-264h-76v496zM69 -264l31 111h-34v93h92v-93l-70 -118z" />
    <glyph glyph-name="Rcaron" unicode="&#x158;" horiz-adv-x="632" 
d="M86 700h276q69 0 119.5 -25.5t77 -69.5t26.5 -100q0 -76 -44 -126.5t-125 -67.5l174 -311h-87l-173 305h-165v-305h-79v700zM351 374q75 0 114.5 32t39.5 96q0 65 -39.5 97t-114.5 32h-186v-257h186zM178 906h63l69 -73l68 73h63l-101 -143h-61z" />
    <glyph glyph-name="rcaron" unicode="&#x159;" horiz-adv-x="351" 
d="M74 496h76v-90q19 46 56.5 75t85.5 29q23 0 41 -5l-12 -69q-16 6 -39 6q-36 0 -66.5 -24t-48 -65t-17.5 -89v-264h-76v496zM71 702h63l69 -73l68 73h63l-101 -143h-61z" />
    <glyph glyph-name="Sacute" unicode="&#x15a;" horiz-adv-x="644" 
d="M143 46.5q-72 60.5 -92 155.5l71 38q18 -89 69.5 -137t136.5 -48q53 0 93 18.5t61 49t21 66.5q0 59 -47.5 93t-141.5 51q-109 20 -169.5 68t-60.5 131q0 53 29.5 94.5t82.5 64.5t120 23q93 0 160 -45.5t93 -124.5l-63 -37q-23 67 -72.5 102.5t-118.5 35.5q-67 0 -111 -30
t-44 -82q0 -54 49.5 -86.5t146.5 -51.5q112 -22 169.5 -70.5t57.5 -128.5q0 -59 -32 -107t-90 -75.5t-133 -27.5q-113 0 -185 60.5zM348 906h102l-106 -143h-63z" />
    <glyph glyph-name="sacute" unicode="&#x15b;" horiz-adv-x="482" 
d="M125 26q-54 40 -79 104l64 39q18 -56 55.5 -87t92.5 -31q50 0 80.5 24.5t30.5 64.5q0 37 -30.5 58.5t-96.5 33.5q-76 13 -122 49t-46 97q0 60 49.5 96t121.5 36q73 0 119.5 -31t72.5 -90l-59 -34q-17 47 -52 70.5t-80 23.5q-44 0 -73 -18.5t-29 -51.5q0 -35 34 -56
t100 -34q80 -15 122 -50t42 -96q0 -42 -21.5 -77.5t-63.5 -57.5t-100 -22q-78 0 -132 40zM260 702h102l-106 -143h-63z" />
    <glyph glyph-name="Scircumflex" unicode="&#x15c;" horiz-adv-x="644" 
d="M143 46.5q-72 60.5 -92 155.5l71 38q18 -89 69.5 -137t136.5 -48q53 0 93 18.5t61 49t21 66.5q0 59 -47.5 93t-141.5 51q-109 20 -169.5 68t-60.5 131q0 53 29.5 94.5t82.5 64.5t120 23q93 0 160 -45.5t93 -124.5l-63 -37q-23 67 -72.5 102.5t-118.5 35.5q-67 0 -111 -30
t-44 -82q0 -54 49.5 -86.5t146.5 -51.5q112 -22 169.5 -70.5t57.5 -128.5q0 -59 -32 -107t-90 -75.5t-133 -27.5q-113 0 -185 60.5zM286 906h61l101 -143h-63l-68 73l-69 -73h-63z" />
    <glyph glyph-name="scircumflex" unicode="&#x15d;" horiz-adv-x="482" 
d="M125 26q-54 40 -79 104l64 39q18 -56 55.5 -87t92.5 -31q50 0 80.5 24.5t30.5 64.5q0 37 -30.5 58.5t-96.5 33.5q-76 13 -122 49t-46 97q0 60 49.5 96t121.5 36q73 0 119.5 -31t72.5 -90l-59 -34q-17 47 -52 70.5t-80 23.5q-44 0 -73 -18.5t-29 -51.5q0 -35 34 -56
t100 -34q80 -15 122 -50t42 -96q0 -42 -21.5 -77.5t-63.5 -57.5t-100 -22q-78 0 -132 40zM213 702h61l101 -143h-63l-69 73l-68 -73h-63z" />
    <glyph glyph-name="Scedilla" unicode="&#x15e;" horiz-adv-x="644" 
d="M316 -14l-23 -43q19 13 47 13q33 0 54 -21.5t21 -55.5q0 -39 -26 -61t-65 -22q-33 0 -55.5 16t-29.5 44l47 12q7 -28 40 -28q15 0 25.5 10t10.5 27t-10.5 28t-28.5 11q-24 0 -48 -20l-30 29l25 66q-89 14 -145.5 71.5t-73.5 139.5l71 38q18 -89 69.5 -137t136.5 -48
q53 0 93 18.5t61 49t21 66.5q0 59 -47.5 93t-141.5 51q-109 20 -169.5 68t-60.5 131q0 53 29.5 94.5t82 64.5t119.5 23q94 0 161 -45.5t93 -124.5l-63 -37q-23 67 -72.5 102.5t-118.5 35.5q-67 0 -111 -30t-44 -82q0 -54 49.5 -86.5t146.5 -51.5q111 -22 168.5 -70.5
t57.5 -128.5q0 -59 -32 -107t-89.5 -75.5t-132.5 -27.5h-12z" />
    <glyph glyph-name="scedilla" unicode="&#x15f;" horiz-adv-x="482" 
d="M245 -14l-23 -43q19 13 47 13q33 0 54 -21.5t21 -55.5q0 -39 -26 -61t-65 -22q-33 0 -55.5 16t-29.5 44l47 12q7 -28 40 -28q15 0 25.5 10t10.5 27t-10.5 28t-28.5 11q-24 0 -48 -20l-30 29l25 68q-55 13 -94 50t-59 87l64 39q18 -56 55.5 -87t92.5 -31q50 0 80.5 24.5
t30.5 64.5q0 37 -30.5 58.5t-96.5 33.5q-76 13 -122 49t-46 97q0 60 49.5 96t121.5 36q73 0 119.5 -31t72.5 -90l-59 -34q-17 47 -52 70.5t-80 23.5q-44 0 -73 -18.5t-29 -51.5q0 -35 34 -56t100 -34q80 -15 122 -50t42 -96q0 -42 -21.5 -77.5t-63.5 -57.5t-100 -22h-12z
" />
    <glyph glyph-name="Scaron" unicode="&#x160;" horiz-adv-x="644" 
d="M143 46.5q-72 60.5 -92 155.5l71 38q18 -89 69.5 -137t136.5 -48q53 0 93 18.5t61 49t21 66.5q0 59 -47.5 93t-141.5 51q-109 20 -169.5 68t-60.5 131q0 53 29.5 94.5t82.5 64.5t120 23q93 0 160 -45.5t93 -124.5l-63 -37q-23 67 -72.5 102.5t-118.5 35.5q-67 0 -111 -30
t-44 -82q0 -54 49.5 -86.5t146.5 -51.5q112 -22 169.5 -70.5t57.5 -128.5q0 -59 -32 -107t-90 -75.5t-133 -27.5q-113 0 -185 60.5zM185 906h63l69 -73l68 73h63l-101 -143h-61z" />
    <glyph glyph-name="scaron" unicode="&#x161;" horiz-adv-x="482" 
d="M125 26q-54 40 -79 104l64 39q18 -56 55.5 -87t92.5 -31q50 0 80.5 24.5t30.5 64.5q0 37 -30.5 58.5t-96.5 33.5q-76 13 -122 49t-46 97q0 60 49.5 96t121.5 36q73 0 119.5 -31t72.5 -90l-59 -34q-17 47 -52 70.5t-80 23.5q-44 0 -73 -18.5t-29 -51.5q0 -35 34 -56
t100 -34q80 -15 122 -50t42 -96q0 -42 -21.5 -77.5t-63.5 -57.5t-100 -22q-78 0 -132 40zM112 702h63l69 -73l68 73h63l-101 -143h-61z" />
    <glyph glyph-name="uni0162" unicode="&#x162;" horiz-adv-x="551" 
d="M299 0l-30 -57q19 13 47 13q33 0 54 -21.5t21 -55.5q0 -39 -26 -61t-65 -22q-33 0 -55.5 16t-29.5 44l47 12q7 -28 40 -28q15 0 25.5 10t10.5 27t-10.5 28t-28.5 11q-24 0 -48 -20l-30 29l28 75h-13v629h-216v71h511v-71h-216v-629h-16z" />
    <glyph glyph-name="uni0163" unicode="&#x163;" horiz-adv-x="345" 
d="M189 437v-307q0 -39 17 -58t52 -19q18 0 38 6l7 -63q-28 -10 -62 -10q-17 0 -32 3l-25 -46q19 13 47 13q33 0 54 -21.5t21 -55.5q0 -39 -26 -61t-65 -22q-33 0 -55.5 16t-29.5 44l47 12q7 -28 40 -28q15 0 25.5 10t10.5 27t-10.5 28t-28.5 11q-24 0 -48 -20l-30 29l30 81
q-53 35 -53 120v311h-85v59h85v134h76v-134h119v-59h-119z" />
    <glyph glyph-name="Tcaron" unicode="&#x164;" horiz-adv-x="551" 
d="M236 629h-216v71h511v-71h-216v-629h-79v629zM144 906h63l69 -73l68 73h63l-101 -143h-61z" />
    <glyph glyph-name="tcaron" unicode="&#x165;" horiz-adv-x="345" 
d="M148.5 20.5q-35.5 34.5 -35.5 105.5v311h-85v59h85v134h76v-134h119v-59h-119v-307q0 -39 17 -58t52 -19q18 0 38 6l7 -63q-28 -10 -62 -10q-57 0 -92.5 34.5zM265 566l34 91h-36v84h83v-85l-63 -100z" />
    <glyph glyph-name="Tbar" unicode="&#x166;" horiz-adv-x="551" 
d="M236 359h-148v64h148v206h-216v71h511v-71h-216v-206h148v-64h-148v-359h-79v359z" />
    <glyph glyph-name="tbar" unicode="&#x167;" horiz-adv-x="345" 
d="M148.5 20.5q-35.5 34.5 -35.5 105.5v107h-69v57h69v147h-85v59h85v134h76v-134h119v-59h-119v-147h106v-57h-106v-103q0 -39 17 -58t52 -19q18 0 38 6l7 -63q-28 -10 -62 -10q-57 0 -92.5 34.5z" />
    <glyph glyph-name="Utilde" unicode="&#x168;" horiz-adv-x="670" 
d="M198.5 16.5q-58.5 30.5 -91 88t-32.5 138.5v457h79v-453q0 -87 50 -138.5t131 -51.5t131.5 51.5t50.5 138.5v453h79v-457q0 -81 -32.5 -138.5t-91.5 -88t-137 -30.5t-136.5 30.5zM357 776.5q-21 10.5 -42 29.5q-18 15 -28.5 21t-26.5 6q-14 0 -22 -8t-8 -20q0 -13 6 -24
l-56 -12q-11 20 -11 44q0 38 25.5 58t61.5 20q35 0 56 -10.5t43 -29.5q16 -14 27 -20.5t27 -6.5q14 0 22 8.5t8 20.5q0 11 -5 23l55 12q11 -19 11 -44q0 -38 -25.5 -58t-61.5 -20q-35 0 -56 10.5z" />
    <glyph glyph-name="utilde" unicode="&#x169;" horiz-adv-x="569" 
d="M124.5 32q-50.5 46 -50.5 138v326h76v-317q0 -60 33 -92.5t88 -32.5q40 0 74 22.5t54 63t20 91.5v265h76v-496h-76v88q-24 -47 -69 -74.5t-98 -27.5q-77 0 -127.5 46zM306 572.5q-21 10.5 -42 29.5q-18 15 -28.5 21t-26.5 6q-14 0 -22 -8t-8 -20q0 -13 6 -24l-56 -12
q-11 20 -11 44q0 38 25.5 58t61.5 20q35 0 56 -10.5t43 -29.5q16 -14 27 -20.5t27 -6.5q14 0 22 8.5t8 20.5q0 11 -5 23l55 12q11 -19 11 -44q0 -38 -25.5 -58t-61.5 -20q-35 0 -56 10.5z" />
    <glyph glyph-name="Umacron" unicode="&#x16a;" horiz-adv-x="670" 
d="M198.5 16.5q-58.5 30.5 -91 88t-32.5 138.5v457h79v-453q0 -87 50 -138.5t131 -51.5t131.5 51.5t50.5 138.5v453h79v-457q0 -81 -32.5 -138.5t-91.5 -88t-137 -30.5t-136.5 30.5zM227 871h217v-64h-217v64z" />
    <glyph glyph-name="umacron" unicode="&#x16b;" horiz-adv-x="569" 
d="M124.5 32q-50.5 46 -50.5 138v326h76v-317q0 -60 33 -92.5t88 -32.5q40 0 74 22.5t54 63t20 91.5v265h76v-496h-76v88q-24 -47 -69 -74.5t-98 -27.5q-77 0 -127.5 46zM176 667h217v-64h-217v64z" />
    <glyph glyph-name="Ubreve" unicode="&#x16c;" horiz-adv-x="670" 
d="M198.5 16.5q-58.5 30.5 -91 88t-32.5 138.5v457h79v-453q0 -87 50 -138.5t131 -51.5t131.5 51.5t50.5 138.5v453h79v-457q0 -81 -32.5 -138.5t-91.5 -88t-137 -30.5t-136.5 30.5zM262 801q-28 29 -28 74h62q0 -20 10.5 -32t29.5 -12q18 0 28.5 12t10.5 32h62
q0 -45 -28 -74t-73 -29q-46 0 -74 29z" />
    <glyph glyph-name="ubreve" unicode="&#x16d;" horiz-adv-x="569" 
d="M124.5 32q-50.5 46 -50.5 138v326h76v-317q0 -60 33 -92.5t88 -32.5q40 0 74 22.5t54 63t20 91.5v265h76v-496h-76v88q-24 -47 -69 -74.5t-98 -27.5q-77 0 -127.5 46zM211 597q-28 29 -28 74h62q0 -20 10.5 -32t29.5 -12q18 0 28.5 12t10.5 32h62q0 -45 -28 -74t-73 -29
q-46 0 -74 29z" />
    <glyph glyph-name="Uring" unicode="&#x16e;" horiz-adv-x="670" 
d="M198.5 16.5q-58.5 30.5 -91 88t-32.5 138.5v457h79v-453q0 -87 50 -138.5t131 -51.5t131.5 51.5t50.5 138.5v453h79v-457q0 -81 -32.5 -138.5t-91.5 -88t-137 -30.5t-136.5 30.5zM267 771.5q-28 27.5 -28 67.5t28 67.5t68 27.5t68 -27.5t28 -67.5t-28 -67.5t-68 -27.5
t-68 27.5zM368.5 805q13.5 14 13.5 34t-13.5 34t-33.5 14t-33.5 -14t-13.5 -34t13.5 -34t33.5 -14t33.5 14z" />
    <glyph glyph-name="uring" unicode="&#x16f;" horiz-adv-x="569" 
d="M124.5 32q-50.5 46 -50.5 138v326h76v-317q0 -60 33 -92.5t88 -32.5q40 0 74 22.5t54 63t20 91.5v265h76v-496h-76v88q-24 -47 -69 -74.5t-98 -27.5q-77 0 -127.5 46zM217 567.5q-28 27.5 -28 67.5t28 67.5t68 27.5t68 -27.5t28 -67.5t-28 -67.5t-68 -27.5t-68 27.5z
M318.5 601q13.5 14 13.5 34t-13.5 34t-33.5 14t-33.5 -14t-13.5 -34t13.5 -34t33.5 -14t33.5 14z" />
    <glyph glyph-name="Uhungarumlaut" unicode="&#x170;" horiz-adv-x="670" 
d="M198.5 16.5q-58.5 30.5 -91 88t-32.5 138.5v457h79v-453q0 -87 50 -138.5t131 -51.5t131.5 51.5t50.5 138.5v453h79v-457q0 -81 -32.5 -138.5t-91.5 -88t-137 -30.5t-136.5 30.5zM272 906h102l-106 -143h-63zM430 906h103l-107 -143h-62z" />
    <glyph glyph-name="uhungarumlaut" unicode="&#x171;" horiz-adv-x="569" 
d="M124.5 32q-50.5 46 -50.5 138v326h76v-317q0 -60 33 -92.5t88 -32.5q40 0 74 22.5t54 63t20 91.5v265h76v-496h-76v88q-24 -47 -69 -74.5t-98 -27.5q-77 0 -127.5 46zM221 702h102l-106 -143h-63zM379 702h103l-107 -143h-62z" />
    <glyph glyph-name="Uogonek" unicode="&#x172;" horiz-adv-x="670" 
d="M596 700v-457q0 -94 -43.5 -156.5t-120.5 -86.5q-35 -19 -53 -41t-18 -44q0 -21 14 -33.5t36 -12.5q3 0 19 2l10 -63q-20 -6 -45 -6q-43 0 -73 24.5t-30 68.5q0 49 45 91h-2q-78 0 -136.5 30.5t-91 88t-32.5 138.5v457h79v-453q0 -87 50 -138.5t131 -51.5t131.5 51.5
t50.5 138.5v453h79z" />
    <glyph glyph-name="uogonek" unicode="&#x173;" horiz-adv-x="569" 
d="M502 -192q-20 -6 -45 -6q-43 0 -73 24.5t-30 68.5q0 32 18 59t47 47v87q-24 -47 -69 -74.5t-98 -27.5q-77 0 -127.5 46t-50.5 138v326h76v-317q0 -60 33 -92.5t88 -32.5q40 0 74 22.5t54 63t20 91.5v265h76v-496h-1q-35 -19 -53 -41t-18 -44q0 -21 14 -33.5t36 -12.5
q3 0 19 2z" />
    <glyph glyph-name="Wcircumflex" unicode="&#x174;" horiz-adv-x="894" 
d="M8 700h79l143 -529q13 -53 18 -77q5 24 18 78l138 528h86l139 -528l17 -78q5 24 19 77l142 529h80l-198 -700h-84l-158 601l-157 -601h-85zM417 906h61l101 -143h-63l-68 73l-69 -73h-63z" />
    <glyph glyph-name="wcircumflex" unicode="&#x175;" horiz-adv-x="689" 
d="M8 496h75l110 -408l111 408h81l111 -408l110 408h75l-143 -496h-81l-113 411l-112 -411h-81zM314 702h61l101 -143h-63l-69 73l-68 -73h-63z" />
    <glyph glyph-name="Ycircumflex" unicode="&#x176;" horiz-adv-x="550" 
d="M236 287l-229 413h85l161 -300q14 -26 22 -47q8 21 22 47l161 300h86l-229 -413v-287h-79v287zM245 906h61l101 -143h-63l-68 73l-69 -73h-63z" />
    <glyph glyph-name="ycircumflex" unicode="&#x177;" horiz-adv-x="500" 
d="M63 -201l12 70q22 -9 39 -9q21 0 36 12.5t25 39.5l36 87l-204 497h86l157 -395l158 395h84l-249 -608q-21 -52 -51 -75t-76 -23q-31 0 -53 9zM220 702h61l101 -143h-63l-69 73l-68 -73h-63z" />
    <glyph glyph-name="Ydieresis" unicode="&#x178;" horiz-adv-x="550" 
d="M236 287l-229 413h85l161 -300q14 -26 22 -47q8 21 22 47l161 300h86l-229 -413v-287h-79v287zM152 882h90v-89h-90v89zM309 882h90v-89h-90v89z" />
    <glyph glyph-name="Zacute" unicode="&#x179;" horiz-adv-x="593" 
d="M41 70l403 558h-390v72h478v-72l-398 -556h415v-72h-508v70zM328 906h102l-106 -143h-63z" />
    <glyph glyph-name="zacute" unicode="&#x17a;" horiz-adv-x="481" 
d="M42 64l298 368h-289v64h374v-64l-298 -368h313v-64h-398v64zM251 702h102l-106 -143h-63z" />
    <glyph glyph-name="Zdotaccent" unicode="&#x17b;" horiz-adv-x="593" 
d="M41 70l403 558h-390v72h478v-72l-398 -556h415v-72h-508v70zM251 882h91v-94h-91v94z" />
    <glyph glyph-name="zdotaccent" unicode="&#x17c;" horiz-adv-x="481" 
d="M42 64l298 368h-289v64h374v-64l-298 -368h313v-64h-398v64zM189 678h91v-94h-91v94z" />
    <glyph glyph-name="Zcaron" unicode="&#x17d;" horiz-adv-x="593" 
d="M41 70l403 558h-390v72h478v-72l-398 -556h415v-72h-508v70zM165 906h63l69 -73l68 73h63l-101 -143h-61z" />
    <glyph glyph-name="zcaron" unicode="&#x17e;" horiz-adv-x="481" 
d="M42 64l298 368h-289v64h374v-64l-298 -368h313v-64h-398v64zM103 702h63l69 -73l68 73h63l-101 -143h-61z" />
    <glyph glyph-name="florin" unicode="&#x192;" horiz-adv-x="321" 
d="M-3 -210l14 68q13 -8 33 -8q29 0 44.5 17.5t15.5 53.5v517h-77v58h77v94q0 75 38.5 117.5t112.5 42.5q28 0 51 -10l-12 -65q-18 7 -40 7q-32 0 -53 -22t-21 -65v-99h117v-58h-117v-510q0 -73 -33 -109.5t-98 -36.5q-31 0 -52 8z" />
    <glyph glyph-name="uni01B5" unicode="&#x1b5;" horiz-adv-x="593" 
d="M41 70l182 252h-155v64h202l174 242h-390v72h478v-72l-173 -242h158v-64h-205l-178 -250h415v-72h-508v70z" />
    <glyph glyph-name="uni01B6" unicode="&#x1b6;" horiz-adv-x="481" 
d="M42 64l132 164h-100v61h151l115 143h-289v64h374v-64l-115 -143h96v-61h-147l-132 -164h313v-64h-398v64z" />
    <glyph glyph-name="AEacute" unicode="&#x1fc;" horiz-adv-x="933" 
d="M323 700h541v-70h-353v-233h325v-70h-325v-257h356v-70h-435v208h-247l-92 -208h-83zM432 276v354h-60l-157 -354h217zM608 906h102l-106 -143h-63z" />
    <glyph glyph-name="aeacute" unicode="&#x1fd;" horiz-adv-x="919" 
d="M97 28q-47 42 -47 108q0 74 57 118t149 44h132v43q0 107 -118 107q-58 0 -89 -23.5t-31 -57.5q0 -7 2 -14l-65 -22q-7 15 -7 39q0 38 24 70t67 51t96 19q69 0 115 -24.5t65 -69.5q33 44 83.5 69t109.5 25q72 0 125.5 -31.5t82.5 -88t29 -128.5v-26h-412q3 -52 25 -94
t60.5 -66.5t88.5 -24.5q115 0 168 113l56 -33q-70 -145 -227 -145q-69 0 -126 37.5t-88 98.5q-25 -63 -81.5 -99.5t-119.5 -36.5q-77 0 -124 42zM800 298q-3 70 -49.5 110t-111.5 40q-66 0 -114 -42.5t-60 -107.5h335zM313.5 78.5q36.5 25.5 55.5 67t19 87.5v3h-126
q-69 0 -103 -27.5t-34 -71.5q0 -36 29 -60t74 -24q49 0 85.5 25.5zM477 702h102l-106 -143h-63z" />
    <glyph glyph-name="uni0218" unicode="&#x218;" horiz-adv-x="644" 
d="M143 46.5q-72 60.5 -92 155.5l71 38q18 -89 69.5 -137t136.5 -48q53 0 93 18.5t61 49t21 66.5q0 59 -47.5 93t-141.5 51q-109 20 -169.5 68t-60.5 131q0 53 29.5 94.5t82.5 64.5t120 23q93 0 160 -45.5t93 -124.5l-63 -37q-23 67 -72.5 102.5t-118.5 35.5q-67 0 -111 -30
t-44 -82q0 -54 49.5 -86.5t146.5 -51.5q112 -22 169.5 -70.5t57.5 -128.5q0 -59 -32 -107t-90 -75.5t-133 -27.5q-113 0 -185 60.5zM285 -264l31 111h-34v93h92v-93l-70 -118z" />
    <glyph glyph-name="uni0219" unicode="&#x219;" horiz-adv-x="482" 
d="M125 26q-54 40 -79 104l64 39q18 -56 55.5 -87t92.5 -31q50 0 80.5 24.5t30.5 64.5q0 37 -30.5 58.5t-96.5 33.5q-76 13 -122 49t-46 97q0 60 49.5 96t121.5 36q73 0 119.5 -31t72.5 -90l-59 -34q-17 47 -52 70.5t-80 23.5q-44 0 -73 -18.5t-29 -51.5q0 -35 34 -56
t100 -34q80 -15 122 -50t42 -96q0 -42 -21.5 -77.5t-63.5 -57.5t-100 -22q-78 0 -132 40zM214 -264l31 111h-34v93h92v-93l-70 -118z" />
    <glyph glyph-name="uni021A" unicode="&#x21a;" horiz-adv-x="551" 
d="M236 629h-216v71h511v-71h-216v-629h-79v629zM232 -264l31 111h-34v93h92v-93l-70 -118z" />
    <glyph glyph-name="uni021B" unicode="&#x21b;" horiz-adv-x="345" 
d="M148.5 20.5q-35.5 34.5 -35.5 105.5v311h-85v59h85v134h76v-134h119v-59h-119v-307q0 -39 17 -58t52 -19q18 0 38 6l7 -63q-28 -10 -62 -10q-57 0 -92.5 34.5zM176 -264l31 111h-34v93h92v-93l-70 -118z" />
    <glyph glyph-name="uni0237" unicode="&#x237;" horiz-adv-x="224" 
d="M-33 -202l10 68q19 -8 40 -8q28 0 42.5 18.5t14.5 51.5v568h76v-563q0 -66 -30 -105t-93 -39q-31 0 -60 9z" />
    <glyph glyph-name="circumflex" unicode="&#x2c6;" horiz-adv-x="368" 
d="M154 702h61l101 -143h-63l-69 73l-68 -73h-63z" />
    <glyph glyph-name="caron" unicode="&#x2c7;" horiz-adv-x="368" 
d="M53 702h63l68 -73l69 73h63l-101 -143h-61z" />
    <glyph glyph-name="uni02C9" unicode="&#x2c9;" horiz-adv-x="309" 
d="M46 667h217v-64h-217v64z" />
    <glyph glyph-name="breve" unicode="&#x2d8;" horiz-adv-x="279" 
d="M66 597q-28 29 -28 74h62q0 -20 10.5 -32t29.5 -12q18 0 28.5 12t10.5 32h62q0 -45 -28 -74t-73 -29q-46 0 -74 29z" />
    <glyph glyph-name="dotaccent" unicode="&#x2d9;" horiz-adv-x="221" 
d="M65 678h91v-94h-91v94z" />
    <glyph glyph-name="ring" unicode="&#x2da;" horiz-adv-x="287" 
d="M76 567.5q-28 27.5 -28 67.5t28 67.5t68 27.5t68 -27.5t28 -67.5t-28 -67.5t-68 -27.5t-68 27.5zM177.5 601q13.5 14 13.5 34t-13.5 34t-33.5 14q-21 0 -34 -13.5t-13 -34.5t13 -34.5t34 -13.5q20 0 33.5 14z" />
    <glyph glyph-name="ogonek" unicode="&#x2db;" horiz-adv-x="205" 
d="M62.5 -173.5q-30.5 24.5 -30.5 68.5q0 35 21.5 64.5t55.5 49.5l64 -9q-71 -38 -71 -85q0 -21 14 -33.5t35 -12.5q5 0 19 2l10 -63q-19 -6 -45 -6q-42 0 -72.5 24.5z" />
    <glyph glyph-name="tilde" unicode="&#x2dc;" horiz-adv-x="465" 
d="M255 572.5q-21 10.5 -43 29.5q-16 14 -27 20.5t-27 6.5q-14 0 -22 -8t-8 -20q0 -13 6 -24l-56 -12q-11 17 -11 44q0 38 25.5 58t61.5 20q35 0 56 -10.5t43 -29.5q16 -14 27 -20.5t27 -6.5q14 0 22 8.5t8 20.5q0 13 -6 23l56 12q11 -19 11 -44q0 -38 -25.5 -58t-61.5 -20
q-35 0 -56 10.5z" />
    <glyph glyph-name="hungarumlaut" unicode="&#x2dd;" horiz-adv-x="450" 
d="M128 702h102l-106 -143h-63zM287 702h102l-106 -143h-63z" />
    <glyph glyph-name="gravecomb" unicode="&#x300;" 
d="M-169 702h102l67 -143h-63z" />
    <glyph glyph-name="acutecomb" unicode="&#x301;" 
d="M-102 702h102l-106 -143h-63z" />
    <glyph glyph-name="uni0302" unicode="&#x302;" 
d="M-164 702h61l101 -143h-63l-69 73l-68 -73h-63z" />
    <glyph glyph-name="tildecomb" unicode="&#x303;" 
d="M-143 572.5q-21 10.5 -42 29.5q-18 15 -28.5 21t-26.5 6q-14 0 -22 -8t-8 -20q0 -13 6 -24l-56 -12q-11 20 -11 44q0 38 25.5 58t61.5 20q35 0 56 -10.5t43 -29.5q16 -14 27 -20.5t27 -6.5q14 0 22 8.5t8 20.5q0 11 -5 23l55 12q11 -19 11 -44q0 -38 -25.5 -58t-61.5 -20
q-35 0 -56 10.5z" />
    <glyph glyph-name="uni0304" unicode="&#x304;" 
d="M-217 667h217v-64h-217v64z" />
    <glyph glyph-name="uni0306" unicode="&#x306;" 
d="M-177 597q-28 29 -28 74h62q0 -20 10.5 -32t29.5 -12q18 0 28.5 12t10.5 32h62q0 -45 -28 -74t-73 -29q-46 0 -74 29z" />
    <glyph glyph-name="uni0307" unicode="&#x307;" 
d="M-94 678h91v-94h-91v94z" />
    <glyph glyph-name="uni0308" unicode="&#x308;" 
d="M-249 678h90v-89h-90v89zM-93 678h90v-89h-90v89z" />
    <glyph glyph-name="uni030A" unicode="&#x30a;" 
d="M-164 567.5q-28 27.5 -28 67.5t28 67.5t68 27.5t68 -27.5t28 -67.5t-28 -67.5t-68 -27.5t-68 27.5zM-62.5 601q13.5 14 13.5 34t-13.5 34t-33.5 14t-33.5 -14t-13.5 -34t13.5 -34t33.5 -14t33.5 14z" />
    <glyph glyph-name="uni030B" unicode="&#x30b;" 
d="M-261 702h102l-106 -143h-63zM-103 702h103l-107 -143h-62z" />
    <glyph glyph-name="uni030C" unicode="&#x30c;" 
d="M-263 702h63l69 -73l68 73h63l-101 -143h-61z" />
    <glyph glyph-name="uni0312" unicode="&#x312;" 
d="M-113 656l93 121l20 -15l-59 -106h38v-93h-92v93z" />
    <glyph glyph-name="uni0326" unicode="&#x326;" 
d="M-89 -264l31 111h-34v93h92v-93l-70 -118z" />
    <glyph glyph-name="uni0327" unicode="&#x327;" 
d="M-146.5 -188q-22.5 16 -29.5 44l47 12q7 -28 40 -28q15 0 25.5 10t10.5 27t-10.5 28t-28.5 11q-24 0 -48 -20l-30 29l34 91h53l-39 -73q19 13 47 13q33 0 54 -21.5t21 -55.5q0 -39 -26 -61t-65 -22q-33 0 -55.5 16z" />
    <glyph glyph-name="uni0328" unicode="&#x328;" 
d="M-118 -173.5q-30 24.5 -30 68.5q0 35 21.5 64.5t55.5 49.5l63 -9q-35 -19 -53 -41t-18 -44q0 -21 14 -33.5t36 -12.5q3 0 19 2l10 -63q-20 -6 -45 -6q-43 0 -73 24.5z" />
    <glyph glyph-name="uni0335" unicode="&#x335;" 
d="M-302 384h302v-61h-302v61z" />
    <glyph glyph-name="uni0336" unicode="&#x336;" 
d="M-710 563h710v-64h-710v64z" />
    <glyph glyph-name="uni0337" unicode="&#x337;" 
d="M-219 243l219 137v-73l-219 -137v73z" />
    <glyph glyph-name="uni0338" unicode="&#x338;" 
d="M-368 0l311 528l57 -32l-311 -528z" />
    <glyph glyph-name="uni0394" unicode="&#x394;" horiz-adv-x="658" 
d="M288 700h82l280 -700h-642zM543 68l-207 526l-7 21l-7 -21l-206 -526h427z" />
    <glyph glyph-name="uni03A9" unicode="&#x3a9;" horiz-adv-x="781" 
d="M76 68h160q-77 50 -130 132t-53 182q0 95 44 171t121 118.5t173 42.5q95 0 172 -42.5t121 -118.5t44 -171q0 -100 -53 -182t-130 -132h160v-68h-253v79q78 40 137.5 117.5t59.5 181.5q0 76 -32.5 136.5t-91 94.5t-134.5 34t-134.5 -34t-91 -94.5t-32.5 -136.5
q0 -104 59.5 -181.5t136.5 -117.5v-79h-253v68z" />
    <glyph glyph-name="uni03BC" unicode="&#x3bc;" horiz-adv-x="569" 
d="M74 496h76v-317q0 -60 33 -92.5t88 -32.5q40 0 74 22.5t54 63t20 91.5v265h76v-496h-76v88q-24 -47 -69 -74.5t-98 -27.5q-60 0 -104 30q2 -36 2 -63v-157h-76v700z" />
    <glyph glyph-name="pi" unicode="&#x3c0;" horiz-adv-x="646" 
d="M460 19.5q-32 33.5 -32 98.5v320h-216v-438h-76v438h-106v58h580v-58h-106v-314q0 -71 64 -71q15 0 33 5l7 -63q-25 -9 -60 -9q-56 0 -88 33.5z" />
    <glyph glyph-name="Wgrave" unicode="&#x1e80;" horiz-adv-x="894" 
d="M8 700h79l143 -529q13 -53 18 -77q5 24 18 78l138 528h86l139 -528l17 -78q5 24 19 77l142 529h80l-198 -700h-84l-158 601l-157 -601h-85zM329 906h102l67 -143h-63z" />
    <glyph glyph-name="wgrave" unicode="&#x1e81;" horiz-adv-x="689" 
d="M8 496h75l110 -408l111 408h81l111 -408l110 408h75l-143 -496h-81l-113 411l-112 -411h-81zM218 702h102l67 -143h-63z" />
    <glyph glyph-name="Wacute" unicode="&#x1e82;" horiz-adv-x="894" 
d="M8 700h79l143 -529q13 -53 18 -77q5 24 18 78l138 528h86l139 -528l17 -78q5 24 19 77l142 529h80l-198 -700h-84l-158 601l-157 -601h-85zM478 906h102l-106 -143h-63z" />
    <glyph glyph-name="wacute" unicode="&#x1e83;" horiz-adv-x="689" 
d="M8 496h75l110 -408l111 408h81l111 -408l110 408h75l-143 -496h-81l-113 411l-112 -411h-81zM361 702h102l-106 -143h-63z" />
    <glyph glyph-name="Wdieresis" unicode="&#x1e84;" horiz-adv-x="894" 
d="M8 700h79l143 -529q13 -53 18 -77q5 24 18 78l138 528h86l139 -528l17 -78q5 24 19 77l142 529h80l-198 -700h-84l-158 601l-157 -601h-85zM324 882h90v-89h-90v89zM481 882h90v-89h-90v89z" />
    <glyph glyph-name="wdieresis" unicode="&#x1e85;" horiz-adv-x="689" 
d="M8 496h75l110 -408l111 408h81l111 -408l110 408h75l-143 -496h-81l-113 411l-112 -411h-81zM222 678h90v-89h-90v89zM378 678h90v-89h-90v89z" />
    <glyph glyph-name="uni1E9E" unicode="&#x1e9e;" horiz-adv-x="658" 
d="M282.5 14q-44.5 28 -69.5 72l57 51q46 -80 124 -80q60 0 95.5 40t35.5 108q0 84 -59 126.5t-163 42.5v64l140 192h-144q-134 0 -134 -140v-490h-79v490q0 101 54.5 155.5t158.5 54.5h225v-70l-141 -193q97 -11 158.5 -70t61.5 -162q0 -62 -27 -112t-74.5 -78.5
t-108.5 -28.5q-66 0 -110.5 28z" />
    <glyph glyph-name="Ygrave" unicode="&#x1ef2;" horiz-adv-x="550" 
d="M236 287l-229 413h85l161 -300q14 -26 22 -47q8 21 22 47l161 300h86l-229 -413v-287h-79v287zM157 906h102l67 -143h-63z" />
    <glyph glyph-name="ygrave" unicode="&#x1ef3;" horiz-adv-x="500" 
d="M63 -201l12 70q22 -9 39 -9q21 0 36 12.5t25 39.5l36 87l-204 497h86l157 -395l158 395h84l-249 -608q-21 -52 -51 -75t-76 -23q-31 0 -53 9zM124 702h102l67 -143h-63z" />
    <glyph glyph-name="endash" unicode="&#x2013;" horiz-adv-x="526" 
d="M49 341h429v-60h-429v60z" />
    <glyph glyph-name="emdash" unicode="&#x2014;" horiz-adv-x="796" 
d="M49 341h699v-60h-699v60z" />
    <glyph glyph-name="quoteleft" unicode="&#x2018;" horiz-adv-x="191" 
d="M43 582l96 125l20 -14l-60 -111h38v-96h-94v96z" />
    <glyph glyph-name="quoteright" unicode="&#x2019;" horiz-adv-x="191" 
d="M32 493l60 111h-38v96h94v-96l-96 -125z" />
    <glyph glyph-name="quotesinglbase" unicode="&#x201a;" horiz-adv-x="191" 
d="M32 -111l60 111h-38v96h94v-96l-96 -125z" />
    <glyph glyph-name="quotedblleft" unicode="&#x201c;" horiz-adv-x="320" 
d="M43 582l96 125l20 -14l-60 -111h38v-96h-94v96zM171 582l97 125l19 -14l-60 -111h39v-96h-95v96z" />
    <glyph glyph-name="quotedblright" unicode="&#x201d;" horiz-adv-x="320" 
d="M32 493l60 111h-38v96h94v-96l-96 -125zM161 493l60 111h-39v96h95v-96l-97 -125z" />
    <glyph glyph-name="quotedblbase" unicode="&#x201e;" horiz-adv-x="320" 
d="M32 -111l60 111h-38v96h94v-96l-96 -125zM161 -111l60 111h-39v96h95v-96l-97 -125z" />
    <glyph glyph-name="dagger" unicode="&#x2020;" horiz-adv-x="451" 
d="M188 431h-141v65h141v244h75v-244h141v-65h-141v-541h-75v541z" />
    <glyph glyph-name="daggerdbl" unicode="&#x2021;" horiz-adv-x="451" 
d="M188 134h-141v65h141v232h-141v65h141v244h75v-244h141v-65h-141v-232h141v-65h-141v-244h-75v244z" />
    <glyph glyph-name="bullet" unicode="&#x2022;" horiz-adv-x="284" 
d="M78.5 211.5q-26.5 26.5 -26.5 63.5t26.5 63.5t63.5 26.5t63.5 -26.5t26.5 -63.5t-26.5 -63.5t-63.5 -26.5t-63.5 26.5z" />
    <glyph glyph-name="ellipsis" unicode="&#x2026;" horiz-adv-x="565" 
d="M47 96h95v-96h-95v96zM235 96h95v-96h-95v96zM423 96h95v-96h-95v96z" />
    <glyph glyph-name="perthousand" unicode="&#x2030;" horiz-adv-x="1155" 
d="M130 387q-39 23 -61 63t-22 89t22 89t61 63t88 23t88 -23t60.5 -63t21.5 -89t-21.5 -89t-60.5 -63t-88 -23t-88 23zM196 34l435 666l50 -34l-436 -666zM294.5 456q29.5 32 29.5 83t-29.5 83t-76.5 32q-48 0 -77 -32t-29 -83t29 -83t77 -32q47 0 76.5 32zM573 9
q-39 23 -61 63t-22 89t22 89t61 63t88 23q44 0 80 -19t58 -52q23 34 58.5 52.5t79.5 18.5q49 0 88 -23t61 -63t22 -89t-22 -89t-61 -63t-88 -23q-44 0 -79.5 18.5t-58.5 52.5q-22 -33 -58 -52t-80 -19q-49 0 -88 23zM737.5 78q29.5 32 29.5 83t-29.5 83t-76.5 32
q-48 0 -77 -32t-29 -83t29 -83t77 -32q47 0 76.5 32zM1014.5 78q29.5 32 29.5 83t-29.5 83t-77.5 32q-47 0 -76.5 -32t-29.5 -83t29.5 -83t76.5 -32q48 0 77.5 32z" />
    <glyph glyph-name="guilsinglleft" unicode="&#x2039;" horiz-adv-x="325" 
d="M46 275l156 199h89l-155 -199l155 -199h-89z" />
    <glyph glyph-name="guilsinglright" unicode="&#x203a;" horiz-adv-x="325" 
d="M189 275l-155 199h89l156 -199l-156 -199h-89z" />
    <glyph glyph-name="fraction" unicode="&#x2044;" horiz-adv-x="187" 
d="M-149 34l435 666l50 -34l-436 -666z" />
    <glyph glyph-name="uni2070" unicode="&#x2070;" horiz-adv-x="383" 
d="M112.5 446q-34.5 23 -54.5 64t-20 95t20 95t54.5 64t78.5 23t79 -23t54.5 -64t19.5 -95t-19.5 -95t-54.5 -64t-79 -23t-78.5 23zM259 511.5q26 34.5 26 93.5t-26 93.5t-68 34.5q-41 0 -67.5 -35t-26.5 -93t26.5 -93t67.5 -35q42 0 68 34.5z" />
    <glyph glyph-name="uni2074" unicode="&#x2074;" horiz-adv-x="371" 
d="M222 497h-168v50l168 233h59v-233h39v-50h-39v-67h-59v67zM222 547v149l-111 -149h111z" />
    <glyph glyph-name="uni2075" unicode="&#x2075;" horiz-adv-x="349" 
d="M113.5 436.5q-28.5 13.5 -44 36t-15.5 47.5q0 11 4 27l54 -9q-2 -6 -2 -16q0 -23 19 -36.5t52 -13.5t52.5 19.5t19.5 55.5q0 34 -19 54.5t-53 20.5q-26 0 -46 -13.5t-30 -32.5l-46 15l19 189h213v-48h-170l-13 -104q13 19 36.5 30t48.5 11q54 0 85.5 -34t31.5 -87
q0 -55 -36 -90t-95 -35q-37 0 -65.5 13.5z" />
    <glyph glyph-name="uni2076" unicode="&#x2076;" horiz-adv-x="352" 
d="M89.5 466.5q-36.5 43.5 -36.5 118.5t27 124q17 37 47 57.5t68 20.5q46 0 76 -22.5t30 -60.5q0 -12 -5 -30l-51 10q4 10 4 18q0 18 -15 28t-39 10q-40 0 -62 -36t-24 -92q13 20 37 33t51 13q50 0 82.5 -32t32.5 -84t-36 -85.5t-91 -33.5q-59 0 -95.5 43.5zM236 490
q21 19 21 51t-21 51t-51 19t-50.5 -19t-20.5 -51t20.5 -51t50.5 -19t51 19z" />
    <glyph glyph-name="uni2077" unicode="&#x2077;" horiz-adv-x="307" 
d="M216 732h-166v48h225v-45l-142 -305h-58z" />
    <glyph glyph-name="uni2078" unicode="&#x2078;" horiz-adv-x="335" 
d="M78.5 453q-35.5 30 -35.5 77q0 60 58 88q-46 28 -46 76q0 40 31.5 66.5t80.5 26.5q50 0 81.5 -26.5t31.5 -66.5q0 -48 -46 -76q57 -28 57 -88q0 -47 -35 -77t-89 -30q-53 0 -88.5 30zM207.5 652.5q15.5 14.5 15.5 37.5q0 24 -16 38t-40 14t-40 -14t-16 -38
q0 -23 15.5 -37.5t40.5 -14.5t40.5 14.5zM213 486.5q18 16.5 18 45.5q0 30 -18 46t-46 16q-27 0 -45 -16.5t-18 -45.5q0 -28 18 -45t45 -17q28 0 46 16.5z" />
    <glyph glyph-name="uni2079" unicode="&#x2079;" horiz-adv-x="339" 
d="M88.5 446q-30.5 23 -30.5 60q0 16 6 30l51 -10q-4 -10 -4 -18q0 -18 15 -28t39 -10q40 0 62 35.5t24 92.5q-12 -22 -34.5 -34t-51.5 -12q-50 0 -83.5 32t-33.5 84t36 85.5t90 33.5q61 0 96.5 -42t35.5 -120q0 -76 -26 -124q-17 -37 -48 -57.5t-68 -20.5q-45 0 -75.5 23z
M225 617.5q20 19.5 20 51.5t-20 51t-51 19q-30 0 -50.5 -19t-20.5 -51t20.5 -51.5t50.5 -19.5q31 0 51 19.5z" />
    <glyph glyph-name="uni2080" unicode="&#x2080;" horiz-adv-x="383" 
d="M112.5 -188q-34.5 23 -54.5 64t-20 95t20 95t54.5 64t78.5 23t79 -23t54.5 -64t19.5 -95t-19.5 -95t-54.5 -64t-79 -23t-78.5 23zM259 -122.5q26 34.5 26 93.5t-26 93.5t-68 34.5q-41 0 -67.5 -35t-26.5 -93t26.5 -93t67.5 -35q42 0 68 34.5z" />
    <glyph glyph-name="uni2081" unicode="&#x2081;" horiz-adv-x="245" 
d="M120 71q-12 -13 -30 -18.5t-46 -5.5v56q33 0 51 10t29 33h53v-350h-57v275z" />
    <glyph glyph-name="uni2082" unicode="&#x2082;" horiz-adv-x="336" 
d="M52 -163l130 126q27 26 36.5 45.5t9.5 42.5q0 22 -16 37t-44 15q-27 0 -44 -16t-17 -41q0 -14 4 -23l-52 -8q-6 15 -6 35q0 41 31.5 72t83.5 31q54 0 85.5 -28t31.5 -71q0 -35 -15 -62t-50 -62l-84 -82h152v-52h-236v41z" />
    <glyph glyph-name="uni2083" unicode="&#x2083;" horiz-adv-x="339" 
d="M84 -180.5q-34 30.5 -34 70.5q0 15 6 33l52 -12q-3 -7 -3 -18q0 -25 19.5 -39t49.5 -14q32 0 49.5 15.5t17.5 45.5t-26 45t-68 15v45q40 0 59 15t19 41q0 19 -16 31t-40 12q-25 0 -41 -13t-16 -35q0 -8 2 -16l-50 -7q-5 15 -5 28q0 38 30.5 64.5t79.5 26.5q52 0 82 -24.5
t30 -61.5q0 -24 -13 -44.5t-39 -33.5q30 -10 49.5 -33t19.5 -56q0 -51 -35.5 -81t-89.5 -30q-55 0 -89 30.5z" />
    <glyph glyph-name="uni2084" unicode="&#x2084;" horiz-adv-x="371" 
d="M222 -137h-168v50l168 233h59v-233h39v-50h-39v-67h-59v67zM222 -87v149l-111 -149h111z" />
    <glyph glyph-name="uni2085" unicode="&#x2085;" horiz-adv-x="349" 
d="M113.5 -197.5q-28.5 13.5 -44 36t-15.5 47.5q0 11 4 27l54 -9q-2 -6 -2 -16q0 -23 19 -36.5t52 -13.5t52.5 19.5t19.5 55.5q0 34 -19 54.5t-53 20.5q-26 0 -46 -13.5t-30 -32.5l-46 15l19 189h213v-48h-170l-13 -104q13 19 36.5 30t48.5 11q54 0 85.5 -34t31.5 -87
q0 -55 -36 -90t-95 -35q-37 0 -65.5 13.5z" />
    <glyph glyph-name="uni2086" unicode="&#x2086;" horiz-adv-x="352" 
d="M89.5 -167.5q-36.5 43.5 -36.5 118.5t27 124q17 37 47 57.5t68 20.5q46 0 76 -22.5t30 -60.5q0 -12 -5 -30l-51 10q4 10 4 18q0 18 -15 28t-39 10q-40 0 -62 -36t-24 -92q13 20 37 33t51 13q50 0 82.5 -32t32.5 -84t-36 -85.5t-91 -33.5q-59 0 -95.5 43.5zM236 -144
q21 19 21 51t-21 51t-51 19t-50.5 -19t-20.5 -51t20.5 -51t50.5 -19t51 19z" />
    <glyph glyph-name="uni2087" unicode="&#x2087;" horiz-adv-x="307" 
d="M216 98h-166v48h225v-45l-142 -305h-58z" />
    <glyph glyph-name="uni2088" unicode="&#x2088;" horiz-adv-x="335" 
d="M78.5 -181q-35.5 30 -35.5 77q0 60 58 88q-46 28 -46 76q0 40 31.5 66.5t80.5 26.5q50 0 81.5 -26.5t31.5 -66.5q0 -48 -46 -76q57 -28 57 -88q0 -47 -35 -77t-89 -30q-53 0 -88.5 30zM207.5 18.5q15.5 14.5 15.5 37.5q0 24 -16 38t-40 14t-40 -14t-16 -38
q0 -23 15.5 -37.5t40.5 -14.5t40.5 14.5zM213 -147.5q18 16.5 18 45.5q0 30 -18 46t-46 16q-27 0 -45 -16.5t-18 -45.5q0 -28 18 -45t45 -17q28 0 46 16.5z" />
    <glyph glyph-name="uni2089" unicode="&#x2089;" horiz-adv-x="339" 
d="M88.5 -188q-30.5 23 -30.5 60q0 16 6 30l51 -10q-4 -10 -4 -18q0 -18 15 -28t39 -10q40 0 62 35.5t24 92.5q-12 -22 -34.5 -34t-51.5 -12q-50 0 -83.5 32t-33.5 84t36 85.5t90 33.5q61 0 96.5 -42t35.5 -120q0 -76 -26 -124q-17 -37 -48 -57.5t-68 -20.5q-45 0 -75.5 23z
M225 -16.5q20 19.5 20 51.5t-20 51t-51 19q-30 0 -50.5 -19t-20.5 -51t20.5 -51.5t50.5 -19.5q31 0 51 19.5z" />
    <glyph glyph-name="Euro" unicode="&#x20ac;" horiz-adv-x="753" 
d="M229 56.5q-80 70.5 -106 188.5h-81l26 60h45q-2 28 -2 45q0 23 3 45h-72l26 60h55q19 76 62.5 135t106 91.5t136.5 32.5q106 0 174.5 -51t94.5 -139l-67 -29q-47 148 -204 148q-81 0 -140 -51t-84 -137h295l-27 -60h-277q-3 -22 -3 -45q0 -31 2 -45h305l-27 -60h-268
q24 -87 82 -137.5t141 -50.5q79 0 128 41.5t75 121.5l67 -24q-31 -100 -99.5 -155t-171.5 -55q-115 0 -195 70.5z" />
    <glyph glyph-name="uni20BA" unicode="&#x20ba;" horiz-adv-x="529" 
d="M482 291v-19q0 -80 -37 -141.5t-105.5 -96t-160.5 -34.5h-79v223l-77 -37v75l77 37v93l-77 -37v75l77 37v234h79v-196l125 60v-75l-125 -60v-94l125 60v-74l-125 -60v-190q108 0 168 55.5t60 145.5v19h75z" />
    <glyph glyph-name="uni2113" unicode="&#x2113;" horiz-adv-x="550" 
d="M314.5 84.5q34.5 32.5 70.5 99.5l53 -34q-42 -81 -92 -122.5t-117 -41.5q-60 0 -96 43.5t-40 130.5q-26 -7 -67 -16v73q28 5 47 10l20 5q6 150 50 259.5t109.5 166t136.5 56.5q66 0 97.5 -40t31.5 -111q0 -124 -93 -223t-261 -158q4 -130 78 -130q38 0 72.5 32.5z
M284.5 596.5q-46.5 -52.5 -79 -143t-39.5 -198.5q135 48 207.5 126t72.5 176q0 92 -68 92q-47 0 -93.5 -52.5z" />
    <glyph glyph-name="uni2117" unicode="&#x2117;" horiz-adv-x="841" 
d="M238.5 35q-83.5 49 -132.5 132.5t-49 182.5t49 182.5t132.5 132.5t182.5 49t182.5 -49t132.5 -132.5t49 -182.5t-49 -182.5t-132.5 -132.5t-182.5 -49t-182.5 49zM575 84q70 41 110.5 111.5t40.5 154.5t-40.5 154.5t-110.5 111.5t-154 41t-154 -41t-111 -111.5
t-41 -154.5t41 -154.5t111 -111.5t154 -41t154 41zM282 549h176q61 0 95 -32.5t34 -84.5t-34 -84t-95 -32h-118v-165h-58v398zM455 364q37 0 56.5 18.5t19.5 49.5t-19.5 49t-56.5 18h-115v-135h115z" />
    <glyph glyph-name="uni2120" unicode="&#x2120;" horiz-adv-x="869" 
d="M95 326.5q-40 33.5 -54 89.5l48 22q25 -96 113 -96q41 0 67.5 20t26.5 49q0 31 -26 48t-78 27q-64 12 -97.5 39.5t-33.5 75.5t36.5 77.5t95.5 29.5q56 0 94 -25.5t55 -73.5l-42 -25q-28 77 -106 77q-36 0 -60 -16.5t-24 -42.5q0 -30 27 -46t84 -28q63 -12 95.5 -39.5
t32.5 -73.5q0 -53 -40.5 -87.5t-106.5 -34.5q-67 0 -107 33.5zM415 700h58l143 -343l144 343h57v-400h-52v290l-121 -290h-55l-121 290v-290h-53v400z" />
    <glyph glyph-name="trademark" unicode="&#x2122;" horiz-adv-x="847" 
d="M159 651h-122v49h301v-49h-122v-351h-57v351zM393 700h57l144 -343l144 343h57v-400h-53v290l-121 -290h-55l-121 290v-290h-52v400z" />
    <glyph glyph-name="uni2126" unicode="&#x2126;" horiz-adv-x="781" 
d="M76 68h160q-77 50 -130 132t-53 182q0 95 44 171t121 118.5t173 42.5q95 0 172 -42.5t121 -118.5t44 -171q0 -100 -53 -182t-130 -132h160v-68h-253v79q78 40 137.5 117.5t59.5 181.5q0 76 -32.5 136.5t-91 94.5t-134.5 34t-134.5 -34t-91 -94.5t-32.5 -136.5
q0 -104 59.5 -181.5t136.5 -117.5v-79h-253v68z" />
    <glyph glyph-name="estimated" unicode="&#x212e;" horiz-adv-x="848" 
d="M596.5 83q77.5 51 115.5 135h51q-26 -68 -77 -120.5t-118.5 -82t-143.5 -29.5q-99 0 -182.5 49t-132.5 132.5t-49 182.5t49 182.5t132.5 132.5t182.5 49t182.5 -49t132.5 -132.5t49 -182.5h-596v-217q44 -47 104 -74t128 -27q95 0 172.5 51zM296 641q-60 -27 -104 -74
v-171h464v171q-44 47 -104 74t-128 27t-128 -27z" />
    <glyph glyph-name="uni2153" unicode="&#x2153;" horiz-adv-x="770" 
d="M120 625q-12 -13 -30 -18.5t-46 -5.5v56q33 0 51 10t29 33h53v-350h-57v275zM96 34l435 666l50 -34l-436 -666zM516 23.5q-34 30.5 -34 70.5q0 15 6 33l52 -12q-3 -7 -3 -18q0 -25 19.5 -39t49.5 -14q32 0 49.5 15.5t17.5 45.5t-26 45t-68 15v45q40 0 59 15t19 41
q0 19 -16 31t-40 12q-25 0 -41 -13t-16 -35q0 -8 2 -16l-50 -7q-5 15 -5 28q0 38 30.5 64.5t79.5 26.5q52 0 82 -24.5t30 -61.5q0 -24 -13 -44.5t-39 -33.5q30 -10 49.5 -33t19.5 -56q0 -51 -35.5 -81t-89.5 -30q-55 0 -89 30.5z" />
    <glyph glyph-name="uni2154" unicode="&#x2154;" horiz-adv-x="861" 
d="M52 391l130 126q27 26 36.5 45.5t9.5 42.5q0 22 -16 37t-44 15q-27 0 -44 -16t-17 -41q0 -14 4 -23l-52 -8q-6 15 -6 35q0 41 31.5 72t83.5 31q54 0 85.5 -28t31.5 -71q0 -35 -15 -62t-50 -62l-84 -82h152v-52h-236v41zM187 34l435 666l50 -34l-436 -666zM607 23.5
q-34 30.5 -34 70.5q0 15 6 33l52 -12q-3 -7 -3 -18q0 -25 19.5 -39t49.5 -14q32 0 49.5 15.5t17.5 45.5t-26 45t-68 15v45q40 0 59 15t19 41q0 19 -16 31t-40 12q-25 0 -41 -13t-16 -35q0 -8 2 -16l-50 -7q-5 15 -5 28q0 38 30.5 64.5t79.5 26.5q52 0 82 -24.5t30 -61.5
q0 -24 -13 -44.5t-39 -33.5q30 -10 49.5 -33t19.5 -56q0 -51 -35.5 -81t-89.5 -30q-55 0 -89 30.5z" />
    <glyph glyph-name="oneeighth" unicode="&#x215b;" horiz-adv-x="736" 
d="M120 625q-12 -13 -30 -18.5t-46 -5.5v56q33 0 51 10t29 33h53v-350h-57v275zM96 34l435 666l50 -34l-436 -666zM480.5 23q-35.5 30 -35.5 77q0 60 58 88q-46 28 -46 76q0 40 31.5 66.5t80.5 26.5q50 0 81.5 -26.5t31.5 -66.5q0 -48 -46 -76q57 -28 57 -88q0 -47 -35 -77
t-89 -30q-53 0 -88.5 30zM609.5 222.5q15.5 14.5 15.5 37.5q0 24 -16 38t-40 14t-40 -14t-16 -38q0 -23 15.5 -37.5t40.5 -14.5t40.5 14.5zM615 56.5q18 16.5 18 45.5q0 30 -18 46t-46 16q-27 0 -45 -16.5t-18 -45.5q0 -28 18 -45t45 -17q28 0 46 16.5z" />
    <glyph glyph-name="threeeighths" unicode="&#x215c;" horiz-adv-x="800" 
d="M84 373.5q-34 30.5 -34 70.5q0 15 6 33l52 -12q-3 -7 -3 -18q0 -25 19.5 -39t49.5 -14q32 0 49.5 15.5t17.5 45.5t-26 45t-68 15v45q40 0 59 15t19 41q0 19 -16 31t-40 12q-25 0 -41 -13t-16 -35q0 -8 2 -16l-50 -7q-5 15 -5 28q0 38 30.5 64.5t79.5 26.5q52 0 82 -24.5
t30 -61.5q0 -24 -13 -44.5t-39 -33.5q30 -10 49.5 -33t19.5 -56q0 -51 -35.5 -81t-89.5 -30q-55 0 -89 30.5zM160 34l435 666l50 -34l-436 -666zM544.5 23q-35.5 30 -35.5 77q0 60 58 88q-46 28 -46 76q0 40 31.5 66.5t80.5 26.5q50 0 81.5 -26.5t31.5 -66.5q0 -48 -46 -76
q57 -28 57 -88q0 -47 -35 -77t-89 -30q-53 0 -88.5 30zM673.5 222.5q15.5 14.5 15.5 37.5q0 24 -16 38t-40 14t-40 -14t-16 -38q0 -23 15.5 -37.5t40.5 -14.5t40.5 14.5zM679 56.5q18 16.5 18 45.5q0 30 -18 46t-46 16q-27 0 -45 -16.5t-18 -45.5q0 -28 18 -45t45 -17
q28 0 46 16.5z" />
    <glyph glyph-name="fiveeighths" unicode="&#x215d;" horiz-adv-x="820" 
d="M113.5 356.5q-28.5 13.5 -44 36t-15.5 47.5q0 11 4 27l54 -9q-2 -6 -2 -16q0 -23 19 -36.5t52 -13.5t52.5 19.5t19.5 55.5q0 34 -19 54.5t-53 20.5q-26 0 -46 -13.5t-30 -32.5l-46 15l19 189h213v-48h-170l-13 -104q13 19 36.5 30t48.5 11q54 0 85.5 -34t31.5 -87
q0 -55 -36 -90t-95 -35q-37 0 -65.5 13.5zM180 34l435 666l50 -34l-436 -666zM564.5 23q-35.5 30 -35.5 77q0 60 58 88q-46 28 -46 76q0 40 31.5 66.5t80.5 26.5q50 0 81.5 -26.5t31.5 -66.5q0 -48 -46 -76q57 -28 57 -88q0 -47 -35 -77t-89 -30q-53 0 -88.5 30z
M693.5 222.5q15.5 14.5 15.5 37.5q0 24 -16 38t-40 14t-40 -14t-16 -38q0 -23 15.5 -37.5t40.5 -14.5t40.5 14.5zM699 56.5q18 16.5 18 45.5q0 30 -18 46t-46 16q-27 0 -45 -16.5t-18 -45.5q0 -28 18 -45t45 -17q28 0 46 16.5z" />
    <glyph glyph-name="seveneighths" unicode="&#x215e;" horiz-adv-x="749" 
d="M216 652h-166v48h225v-45l-142 -305h-58zM108 34l435 666l50 -34l-436 -666zM492.5 23q-35.5 30 -35.5 77q0 60 58 88q-46 28 -46 76q0 40 31.5 66.5t80.5 26.5q50 0 81.5 -26.5t31.5 -66.5q0 -48 -46 -76q57 -28 57 -88q0 -47 -35 -77t-89 -30q-53 0 -88.5 30z
M621.5 222.5q15.5 14.5 15.5 37.5q0 24 -16 38t-40 14t-40 -14t-16 -38q0 -23 15.5 -37.5t40.5 -14.5t40.5 14.5zM627 56.5q18 16.5 18 45.5q0 30 -18 46t-46 16q-27 0 -45 -16.5t-18 -45.5q0 -28 18 -45t45 -17q28 0 46 16.5z" />
    <glyph glyph-name="arrowleft" unicode="&#x2190;" horiz-adv-x="558" 
d="M54 311l202 202l46 -45l-126 -127h333v-60h-333l126 -127l-46 -45z" />
    <glyph glyph-name="arrowup" unicode="&#x2191;" horiz-adv-x="494" 
d="M217 478l-127 -126l-44 45l201 203l202 -203l-45 -45l-126 126v-333h-61v333z" />
    <glyph glyph-name="arrowright" unicode="&#x2192;" horiz-adv-x="558" 
d="M256 154l126 127h-333v60h333l-126 127l46 45l202 -202l-202 -202z" />
    <glyph glyph-name="arrowdown" unicode="&#x2193;" horiz-adv-x="494" 
d="M46 347l44 46l127 -127v334h61v-334l126 127l45 -46l-202 -202z" />
    <glyph glyph-name="arrowboth" unicode="&#x2194;" horiz-adv-x="761" 
d="M54 311l202 202l46 -45l-126 -127h409l-126 127l46 45l202 -202l-202 -202l-46 45l126 127h-409l126 -127l-46 -45z" />
    <glyph glyph-name="arrowupdn" unicode="&#x2195;" horiz-adv-x="494" 
d="M46 227l44 46l127 -127v410l-127 -126l-44 45l201 203l202 -203l-45 -45l-126 126v-410l126 127l45 -46l-202 -202z" />
    <glyph glyph-name="uni2196" unicode="&#x2196;" horiz-adv-x="512" 
d="M153 364v-179h-64v286h286v-63h-178l235 -237l-42 -43z" />
    <glyph glyph-name="uni2197" unicode="&#x2197;" horiz-adv-x="512" 
d="M80 171l235 237h-178v63h286v-286h-63v179l-237 -236z" />
    <glyph glyph-name="uni2198" unicode="&#x2198;" horiz-adv-x="512" 
d="M137 196h178l-235 237l43 42l237 -235v178h63v-286h-286v64z" />
    <glyph glyph-name="uni2199" unicode="&#x2199;" horiz-adv-x="512" 
d="M89 418h64v-178l237 235l42 -42l-235 -237h178v-64h-286v286z" />
    <glyph glyph-name="partialdiff" unicode="&#x2202;" horiz-adv-x="580" 
d="M163.5 12.5q-52.5 26.5 -84.5 78t-32 124.5q0 68 30 124.5t85.5 89.5t128.5 33q54 0 98.5 -23t66.5 -61q-4 69 -28 130.5t-68 100.5t-104 39q-48 0 -75 -22t-27 -52q0 -14 5 -26l-68 -28q-11 22 -11 52q0 37 22 69.5t63 52.5t94 20q137 0 205 -117t68 -307
q0 -86 -30 -155t-88 -109t-139 -40q-59 0 -111.5 26.5zM368.5 74.5q39.5 22.5 62 64t22.5 95.5q0 76 -45.5 119t-112.5 43q-50 0 -89.5 -25t-61 -67t-21.5 -91q0 -51 23 -87.5t59.5 -55t76.5 -18.5q47 0 86.5 22.5z" />
    <glyph glyph-name="uni2206" unicode="&#x2206;" horiz-adv-x="658" 
d="M288 700h82l280 -700h-642zM543 68l-207 526l-7 21l-7 -21l-206 -526h427z" />
    <glyph glyph-name="product" unicode="&#x220f;" horiz-adv-x="671" 
d="M85 700h501v-904h-80v833h-342v-833h-79v904z" />
    <glyph glyph-name="summation" unicode="&#x2211;" horiz-adv-x="565" 
d="M36 -49l223 339l-215 336v74h473v-74h-382l212 -336l-224 -339h405v-71h-492v71z" />
    <glyph glyph-name="minus" unicode="&#x2212;" horiz-adv-x="516" 
d="M50 395h417v-60h-417v60z" />
    <glyph glyph-name="uni2215" unicode="&#x2215;" horiz-adv-x="495" 
d="M408 730h79l-400 -760h-79z" />
    <glyph glyph-name="uni2219" unicode="&#x2219;" horiz-adv-x="284" 
d="M78.5 211.5q-26.5 26.5 -26.5 63.5t26.5 63.5t63.5 26.5t63.5 -26.5t26.5 -63.5t-26.5 -63.5t-63.5 -26.5t-63.5 26.5z" />
    <glyph glyph-name="radical" unicode="&#x221a;" horiz-adv-x="595" 
d="M135 291h-103v65h161l84 -252l221 596h74l-259 -700h-74z" />
    <glyph glyph-name="infinity" unicode="&#x221e;" horiz-adv-x="774" 
d="M100 189.5q-43 43.5 -43 110.5t43 110.5t111 43.5q56 0 96.5 -28.5t79.5 -79.5q39 51 79.5 79.5t96.5 28.5q68 0 111 -43.5t43 -110.5t-43 -110.5t-111 -43.5q-57 0 -97 28t-79 79q-39 -51 -79 -79t-97 -28q-68 0 -111 43.5zM288 228.5q29 24.5 64 71.5q-35 48 -64 72
t-68 24q-44 0 -70.5 -28t-26.5 -68t26.5 -68t70.5 -28q39 0 68 24.5zM624.5 232q26.5 28 26.5 68t-26.5 68t-70.5 28q-39 0 -68.5 -24.5t-63.5 -71.5q34 -47 63.5 -71.5t68.5 -24.5q44 0 70.5 28z" />
    <glyph glyph-name="integral" unicode="&#x222b;" horiz-adv-x="321" 
d="M-3 -210l14 68q13 -8 33 -8q29 0 44.5 17.5t15.5 53.5v669q0 75 38.5 117.5t112.5 42.5q28 0 51 -10l-12 -65q-18 7 -40 7q-32 0 -53 -22t-21 -65v-667q0 -73 -33 -109.5t-98 -36.5q-31 0 -52 8z" />
    <glyph glyph-name="approxequal" unicode="&#x2248;" horiz-adv-x="438" 
d="M47 246q0 39 26.5 61.5t65.5 22.5q32 0 53.5 -10t45.5 -29q18 -14 29 -20t25 -6t23 8.5t9 21.5q0 10 -7 22l63 12q11 -15 11 -44q0 -39 -26.5 -61t-65.5 -22q-32 0 -53 10t-45 29q-17 14 -28.5 20.5t-26.5 6.5q-13 0 -22 -8.5t-9 -22.5q0 -11 6 -22l-62 -12
q-12 16 -12 43zM47 414q0 39 26.5 61.5t65.5 22.5q32 0 53.5 -10t45.5 -29q18 -14 29 -20t25 -6t23 8.5t9 21.5q0 10 -7 22l63 12q11 -15 11 -44q0 -39 -26.5 -61t-65.5 -22q-32 0 -53 10t-45 29q-17 14 -28.5 20.5t-26.5 6.5q-13 0 -22 -8.5t-9 -22.5q0 -11 6 -22l-62 -12
q-12 16 -12 43z" />
    <glyph glyph-name="notequal" unicode="&#x2260;" horiz-adv-x="516" 
d="M89 120l60 102h-99v61h134l76 132h-210v60h246l78 134l53 -32l-60 -102h100v-60h-135l-76 -132h211v-61h-247l-78 -133z" />
    <glyph glyph-name="lessequal" unicode="&#x2264;" horiz-adv-x="516" 
d="M56 358v74l405 199v-76l-333 -160l333 -160v-76zM50 60h417v-60h-417v60z" />
    <glyph glyph-name="greaterequal" unicode="&#x2265;" horiz-adv-x="516" 
d="M56 235l333 160l-333 160v76l405 -199v-74l-405 -199v76zM50 60h417v-60h-417v60z" />
    <glyph glyph-name="lozenge" unicode="&#x25ca;" horiz-adv-x="574" 
d="M27 350l218 350h84l218 -350l-218 -350h-84zM464 350l-177 285l-176 -285l176 -285z" />
    <glyph glyph-name="uniF8FF" unicode="&#xf8ff;" horiz-adv-x="780" 
d="M100.5 6.5q-6.5 6.5 -6.5 15.5v595q0 7 4.5 13.5t11.5 8.5l270 78l10 2l10 -2l270 -78q7 -2 11.5 -8.5t4.5 -13.5v-595q0 -9 -6.5 -15.5t-15.5 -6.5l-7 1l-267 77l-267 -77l-7 -1q-9 0 -15.5 6.5zM368 669l-230 -67q4 -62 35 -114t82.5 -84.5t112.5 -37.5v303z
M524.5 403.5q51.5 32.5 82.5 84.5t35 114l-230 67v-303q61 5 112.5 37.5zM368 118v204q-73 6 -134 43.5t-97 97.5v-412zM643 463q-37 -60 -97.5 -97.5t-133.5 -43.5v-204l231 -67v412z" />
    <glyph glyph-name="fi" unicode="&#xfb01;" horiz-adv-x="541" 
d="M100 437h-77v59h77v94q0 75 38.5 117.5t112.5 42.5q28 0 51 -10l-12 -65q-18 7 -40 7q-32 0 -53 -22t-21 -65v-99h287v-496h-76v437h-211v-437h-76v437zM380 678h91v-94h-91v94z" />
    <glyph glyph-name="fl" unicode="&#xfb02;" horiz-adv-x="543" 
d="M101 437h-77v59h77v94q0 75 39 117.5t113 42.5q28 0 51 -10l-13 -65q-17 7 -39 7q-32 0 -53 -22t-21 -65v-99h117v-59h-117v-437h-77v437zM393 700h76v-700h-76v700z" />
    <glyph glyph-name="i.loclTRK" horiz-adv-x="224" 
d="M74 496h76v-496h-76v496zM66 678h91v-94h-91v94z" />
    <glyph glyph-name="uni030C.alt" 
d="M-81 525l34 91h-36v84h83v-85l-63 -100z" />
    <glyph glyph-name="uni0308.cap" 
d="M-247 882h90v-89h-90v89zM-90 882h90v-89h-90v89z" />
    <glyph glyph-name="uni0307.cap" 
d="M-91 882h91v-94h-91v94z" />
    <glyph glyph-name="gravecomb.cap" 
d="M-169 906h102l67 -143h-63z" />
    <glyph glyph-name="acutecomb.cap" 
d="M-102 906h102l-106 -143h-63z" />
    <glyph glyph-name="uni030B.cap" 
d="M-261 906h102l-106 -143h-63zM-103 906h103l-107 -143h-62z" />
    <glyph glyph-name="uni0302.cap" 
d="M-162 906h61l101 -143h-63l-68 73l-69 -73h-63z" />
    <glyph glyph-name="uni030C.cap" 
d="M-263 906h63l69 -73l68 73h63l-101 -143h-61z" />
    <glyph glyph-name="uni0306.cap" 
d="M-175 801q-28 29 -28 74h62q0 -20 10.5 -32t29.5 -12q18 0 28.5 12t10.5 32h62q0 -45 -28 -74t-73 -29q-46 0 -74 29z" />
    <glyph glyph-name="uni030A.cap" 
d="M-164 771.5q-28 27.5 -28 67.5t28 67.5t68 27.5t68 -27.5t28 -67.5t-28 -67.5t-68 -27.5t-68 27.5zM-62.5 805q13.5 14 13.5 34t-13.5 34t-33.5 14t-33.5 -14t-13.5 -34t13.5 -34t33.5 -14t33.5 14z" />
    <glyph glyph-name="tildecomb.cap" 
d="M-143 776.5q-21 10.5 -42 29.5q-18 15 -28.5 21t-26.5 6q-14 0 -22 -8t-8 -20q0 -13 6 -24l-56 -12q-11 20 -11 44q0 38 25.5 58t61.5 20q35 0 56 -10.5t43 -29.5q16 -14 27 -20.5t27 -6.5q14 0 22 8.5t8 20.5q0 11 -5 23l55 12q11 -19 11 -44q0 -38 -25.5 -58t-61.5 -20
q-35 0 -56 10.5z" />
    <glyph glyph-name="uni0304.cap" 
d="M-217 871h217v-64h-217v64z" />
    <glyph glyph-name="uni0328.cap" 
d="M-118 -173.5q-30 24.5 -30 68.5q0 35 21.5 64.5t55.5 49.5l63 -9q-35 -19 -53 -41t-18 -44q0 -21 14 -33.5t36 -12.5q3 0 19 2l10 -63q-20 -6 -45 -6q-43 0 -73 24.5z" />
    <glyph glyph-name="uni0337.cap" 
d="M-323 242l323 206v-79l-323 -207v80z" />
    <glyph glyph-name="uni0338.cap" 
d="M-446 0l385 734l61 -34l-385 -734z" />
    </font>
</defs>
</svg>
