<?xml version="1.0" standalone="no"?>
<!DOCTYPE svg PUBLIC "-//W3C//DTD SVG 1.1//EN" "http://www.w3.org/Graphics/SVG/1.1/DTD/svg11.dtd" >
<svg xmlns="http://www.w3.org/2000/svg" xmlns:xlink="http://www.w3.org/1999/xlink" version="1.1">
<metadata>
Created by FontForge 20170731 at Fri Mar  6 15:30:06 2020
 By Aleksey,,,
Copyright (c) 2015 by Colophon Foundry. All rights reserved.
</metadata>
<defs>
<font id="BasisGrotesqueMono-Medium" horiz-adv-x="602" >
  <font-face 
    font-family="Basis Grotesque Mono Medium"
    font-weight="500"
    font-stretch="normal"
    units-per-em="1000"
    panose-1="2 11 6 9 5 3 1 4 2 3"
    ascent="800"
    descent="-200"
    x-height="496"
    cap-height="700"
    bbox="-491 -288 671 934"
    underline-thickness="50"
    underline-position="-150"
    unicode-range="U+000D-FB02"
  />
<missing-glyph 
d="M68 700h466v-700h-466v700zM472 664h-342l171 -280zM280 350l-176 288v-576zM498 638l-176 -288l176 -288v576zM472 36l-171 280l-171 -280h342z" />
    <glyph glyph-name="f_i" unicode="fi" 
d="M106 411h-66v85h66v81q0 84 48 128.5t119 44.5q30 0 54.5 -6.5t49.5 -21.5l-37 -86q-28 20 -60 20q-31 0 -51 -20.5t-20 -58.5v-81h323v-496h-103v411h-220v-411h-103v411zM422 690h117v-115h-117v115z" />
    <glyph glyph-name="f_l" unicode="fl" 
d="M106 411h-66v85h66v81q0 84 48 128.5t119 44.5q61 0 104 -28l-37 -86q-28 20 -60 20q-31 0 -51 -20.5t-20 -58.5v-81h146v-85h-146v-411h-103v411zM429 700h103v-700h-103v700z" />
    <glyph glyph-name=".notdef" 
d="M68 700h466v-700h-466v700zM472 664h-342l171 -280zM280 350l-176 288v-576zM498 638l-176 -288l176 -288v576zM472 36l-171 280l-171 -280h342z" />
    <glyph glyph-name=".null" horiz-adv-x="0" 
 />
    <glyph glyph-name="nonmarkingreturn" unicode="&#xd;" 
 />
    <glyph glyph-name="space" unicode=" " 
 />
    <glyph glyph-name="exclam" unicode="!" 
d="M247 467v233h108v-233l-14 -271h-80zM242 123h118v-123h-118v123z" />
    <glyph glyph-name="quotedbl" unicode="&#x22;" 
d="M148 631v69h104v-69l-13 -161h-78zM312 631v69h104v-69l-13 -161h-78z" />
    <glyph glyph-name="numbersign" unicode="#" 
d="M128 213h-98v77h109l19 120h-108v77h119l32 213h92l-32 -213h128l32 213h92l-32 -213h98v-77h-109l-19 -120h108v-77h-119l-32 -213h-92l32 213h-128l-32 -213h-92zM359 290l19 120h-128l-19 -120h128z" />
    <glyph glyph-name="dollar" unicode="$" 
d="M262 -9q-90 14 -145 71t-75 144l95 49q27 -137 125 -166v237q-90 21 -142 69t-52 127q0 75 53.5 127.5t140.5 62.5v88h90v-90q76 -12 127.5 -57.5t73.5 -112.5l-86 -52q-34 105 -115 127v-209q108 -21 160 -71.5t52 -134.5q0 -54 -26.5 -100.5t-74.5 -76t-111 -35.5v-88
h-90v91zM262 618q-41 -7 -66 -30.5t-25 -59.5q0 -35 22.5 -58.5t68.5 -39.5v188zM428 122.5q28 31.5 28 73.5q0 41 -26 68t-78 43v-224q48 8 76 39.5z" />
    <glyph glyph-name="percent" unicode="%" 
d="M122.5 443.5q-33.5 19.5 -53 52.5t-19.5 73t19.5 73t53 52.5t74.5 19.5t74.5 -19.5t53 -52.5t19.5 -73t-19.5 -73t-53 -52.5t-74.5 -19.5t-74.5 19.5zM252 512q22 22 22 57t-22 57t-55 22t-55 -22t-22 -57t22 -57t55 -22t55 22zM59 218l444 321l40 -57l-444 -320z
M330.5 5.5q-33.5 19.5 -53 52.5t-19.5 73t19.5 73t53 52.5t74.5 19.5t74.5 -19.5t53 -52.5t19.5 -73t-19.5 -73t-53 -52.5t-74.5 -19.5t-74.5 19.5zM460 74q22 22 22 57t-22 57t-55 22t-55 -22t-22 -57t22 -57t55 -22t55 22z" />
    <glyph glyph-name="ampersand" unicode="&#x26;" 
d="M142.5 13q-49.5 27 -77 75.5t-27.5 109.5q0 67 33 117.5t93 89.5q-47 74 -47 143q0 48 22 86t60 59t84 21q71 0 114 -39t43 -103q0 -61 -35.5 -106.5t-110.5 -81.5l137 -185q26 65 38 149l81 -46q-19 -112 -59 -182l93 -120h-119l-35 46q-73 -60 -173 -60
q-65 0 -114.5 27zM328 502q24 28 24 65q0 29 -19 47.5t-50 18.5q-32 0 -53.5 -21.5t-21.5 -61.5q0 -52 38 -103q58 27 82 55zM376 118l-162 219q-36 -27 -54 -59t-18 -75q0 -58 36 -92.5t92 -34.5q61 0 106 42z" />
    <glyph glyph-name="quotesingle" unicode="'" 
d="M236 631v69h104v-69l-13 -161h-78z" />
    <glyph glyph-name="parenleft" unicode="(" 
d="M178 276q0 239 120 424h93q-50 -95 -79 -205.5t-29 -218.5t29 -218.5t79 -205.5h-93q-120 185 -120 424z" />
    <glyph glyph-name="parenright" unicode=")" 
d="M290 57.5q29 110.5 29 218.5t-29 218.5t-79 205.5h93q120 -185 120 -424t-120 -424h-93q50 95 79 205.5z" />
    <glyph glyph-name="asterisk" unicode="*" 
d="M273 487l-92 -73l-45 78l110 43l-110 44l45 78l92 -74l-17 117h90l-17 -117l92 74l45 -78l-110 -44l110 -43l-45 -78l-92 73l17 -116h-90z" />
    <glyph glyph-name="plus" unicode="+" 
d="M259 323h-185v84h185v185h83v-185h186v-84h-186v-185h-83v185z" />
    <glyph glyph-name="comma" unicode="," 
d="M226 -130l62 130h-56v138h138v-138l-114 -149z" />
    <glyph glyph-name="hyphen" unicode="-" 
d="M111 353h380v-84h-380v84z" />
    <glyph glyph-name="period" unicode="." 
d="M232 138h138v-138h-138v138z" />
    <glyph glyph-name="slash" unicode="/" 
d="M438 730h106l-380 -760h-106z" />
    <glyph glyph-name="zero" unicode="0" 
d="M157.5 30.5q-60.5 44.5 -93 127t-32.5 192.5t32.5 192.5t93 127t143.5 44.5t143.5 -44.5t93 -127t32.5 -192.5t-32.5 -192.5t-93 -127t-143.5 -44.5t-143.5 44.5zM386 584q-35 32 -85 32q-77 0 -119.5 -70t-42.5 -196q0 -86 23 -147zM420.5 154q42.5 70 42.5 196
q0 86 -23 147l-224 -381q35 -32 85 -32q77 0 119.5 70z" />
    <glyph glyph-name="one" unicode="1" 
d="M101 95h168v469q-58 -60 -154 -60v98q110 0 160 98h101v-605h164v-95h-439v95z" />
    <glyph glyph-name="two" unicode="2" 
d="M68 77l268 263q48 47 67.5 83.5t19.5 80.5q0 52 -32.5 83.5t-89.5 31.5q-55 0 -89 -31.5t-34 -86.5q0 -24 9 -47l-103 -19q-13 33 -13 74q0 54 28 101t80.5 75.5t122.5 28.5q72 0 123.5 -26t78.5 -71t27 -102q0 -67 -27 -120t-97 -121l-176 -173h301v-101h-464v77z" />
    <glyph glyph-name="three" unicode="3" 
d="M169.5 15q-54.5 29 -82.5 76.5t-28 102.5q0 33 10 60l102 -25q-4 -16 -4 -33q0 -52 37 -85t97 -33t96 33.5t36 93.5q0 66 -50 97t-133 31v84q76 0 112.5 31t36.5 81q0 44 -29.5 70t-80.5 26q-48 0 -77.5 -27t-29.5 -72q0 -20 5 -32l-99 -21q-10 25 -10 52q0 51 25.5 94.5
t74 69t112.5 25.5q67 0 115.5 -22t73.5 -61t25 -88q0 -53 -28 -96t-78 -63q63 -20 103 -64.5t40 -112.5q0 -67 -30 -117t-84.5 -77t-125.5 -27q-77 0 -131.5 29z" />
    <glyph glyph-name="four" unicode="4" 
d="M360 127h-307v99l307 474h108v-474h76v-99h-76v-127h-108v127zM360 226v305l-197 -305h197z" />
    <glyph glyph-name="five" unicode="5" 
d="M166 13.5q-54 27.5 -83 73t-29 98.5q0 33 9 51l102 -22q-4 -14 -4 -28q0 -50 36.5 -79t96.5 -29q66 0 105.5 42.5t39.5 117.5q0 72 -39 113t-105 41q-49 0 -88.5 -26t-64.5 -68l-83 21l34 381h409v-99h-331l-22 -198q31 37 73.5 56t87.5 19q111 0 174 -65.5t63 -174.5
q0 -72 -31.5 -129.5t-89.5 -90t-133 -32.5q-73 0 -127 27.5z" />
    <glyph glyph-name="six" unicode="6" 
d="M117.5 71q-69.5 85 -69.5 238q0 132 40 230q35 85 94.5 130t141.5 45q94 0 148.5 -46t54.5 -122q0 -28 -11 -55l-100 22q7 18 7 35q0 37 -28 59t-75 22q-75 0 -118.5 -72.5t-50.5 -187.5q29 43 74.5 66t99.5 23q67 0 119 -30t81.5 -83t29.5 -120t-31.5 -121.5t-88 -86
t-127.5 -31.5q-121 0 -190.5 85zM409 114.5q41 39.5 41 107.5t-41 107.5t-103 39.5q-61 0 -102.5 -39.5t-41.5 -107.5t41.5 -107.5t102.5 -39.5q62 0 103 39.5z" />
    <glyph glyph-name="seven" unicode="7" 
d="M415 601h-336v99h445v-93l-253 -607h-107z" />
    <glyph glyph-name="eight" unicode="8" 
d="M176.5 12q-54.5 26 -85 73t-30.5 109q0 61 32 108.5t84 72.5q-43 25 -69 66.5t-26 89.5q0 53 28 94.5t77.5 65t113.5 23.5t113.5 -23.5t77.5 -65t28 -94.5q0 -48 -26 -89.5t-69 -66.5q52 -25 84 -72.5t32 -108.5q0 -62 -30.5 -109t-85 -73t-124.5 -26t-124.5 26z
M383.5 444.5q32.5 29.5 32.5 79.5t-33 79t-82 29t-82 -29t-33 -79t32.5 -79.5t82.5 -29.5t82.5 29.5zM399 110q38 35 38 91q0 55 -39 90.5t-97 35.5t-97 -35.5t-39 -90.5q0 -56 38 -91t98 -35t98 35z" />
    <glyph glyph-name="nine" unicode="9" 
d="M171.5 7.5q-47.5 21.5 -72.5 60t-25 86.5q0 28 11 55l100 -22q-7 -17 -7 -35q0 -37 28.5 -59t75.5 -22q75 0 118.5 72t50.5 188q-26 -41 -71 -65t-96 -24q-68 0 -122 30t-84.5 83t-30.5 120t31.5 121.5t88 86t127.5 31.5q123 0 191.5 -85t68.5 -238q0 -132 -40 -230
q-35 -85 -93 -130t-138 -45q-64 0 -111.5 21.5zM398 370.5q41 39.5 41 107.5t-41 107.5t-103 39.5q-61 0 -102 -39.5t-41 -107.5t41 -107.5t102 -39.5q62 0 103 39.5z" />
    <glyph glyph-name="colon" unicode=":" 
d="M232 488h138v-138h-138v138zM232 138h138v-138h-138v138z" />
    <glyph glyph-name="semicolon" unicode=";" 
d="M232 488h138v-138h-138v138zM226 -130l62 130h-56v138h138v-138l-114 -149z" />
    <glyph glyph-name="less" unicode="&#x3c;" 
d="M85 267v86l419 213v-102l-311 -154l311 -154v-103z" />
    <glyph glyph-name="equal" unicode="=" 
d="M74 491h454v-83h-454v83zM74 292h454v-83h-454v83z" />
    <glyph glyph-name="greater" unicode="&#x3e;" 
d="M98 156l311 154l-311 154v102l419 -213v-86l-419 -214v103z" />
    <glyph glyph-name="question" unicode="?" 
d="M227 212q0 50 18.5 84t67.5 75q54 44 75.5 76t21.5 74q0 45 -33.5 72.5t-87.5 27.5q-55 0 -91.5 -30.5t-36.5 -84.5q0 -21 8 -40l-95 -19q-13 29 -13 68q0 51 27.5 96.5t79 74t119.5 28.5q106 0 166 -52t60 -136q0 -59 -27 -103.5t-101 -107.5q-30 -26 -42 -51t-12 -67
h-104v15zM221 123h118v-123h-118v123z" />
    <glyph glyph-name="at" unicode="@" 
d="M100.5 -35.5q-81.5 106.5 -81.5 319.5q0 141 40 238t109 144.5t157 47.5q70 0 125.5 -25.5t87.5 -77t32 -126.5v-443h-82v62q-19 -34 -54.5 -55t-78.5 -21q-61 0 -107 32t-70.5 90t-24.5 134q0 75 26 133.5t71.5 90.5t104.5 32q46 0 81 -19t52 -50v24q0 65 -42.5 104.5
t-119.5 39.5q-59 0 -109 -33.5t-82 -112.5t-32 -209q0 -191 64.5 -270.5t168.5 -79.5q39 0 71.5 8t76.5 29l27 -69q-48 -23 -91.5 -33.5t-94.5 -10.5q-143 0 -224.5 106.5zM460 152q34 47 34 132t-34 132t-94 47t-94.5 -47t-34.5 -132t34.5 -132t94.5 -47t94 47z" />
    <glyph glyph-name="A" unicode="A" 
d="M247 700h108l241 -700h-117l-62 194h-232l-62 -194h-117zM386 290l-67 206q-5 15 -18 66q-13 -51 -18 -66l-67 -206h170z" />
    <glyph glyph-name="B" unicode="B" 
d="M67 700h229q102 0 159 -46t57 -123q0 -55 -29 -94.5t-74 -62.5q129 -48 129 -168q0 -63 -32 -110t-86.5 -71.5t-120.5 -24.5h-232v700zM292 418q114 0 114 94q0 93 -114 93h-117v-187h117zM289 96q67 0 104 29t37 85q0 55 -37 84t-104 29h-114v-227h114z" />
    <glyph glyph-name="C" unicode="C" 
d="M160 32.5q-64 46.5 -97 129t-33 188.5q0 104 36 187t102.5 130t153.5 47q97 0 158.5 -50t82.5 -136l-92 -45q-37 132 -155 132q-52 0 -92.5 -33t-62.5 -93t-22 -139q0 -123 46 -194t134 -71q113 0 156 145l93 -40q-30 -93 -91.5 -148.5t-160.5 -55.5q-92 0 -156 46.5z
" />
    <glyph glyph-name="D" unicode="D" 
d="M63 700h158q101 0 174 -42t111.5 -121t38.5 -187t-38.5 -187t-111.5 -121t-174 -42h-158v700zM213 99q109 0 165.5 63.5t56.5 187.5t-56.5 187.5t-165.5 63.5h-42v-502h42z" />
    <glyph glyph-name="E" unicode="E" 
d="M80 700h438v-96h-330v-194h302v-96h-302v-218h333v-96h-441v700z" />
    <glyph glyph-name="F" unicode="F" 
d="M80 700h454v-96h-346v-214h316v-96h-316v-294h-108v700z" />
    <glyph glyph-name="G" unicode="G" 
d="M154.5 32.5q-61.5 46.5 -93 128.5t-31.5 189q0 105 35.5 187.5t101 129.5t151.5 47q97 0 157.5 -48t87.5 -131l-88 -47q-41 131 -158 131q-83 0 -130.5 -73.5t-47.5 -195.5q0 -124 43.5 -194.5t129.5 -70.5q64 0 101 52t44 136h-172v89h280v-362h-63l-21 115
q-22 -59 -67 -94t-109 -35q-89 0 -150.5 46.5z" />
    <glyph glyph-name="H" unicode="H" 
d="M57 700h108v-294h272v294h108v-700h-108v308h-272v-308h-108v700z" />
    <glyph glyph-name="I" unicode="I" 
d="M91 95h156v510h-150v95h408v-95h-150v-510h156v-95h-420v95z" />
    <glyph glyph-name="J" unicode="J" 
d="M136.5 50.5q-62.5 64.5 -62.5 174.5l110 -12q1 -62 35 -95t88 -33q56 0 87.5 33t31.5 94v488h108v-489q0 -66 -28 -117t-79.5 -79.5t-119.5 -28.5q-108 0 -170.5 64.5z" />
    <glyph glyph-name="K" unicode="K" 
d="M69 700h108v-284l48 53l208 231h135l-247 -269l255 -431h-124l-207 349l-68 -73v-276h-108v700z" />
    <glyph glyph-name="L" unicode="L" 
d="M85 700h108v-601h341v-99h-449v700z" />
    <glyph glyph-name="M" unicode="M" 
d="M31 700h121l149 -572l149 572h121v-700h-101v438q-18 -76 -29 -116l-88 -322h-104l-88 322q-11 40 -29 116v-438h-101v700z" />
    <glyph glyph-name="N" unicode="N" 
d="M65 700h111l231 -452l30 -62v514h100v-700h-111l-231 452l-30 62v-514h-100v700z" />
    <glyph glyph-name="O" unicode="O" 
d="M155.5 29q-61.5 43 -95 125t-33.5 196t33.5 196t95 125t145.5 43t145.5 -43t95 -125t33.5 -196t-33.5 -196t-95 -125t-145.5 -43t-145.5 43zM422.5 154.5q42.5 69.5 42.5 195.5t-42.5 195.5t-121.5 69.5t-121.5 -69.5t-42.5 -195.5t42.5 -195.5t121.5 -69.5t121.5 69.5z
" />
    <glyph glyph-name="P" unicode="P" 
d="M53 700h240q116 0 185 -59.5t69 -164.5t-69 -164t-185 -59h-132v-253h-108v700zM295 349q73 0 108.5 33t35.5 94t-35 94.5t-109 33.5h-134v-255h134z" />
    <glyph glyph-name="Q" unicode="Q" 
d="M371 -80.5q-31 39.5 -44 68.5q-16 -2 -26 -2q-84 0 -145.5 43t-95 125t-33.5 196t33.5 196t95 125t145.5 43t145.5 -43t95 -125t33.5 -196q0 -122 -38.5 -207t-107.5 -125q23 -41 82 -99l-77 -71q-32 32 -63 71.5zM422.5 154.5q42.5 69.5 42.5 195.5t-42.5 195.5
t-121.5 69.5t-121.5 -69.5t-42.5 -195.5t42.5 -195.5t121.5 -69.5t121.5 69.5z" />
    <glyph glyph-name="R" unicode="R" 
d="M63 700h251q73 0 126.5 -24.5t82 -69.5t28.5 -103q0 -79 -40.5 -127.5t-115.5 -72.5l170 -303h-122l-165 293h-107v-293h-108v700zM313 388q65 0 97.5 27.5t32.5 81.5q0 53 -32.5 80.5t-97.5 27.5h-142v-217h142z" />
    <glyph glyph-name="S" unicode="S" 
d="M134.5 46q-69.5 60 -92.5 160l95 49q16 -85 60.5 -129.5t122.5 -44.5q60 0 98 33t38 82q0 52 -40.5 81t-126.5 44q-102 18 -161.5 67.5t-59.5 133.5q0 55 29.5 98.5t83 68.5t120.5 25q96 0 161.5 -47.5t90.5 -126.5l-86 -52q-22 69 -63.5 100t-102.5 31
q-55 0 -92.5 -23.5t-37.5 -67.5q0 -47 43 -75t135 -46q110 -22 162.5 -72t52.5 -135q0 -59 -30.5 -107.5t-86 -77.5t-127.5 -29q-116 0 -185.5 60z" />
    <glyph glyph-name="T" unicode="T" 
d="M247 601h-193v99h494v-99h-193v-601h-108v601z" />
    <glyph glyph-name="U" unicode="U" 
d="M119 54q-66 68 -66 191v455h108v-458q0 -76 37.5 -116.5t102.5 -40.5t102.5 40.5t37.5 116.5v458h108v-455q0 -123 -66 -191t-182 -68t-182 68z" />
    <glyph glyph-name="V" unicode="V" 
d="M10 700h114l154 -482l23 -79l23 79l154 482h114l-235 -700h-112z" />
    <glyph glyph-name="W" unicode="W" 
d="M3 700h104l55 -450q4 -44 7 -66l10 67l69 449h106l69 -449l10 -67q3 22 7 66l55 450h104l-103 -700h-117l-78 518l-78 -518h-117z" />
    <glyph glyph-name="X" unicode="X" 
d="M241 376l-198 324h121l137 -239l138 239h120l-197 -319l224 -381h-120l-165 285l-165 -285h-120z" />
    <glyph glyph-name="Y" unicode="Y" 
d="M247 276l-221 424h118l135 -267q13 -26 22 -49q9 23 22 49l135 267h118l-221 -424v-276h-108v276z" />
    <glyph glyph-name="Z" unicode="Z" 
d="M40 97l363 504h-350v99h473v-99l-360 -502h377v-99h-503v97z" />
    <glyph glyph-name="bracketleft" unicode="[" 
d="M180 700h263v-95h-160v-660h160v-95h-263v850z" />
    <glyph glyph-name="backslash" unicode="\" 
d="M58 730h106l380 -760h-106z" />
    <glyph glyph-name="bracketright" unicode="]" 
d="M159 -55h160v660h-160v95h263v-850h-263v95z" />
    <glyph glyph-name="asciicircum" unicode="^" 
d="M253 700h96l190 -261h-103l-135 183l-135 -183h-103z" />
    <glyph glyph-name="underscore" unicode="_" 
d="M79 -7h444v-83h-444v83z" />
    <glyph glyph-name="grave" unicode="`" 
d="M195 705h134l73 -151h-86z" />
    <glyph glyph-name="a" unicode="a" 
d="M117 28.5q-47 42.5 -47 111.5q0 70 47.5 110t125.5 51l165 24v22q0 42 -28.5 64.5t-80.5 22.5q-49 0 -77.5 -20t-28.5 -48q0 -7 2 -13l-91 -31q-8 19 -8 41q0 39 25 72.5t71 54t107 20.5q102 0 157.5 -44.5t55.5 -127.5v-215q0 -42 7 -68.5t25 -54.5h-105q-27 35 -27 88
q-25 -49 -71 -75.5t-102 -26.5q-75 0 -122 42.5zM336 93.5q34 21.5 53 59.5t19 85v13l-141 -22q-46 -8 -71 -29.5t-25 -54.5q0 -34 24.5 -53.5t64.5 -19.5q42 0 76 21.5z" />
    <glyph glyph-name="b" unicode="b" 
d="M223.5 10.5q-42.5 24.5 -62.5 62.5v-73h-104v700h104v-276q29 41 71.5 63.5t95.5 22.5q65 0 117 -32.5t81 -92t29 -137.5t-30.5 -137.5t-83.5 -92t-119 -32.5q-56 0 -98.5 24.5zM409.5 129q40.5 48 40.5 119q0 74 -41 120.5t-107 46.5t-107.5 -47t-41.5 -120t41.5 -120
t107.5 -47q67 0 107.5 48z" />
    <glyph glyph-name="c" unicode="c" 
d="M185.5 19q-58.5 33 -91.5 92.5t-33 136.5q0 76 34.5 136t93 93t128.5 33q163 0 227 -140l-87 -51q-41 95 -140 95q-42 0 -76 -20.5t-54 -58t-20 -87.5q0 -75 42 -120.5t108 -45.5q52 0 86.5 25t60.5 76l84 -51q-35 -69 -94 -107.5t-137 -38.5q-73 0 -131.5 33z" />
    <glyph glyph-name="d" unicode="d" 
d="M161 18.5q-53 32.5 -83 92t-30 137.5t30 137.5t82.5 92t117.5 32.5q105 0 162 -82v272h103v-700h-103v73q-55 -87 -160 -87q-66 0 -119 32.5zM406.5 128q40.5 47 40.5 120t-40.5 120t-106.5 47t-106.5 -46.5t-40.5 -120.5t40.5 -120.5t106.5 -46.5t106.5 47z" />
    <glyph glyph-name="e" unicode="e" 
d="M177.5 19q-56.5 33 -89.5 93t-33 136t34 135.5t91.5 93t126.5 33.5q70 0 124 -31.5t83.5 -88t29.5 -128.5v-36h-389q4 -65 44.5 -108t103.5 -43q56 0 91 26t58 74l77 -45q-38 -73 -91.5 -108.5t-136.5 -35.5q-67 0 -123.5 33zM447 304q-6 59 -45 92t-98 33q-53 0 -94 -34
t-54 -91h291z" />
    <glyph glyph-name="f" unicode="f" 
d="M214 413h-137v83h137v53q0 65 24.5 110t67 68t94.5 23q65 0 118 -34l-34 -89q-39 29 -78 29q-41 0 -64.5 -26t-23.5 -78v-56h187v-83h-187v-413h-104v413z" />
    <glyph glyph-name="g" unicode="g" 
d="M140 -177q-59 41 -59 112q0 34 14 57l99 -30q-7 -18 -7 -32q0 -30 31.5 -47.5t89.5 -17.5q67 0 102.5 40t35.5 118v68q-23 -38 -61.5 -60.5t-92.5 -22.5q-65 0 -118.5 31.5t-85 88.5t-31.5 131t32 131.5t86.5 88.5t117.5 31q52 0 91 -20.5t62 -56.5v63h104v-463
q0 -121 -65 -186t-180 -65q-106 0 -165 41zM411 141.5q42 43.5 42 117.5t-42 117.5t-107 43.5q-64 0 -105 -43.5t-41 -117.5t41 -117.5t105 -43.5q65 0 107 43.5z" />
    <glyph glyph-name="h" unicode="h" 
d="M71 700h104v-288q29 47 73 72.5t100 25.5q81 0 128.5 -46.5t47.5 -123.5v-340h-103v301q0 54 -29 84t-81 30q-37 0 -68.5 -20t-49.5 -55.5t-18 -79.5v-260h-104v700z" />
    <glyph glyph-name="i" unicode="i" 
d="M89 87h162v324h-138v85h242v-409h158v-87h-424v87zM245 690h117v-115h-117v115z" />
    <glyph glyph-name="j" unicode="j" 
d="M131.5 -174.5q-47.5 36.5 -47.5 94.5q0 27 11 49l95 -32q-2 -8 -2 -15q0 -20 17.5 -31t48.5 -11q37 0 55 21t18 64v446h-155v85h258v-533q0 -82 -46 -128t-128 -46q-77 0 -124.5 36.5zM320 690h117v-115h-117v115z" />
    <glyph glyph-name="k" unicode="k" 
d="M88 700h103v-382l200 178h140l-209 -186l231 -310h-129l-181 239l-52 -46v-193h-103v700z" />
    <glyph glyph-name="l" unicode="l" 
d="M77 87h172v526h-151v87h255v-613h171v-87h-447v87z" />
    <glyph glyph-name="m" unicode="m" 
d="M31 496h101v-47q15 28 43.5 44.5t63.5 16.5q38 0 62.5 -17.5t35.5 -48.5q16 32 47 49t70 17q55 0 87 -34.5t32 -90.5v-385h-101v360q0 30 -14 45t-38 15q-31 0 -49.5 -22t-18.5 -69v-329h-101v362q0 28 -14 43t-40 15q-30 0 -47.5 -23.5t-17.5 -64.5v-332h-101v496z" />
    <glyph glyph-name="n" unicode="n" 
d="M86 496h104v-84q28 46 70.5 72t95.5 26q78 0 125.5 -45.5t47.5 -126.5v-338h-104v301q0 55 -27.5 84.5t-79.5 29.5q-35 0 -64.5 -20t-46.5 -54.5t-17 -78.5v-262h-104v496z" />
    <glyph glyph-name="o" unicode="o" 
d="M173 16.5q-59 30.5 -94.5 90t-35.5 141.5t35.5 141.5t94.5 90t128 30.5t128 -30.5t94.5 -90t35.5 -141.5t-35.5 -141.5t-94.5 -90t-128 -30.5t-128 30.5zM411 125.5q43 44.5 43 122.5t-43 122.5t-110 44.5t-110 -44.5t-43 -122.5t43 -122.5t110 -44.5t110 44.5z" />
    <glyph glyph-name="p" unicode="p" 
d="M57 496h104v-73q23 37 67 62t100 25q66 0 117.5 -32.5t80.5 -92t29 -137.5t-30 -137.5t-82 -92t-115 -32.5q-55 0 -98 22t-69 60v-272h-104v700zM409 127.5q41 46.5 41 120.5t-41 120.5t-107 46.5t-107.5 -47t-41.5 -120t41.5 -120t107.5 -47t107 46.5z" />
    <glyph glyph-name="q" unicode="q" 
d="M443 68q-59 -82 -164 -82q-65 0 -118 32.5t-83 92t-30 137.5t31.5 137.5t85.5 92t120 32.5q55 0 96 -23.5t62 -61.5v71h103v-700h-103v272zM409 128q41 47 41 120t-41 120t-107 47t-107.5 -46.5t-41.5 -120.5t41.5 -120.5t107.5 -46.5t107 47z" />
    <glyph glyph-name="r" unicode="r" 
d="M102 496h104v-77q22 41 63 66t92 25q79 0 118.5 -41t39.5 -103q0 -35 -15 -69l-92 34q3 11 3 19q0 32 -22.5 51t-59.5 19q-61 0 -94 -44t-33 -115v-261h-104v496z" />
    <glyph glyph-name="s" unicode="s" 
d="M157.5 27.5q-58.5 41.5 -84.5 106.5l84 53q37 -114 147 -114q48 0 78.5 19.5t30.5 51.5q0 33 -32 49.5t-102 25.5q-82 11 -129 49t-47 98q0 67 53 105.5t134 38.5q79 0 130 -32.5t79 -95.5l-76 -42q-17 43 -52.5 67.5t-80.5 24.5q-38 0 -66 -16.5t-28 -45.5
q0 -61 129 -75q185 -21 185 -148q0 -47 -25.5 -83.5t-72.5 -57t-109 -20.5q-87 0 -145.5 41.5z" />
    <glyph glyph-name="t" unicode="t" 
d="M241 33q-46 47 -46 133v247h-122v83h122v134h103v-134h166v-83h-166v-243q0 -93 80 -93q43 0 79 31l39 -77q-52 -45 -133 -45q-76 0 -122 47z" />
    <glyph glyph-name="u" unicode="u" 
d="M129 32q-49 46 -49 126v338h103v-301q0 -55 28 -84.5t80 -29.5q35 0 64.5 20t46.5 54.5t17 78.5v262h103v-496h-103v80q-57 -94 -164 -94q-77 0 -126 46z" />
    <glyph glyph-name="v" unicode="v" 
d="M30 496h110l161 -379l161 379h110l-220 -496h-102z" />
    <glyph glyph-name="w" unicode="w" 
d="M17 496h98l62 -356l74 356h100l74 -356l62 356h98l-104 -496h-107l-73 367l-73 -367h-107z" />
    <glyph glyph-name="x" unicode="x" 
d="M246 263l-163 233h119l100 -151l101 151h120l-160 -230l177 -266h-119l-119 184l-120 -184h-120z" />
    <glyph glyph-name="y" unicode="y" 
d="M117.5 -205.5q-19.5 5.5 -40.5 16.5l31 88q26 -14 52 -14q22 0 38 11.5t27 37.5l28 70l-214 492h115l151 -361l146 361h113l-252 -596q-24 -58 -60 -84.5t-89 -26.5q-26 0 -45.5 5.5z" />
    <glyph glyph-name="z" unicode="z" 
d="M91 85l289 326h-279v85h397v-85l-289 -326h305v-85h-423v85z" />
    <glyph glyph-name="braceleft" unicode="{" 
d="M241 -108q-41 42 -41 136v118q0 49 -18 67.5t-58 18.5h-23v86h23q40 0 58 18.5t18 67.5v118q0 94 41 136t125 42h72v-95h-57q-78 0 -78 -89v-124q0 -51 -15.5 -76.5t-51.5 -40.5q36 -15 51.5 -40.5t15.5 -76.5v-124q0 -89 78 -89h57v-95h-72q-84 0 -125 42z" />
    <glyph glyph-name="bar" unicode="|" 
d="M250 740h102v-850h-102v850z" />
    <glyph glyph-name="braceright" unicode="}" 
d="M164 -55h57q78 0 78 89v124q0 51 15.5 76.5t51.5 40.5q-36 15 -51.5 40.5t-15.5 76.5v124q0 89 -78 89h-57v95h72q84 0 125 -42t41 -136v-118q0 -49 18 -67.5t58 -18.5h23v-86h-23q-40 0 -58 -18.5t-18 -67.5v-118q0 -94 -41 -136t-125 -42h-72v95z" />
    <glyph glyph-name="asciitilde" unicode="~" 
d="M111 309q0 44 28 69.5t71 25.5q36 0 60.5 -10.5t53.5 -29.5q18 -13 30 -18.5t25 -5.5q12 0 20.5 7.5t8.5 19.5q0 13 -6 23l76 14q13 -19 13 -50q0 -44 -28 -68.5t-71 -24.5q-36 0 -60 10t-53 30q-18 13 -30 18.5t-26 5.5q-12 0 -20.5 -7.5t-8.5 -19.5t6 -23l-76 -15
q-13 20 -13 49z" />
    <glyph glyph-name="uni00A0" unicode="&#xa0;" 
 />
    <glyph glyph-name="exclamdown" unicode="&#xa1;" 
d="M242 496h118v-123h-118v123zM247 29l14 271h80l14 -271v-233h-108v233z" />
    <glyph glyph-name="cent" unicode="&#xa2;" 
d="M276 -10q-63 8 -111.5 42.5t-76 90.5t-27.5 125q0 68 28 123.5t77 90.5t110 44v114h86v-113q128 -18 182 -137l-87 -51q-30 72 -95 89v-320q64 18 102 95l84 -51q-31 -59 -77.5 -95.5t-108.5 -46.5v-100h-86v100zM276 408q-49 -13 -79 -55.5t-30 -104.5q0 -63 29.5 -105
t79.5 -55v320z" />
    <glyph glyph-name="sterling" unicode="&#xa3;" 
d="M76 75q31 39 46 76.5t15 87.5q0 40 -8 68h-90v82h69q-10 34 -15 59.5t-5 52.5q0 65 30 113.5t81.5 74t115.5 25.5q70 0 119 -23.5t74 -63.5t25 -91q0 -20 -3 -36t-11 -35l-96 17q10 26 10 52q0 38 -31.5 65t-87.5 27q-53 0 -87.5 -33t-34.5 -94q0 -27 5 -52.5t14 -57.5
h194v-82h-176q6 -30 6 -64q0 -47 -10.5 -80.5t-31.5 -71.5h333v-91h-450v75z" />
    <glyph glyph-name="currency" unicode="&#xa4;" 
d="M42 154l73 72q-36 52 -36 124t36 124l-73 72l63 63l72 -73q56 37 124 37t124 -37l72 73l63 -63l-73 -72q36 -52 36 -124t-36 -124l73 -72l-63 -63l-72 73q-56 -37 -124 -37t-124 37l-72 -73zM397.5 248.5q37.5 39.5 37.5 101.5t-37.5 101.5t-96.5 39.5t-96.5 -39.5
t-37.5 -101.5t37.5 -101.5t96.5 -39.5t96.5 39.5z" />
    <glyph glyph-name="yen" unicode="&#xa5;" 
d="M247 127h-156v84h156v69h-156v83h112l-176 337h117l134 -268q9 -20 23 -59q14 39 23 59l134 268h117l-176 -337h113v-83h-157v-69h157v-84h-157v-127h-108v127z" />
    <glyph glyph-name="brokenbar" unicode="&#xa6;" 
d="M250 740h102v-356h-102v356zM250 246h102v-356h-102v356z" />
    <glyph glyph-name="section" unicode="&#xa7;" 
d="M174 -57.5q-53 35.5 -86 101.5l73 53q22 -54 59.5 -81.5t87.5 -27.5q44 0 73 21.5t29 60.5q0 37 -32.5 64t-113.5 44q-78 17 -121 57.5t-43 99.5q0 30 13 56t37 45q-46 43 -46 112q0 51 26 89t70 57.5t97 19.5q80 0 132 -35.5t83 -100.5l-73 -52q-44 107 -143 107
q-44 0 -73 -21.5t-29 -60.5q0 -36 32.5 -63.5t113.5 -45.5q87 -19 125.5 -53.5t38.5 -94.5q0 -33 -13 -60t-36 -47q45 -44 45 -114q0 -51 -26 -89t-70.5 -57.5t-97.5 -19.5q-79 0 -132 35.5zM417 280q0 31 -29.5 52.5t-99.5 37.5q-36 8 -76 25q-26 -21 -26 -51
q0 -32 29.5 -54t99.5 -39q46 -11 75 -25q27 23 27 54z" />
    <glyph glyph-name="dieresis" unicode="&#xa8;" 
d="M156 690h108v-109h-108v109zM338 690h108v-109h-108v109z" />
    <glyph glyph-name="copyright" unicode="&#xa9;" 
d="M160.5 108q-64.5 38 -102.5 102.5t-38 140.5t38 140.5t102.5 102.5t140.5 38t140.5 -38t102.5 -102.5t38 -140.5t-38 -140.5t-102.5 -102.5t-140.5 -38t-140.5 38zM414 154.5q52 30.5 82.5 82.5t30.5 114t-30.5 114t-82.5 82.5t-113 30.5t-113 -30.5t-82.5 -82.5
t-30.5 -114t30.5 -114t82.5 -82.5t113 -30.5t113 30.5zM219 199q-38 22 -59.5 61.5t-21.5 90.5q0 49 22.5 89t61 62.5t84.5 22.5q55 0 92 -25.5t55 -70.5l-42 -25q-14 36 -42 55t-62 19q-51 0 -84 -35t-33 -92q0 -58 32.5 -93t84.5 -35q39 0 64.5 19t44.5 58l38 -24
q-20 -46 -57.5 -72.5t-90.5 -26.5q-49 0 -87 22z" />
    <glyph glyph-name="ordfeminine" unicode="&#xaa;" 
d="M155.5 323q-32.5 30 -32.5 77q0 49 35 77t93 38l101 16v10q0 29 -18 44.5t-52 15.5q-33 0 -51.5 -12t-18.5 -31q0 -5 1 -9l-69 -25q-6 14 -6 28q0 27 17 51t50 39t77 15q145 0 145 -121v-148q0 -29 5 -49.5t17 -38.5h-77q-17 19 -17 61q-18 -32 -48.5 -50t-67.5 -18
q-51 0 -83.5 30zM326 387q26 31 26 77v11l-92 -14q-29 -5 -46 -19t-17 -36q0 -23 16 -36.5t42 -13.5q45 0 71 31z" />
    <glyph glyph-name="guillemotleft" unicode="&#xab;" 
d="M51 275l171 207h118l-171 -207l171 -206h-118zM244 275l171 207h118l-171 -207l171 -206h-118z" />
    <glyph glyph-name="logicalnot" unicode="&#xac;" 
d="M402 323h-320v84h419v-222h-99v138z" />
    <glyph glyph-name="uni00AD" unicode="&#xad;" 
d="M111 353h380v-84h-380v84z" />
    <glyph glyph-name="registered" unicode="&#xae;" 
d="M160.5 108q-64.5 38 -102.5 102.5t-38 140.5t38 140.5t102.5 102.5t140.5 38t140.5 -38t102.5 -102.5t38 -140.5t-38 -140.5t-102.5 -102.5t-140.5 -38t-140.5 38zM414 154.5q52 30.5 82.5 82.5t30.5 114t-30.5 114t-82.5 82.5t-113 30.5t-113 -30.5t-82.5 -82.5
t-30.5 -114t30.5 -114t82.5 -82.5t113 -30.5t113 30.5zM188 520h138q51 0 79.5 -26.5t28.5 -69.5q0 -36 -23 -60.5t-59 -32.5l84 -149h-59l-83 147h-54v-147h-52v338zM318 374q65 0 65 50q0 49 -65 49h-78v-99h78z" />
    <glyph glyph-name="macron" unicode="&#xaf;" 
d="M184 675h234v-80h-234v80z" />
    <glyph glyph-name="degree" unicode="&#xb0;" 
d="M230.5 457.5q-31.5 18.5 -50 49.5t-18.5 69t18.5 69.5t50 50t70.5 18.5t70.5 -18.5t50 -50t18.5 -69.5t-18.5 -69t-50 -49.5t-70.5 -18.5t-70.5 18.5zM351 526q19 20 19 50q0 31 -19 51t-50 20t-50 -20t-19 -51q0 -30 19 -50t50 -20t50 20z" />
    <glyph glyph-name="plusminus" unicode="&#xb1;" 
d="M259 336h-185v84h185v185h83v-185h186v-84h-186v-185h-83v185zM74 84h454v-84h-454v84z" />
    <glyph glyph-name="uni00B2" unicode="&#xb2;" 
d="M159 477l132 127q22 21 30.5 38.5t8.5 36.5q0 22 -13.5 34.5t-36.5 12.5t-38.5 -13t-15.5 -36q0 -10 4 -24l-65 -9q-6 17 -6 37q0 27 14.5 51.5t42.5 39.5t64 15q56 0 88.5 -28t32.5 -73q0 -36 -14.5 -62.5t-48.5 -60.5l-73 -72h139v-61h-245v47z" />
    <glyph glyph-name="uni00B3" unicode="&#xb3;" 
d="M204.5 453q-34.5 30 -34.5 73q0 20 6 35l67 -15q-2 -8 -2 -16q0 -22 16 -34t41 -12q27 0 43.5 13.5t16.5 38.5q0 54 -89 54v53q36 0 55 12t19 34q0 20 -13 30t-36 10q-21 0 -35.5 -10.5t-14.5 -29.5q0 -10 3 -16l-63 -9q-5 13 -5 28q0 39 32 67t83 28q56 0 86.5 -24
t30.5 -62q0 -48 -49 -77q29 -10 48 -33t19 -57q0 -51 -36.5 -81t-95.5 -30q-58 0 -92.5 30z" />
    <glyph glyph-name="acute" unicode="&#xb4;" 
d="M273 705h134l-121 -151h-86z" />
    <glyph glyph-name="uni00B5" unicode="&#xb5;" 
d="M82 496h103v-301q0 -55 28 -84.5t80 -29.5q35 0 64.5 20t46.5 54.5t17 78.5v262h103v-496h-103v80q-57 -94 -164 -94q-44 0 -75 17q3 -32 3 -63v-144h-103v700z" />
    <glyph glyph-name="paragraph" unicode="&#xb6;" 
d="M253 345h-20q-56 0 -101 21.5t-71 62t-26 93.5t26 93.5t71 62.5t101 22h319v-85h-54v-735h-95v735h-55v-735h-95v465z" />
    <glyph glyph-name="periodcentered" unicode="&#xb7;" 
d="M232 419h138v-138h-138v138z" />
    <glyph glyph-name="cedilla" unicode="&#xb8;" 
d="M238.5 -188q-23.5 16 -30.5 45l57 14q6 -24 34 -24q13 0 21.5 8t8.5 22q0 16 -9 24.5t-24 8.5q-25 0 -46 -18l-34 31l32 89h61l-38 -67q19 11 44 11q33 0 54.5 -21.5t21.5 -56.5q0 -38 -27 -60t-66 -22q-36 0 -59.5 16z" />
    <glyph glyph-name="uni00B9" unicode="&#xb9;" 
d="M193 493h94v200q-15 -13 -34 -18t-47 -5v67q33 0 53 10t32 33h68v-287h93v-63h-259v63z" />
    <glyph glyph-name="ordmasculine" unicode="&#xba;" 
d="M210 314q-43 21 -69.5 62.5t-26.5 98.5t26.5 98.5t69.5 62.5t91 21q47 0 90 -21t70 -62.5t27 -98.5t-27 -98.5t-70 -62.5t-90 -21q-48 0 -91 21zM378 396q31 31 31 79q0 49 -31 79.5t-77 30.5t-77.5 -30.5t-31.5 -79.5t31.5 -79.5t77.5 -30.5t77 31z" />
    <glyph glyph-name="guillemotright" unicode="&#xbb;" 
d="M240 275l-171 207h118l171 -207l-171 -206h-118zM433 275l-171 207h118l171 -207l-171 -206h-118z" />
    <glyph glyph-name="onequarter" unicode="&#xbc;" 
d="M109 613q-15 -13 -31.5 -18t-44.5 -5v67q33 0 50 10t30 33h68v-350h-72v263zM101 171l370 405l45 -43l-371 -405zM431 62h-177v59l177 229h73v-229h50v-59h-50v-62h-73v62zM431 121v133l-105 -133h105z" />
    <glyph glyph-name="onehalf" unicode="&#xbd;" 
d="M109 613q-15 -13 -31.5 -18t-44.5 -5v67q33 0 50 10t30 33h68v-350h-72v263zM81 171l370 405l45 -43l-371 -405zM339 47l132 127q22 21 30.5 38.5t8.5 36.5q0 22 -13.5 34.5t-36.5 12.5t-38.5 -13t-15.5 -36q0 -10 4 -24l-65 -9q-6 17 -6 37q0 27 14.5 51.5t42.5 39.5
t64 15q56 0 88.5 -28t32.5 -73q0 -36 -14.5 -62.5t-48.5 -60.5l-73 -72h139v-61h-245v47z" />
    <glyph glyph-name="threequarters" unicode="&#xbe;" 
d="M68.5 373q-34.5 30 -34.5 73q0 20 6 35l67 -15q-2 -8 -2 -16q0 -22 16 -34t41 -12q27 0 43.5 13.5t16.5 38.5q0 54 -89 54v53q36 0 55 12t19 34q0 20 -13 30t-36 10q-21 0 -35.5 -10.5t-14.5 -29.5q0 -10 3 -16l-63 -9q-5 13 -5 28q0 39 32 67t83 28q56 0 86.5 -24
t30.5 -62q0 -48 -49 -77q29 -10 48 -33t19 -57q0 -51 -36.5 -81t-95.5 -30q-58 0 -92.5 30zM135 171l371 405l45 -43l-371 -405zM451 62h-177v59l177 229h73v-229h50v-59h-50v-62h-73v62zM451 121v133l-105 -133h105z" />
    <glyph glyph-name="questiondown" unicode="&#xbf;" 
d="M381 373h-118v123h118v-123zM375 284q0 -50 -18.5 -84t-67.5 -75q-54 -44 -75.5 -76t-21.5 -74q0 -45 33.5 -72.5t87.5 -27.5q55 0 91.5 30.5t36.5 84.5q0 21 -8 40l95 19q13 -29 13 -68q0 -51 -27.5 -96.5t-79 -74t-119.5 -28.5q-106 0 -166 52t-60 136q0 59 27 103.5
t101 107.5q30 26 42 51t12 67h104v-15z" />
    <glyph glyph-name="Agrave" unicode="&#xc0;" 
d="M247 700h108l241 -700h-117l-62 194h-232l-62 -194h-117zM386 290l-67 206q-5 15 -18 66q-13 -51 -18 -66l-67 -206h170zM145 909h134l73 -151h-86z" />
    <glyph glyph-name="Aacute" unicode="&#xc1;" 
d="M247 700h108l241 -700h-117l-62 194h-232l-62 -194h-117zM386 290l-67 206q-5 15 -18 66q-13 -51 -18 -66l-67 -206h170zM323 909h134l-121 -151h-86z" />
    <glyph glyph-name="Acircumflex" unicode="&#xc2;" 
d="M247 700h108l241 -700h-117l-62 194h-232l-62 -194h-117zM386 290l-67 206q-5 15 -18 66q-13 -51 -18 -66l-67 -206h170zM263 909h76l113 -151h-83l-68 66l-68 -66h-83z" />
    <glyph glyph-name="Atilde" unicode="&#xc3;" 
d="M247 700h108l241 -700h-117l-62 194h-232l-62 -194h-117zM386 290l-67 206q-5 15 -18 66q-13 -51 -18 -66l-67 -206h170zM321 769.5q-20 10.5 -41 30.5q-14 13 -24.5 19.5t-24.5 6.5q-11 0 -19 -7t-8 -18t6 -25l-65 -13q-13 18 -13 48q0 43 27.5 64.5t65.5 21.5
q36 0 56 -10.5t41 -30.5q14 -13 24.5 -19.5t24.5 -6.5q11 0 19 7t8 18q0 12 -6 25l65 13q13 -18 13 -48q0 -43 -27.5 -64.5t-65.5 -21.5q-36 0 -56 10.5z" />
    <glyph glyph-name="Adieresis" unicode="&#xc4;" 
d="M247 700h108l241 -700h-117l-62 194h-232l-62 -194h-117zM386 290l-67 206q-5 15 -18 66q-13 -51 -18 -66l-67 -206h170zM156 894h108v-109h-108v109zM338 894h108v-109h-108v109z" />
    <glyph glyph-name="Aring" unicode="&#xc5;" 
d="M247 700h108l241 -700h-117l-62 194h-232l-62 -194h-117zM386 290l-67 206q-5 15 -18 66q-13 -51 -18 -66l-67 -206h170zM233 771.5q-28 27.5 -28 67.5t28 67.5t68 27.5t68 -27.5t28 -67.5t-28 -67.5t-68 -27.5t-68 27.5zM329 810q11 11 11 29t-11 29t-28 11t-28 -11
t-11 -29t11 -29t28 -11t28 11z" />
    <glyph glyph-name="AE" unicode="&#xc6;" 
d="M177 700h402v-96h-219v-194h191v-96h-191v-218h222v-96h-322v194h-106l-44 -194h-103zM260 290v314h-16q-5 -37 -16 -87l-52 -227h84z" />
    <glyph glyph-name="Ccedilla" unicode="&#xc7;" 
d="M481 45q-58 -55 -152 -59l-23 -41q19 11 44 11q33 0 54.5 -21.5t21.5 -56.5q0 -38 -27 -60t-66 -22q-36 0 -59.5 16t-30.5 45l57 14q6 -24 34 -24q13 0 21.5 8t8.5 22q0 16 -9 24.5t-24 8.5q-25 0 -46 -18l-34 31l24 66q-118 15 -181.5 113.5t-63.5 247.5q0 104 36 187
t102.5 130t153.5 47q97 0 158.5 -50t82.5 -136l-92 -45q-37 132 -155 132q-52 0 -92.5 -33t-62.5 -93t-22 -139q0 -123 46 -194t134 -71q113 0 156 145l93 -40q-29 -90 -87 -145z" />
    <glyph glyph-name="Egrave" unicode="&#xc8;" 
d="M80 700h438v-96h-330v-194h302v-96h-302v-218h333v-96h-441v700zM145 909h134l73 -151h-86z" />
    <glyph glyph-name="Eacute" unicode="&#xc9;" 
d="M80 700h438v-96h-330v-194h302v-96h-302v-218h333v-96h-441v700zM323 909h134l-121 -151h-86z" />
    <glyph glyph-name="Ecircumflex" unicode="&#xca;" 
d="M80 700h438v-96h-330v-194h302v-96h-302v-218h333v-96h-441v700zM263 909h76l113 -151h-83l-68 66l-68 -66h-83z" />
    <glyph glyph-name="Edieresis" unicode="&#xcb;" 
d="M80 700h438v-96h-330v-194h302v-96h-302v-218h333v-96h-441v700zM156 894h108v-109h-108v109zM338 894h108v-109h-108v109z" />
    <glyph glyph-name="Igrave" unicode="&#xcc;" 
d="M91 95h156v510h-150v95h408v-95h-150v-510h156v-95h-420v95zM145 909h134l73 -151h-86z" />
    <glyph glyph-name="Iacute" unicode="&#xcd;" 
d="M91 95h156v510h-150v95h408v-95h-150v-510h156v-95h-420v95zM323 909h134l-121 -151h-86z" />
    <glyph glyph-name="Icircumflex" unicode="&#xce;" 
d="M91 95h156v510h-150v95h408v-95h-150v-510h156v-95h-420v95zM263 909h76l113 -151h-83l-68 66l-68 -66h-83z" />
    <glyph glyph-name="Idieresis" unicode="&#xcf;" 
d="M91 95h156v510h-150v95h408v-95h-150v-510h156v-95h-420v95zM156 894h108v-109h-108v109zM338 894h108v-109h-108v109z" />
    <glyph glyph-name="Eth" unicode="&#xd0;" 
d="M78 305h-55v90h55v305h158q101 0 174 -42t111.5 -121t38.5 -187t-38.5 -187t-111.5 -121t-174 -42h-158v305zM228 99q109 0 166 64t57 187t-57 187t-166 64h-42v-206h107v-90h-107v-206h42z" />
    <glyph glyph-name="Ntilde" unicode="&#xd1;" 
d="M65 700h111l231 -452l30 -62v514h100v-700h-111l-231 452l-30 62v-514h-100v700zM321 769.5q-20 10.5 -41 30.5q-14 13 -24.5 19.5t-24.5 6.5q-11 0 -19 -7t-8 -18t6 -25l-65 -13q-13 18 -13 48q0 43 27.5 64.5t65.5 21.5q36 0 56 -10.5t41 -30.5q14 -13 24.5 -19.5
t24.5 -6.5q11 0 19 7t8 18q0 12 -6 25l65 13q13 -18 13 -48q0 -43 -27.5 -64.5t-65.5 -21.5q-36 0 -56 10.5z" />
    <glyph glyph-name="Ograve" unicode="&#xd2;" 
d="M155.5 29q-61.5 43 -95 125t-33.5 196t33.5 196t95 125t145.5 43t145.5 -43t95 -125t33.5 -196t-33.5 -196t-95 -125t-145.5 -43t-145.5 43zM422.5 154.5q42.5 69.5 42.5 195.5t-42.5 195.5t-121.5 69.5t-121.5 -69.5t-42.5 -195.5t42.5 -195.5t121.5 -69.5t121.5 69.5z
M145 909h134l73 -151h-86z" />
    <glyph glyph-name="Oacute" unicode="&#xd3;" 
d="M155.5 29q-61.5 43 -95 125t-33.5 196t33.5 196t95 125t145.5 43t145.5 -43t95 -125t33.5 -196t-33.5 -196t-95 -125t-145.5 -43t-145.5 43zM422.5 154.5q42.5 69.5 42.5 195.5t-42.5 195.5t-121.5 69.5t-121.5 -69.5t-42.5 -195.5t42.5 -195.5t121.5 -69.5t121.5 69.5z
M323 909h134l-121 -151h-86z" />
    <glyph glyph-name="Ocircumflex" unicode="&#xd4;" 
d="M155.5 29q-61.5 43 -95 125t-33.5 196t33.5 196t95 125t145.5 43t145.5 -43t95 -125t33.5 -196t-33.5 -196t-95 -125t-145.5 -43t-145.5 43zM422.5 154.5q42.5 69.5 42.5 195.5t-42.5 195.5t-121.5 69.5t-121.5 -69.5t-42.5 -195.5t42.5 -195.5t121.5 -69.5t121.5 69.5z
M263 909h76l113 -151h-83l-68 66l-68 -66h-83z" />
    <glyph glyph-name="Otilde" unicode="&#xd5;" 
d="M155.5 29q-61.5 43 -95 125t-33.5 196t33.5 196t95 125t145.5 43t145.5 -43t95 -125t33.5 -196t-33.5 -196t-95 -125t-145.5 -43t-145.5 43zM422.5 154.5q42.5 69.5 42.5 195.5t-42.5 195.5t-121.5 69.5t-121.5 -69.5t-42.5 -195.5t42.5 -195.5t121.5 -69.5t121.5 69.5z
M321 769.5q-20 10.5 -41 30.5q-14 13 -24.5 19.5t-24.5 6.5q-11 0 -19 -7t-8 -18t6 -25l-65 -13q-13 18 -13 48q0 43 27.5 64.5t65.5 21.5q36 0 56 -10.5t41 -30.5q14 -13 24.5 -19.5t24.5 -6.5q11 0 19 7t8 18q0 12 -6 25l65 13q13 -18 13 -48q0 -43 -27.5 -64.5
t-65.5 -21.5q-36 0 -56 10.5z" />
    <glyph glyph-name="Odieresis" unicode="&#xd6;" 
d="M155.5 29q-61.5 43 -95 125t-33.5 196t33.5 196t95 125t145.5 43t145.5 -43t95 -125t33.5 -196t-33.5 -196t-95 -125t-145.5 -43t-145.5 43zM422.5 154.5q42.5 69.5 42.5 195.5t-42.5 195.5t-121.5 69.5t-121.5 -69.5t-42.5 -195.5t42.5 -195.5t121.5 -69.5t121.5 69.5z
M156 894h108v-109h-108v109zM338 894h108v-109h-108v109z" />
    <glyph glyph-name="multiply" unicode="&#xd7;" 
d="M111 234l131 131l-130 131l59 59l130 -131l131 131l59 -59l-131 -131l131 -131l-59 -59l-131 131l-131 -131z" />
    <glyph glyph-name="Oslash" unicode="&#xd8;" 
d="M73 1l36 70q-82 97 -82 279q0 114 33.5 196t95 125t145.5 43q73 0 129 -33l30 57l69 -39l-36 -70q82 -97 82 -279q0 -114 -33.5 -196t-95 -125t-145.5 -43q-74 0 -129 33l-30 -57zM382 589q-35 26 -81 26q-79 0 -121.5 -69.5t-42.5 -195.5q0 -105 30 -169zM422.5 154.5
q42.5 69.5 42.5 195.5q0 105 -30 169l-215 -408q35 -26 81 -26q79 0 121.5 69.5z" />
    <glyph glyph-name="Ugrave" unicode="&#xd9;" 
d="M119 54q-66 68 -66 191v455h108v-458q0 -76 37.5 -116.5t102.5 -40.5t102.5 40.5t37.5 116.5v458h108v-455q0 -123 -66 -191t-182 -68t-182 68zM145 909h134l73 -151h-86z" />
    <glyph glyph-name="Uacute" unicode="&#xda;" 
d="M119 54q-66 68 -66 191v455h108v-458q0 -76 37.5 -116.5t102.5 -40.5t102.5 40.5t37.5 116.5v458h108v-455q0 -123 -66 -191t-182 -68t-182 68zM323 909h134l-121 -151h-86z" />
    <glyph glyph-name="Ucircumflex" unicode="&#xdb;" 
d="M119 54q-66 68 -66 191v455h108v-458q0 -76 37.5 -116.5t102.5 -40.5t102.5 40.5t37.5 116.5v458h108v-455q0 -123 -66 -191t-182 -68t-182 68zM263 909h76l113 -151h-83l-68 66l-68 -66h-83z" />
    <glyph glyph-name="Udieresis" unicode="&#xdc;" 
d="M119 54q-66 68 -66 191v455h108v-458q0 -76 37.5 -116.5t102.5 -40.5t102.5 40.5t37.5 116.5v458h108v-455q0 -123 -66 -191t-182 -68t-182 68zM156 894h108v-109h-108v109zM338 894h108v-109h-108v109z" />
    <glyph glyph-name="Yacute" unicode="&#xdd;" 
d="M247 276l-221 424h118l135 -267q13 -26 22 -49q9 23 22 49l135 267h118l-221 -424v-276h-108v276zM323 909h134l-121 -151h-86z" />
    <glyph glyph-name="Thorn" unicode="&#xde;" 
d="M53 700h108v-126h132q116 0 185 -59.5t69 -164.5t-69 -164.5t-185 -59.5h-132v-126h-108v700zM295 222q73 0 108.5 33.5t35.5 94.5t-35.5 94.5t-108.5 33.5h-134v-256h134z" />
    <glyph glyph-name="germandbls" unicode="&#xdf;" 
d="M278 -2.5q-33 11.5 -64 36.5l47 81q36 -39 88 -39q42 0 70.5 30.5t28.5 80.5q0 76 -48 112.5t-126 36.5h-25v91h30q54 0 87 28.5t33 79.5q0 40 -28.5 64.5t-72.5 24.5q-46 0 -77 -30.5t-31 -89.5v-504h-103v413h-64v83h64v11q0 68 29.5 114.5t78 69.5t105.5 23
q91 0 145.5 -46t54.5 -120q0 -57 -29.5 -97t-79.5 -60q71 -19 115.5 -71.5t44.5 -133.5q0 -54 -25 -100t-69 -73t-99 -27q-47 0 -80 11.5z" />
    <glyph glyph-name="agrave" unicode="&#xe0;" 
d="M117 28.5q-47 42.5 -47 111.5q0 70 47.5 110t125.5 51l165 24v22q0 42 -28.5 64.5t-80.5 22.5q-49 0 -77.5 -20t-28.5 -48q0 -7 2 -13l-91 -31q-8 19 -8 41q0 39 25 72.5t71 54t107 20.5q102 0 157.5 -44.5t55.5 -127.5v-215q0 -42 7 -68.5t25 -54.5h-105q-27 35 -27 88
q-25 -49 -71 -75.5t-102 -26.5q-75 0 -122 42.5zM336 93.5q34 21.5 53 59.5t19 85v13l-141 -22q-46 -8 -71 -29.5t-25 -54.5q0 -34 24.5 -53.5t64.5 -19.5q42 0 76 21.5zM145 705h134l73 -151h-86z" />
    <glyph glyph-name="aacute" unicode="&#xe1;" 
d="M117 28.5q-47 42.5 -47 111.5q0 70 47.5 110t125.5 51l165 24v22q0 42 -28.5 64.5t-80.5 22.5q-49 0 -77.5 -20t-28.5 -48q0 -7 2 -13l-91 -31q-8 19 -8 41q0 39 25 72.5t71 54t107 20.5q102 0 157.5 -44.5t55.5 -127.5v-215q0 -42 7 -68.5t25 -54.5h-105q-27 35 -27 88
q-25 -49 -71 -75.5t-102 -26.5q-75 0 -122 42.5zM336 93.5q34 21.5 53 59.5t19 85v13l-141 -22q-46 -8 -71 -29.5t-25 -54.5q0 -34 24.5 -53.5t64.5 -19.5q42 0 76 21.5zM322 705h134l-121 -151h-86z" />
    <glyph glyph-name="acircumflex" unicode="&#xe2;" 
d="M117 28.5q-47 42.5 -47 111.5q0 70 47.5 110t125.5 51l165 24v22q0 42 -28.5 64.5t-80.5 22.5q-49 0 -77.5 -20t-28.5 -48q0 -7 2 -13l-91 -31q-8 19 -8 41q0 39 25 72.5t71 54t107 20.5q102 0 157.5 -44.5t55.5 -127.5v-215q0 -42 7 -68.5t25 -54.5h-105q-27 35 -27 88
q-25 -49 -71 -75.5t-102 -26.5q-75 0 -122 42.5zM336 93.5q34 21.5 53 59.5t19 85v13l-141 -22q-46 -8 -71 -29.5t-25 -54.5q0 -34 24.5 -53.5t64.5 -19.5q42 0 76 21.5zM262 705h76l113 -151h-83l-68 66l-68 -66h-83z" />
    <glyph glyph-name="atilde" unicode="&#xe3;" 
d="M117 28.5q-47 42.5 -47 111.5q0 70 47.5 110t125.5 51l165 24v22q0 42 -28.5 64.5t-80.5 22.5q-49 0 -77.5 -20t-28.5 -48q0 -7 2 -13l-91 -31q-8 19 -8 41q0 39 25 72.5t71 54t107 20.5q102 0 157.5 -44.5t55.5 -127.5v-215q0 -42 7 -68.5t25 -54.5h-105q-27 35 -27 88
q-25 -49 -71 -75.5t-102 -26.5q-75 0 -122 42.5zM336 93.5q34 21.5 53 59.5t19 85v13l-141 -22q-46 -8 -71 -29.5t-25 -54.5q0 -34 24.5 -53.5t64.5 -19.5q42 0 76 21.5zM320 565.5q-20 10.5 -41 30.5q-14 13 -24.5 19.5t-24.5 6.5q-11 0 -19 -7t-8 -18t6 -25l-65 -13
q-13 18 -13 48q0 43 27.5 64.5t65.5 21.5q36 0 56 -10.5t41 -30.5q14 -13 24.5 -19.5t24.5 -6.5q11 0 19 7t8 18q0 12 -6 25l65 13q13 -18 13 -48q0 -43 -27.5 -64.5t-65.5 -21.5q-36 0 -56 10.5z" />
    <glyph glyph-name="adieresis" unicode="&#xe4;" 
d="M117 28.5q-47 42.5 -47 111.5q0 70 47.5 110t125.5 51l165 24v22q0 42 -28.5 64.5t-80.5 22.5q-49 0 -77.5 -20t-28.5 -48q0 -7 2 -13l-91 -31q-8 19 -8 41q0 39 25 72.5t71 54t107 20.5q102 0 157.5 -44.5t55.5 -127.5v-215q0 -42 7 -68.5t25 -54.5h-105q-27 35 -27 88
q-25 -49 -71 -75.5t-102 -26.5q-75 0 -122 42.5zM336 93.5q34 21.5 53 59.5t19 85v13l-141 -22q-46 -8 -71 -29.5t-25 -54.5q0 -34 24.5 -53.5t64.5 -19.5q42 0 76 21.5zM155 690h108v-109h-108v109zM337 690h108v-109h-108v109z" />
    <glyph glyph-name="aring" unicode="&#xe5;" 
d="M117 28.5q-47 42.5 -47 111.5q0 70 47.5 110t125.5 51l165 24v22q0 42 -28.5 64.5t-80.5 22.5q-49 0 -77.5 -20t-28.5 -48q0 -7 2 -13l-91 -31q-8 19 -8 41q0 39 25 72.5t71 54t107 20.5q102 0 157.5 -44.5t55.5 -127.5v-215q0 -42 7 -68.5t25 -54.5h-105q-27 35 -27 88
q-25 -49 -71 -75.5t-102 -26.5q-75 0 -122 42.5zM336 93.5q34 21.5 53 59.5t19 85v13l-141 -22q-46 -8 -71 -29.5t-25 -54.5q0 -34 24.5 -53.5t64.5 -19.5q42 0 76 21.5zM232 567.5q-28 27.5 -28 67.5t28 67.5t68 27.5t68 -27.5t28 -67.5t-28 -67.5t-68 -27.5t-68 27.5z
M328 606q11 11 11 29t-11 29t-28 11t-28 -11t-11 -29t11 -29t28 -11t28 11z" />
    <glyph glyph-name="ae" unicode="&#xe6;" 
d="M46.5 26.5q-38.5 40.5 -38.5 109.5q0 73 51.5 116.5t137.5 48.5l46 3v45q0 43 -16 64t-51 21q-33 0 -49 -18.5t-16 -43.5q0 -9 2 -14l-85 -30q-7 18 -7 41q0 38 18.5 70.5t52.5 51.5t79 19q97 0 134 -65q17 29 48 47t71 18q80 0 120.5 -62.5t40.5 -170.5v-51h-247
q0 -67 17 -108.5t61 -41.5q33 0 50 22t30 74l80 -26q-20 -78 -55.5 -119t-106.5 -41q-48 0 -81 27t-47 69q-19 -45 -50.5 -70.5t-82.5 -25.5q-68 0 -106.5 40.5zM486 304q0 60 -16.5 90.5t-52.5 30.5q-35 0 -55.5 -32t-22.5 -89h147zM224.5 112q18.5 40 18.5 114l-24 -2
q-63 -1 -90.5 -26t-27.5 -63q0 -30 17.5 -46.5t43.5 -16.5q44 0 62.5 40z" />
    <glyph glyph-name="ccedilla" unicode="&#xe7;" 
d="M458.5 27q-55.5 -38 -130.5 -41l-23 -41q19 11 44 11q33 0 54.5 -21.5t21.5 -56.5q0 -38 -27 -60t-66 -22q-36 0 -59.5 16t-30.5 45l57 14q6 -24 34 -24q13 0 21.5 8t8.5 22q0 16 -9 24.5t-24 8.5q-25 0 -46 -18l-34 31l24 66q-62 9 -110.5 44t-75.5 90.5t-27 124.5
q0 76 34.5 136t93 93t128.5 33q163 0 227 -140l-87 -51q-41 95 -140 95q-42 0 -76 -20.5t-54 -58t-20 -87.5q0 -75 42 -120.5t108 -45.5q52 0 86.5 25t60.5 76l84 -51q-34 -67 -89.5 -105z" />
    <glyph glyph-name="egrave" unicode="&#xe8;" 
d="M177.5 19q-56.5 33 -89.5 93t-33 136t34 135.5t91.5 93t126.5 33.5q70 0 124 -31.5t83.5 -88t29.5 -128.5v-36h-389q4 -65 44.5 -108t103.5 -43q56 0 91 26t58 74l77 -45q-38 -73 -91.5 -108.5t-136.5 -35.5q-67 0 -123.5 33zM447 304q-6 59 -45 92t-98 33q-53 0 -94 -34
t-54 -91h291zM149 705h134l73 -151h-86z" />
    <glyph glyph-name="eacute" unicode="&#xe9;" 
d="M177.5 19q-56.5 33 -89.5 93t-33 136t34 135.5t91.5 93t126.5 33.5q70 0 124 -31.5t83.5 -88t29.5 -128.5v-36h-389q4 -65 44.5 -108t103.5 -43q56 0 91 26t58 74l77 -45q-38 -73 -91.5 -108.5t-136.5 -35.5q-67 0 -123.5 33zM447 304q-6 59 -45 92t-98 33q-53 0 -94 -34
t-54 -91h291zM326 705h134l-121 -151h-86z" />
    <glyph glyph-name="ecircumflex" unicode="&#xea;" 
d="M177.5 19q-56.5 33 -89.5 93t-33 136t34 135.5t91.5 93t126.5 33.5q70 0 124 -31.5t83.5 -88t29.5 -128.5v-36h-389q4 -65 44.5 -108t103.5 -43q56 0 91 26t58 74l77 -45q-38 -73 -91.5 -108.5t-136.5 -35.5q-67 0 -123.5 33zM447 304q-6 59 -45 92t-98 33q-53 0 -94 -34
t-54 -91h291zM267 705h76l113 -151h-83l-68 66l-68 -66h-83z" />
    <glyph glyph-name="edieresis" unicode="&#xeb;" 
d="M177.5 19q-56.5 33 -89.5 93t-33 136t34 135.5t91.5 93t126.5 33.5q70 0 124 -31.5t83.5 -88t29.5 -128.5v-36h-389q4 -65 44.5 -108t103.5 -43q56 0 91 26t58 74l77 -45q-38 -73 -91.5 -108.5t-136.5 -35.5q-67 0 -123.5 33zM447 304q-6 59 -45 92t-98 33q-53 0 -94 -34
t-54 -91h291zM160 690h108v-109h-108v109zM342 690h108v-109h-108v109z" />
    <glyph glyph-name="igrave" unicode="&#xec;" 
d="M89 87h162v324h-138v85h242v-409h158v-87h-424v87zM147 705h134l73 -151h-86z" />
    <glyph glyph-name="iacute" unicode="&#xed;" 
d="M89 87h162v324h-138v85h242v-409h158v-87h-424v87zM325 705h134l-121 -151h-86z" />
    <glyph glyph-name="icircumflex" unicode="&#xee;" 
d="M89 87h162v324h-138v85h242v-409h158v-87h-424v87zM265 705h76l113 -151h-83l-68 66l-68 -66h-83z" />
    <glyph glyph-name="idieresis" unicode="&#xef;" 
d="M89 87h162v324h-138v85h242v-409h158v-87h-424v87zM158 690h108v-109h-108v109zM340 690h108v-109h-108v109z" />
    <glyph glyph-name="eth" unicode="&#xf0;" 
d="M177 15.5q-56 29.5 -88 84t-32 126.5q0 71 32.5 124.5t86.5 82.5t116 29q51 0 90.5 -18t62.5 -50q-22 85 -89 155l-119 -46l-27 71l78 30q-59 40 -128 66l45 77q113 -48 185 -103l96 37l27 -71l-63 -25q101 -115 101 -305q0 -93 -31.5 -159.5t-87.5 -100.5t-130 -34
q-69 0 -125 29.5zM375 91q33 18 53.5 52t20.5 81t-20.5 81t-53.5 52t-71 18t-71 -18t-53 -52t-20 -81t20 -81t53 -52t71 -18t71 18z" />
    <glyph glyph-name="ntilde" unicode="&#xf1;" 
d="M86 496h104v-84q28 46 70.5 72t95.5 26q78 0 125.5 -45.5t47.5 -126.5v-338h-104v301q0 55 -27.5 84.5t-79.5 29.5q-35 0 -64.5 -20t-46.5 -54.5t-17 -78.5v-262h-104v496zM344 565.5q-20 10.5 -41 30.5q-14 13 -24.5 19.5t-24.5 6.5q-11 0 -19 -7t-8 -18t6 -25l-65 -13
q-13 18 -13 48q0 43 27.5 64.5t65.5 21.5q36 0 56 -10.5t41 -30.5q14 -13 24.5 -19.5t24.5 -6.5q11 0 19 7t8 18q0 12 -6 25l65 13q13 -18 13 -48q0 -43 -27.5 -64.5t-65.5 -21.5q-36 0 -56 10.5z" />
    <glyph glyph-name="ograve" unicode="&#xf2;" 
d="M173 16.5q-59 30.5 -94.5 90t-35.5 141.5t35.5 141.5t94.5 90t128 30.5t128 -30.5t94.5 -90t35.5 -141.5t-35.5 -141.5t-94.5 -90t-128 -30.5t-128 30.5zM411 125.5q43 44.5 43 122.5t-43 122.5t-110 44.5t-110 -44.5t-43 -122.5t43 -122.5t110 -44.5t110 44.5zM145 705
h134l73 -151h-86z" />
    <glyph glyph-name="oacute" unicode="&#xf3;" 
d="M173 16.5q-59 30.5 -94.5 90t-35.5 141.5t35.5 141.5t94.5 90t128 30.5t128 -30.5t94.5 -90t35.5 -141.5t-35.5 -141.5t-94.5 -90t-128 -30.5t-128 30.5zM411 125.5q43 44.5 43 122.5t-43 122.5t-110 44.5t-110 -44.5t-43 -122.5t43 -122.5t110 -44.5t110 44.5zM323 705
h134l-121 -151h-86z" />
    <glyph glyph-name="ocircumflex" unicode="&#xf4;" 
d="M173 16.5q-59 30.5 -94.5 90t-35.5 141.5t35.5 141.5t94.5 90t128 30.5t128 -30.5t94.5 -90t35.5 -141.5t-35.5 -141.5t-94.5 -90t-128 -30.5t-128 30.5zM411 125.5q43 44.5 43 122.5t-43 122.5t-110 44.5t-110 -44.5t-43 -122.5t43 -122.5t110 -44.5t110 44.5zM263 705
h76l113 -151h-83l-68 66l-68 -66h-83z" />
    <glyph glyph-name="otilde" unicode="&#xf5;" 
d="M173 16.5q-59 30.5 -94.5 90t-35.5 141.5t35.5 141.5t94.5 90t128 30.5t128 -30.5t94.5 -90t35.5 -141.5t-35.5 -141.5t-94.5 -90t-128 -30.5t-128 30.5zM411 125.5q43 44.5 43 122.5t-43 122.5t-110 44.5t-110 -44.5t-43 -122.5t43 -122.5t110 -44.5t110 44.5z
M321 565.5q-20 10.5 -41 30.5q-14 13 -24.5 19.5t-24.5 6.5q-11 0 -19 -7t-8 -18t6 -25l-65 -13q-13 18 -13 48q0 43 27.5 64.5t65.5 21.5q36 0 56 -10.5t41 -30.5q14 -13 24.5 -19.5t24.5 -6.5q11 0 19 7t8 18q0 12 -6 25l65 13q13 -18 13 -48q0 -43 -27.5 -64.5
t-65.5 -21.5q-36 0 -56 10.5z" />
    <glyph glyph-name="odieresis" unicode="&#xf6;" 
d="M173 16.5q-59 30.5 -94.5 90t-35.5 141.5t35.5 141.5t94.5 90t128 30.5t128 -30.5t94.5 -90t35.5 -141.5t-35.5 -141.5t-94.5 -90t-128 -30.5t-128 30.5zM411 125.5q43 44.5 43 122.5t-43 122.5t-110 44.5t-110 -44.5t-43 -122.5t43 -122.5t110 -44.5t110 44.5zM156 690
h108v-109h-108v109zM338 690h108v-109h-108v109z" />
    <glyph glyph-name="divide" unicode="&#xf7;" 
d="M238 480h126v-130h-126v130zM74 282h454v-83h-454v83zM238 130h126v-130h-126v130z" />
    <glyph glyph-name="oslash" unicode="&#xf8;" 
d="M111 -3l25 44q-44 33 -68.5 86t-24.5 121q0 82 35.5 141.5t94.5 90t128 30.5q52 0 98 -18l25 44l67 -37l-25 -44q44 -33 68.5 -86t24.5 -121q0 -82 -35.5 -141.5t-94.5 -90t-128 -30.5q-51 0 -98 18l-25 -44zM349 406q-22 9 -48 9q-67 0 -110 -44.5t-43 -122.5
q0 -73 40 -119zM411 125.5q43 44.5 43 122.5q0 73 -40 119l-161 -277q22 -9 48 -9q67 0 110 44.5z" />
    <glyph glyph-name="ugrave" unicode="&#xf9;" 
d="M129 32q-49 46 -49 126v338h103v-301q0 -55 28 -84.5t80 -29.5q35 0 64.5 20t46.5 54.5t17 78.5v262h103v-496h-103v80q-57 -94 -164 -94q-77 0 -126 46zM145 705h134l73 -151h-86z" />
    <glyph glyph-name="uacute" unicode="&#xfa;" 
d="M129 32q-49 46 -49 126v338h103v-301q0 -55 28 -84.5t80 -29.5q35 0 64.5 20t46.5 54.5t17 78.5v262h103v-496h-103v80q-57 -94 -164 -94q-77 0 -126 46zM323 705h134l-121 -151h-86z" />
    <glyph glyph-name="ucircumflex" unicode="&#xfb;" 
d="M129 32q-49 46 -49 126v338h103v-301q0 -55 28 -84.5t80 -29.5q35 0 64.5 20t46.5 54.5t17 78.5v262h103v-496h-103v80q-57 -94 -164 -94q-77 0 -126 46zM263 705h76l113 -151h-83l-68 66l-68 -66h-83z" />
    <glyph glyph-name="udieresis" unicode="&#xfc;" 
d="M129 32q-49 46 -49 126v338h103v-301q0 -55 28 -84.5t80 -29.5q35 0 64.5 20t46.5 54.5t17 78.5v262h103v-496h-103v80q-57 -94 -164 -94q-77 0 -126 46zM156 690h108v-109h-108v109zM338 690h108v-109h-108v109z" />
    <glyph glyph-name="yacute" unicode="&#xfd;" 
d="M117.5 -205.5q-19.5 5.5 -40.5 16.5l31 88q26 -14 52 -14q22 0 38 11.5t27 37.5l28 70l-214 492h115l151 -361l146 361h113l-252 -596q-24 -58 -60 -84.5t-89 -26.5q-26 0 -45.5 5.5zM326 705h134l-121 -151h-86z" />
    <glyph glyph-name="thorn" unicode="&#xfe;" 
d="M57 700h104v-277q23 37 67 62t100 25q66 0 117.5 -32.5t80.5 -92t29 -137.5t-30 -137.5t-82 -92t-115 -32.5q-55 0 -98 22t-69 60v-272h-104v904zM409 127.5q41 46.5 41 120.5t-41 120.5t-107 46.5t-107.5 -47t-41.5 -120t41.5 -120t107.5 -47t107 46.5z" />
    <glyph glyph-name="ydieresis" unicode="&#xff;" 
d="M117.5 -205.5q-19.5 5.5 -40.5 16.5l31 88q26 -14 52 -14q22 0 38 11.5t27 37.5l28 70l-214 492h115l151 -361l146 361h113l-252 -596q-24 -58 -60 -84.5t-89 -26.5q-26 0 -45.5 5.5zM159 690h108v-109h-108v109zM341 690h108v-109h-108v109z" />
    <glyph glyph-name="Amacron" unicode="&#x100;" 
d="M247 700h108l241 -700h-117l-62 194h-232l-62 -194h-117zM386 290l-67 206q-5 15 -18 66q-13 -51 -18 -66l-67 -206h170zM184 879h234v-80h-234v80z" />
    <glyph glyph-name="amacron" unicode="&#x101;" 
d="M117 28.5q-47 42.5 -47 111.5q0 70 47.5 110t125.5 51l165 24v22q0 42 -28.5 64.5t-80.5 22.5q-49 0 -77.5 -20t-28.5 -48q0 -7 2 -13l-91 -31q-8 19 -8 41q0 39 25 72.5t71 54t107 20.5q102 0 157.5 -44.5t55.5 -127.5v-215q0 -42 7 -68.5t25 -54.5h-105q-27 35 -27 88
q-25 -49 -71 -75.5t-102 -26.5q-75 0 -122 42.5zM336 93.5q34 21.5 53 59.5t19 85v13l-141 -22q-46 -8 -71 -29.5t-25 -54.5q0 -34 24.5 -53.5t64.5 -19.5q42 0 76 21.5zM183 675h234v-80h-234v80z" />
    <glyph glyph-name="Abreve" unicode="&#x102;" 
d="M247 700h108l241 -700h-117l-62 194h-232l-62 -194h-117zM386 290l-67 206q-5 15 -18 66q-13 -51 -18 -66l-67 -206h170zM222 801q-31 31 -31 77h69q0 -19 11 -31t30 -12t30 12t11 31h69q0 -46 -31 -77t-79 -31t-79 31z" />
    <glyph glyph-name="abreve" unicode="&#x103;" 
d="M117 28.5q-47 42.5 -47 111.5q0 70 47.5 110t125.5 51l165 24v22q0 42 -28.5 64.5t-80.5 22.5q-49 0 -77.5 -20t-28.5 -48q0 -7 2 -13l-91 -31q-8 19 -8 41q0 39 25 72.5t71 54t107 20.5q102 0 157.5 -44.5t55.5 -127.5v-215q0 -42 7 -68.5t25 -54.5h-105q-27 35 -27 88
q-25 -49 -71 -75.5t-102 -26.5q-75 0 -122 42.5zM336 93.5q34 21.5 53 59.5t19 85v13l-141 -22q-46 -8 -71 -29.5t-25 -54.5q0 -34 24.5 -53.5t64.5 -19.5q42 0 76 21.5zM221 597q-31 31 -31 77h69q0 -19 11 -31t30 -12t30 12t11 31h69q0 -46 -31 -77t-79 -31t-79 31z" />
    <glyph glyph-name="Aogonek" unicode="&#x104;" 
d="M600 -191q-24 -7 -53 -7q-44 0 -76.5 25t-32.5 69q0 58 60 104h-19l-62 194h-232l-62 -194h-117l241 700h108l241 -700q-34 -18 -53 -39t-19 -42q0 -19 12.5 -30.5t32.5 -11.5l21 2zM386 290l-67 206q-5 15 -18 66q-13 -51 -18 -66l-67 -206h170z" />
    <glyph glyph-name="aogonek" unicode="&#x105;" 
d="M548 -191q-24 -7 -53 -7q-44 0 -76.5 25t-32.5 69q0 58 60 104h-7q-27 35 -27 88q-25 -49 -71 -75.5t-102 -26.5q-75 0 -122 42.5t-47 111.5q0 70 47.5 110t125.5 51l165 24v22q0 42 -28.5 64.5t-80.5 22.5q-49 0 -77.5 -20t-28.5 -48q0 -7 2 -13l-91 -31q-8 19 -8 41
q0 39 25 72.5t71 54t107 20.5q102 0 157.5 -44.5t55.5 -127.5v-215q0 -42 7 -68.5t25 -54.5q-34 -18 -53 -39t-19 -42q0 -19 12.5 -30.5t32.5 -11.5l21 2zM408 251l-141 -22q-46 -8 -71 -29.5t-25 -54.5q0 -34 24.5 -53.5t64.5 -19.5q42 0 76 21.5t53 59.5t19 85v13z" />
    <glyph glyph-name="Cacute" unicode="&#x106;" 
d="M160 32.5q-64 46.5 -97 129t-33 188.5q0 104 36 187t102.5 130t153.5 47q97 0 158.5 -50t82.5 -136l-92 -45q-37 132 -155 132q-52 0 -92.5 -33t-62.5 -93t-22 -139q0 -123 46 -194t134 -71q113 0 156 145l93 -40q-30 -93 -91.5 -148.5t-160.5 -55.5q-92 0 -156 46.5z
M346 909h134l-121 -151h-86z" />
    <glyph glyph-name="cacute" unicode="&#x107;" 
d="M185.5 19q-58.5 33 -91.5 92.5t-33 136.5q0 76 34.5 136t93 93t128.5 33q163 0 227 -140l-87 -51q-41 95 -140 95q-42 0 -76 -20.5t-54 -58t-20 -87.5q0 -75 42 -120.5t108 -45.5q52 0 86.5 25t60.5 76l84 -51q-35 -69 -94 -107.5t-137 -38.5q-73 0 -131.5 33zM338 705
h134l-121 -151h-86z" />
    <glyph glyph-name="Ccircumflex" unicode="&#x108;" 
d="M160 32.5q-64 46.5 -97 129t-33 188.5q0 104 36 187t102.5 130t153.5 47q97 0 158.5 -50t82.5 -136l-92 -45q-37 132 -155 132q-52 0 -92.5 -33t-62.5 -93t-22 -139q0 -123 46 -194t134 -71q113 0 156 145l93 -40q-30 -93 -91.5 -148.5t-160.5 -55.5q-92 0 -156 46.5z
M286 909h76l113 -151h-83l-68 66l-68 -66h-83z" />
    <glyph glyph-name="ccircumflex" unicode="&#x109;" 
d="M185.5 19q-58.5 33 -91.5 92.5t-33 136.5q0 76 34.5 136t93 93t128.5 33q163 0 227 -140l-87 -51q-41 95 -140 95q-42 0 -76 -20.5t-54 -58t-20 -87.5q0 -75 42 -120.5t108 -45.5q52 0 86.5 25t60.5 76l84 -51q-35 -69 -94 -107.5t-137 -38.5q-73 0 -131.5 33zM278 705
h76l113 -151h-83l-68 66l-68 -66h-83z" />
    <glyph glyph-name="Cdotaccent" unicode="&#x10a;" 
d="M160 32.5q-64 46.5 -97 129t-33 188.5q0 104 36 187t102.5 130t153.5 47q97 0 158.5 -50t82.5 -136l-92 -45q-37 132 -155 132q-52 0 -92.5 -33t-62.5 -93t-22 -139q0 -123 46 -194t134 -71q113 0 156 145l93 -40q-30 -93 -91.5 -148.5t-160.5 -55.5q-92 0 -156 46.5z
M266 894h117v-115h-117v115z" />
    <glyph glyph-name="cdotaccent" unicode="&#x10b;" 
d="M185.5 19q-58.5 33 -91.5 92.5t-33 136.5q0 76 34.5 136t93 93t128.5 33q163 0 227 -140l-87 -51q-41 95 -140 95q-42 0 -76 -20.5t-54 -58t-20 -87.5q0 -75 42 -120.5t108 -45.5q52 0 86.5 25t60.5 76l84 -51q-35 -69 -94 -107.5t-137 -38.5q-73 0 -131.5 33zM258 690
h117v-115h-117v115z" />
    <glyph glyph-name="Ccaron" unicode="&#x10c;" 
d="M160 32.5q-64 46.5 -97 129t-33 188.5q0 104 36 187t102.5 130t153.5 47q97 0 158.5 -50t82.5 -136l-92 -45q-37 132 -155 132q-52 0 -92.5 -33t-62.5 -93t-22 -139q0 -123 46 -194t134 -71q113 0 156 145l93 -40q-30 -93 -91.5 -148.5t-160.5 -55.5q-92 0 -156 46.5z
M173 909h83l68 -66l68 66h83l-113 -151h-76z" />
    <glyph glyph-name="ccaron" unicode="&#x10d;" 
d="M185.5 19q-58.5 33 -91.5 92.5t-33 136.5q0 76 34.5 136t93 93t128.5 33q163 0 227 -140l-87 -51q-41 95 -140 95q-42 0 -76 -20.5t-54 -58t-20 -87.5q0 -75 42 -120.5t108 -45.5q52 0 86.5 25t60.5 76l84 -51q-35 -69 -94 -107.5t-137 -38.5q-73 0 -131.5 33zM165 705
h83l68 -66l68 66h83l-113 -151h-76z" />
    <glyph glyph-name="Dcaron" unicode="&#x10e;" 
d="M63 700h158q101 0 174 -42t111.5 -121t38.5 -187t-38.5 -187t-111.5 -121t-174 -42h-158v700zM213 99q109 0 165.5 63.5t56.5 187.5t-56.5 187.5t-165.5 63.5h-42v-502h42zM69 909h83l68 -66l68 66h83l-113 -151h-76z" />
    <glyph glyph-name="dcaron" unicode="&#x10f;" 
d="M125.5 18.5q-50.5 32.5 -79 92t-28.5 137.5q0 77 29.5 137t79 92.5t108.5 32.5q98 0 149 -73v263h103v-700h-103v67q-19 -35 -57.5 -58t-87.5 -23q-63 0 -113.5 32.5zM525 505l33 84h-39v111h107v-111l-78 -97zM354.5 127.5q36.5 46.5 36.5 120.5t-36.5 120.5t-97.5 46.5
t-97 -46.5t-36 -120.5q0 -75 36 -121t97 -46t97.5 46.5z" />
    <glyph glyph-name="Dcroat" unicode="&#x110;" 
d="M78 305h-55v90h55v305h158q101 0 174 -42t111.5 -121t38.5 -187t-38.5 -187t-111.5 -121t-174 -42h-158v305zM228 99q109 0 166 64t57 187t-57 187t-166 64h-42v-206h107v-90h-107v-206h42z" />
    <glyph glyph-name="dcroat" unicode="&#x111;" 
d="M161 18.5q-53 32.5 -83 92t-30 137.5t30 137.5t82.5 92t117.5 32.5q105 0 162 -82v133h-150v80h150v59h103v-59h55v-80h-55v-561h-103v73q-55 -87 -160 -87q-66 0 -119 32.5zM406.5 128q40.5 47 40.5 120t-40.5 120t-106.5 47t-106.5 -46.5t-40.5 -120.5t40.5 -120.5
t106.5 -46.5t106.5 47z" />
    <glyph glyph-name="Emacron" unicode="&#x112;" 
d="M80 700h438v-96h-330v-194h302v-96h-302v-218h333v-96h-441v700zM184 879h234v-80h-234v80z" />
    <glyph glyph-name="emacron" unicode="&#x113;" 
d="M177.5 19q-56.5 33 -89.5 93t-33 136t34 135.5t91.5 93t126.5 33.5q70 0 124 -31.5t83.5 -88t29.5 -128.5v-36h-389q4 -65 44.5 -108t103.5 -43q56 0 91 26t58 74l77 -45q-38 -73 -91.5 -108.5t-136.5 -35.5q-67 0 -123.5 33zM447 304q-6 59 -45 92t-98 33q-53 0 -94 -34
t-54 -91h291zM188 675h234v-80h-234v80z" />
    <glyph glyph-name="Ebreve" unicode="&#x114;" 
d="M80 700h438v-96h-330v-194h302v-96h-302v-218h333v-96h-441v700zM222 801q-31 31 -31 77h69q0 -19 11 -31t30 -12t30 12t11 31h69q0 -46 -31 -77t-79 -31t-79 31z" />
    <glyph glyph-name="ebreve" unicode="&#x115;" 
d="M177.5 19q-56.5 33 -89.5 93t-33 136t34 135.5t91.5 93t126.5 33.5q70 0 124 -31.5t83.5 -88t29.5 -128.5v-36h-389q4 -65 44.5 -108t103.5 -43q56 0 91 26t58 74l77 -45q-38 -73 -91.5 -108.5t-136.5 -35.5q-67 0 -123.5 33zM447 304q-6 59 -45 92t-98 33q-53 0 -94 -34
t-54 -91h291zM226 597q-31 31 -31 77h69q0 -19 11 -31t30 -12t30 12t11 31h69q0 -46 -31 -77t-79 -31t-79 31z" />
    <glyph glyph-name="Edotaccent" unicode="&#x116;" 
d="M80 700h438v-96h-330v-194h302v-96h-302v-218h333v-96h-441v700zM243 894h117v-115h-117v115z" />
    <glyph glyph-name="edotaccent" unicode="&#x117;" 
d="M177.5 19q-56.5 33 -89.5 93t-33 136t34 135.5t91.5 93t126.5 33.5q70 0 124 -31.5t83.5 -88t29.5 -128.5v-36h-389q4 -65 44.5 -108t103.5 -43q56 0 91 26t58 74l77 -45q-38 -73 -91.5 -108.5t-136.5 -35.5q-67 0 -123.5 33zM447 304q-6 59 -45 92t-98 33q-53 0 -94 -34
t-54 -91h291zM246 690h117v-115h-117v115z" />
    <glyph glyph-name="Eogonek" unicode="&#x118;" 
d="M525 -191q-24 -7 -53 -7q-44 0 -76.5 25t-32.5 69q0 58 60 104h-343v700h438v-96h-330v-194h302v-96h-302v-218h333v-96q-34 -18 -53 -39t-19 -42q0 -19 12.5 -30.5t32.5 -11.5l21 2z" />
    <glyph glyph-name="eogonek" unicode="&#x119;" 
d="M544 226h-389q4 -65 44.5 -108t103.5 -43q56 0 91 26t58 74l77 -45q-27 -52 -61 -84.5t-80 -47.5q-32 -18 -50.5 -38.5t-18.5 -40.5q0 -19 12.5 -30.5t32.5 -11.5l21 2l10 -70q-25 -7 -53 -7q-44 0 -76.5 25t-32.5 69q0 51 45 91q-62 6 -113 40.5t-80.5 91.5t-29.5 129
q0 76 34 135.5t91.5 93t126.5 33.5q70 0 124 -31.5t83.5 -88t29.5 -128.5v-36zM447 304q-6 59 -45 92t-98 33q-53 0 -94 -34t-54 -91h291z" />
    <glyph glyph-name="Ecaron" unicode="&#x11a;" 
d="M80 700h438v-96h-330v-194h302v-96h-302v-218h333v-96h-441v700zM150 909h83l68 -66l68 66h83l-113 -151h-76z" />
    <glyph glyph-name="ecaron" unicode="&#x11b;" 
d="M177.5 19q-56.5 33 -89.5 93t-33 136t34 135.5t91.5 93t126.5 33.5q70 0 124 -31.5t83.5 -88t29.5 -128.5v-36h-389q4 -65 44.5 -108t103.5 -43q56 0 91 26t58 74l77 -45q-38 -73 -91.5 -108.5t-136.5 -35.5q-67 0 -123.5 33zM447 304q-6 59 -45 92t-98 33q-53 0 -94 -34
t-54 -91h291zM154 705h83l68 -66l68 66h83l-113 -151h-76z" />
    <glyph glyph-name="Gcircumflex" unicode="&#x11c;" 
d="M154.5 32.5q-61.5 46.5 -93 128.5t-31.5 189q0 105 35.5 187.5t101 129.5t151.5 47q97 0 157.5 -48t87.5 -131l-88 -47q-41 131 -158 131q-83 0 -130.5 -73.5t-47.5 -195.5q0 -124 43.5 -194.5t129.5 -70.5q64 0 101 52t44 136h-172v89h280v-362h-63l-21 115
q-22 -59 -67 -94t-109 -35q-89 0 -150.5 46.5zM280 909h76l113 -151h-83l-68 66l-68 -66h-83z" />
    <glyph glyph-name="gcircumflex" unicode="&#x11d;" 
d="M140 -177q-59 41 -59 112q0 34 14 57l99 -30q-7 -18 -7 -32q0 -30 31.5 -47.5t89.5 -17.5q67 0 102.5 40t35.5 118v68q-23 -38 -61.5 -60.5t-92.5 -22.5q-65 0 -118.5 31.5t-85 88.5t-31.5 131t32 131.5t86.5 88.5t117.5 31q52 0 91 -20.5t62 -56.5v63h104v-463
q0 -121 -65 -186t-180 -65q-106 0 -165 41zM411 141.5q42 43.5 42 117.5t-42 117.5t-107 43.5q-64 0 -105 -43.5t-41 -117.5t41 -117.5t105 -43.5q65 0 107 43.5zM270 705h76l113 -151h-83l-68 66l-68 -66h-83z" />
    <glyph glyph-name="Gbreve" unicode="&#x11e;" 
d="M154.5 32.5q-61.5 46.5 -93 128.5t-31.5 189q0 105 35.5 187.5t101 129.5t151.5 47q97 0 157.5 -48t87.5 -131l-88 -47q-41 131 -158 131q-83 0 -130.5 -73.5t-47.5 -195.5q0 -124 43.5 -194.5t129.5 -70.5q64 0 101 52t44 136h-172v89h280v-362h-63l-21 115
q-22 -59 -67 -94t-109 -35q-89 0 -150.5 46.5zM239 801q-31 31 -31 77h69q0 -19 11 -31t30 -12t30 12t11 31h69q0 -46 -31 -77t-79 -31t-79 31z" />
    <glyph glyph-name="gbreve" unicode="&#x11f;" 
d="M140 -177q-59 41 -59 112q0 34 14 57l99 -30q-7 -18 -7 -32q0 -30 31.5 -47.5t89.5 -17.5q67 0 102.5 40t35.5 118v68q-23 -38 -61.5 -60.5t-92.5 -22.5q-65 0 -118.5 31.5t-85 88.5t-31.5 131t32 131.5t86.5 88.5t117.5 31q52 0 91 -20.5t62 -56.5v63h104v-463
q0 -121 -65 -186t-180 -65q-106 0 -165 41zM411 141.5q42 43.5 42 117.5t-42 117.5t-107 43.5q-64 0 -105 -43.5t-41 -117.5t41 -117.5t105 -43.5q65 0 107 43.5zM229 597q-31 31 -31 77h69q0 -19 11 -31t30 -12t30 12t11 31h69q0 -46 -31 -77t-79 -31t-79 31z" />
    <glyph glyph-name="Gdotaccent" unicode="&#x120;" 
d="M154.5 32.5q-61.5 46.5 -93 128.5t-31.5 189q0 105 35.5 187.5t101 129.5t151.5 47q97 0 157.5 -48t87.5 -131l-88 -47q-41 131 -158 131q-83 0 -130.5 -73.5t-47.5 -195.5q0 -124 43.5 -194.5t129.5 -70.5q64 0 101 52t44 136h-172v89h280v-362h-63l-21 115
q-22 -59 -67 -94t-109 -35q-89 0 -150.5 46.5zM259 894h117v-115h-117v115z" />
    <glyph glyph-name="gdotaccent" unicode="&#x121;" 
d="M140 -177q-59 41 -59 112q0 34 14 57l99 -30q-7 -18 -7 -32q0 -30 31.5 -47.5t89.5 -17.5q67 0 102.5 40t35.5 118v68q-23 -38 -61.5 -60.5t-92.5 -22.5q-65 0 -118.5 31.5t-85 88.5t-31.5 131t32 131.5t86.5 88.5t117.5 31q52 0 91 -20.5t62 -56.5v63h104v-463
q0 -121 -65 -186t-180 -65q-106 0 -165 41zM411 141.5q42 43.5 42 117.5t-42 117.5t-107 43.5q-64 0 -105 -43.5t-41 -117.5t41 -117.5t105 -43.5q65 0 107 43.5zM250 690h117v-115h-117v115z" />
    <glyph glyph-name="uni0122" unicode="&#x122;" 
d="M154.5 32.5q-61.5 46.5 -93 128.5t-31.5 189q0 105 35.5 187.5t101 129.5t151.5 47q97 0 157.5 -48t87.5 -131l-88 -47q-41 131 -158 131q-83 0 -130.5 -73.5t-47.5 -195.5q0 -124 43.5 -194.5t129.5 -70.5q64 0 101 52t44 136h-172v89h280v-362h-63l-21 115
q-22 -59 -67 -94t-109 -35q-89 0 -150.5 46.5zM267 -279l30 110h-40v109h112v-109l-76 -119z" />
    <glyph glyph-name="uni0123" unicode="&#x123;" 
d="M140 -177q-59 41 -59 112q0 34 14 57l99 -30q-7 -18 -7 -32q0 -30 31.5 -47.5t89.5 -17.5q67 0 102.5 40t35.5 118v68q-23 -38 -61.5 -60.5t-92.5 -22.5q-65 0 -118.5 31.5t-85 88.5t-31.5 131t32 131.5t86.5 88.5t117.5 31q52 0 91 -20.5t62 -56.5v63h104v-463
q0 -121 -65 -186t-180 -65q-106 0 -165 41zM411 141.5q42 43.5 42 117.5t-42 117.5t-107 43.5q-64 0 -105 -43.5t-41 -117.5t41 -117.5t105 -43.5q65 0 107 43.5zM241 679l112 129l22 -19l-64 -110h47v-116h-117v116z" />
    <glyph glyph-name="Hcircumflex" unicode="&#x124;" 
d="M57 700h108v-294h272v294h108v-700h-108v308h-272v-308h-108v700zM263 909h76l113 -151h-83l-68 66l-68 -66h-83z" />
    <glyph glyph-name="hcircumflex" unicode="&#x125;" 
d="M71 700h104v-288q29 47 73 72.5t100 25.5q81 0 128.5 -46.5t47.5 -123.5v-340h-103v301q0 54 -29 84t-81 30q-37 0 -68.5 -20t-49.5 -55.5t-18 -79.5v-260h-104v700zM85 909h76l113 -151h-83l-68 66l-68 -66h-83z" />
    <glyph glyph-name="Hbar" unicode="&#x126;" 
d="M57 491h-61v80h61v129h108v-129h272v129h108v-129h61v-80h-61v-491h-108v308h-272v-308h-108v491zM437 406v85h-272v-85h272z" />
    <glyph glyph-name="hbar" unicode="&#x127;" 
d="M71 561h-59v80h59v59h104v-59h153v-80h-153v-149q29 47 73 72.5t100 25.5q81 0 128.5 -46.5t47.5 -123.5v-340h-103v301q0 54 -29 84t-81 30q-37 0 -68.5 -20t-49.5 -55.5t-18 -79.5v-260h-104v561z" />
    <glyph glyph-name="Itilde" unicode="&#x128;" 
d="M91 95h156v510h-150v95h408v-95h-150v-510h156v-95h-420v95zM321 769.5q-20 10.5 -41 30.5q-14 13 -24.5 19.5t-24.5 6.5q-11 0 -19 -7t-8 -18t6 -25l-65 -13q-13 18 -13 48q0 43 27.5 64.5t65.5 21.5q36 0 56 -10.5t41 -30.5q14 -13 24.5 -19.5t24.5 -6.5q11 0 19 7
t8 18q0 12 -6 25l65 13q13 -18 13 -48q0 -43 -27.5 -64.5t-65.5 -21.5q-36 0 -56 10.5z" />
    <glyph glyph-name="itilde" unicode="&#x129;" 
d="M89 87h162v324h-138v85h242v-409h158v-87h-424v87zM323 565.5q-20 10.5 -41 30.5q-14 13 -24.5 19.5t-24.5 6.5q-11 0 -19 -7t-8 -18t6 -25l-65 -13q-13 18 -13 48q0 43 27.5 64.5t65.5 21.5q36 0 56 -10.5t41 -30.5q14 -13 24.5 -19.5t24.5 -6.5q11 0 19 7t8 18
q0 12 -6 25l65 13q13 -18 13 -48q0 -43 -27.5 -64.5t-65.5 -21.5q-36 0 -56 10.5z" />
    <glyph glyph-name="Imacron" unicode="&#x12a;" 
d="M91 95h156v510h-150v95h408v-95h-150v-510h156v-95h-420v95zM184 879h234v-80h-234v80z" />
    <glyph glyph-name="imacron" unicode="&#x12b;" 
d="M89 87h162v324h-138v85h242v-409h158v-87h-424v87zM186 675h234v-80h-234v80z" />
    <glyph glyph-name="Ibreve" unicode="&#x12c;" 
d="M91 95h156v510h-150v95h408v-95h-150v-510h156v-95h-420v95zM222 801q-31 31 -31 77h69q0 -19 11 -31t30 -12t30 12t11 31h69q0 -46 -31 -77t-79 -31t-79 31z" />
    <glyph glyph-name="ibreve" unicode="&#x12d;" 
d="M89 87h162v324h-138v85h242v-409h158v-87h-424v87zM224 597q-31 31 -31 77h69q0 -19 11 -31t30 -12t30 12t11 31h69q0 -46 -31 -77t-79 -31t-79 31z" />
    <glyph glyph-name="Iogonek" unicode="&#x12e;" 
d="M516 -191q-24 -7 -53 -7q-44 0 -76.5 25t-32.5 69q0 58 60 104h-323v95h156v510h-150v95h408v-95h-150v-510h156v-95h1q-34 -18 -53 -39t-19 -42q0 -19 12.5 -30.5t32.5 -11.5l21 2z" />
    <glyph glyph-name="iogonek" unicode="&#x12f;" 
d="M362 575h-117v115h117v-115zM517 -191q-25 -7 -53 -7q-44 0 -76.5 25t-32.5 69q0 58 60 104h-326v87h162v324h-138v85h242v-409h158v-87q-34 -18 -53 -39t-19 -42q0 -19 12.5 -30.5t32.5 -11.5l21 2z" />
    <glyph glyph-name="Idotaccent" unicode="&#x130;" 
d="M91 95h156v510h-150v95h408v-95h-150v-510h156v-95h-420v95zM243 894h117v-115h-117v115z" />
    <glyph glyph-name="dotlessi" unicode="&#x131;" 
d="M89 87h162v324h-138v85h242v-409h158v-87h-424v87z" />
    <glyph glyph-name="IJ" unicode="&#x132;" 
d="M147 50.5q-63 64.5 -63 174.5h108q1 -67 36 -103.5t90 -36.5q54 0 85.5 33t31.5 94v488h108v-489q0 -66 -27.5 -117t-78.5 -79.5t-119 -28.5q-108 0 -171 64.5zM84 700h108v-400h-108v400z" />
    <glyph glyph-name="ij" unicode="&#x133;" 
d="M84 690h117v-115h-117v115zM400 690h116v-115h-116v115zM91 496h103v-496h-103v496zM217 -176q-44 35 -44 92q0 25 10 49l92 -32q-2 -4 -2 -14q0 -21 16 -33t45 -12q37 0 54.5 21.5t17.5 65.5v450h-138v85h242v-533q0 -80 -46.5 -127t-127.5 -47q-75 0 -119 35z" />
    <glyph glyph-name="Jcircumflex" unicode="&#x134;" 
d="M136.5 50.5q-62.5 64.5 -62.5 174.5l110 -12q1 -62 35 -95t88 -33q56 0 87.5 33t31.5 94v488h108v-489q0 -66 -28 -117t-79.5 -79.5t-119.5 -28.5q-108 0 -170.5 64.5zM442 909h76l113 -151h-83l-68 66l-68 -66h-83z" />
    <glyph glyph-name="jcircumflex" unicode="&#x135;" 
d="M131.5 -174.5q-47.5 36.5 -47.5 94.5q0 27 11 49l95 -32q-2 -8 -2 -15q0 -20 17.5 -31t48.5 -11q37 0 55 21t18 64v446h-155v85h258v-533q0 -82 -46 -128t-128 -46q-77 0 -124.5 36.5zM340 705h76l113 -151h-83l-68 66l-68 -66h-83z" />
    <glyph glyph-name="uni0136" unicode="&#x136;" 
d="M69 700h108v-284l48 53l208 231h135l-247 -269l255 -431h-124l-207 349l-68 -73v-276h-108v700zM258 -279l30 110h-40v109h112v-109l-76 -119z" />
    <glyph glyph-name="uni0137" unicode="&#x137;" 
d="M88 700h103v-382l200 178h140l-209 -186l231 -310h-129l-181 239l-52 -46v-193h-103v700zM255 -279l30 110h-40v109h112v-109l-76 -119z" />
    <glyph glyph-name="kgreenlandic" unicode="&#x138;" 
d="M88 496h103v-178l200 178h140l-209 -186l231 -310h-129l-181 239l-52 -46v-193h-103v496z" />
    <glyph glyph-name="Lacute" unicode="&#x139;" 
d="M85 700h108v-601h341v-99h-449v700zM161 909h134l-121 -151h-86z" />
    <glyph glyph-name="lacute" unicode="&#x13a;" 
d="M77 87h172v526h-151v87h255v-613h171v-87h-447v87zM323 909h134l-121 -151h-86z" />
    <glyph glyph-name="uni013B" unicode="&#x13b;" 
d="M85 700h108v-601h341v-99h-449v700zM264 -279l30 110h-40v109h112v-109l-76 -119z" />
    <glyph glyph-name="uni013C" unicode="&#x13c;" 
d="M77 87h172v526h-151v87h255v-613h171v-87h-447v87zM255 -279l30 110h-40v109h112v-109l-76 -119z" />
    <glyph glyph-name="Lcaron" unicode="&#x13d;" 
d="M85 700h108v-601h341v-99h-449v700zM385 445l75 127h-52v128h126v-128l-125 -147z" />
    <glyph glyph-name="lcaron" unicode="&#x13e;" 
d="M77 87h172v526h-151v87h255v-613h171v-87h-447v87zM422 507l47 90h-44v103h103v-103l-81 -103z" />
    <glyph glyph-name="Ldot" unicode="&#x13f;" 
d="M85 700h108v-601h341v-99h-449v700zM352 419h138v-138h-138v138z" />
    <glyph glyph-name="ldot" unicode="&#x140;" 
d="M77 87h172v526h-151v87h255v-613h171v-87h-447v87zM533 419h138v-138h-138v138z" />
    <glyph glyph-name="Lslash" unicode="&#x141;" 
d="M103 198l-77 -50v101l77 49v402h108v-333l124 78v-100l-124 -79v-167h341v-99h-449v198z" />
    <glyph glyph-name="lslash" unicode="&#x142;" 
d="M77 87h172v159l-95 -61v93l95 61v274h-151v87h255v-295l95 60v-93l-95 -61v-224h171v-87h-447v87z" />
    <glyph glyph-name="Nacute" unicode="&#x143;" 
d="M65 700h111l231 -452l30 -62v514h100v-700h-111l-231 452l-30 62v-514h-100v700zM323 909h134l-121 -151h-86z" />
    <glyph glyph-name="nacute" unicode="&#x144;" 
d="M86 496h104v-84q28 46 70.5 72t95.5 26q78 0 125.5 -45.5t47.5 -126.5v-338h-104v301q0 55 -27.5 84.5t-79.5 29.5q-35 0 -64.5 -20t-46.5 -54.5t-17 -78.5v-262h-104v496zM346 705h134l-121 -151h-86z" />
    <glyph glyph-name="uni0145" unicode="&#x145;" 
d="M65 700h111l231 -452l30 -62v514h100v-700h-111l-231 452l-30 62v-514h-100v700zM255 -279l30 110h-40v109h112v-109l-76 -119z" />
    <glyph glyph-name="uni0146" unicode="&#x146;" 
d="M86 496h104v-84q28 46 70.5 72t95.5 26q78 0 125.5 -45.5t47.5 -126.5v-338h-104v301q0 55 -27.5 84.5t-79.5 29.5q-35 0 -64.5 -20t-46.5 -54.5t-17 -78.5v-262h-104v496zM261 -279l30 110h-40v109h112v-109l-76 -119z" />
    <glyph glyph-name="Ncaron" unicode="&#x147;" 
d="M65 700h111l231 -452l30 -62v514h100v-700h-111l-231 452l-30 62v-514h-100v700zM150 909h83l68 -66l68 66h83l-113 -151h-76z" />
    <glyph glyph-name="ncaron" unicode="&#x148;" 
d="M86 496h104v-84q28 46 70.5 72t95.5 26q78 0 125.5 -45.5t47.5 -126.5v-338h-104v301q0 55 -27.5 84.5t-79.5 29.5q-35 0 -64.5 -20t-46.5 -54.5t-17 -78.5v-262h-104v496zM173 705h83l68 -66l68 66h83l-113 -151h-76z" />
    <glyph glyph-name="Eng" unicode="&#x14a;" 
d="M301.5 -213q-23.5 5 -45.5 16l37 93q27 -15 63 -15q34 0 53.5 24t19.5 73v22l-234 452l-30 62v-514h-100v700h111l231 -450l30 -62v512h100v-710q0 -95 -44.5 -151.5t-136.5 -56.5q-31 0 -54.5 5z" />
    <glyph glyph-name="eng" unicode="&#x14b;" 
d="M248.5 -177.5q-43.5 33.5 -43.5 88.5q0 25 12 51l85 -30q-2 -10 -2 -15q0 -20 16.5 -31.5t43.5 -11.5q65 0 65 79v348q0 55 -26 84.5t-78 29.5q-36 0 -66 -20t-47.5 -54.5t-17.5 -78.5v-262h-104v496h104v-84q29 46 73.5 72t96.5 26q76 0 122.5 -45.5t46.5 -126.5v-382
q0 -75 -42.5 -121t-126.5 -46q-68 0 -111.5 33.5z" />
    <glyph glyph-name="Omacron" unicode="&#x14c;" 
d="M155.5 29q-61.5 43 -95 125t-33.5 196t33.5 196t95 125t145.5 43t145.5 -43t95 -125t33.5 -196t-33.5 -196t-95 -125t-145.5 -43t-145.5 43zM422.5 154.5q42.5 69.5 42.5 195.5t-42.5 195.5t-121.5 69.5t-121.5 -69.5t-42.5 -195.5t42.5 -195.5t121.5 -69.5t121.5 69.5z
M184 879h234v-80h-234v80z" />
    <glyph glyph-name="omacron" unicode="&#x14d;" 
d="M173 16.5q-59 30.5 -94.5 90t-35.5 141.5t35.5 141.5t94.5 90t128 30.5t128 -30.5t94.5 -90t35.5 -141.5t-35.5 -141.5t-94.5 -90t-128 -30.5t-128 30.5zM411 125.5q43 44.5 43 122.5t-43 122.5t-110 44.5t-110 -44.5t-43 -122.5t43 -122.5t110 -44.5t110 44.5zM184 675
h234v-80h-234v80z" />
    <glyph glyph-name="Obreve" unicode="&#x14e;" 
d="M155.5 29q-61.5 43 -95 125t-33.5 196t33.5 196t95 125t145.5 43t145.5 -43t95 -125t33.5 -196t-33.5 -196t-95 -125t-145.5 -43t-145.5 43zM422.5 154.5q42.5 69.5 42.5 195.5t-42.5 195.5t-121.5 69.5t-121.5 -69.5t-42.5 -195.5t42.5 -195.5t121.5 -69.5t121.5 69.5z
M222 801q-31 31 -31 77h69q0 -19 11 -31t30 -12t30 12t11 31h69q0 -46 -31 -77t-79 -31t-79 31z" />
    <glyph glyph-name="obreve" unicode="&#x14f;" 
d="M173 16.5q-59 30.5 -94.5 90t-35.5 141.5t35.5 141.5t94.5 90t128 30.5t128 -30.5t94.5 -90t35.5 -141.5t-35.5 -141.5t-94.5 -90t-128 -30.5t-128 30.5zM411 125.5q43 44.5 43 122.5t-43 122.5t-110 44.5t-110 -44.5t-43 -122.5t43 -122.5t110 -44.5t110 44.5zM222 597
q-31 31 -31 77h69q0 -19 11 -31t30 -12t30 12t11 31h69q0 -46 -31 -77t-79 -31t-79 31z" />
    <glyph glyph-name="Ohungarumlaut" unicode="&#x150;" 
d="M155.5 29q-61.5 43 -95 125t-33.5 196t33.5 196t95 125t145.5 43t145.5 -43t95 -125t33.5 -196t-33.5 -196t-95 -125t-145.5 -43t-145.5 43zM422.5 154.5q42.5 69.5 42.5 195.5t-42.5 195.5t-121.5 69.5t-121.5 -69.5t-42.5 -195.5t42.5 -195.5t121.5 -69.5t121.5 69.5z
M239 909h134l-119 -151h-85zM415 909h134l-119 -151h-85z" />
    <glyph glyph-name="ohungarumlaut" unicode="&#x151;" 
d="M173 16.5q-59 30.5 -94.5 90t-35.5 141.5t35.5 141.5t94.5 90t128 30.5t128 -30.5t94.5 -90t35.5 -141.5t-35.5 -141.5t-94.5 -90t-128 -30.5t-128 30.5zM411 125.5q43 44.5 43 122.5t-43 122.5t-110 44.5t-110 -44.5t-43 -122.5t43 -122.5t110 -44.5t110 44.5zM239 705
h134l-119 -151h-85zM415 705h134l-119 -151h-85z" />
    <glyph glyph-name="OE" unicode="&#x152;" 
d="M153.5 41q-60.5 41 -93.5 120t-33 189t33 189t93.5 120t141.5 41h282v-96h-180v-194h164v-96h-164v-218h183v-96h-285q-81 0 -141.5 41zM289 601q-76 -4 -114 -67.5t-38 -183.5t38 -183.5t114 -67.5v502z" />
    <glyph glyph-name="oe" unicode="&#x153;" 
d="M174.5 19q-56.5 33 -88 92.5t-31.5 136.5q0 76 32.5 136t89.5 93t128 33q70 0 124.5 -31.5t84.5 -88t30 -128.5v-36h-200v-145q38 9 62.5 33t42.5 64l81 -46q-38 -74 -93 -110t-136 -36q-70 0 -126.5 33zM445 304q-4 48 -31.5 78.5t-69.5 39.5v-118h101zM254 418
q-46 -15 -73.5 -59t-27.5 -112q0 -61 27.5 -104.5t73.5 -57.5v333z" />
    <glyph glyph-name="Racute" unicode="&#x154;" 
d="M63 700h251q73 0 126.5 -24.5t82 -69.5t28.5 -103q0 -79 -40.5 -127.5t-115.5 -72.5l170 -303h-122l-165 293h-107v-293h-108v700zM313 388q65 0 97.5 27.5t32.5 81.5q0 53 -32.5 80.5t-97.5 27.5h-142v-217h142zM291 909h134l-121 -151h-86z" />
    <glyph glyph-name="racute" unicode="&#x155;" 
d="M102 496h104v-77q22 41 63 66t92 25q79 0 118.5 -41t39.5 -103q0 -35 -15 -69l-92 34q3 11 3 19q0 32 -22.5 51t-59.5 19q-61 0 -94 -44t-33 -115v-261h-104v496zM347 705h134l-121 -151h-86z" />
    <glyph glyph-name="uni0156" unicode="&#x156;" 
d="M63 700h251q73 0 126.5 -24.5t82 -69.5t28.5 -103q0 -79 -40.5 -127.5t-115.5 -72.5l170 -303h-122l-165 293h-107v-293h-108v700zM313 388q65 0 97.5 27.5t32.5 81.5q0 53 -32.5 80.5t-97.5 27.5h-142v-217h142zM255 -279l30 110h-40v109h112v-109l-76 -119z" />
    <glyph glyph-name="uni0157" unicode="&#x157;" 
d="M102 496h104v-77q22 41 63 66t92 25q79 0 118.5 -41t39.5 -103q0 -35 -15 -69l-92 34q3 11 3 19q0 32 -22.5 51t-59.5 19q-61 0 -94 -44t-33 -115v-261h-104v496zM108 -279l30 110h-40v109h112v-109l-76 -119z" />
    <glyph glyph-name="Rcaron" unicode="&#x158;" 
d="M63 700h251q73 0 126.5 -24.5t82 -69.5t28.5 -103q0 -79 -40.5 -127.5t-115.5 -72.5l170 -303h-122l-165 293h-107v-293h-108v700zM313 388q65 0 97.5 27.5t32.5 81.5q0 53 -32.5 80.5t-97.5 27.5h-142v-217h142zM118 909h83l68 -66l68 66h83l-113 -151h-76z" />
    <glyph glyph-name="rcaron" unicode="&#x159;" 
d="M102 496h104v-77q22 41 63 66t92 25q79 0 118.5 -41t39.5 -103q0 -35 -15 -69l-92 34q3 11 3 19q0 32 -22.5 51t-59.5 19q-61 0 -94 -44t-33 -115v-261h-104v496zM175 705h83l68 -66l68 66h83l-113 -151h-76z" />
    <glyph glyph-name="Sacute" unicode="&#x15a;" 
d="M134.5 46q-69.5 60 -92.5 160l95 49q16 -85 60.5 -129.5t122.5 -44.5q60 0 98 33t38 82q0 52 -40.5 81t-126.5 44q-102 18 -161.5 67.5t-59.5 133.5q0 55 29.5 98.5t83 68.5t120.5 25q96 0 161.5 -47.5t90.5 -126.5l-86 -52q-22 69 -63.5 100t-102.5 31
q-55 0 -92.5 -23.5t-37.5 -67.5q0 -47 43 -75t135 -46q110 -22 162.5 -72t52.5 -135q0 -59 -30.5 -107.5t-86 -77.5t-127.5 -29q-116 0 -185.5 60zM324 909h134l-121 -151h-86z" />
    <glyph glyph-name="sacute" unicode="&#x15b;" 
d="M157.5 27.5q-58.5 41.5 -84.5 106.5l84 53q37 -114 147 -114q48 0 78.5 19.5t30.5 51.5q0 33 -32 49.5t-102 25.5q-82 11 -129 49t-47 98q0 67 53 105.5t134 38.5q79 0 130 -32.5t79 -95.5l-76 -42q-17 43 -52.5 67.5t-80.5 24.5q-38 0 -66 -16.5t-28 -45.5
q0 -61 129 -75q185 -21 185 -148q0 -47 -25.5 -83.5t-72.5 -57t-109 -20.5q-87 0 -145.5 41.5zM320 705h134l-121 -151h-86z" />
    <glyph glyph-name="Scircumflex" unicode="&#x15c;" 
d="M134.5 46q-69.5 60 -92.5 160l95 49q16 -85 60.5 -129.5t122.5 -44.5q60 0 98 33t38 82q0 52 -40.5 81t-126.5 44q-102 18 -161.5 67.5t-59.5 133.5q0 55 29.5 98.5t83 68.5t120.5 25q96 0 161.5 -47.5t90.5 -126.5l-86 -52q-22 69 -63.5 100t-102.5 31
q-55 0 -92.5 -23.5t-37.5 -67.5q0 -47 43 -75t135 -46q110 -22 162.5 -72t52.5 -135q0 -59 -30.5 -107.5t-86 -77.5t-127.5 -29q-116 0 -185.5 60zM264 909h76l113 -151h-83l-68 66l-68 -66h-83z" />
    <glyph glyph-name="scircumflex" unicode="&#x15d;" 
d="M157.5 27.5q-58.5 41.5 -84.5 106.5l84 53q37 -114 147 -114q48 0 78.5 19.5t30.5 51.5q0 33 -32 49.5t-102 25.5q-82 11 -129 49t-47 98q0 67 53 105.5t134 38.5q79 0 130 -32.5t79 -95.5l-76 -42q-17 43 -52.5 67.5t-80.5 24.5q-38 0 -66 -16.5t-28 -45.5
q0 -61 129 -75q185 -21 185 -148q0 -47 -25.5 -83.5t-72.5 -57t-109 -20.5q-87 0 -145.5 41.5zM261 705h76l113 -151h-83l-68 66l-68 -66h-83z" />
    <glyph glyph-name="Scedilla" unicode="&#x15e;" 
d="M535.5 96q-28.5 -48 -80.5 -77.5t-119 -32.5l-23 -41q19 11 44 11q33 0 54.5 -21.5t21.5 -56.5q0 -38 -27 -60t-66 -22q-36 0 -59.5 16t-30.5 45l57 14q6 -24 34 -24q13 0 21.5 8t8.5 22q0 16 -9 24.5t-24 8.5q-25 0 -46 -18l-34 31l23 65q-99 10 -158 68.5t-81 149.5
l95 49q16 -85 60.5 -129.5t122.5 -44.5q60 0 98 33t38 82q0 52 -40.5 81t-126.5 44q-102 18 -161.5 67.5t-59.5 133.5q0 55 29.5 98.5t83 68.5t120.5 25q96 0 161.5 -47.5t90.5 -126.5l-86 -52q-22 69 -63.5 100t-102.5 31q-55 0 -92.5 -23.5t-37.5 -67.5q0 -47 43 -75
t135 -46q110 -22 162.5 -72t52.5 -135q0 -56 -28.5 -104z" />
    <glyph glyph-name="scedilla" unicode="&#x15f;" 
d="M457 33.5q-53 -44.5 -142 -47.5l-23 -41q19 11 44 11q33 0 54.5 -21.5t21.5 -56.5q0 -38 -27 -60t-66 -22q-36 0 -59.5 16t-30.5 45l57 14q6 -24 34 -24q13 0 21.5 8t8.5 22q0 16 -9 24.5t-24 8.5q-25 0 -46 -18l-34 31l24 66q-70 10 -117.5 49.5t-70.5 95.5l84 53
q37 -114 147 -114q48 0 78.5 19.5t30.5 51.5q0 33 -32 49.5t-102 25.5q-82 11 -129 49t-47 98q0 67 53 105.5t134 38.5q79 0 130 -32.5t79 -95.5l-76 -42q-17 43 -52.5 67.5t-80.5 24.5q-38 0 -66 -16.5t-28 -45.5q0 -61 129 -75q185 -21 185 -148q0 -69 -53 -113.5z" />
    <glyph glyph-name="Scaron" unicode="&#x160;" 
d="M134.5 46q-69.5 60 -92.5 160l95 49q16 -85 60.5 -129.5t122.5 -44.5q60 0 98 33t38 82q0 52 -40.5 81t-126.5 44q-102 18 -161.5 67.5t-59.5 133.5q0 55 29.5 98.5t83 68.5t120.5 25q96 0 161.5 -47.5t90.5 -126.5l-86 -52q-22 69 -63.5 100t-102.5 31
q-55 0 -92.5 -23.5t-37.5 -67.5q0 -47 43 -75t135 -46q110 -22 162.5 -72t52.5 -135q0 -59 -30.5 -107.5t-86 -77.5t-127.5 -29q-116 0 -185.5 60zM151 909h83l68 -66l68 66h83l-113 -151h-76z" />
    <glyph glyph-name="scaron" unicode="&#x161;" 
d="M157.5 27.5q-58.5 41.5 -84.5 106.5l84 53q37 -114 147 -114q48 0 78.5 19.5t30.5 51.5q0 33 -32 49.5t-102 25.5q-82 11 -129 49t-47 98q0 67 53 105.5t134 38.5q79 0 130 -32.5t79 -95.5l-76 -42q-17 43 -52.5 67.5t-80.5 24.5q-38 0 -66 -16.5t-28 -45.5
q0 -61 129 -75q185 -21 185 -148q0 -47 -25.5 -83.5t-72.5 -57t-109 -20.5q-87 0 -145.5 41.5zM148 705h83l68 -66l68 66h83l-113 -151h-76z" />
    <glyph glyph-name="uni0162" unicode="&#x162;" 
d="M326 0l-31 -55q19 11 44 11q33 0 54.5 -21.5t21.5 -56.5q0 -38 -27 -60t-66 -22q-36 0 -59.5 16t-30.5 45l57 14q6 -24 34 -24q13 0 21.5 8t8.5 22q0 16 -9 24.5t-24 8.5q-25 0 -46 -18l-34 31l28 77h-21v601h-193v99h494v-99h-193v-601h-29z" />
    <glyph glyph-name="uni0163" unicode="&#x163;" 
d="M425.5 -65.5q21.5 -21.5 21.5 -56.5q0 -38 -27 -60t-66 -22q-36 0 -59.5 16t-30.5 45l57 14q6 -24 34 -24q13 0 21.5 8t8.5 22q0 16 -9 24.5t-24 8.5q-25 0 -46 -18l-34 31l26 73q-48 18 -75.5 61.5t-27.5 108.5v247h-122v83h122v134h103v-134h166v-83h-166v-243
q0 -93 80 -93q43 0 79 31l39 -77q-52 -45 -133 -45h-13l-23 -41q19 11 44 11q33 0 54.5 -21.5z" />
    <glyph glyph-name="Tcaron" unicode="&#x164;" 
d="M247 601h-193v99h494v-99h-193v-601h-108v601zM150 909h83l68 -66l68 66h83l-113 -151h-76z" />
    <glyph glyph-name="tcaron" unicode="&#x165;" 
d="M241 33q-46 47 -46 133v247h-122v83h122v134h103v-134h166v-83h-166v-243q0 -93 80 -93q43 0 79 31l39 -77q-52 -45 -133 -45q-76 0 -122 47zM407 546l47 90h-44v103h103v-103l-81 -103z" />
    <glyph glyph-name="Tbar" unicode="&#x166;" 
d="M247 351h-131v80h131v170h-193v99h494v-99h-193v-170h131v-80h-131v-351h-108v351z" />
    <glyph glyph-name="tbar" unicode="&#x167;" 
d="M241 33q-46 47 -46 133v56h-93v78h93v113h-122v83h122v134h103v-134h166v-83h-166v-113h136v-78h-136v-52q0 -93 80 -93q43 0 79 31l39 -77q-52 -45 -133 -45q-76 0 -122 47z" />
    <glyph glyph-name="Utilde" unicode="&#x168;" 
d="M119 54q-66 68 -66 191v455h108v-458q0 -76 37.5 -116.5t102.5 -40.5t102.5 40.5t37.5 116.5v458h108v-455q0 -123 -66 -191t-182 -68t-182 68zM321 769.5q-20 10.5 -41 30.5q-14 13 -24.5 19.5t-24.5 6.5q-11 0 -19 -7t-8 -18t6 -25l-65 -13q-13 18 -13 48
q0 43 27.5 64.5t65.5 21.5q36 0 56 -10.5t41 -30.5q14 -13 24.5 -19.5t24.5 -6.5q11 0 19 7t8 18q0 12 -6 25l65 13q13 -18 13 -48q0 -43 -27.5 -64.5t-65.5 -21.5q-36 0 -56 10.5z" />
    <glyph glyph-name="utilde" unicode="&#x169;" 
d="M129 32q-49 46 -49 126v338h103v-301q0 -55 28 -84.5t80 -29.5q35 0 64.5 20t46.5 54.5t17 78.5v262h103v-496h-103v80q-57 -94 -164 -94q-77 0 -126 46zM321 565.5q-20 10.5 -41 30.5q-14 13 -24.5 19.5t-24.5 6.5q-11 0 -19 -7t-8 -18t6 -25l-65 -13q-13 18 -13 48
q0 43 27.5 64.5t65.5 21.5q36 0 56 -10.5t41 -30.5q14 -13 24.5 -19.5t24.5 -6.5q11 0 19 7t8 18q0 12 -6 25l65 13q13 -18 13 -48q0 -43 -27.5 -64.5t-65.5 -21.5q-36 0 -56 10.5z" />
    <glyph glyph-name="Umacron" unicode="&#x16a;" 
d="M119 54q-66 68 -66 191v455h108v-458q0 -76 37.5 -116.5t102.5 -40.5t102.5 40.5t37.5 116.5v458h108v-455q0 -123 -66 -191t-182 -68t-182 68zM184 879h234v-80h-234v80z" />
    <glyph glyph-name="umacron" unicode="&#x16b;" 
d="M129 32q-49 46 -49 126v338h103v-301q0 -55 28 -84.5t80 -29.5q35 0 64.5 20t46.5 54.5t17 78.5v262h103v-496h-103v80q-57 -94 -164 -94q-77 0 -126 46zM184 675h234v-80h-234v80z" />
    <glyph glyph-name="Ubreve" unicode="&#x16c;" 
d="M119 54q-66 68 -66 191v455h108v-458q0 -76 37.5 -116.5t102.5 -40.5t102.5 40.5t37.5 116.5v458h108v-455q0 -123 -66 -191t-182 -68t-182 68zM222 801q-31 31 -31 77h69q0 -19 11 -31t30 -12t30 12t11 31h69q0 -46 -31 -77t-79 -31t-79 31z" />
    <glyph glyph-name="ubreve" unicode="&#x16d;" 
d="M129 32q-49 46 -49 126v338h103v-301q0 -55 28 -84.5t80 -29.5q35 0 64.5 20t46.5 54.5t17 78.5v262h103v-496h-103v80q-57 -94 -164 -94q-77 0 -126 46zM222 597q-31 31 -31 77h69q0 -19 11 -31t30 -12t30 12t11 31h69q0 -46 -31 -77t-79 -31t-79 31z" />
    <glyph glyph-name="Uring" unicode="&#x16e;" 
d="M119 54q-66 68 -66 191v455h108v-458q0 -76 37.5 -116.5t102.5 -40.5t102.5 40.5t37.5 116.5v458h108v-455q0 -123 -66 -191t-182 -68t-182 68zM233 771.5q-28 27.5 -28 67.5t28 67.5t68 27.5t68 -27.5t28 -67.5t-28 -67.5t-68 -27.5t-68 27.5zM329 810q11 11 11 29
t-11 29t-28 11t-28 -11t-11 -29t11 -29t28 -11t28 11z" />
    <glyph glyph-name="uring" unicode="&#x16f;" 
d="M129 32q-49 46 -49 126v338h103v-301q0 -55 28 -84.5t80 -29.5q35 0 64.5 20t46.5 54.5t17 78.5v262h103v-496h-103v80q-57 -94 -164 -94q-77 0 -126 46zM233 567.5q-28 27.5 -28 67.5t28 67.5t68 27.5t68 -27.5t28 -67.5t-28 -67.5t-68 -27.5t-68 27.5zM329 606
q11 11 11 29t-11 29t-28 11t-28 -11t-11 -29t11 -29t28 -11t28 11z" />
    <glyph glyph-name="Uhungarumlaut" unicode="&#x170;" 
d="M119 54q-66 68 -66 191v455h108v-458q0 -76 37.5 -116.5t102.5 -40.5t102.5 40.5t37.5 116.5v458h108v-455q0 -123 -66 -191t-182 -68t-182 68zM239 909h134l-119 -151h-85zM415 909h134l-119 -151h-85z" />
    <glyph glyph-name="uhungarumlaut" unicode="&#x171;" 
d="M129 32q-49 46 -49 126v338h103v-301q0 -55 28 -84.5t80 -29.5q35 0 64.5 20t46.5 54.5t17 78.5v262h103v-496h-103v80q-57 -94 -164 -94q-77 0 -126 46zM239 705h134l-119 -151h-85zM415 705h134l-119 -151h-85z" />
    <glyph glyph-name="Uogonek" unicode="&#x172;" 
d="M549 700v-455q0 -97 -41.5 -160t-117.5 -87q-32 -18 -50.5 -38.5t-18.5 -40.5q0 -19 12.5 -30.5t32.5 -11.5l21 2l10 -70q-24 -7 -53 -7q-44 0 -76.5 25t-32.5 69q0 50 44 91q-106 6 -166 73.5t-60 184.5v455h108v-458q0 -76 37.5 -116.5t102.5 -40.5t102.5 40.5
t37.5 116.5v458h108z" />
    <glyph glyph-name="uogonek" unicode="&#x173;" 
d="M527 -191q-25 -7 -53 -7q-44 0 -76.5 25t-32.5 69q0 58 60 104h-6v80q-57 -94 -164 -94q-77 0 -126 46t-49 126v338h103v-301q0 -55 28 -84.5t80 -29.5q35 0 64.5 20t46.5 54.5t17 78.5v262h103v-496h1q-34 -18 -53 -39t-19 -42q0 -19 12.5 -30.5t32.5 -11.5l21 2z" />
    <glyph glyph-name="Wcircumflex" unicode="&#x174;" 
d="M3 700h104l55 -450q4 -44 7 -66l10 67l69 449h106l69 -449l10 -67q3 22 7 66l55 450h104l-103 -700h-117l-78 518l-78 -518h-117zM263 909h76l113 -151h-83l-68 66l-68 -66h-83z" />
    <glyph glyph-name="wcircumflex" unicode="&#x175;" 
d="M17 496h98l62 -356l74 356h100l74 -356l62 356h98l-104 -496h-107l-73 367l-73 -367h-107zM263 705h76l113 -151h-83l-68 66l-68 -66h-83z" />
    <glyph glyph-name="Ycircumflex" unicode="&#x176;" 
d="M247 276l-221 424h118l135 -267q13 -26 22 -49q9 23 22 49l135 267h118l-221 -424v-276h-108v276zM263 909h76l113 -151h-83l-68 66l-68 -66h-83z" />
    <glyph glyph-name="ycircumflex" unicode="&#x177;" 
d="M117.5 -205.5q-19.5 5.5 -40.5 16.5l31 88q26 -14 52 -14q22 0 38 11.5t27 37.5l28 70l-214 492h115l151 -361l146 361h113l-252 -596q-24 -58 -60 -84.5t-89 -26.5q-26 0 -45.5 5.5zM266 705h76l113 -151h-83l-68 66l-68 -66h-83z" />
    <glyph glyph-name="Ydieresis" unicode="&#x178;" 
d="M247 276l-221 424h118l135 -267q13 -26 22 -49q9 23 22 49l135 267h118l-221 -424v-276h-108v276zM156 894h108v-109h-108v109zM338 894h108v-109h-108v109z" />
    <glyph glyph-name="Zacute" unicode="&#x179;" 
d="M40 97l363 504h-350v99h473v-99l-360 -502h377v-99h-503v97zM313 909h134l-121 -151h-86z" />
    <glyph glyph-name="zacute" unicode="&#x17a;" 
d="M91 85l289 326h-279v85h397v-85l-289 -326h305v-85h-423v85zM323 705h134l-121 -151h-86z" />
    <glyph glyph-name="Zdotaccent" unicode="&#x17b;" 
d="M40 97l363 504h-350v99h473v-99l-360 -502h377v-99h-503v97zM233 894h117v-115h-117v115z" />
    <glyph glyph-name="zdotaccent" unicode="&#x17c;" 
d="M91 85l289 326h-279v85h397v-85l-289 -326h305v-85h-423v85zM243 690h117v-115h-117v115z" />
    <glyph glyph-name="Zcaron" unicode="&#x17d;" 
d="M40 97l363 504h-350v99h473v-99l-360 -502h377v-99h-503v97zM140 909h83l68 -66l68 66h83l-113 -151h-76z" />
    <glyph glyph-name="zcaron" unicode="&#x17e;" 
d="M91 85l289 326h-279v85h397v-85l-289 -326h305v-85h-423v85zM150 705h83l68 -66l68 66h83l-113 -151h-76z" />
    <glyph glyph-name="florin" unicode="&#x192;" 
d="M27 -183l34 85q17 -12 38.5 -19t40.5 -7q37 0 54.5 24.5t17.5 77.5v435h-137v83h137v53q0 65 24.5 110t67 68t94.5 23q66 0 118 -34l-34 -89q-39 29 -78 29q-41 0 -64.5 -25.5t-23.5 -75.5v-59h187v-83h-187v-430q0 -97 -46 -149t-122 -52q-67 0 -121 35z" />
    <glyph glyph-name="uni01B5" unicode="&#x1b5;" 
d="M40 97l156 217h-128v80h186l149 207h-350v99h473v-99l-148 -207h131v-80h-190l-153 -215h377v-99h-503v97z" />
    <glyph glyph-name="uni01B6" unicode="&#x1b6;" 
d="M84 85l117 133h-83v80h157l98 113h-279v85h398v-85l-100 -113h82v-80h-155l-117 -133h306v-85h-424v85z" />
    <glyph glyph-name="AEacute" unicode="&#x1fc;" 
d="M177 700h402v-96h-219v-194h191v-96h-191v-218h222v-96h-322v194h-106l-44 -194h-103zM260 290v314h-16q-5 -37 -16 -87l-52 -227h84zM372 909h134l-121 -151h-86z" />
    <glyph glyph-name="aeacute" unicode="&#x1fd;" 
d="M46.5 26.5q-38.5 40.5 -38.5 109.5q0 73 51.5 116.5t137.5 48.5l46 3v45q0 43 -16 64t-51 21q-33 0 -49 -18.5t-16 -43.5q0 -9 2 -14l-85 -30q-7 18 -7 41q0 38 18.5 70.5t52.5 51.5t79 19q97 0 134 -65q17 29 48 47t71 18q80 0 120.5 -62.5t40.5 -170.5v-51h-247
q0 -67 17 -108.5t61 -41.5q33 0 50 22t30 74l80 -26q-20 -78 -55.5 -119t-106.5 -41q-48 0 -81 27t-47 69q-19 -45 -50.5 -70.5t-82.5 -25.5q-68 0 -106.5 40.5zM486 304q0 60 -16.5 90.5t-52.5 30.5q-35 0 -55.5 -32t-22.5 -89h147zM224.5 112q18.5 40 18.5 114l-24 -2
q-63 -1 -90.5 -26t-27.5 -63q0 -30 17.5 -46.5t43.5 -16.5q44 0 62.5 40zM323 705h134l-121 -151h-86z" />
    <glyph glyph-name="uni0218" unicode="&#x218;" 
d="M134.5 46q-69.5 60 -92.5 160l95 49q16 -85 60.5 -129.5t122.5 -44.5q60 0 98 33t38 82q0 52 -40.5 81t-126.5 44q-102 18 -161.5 67.5t-59.5 133.5q0 55 29.5 98.5t83 68.5t120.5 25q96 0 161.5 -47.5t90.5 -126.5l-86 -52q-22 69 -63.5 100t-102.5 31
q-55 0 -92.5 -23.5t-37.5 -67.5q0 -47 43 -75t135 -46q110 -22 162.5 -72t52.5 -135q0 -59 -30.5 -107.5t-86 -77.5t-127.5 -29q-116 0 -185.5 60zM273 -279l30 110h-40v109h112v-109l-76 -119z" />
    <glyph glyph-name="uni0219" unicode="&#x219;" 
d="M157.5 27.5q-58.5 41.5 -84.5 106.5l84 53q37 -114 147 -114q48 0 78.5 19.5t30.5 51.5q0 33 -32 49.5t-102 25.5q-82 11 -129 49t-47 98q0 67 53 105.5t134 38.5q79 0 130 -32.5t79 -95.5l-76 -42q-17 43 -52.5 67.5t-80.5 24.5q-38 0 -66 -16.5t-28 -45.5
q0 -61 129 -75q185 -21 185 -148q0 -47 -25.5 -83.5t-72.5 -57t-109 -20.5q-87 0 -145.5 41.5zM251 -279l30 110h-40v109h112v-109l-76 -119z" />
    <glyph glyph-name="uni021A" unicode="&#x21a;" 
d="M247 601h-193v99h494v-99h-193v-601h-108v601zM255 -279l30 110h-40v109h112v-109l-76 -119z" />
    <glyph glyph-name="uni021B" unicode="&#x21b;" 
d="M241 33q-46 47 -46 133v247h-122v83h122v134h103v-134h166v-83h-166v-243q0 -93 80 -93q43 0 79 31l39 -77q-52 -45 -133 -45q-76 0 -122 47zM286 -279l30 110h-40v109h112v-109l-76 -119z" />
    <glyph glyph-name="uni0237" unicode="&#x237;" 
d="M131.5 -174.5q-47.5 36.5 -47.5 94.5q0 27 11 49l95 -32q-2 -8 -2 -15q0 -20 17.5 -31t48.5 -11q37 0 55 21t18 64v446h-155v85h258v-533q0 -82 -46 -128t-128 -46q-77 0 -124.5 36.5z" />
    <glyph glyph-name="circumflex" unicode="&#x2c6;" 
d="M263 705h76l113 -151h-83l-68 66l-68 -66h-83z" />
    <glyph glyph-name="caron" unicode="&#x2c7;" 
d="M150 705h83l68 -66l68 66h83l-113 -151h-76z" />
    <glyph glyph-name="uni02C9" unicode="&#x2c9;" 
d="M184 675h234v-80h-234v80z" />
    <glyph glyph-name="breve" unicode="&#x2d8;" 
d="M222 597q-31 31 -31 77h69q0 -19 11 -31t30 -12t30 12t11 31h69q0 -46 -31 -77t-79 -31t-79 31z" />
    <glyph glyph-name="dotaccent" unicode="&#x2d9;" 
d="M242 690h117v-115h-117v115z" />
    <glyph glyph-name="ring" unicode="&#x2da;" 
d="M233 567.5q-28 27.5 -28 67.5t28 67.5t68 27.5t68 -27.5t28 -67.5t-28 -67.5t-68 -27.5t-68 27.5zM329 606q11 11 11 29t-11 29t-28 11t-28 -11t-11 -29t11 -29t28 -11t28 11z" />
    <glyph glyph-name="ogonek" unicode="&#x2db;" 
d="M251.5 -173q-32.5 25 -32.5 69q0 35 21 64.5t56 50.5l81 -11q-34 -18 -53 -39t-19 -42q0 -19 12.5 -30.5t32.5 -11.5l21 2l10 -70q-25 -7 -53 -7q-44 0 -76.5 25z" />
    <glyph glyph-name="tilde" unicode="&#x2dc;" 
d="M321 565.5q-20 10.5 -41 30.5q-14 13 -24.5 19.5t-24.5 6.5q-11 0 -19 -7t-8 -18t6 -25l-65 -13q-13 18 -13 48q0 43 27.5 64.5t65.5 21.5q36 0 56 -10.5t41 -30.5q14 -13 24.5 -19.5t24.5 -6.5q11 0 19 7t8 18q0 12 -6 25l65 13q13 -18 13 -48q0 -43 -27.5 -64.5
t-65.5 -21.5q-36 0 -56 10.5z" />
    <glyph glyph-name="hungarumlaut" unicode="&#x2dd;" 
d="M181 705h134l-119 -151h-85zM357 705h134l-119 -151h-85z" />
    <glyph glyph-name="gravecomb" unicode="&#x300;" horiz-adv-x="0" 
d="M-407 705h134l73 -151h-86z" />
    <glyph glyph-name="acutecomb" unicode="&#x301;" horiz-adv-x="0" 
d="M-329 705h134l-121 -151h-86z" />
    <glyph glyph-name="uni0302" unicode="&#x302;" horiz-adv-x="0" 
d="M-339 705h76l113 -151h-83l-68 66l-68 -66h-83z" />
    <glyph glyph-name="tildecomb" unicode="&#x303;" horiz-adv-x="0" 
d="M-281 565.5q-20 10.5 -41 30.5q-14 13 -24.5 19.5t-24.5 6.5q-11 0 -19 -7t-8 -18t6 -25l-65 -13q-13 18 -13 48q0 43 27.5 64.5t65.5 21.5q36 0 56 -10.5t41 -30.5q14 -13 24.5 -19.5t24.5 -6.5q11 0 19 7t8 18q0 12 -6 25l65 13q13 -18 13 -48q0 -43 -27.5 -64.5
t-65.5 -21.5q-36 0 -56 10.5z" />
    <glyph glyph-name="uni0304" unicode="&#x304;" horiz-adv-x="0" 
d="M-418 675h234v-80h-234v80z" />
    <glyph glyph-name="uni0306" unicode="&#x306;" horiz-adv-x="0" 
d="M-380 597q-31 31 -31 77h69q0 -19 11 -31t30 -12t30 12t11 31h69q0 -46 -31 -77t-79 -31t-79 31z" />
    <glyph glyph-name="uni0307" unicode="&#x307;" horiz-adv-x="0" 
d="M-360 690h117v-115h-117v115z" />
    <glyph glyph-name="uni0308" unicode="&#x308;" horiz-adv-x="0" 
d="M-446 690h108v-109h-108v109zM-264 690h108v-109h-108v109z" />
    <glyph glyph-name="uni030A" unicode="&#x30a;" horiz-adv-x="0" 
d="M-369 567.5q-28 27.5 -28 67.5t28 67.5t68 27.5t68 -27.5t28 -67.5t-28 -67.5t-68 -27.5t-68 27.5zM-273 606q11 11 11 29t-11 29t-28 11t-28 -11t-11 -29t11 -29t28 -11t28 11z" />
    <glyph glyph-name="uni030B" unicode="&#x30b;" horiz-adv-x="0" 
d="M-421 705h134l-119 -151h-85zM-245 705h134l-119 -151h-85z" />
    <glyph glyph-name="uni030C" unicode="&#x30c;" horiz-adv-x="0" 
d="M-452 705h83l68 -66l68 66h83l-113 -151h-76z" />
    <glyph glyph-name="uni0312" unicode="&#x312;" horiz-adv-x="0" 
d="M-370 679l112 129l22 -19l-64 -110h47v-116h-117v116z" />
    <glyph glyph-name="uni0326" unicode="&#x326;" horiz-adv-x="0" 
d="M-332 -279l30 110h-40v109h112v-109l-76 -119z" />
    <glyph glyph-name="uni0327" unicode="&#x327;" horiz-adv-x="0" 
d="M-363.5 -188q-23.5 16 -30.5 45l57 14q6 -24 34 -24q13 0 21.5 8t8.5 22q0 16 -9 24.5t-24 8.5q-25 0 -46 -18l-34 31l32 89h61l-38 -67q19 11 44 11q33 0 54.5 -21.5t21.5 -56.5q0 -38 -27 -60t-66 -22q-36 0 -59.5 16z" />
    <glyph glyph-name="uni0328" unicode="&#x328;" horiz-adv-x="0" 
d="M-350.5 -173q-32.5 25 -32.5 69q0 35 21 64.5t56 50.5l81 -11q-34 -18 -53 -39t-19 -42q0 -19 12.5 -30.5t32.5 -11.5l21 2l10 -70q-25 -7 -53 -7q-44 0 -76.5 25z" />
    <glyph glyph-name="uni0394" unicode="&#x394;" 
d="M247 700h108l241 -700h-590zM449 95l-130 401q-9 28 -18 66q-9 -38 -18 -66l-130 -401h296z" />
    <glyph glyph-name="uni03A9" unicode="&#x3a9;" 
d="M40 83h117q-58 51 -98.5 140t-40.5 195q0 86 36.5 153.5t101 105t145.5 37.5t145.5 -37.5t101 -105t36.5 -153.5q0 -106 -40.5 -195t-98.5 -140h117v-83h-232v92q62 40 104 125t42 189q0 62 -22.5 109.5t-62 73.5t-90.5 26t-90.5 -26t-62 -73.5t-22.5 -109.5
q0 -104 42 -189t104 -125v-92h-232v83z" />
    <glyph glyph-name="uni03BC" unicode="&#x3bc;" 
d="M82 496h103v-301q0 -55 28 -84.5t80 -29.5q35 0 64.5 20t46.5 54.5t17 78.5v262h103v-496h-103v80q-57 -94 -164 -94q-44 0 -75 17q3 -32 3 -63v-144h-103v700z" />
    <glyph glyph-name="pi" unicode="&#x3c0;" 
d="M402 23.5q-36 37.5 -36 108.5v282h-134v-414h-103v414h-105v82h550v-82h-104v-268q0 -35 13.5 -52t41.5 -17q18 0 36 6l9 -85q-17 -6 -32 -9t-39 -3q-61 0 -97 37.5z" />
    <glyph glyph-name="Wgrave" unicode="&#x1e80;" 
d="M3 700h104l55 -450q4 -44 7 -66l10 67l69 449h106l69 -449l10 -67q3 22 7 66l55 450h104l-103 -700h-117l-78 518l-78 -518h-117zM145 909h134l73 -151h-86z" />
    <glyph glyph-name="wgrave" unicode="&#x1e81;" 
d="M17 496h98l62 -356l74 356h100l74 -356l62 356h98l-104 -496h-107l-73 367l-73 -367h-107zM145 705h134l73 -151h-86z" />
    <glyph glyph-name="Wacute" unicode="&#x1e82;" 
d="M3 700h104l55 -450q4 -44 7 -66l10 67l69 449h106l69 -449l10 -67q3 22 7 66l55 450h104l-103 -700h-117l-78 518l-78 -518h-117zM323 909h134l-121 -151h-86z" />
    <glyph glyph-name="wacute" unicode="&#x1e83;" 
d="M17 496h98l62 -356l74 356h100l74 -356l62 356h98l-104 -496h-107l-73 367l-73 -367h-107zM323 705h134l-121 -151h-86z" />
    <glyph glyph-name="Wdieresis" unicode="&#x1e84;" 
d="M3 700h104l55 -450q4 -44 7 -66l10 67l69 449h106l69 -449l10 -67q3 22 7 66l55 450h104l-103 -700h-117l-78 518l-78 -518h-117zM156 894h108v-109h-108v109zM338 894h108v-109h-108v109z" />
    <glyph glyph-name="wdieresis" unicode="&#x1e85;" 
d="M17 496h98l62 -356l74 356h100l74 -356l62 356h98l-104 -496h-107l-73 367l-73 -367h-107zM156 690h108v-109h-108v109zM338 690h108v-109h-108v109z" />
    <glyph glyph-name="uni1E9E" unicode="&#x1e9e;" 
d="M260 14.5q-44 28.5 -67 77.5l84 52q30 -59 90 -59q40 0 66.5 32t26.5 88q0 75 -46 109.5t-125 34.5v85l119 170h-129q-57 0 -87 -30.5t-30 -90.5v-483h-108v483q0 106 56.5 161.5t168.5 55.5h237v-96l-123 -171q79 -15 126.5 -73.5t47.5 -154.5q0 -66 -25.5 -116
t-71.5 -76.5t-105 -26.5q-61 0 -105 28.5z" />
    <glyph glyph-name="Ygrave" unicode="&#x1ef2;" 
d="M247 276l-221 424h118l135 -267q13 -26 22 -49q9 23 22 49l135 267h118l-221 -424v-276h-108v276zM145 909h134l73 -151h-86z" />
    <glyph glyph-name="ygrave" unicode="&#x1ef3;" 
d="M117.5 -205.5q-19.5 5.5 -40.5 16.5l31 88q26 -14 52 -14q22 0 38 11.5t27 37.5l28 70l-214 492h115l151 -361l146 361h113l-252 -596q-24 -58 -60 -84.5t-89 -26.5q-26 0 -45.5 5.5zM149 705h134l73 -151h-86z" />
    <glyph glyph-name="endash" unicode="&#x2013;" 
d="M81 353h440v-84h-440v84z" />
    <glyph glyph-name="emdash" unicode="&#x2014;" 
d="M36 353h530v-84h-530v84z" />
    <glyph glyph-name="quoteleft" unicode="&#x2018;" 
d="M251 564l127 143l22 -19l-74 -124h51v-126h-126v126z" />
    <glyph glyph-name="quoteright" unicode="&#x2019;" 
d="M202 450l74 124h-51v126h126v-126l-127 -143z" />
    <glyph glyph-name="quotesinglbase" unicode="&#x201a;" 
d="M212 -124l74 124h-50v126h125v-126l-126 -143z" />
    <glyph glyph-name="quotedblleft" unicode="&#x201c;" 
d="M151 564l127 143l22 -19l-74 -124h51v-126h-126v126zM328 564l126 143l23 -19l-74 -124h50v-126h-125v126z" />
    <glyph glyph-name="quotedblright" unicode="&#x201d;" 
d="M125 450l74 124h-50v126h125v-126l-126 -143zM302 450l74 124h-51v126h126v-126l-127 -143z" />
    <glyph glyph-name="quotedblbase" unicode="&#x201e;" 
d="M125 -124l74 124h-51v126h126v-126l-127 -143zM302 -124l74 124h-51v126h125v-126l-126 -143z" />
    <glyph glyph-name="dagger" unicode="&#x2020;" 
d="M250 411h-163v85h163v244h101v-244h164v-85h-164v-521h-101v521z" />
    <glyph glyph-name="daggerdbl" unicode="&#x2021;" 
d="M251 134h-163v85h163v192h-163v85h163v244h100v-244h164v-85h-164v-192h164v-85h-164v-244h-100v244z" />
    <glyph glyph-name="bullet" unicode="&#x2022;" 
d="M220.5 194.5q-33.5 33.5 -33.5 80.5t33.5 80.5t80.5 33.5t80.5 -33.5t33.5 -80.5t-33.5 -80.5t-80.5 -33.5t-80.5 33.5z" />
    <glyph glyph-name="ellipsis" unicode="&#x2026;" 
d="M44 117h114v-117h-114v117zM244 117h114v-117h-114v117zM444 117h114v-117h-114v117z" />
    <glyph glyph-name="perthousand" unicode="&#x2030;" 
d="M122.5 443.5q-33.5 19.5 -53 52.5t-19.5 73t19.5 73t53 52.5t74.5 19.5t74.5 -19.5t53 -52.5t19.5 -73t-19.5 -73t-53 -52.5t-74.5 -19.5t-74.5 19.5zM252 512q22 22 22 57t-22 57t-55 22t-55 -22t-22 -57t22 -57t55 -22t55 22zM13 324l522 168l19 -66l-521 -168z
M143.5 5.5q-33.5 19.5 -53 53t-19.5 72.5t19.5 72.5t53 53t73.5 19.5q33 0 61.5 -13.5t49.5 -37.5q20 24 48.5 37.5t61.5 13.5q41 0 74.5 -19.5t52.5 -52.5t19 -73t-19 -73t-52.5 -52.5t-74.5 -19.5q-33 0 -61.5 13.5t-48.5 37.5q-21 -24 -49.5 -37.5t-61.5 -13.5
q-40 0 -73.5 19.5zM271.5 74q21.5 22 21.5 57t-21.5 57t-54.5 22t-54.5 -22t-21.5 -57t21.5 -57t54.5 -22t54.5 22zM492.5 74q21.5 22 21.5 57t-21.5 57t-54.5 22t-54 -22t-21 -57t21 -57t54 -22t54.5 22z" />
    <glyph glyph-name="guilsinglleft" unicode="&#x2039;" 
d="M151 275l172 207h118l-171 -207l171 -206h-118z" />
    <glyph glyph-name="guilsinglright" unicode="&#x203a;" 
d="M332 275l-171 207h118l172 -207l-172 -206h-118z" />
    <glyph glyph-name="fraction" unicode="&#x2044;" 
d="M59 219l444 321l40 -57l-444 -321z" />
    <glyph glyph-name="uni2070" unicode="&#x2070;" 
d="M220 446q-36 23 -57 64.5t-21 94.5t21 94.5t57 64.5t81 23t81 -23t57 -64.5t21 -94.5t-21 -94.5t-57 -64.5t-81 -23t-81 23zM326 717q-14 4 -25 4q-38 0 -62 -31t-24 -85q0 -44 17 -73zM363 520q24 31 24 85q0 44 -17 73l-94 -185q14 -4 25 -4q38 0 62 31z" />
    <glyph glyph-name="uni2074" unicode="&#x2074;" 
d="M321 492h-177v59l177 229h73v-229h50v-59h-50v-62h-73v62zM321 551v133l-105 -133h105z" />
    <glyph glyph-name="uni2075" unicode="&#x2075;" 
d="M232 437.5q-30 14.5 -46.5 37.5t-16.5 49q0 16 5 29l69 -13q-2 -6 -2 -14q0 -21 17.5 -32.5t45.5 -11.5q32 0 50.5 17.5t18.5 49.5q0 29 -18.5 47t-51.5 18q-44 0 -74 -39l-54 16l18 189h231v-58h-177l-12 -86q13 15 35 24t47 9q57 0 91.5 -33.5t34.5 -86.5
q0 -57 -39.5 -91.5t-101.5 -34.5q-40 0 -70 14.5z" />
    <glyph glyph-name="uni2076" unicode="&#x2076;" 
d="M210 466.5q-39 43.5 -39 118.5q0 38 9.5 75.5t28.5 64.5q40 62 111 62q50 0 80.5 -24.5t30.5 -62.5q0 -14 -6 -30l-62 13q4 10 4 18q0 14 -13.5 22.5t-35.5 8.5q-35 0 -57 -32.5t-25 -82.5q13 18 36 29.5t50 11.5q51 0 84 -32t33 -84t-36.5 -85.5t-92.5 -33.5
q-61 0 -100 43.5zM355 496q18 17 18 45t-18 45t-45 17q-28 0 -46 -17t-18 -45t18 -45t46 -17q27 0 45 17z" />
    <glyph glyph-name="uni2077" unicode="&#x2077;" 
d="M369 722h-171v58h242v-55l-139 -295h-69z" />
    <glyph glyph-name="uni2078" unicode="&#x2078;" 
d="M208 453.5q-38 30.5 -38 76.5q0 60 58 88q-46 26 -46 75q0 41 33.5 67.5t85.5 26.5t85.5 -26.5t33.5 -67.5q0 -49 -46 -75q58 -28 58 -88q0 -46 -38 -76.5t-93 -30.5t-93 30.5zM338.5 655q15.5 13 15.5 35t-15.5 34.5t-37.5 12.5t-37.5 -12.5t-15.5 -34.5t15.5 -35
t37.5 -13t37.5 13zM344.5 492q17.5 15 17.5 41q0 27 -17.5 41.5t-43.5 14.5t-43.5 -14.5t-17.5 -41.5q0 -26 17.5 -41t43.5 -15t43.5 15z" />
    <glyph glyph-name="uni2079" unicode="&#x2079;" 
d="M220 447.5q-31 24.5 -31 62.5q0 18 6 30l62 -13q-3 -7 -3 -17q0 -15 13 -23.5t34 -8.5q76 0 83 115q-13 -19 -35.5 -30t-49.5 -11q-51 0 -85 32t-34 84t36.5 85.5t93.5 33.5q62 0 100.5 -43t38.5 -119q0 -39 -10 -76t-29 -64q-18 -30 -46.5 -46t-63.5 -16q-49 0 -80 24.5
zM355.5 624q18.5 17 18.5 45t-18.5 45t-45.5 17t-45.5 -17t-18.5 -45t18.5 -45t45.5 -17t45.5 17z" />
    <glyph glyph-name="uni2080" unicode="&#x2080;" 
d="M220 -108q-36 23 -57 64.5t-21 94.5t21 94.5t57 64.5t81 23t81 -23t57 -64.5t21 -94.5t-21 -94.5t-57 -64.5t-81 -23t-81 23zM326 163q-14 4 -25 4q-38 0 -62 -31t-24 -85q0 -44 17 -73zM363 -34q24 31 24 85q0 44 -17 73l-94 -185q14 -4 25 -4q38 0 62 31z" />
    <glyph glyph-name="uni2081" unicode="&#x2081;" 
d="M193 -61h94v200q-15 -13 -34 -18t-47 -5v67q33 0 53 10t32 33h68v-287h93v-63h-259v63z" />
    <glyph glyph-name="uni2082" unicode="&#x2082;" 
d="M159 -77l132 127q22 21 30.5 38.5t8.5 36.5q0 22 -13.5 34.5t-36.5 12.5t-38.5 -13t-15.5 -36q0 -10 4 -24l-65 -9q-6 17 -6 37q0 27 14.5 51.5t42.5 39.5t64 15q56 0 88.5 -28t32.5 -73q0 -36 -14.5 -62.5t-48.5 -60.5l-73 -72h139v-61h-245v47z" />
    <glyph glyph-name="uni2083" unicode="&#x2083;" 
d="M204.5 -101q-34.5 30 -34.5 73q0 20 6 35l67 -15q-2 -8 -2 -16q0 -22 16 -34t41 -12q27 0 43.5 13.5t16.5 38.5q0 54 -89 54v53q36 0 55 12t19 34q0 20 -13 30t-36 10q-21 0 -35.5 -10.5t-14.5 -29.5q0 -10 3 -16l-63 -9q-5 13 -5 28q0 39 32 67t83 28q56 0 86.5 -24
t30.5 -62q0 -48 -49 -77q29 -10 48 -33t19 -57q0 -51 -36.5 -81t-95.5 -30q-58 0 -92.5 30z" />
    <glyph glyph-name="uni2084" unicode="&#x2084;" 
d="M321 -62h-177v59l177 229h73v-229h50v-59h-50v-62h-73v62zM321 -3v133l-105 -133h105z" />
    <glyph glyph-name="uni2085" unicode="&#x2085;" 
d="M232 -116.5q-30 14.5 -46.5 37.5t-16.5 49q0 16 5 29l69 -13q-2 -6 -2 -14q0 -21 17.5 -32.5t45.5 -11.5q32 0 50.5 17.5t18.5 49.5q0 29 -18.5 47t-51.5 18q-44 0 -74 -39l-54 16l18 189h231v-58h-177l-12 -86q13 15 35 24t47 9q57 0 91.5 -33.5t34.5 -86.5
q0 -57 -39.5 -91.5t-101.5 -34.5q-40 0 -70 14.5z" />
    <glyph glyph-name="uni2086" unicode="&#x2086;" 
d="M210 -87.5q-39 43.5 -39 118.5q0 38 9.5 75.5t28.5 64.5q40 62 111 62q50 0 80.5 -24.5t30.5 -62.5q0 -14 -6 -30l-62 13q4 10 4 18q0 14 -13.5 22.5t-35.5 8.5q-35 0 -57 -32.5t-25 -82.5q13 18 36 29.5t50 11.5q51 0 84 -32t33 -84t-36.5 -85.5t-92.5 -33.5
q-61 0 -100 43.5zM355 -58q18 17 18 45t-18 45t-45 17q-28 0 -46 -17t-18 -45t18 -45t46 -17q27 0 45 17z" />
    <glyph glyph-name="uni2087" unicode="&#x2087;" 
d="M369 168h-171v58h242v-55l-139 -295h-69z" />
    <glyph glyph-name="uni2088" unicode="&#x2088;" 
d="M208 -100.5q-38 30.5 -38 76.5q0 60 58 88q-46 26 -46 75q0 41 33.5 67.5t85.5 26.5t85.5 -26.5t33.5 -67.5q0 -49 -46 -75q58 -28 58 -88q0 -46 -38 -76.5t-93 -30.5t-93 30.5zM338.5 101q15.5 13 15.5 35t-15.5 34.5t-37.5 12.5t-37.5 -12.5t-15.5 -34.5t15.5 -35
t37.5 -13t37.5 13zM344.5 -62q17.5 15 17.5 41q0 27 -17.5 41.5t-43.5 14.5t-43.5 -14.5t-17.5 -41.5q0 -26 17.5 -41t43.5 -15t43.5 15z" />
    <glyph glyph-name="uni2089" unicode="&#x2089;" 
d="M220 -106.5q-31 24.5 -31 62.5q0 18 6 30l62 -13q-3 -7 -3 -17q0 -15 13 -23.5t34 -8.5q76 0 83 115q-13 -19 -35.5 -30t-49.5 -11q-51 0 -85 32t-34 84t36.5 85.5t93.5 33.5q62 0 100.5 -43t38.5 -119q0 -39 -10 -76t-29 -64q-18 -30 -46.5 -46t-63.5 -16
q-49 0 -80 24.5zM355.5 70q18.5 17 18.5 45t-18.5 45t-45.5 17t-45.5 -17t-18.5 -45t18.5 -45t45.5 -17t45.5 17z" />
    <glyph glyph-name="Euro" unicode="&#x20ac;" 
d="M167 53q-69 67 -92 183h-76l35 78h31q-1 12 -1 36t1 36h-66l35 78h42q25 114 96 182t172 68q182 0 243 -174l-96 -42q-17 56 -55 86.5t-93 30.5q-64 0 -104.5 -39t-57.5 -112h268l-35 -78h-243q-1 -12 -1 -36t1 -36h278l-35 -78h-232q18 -73 59 -112t105 -39
q58 0 93.5 34t59.5 109l90 -39q-65 -203 -244 -203q-109 0 -178 67z" />
    <glyph glyph-name="uni20BA" unicode="&#x20ba;" 
d="M564 303v-20q0 -92 -37 -155.5t-103 -95.5t-153 -32h-161v186l-70 -33v97l70 33v85l-70 -33v96l70 33v236h108v-184l123 58v-96l-123 -58v-85l123 58v-97l-123 -58v-139h53q98 0 147.5 46.5t49.5 137.5v20h96z" />
    <glyph glyph-name="uni2113" unicode="&#x2113;" 
d="M396 184l71 -44q-75 -154 -210 -154q-66 0 -106 40.5t-48 121.5q-40 -10 -61 -14v93q38 7 60 13q8 145 54 253t115 164.5t145 56.5q69 0 103.5 -40t34.5 -112q0 -123 -95 -224.5t-265 -161.5q4 -53 24 -78t52 -25q69 0 126 111zM316 583q-44 -47 -77 -130t-43 -184
q127 47 195.5 122.5t68.5 162.5q0 76 -60 76q-40 0 -84 -47z" />
    <glyph glyph-name="uni2117" unicode="&#x2117;" 
d="M160.5 108q-64.5 38 -102.5 102.5t-38 140.5t38 140.5t102.5 102.5t140.5 38t140.5 -38t102.5 -102.5t38 -140.5t-38 -140.5t-102.5 -102.5t-140.5 -38t-140.5 38zM414 154.5q52 30.5 82.5 82.5t30.5 114t-30.5 114t-82.5 82.5t-113 30.5t-113 -30.5t-82.5 -82.5
t-30.5 -114t30.5 -114t82.5 -82.5t113 -30.5t113 30.5zM188 520h129q56 0 86.5 -28t30.5 -78t-30 -77.5t-87 -27.5h-77v-127h-52v338zM313 354q70 0 70 60q0 59 -70 59h-73v-119h73z" />
    <glyph glyph-name="uni2120" unicode="&#x2120;" 
d="M48 324q-35 31 -41 78l47 24q8 -40 26 -61.5t56 -21.5q28 0 47.5 17.5t19.5 49.5q0 31 -20 48.5t-57 27.5q-55 14 -82 43.5t-27 75.5q0 44 32.5 73.5t81.5 29.5q48 0 80 -23t43 -65l-43 -24q-14 33 -32.5 47.5t-46.5 14.5q-30 0 -46.5 -14.5t-16.5 -37.5q0 -29 22 -46.5
t61 -29.5q51 -16 77 -41.5t26 -75.5q0 -54 -30.5 -87t-88.5 -33q-53 0 -88 31zM284 700h66l84 -344l84 344h66v-400h-52v284l-69 -284h-58l-69 284v-284h-52v400z" />
    <glyph glyph-name="trademark" unicode="&#x2122;" 
d="M105 650h-89v50h236v-50h-89v-350h-58v350zM279 700h66l84 -344l84 344h66v-400h-52v284l-69 -284h-58l-69 284v-284h-52v400z" />
    <glyph glyph-name="uni2126" unicode="&#x2126;" 
d="M40 83h117q-58 51 -98.5 140t-40.5 195q0 86 36.5 153.5t101 105t145.5 37.5t145.5 -37.5t101 -105t36.5 -153.5q0 -106 -40.5 -195t-98.5 -140h117v-83h-232v92q62 40 104 125t42 189q0 62 -22.5 109.5t-62 73.5t-90.5 26t-90.5 -26t-62 -73.5t-22.5 -109.5
q0 -104 42 -189t104 -125v-92h-232v83z" />
    <glyph glyph-name="estimated" unicode="&#x212e;" 
d="M437.5 138.5q61.5 40.5 91.5 106.5h41q-32 -82 -105.5 -133t-163.5 -51q-78 0 -144.5 39t-105.5 105t-39 145t39 145t105.5 105t144.5 39t144.5 -39t105.5 -105t39 -145h-473v-168q34 -40 81.5 -62t102.5 -22q75 0 136.5 40.5zM198.5 580q-47.5 -22 -81.5 -62v-131h368
v128q-34 41 -82 64t-102 23q-55 0 -102.5 -22z" />
    <glyph glyph-name="uni2153" unicode="&#x2153;" 
d="M110 613q-15 -13 -31 -18t-44 -5v67q33 0 49.5 10t29.5 33h68v-350h-72v263zM81 171l371 405l45 -43l-371 -405zM363.5 23q-34.5 30 -34.5 73q0 20 6 35l67 -15q-2 -8 -2 -16q0 -22 16 -34t41 -12q27 0 43.5 13.5t16.5 38.5q0 54 -89 54v53q36 0 55 12t19 34q0 20 -13 30
t-36 10q-21 0 -35.5 -10.5t-14.5 -29.5q0 -10 3 -16l-63 -9q-5 13 -5 28q0 39 32 67t83 28q56 0 86.5 -24t30.5 -62q0 -48 -49 -77q29 -10 48 -33t19 -57q0 -51 -36.5 -81t-95.5 -30q-58 0 -92.5 30z" />
    <glyph glyph-name="uni2154" unicode="&#x2154;" 
d="M18 397l131 127q22 21 31 38.5t9 36.5q0 22 -13.5 34.5t-37.5 12.5q-23 0 -38 -13t-15 -36q0 -10 4 -24l-65 -9q-7 15 -7 37q0 27 15 51.5t42.5 39.5t63.5 15q56 0 89 -27.5t33 -73.5q0 -36 -14.5 -62.5t-48.5 -60.5l-74 -72h140v-61h-245v47zM121 171l371 405l44 -43
l-370 -405zM371.5 23q-34.5 30 -34.5 73q0 18 7 35l67 -15q-3 -6 -3 -16q0 -22 16.5 -34t41.5 -12q27 0 43 13t16 39q0 54 -89 54v53q37 0 55.5 12t18.5 34q0 20 -13 30t-35 10q-21 0 -35.5 -10.5t-14.5 -29.5q0 -8 2 -16l-62 -9q-5 13 -5 28q0 39 31.5 67t83.5 28
q56 0 86.5 -24t30.5 -62q0 -48 -50 -77q29 -10 48.5 -33t19.5 -57q0 -51 -36.5 -81t-96.5 -30q-58 0 -92.5 30z" />
    <glyph glyph-name="oneeighth" unicode="&#x215b;" 
d="M109 613q-15 -13 -31.5 -18t-44.5 -5v67q33 0 50 10t30 33h68v-350h-72v263zM79 171l370 405l45 -43l-371 -405zM365 23.5q-38 30.5 -38 76.5q0 60 58 88q-46 26 -46 75q0 41 33.5 67.5t85.5 26.5t85.5 -26.5t33.5 -67.5q0 -49 -46 -75q58 -28 58 -88q0 -46 -38 -76.5
t-93 -30.5t-93 30.5zM495.5 225q15.5 13 15.5 35t-15.5 34.5t-37.5 12.5t-37.5 -12.5t-15.5 -34.5t15.5 -35t37.5 -13t37.5 13zM501.5 62q17.5 15 17.5 41q0 27 -17.5 41.5t-43.5 14.5t-43.5 -14.5t-17.5 -41.5q0 -26 17.5 -41t43.5 -15t43.5 15z" />
    <glyph glyph-name="threeeighths" unicode="&#x215c;" 
d="M52.5 373q-34.5 30 -34.5 73q0 20 6 35l67 -15q-2 -8 -2 -16q0 -22 16 -34t41 -12q27 0 43.5 13.5t16.5 38.5q0 54 -89 54v53q36 0 55 12t19 34q0 20 -13 30t-36 10q-21 0 -35.5 -10.5t-14.5 -29.5q0 -10 3 -16l-63 -9q-5 13 -5 28q0 39 32 67t83 28q56 0 86.5 -24
t30.5 -62q0 -48 -49 -77q29 -10 48 -33t19 -57q0 -51 -36.5 -81t-95.5 -30q-58 0 -92.5 30zM99 171l370 405l45 -43l-371 -405zM358 23.5q-38 30.5 -38 76.5q0 60 58 88q-46 26 -46 75q0 41 33.5 67.5t85.5 26.5t85.5 -26.5t33.5 -67.5q0 -49 -46 -75q58 -28 58 -88
q0 -46 -38 -76.5t-93 -30.5t-93 30.5zM488.5 225q15.5 13 15.5 35t-15.5 34.5t-37.5 12.5t-37.5 -12.5t-15.5 -34.5t15.5 -35t37.5 -13t37.5 13zM494.5 62q17.5 15 17.5 41q0 27 -17.5 41.5t-43.5 14.5t-43.5 -14.5t-17.5 -41.5q0 -26 17.5 -41t43.5 -15t43.5 15z" />
    <glyph glyph-name="fiveeighths" unicode="&#x215d;" 
d="M80 357.5q-30 14.5 -46.5 37.5t-16.5 49q0 16 5 29l69 -13q-2 -6 -2 -14q0 -21 17.5 -32.5t45.5 -11.5q32 0 50.5 17.5t18.5 49.5q0 29 -18.5 47t-51.5 18q-44 0 -74 -39l-54 16l18 189h231v-58h-177l-12 -86q13 15 35 24t47 9q57 0 91.5 -33.5t34.5 -86.5
q0 -57 -39.5 -91.5t-101.5 -34.5q-40 0 -70 14.5zM99 171l371 405l44 -43l-370 -405zM368 23.5q-38 30.5 -38 76.5q0 60 58 88q-46 26 -46 75q0 41 33.5 67.5t85.5 26.5t85.5 -26.5t33.5 -67.5q0 -49 -46 -75q58 -28 58 -88q0 -46 -38 -76.5t-93 -30.5t-93 30.5zM498.5 225
q15.5 13 15.5 35t-15.5 34.5t-37.5 12.5t-37.5 -12.5t-15.5 -34.5t15.5 -35t37.5 -13t37.5 13zM504.5 62q17.5 15 17.5 41q0 27 -17.5 41.5t-43.5 14.5t-43.5 -14.5t-17.5 -41.5q0 -26 17.5 -41t43.5 -15t43.5 15z" />
    <glyph glyph-name="seveneighths" unicode="&#x215e;" 
d="M229 642h-171v58h242v-55l-139 -295h-69zM73 171l370 405l45 -43l-371 -405zM363 23.5q-38 30.5 -38 76.5q0 60 58 88q-46 26 -46 75q0 41 33.5 67.5t85.5 26.5t85.5 -26.5t33.5 -67.5q0 -49 -46 -75q58 -28 58 -88q0 -46 -38 -76.5t-93 -30.5t-93 30.5zM493.5 225
q15.5 13 15.5 35t-15.5 34.5t-37.5 12.5t-37.5 -12.5t-15.5 -34.5t15.5 -35t37.5 -13t37.5 13zM499.5 62q17.5 15 17.5 41q0 27 -17.5 41.5t-43.5 14.5t-43.5 -14.5t-17.5 -41.5q0 -26 17.5 -41t43.5 -15t43.5 15z" />
    <glyph glyph-name="arrowleft" unicode="&#x2190;" 
d="M47 311l218 218l61 -62l-114 -114h319v-84h-319l114 -114l-61 -62z" />
    <glyph glyph-name="arrowup" unicode="&#x2191;" 
d="M259 448l-114 -115l-62 62l218 218l218 -218l-62 -62l-114 115v-319h-84v319z" />
    <glyph glyph-name="arrowright" unicode="&#x2192;" 
d="M276 155l114 114h-319v84h319l-114 114l61 62l218 -218l-218 -218z" />
    <glyph glyph-name="arrowdown" unicode="&#x2193;" 
d="M83 347l62 62l114 -115v319h84v-319l114 115l62 -62l-218 -218z" />
    <glyph glyph-name="arrowboth" unicode="&#x2194;" 
d="M1 311l218 218l61 -62l-114 -114h270l-114 114l61 62l218 -218l-218 -218l-61 62l114 114h-270l114 -114l-61 -62z" />
    <glyph glyph-name="arrowupdn" unicode="&#x2195;" 
d="M83 267l62 62l114 -115v271l-114 -115l-62 62l218 218l218 -218l-62 -62l-114 115v-271l114 115l62 -62l-218 -218z" />
    <glyph glyph-name="uni2196" unicode="&#x2196;" 
d="M193 334v-161h-87v308h308v-87h-161l225 -226l-59 -59z" />
    <glyph glyph-name="uni2197" unicode="&#x2197;" 
d="M124 168l225 226h-161v87h308v-308h-87v161l-226 -225z" />
    <glyph glyph-name="uni2198" unicode="&#x2198;" 
d="M188 206h161l-225 226l59 59l226 -225v161h87v-308h-308v87z" />
    <glyph glyph-name="uni2199" unicode="&#x2199;" 
d="M106 427h87v-161l226 225l59 -59l-225 -226h161v-87h-308v308z" />
    <glyph glyph-name="partialdiff" unicode="&#x2202;" 
d="M171.5 14q-54.5 28 -86.5 80t-32 123q0 68 30.5 124t85 88.5t123.5 32.5q105 0 164 -72q-12 101 -62 170t-125 69q-42 0 -66 -19t-24 -46q0 -9 3 -18l-89 -37q-13 24 -13 54q0 37 21 71.5t63.5 57t102.5 22.5q94 0 158 -53t95.5 -146t31.5 -215q0 -90 -31 -161.5
t-90 -112t-140 -40.5q-65 0 -119.5 28zM372.5 92.5q34.5 18.5 55.5 53.5t21 84q0 44 -20 77t-53 50t-71 17q-44 0 -78.5 -21t-53 -56.5t-18.5 -79.5t20 -76.5t53 -49.5t69 -17q41 0 75.5 18.5z" />
    <glyph glyph-name="uni2206" unicode="&#x2206;" 
d="M247 700h108l241 -700h-590zM449 95l-130 401q-9 28 -18 66q-9 -38 -18 -66l-130 -401h296z" />
    <glyph glyph-name="product" unicode="&#x220f;" 
d="M76 700h450v-904h-108v805h-234v-805h-108v904z" />
    <glyph glyph-name="summation" unicode="&#x2211;" 
d="M44 -21l208 311l-199 310v100h480v-100h-353l195 -310l-206 -311h372v-99h-497v99z" />
    <glyph glyph-name="minus" unicode="&#x2212;" 
d="M74 407h454v-84h-454v84z" />
    <glyph glyph-name="uni2215" unicode="&#x2215;" 
d="M438 730h106l-380 -760h-106z" />
    <glyph glyph-name="uni2219" unicode="&#x2219;" 
d="M220.5 194.5q-33.5 33.5 -33.5 80.5t33.5 80.5t80.5 33.5t80.5 -33.5t33.5 -80.5t-33.5 -80.5t-80.5 -33.5t-80.5 33.5z" />
    <glyph glyph-name="radical" unicode="&#x221a;" 
d="M139 272h-91v84h171l57 -215l169 559h100l-221 -700h-102z" />
    <glyph glyph-name="infinity" unicode="&#x221e;" 
d="M63.5 181.5q-36.5 45.5 -36.5 118.5t36.5 118.5t95.5 45.5q45 0 78 -26.5t64 -73.5q30 46 63.5 73t78.5 27q59 0 95.5 -45.5t36.5 -118.5t-36.5 -118.5t-95.5 -45.5q-45 0 -78.5 27t-63.5 73q-31 -47 -64 -73.5t-78 -26.5q-59 0 -95.5 45.5zM214.5 234.5
q21.5 22.5 47.5 65.5q-26 43 -47.5 65.5t-47.5 22.5q-30 0 -49.5 -25t-19.5 -63t19.5 -63t49.5 -25q26 0 47.5 22.5zM484.5 237q19.5 25 19.5 63t-19.5 63t-49.5 25q-27 0 -48.5 -22.5t-47.5 -65.5q26 -43 47.5 -65.5t48.5 -22.5q30 0 49.5 25z" />
    <glyph glyph-name="integral" unicode="&#x222b;" 
d="M27 -183l34 85q17 -12 38.5 -19t40.5 -7q37 0 54.5 24.5t17.5 77.5v571q0 65 24.5 110t67 68t94.5 23q66 0 118 -34l-34 -89q-39 29 -78 29q-41 0 -64.5 -25.5t-23.5 -75.5v-572q0 -97 -46 -149t-122 -52q-67 0 -121 35z" />
    <glyph glyph-name="approxequal" unicode="&#x2248;" 
d="M111 417q0 44 28 69.5t71 25.5q36 0 60.5 -10.5t53.5 -29.5q18 -13 30 -18.5t25 -5.5q12 0 20.5 7.5t8.5 19.5q0 13 -6 23l76 14q13 -19 13 -50q0 -44 -28 -68.5t-71 -24.5q-36 0 -60 10t-53 30q-18 13 -30 18.5t-26 5.5q-12 0 -20.5 -7.5t-8.5 -19.5t6 -23l-76 -15
q-13 20 -13 49zM111 233q0 44 28 69.5t71 25.5q36 0 60.5 -10.5t53.5 -29.5q18 -13 30 -18.5t25 -5.5q12 0 20.5 7.5t8.5 19.5q0 13 -6 23l76 14q13 -19 13 -50q0 -44 -28 -68.5t-71 -24.5q-36 0 -60 10t-53 30q-18 13 -30 18.5t-26 5.5q-12 0 -20.5 -7.5t-8.5 -19.5t6 -23
l-76 -15q-13 20 -13 49z" />
    <glyph glyph-name="notequal" unicode="&#x2260;" 
d="M115 110l57 97h-98v83h145l66 113h-211v84h259l82 139l72 -42l-57 -97h98v-84h-146l-65 -113h211v-83h-260l-81 -140z" />
    <glyph glyph-name="lessequal" unicode="&#x2264;" 
d="M74 84h454v-84h-454v84zM92 371v86l419 213v-102l-311 -154l311 -154v-103z" />
    <glyph glyph-name="greaterequal" unicode="&#x2265;" 
d="M74 84h454v-84h-454v84zM91 260l311 154l-311 154v102l419 -213v-86l-419 -214v103z" />
    <glyph glyph-name="lozenge" unicode="&#x25ca;" 
d="M35 350l212 350h108l212 -350l-212 -350h-108zM457 350l-156 260l-156 -260l156 -261z" />
    <glyph glyph-name="uniF8FF" unicode="&#xf8ff;" 
d="M11.5 6.5q-6.5 6.5 -6.5 15.5v595q0 7 4.5 13.5t11.5 8.5l270 78l10 2l10 -2l270 -78q7 -2 11.5 -8.5t4.5 -13.5v-595q0 -9 -6.5 -15.5t-15.5 -6.5l-7 1l-267 77l-267 -77l-7 -1q-9 0 -15.5 6.5zM279 669l-230 -67q4 -62 35 -114t82.5 -84.5t112.5 -37.5v303z
M435.5 403.5q51.5 32.5 82.5 84.5t35 114l-230 67v-303q61 5 112.5 37.5zM279 118v204q-73 6 -134 43.5t-97 97.5v-412zM554 463q-37 -60 -97.5 -97.5t-133.5 -43.5v-204l231 -67v412z" />
    <glyph glyph-name="fi" unicode="&#xfb01;" 
d="M106 411h-66v85h66v81q0 84 48 128.5t119 44.5q30 0 54.5 -6.5t49.5 -21.5l-37 -86q-28 20 -60 20q-31 0 -51 -20.5t-20 -58.5v-81h323v-496h-103v411h-220v-411h-103v411zM422 690h117v-115h-117v115z" />
    <glyph glyph-name="fl" unicode="&#xfb02;" 
d="M106 411h-66v85h66v81q0 84 48 128.5t119 44.5q61 0 104 -28l-37 -86q-28 20 -60 20q-31 0 -51 -20.5t-20 -58.5v-81h146v-85h-146v-411h-103v411zM429 700h103v-700h-103v700z" />
    <glyph glyph-name="i.loclTRK" 
d="M89 87h162v324h-138v85h242v-409h158v-87h-424v87zM245 690h117v-115h-117v115z" />
    <glyph glyph-name="ordfeminine.ss01" 
d="M192 314q-37 21 -60 62t-23 99t23 99t60 62t79 21q75 0 114 -53v46h82v-350h-82v53q-17 -27 -47.5 -43.5t-66.5 -16.5q-42 0 -79 21zM360.5 395.5q28.5 30.5 28.5 79.5q0 50 -28 80t-72 30t-72.5 -30t-28.5 -80t28.5 -80t72.5 -30q43 0 71.5 30.5z" />
    <glyph glyph-name="uni030C.alt" horiz-adv-x="0" 
d="M-355 507l47 90h-44v103h103v-103l-81 -103z" />
  </font>
</defs>
</svg>
