<?xml version="1.0" standalone="no"?>
<!DOCTYPE svg PUBLIC "-//W3C//DTD SVG 1.1//EN" "http://www.w3.org/Graphics/SVG/1.1/DTD/svg11.dtd" >
<svg xmlns="http://www.w3.org/2000/svg" xmlns:xlink="http://www.w3.org/1999/xlink" version="1.1">
<metadata>
Created by FontForge 20170731 at Thu Mar  5 18:53:56 2020
 By Aleksey,,,
Copyright (c) 2015 by Colophon Foundry. All rights reserved.
</metadata>
<defs>
<font id="BasisGrotesque-Italic" horiz-adv-x="0" >
  <font-face 
    font-family="Basis Grotesque"
    font-weight="400"
    font-style="italic"
    font-stretch="normal"
    units-per-em="1000"
    panose-1="2 11 5 3 3 6 4 4 1 3"
    ascent="800"
    descent="-200"
    x-height="496"
    cap-height="700"
    bbox="-664 -275 1171 934"
    underline-thickness="50"
    underline-position="-150"
    slope="-11"
    unicode-range="U+000D-FB02"
  />
<missing-glyph horiz-adv-x="586" 
d="M60 700h466v-700h-466v700zM464 664h-342l171 -280zM272 350l-176 288v-576zM490 638l-176 -288l176 -288v576zM464 36l-171 280l-171 -280h342z" />
    <glyph glyph-name="f_i" unicode="fi" horiz-adv-x="526" 
d="M133 433h-75l12 63h76l20 101q31 153 177 153q26 0 47 -7l-14 -71q-20 7 -40 7q-32 0 -56 -21.5t-32 -64.5l-19 -97h273l-97 -496h-82l84 433h-191l-83 -433h-83zM448 680h98l-20 -97h-97z" />
    <glyph glyph-name="f_l" unicode="fl" horiz-adv-x="525" 
d="M133 433h-75l12 63h76l20 101q31 153 177 153q26 0 47 -7l-14 -72q-20 7 -40 7q-32 0 -56 -21.5t-32 -63.5l-19 -97h113l-12 -63h-114l-83 -433h-83zM460 700h82l-137 -700h-82z" />
    <glyph glyph-name=".notdef" horiz-adv-x="586" 
d="M60 700h466v-700h-466v700zM464 664h-342l171 -280zM272 350l-176 288v-576zM490 638l-176 -288l176 -288v576zM464 36l-171 280l-171 -280h342z" />
    <glyph glyph-name=".null" 
 />
    <glyph glyph-name="nonmarkingreturn" unicode="&#xd;" horiz-adv-x="289" 
 />
    <glyph glyph-name="space" unicode=" " horiz-adv-x="276" 
 />
    <glyph glyph-name="exclam" unicode="!" horiz-adv-x="266" 
d="M136 477l44 223h84l-44 -223l-70 -293h-58zM56 102h98l-20 -102h-99z" />
    <glyph glyph-name="quotedbl" unicode="&#x22;" horiz-adv-x="337" 
d="M135 642l12 58h83l-12 -58l-43 -155h-57zM272 642l12 58h82l-11 -58l-43 -155h-57z" />
    <glyph glyph-name="numbersign" unicode="#" horiz-adv-x="661" 
d="M174 223h-104v59h115l25 136h-120v59h131l41 223h74l-41 -223h162l41 223h74l-41 -223h103v-59h-114l-25 -136h119v-59h-130l-41 -223h-74l41 223h-162l-41 -223h-74zM421 282l25 136h-162l-25 -136h162z" />
    <glyph glyph-name="dollar" unicode="$" horiz-adv-x="625" 
d="M231 -8q-83 16 -132.5 75.5t-57.5 136.5l76 38q5 -67 37.5 -113.5t91.5 -60.5l52 267q-166 47 -166 180q0 58 30.5 102t85 69t124.5 28l17 86h75l-19 -93q64 -14 107.5 -55.5t60.5 -106.5l-70 -40q-28 101 -112 127l-47 -240q170 -45 170 -173q0 -64 -30.5 -116t-87 -83
t-131.5 -34l-16 -86h-75zM358 641q-61 -3 -102 -34t-41 -83q0 -40 22.5 -67t76.5 -45zM427 107.5q42 38.5 42 96.5q0 43 -23.5 67.5t-76.5 42.5l-49 -250q65 5 107 43.5z" />
    <glyph glyph-name="percent" unicode="%" horiz-adv-x="882" 
d="M175 384q-35 20 -55 55.5t-20 79.5q0 53 25 98t69 71t100 26q73 0 113.5 -41.5t40.5 -111.5q0 -53 -25 -98t-69.5 -72t-100.5 -27q-43 0 -78 20zM154 41l565 660l45 -41l-565 -660zM346.5 463.5q34.5 37.5 34.5 90.5q0 45 -25 71.5t-68 26.5q-51 0 -86 -38t-35 -92
q0 -44 26.5 -70t67.5 -26q51 0 85.5 37.5zM544 6q-35 20 -55 55.5t-20 79.5q0 53 25 98t69 71t100 26q73 0 113.5 -41.5t40.5 -111.5q0 -53 -25 -98t-69.5 -72t-100.5 -27q-43 0 -78 20zM715.5 85.5q34.5 37.5 34.5 90.5q0 45 -25 71.5t-68 26.5q-51 0 -86 -38t-35 -92
q0 -44 26.5 -70t67.5 -26q51 0 85.5 37.5z" />
    <glyph glyph-name="ampersand" unicode="&#x26;" horiz-adv-x="648" 
d="M147 12.5q-46 26.5 -71 72.5t-25 101q0 150 169 227q-26 55 -26 116q0 49 21 91t61 68t96 26q64 0 104.5 -34.5t40.5 -96.5q0 -67 -46.5 -114t-143.5 -85l129 -209q41 63 69 156l60 -37q-37 -115 -89 -185l68 -109h-95l-30 50q-78 -64 -186 -64q-60 0 -106 26.5z
M407.5 499.5q34.5 29.5 34.5 76.5q0 31 -20.5 52t-53.5 21q-45 0 -71.5 -34.5t-26.5 -79.5q0 -51 22 -94q81 29 115.5 58.5zM401 112l-148 243q-62 -26 -91 -68t-29 -94q0 -62 37.5 -99.5t94.5 -37.5q78 0 136 56z" />
    <glyph glyph-name="quotesingle" unicode="'" horiz-adv-x="200" 
d="M135 642l12 58h83l-12 -58l-43 -155h-57z" />
    <glyph glyph-name="parenleft" unicode="(" horiz-adv-x="337" 
d="M76 -21.5q-12 73.5 -12 154.5q0 159 59 310t149 257h73q-84 -116 -142 -267.5t-58 -306.5q0 -83 8.5 -144t25.5 -130h-73q-18 53 -30 126.5z" />
    <glyph glyph-name="parenright" unicode=")" horiz-adv-x="337" 
d="M144 118.5q58 151.5 58 307.5q0 84 -8 145.5t-25 128.5h73q18 -52 29.5 -126t11.5 -155q0 -159 -58.5 -309.5t-148.5 -257.5h-74q84 115 142 266.5z" />
    <glyph glyph-name="asterisk" unicode="*" horiz-adv-x="409" 
d="M230 506l-92 -65l-37 66l111 41l-89 38l43 73l80 -69l6 110h80l-38 -110l101 67l29 -70l-112 -39l91 -40l-45 -72l-80 70l-5 -110h-79z" />
    <glyph glyph-name="plus" unicode="+" horiz-adv-x="514" 
d="M239 333h-177l12 64h178l35 179h67l-36 -179h179l-12 -64h-179l-35 -179h-67z" />
    <glyph glyph-name="comma" unicode="," horiz-adv-x="189" 
d="M-21 -115l56 115h-38l20 99h98l-20 -99l-99 -127z" />
    <glyph glyph-name="hyphen" unicode="-" horiz-adv-x="454" 
d="M64 343h363l-13 -64h-362z" />
    <glyph glyph-name="period" unicode="." horiz-adv-x="189" 
d="M16 99h98l-19 -99h-98z" />
    <glyph glyph-name="slash" unicode="/" horiz-adv-x="496" 
d="M496 730h89l-546 -760h-88z" />
    <glyph glyph-name="zero" unicode="0" horiz-adv-x="716" 
d="M195.5 23.5q-61.5 37.5 -96 105.5t-34.5 157q0 109 43 207.5t123.5 159.5t186.5 61q84 0 145 -35.5t94 -102.5t33 -160q0 -114 -41.5 -212.5t-122 -158t-191.5 -59.5q-78 0 -139.5 37.5zM482 108q60 47 91.5 126t31.5 171q0 109 -51.5 171.5t-140.5 62.5
q-78 0 -138.5 -51t-93 -132.5t-32.5 -167.5q0 -70 24.5 -121.5t68.5 -78.5t100 -27q80 0 140 47z" />
    <glyph glyph-name="one" unicode="1" horiz-adv-x="361" 
d="M265 590q-30 -30 -65 -41.5t-92 -11.5l14 75q112 0 172 88h76l-137 -700h-83z" />
    <glyph glyph-name="two" unicode="2" horiz-adv-x="583" 
d="M24 59l320 265q60 49 88.5 95.5t28.5 98.5q0 57 -35 90t-94 33q-63 0 -103.5 -40.5t-40.5 -101.5q0 -26 5 -38l-82 -14q-8 18 -8 53q0 62 29.5 110.5t83 76t124.5 27.5q93 0 149.5 -51t56.5 -141q0 -63 -35.5 -124t-111.5 -124l-231 -193h311l-16 -81h-450z" />
    <glyph glyph-name="three" unicode="3" horiz-adv-x="584" 
d="M157.5 11.5q-49.5 25.5 -76 68.5t-26.5 94q0 42 16 69l75 -18q-8 -21 -8 -47q0 -52 37 -86t101 -34q45 0 82 20t57.5 55.5t20.5 80.5q0 65 -47 95.5t-126 30.5l14 70q81 1 131.5 35t50.5 99q0 43 -33 71t-88 28q-56 0 -94 -35t-38 -89q0 -10 1 -18l-81 -13q-2 14 -2 27
q0 55 27.5 100.5t78 72t117.5 26.5q91 0 142.5 -46t51.5 -118q0 -57 -36 -103.5t-99 -66.5q50 -19 82.5 -58.5t32.5 -100.5q0 -67 -29.5 -120.5t-85.5 -84t-133 -30.5q-66 0 -115.5 25.5z" />
    <glyph glyph-name="four" unicode="4" horiz-adv-x="580" 
d="M355 139h-330l14 75l423 486h87l-95 -486h77l-15 -75h-77l-27 -139h-84zM370 214l68 351l-306 -351h238z" />
    <glyph glyph-name="five" unicode="5" horiz-adv-x="592" 
d="M154 9.5q-49 23.5 -76.5 65t-27.5 92.5q0 36 13 65l76 -18q-6 -18 -6 -42q0 -51 37.5 -82.5t100.5 -31.5q83 0 133.5 56t50.5 151q0 69 -40 106t-102 37q-55 0 -100.5 -31t-70.5 -75l-72 19l108 379h403l-15 -75h-336l-70 -231q34 39 82 61.5t97 22.5q92 0 146 -55.5
t54 -152.5q0 -81 -34 -145.5t-96.5 -101.5t-144.5 -37q-61 0 -110 23.5z" />
    <glyph glyph-name="six" unicode="6" horiz-adv-x="608" 
d="M174 19q-53 33 -83 95.5t-30 147.5q0 101 39 206t115 175.5t182 70.5q53 0 95 -19t66 -53.5t24 -78.5q0 -33 -15 -68l-73 17q9 23 9 46q0 40 -31 63.5t-83 23.5q-55 0 -104 -35.5t-83.5 -101.5t-47.5 -152q25 44 79.5 73t110.5 29q59 0 107.5 -26t76.5 -72.5t28 -105.5
q0 -77 -34 -138t-93 -95.5t-132 -34.5q-70 0 -123 33zM389 80.5q39 23.5 61.5 65t22.5 93.5q0 65 -43 106.5t-108 41.5q-48 0 -87.5 -24.5t-61.5 -65.5t-22 -89q0 -39 18.5 -73.5t53 -56t80.5 -21.5q47 0 86 23.5z" />
    <glyph glyph-name="seven" unicode="7" horiz-adv-x="536" 
d="M476 625h-362l15 75h453l-14 -69l-403 -631h-91z" />
    <glyph glyph-name="eight" unicode="8" horiz-adv-x="576" 
d="M149 10.5q-49 24.5 -77.5 68.5t-28.5 101q0 70 42.5 124.5t111.5 79.5q-31 20 -52.5 55.5t-21.5 79.5q0 52 28 96.5t78.5 71.5t115.5 27q61 0 106.5 -21.5t69.5 -59t24 -83.5q0 -65 -35.5 -112t-93.5 -70q42 -22 69 -60.5t27 -90.5q0 -72 -33.5 -124t-91.5 -79.5
t-128 -27.5q-61 0 -110 24.5zM423 441q41 36 41 98q0 51 -34.5 80t-87.5 29q-39 0 -71 -17.5t-50.5 -47.5t-18.5 -66q0 -52 33 -82t83 -30q64 0 105 36zM347 75.5q37 18.5 59.5 53.5t22.5 83q0 57 -39 91t-100 34q-73 0 -117.5 -43.5t-44.5 -112.5q0 -54 40 -89t99 -35
q43 0 80 18.5z" />
    <glyph glyph-name="nine" unicode="9" horiz-adv-x="614" 
d="M132 28q-54 42 -54 110q0 34 13 66l75 -18q-7 -21 -7 -40q0 -41 30.5 -65.5t80.5 -24.5q88 0 149 76t84 215q-30 -48 -80 -76.5t-107 -28.5q-62 0 -113 27t-80 76t-29 113q0 75 34 133t93.5 90.5t131.5 32.5q114 0 176.5 -71t62.5 -198q0 -107 -34.5 -212.5t-107 -176
t-180.5 -70.5q-84 0 -138 42zM417 337.5q39 24.5 61 65.5t22 89q0 65 -40 108t-107 43q-50 0 -90 -23.5t-63 -64.5t-23 -90q0 -73 43.5 -112.5t107.5 -39.5q50 0 89 24.5z" />
    <glyph glyph-name="colon" unicode=":" horiz-adv-x="189" 
d="M90 476h98l-19 -99h-98zM18 99h98l-20 -99h-98z" />
    <glyph glyph-name="semicolon" unicode=";" horiz-adv-x="189" 
d="M90 476h98l-19 -99h-98zM-20 -115l56 115h-38l19 99h98l-19 -99l-99 -127z" />
    <glyph glyph-name="less" unicode="&#x3c;" horiz-adv-x="508" 
d="M50 271l15 78l446 201l-16 -87l-355 -157l293 -156l-16 -80z" />
    <glyph glyph-name="equal" unicode="=" horiz-adv-x="514" 
d="M90 477h422l-12 -64h-422zM53 284h422l-12 -65h-422z" />
    <glyph glyph-name="greater" unicode="&#x3e;" horiz-adv-x="508" 
d="M37 157l355 157l-293 157l16 79l367 -201l-15 -77l-446 -202z" />
    <glyph glyph-name="question" unicode="?" horiz-adv-x="534" 
d="M205 200q9 57 33.5 90t88.5 79q59 42 89.5 78.5t30.5 86.5t-32.5 79.5t-86.5 29.5q-63 0 -103 -40.5t-40 -99.5q0 -16 3 -31l-79 -15q-5 19 -5 44q0 60 28 108.5t80 76.5t121 28q90 0 144 -47t54 -122q0 -65 -37.5 -116.5t-116.5 -106.5q-45 -31 -64 -58t-28 -78h-83z
M178 102h99l-20 -102h-99z" />
    <glyph glyph-name="at" unicode="@" horiz-adv-x="943" 
d="M238.5 -109q-82.5 43 -132.5 127t-50 202q0 132 60.5 245t170.5 181t253 68q110 0 192.5 -41.5t127.5 -117.5t45 -175q0 -93 -33 -174t-91.5 -130t-133.5 -49q-38 0 -59.5 22.5t-21.5 60.5q0 8 2 24q-25 -49 -71.5 -78t-101.5 -29q-71 0 -115.5 54.5t-44.5 152.5
q0 76 32.5 146.5t92.5 115t138 44.5q41 0 75.5 -22t46.5 -60l13 66h74l-76 -376q-2 -14 -2 -20q0 -38 37 -38q48 0 85.5 41t58 107t20.5 137q0 78 -33.5 139.5t-100.5 97t-165 35.5q-112 0 -203.5 -58t-144 -155t-52.5 -209q0 -95 38 -165.5t104 -108.5t149 -38
q56 0 105.5 14.5t98.5 41.5l27 -57q-105 -64 -235 -64q-97 0 -179.5 43zM508.5 128.5q42.5 38.5 66.5 97.5t24 117q0 64 -28 98t-76 34q-54 0 -96.5 -36t-66 -92t-23.5 -113q0 -66 28.5 -105t74.5 -39q54 0 96.5 38.5z" />
    <glyph glyph-name="A" unicode="A" horiz-adv-x="659" 
d="M373 700h89l142 -700h-86l-40 206h-306l-120 -206h-94zM464 278l-53 276q-1 4 -9 53q-13 -27 -28 -53l-161 -276h251z" />
    <glyph glyph-name="B" unicode="B" horiz-adv-x="639" 
d="M175 700h248q91 0 143 -42t52 -111q0 -62 -40.5 -109t-105.5 -64q45 -18 77 -55.5t32 -95.5q0 -68 -37 -118.5t-100.5 -77.5t-140.5 -27h-265zM369 408q68 0 115 33t47 92q0 94 -124 94h-163l-42 -219h167zM298 74q91 0 144.5 38t53.5 112q0 58 -39 84.5t-107 26.5h-162
l-51 -261h161z" />
    <glyph glyph-name="C" unicode="C" horiz-adv-x="742" 
d="M202 25q-66 39 -101.5 109.5t-35.5 162.5q0 109 50.5 205t142.5 154t211 58q101 0 168.5 -49t97.5 -132l-70 -43q-30 77 -83 113t-128 36q-86 0 -156 -48t-109 -126t-39 -163q0 -70 27 -125t76 -85.5t113 -30.5q74 0 136 40.5t107 114.5l64 -45q-58 -93 -135 -139
t-181 -46q-89 0 -155 39z" />
    <glyph glyph-name="D" unicode="D" horiz-adv-x="686" 
d="M175 700h190q88 0 154.5 -33t103.5 -98t37 -159q0 -118 -50.5 -211t-146.5 -146t-226 -53h-199zM244 75q104 0 178.5 43t113.5 118t39 170q0 111 -61.5 165t-168.5 54h-101l-107 -550h107z" />
    <glyph glyph-name="E" unicode="E" horiz-adv-x="587" 
d="M175 700h433l-15 -74h-349l-44 -227h321l-14 -74h-321l-49 -251h352l-15 -74h-436z" />
    <glyph glyph-name="F" unicode="F" horiz-adv-x="591" 
d="M175 700h447l-15 -74h-363l-48 -247h333l-14 -74h-333l-60 -305h-84z" />
    <glyph glyph-name="G" unicode="G" horiz-adv-x="760" 
d="M196 25q-63 39 -97.5 107t-34.5 154q0 119 51.5 217t144 154.5t210.5 56.5q102 0 170 -45.5t99 -125.5l-68 -44q-27 71 -81.5 106.5t-131.5 35.5q-87 0 -157.5 -47t-110.5 -127t-40 -175q0 -64 26 -117t73 -83.5t107 -30.5q63 0 117.5 32.5t91.5 83t52 103.5h-248l14 71
h332l-69 -351h-56l-3 113q-46 -64 -105.5 -95.5t-141.5 -31.5q-81 0 -144 39z" />
    <glyph glyph-name="H" unicode="H" horiz-adv-x="689" 
d="M175 700h84l-60 -305h348l60 305h84l-137 -700h-84l63 319h-348l-63 -319h-84z" />
    <glyph glyph-name="I" unicode="I" horiz-adv-x="257" 
d="M175 700h84l-137 -700h-84z" />
    <glyph glyph-name="J" unicode="J" horiz-adv-x="532" 
d="M124 7q-41 21 -65 58.5t-24 84.5q0 30 5 52l83 -9q-4 -17 -4 -35q0 -42 32 -69.5t78 -27.5q57 0 95.5 35t51.5 103l97 501h84l-97 -499q-21 -110 -81.5 -162.5t-163.5 -52.5q-50 0 -91 21z" />
    <glyph glyph-name="K" unicode="K" horiz-adv-x="618" 
d="M175 700h84l-60 -313q11 9 19 16.5t13 12.5q48 43 46 41l278 243h110l-292 -259l176 -441h-95l-151 382l-128 -112l-53 -270h-84z" />
    <glyph glyph-name="L" unicode="L" horiz-adv-x="568" 
d="M175 700h84l-122 -625h352l-16 -75h-435z" />
    <glyph glyph-name="M" unicode="M" horiz-adv-x="856" 
d="M175 700h89l130 -615l368 615h96l-137 -700h-82l104 533q-9 -17 -56 -95l-262 -438h-89l-94 436q-15 86 -17 103l-106 -539h-81z" />
    <glyph glyph-name="N" unicode="N" horiz-adv-x="705" 
d="M175 700h85l233 -526q15 -37 19 -55l114 581h81l-137 -700h-86l-232 526q-16 39 -20 55l-113 -581h-81z" />
    <glyph glyph-name="O" unicode="O" horiz-adv-x="784" 
d="M214 24.5q-69 38.5 -108.5 109.5t-39.5 164q0 106 47.5 202t136 155t204.5 59q93 0 161.5 -37.5t105.5 -107.5t37 -167q0 -109 -46 -204t-133.5 -153.5t-207.5 -58.5q-88 0 -157 38.5zM531.5 107.5q67.5 46.5 104 123.5t36.5 165q0 118 -61.5 180.5t-168.5 62.5
q-83 0 -149.5 -48t-104 -125.5t-37.5 -162.5q0 -74 30 -129t81.5 -84t114.5 -29q87 0 154.5 46.5z" />
    <glyph glyph-name="P" unicode="P" horiz-adv-x="674" 
d="M175 700h269q108 0 166 -51.5t58 -145.5q0 -75 -36 -129.5t-101 -83.5t-150 -29h-208l-51 -261h-84zM388 335q92 0 143.5 44t51.5 121q0 62 -37.5 94t-109.5 32h-192l-56 -291h200z" />
    <glyph glyph-name="Q" unicode="Q" horiz-adv-x="784" 
d="M397 -13l-26 -1q-88 0 -157 38.5t-108.5 109.5t-39.5 164q0 106 47.5 202t136 155t204.5 59q93 0 161.5 -37.5t105.5 -107.5t37 -167q0 -90 -32 -172.5t-94 -143t-148 -84.5q20 -43 62 -92l-70 -55q-50 59 -79 132zM531.5 107.5q67.5 46.5 104 123.5t36.5 165
q0 118 -61.5 180.5t-168.5 62.5q-83 0 -149.5 -48t-104 -125.5t-37.5 -162.5q0 -74 30 -129t81.5 -84t114.5 -29q87 0 154.5 46.5z" />
    <glyph glyph-name="R" unicode="R" horiz-adv-x="635" 
d="M175 700h262q98 0 153 -46.5t55 -128.5q0 -86 -60 -144.5t-152 -72.5l113 -308h-89l-113 303h-162l-60 -303h-84zM379 376q77 0 128.5 36.5t51.5 102.5q0 112 -131 112h-183l-49 -251h183z" />
    <glyph glyph-name="S" unicode="S" horiz-adv-x="629" 
d="M163.5 15.5q-54.5 29.5 -85 79t-37.5 109.5l79 40q7 -82 53 -133.5t127 -51.5q46 0 86 17.5t64 50.5t24 77q0 53 -37 79.5t-123 48.5q-89 22 -139 67t-50 116q0 60 32 105t89.5 69.5t131.5 24.5q88 0 146.5 -43.5t81.5 -124.5l-68 -42q-37 137 -171 137q-65 0 -112 -31
t-47 -86q0 -49 39.5 -79t124.5 -49q90 -21 138 -63.5t48 -113.5q0 -69 -33 -122t-93 -82t-138 -29q-76 0 -130.5 29.5z" />
    <glyph glyph-name="T" unicode="T" horiz-adv-x="553" 
d="M307 625h-214l15 75h513l-15 -75h-215l-121 -625h-84z" />
    <glyph glyph-name="U" unicode="U" horiz-adv-x="668" 
d="M174 10.5q-49 24.5 -77 72t-28 111.5q0 37 7 73l84 433h84l-88 -451q-4 -23 -4 -48q0 -63 39 -101.5t107 -38.5q85 0 140 47t72 131l89 461h84l-90 -466q-24 -126 -103 -187t-205 -61q-62 0 -111 24.5z" />
    <glyph glyph-name="V" unicode="V" horiz-adv-x="617" 
d="M93 700h87l86 -529q4 -29 10 -77q10 22 16 33q18 38 22 46l292 527h93l-393 -700h-93z" />
    <glyph glyph-name="W" unicode="W" horiz-adv-x="898" 
d="M95 700h84l36 -521l4 -74q7 21 19 46.5t13 28.5l238 520h96l34 -518l1 -77q6 18 23 53q9 21 10 23l239 519h87l-330 -700h-93l-40 593l-270 -593h-93z" />
    <glyph glyph-name="X" unicode="X" horiz-adv-x="574" 
d="M268 386l-140 314h92l107 -251l198 251h101l-266 -324l159 -376h-91l-126 308l-241 -308h-102z" />
    <glyph glyph-name="Y" unicode="Y" horiz-adv-x="551" 
d="M241 286l-150 414h93l97 -292q3 -11 13 -50q17 29 31 46l215 296h96l-311 -414l-56 -286h-84z" />
    <glyph glyph-name="Z" unicode="Z" horiz-adv-x="593" 
d="M7 75l496 548h-378l16 77h480l-15 -77l-490 -546h401l-16 -77h-509z" />
    <glyph glyph-name="bracketleft" unicode="[" horiz-adv-x="328" 
d="M174 700h191l-14 -73h-111l-136 -704h110l-14 -73h-191z" />
    <glyph glyph-name="backslash" unicode="\" horiz-adv-x="494" 
d="M99 730h82l253 -760h-81z" />
    <glyph glyph-name="bracketright" unicode="]" horiz-adv-x="327" 
d="M-11 -77h109l136 704h-110l14 73h191l-165 -850h-190z" />
    <glyph glyph-name="asciicircum" unicode="^" horiz-adv-x="441" 
d="M267 700h80l115 -252h-75l-88 192l-160 -192h-82z" />
    <glyph glyph-name="underscore" unicode="_" horiz-adv-x="453" 
d="M-42 -7h437l-13 -65h-436z" />
    <glyph glyph-name="grave" unicode="`" horiz-adv-x="292" 
d="M132 703h105l40 -145h-67z" />
    <glyph glyph-name="a" unicode="a" horiz-adv-x="602" 
d="M136 16q-47 30 -72.5 82t-25.5 117q0 82 35 149.5t97.5 106.5t143.5 39q59 0 101.5 -25.5t62.5 -72.5l17 84h83l-97 -496h-83l15 74q-61 -88 -167 -88q-63 0 -110 30zM364.5 89.5q43.5 30.5 68 82.5t24.5 114q0 70 -38 110.5t-103 40.5q-56 0 -100.5 -29t-69 -79
t-24.5 -110q0 -71 39.5 -115.5t105.5 -44.5q54 0 97.5 30.5z" />
    <glyph glyph-name="b" unicode="b" horiz-adv-x="607" 
d="M184 13.5q-43 27.5 -63 70.5l-16 -84h-83l136 700h83l-54 -275q31 40 77.5 62.5t100.5 22.5q57 0 104 -26t74 -76.5t27 -120.5q0 -82 -36 -150.5t-101.5 -109.5t-148.5 -41q-57 0 -100 27.5zM388.5 90q44.5 31 70 83t25.5 112q0 72 -39 112t-106 40q-56 0 -101.5 -32
t-70.5 -84t-25 -109q0 -70 41.5 -111.5t105.5 -41.5q55 0 99.5 31z" />
    <glyph glyph-name="c" unicode="c" horiz-adv-x="558" 
d="M148 14.5q-51 28.5 -80 81.5t-29 123q0 74 34 141t100 108.5t157 41.5q74 0 127 -36t77 -100l-67 -38q-41 100 -148 100q-57 0 -101.5 -30t-69 -79t-24.5 -104q0 -77 41.5 -120t104.5 -43q59 0 100 28t76 84l59 -42q-42 -74 -101 -109t-140 -35q-65 0 -116 28.5z" />
    <glyph glyph-name="d" unicode="d" horiz-adv-x="608" 
d="M145 14.5q-49 28.5 -77 81.5t-28 122q0 84 34.5 150.5t96.5 104t142 37.5q60 0 105.5 -26.5t67.5 -71.5l56 288h83l-136 -700h-83l14 74q-24 -40 -68.5 -64t-95.5 -24q-62 0 -111 28.5zM370 89.5q45 30.5 70.5 82t25.5 111.5q0 70 -43.5 112t-109.5 42q-54 0 -96.5 -28
t-67 -77t-24.5 -109q0 -78 40.5 -121t105.5 -43q54 0 99 30.5z" />
    <glyph glyph-name="e" unicode="e" horiz-adv-x="576" 
d="M149.5 13q-50.5 27 -80.5 80.5t-30 131.5t37 143t102.5 103.5t146.5 38.5q68 0 116.5 -26t74 -71t25.5 -102q0 -26 -5 -54l-4 -22h-413q-2 -7 -2 -22q0 -44 19.5 -80t54 -57t79.5 -21q60 0 101 29t74 87l59 -38q-42 -75 -100.5 -111t-140.5 -36q-63 0 -113.5 27zM464 299
l1 20q0 56 -40 91t-104 35q-65 0 -117 -40t-69 -106h329z" />
    <glyph glyph-name="f" unicode="f" horiz-adv-x="316" 
d="M133 433h-75l12 63h76l20 101q31 153 177 153q26 0 47 -7l-14 -72q-20 7 -40 7q-32 0 -56 -21.5t-32 -63.5l-19 -97h113l-12 -63h-114l-83 -433h-83z" />
    <glyph glyph-name="g" unicode="g" horiz-adv-x="586" 
d="M108.5 -199.5q-43.5 18.5 -66 50t-22.5 69.5q0 36 19 66l73 -23q-10 -17 -10 -39q0 -34 33.5 -54.5t87.5 -20.5q141 0 175 178l11 59q-50 -78 -160 -78q-56 0 -103 25t-75.5 74.5t-28.5 119.5q0 75 32 140t93 104t144 39q57 0 102 -24t63 -61l14 71h83l-92 -472
q-24 -124 -89.5 -183t-180.5 -59q-59 0 -102.5 18.5zM366 108.5q42 30.5 65 80t23 103.5q0 67 -40.5 107.5t-104.5 40.5q-54 0 -96 -29.5t-65 -78t-23 -102.5q0 -72 40.5 -112t103.5 -40q55 0 97 30.5z" />
    <glyph glyph-name="h" unicode="h" horiz-adv-x="572" 
d="M159 700h82l-55 -280q32 41 80 65.5t102 24.5q70 0 110.5 -35.5t40.5 -102.5q0 -23 -6 -51l-63 -321h-82l61 311q3 17 3 32q0 45 -25 69.5t-72 24.5q-39 0 -76.5 -21t-65 -60t-37.5 -90l-52 -266h-82z" />
    <glyph glyph-name="i" unicode="i" horiz-adv-x="225" 
d="M119 496h83l-97 -496h-83zM148 680h97l-19 -97h-97z" />
    <glyph glyph-name="j" unicode="j" horiz-adv-x="225" 
d="M-117 -202l21 72q18 -8 37 -8q55 0 68 70l110 564h82l-110 -573q-25 -134 -151 -134q-35 0 -57 9zM149 680h97l-19 -97h-97z" />
    <glyph glyph-name="k" unicode="k" horiz-adv-x="499" 
d="M159 700h82l-74 -381l209 177h109l-202 -171l142 -325h-88l-118 272l-74 -64l-41 -208h-82z" />
    <glyph glyph-name="l" unicode="l" horiz-adv-x="224" 
d="M159 700h82l-137 -700h-82z" />
    <glyph glyph-name="m" unicode="m" horiz-adv-x="813" 
d="M120 496h83l-13 -70q25 38 66 61t90 23q44 0 75.5 -22t43.5 -62q31 40 73 62t91 22q62 0 98.5 -32.5t36.5 -88.5q0 -15 -5 -42l-67 -347h-83l66 336q4 26 4 35q0 33 -21.5 51t-61.5 18q-48 0 -89 -44.5t-57 -129.5l-52 -266h-83l66 336q3 18 3 28q0 35 -21 55.5t-57 20.5
q-48 0 -89.5 -46t-57.5 -127l-52 -267h-83z" />
    <glyph glyph-name="n" unicode="n" horiz-adv-x="570" 
d="M120 496h83l-14 -74q65 88 176 88q69 0 110 -36t41 -103q0 -22 -4 -45l-63 -326h-82l61 316q4 22 4 36q0 40 -27 62.5t-73 22.5q-39 0 -75 -21.5t-62 -59.5t-35 -85l-53 -271h-83z" />
    <glyph glyph-name="o" unicode="o" horiz-adv-x="599" 
d="M155.5 12.5q-53.5 26.5 -86 77.5t-32.5 122q0 83 37 151t103.5 107.5t152.5 39.5q64 0 116.5 -25.5t83.5 -75.5t31 -122q0 -86 -37 -154.5t-103.5 -107.5t-149.5 -39q-62 0 -115.5 26.5zM378 87.5q45 28.5 72 78.5t27 111q0 74 -43.5 117t-115.5 43q-57 0 -102 -31.5
t-70 -82t-25 -104.5q0 -73 44.5 -116.5t114.5 -43.5q53 0 98 28.5z" />
    <glyph glyph-name="p" unicode="p" horiz-adv-x="604" 
d="M120 496h83l-14 -70q24 36 71 60t102 24q59 0 105.5 -26.5t73 -77.5t26.5 -122q0 -77 -35 -145.5t-99.5 -110.5t-147.5 -42q-57 0 -101 26.5t-63 64.5l-54 -281h-83zM389.5 89.5q43.5 30.5 68.5 81t25 109.5q0 75 -40 116t-107 41q-51 0 -95.5 -30t-71 -82t-26.5 -114
q0 -69 41.5 -110.5t107.5 -41.5q54 0 97.5 30.5z" />
    <glyph glyph-name="q" unicode="q" horiz-adv-x="609" 
d="M418 64q-27 -36 -70.5 -57t-96.5 -21q-59 0 -107.5 27t-77 79t-28.5 124q0 82 36 149t100 106t145 39q59 0 103.5 -26.5t63.5 -70.5l16 83h83l-136 -700h-83zM365.5 87.5q45.5 28.5 72 79t26.5 111.5q0 75 -40.5 117t-107.5 42q-53 0 -97.5 -28.5t-71 -78t-26.5 -110.5
q0 -76 40 -118.5t105 -42.5q54 0 99.5 28.5z" />
    <glyph glyph-name="r" unicode="r" horiz-adv-x="348" 
d="M120 496h83l-15 -77q27 46 64.5 68.5t89.5 22.5q18 0 35 -5l-24 -74q-17 6 -42 6q-53 0 -95 -48.5t-58 -128.5l-51 -260h-83z" />
    <glyph glyph-name="s" unicode="s" horiz-adv-x="485" 
d="M90.5 28q-51.5 42 -64.5 104l69 39q8 -51 41 -83.5t87 -32.5q52 0 82.5 25t30.5 66q0 35 -24 52.5t-85 33.5q-140 35 -140 136q0 63 50 102.5t130 39.5q71 0 114.5 -32t60.5 -88l-62 -33q-28 89 -117 89q-38 0 -69 -19t-31 -53q0 -31 26.5 -51t86.5 -34
q70 -16 104.5 -49.5t34.5 -87.5q0 -75 -54.5 -120.5t-143.5 -45.5q-75 0 -126.5 42z" />
    <glyph glyph-name="t" unicode="t" horiz-adv-x="344" 
d="M114.5 13q-29.5 27 -29.5 77q0 26 4 43l57 300h-83l13 63h83l26 134h83l-26 -134h114l-12 -63h-115l-57 -298q-3 -16 -3 -28q0 -24 14.5 -37t38.5 -13q20 0 40 6l-5 -67q-29 -10 -66 -10q-47 0 -76.5 27z" />
    <glyph glyph-name="u" unicode="u" horiz-adv-x="570" 
d="M98.5 27q-43.5 41 -43.5 108q0 16 5 48l61 313h82l-59 -303q-4 -25 -4 -42q0 -43 27.5 -67.5t75.5 -24.5q37 0 72 22t61 63t37 96l50 256h83l-96 -496h-83l14 74q-26 -41 -70 -64.5t-96 -23.5q-73 0 -116.5 41z" />
    <glyph glyph-name="v" unicode="v" horiz-adv-x="494" 
d="M58 496h86l74 -394l224 394h90l-291 -496h-81z" />
    <glyph glyph-name="w" unicode="w" horiz-adv-x="689" 
d="M59 496h80l24 -395l180 395h92l32 -395l175 395h83l-229 -496h-90l-34 400l-182 -400h-89z" />
    <glyph glyph-name="x" unicode="x" horiz-adv-x="427" 
d="M176 275l-102 221h88l68 -162l127 162h96l-189 -228l114 -268h-85l-83 204l-158 -204h-99z" />
    <glyph glyph-name="y" unicode="y" horiz-adv-x="500" 
d="M-27 -201l26 74q18 -9 39 -9q23 0 39 11t32 40l51 90l-105 491h85l81 -388l226 388h93l-363 -607q-35 -58 -66 -79t-83 -21q-34 0 -55 10z" />
    <glyph glyph-name="z" unicode="z" horiz-adv-x="481" 
d="M6 67l360 362h-278l13 67h374l-14 -67l-358 -362h303l-13 -67h-399z" />
    <glyph glyph-name="braceleft" unicode="{" horiz-adv-x="372" 
d="M114 -120.5q-34 29.5 -34 87.5q0 17 7 56l26 135q3 17 3 31q0 26 -15.5 38.5t-47.5 12.5l14 70q41 0 62 19t29 60l32 163q16 80 58.5 114t122.5 34h38l-15 -73h-32q-36 0 -60.5 -20t-31.5 -59l-32 -163q-10 -48 -28.5 -72t-57.5 -38q23 -10 34.5 -28t11.5 -48
q0 -16 -5 -46l-26 -136q-4 -16 -4 -34q0 -31 15.5 -45.5t47.5 -14.5h32l-14 -73h-40q-56 0 -90 29.5z" />
    <glyph glyph-name="bar" unicode="|" horiz-adv-x="247" 
d="M178 740h81l-165 -850h-81z" />
    <glyph glyph-name="braceright" unicode="}" horiz-adv-x="372" 
d="M-12 -77h32q36 0 60.5 20t31.5 59l32 163q10 48 28.5 72t57.5 38q-23 10 -34.5 28t-11.5 48q0 16 5 46l26 136q4 16 4 34q0 31 -15.5 45.5t-47.5 14.5h-32l14 73h40q56 0 90 -29.5t34 -87.5q0 -17 -7 -56l-26 -135q-3 -16 -3 -31q0 -26 15.5 -38.5t47.5 -12.5l-14 -70
q-41 0 -62 -19t-29 -60l-32 -163q-16 -80 -58.5 -114t-122.5 -34h-38z" />
    <glyph glyph-name="asciitilde" unicode="~" horiz-adv-x="445" 
d="M57 299q0 42 27.5 70.5t79.5 28.5q33 0 54 -10t45 -29q16 -13 27.5 -19.5t25.5 -6.5q16 0 25 10t9 28q0 6 -2 14l67 13q5 -15 5 -33q0 -46 -28 -71.5t-78 -25.5q-33 0 -54.5 10.5t-45.5 30.5q-15 12 -25.5 18t-22.5 6q-18 0 -28.5 -11t-10.5 -30q0 -6 2 -14l-67 -11
q-5 18 -5 32z" />
    <glyph glyph-name="uni00A0" unicode="&#xa0;" horiz-adv-x="276" 
 />
    <glyph glyph-name="exclamdown" unicode="&#xa1;" horiz-adv-x="266" 
d="M132 496h98l-20 -102h-99zM46 19l69 293h59l-44 -293l-44 -223h-84z" />
    <glyph glyph-name="cent" unicode="&#xa2;" horiz-adv-x="558" 
d="M203 -6q-75 17 -119.5 77.5t-44.5 147.5q0 70 30.5 134t90.5 106t143 49l22 112h73l-22 -114q57 -10 97.5 -44t60.5 -88l-67 -38q-32 78 -106 95l-71 -370q51 4 88 32t68 79l59 -42q-41 -72 -97.5 -107t-132.5 -37l-18 -96h-73zM288 432q-49 -7 -86 -37.5t-57.5 -75.5
t-20.5 -96q0 -60 25.5 -99.5t68.5 -53.5z" />
    <glyph glyph-name="sterling" unicode="&#xa3;" horiz-adv-x="556" 
d="M33 62q51 56 77 111t27 131l-1 12h-91l12 64h73q-4 44 -4 79q0 71 29 129t86 92t138 34q85 0 138 -43.5t53 -113.5q0 -45 -22 -87l-75 15q14 33 14 62q0 43 -30 70t-87 27q-74 0 -118 -52t-44 -136q0 -30 4 -76h197l-13 -64h-178q1 -6 1 -26q-1 -53 -25.5 -111.5
t-65.5 -105.5h348l-14 -73h-440z" />
    <glyph glyph-name="currency" unicode="&#xa4;" horiz-adv-x="631" 
d="M86 153l67 67q-40 56 -40 130t40 130l-67 67l53 52l67 -66q60 40 129 40q70 0 130 -40l67 66l53 -52l-67 -67q39 -55 39 -130t-39 -130l67 -67l-53 -52l-67 66q-60 -40 -130 -40q-69 0 -129 40l-67 -66zM441.5 238.5q41.5 43.5 41.5 111.5t-41.5 111.5t-106.5 43.5
t-106.5 -43.5t-41.5 -111.5t41.5 -111.5t106.5 -43.5t106.5 43.5z" />
    <glyph glyph-name="yen" unicode="&#xa5;" horiz-adv-x="556" 
d="M215 143h-148l13 64h148l15 79h-148l13 65h111l-116 349h91l88 -292q6 -18 13 -49q16 28 30 49l208 292h95l-252 -349h112l-12 -65h-149l-15 -79h148l-12 -64h-149l-28 -143h-84z" />
    <glyph glyph-name="brokenbar" unicode="&#xa6;" horiz-adv-x="247" 
d="M178 740h81l-70 -358h-81zM83 248h80l-69 -358h-81z" />
    <glyph glyph-name="section" unicode="&#xa7;" horiz-adv-x="516" 
d="M83 -55q-53 38 -69 96l66 42q14 -54 50.5 -81.5t88.5 -27.5q49 0 85 29t36 74q0 40 -28 64t-98 41q-66 16 -102.5 54t-36.5 89q0 76 72 123q-28 36 -28 87q0 52 27.5 93t75 63.5t106.5 22.5q73 0 126.5 -38t71.5 -96l-67 -42q-14 53 -51 81t-89 28t-87.5 -28t-35.5 -72
q0 -41 29 -68t104 -45q70 -16 103 -50t33 -80q0 -43 -19 -75.5t-56 -57.5q27 -37 27 -81q0 -54 -26.5 -95.5t-73.5 -64.5t-107 -23q-74 0 -127 38zM387 291q0 29 -25.5 50t-86.5 35q-43 9 -78 29q-20 -12 -32.5 -30t-12.5 -40q0 -32 24 -52t87 -36q38 -9 76 -31q48 26 48 75
z" />
    <glyph glyph-name="dieresis" unicode="&#xa8;" horiz-adv-x="383" 
d="M136 680h93l-19 -92h-92zM295 680h92l-18 -92h-93z" />
    <glyph glyph-name="copyright" unicode="&#xa9;" horiz-adv-x="855" 
d="M265.5 35q-83.5 49 -132.5 132.5t-49 182.5t49 182.5t132.5 132.5t182.5 49t182.5 -49t132.5 -132.5t49 -182.5t-49 -182.5t-132.5 -132.5t-182.5 -49t-182.5 49zM600 86q69 41 109.5 111t40.5 153t-40.5 153t-109.5 111t-152 41t-152.5 -41t-110 -111t-40.5 -153
t40.5 -153t110 -111t152.5 -41t152 41zM347.5 172q-45.5 26 -71 72.5t-25.5 105.5t26.5 105.5t72 72.5t99.5 26q62 0 107 -28t65 -78l-48 -31q-38 79 -124 79q-36 0 -66.5 -18t-48.5 -51t-18 -77q0 -66 38 -105.5t96 -39.5q83 0 125 83l48 -31q-26 -53 -70.5 -82t-101.5 -29
q-58 0 -103.5 26z" />
    <glyph glyph-name="ordfeminine" unicode="&#xaa;" horiz-adv-x="452" 
d="M126 336q-41 43 -41 115q0 58 23.5 105t66.5 74t101 27q40 0 73 -17t45 -47l11 57h65l-68 -350h-65l11 55q-38 -62 -120 -62q-61 0 -102 43zM315.5 371q30.5 21 47 55.5t16.5 73.5q0 44 -29 72t-71 28q-55 0 -92 -40.5t-37 -100.5q0 -49 26 -79t70 -30q39 0 69.5 21z" />
    <glyph glyph-name="guillemotleft" unicode="&#xab;" horiz-adv-x="509" 
d="M50 275l195 200h100l-201 -205l113 -195h-89zM228 275l195 200h100l-202 -205l114 -195h-89z" />
    <glyph glyph-name="logicalnot" unicode="&#xac;" horiz-adv-x="528" 
d="M391 331h-329l13 68h412l-39 -202h-82z" />
    <glyph glyph-name="uni00AD" unicode="&#xad;" horiz-adv-x="454" 
d="M64 343h363l-13 -64h-362z" />
    <glyph glyph-name="registered" unicode="&#xae;" horiz-adv-x="855" 
d="M265.5 35q-83.5 49 -132.5 132.5t-49 182.5t49 182.5t132.5 132.5t182.5 49t182.5 -49t132.5 -132.5t49 -182.5t-49 -182.5t-132.5 -132.5t-182.5 -49t-182.5 49zM600 86q69 41 109.5 111t40.5 153t-40.5 153t-109.5 111t-152 41t-152.5 -41t-110 -111t-40.5 -153
t40.5 -153t110 -111t152.5 -41t152 41zM309 549h160q62 0 96.5 -32t34.5 -84q0 -44 -27.5 -73.5t-73.5 -39.5l98 -169h-66l-95 166h-67v-166h-60v398zM467 367q36 0 55 18t19 48t-19 47t-55 17h-98v-130h98z" />
    <glyph glyph-name="macron" unicode="&#xaf;" horiz-adv-x="311" 
d="M118 669h220l-14 -68h-220z" />
    <glyph glyph-name="degree" unicode="&#xb0;" horiz-adv-x="358" 
d="M173.5 459.5q-31.5 18.5 -49.5 49.5t-18 69q0 37 18 68t49.5 49.5t69.5 18.5q39 0 70.5 -18.5t49.5 -49.5t18 -68q0 -38 -18 -69t-49.5 -49.5t-70.5 -18.5q-38 0 -69.5 18.5zM300 521q22 23 22 57t-22 56.5t-57 22.5t-56.5 -22.5t-21.5 -56.5t21.5 -57t56.5 -23t57 23z
" />
    <glyph glyph-name="plusminus" unicode="&#xb1;" horiz-adv-x="517" 
d="M242 338h-177l12 64h178l35 179h67l-36 -179h179l-12 -64h-179l-35 -179h-67zM11 64h423l-12 -64h-423z" />
    <glyph glyph-name="uni00B2" unicode="&#xb2;" horiz-adv-x="339" 
d="M98 472l163 132q25 20 36.5 40t11.5 42q0 23 -15 36t-42 13q-30 0 -47.5 -18t-17.5 -44q0 -6 2 -16l-57 -7q-3 9 -3 24q0 47 35.5 80t93.5 33q49 0 80.5 -26.5t31.5 -68.5q0 -36 -18 -65t-55 -59l-102 -84h143l-10 -54h-238z" />
    <glyph glyph-name="uni00B3" unicode="&#xb3;" horiz-adv-x="340" 
d="M136 450q-33 27 -33 65q0 25 10 42l53 -12q-5 -13 -5 -23q0 -21 17 -34t43 -13q30 0 49.5 17.5t19.5 46.5q0 55 -81 55l8 46q36 0 59.5 13.5t23.5 41.5q0 21 -14 31.5t-37 10.5t-40 -12.5t-17 -32.5q0 -8 2 -14l-54 -6q-2 10 -2 18q0 41 32.5 69t83.5 28q48 0 76 -22.5
t28 -55.5q0 -30 -16 -53t-45 -34q23 -8 38.5 -27.5t15.5 -47.5q0 -54 -37 -89t-96 -35q-49 0 -82 27z" />
    <glyph glyph-name="acute" unicode="&#xb4;" horiz-adv-x="292" 
d="M206 703h111l-132 -145h-68z" />
    <glyph glyph-name="uni00B5" unicode="&#xb5;" horiz-adv-x="571" 
d="M121 496h83l-59 -303q-4 -19 -4 -42q0 -43 27.5 -67.5t74.5 -24.5q37 0 72 22t61.5 63t37.5 96l50 256h83l-96 -496h-83l14 74q-26 -42 -69 -65t-97 -23q-67 0 -108 36q0 -11 -10 -71l-31 -155h-82z" />
    <glyph glyph-name="paragraph" unicode="&#xb6;" horiz-adv-x="624" 
d="M310 311h-35q-52 0 -94.5 20.5t-67.5 59.5t-25 92q0 62 32.5 111.5t91.5 77.5t136 28h330l-14 -69h-61l-146 -751h-77l145 751h-76l-145 -751h-78z" />
    <glyph glyph-name="periodcentered" unicode="&#xb7;" horiz-adv-x="189" 
d="M76 408h98l-19 -99h-98z" />
    <glyph glyph-name="cedilla" unicode="&#xb8;" horiz-adv-x="298" 
d="M27 -187.5q-20 16.5 -26 44.5l50 12q7 -28 37 -28q17 0 28.5 10.5t11.5 31.5q0 15 -9.5 23.5t-24.5 8.5q-22 0 -47 -20l-27 29l50 92h56l-51 -73q20 13 44 13q29 0 47 -18t18 -51q0 -42 -27 -66.5t-75 -24.5q-35 0 -55 16.5z" />
    <glyph glyph-name="uni00B9" unicode="&#xb9;" horiz-adv-x="245" 
d="M206 702q-15 -13 -33.5 -18t-45.5 -5l11 58q32 0 52 10t36 33h56l-69 -350h-60z" />
    <glyph glyph-name="ordmasculine" unicode="&#xba;" horiz-adv-x="455" 
d="M168.5 312.5q-36.5 19.5 -59 55.5t-22.5 83q0 54 24.5 101.5t72 76t113.5 28.5q69 0 114.5 -42t45.5 -113q0 -58 -26.5 -105.5t-74 -75.5t-108.5 -28q-43 0 -79.5 19.5zM326.5 370q31.5 20 49.5 53.5t18 72.5q0 47 -29.5 75.5t-76.5 28.5q-41 0 -72.5 -20t-48.5 -53
t-17 -70q0 -49 30.5 -78t75.5 -29q39 0 70.5 20z" />
    <glyph glyph-name="guillemotright" unicode="&#xbb;" horiz-adv-x="510" 
d="M199 280l-114 195h89l118 -200l-195 -200h-100zM376 280l-113 195h89l118 -200l-195 -200h-100z" />
    <glyph glyph-name="onequarter" unicode="&#xbc;" horiz-adv-x="743" 
d="M190 622q-15 -13 -33.5 -18t-45.5 -5l11 58q32 0 52 10t36 33h56l-69 -350h-60zM53 41l565 660l45 -41l-565 -660zM556 66h-168l11 51l211 233h63l-46 -233h39l-10 -51h-39l-13 -66h-62zM566 117l27 141l-128 -141h101z" />
    <glyph glyph-name="onehalf" unicode="&#xbd;" horiz-adv-x="770" 
d="M190 622q-15 -13 -33.5 -18t-45.5 -5l11 58q32 0 52 10t36 33h56l-69 -350h-60zM53 41l565 660l45 -41l-565 -660zM447 42l163 132q25 20 36.5 40t11.5 42q0 23 -15 36t-42 13q-30 0 -47.5 -18t-17.5 -44q0 -6 2 -16l-57 -7q-3 9 -3 24q0 47 35.5 80t93.5 33
q49 0 80.5 -26.5t31.5 -68.5q0 -36 -18 -65t-55 -59l-102 -84h143l-10 -54h-238z" />
    <glyph glyph-name="threequarters" unicode="&#xbe;" horiz-adv-x="839" 
d="M121 370q-33 27 -33 65q0 25 10 42l53 -12q-5 -13 -5 -23q0 -21 17 -34t43 -13q30 0 49.5 17.5t19.5 46.5q0 55 -81 55l8 46q36 0 59.5 13.5t23.5 41.5q0 21 -14 31.5t-37 10.5t-40 -12.5t-17 -32.5q0 -8 2 -14l-54 -6q-2 10 -2 18q0 41 32.5 69t83.5 28q48 0 76 -22.5
t28 -55.5q0 -30 -16 -53t-45 -34q23 -8 38.5 -27.5t15.5 -47.5q0 -54 -37 -89t-96 -35q-49 0 -82 27zM149 41l565 660l45 -41l-565 -660zM651 66h-168l11 51l211 233h63l-46 -233h39l-10 -51h-39l-13 -66h-62zM661 117l27 141l-128 -141h101z" />
    <glyph glyph-name="questiondown" unicode="&#xbf;" horiz-adv-x="534" 
d="M356 394h-99l20 102h99zM329 296q-9 -57 -33.5 -90t-88.5 -79q-59 -42 -89.5 -78.5t-30.5 -86.5t32.5 -79.5t86.5 -29.5q63 0 103 40.5t40 99.5q0 16 -3 31l79 15q5 -19 5 -44q0 -60 -28 -108.5t-80 -76.5t-121 -28q-90 0 -144 47t-54 122q0 65 37.5 116.5t116.5 106.5
q45 31 64 58t28 78h83z" />
    <glyph glyph-name="Agrave" unicode="&#xc0;" horiz-adv-x="659" 
d="M373 700h89l142 -700h-86l-40 206h-306l-120 -206h-94zM464 278l-53 276q-1 4 -9 53q-13 -27 -28 -53l-161 -276h251zM317 907h106l40 -145h-67z" />
    <glyph glyph-name="Aacute" unicode="&#xc1;" horiz-adv-x="659" 
d="M373 700h89l142 -700h-86l-40 206h-306l-120 -206h-94zM464 278l-53 276q-1 4 -9 53q-13 -27 -28 -53l-161 -276h251zM485 907h111l-133 -145h-68z" />
    <glyph glyph-name="Acircumflex" unicode="&#xc2;" horiz-adv-x="659" 
d="M373 700h89l142 -700h-86l-40 206h-306l-120 -206h-94zM464 278l-53 276q-1 4 -9 53q-13 -27 -28 -53l-161 -276h251zM424 906h66l76 -144h-64l-58 72l-82 -72h-70z" />
    <glyph glyph-name="Atilde" unicode="&#xc3;" horiz-adv-x="659" 
d="M373 700h89l142 -700h-86l-40 206h-306l-120 -206h-94zM464 278l-53 276q-1 4 -9 53q-13 -27 -28 -53l-161 -276h251zM462.5 775.5q-19.5 10.5 -39.5 29.5q-16 15 -25.5 21t-24.5 6t-24.5 -10t-9.5 -25q0 -8 2 -16l-62 -12q-5 10 -5 29q0 41 26 67.5t75 26.5
q30 0 48.5 -10t40.5 -30q17 -15 26.5 -21t23.5 -6q15 0 24 9.5t9 24.5q0 7 -2 17l62 13q4 -20 4 -35q0 -41 -26 -65t-70 -24q-33 0 -52.5 10.5z" />
    <glyph glyph-name="Adieresis" unicode="&#xc4;" horiz-adv-x="659" 
d="M373 700h89l142 -700h-86l-40 206h-306l-120 -206h-94zM464 278l-53 276q-1 4 -9 53q-13 -27 -28 -53l-161 -276h251zM328 884h93l-19 -92h-92zM487 884h92l-18 -92h-93z" />
    <glyph glyph-name="Aring" unicode="&#xc5;" horiz-adv-x="659" 
d="M373 700h89l142 -700h-86l-40 206h-306l-120 -206h-94zM464 278l-53 276q-1 4 -9 53q-13 -27 -28 -53l-161 -276h251zM377 771.5q-28 27.5 -28 67.5t28 67.5t68 27.5t68 -27.5t28 -67.5t-28 -67.5t-68 -27.5t-68 27.5zM478 805.5q13 13.5 13 33.5t-13 33.5t-33 13.5
t-33 -13.5t-13 -33.5t13 -33.5t33 -13.5t33 13.5z" />
    <glyph glyph-name="AE" unicode="&#xc6;" horiz-adv-x="933" 
d="M406 700h548l-15 -74h-353l-44 -227h325l-14 -74h-325l-49 -251h356l-15 -74h-440l41 206h-237l-132 -206h-94zM434 278l68 348h-50l-222 -348h204z" />
    <glyph glyph-name="Ccedilla" unicode="&#xc7;" horiz-adv-x="742" 
d="M502 101.5q62 40.5 107 114.5l64 -45q-57 -91 -131 -137t-175 -48l-30 -43q21 13 44 13q29 0 47.5 -18t18.5 -51q0 -42 -27 -66.5t-75 -24.5q-35 0 -55 16.5t-26 44.5l50 12q5 -28 36 -28q18 0 29.5 10.5t11.5 31.5q0 15 -9.5 23.5t-25.5 8.5q-12 0 -22.5 -5t-24.5 -15
l-26 29l34 64q-77 9 -134 50t-87.5 107.5t-30.5 151.5q0 109 50.5 205t142.5 154t211 58q101 0 168.5 -49t97.5 -132l-70 -43q-30 77 -83 113t-128 36q-86 0 -156 -48t-109 -126t-39 -163q0 -70 27 -125t76 -85.5t113 -30.5q74 0 136 40.5z" />
    <glyph glyph-name="Egrave" unicode="&#xc8;" horiz-adv-x="587" 
d="M175 700h433l-15 -74h-349l-44 -227h321l-14 -74h-321l-49 -251h352l-15 -74h-436zM295 907h106l40 -145h-67z" />
    <glyph glyph-name="Eacute" unicode="&#xc9;" horiz-adv-x="587" 
d="M175 700h433l-15 -74h-349l-44 -227h321l-14 -74h-321l-49 -251h352l-15 -74h-436zM463 907h111l-133 -145h-68z" />
    <glyph glyph-name="Ecircumflex" unicode="&#xca;" horiz-adv-x="587" 
d="M175 700h433l-15 -74h-349l-44 -227h321l-14 -74h-321l-49 -251h352l-15 -74h-436zM402 906h66l76 -144h-64l-58 72l-82 -72h-70z" />
    <glyph glyph-name="Edieresis" unicode="&#xcb;" horiz-adv-x="587" 
d="M175 700h433l-15 -74h-349l-44 -227h321l-14 -74h-321l-49 -251h352l-15 -74h-436zM306 884h93l-19 -92h-92zM465 884h92l-18 -92h-93z" />
    <glyph glyph-name="Igrave" unicode="&#xcc;" horiz-adv-x="257" 
d="M175 700h84l-137 -700h-84zM116 907h106l40 -145h-67z" />
    <glyph glyph-name="Iacute" unicode="&#xcd;" horiz-adv-x="257" 
d="M175 700h84l-137 -700h-84zM284 907h111l-133 -145h-68z" />
    <glyph glyph-name="Icircumflex" unicode="&#xce;" horiz-adv-x="257" 
d="M175 700h84l-137 -700h-84zM223 906h66l76 -144h-64l-58 72l-82 -72h-70z" />
    <glyph glyph-name="Idieresis" unicode="&#xcf;" horiz-adv-x="257" 
d="M175 700h84l-137 -700h-84zM127 884h93l-19 -92h-92zM286 884h92l-18 -92h-93z" />
    <glyph glyph-name="Eth" unicode="&#xd0;" horiz-adv-x="714" 
d="M125 314h-74l14 72h74l62 314h190q87 0 154.5 -34t105 -100.5t37.5 -160.5q0 -117 -51 -209t-147 -144t-227 -52h-199zM270 75q104 0 179 42t114 115.5t39 168.5q0 112 -62 168t-169 56h-101l-47 -239h154l-14 -72h-154l-46 -239h107z" />
    <glyph glyph-name="Ntilde" unicode="&#xd1;" horiz-adv-x="705" 
d="M175 700h85l233 -526q15 -37 19 -55l114 581h81l-137 -700h-86l-232 526q-16 39 -20 55l-113 -581h-81zM485.5 775.5q-19.5 10.5 -39.5 29.5q-16 15 -25.5 21t-24.5 6t-24.5 -10t-9.5 -25q0 -8 2 -16l-62 -12q-5 10 -5 29q0 41 26 67.5t75 26.5q30 0 48.5 -10t40.5 -30
q17 -15 26.5 -21t23.5 -6q15 0 24 9.5t9 24.5q0 7 -2 17l62 13q4 -20 4 -35q0 -41 -26 -65t-70 -24q-33 0 -52.5 10.5z" />
    <glyph glyph-name="Ograve" unicode="&#xd2;" horiz-adv-x="784" 
d="M214 24.5q-69 38.5 -108.5 109.5t-39.5 164q0 106 47.5 202t136 155t204.5 59q93 0 161.5 -37.5t105.5 -107.5t37 -167q0 -109 -46 -204t-133.5 -153.5t-207.5 -58.5q-88 0 -157 38.5zM531.5 107.5q67.5 46.5 104 123.5t36.5 165q0 118 -61.5 180.5t-168.5 62.5
q-83 0 -149.5 -48t-104 -125.5t-37.5 -162.5q0 -74 30 -129t81.5 -84t114.5 -29q87 0 154.5 46.5zM373 907h106l40 -145h-67z" />
    <glyph glyph-name="Oacute" unicode="&#xd3;" horiz-adv-x="784" 
d="M214 24.5q-69 38.5 -108.5 109.5t-39.5 164q0 106 47.5 202t136 155t204.5 59q93 0 161.5 -37.5t105.5 -107.5t37 -167q0 -109 -46 -204t-133.5 -153.5t-207.5 -58.5q-88 0 -157 38.5zM531.5 107.5q67.5 46.5 104 123.5t36.5 165q0 118 -61.5 180.5t-168.5 62.5
q-83 0 -149.5 -48t-104 -125.5t-37.5 -162.5q0 -74 30 -129t81.5 -84t114.5 -29q87 0 154.5 46.5zM541 907h111l-133 -145h-68z" />
    <glyph glyph-name="Ocircumflex" unicode="&#xd4;" horiz-adv-x="784" 
d="M214 24.5q-69 38.5 -108.5 109.5t-39.5 164q0 106 47.5 202t136 155t204.5 59q93 0 161.5 -37.5t105.5 -107.5t37 -167q0 -109 -46 -204t-133.5 -153.5t-207.5 -58.5q-88 0 -157 38.5zM531.5 107.5q67.5 46.5 104 123.5t36.5 165q0 118 -61.5 180.5t-168.5 62.5
q-83 0 -149.5 -48t-104 -125.5t-37.5 -162.5q0 -74 30 -129t81.5 -84t114.5 -29q87 0 154.5 46.5zM480 906h66l76 -144h-64l-58 72l-82 -72h-70z" />
    <glyph glyph-name="Otilde" unicode="&#xd5;" horiz-adv-x="784" 
d="M214 24.5q-69 38.5 -108.5 109.5t-39.5 164q0 106 47.5 202t136 155t204.5 59q93 0 161.5 -37.5t105.5 -107.5t37 -167q0 -109 -46 -204t-133.5 -153.5t-207.5 -58.5q-88 0 -157 38.5zM531.5 107.5q67.5 46.5 104 123.5t36.5 165q0 118 -61.5 180.5t-168.5 62.5
q-83 0 -149.5 -48t-104 -125.5t-37.5 -162.5q0 -74 30 -129t81.5 -84t114.5 -29q87 0 154.5 46.5zM518.5 775.5q-19.5 10.5 -39.5 29.5q-16 15 -25.5 21t-24.5 6t-24.5 -10t-9.5 -25q0 -8 2 -16l-62 -12q-5 10 -5 29q0 41 26 67.5t75 26.5q30 0 48.5 -10t40.5 -30
q17 -15 26.5 -21t23.5 -6q15 0 24 9.5t9 24.5q0 7 -2 17l62 13q4 -20 4 -35q0 -41 -26 -65t-70 -24q-33 0 -52.5 10.5z" />
    <glyph glyph-name="Odieresis" unicode="&#xd6;" horiz-adv-x="784" 
d="M214 24.5q-69 38.5 -108.5 109.5t-39.5 164q0 106 47.5 202t136 155t204.5 59q93 0 161.5 -37.5t105.5 -107.5t37 -167q0 -109 -46 -204t-133.5 -153.5t-207.5 -58.5q-88 0 -157 38.5zM531.5 107.5q67.5 46.5 104 123.5t36.5 165q0 118 -61.5 180.5t-168.5 62.5
q-83 0 -149.5 -48t-104 -125.5t-37.5 -162.5q0 -74 30 -129t81.5 -84t114.5 -29q87 0 154.5 46.5zM384 884h93l-19 -92h-92zM543 884h92l-18 -92h-93z" />
    <glyph glyph-name="multiply" unicode="&#xd7;" horiz-adv-x="506" 
d="M78 240l152 127l-100 125l51 44l101 -125l152 127l40 -49l-153 -128l101 -124l-53 -43l-99 124l-153 -128z" />
    <glyph glyph-name="Oslash" unicode="&#xd8;" horiz-adv-x="784" 
d="M734 541q24 -61 24 -139q0 -109 -46 -204t-133.5 -153.5t-207.5 -58.5q-84 0 -153 36l-43 -59l-57 36l45 62q-47 42 -72 102.5t-25 134.5q0 106 47.5 202t136 155t204.5 59q88 0 154 -33l40 56l58 -36l-42 -58q46 -41 70 -102zM167 205q16 -44 45 -75l348 484
q-50 25 -118 25q-83 0 -149.5 -48t-104 -125.5t-37.5 -162.5q0 -54 16 -98zM531.5 107.5q67.5 46.5 104 123.5t36.5 165q0 113 -58 177l-349 -485q50 -27 112 -27q87 0 154.5 46.5z" />
    <glyph glyph-name="Ugrave" unicode="&#xd9;" horiz-adv-x="668" 
d="M174 10.5q-49 24.5 -77 72t-28 111.5q0 37 7 73l84 433h84l-88 -451q-4 -23 -4 -48q0 -63 39 -101.5t107 -38.5q85 0 140 47t72 131l89 461h84l-90 -466q-24 -126 -103 -187t-205 -61q-62 0 -111 24.5zM315 907h106l40 -145h-67z" />
    <glyph glyph-name="Uacute" unicode="&#xda;" horiz-adv-x="668" 
d="M174 10.5q-49 24.5 -77 72t-28 111.5q0 37 7 73l84 433h84l-88 -451q-4 -23 -4 -48q0 -63 39 -101.5t107 -38.5q85 0 140 47t72 131l89 461h84l-90 -466q-24 -126 -103 -187t-205 -61q-62 0 -111 24.5zM483 907h111l-133 -145h-68z" />
    <glyph glyph-name="Ucircumflex" unicode="&#xdb;" horiz-adv-x="668" 
d="M174 10.5q-49 24.5 -77 72t-28 111.5q0 37 7 73l84 433h84l-88 -451q-4 -23 -4 -48q0 -63 39 -101.5t107 -38.5q85 0 140 47t72 131l89 461h84l-90 -466q-24 -126 -103 -187t-205 -61q-62 0 -111 24.5zM422 906h66l76 -144h-64l-58 72l-82 -72h-70z" />
    <glyph glyph-name="Udieresis" unicode="&#xdc;" horiz-adv-x="668" 
d="M174 10.5q-49 24.5 -77 72t-28 111.5q0 37 7 73l84 433h84l-88 -451q-4 -23 -4 -48q0 -63 39 -101.5t107 -38.5q85 0 140 47t72 131l89 461h84l-90 -466q-24 -126 -103 -187t-205 -61q-62 0 -111 24.5zM326 884h93l-19 -92h-92zM485 884h92l-18 -92h-93z" />
    <glyph glyph-name="Yacute" unicode="&#xdd;" horiz-adv-x="551" 
d="M241 286l-150 414h93l97 -292q3 -11 13 -50q17 29 31 46l215 296h96l-311 -414l-56 -286h-84zM427 907h111l-133 -145h-68z" />
    <glyph glyph-name="Thorn" unicode="&#xde;" horiz-adv-x="674" 
d="M175 700h84l-26 -131h186q108 0 166 -51.5t58 -145.5q0 -75 -36.5 -129t-101.5 -83t-150 -29h-207l-26 -131h-84zM362 205q92 0 144 44t52 121q0 62 -38 93.5t-110 31.5h-191l-57 -290h200z" />
    <glyph glyph-name="germandbls" unicode="&#xdf;" horiz-adv-x="592" 
d="M226.5 -0.5q-36.5 13.5 -61.5 37.5l46 65q18 -20 45 -33t60 -13q61 0 100.5 41.5t39.5 109.5q0 64 -45.5 101.5t-119.5 37.5h-22l13 71h22q74 0 124 35.5t50 94.5q0 47 -29 72t-77 25q-51 0 -88.5 -33.5t-50.5 -100.5l-100 -510h-82l85 433h-75l12 63h75l2 12
q17 104 78 155t153 51q79 0 129 -41.5t50 -116.5q0 -59 -38.5 -105.5t-100.5 -64.5q51 -22 84 -65.5t33 -105.5q0 -67 -29 -119t-81.5 -81t-121.5 -29q-43 0 -79.5 13.5z" />
    <glyph glyph-name="agrave" unicode="&#xe0;" horiz-adv-x="602" 
d="M136 16q-47 30 -72.5 82t-25.5 117q0 82 35 149.5t97.5 106.5t143.5 39q59 0 101.5 -25.5t62.5 -72.5l17 84h83l-97 -496h-83l15 74q-61 -88 -167 -88q-63 0 -110 30zM364.5 89.5q43.5 30.5 68 82.5t24.5 114q0 70 -38 110.5t-103 40.5q-56 0 -100.5 -29t-69 -79
t-24.5 -110q0 -71 39.5 -115.5t105.5 -44.5q54 0 97.5 30.5zM223 703h106l40 -145h-67z" />
    <glyph glyph-name="aacute" unicode="&#xe1;" horiz-adv-x="602" 
d="M136 16q-47 30 -72.5 82t-25.5 117q0 82 35 149.5t97.5 106.5t143.5 39q59 0 101.5 -25.5t62.5 -72.5l17 84h83l-97 -496h-83l15 74q-61 -88 -167 -88q-63 0 -110 30zM364.5 89.5q43.5 30.5 68 82.5t24.5 114q0 70 -38 110.5t-103 40.5q-56 0 -100.5 -29t-69 -79
t-24.5 -110q0 -71 39.5 -115.5t105.5 -44.5q54 0 97.5 30.5zM386 703h111l-132 -145h-69z" />
    <glyph glyph-name="acircumflex" unicode="&#xe2;" horiz-adv-x="602" 
d="M136 16q-47 30 -72.5 82t-25.5 117q0 82 35 149.5t97.5 106.5t143.5 39q59 0 101.5 -25.5t62.5 -72.5l17 84h83l-97 -496h-83l15 74q-61 -88 -167 -88q-63 0 -110 30zM364.5 89.5q43.5 30.5 68 82.5t24.5 114q0 70 -38 110.5t-103 40.5q-56 0 -100.5 -29t-69 -79
t-24.5 -110q0 -71 39.5 -115.5t105.5 -44.5q54 0 97.5 30.5zM326 702h67l76 -144h-65l-58 72l-81 -72h-71z" />
    <glyph glyph-name="atilde" unicode="&#xe3;" horiz-adv-x="602" 
d="M136 16q-47 30 -72.5 82t-25.5 117q0 82 35 149.5t97.5 106.5t143.5 39q59 0 101.5 -25.5t62.5 -72.5l17 84h83l-97 -496h-83l15 74q-61 -88 -167 -88q-63 0 -110 30zM364.5 89.5q43.5 30.5 68 82.5t24.5 114q0 70 -38 110.5t-103 40.5q-56 0 -100.5 -29t-69 -79
t-24.5 -110q0 -71 39.5 -115.5t105.5 -44.5q54 0 97.5 30.5zM365.5 571.5q-19.5 10.5 -39.5 29.5q-16 15 -25.5 21t-24.5 6t-24.5 -10t-9.5 -25q0 -8 2 -16l-62 -12q-5 10 -5 29q0 41 26 67.5t75 26.5q30 0 48.5 -10t40.5 -30q17 -15 26.5 -21t23.5 -6q15 0 24 9.5t9 24.5
q0 7 -2 17l62 13q4 -20 4 -35q0 -41 -26 -65t-70 -24q-33 0 -52.5 10.5z" />
    <glyph glyph-name="adieresis" unicode="&#xe4;" horiz-adv-x="602" 
d="M136 16q-47 30 -72.5 82t-25.5 117q0 82 35 149.5t97.5 106.5t143.5 39q59 0 101.5 -25.5t62.5 -72.5l17 84h83l-97 -496h-83l15 74q-61 -88 -167 -88q-63 0 -110 30zM364.5 89.5q43.5 30.5 68 82.5t24.5 114q0 70 -38 110.5t-103 40.5q-56 0 -100.5 -29t-69 -79
t-24.5 -110q0 -71 39.5 -115.5t105.5 -44.5q54 0 97.5 30.5zM231 680h93l-18 -92h-93zM390 680h93l-19 -92h-92z" />
    <glyph glyph-name="aring" unicode="&#xe5;" horiz-adv-x="602" 
d="M136 16q-47 30 -72.5 82t-25.5 117q0 82 35 149.5t97.5 106.5t143.5 39q59 0 101.5 -25.5t62.5 -72.5l17 84h83l-97 -496h-83l15 74q-61 -88 -167 -88q-63 0 -110 30zM364.5 89.5q43.5 30.5 68 82.5t24.5 114q0 70 -38 110.5t-103 40.5q-56 0 -100.5 -29t-69 -79
t-24.5 -110q0 -71 39.5 -115.5t105.5 -44.5q54 0 97.5 30.5zM280 567.5q-28 27.5 -28 67.5t28 67.5t68 27.5t68 -27.5t28 -67.5t-28 -67.5t-68 -27.5t-68 27.5zM381 601.5q13 13.5 13 33.5t-13 33.5t-33 13.5t-33 -13.5t-13 -33.5t13 -33.5t33 -13.5t33 13.5z" />
    <glyph glyph-name="ae" unicode="&#xe6;" horiz-adv-x="985" 
d="M136 16q-47 30 -72.5 82t-25.5 117q0 82 35 149.5t97.5 106.5t143.5 39q59 0 101.5 -25.5t62.5 -71.5l17 83h82l-11 -60q30 35 74.5 54.5t99.5 19.5q64 0 111.5 -26t73 -71.5t25.5 -101.5q0 -22 -5 -54l-4 -22h-412q-1 -7 -1 -22q0 -68 42 -113t109 -45q60 0 101 29
t74 87l59 -38q-42 -75 -100.5 -111t-139.5 -36q-60 0 -107 25.5t-69 71.5l-16 -83h-83l15 74q-61 -88 -167 -88q-63 0 -110 30zM873 299l1 20q0 56 -40 91t-104 35q-66 0 -117.5 -40t-68.5 -106h329zM364 89.5q43 30.5 67.5 82.5t24.5 114q0 70 -37.5 110.5t-102.5 40.5
q-56 0 -100.5 -29t-69 -79t-24.5 -110q0 -71 39.5 -115.5t105.5 -44.5q54 0 97 30.5z" />
    <glyph glyph-name="ccedilla" unicode="&#xe7;" horiz-adv-x="558" 
d="M370 88q41 28 76 84l59 -42q-42 -74 -101 -109t-140 -35h-4l-30 -43q21 13 44 13q29 0 47.5 -18t18.5 -51q0 -42 -27 -66.5t-75 -24.5q-35 0 -55 16.5t-26 44.5l50 12q5 -28 36 -28q18 0 29.5 10.5t11.5 31.5q0 15 -9.5 23.5t-25.5 8.5q-12 0 -22.5 -5t-24.5 -15l-26 29
l36 67q-79 16 -126 76.5t-47 151.5q0 74 34 141t100 108.5t157 41.5q74 0 127 -36t77 -100l-67 -38q-41 100 -148 100q-57 0 -101.5 -30t-69 -79t-24.5 -104q0 -77 41.5 -120t104.5 -43q59 0 100 28z" />
    <glyph glyph-name="egrave" unicode="&#xe8;" horiz-adv-x="576" 
d="M149.5 13q-50.5 27 -80.5 80.5t-30 131.5t37 143t102.5 103.5t146.5 38.5q68 0 116.5 -26t74 -71t25.5 -102q0 -26 -5 -54l-4 -22h-413q-2 -7 -2 -22q0 -44 19.5 -80t54 -57t79.5 -21q60 0 101 29t74 87l59 -38q-42 -75 -100.5 -111t-140.5 -36q-63 0 -113.5 27zM464 299
l1 20q0 56 -40 91t-104 35q-65 0 -117 -40t-69 -106h329zM231 703h106l40 -145h-67z" />
    <glyph glyph-name="eacute" unicode="&#xe9;" horiz-adv-x="576" 
d="M149.5 13q-50.5 27 -80.5 80.5t-30 131.5t37 143t102.5 103.5t146.5 38.5q68 0 116.5 -26t74 -71t25.5 -102q0 -26 -5 -54l-4 -22h-413q-2 -7 -2 -22q0 -44 19.5 -80t54 -57t79.5 -21q60 0 101 29t74 87l59 -38q-42 -75 -100.5 -111t-140.5 -36q-63 0 -113.5 27zM464 299
l1 20q0 56 -40 91t-104 35q-65 0 -117 -40t-69 -106h329zM394 703h111l-132 -145h-69z" />
    <glyph glyph-name="ecircumflex" unicode="&#xea;" horiz-adv-x="576" 
d="M149.5 13q-50.5 27 -80.5 80.5t-30 131.5t37 143t102.5 103.5t146.5 38.5q68 0 116.5 -26t74 -71t25.5 -102q0 -26 -5 -54l-4 -22h-413q-2 -7 -2 -22q0 -44 19.5 -80t54 -57t79.5 -21q60 0 101 29t74 87l59 -38q-42 -75 -100.5 -111t-140.5 -36q-63 0 -113.5 27zM464 299
l1 20q0 56 -40 91t-104 35q-65 0 -117 -40t-69 -106h329zM334 702h67l76 -144h-65l-58 72l-81 -72h-71z" />
    <glyph glyph-name="edieresis" unicode="&#xeb;" horiz-adv-x="576" 
d="M149.5 13q-50.5 27 -80.5 80.5t-30 131.5t37 143t102.5 103.5t146.5 38.5q68 0 116.5 -26t74 -71t25.5 -102q0 -26 -5 -54l-4 -22h-413q-2 -7 -2 -22q0 -44 19.5 -80t54 -57t79.5 -21q60 0 101 29t74 87l59 -38q-42 -75 -100.5 -111t-140.5 -36q-63 0 -113.5 27zM464 299
l1 20q0 56 -40 91t-104 35q-65 0 -117 -40t-69 -106h329zM238 680h93l-18 -92h-93zM397 680h93l-19 -92h-92z" />
    <glyph glyph-name="igrave" unicode="&#xec;" horiz-adv-x="225" 
d="M119 496h83l-97 -496h-83zM63 703h106l40 -145h-67z" />
    <glyph glyph-name="iacute" unicode="&#xed;" horiz-adv-x="225" 
d="M119 496h83l-97 -496h-83zM226 703h111l-132 -145h-69z" />
    <glyph glyph-name="icircumflex" unicode="&#xee;" horiz-adv-x="225" 
d="M119 496h83l-97 -496h-83zM166 702h67l76 -144h-65l-58 72l-81 -72h-71z" />
    <glyph glyph-name="idieresis" unicode="&#xef;" horiz-adv-x="225" 
d="M119 496h83l-97 -496h-83zM71 680h93l-18 -92h-93zM230 680h93l-19 -92h-92z" />
    <glyph glyph-name="eth" unicode="&#xf0;" horiz-adv-x="583" 
d="M148 11.5q-49 25.5 -78.5 73.5t-29.5 111q0 70 34 131t96 98t143 37q53 0 98 -25t63 -63q-7 108 -66 184l-125 -45l-18 57l97 35q-50 44 -118 78l40 58q95 -47 155 -108l108 39l19 -56l-87 -32q69 -98 69 -236q0 -104 -33 -186t-99.5 -129t-162.5 -47q-56 0 -105 25.5z
M360 81.5q42 26.5 66 72t24 101.5q0 63 -41 100.5t-106 37.5q-51 0 -92.5 -27t-65.5 -71.5t-24 -93.5q0 -69 42 -107.5t103 -38.5q52 0 94 26.5z" />
    <glyph glyph-name="ntilde" unicode="&#xf1;" horiz-adv-x="570" 
d="M120 496h83l-14 -74q65 88 176 88q69 0 110 -36t41 -103q0 -22 -4 -45l-63 -326h-82l61 316q4 22 4 36q0 40 -27 62.5t-73 22.5q-39 0 -75 -21.5t-62 -59.5t-35 -85l-53 -271h-83zM381.5 571.5q-19.5 10.5 -39.5 29.5q-16 15 -25.5 21t-24.5 6t-24.5 -10t-9.5 -25
q0 -8 2 -16l-62 -12q-5 10 -5 29q0 41 26 67.5t75 26.5q30 0 48.5 -10t40.5 -30q17 -15 26.5 -21t23.5 -6q15 0 24 9.5t9 24.5q0 7 -2 17l62 13q4 -20 4 -35q0 -41 -26 -65t-70 -24q-33 0 -52.5 10.5z" />
    <glyph glyph-name="ograve" unicode="&#xf2;" horiz-adv-x="599" 
d="M155.5 12.5q-53.5 26.5 -86 77.5t-32.5 122q0 83 37 151t103.5 107.5t152.5 39.5q64 0 116.5 -25.5t83.5 -75.5t31 -122q0 -86 -37 -154.5t-103.5 -107.5t-149.5 -39q-62 0 -115.5 26.5zM378 87.5q45 28.5 72 78.5t27 111q0 74 -43.5 117t-115.5 43q-57 0 -102 -31.5
t-70 -82t-25 -104.5q0 -73 44.5 -116.5t114.5 -43.5q53 0 98 28.5zM243 703h106l40 -145h-67z" />
    <glyph glyph-name="oacute" unicode="&#xf3;" horiz-adv-x="599" 
d="M155.5 12.5q-53.5 26.5 -86 77.5t-32.5 122q0 83 37 151t103.5 107.5t152.5 39.5q64 0 116.5 -25.5t83.5 -75.5t31 -122q0 -86 -37 -154.5t-103.5 -107.5t-149.5 -39q-62 0 -115.5 26.5zM378 87.5q45 28.5 72 78.5t27 111q0 74 -43.5 117t-115.5 43q-57 0 -102 -31.5
t-70 -82t-25 -104.5q0 -73 44.5 -116.5t114.5 -43.5q53 0 98 28.5zM405 703h111l-132 -145h-69z" />
    <glyph glyph-name="ocircumflex" unicode="&#xf4;" horiz-adv-x="599" 
d="M155.5 12.5q-53.5 26.5 -86 77.5t-32.5 122q0 83 37 151t103.5 107.5t152.5 39.5q64 0 116.5 -25.5t83.5 -75.5t31 -122q0 -86 -37 -154.5t-103.5 -107.5t-149.5 -39q-62 0 -115.5 26.5zM378 87.5q45 28.5 72 78.5t27 111q0 74 -43.5 117t-115.5 43q-57 0 -102 -31.5
t-70 -82t-25 -104.5q0 -73 44.5 -116.5t114.5 -43.5q53 0 98 28.5zM346 702h67l76 -144h-65l-58 72l-81 -72h-71z" />
    <glyph glyph-name="otilde" unicode="&#xf5;" horiz-adv-x="599" 
d="M155.5 12.5q-53.5 26.5 -86 77.5t-32.5 122q0 83 37 151t103.5 107.5t152.5 39.5q64 0 116.5 -25.5t83.5 -75.5t31 -122q0 -86 -37 -154.5t-103.5 -107.5t-149.5 -39q-62 0 -115.5 26.5zM378 87.5q45 28.5 72 78.5t27 111q0 74 -43.5 117t-115.5 43q-57 0 -102 -31.5
t-70 -82t-25 -104.5q0 -73 44.5 -116.5t114.5 -43.5q53 0 98 28.5zM384.5 571.5q-19.5 10.5 -39.5 29.5q-16 15 -25.5 21t-24.5 6t-24.5 -10t-9.5 -25q0 -8 2 -16l-62 -12q-5 10 -5 29q0 41 26 67.5t75 26.5q30 0 48.5 -10t40.5 -30q17 -15 26.5 -21t23.5 -6q15 0 24 9.5
t9 24.5q0 7 -2 17l62 13q4 -20 4 -35q0 -41 -26 -65t-70 -24q-33 0 -52.5 10.5z" />
    <glyph glyph-name="odieresis" unicode="&#xf6;" horiz-adv-x="599" 
d="M155.5 12.5q-53.5 26.5 -86 77.5t-32.5 122q0 83 37 151t103.5 107.5t152.5 39.5q64 0 116.5 -25.5t83.5 -75.5t31 -122q0 -86 -37 -154.5t-103.5 -107.5t-149.5 -39q-62 0 -115.5 26.5zM378 87.5q45 28.5 72 78.5t27 111q0 74 -43.5 117t-115.5 43q-57 0 -102 -31.5
t-70 -82t-25 -104.5q0 -73 44.5 -116.5t114.5 -43.5q53 0 98 28.5zM250 680h93l-18 -92h-93zM409 680h93l-19 -92h-92z" />
    <glyph glyph-name="divide" unicode="&#xf7;" horiz-adv-x="514" 
d="M251 476h98l-19 -99h-98zM179 99h98l-20 -99h-98zM50 271h423l-12 -64h-423z" />
    <glyph glyph-name="oslash" unicode="&#xf8;" horiz-adv-x="599" 
d="M561 287q0 -86 -37 -154.5t-103.5 -107.5t-149.5 -39q-63 0 -117 27l-36 -46l-52 34l38 48q-32 29 -49.5 70.5t-17.5 92.5q0 83 37 151t103.5 107.5t152.5 39.5q65 0 116 -25l34 44l52 -34l-35 -45q64 -61 64 -163zM155 114l240 307q-35 16 -77 16q-57 0 -102 -31.5
t-70 -82t-25 -104.5q0 -63 34 -105zM378 87.5q45 28.5 72 78.5t27 111q0 64 -33 106l-241 -307q36 -17 77 -17q53 0 98 28.5z" />
    <glyph glyph-name="ugrave" unicode="&#xf9;" horiz-adv-x="570" 
d="M98.5 27q-43.5 41 -43.5 108q0 16 5 48l61 313h82l-59 -303q-4 -25 -4 -42q0 -43 27.5 -67.5t75.5 -24.5q37 0 72 22t61 63t37 96l50 256h83l-96 -496h-83l14 74q-26 -41 -70 -64.5t-96 -23.5q-73 0 -116.5 41zM235 703h106l40 -145h-67z" />
    <glyph glyph-name="uacute" unicode="&#xfa;" horiz-adv-x="570" 
d="M98.5 27q-43.5 41 -43.5 108q0 16 5 48l61 313h82l-59 -303q-4 -25 -4 -42q0 -43 27.5 -67.5t75.5 -24.5q37 0 72 22t61 63t37 96l50 256h83l-96 -496h-83l14 74q-26 -41 -70 -64.5t-96 -23.5q-73 0 -116.5 41zM398 703h111l-132 -145h-69z" />
    <glyph glyph-name="ucircumflex" unicode="&#xfb;" horiz-adv-x="570" 
d="M98.5 27q-43.5 41 -43.5 108q0 16 5 48l61 313h82l-59 -303q-4 -25 -4 -42q0 -43 27.5 -67.5t75.5 -24.5q37 0 72 22t61 63t37 96l50 256h83l-96 -496h-83l14 74q-26 -41 -70 -64.5t-96 -23.5q-73 0 -116.5 41zM338 702h67l76 -144h-65l-58 72l-81 -72h-71z" />
    <glyph glyph-name="udieresis" unicode="&#xfc;" horiz-adv-x="570" 
d="M98.5 27q-43.5 41 -43.5 108q0 16 5 48l61 313h82l-59 -303q-4 -25 -4 -42q0 -43 27.5 -67.5t75.5 -24.5q37 0 72 22t61 63t37 96l50 256h83l-96 -496h-83l14 74q-26 -41 -70 -64.5t-96 -23.5q-73 0 -116.5 41zM242 680h93l-18 -92h-93zM401 680h93l-19 -92h-92z" />
    <glyph glyph-name="yacute" unicode="&#xfd;" horiz-adv-x="500" 
d="M-27 -201l26 74q18 -9 39 -9q23 0 39 11t32 40l51 90l-105 491h85l81 -388l226 388h93l-363 -607q-35 -58 -66 -79t-83 -21q-34 0 -55 10zM354 703h111l-132 -145h-69z" />
    <glyph glyph-name="thorn" unicode="&#xfe;" horiz-adv-x="603" 
d="M158 700h83l-53 -274q23 36 70.5 60t102.5 24q58 0 104.5 -26.5t73.5 -77.5t27 -122q0 -77 -35.5 -145.5t-100 -110.5t-147.5 -42q-56 0 -100.5 26.5t-62.5 64.5l-55 -281h-82zM388 89.5q44 30.5 69 81t25 109.5q0 75 -40 116t-107 41q-52 0 -97 -30t-71.5 -82
t-26.5 -114q0 -69 42 -110.5t108 -41.5q54 0 98 30.5z" />
    <glyph glyph-name="ydieresis" unicode="&#xff;" horiz-adv-x="500" 
d="M-27 -201l26 74q18 -9 39 -9q23 0 39 11t32 40l51 90l-105 491h85l81 -388l226 388h93l-363 -607q-35 -58 -66 -79t-83 -21q-34 0 -55 10zM198 680h93l-18 -92h-93zM357 680h93l-19 -92h-92z" />
    <glyph glyph-name="Amacron" unicode="&#x100;" horiz-adv-x="659" 
d="M373 700h89l142 -700h-86l-40 206h-306l-120 -206h-94zM464 278l-53 276q-1 4 -9 53q-13 -27 -28 -53l-161 -276h251zM341 873h220l-13 -68h-220z" />
    <glyph glyph-name="amacron" unicode="&#x101;" horiz-adv-x="602" 
d="M136 16q-47 30 -72.5 82t-25.5 117q0 82 35 149.5t97.5 106.5t143.5 39q59 0 101.5 -25.5t62.5 -72.5l17 84h83l-97 -496h-83l15 74q-61 -88 -167 -88q-63 0 -110 30zM364.5 89.5q43.5 30.5 68 82.5t24.5 114q0 70 -38 110.5t-103 40.5q-56 0 -100.5 -29t-69 -79
t-24.5 -110q0 -71 39.5 -115.5t105.5 -44.5q54 0 97.5 30.5zM245 669h220l-13 -68h-220z" />
    <glyph glyph-name="Abreve" unicode="&#x102;" horiz-adv-x="659" 
d="M373 700h89l142 -700h-86l-40 206h-306l-120 -206h-94zM464 278l-53 276q-1 4 -9 53q-13 -27 -28 -53l-161 -276h251zM372.5 796.5q-24.5 24.5 -24.5 59.5q0 10 2 20h64q-1 -5 -1 -11q0 -15 8 -24.5t23 -9.5q19 0 31.5 12t16.5 33h64q-8 -54 -38 -79t-81 -25
q-40 0 -64.5 24.5z" />
    <glyph glyph-name="abreve" unicode="&#x103;" horiz-adv-x="602" 
d="M136 16q-47 30 -72.5 82t-25.5 117q0 82 35 149.5t97.5 106.5t143.5 39q59 0 101.5 -25.5t62.5 -72.5l17 84h83l-97 -496h-83l15 74q-61 -88 -167 -88q-63 0 -110 30zM364.5 89.5q43.5 30.5 68 82.5t24.5 114q0 70 -38 110.5t-103 40.5q-56 0 -100.5 -29t-69 -79
t-24.5 -110q0 -71 39.5 -115.5t105.5 -44.5q54 0 97.5 30.5zM274.5 592.5q-24.5 24.5 -24.5 59.5q0 10 2 20h64q-1 -5 -1 -11q0 -15 8 -24.5t23 -9.5q19 0 31.5 12t16.5 33h64q-8 -54 -38 -79t-81 -25q-40 0 -64.5 24.5z" />
    <glyph glyph-name="Aogonek" unicode="&#x104;" horiz-adv-x="659" 
d="M526 -119q12 -10 31 -10q11 0 19 2l-3 -65q-21 -6 -45 -6q-40 0 -65 21t-25 60t22 68.5t60 48.5h-2l-40 206h-306l-120 -206h-94l415 700h89l142 -700q-34 -14 -62 -38t-28 -52q0 -19 12 -29zM464 278l-53 276q-1 4 -9 53q-13 -27 -28 -53l-161 -276h251z" />
    <glyph glyph-name="aogonek" unicode="&#x105;" horiz-adv-x="602" 
d="M419 -38q-28 -24 -28 -52q0 -19 12 -29t31 -10q11 0 19 2l-3 -65q-21 -6 -45 -6q-40 0 -65 21t-25 60t22.5 68.5t60.5 48.5l15 74q-61 -88 -167 -88q-63 0 -110 30t-72.5 82t-25.5 117q0 82 35 149.5t97.5 106.5t143.5 39q59 0 101.5 -25.5t62.5 -72.5l17 84h83l-97 -496
q-34 -14 -62 -38zM364.5 89.5q43.5 30.5 68 82.5t24.5 114q0 70 -38 110.5t-103 40.5q-56 0 -100.5 -29t-69 -79t-24.5 -110q0 -71 39.5 -115.5t105.5 -44.5q54 0 97.5 30.5z" />
    <glyph glyph-name="Cacute" unicode="&#x106;" horiz-adv-x="742" 
d="M202 25q-66 39 -101.5 109.5t-35.5 162.5q0 109 50.5 205t142.5 154t211 58q101 0 168.5 -49t97.5 -132l-70 -43q-30 77 -83 113t-128 36q-86 0 -156 -48t-109 -126t-39 -163q0 -70 27 -125t76 -85.5t113 -30.5q74 0 136 40.5t107 114.5l64 -45q-58 -93 -135 -139
t-181 -46q-89 0 -155 39zM538 907h111l-133 -145h-68z" />
    <glyph glyph-name="cacute" unicode="&#x107;" horiz-adv-x="558" 
d="M148 14.5q-51 28.5 -80 81.5t-29 123q0 74 34 141t100 108.5t157 41.5q74 0 127 -36t77 -100l-67 -38q-41 100 -148 100q-57 0 -101.5 -30t-69 -79t-24.5 -104q0 -77 41.5 -120t104.5 -43q59 0 100 28t76 84l59 -42q-42 -74 -101 -109t-140 -35q-65 0 -116 28.5zM396 703
h111l-132 -145h-69z" />
    <glyph glyph-name="Ccircumflex" unicode="&#x108;" horiz-adv-x="742" 
d="M202 25q-66 39 -101.5 109.5t-35.5 162.5q0 109 50.5 205t142.5 154t211 58q101 0 168.5 -49t97.5 -132l-70 -43q-30 77 -83 113t-128 36q-86 0 -156 -48t-109 -126t-39 -163q0 -70 27 -125t76 -85.5t113 -30.5q74 0 136 40.5t107 114.5l64 -45q-58 -93 -135 -139
t-181 -46q-89 0 -155 39zM476 906h66l76 -144h-64l-58 72l-82 -72h-70z" />
    <glyph glyph-name="ccircumflex" unicode="&#x109;" horiz-adv-x="558" 
d="M148 14.5q-51 28.5 -80 81.5t-29 123q0 74 34 141t100 108.5t157 41.5q74 0 127 -36t77 -100l-67 -38q-41 100 -148 100q-57 0 -101.5 -30t-69 -79t-24.5 -104q0 -77 41.5 -120t104.5 -43q59 0 100 28t76 84l59 -42q-42 -74 -101 -109t-140 -35q-65 0 -116 28.5zM336 702
h67l76 -144h-65l-58 72l-81 -72h-71z" />
    <glyph glyph-name="Cdotaccent" unicode="&#x10a;" horiz-adv-x="742" 
d="M202 25q-66 39 -101.5 109.5t-35.5 162.5q0 109 50.5 205t142.5 154t211 58q101 0 168.5 -49t97.5 -132l-70 -43q-30 77 -83 113t-128 36q-86 0 -156 -48t-109 -126t-39 -163q0 -70 27 -125t76 -85.5t113 -30.5q74 0 136 40.5t107 114.5l64 -45q-58 -93 -135 -139
t-181 -46q-89 0 -155 39zM458 884h97l-19 -97h-97z" />
    <glyph glyph-name="cdotaccent" unicode="&#x10b;" horiz-adv-x="558" 
d="M148 14.5q-51 28.5 -80 81.5t-29 123q0 74 34 141t100 108.5t157 41.5q74 0 127 -36t77 -100l-67 -38q-41 100 -148 100q-57 0 -101.5 -30t-69 -79t-24.5 -104q0 -77 41.5 -120t104.5 -43q59 0 100 28t76 84l59 -42q-42 -74 -101 -109t-140 -35q-65 0 -116 28.5zM318 680
h97l-19 -97h-97z" />
    <glyph glyph-name="Ccaron" unicode="&#x10c;" horiz-adv-x="742" 
d="M202 25q-66 39 -101.5 109.5t-35.5 162.5q0 109 50.5 205t142.5 154t211 58q101 0 168.5 -49t97.5 -132l-70 -43q-30 77 -83 113t-128 36q-86 0 -156 -48t-109 -126t-39 -163q0 -70 27 -125t76 -85.5t113 -30.5q74 0 136 40.5t107 114.5l64 -45q-58 -93 -135 -139
t-181 -46q-89 0 -155 39zM373 906h65l58 -72l81 72h71l-132 -144h-67z" />
    <glyph glyph-name="ccaron" unicode="&#x10d;" horiz-adv-x="558" 
d="M148 14.5q-51 28.5 -80 81.5t-29 123q0 74 34 141t100 108.5t157 41.5q74 0 127 -36t77 -100l-67 -38q-41 100 -148 100q-57 0 -101.5 -30t-69 -79t-24.5 -104q0 -77 41.5 -120t104.5 -43q59 0 100 28t76 84l59 -42q-42 -74 -101 -109t-140 -35q-65 0 -116 28.5zM233 702
h65l58 -72l81 72h71l-132 -144h-67z" />
    <glyph glyph-name="Dcaron" unicode="&#x10e;" horiz-adv-x="686" 
d="M175 700h190q88 0 154.5 -33t103.5 -98t37 -159q0 -118 -50.5 -211t-146.5 -146t-226 -53h-199zM244 75q104 0 178.5 43t113.5 118t39 170q0 111 -61.5 165t-168.5 54h-101l-107 -550h107zM232 906h65l58 -72l81 72h71l-132 -144h-67z" />
    <glyph glyph-name="dcaron" unicode="&#x10f;" horiz-adv-x="686" 
d="M145 14.5q-49 28.5 -77 81.5t-28 122q0 84 34.5 150.5t96.5 104t142 37.5q60 0 105.5 -26.5t67.5 -71.5l56 288h83l-136 -700h-83l14 74q-24 -40 -68.5 -64t-95.5 -24q-62 0 -111 28.5zM370 89.5q45 30.5 70.5 82t25.5 111.5q0 70 -43.5 112t-109.5 42q-54 0 -96.5 -28
t-67 -77t-24.5 -109q0 -78 40.5 -121t105.5 -43q54 0 99 30.5zM657 522l52 92h-37l17 86h85l-17 -87l-83 -101z" />
    <glyph glyph-name="Dcroat" unicode="&#x110;" horiz-adv-x="714" 
d="M125 314h-74l14 72h74l62 314h190q87 0 154.5 -34t105 -100.5t37.5 -160.5q0 -117 -51 -209t-147 -144t-227 -52h-199zM270 75q104 0 179 42t114 115.5t39 168.5q0 112 -62 168t-169 56h-101l-47 -239h154l-14 -72h-154l-46 -239h107z" />
    <glyph glyph-name="dcroat" unicode="&#x111;" horiz-adv-x="608" 
d="M660 570h-60l-111 -570h-83l14 74q-24 -40 -68.5 -64t-95.5 -24q-62 0 -111 28.5t-77 81.5t-28 122q0 84 34.5 150.5t96.5 104t142 37.5q60 0 105.5 -26.5t67.5 -71.5l31 158h-163l12 64h163l13 66h83l-13 -66h60zM370 89.5q45 30.5 70.5 82t25.5 111.5q0 70 -43.5 112
t-109.5 42q-54 0 -96.5 -28t-67 -77t-24.5 -109q0 -78 40.5 -121t105.5 -43q54 0 99 30.5z" />
    <glyph glyph-name="Emacron" unicode="&#x112;" horiz-adv-x="587" 
d="M175 700h433l-15 -74h-349l-44 -227h321l-14 -74h-321l-49 -251h352l-15 -74h-436zM319 873h220l-13 -68h-220z" />
    <glyph glyph-name="emacron" unicode="&#x113;" horiz-adv-x="576" 
d="M149.5 13q-50.5 27 -80.5 80.5t-30 131.5t37 143t102.5 103.5t146.5 38.5q68 0 116.5 -26t74 -71t25.5 -102q0 -26 -5 -54l-4 -22h-413q-2 -7 -2 -22q0 -44 19.5 -80t54 -57t79.5 -21q60 0 101 29t74 87l59 -38q-42 -75 -100.5 -111t-140.5 -36q-63 0 -113.5 27zM464 299
l1 20q0 56 -40 91t-104 35q-65 0 -117 -40t-69 -106h329zM252 669h220l-13 -68h-220z" />
    <glyph glyph-name="Ebreve" unicode="&#x114;" horiz-adv-x="587" 
d="M175 700h433l-15 -74h-349l-44 -227h321l-14 -74h-321l-49 -251h352l-15 -74h-436zM350.5 796.5q-24.5 24.5 -24.5 59.5q0 10 2 20h64q-1 -5 -1 -11q0 -15 8 -24.5t23 -9.5q19 0 31.5 12t16.5 33h64q-8 -54 -38 -79t-81 -25q-40 0 -64.5 24.5z" />
    <glyph glyph-name="ebreve" unicode="&#x115;" horiz-adv-x="576" 
d="M149.5 13q-50.5 27 -80.5 80.5t-30 131.5t37 143t102.5 103.5t146.5 38.5q68 0 116.5 -26t74 -71t25.5 -102q0 -26 -5 -54l-4 -22h-413q-2 -7 -2 -22q0 -44 19.5 -80t54 -57t79.5 -21q60 0 101 29t74 87l59 -38q-42 -75 -100.5 -111t-140.5 -36q-63 0 -113.5 27zM464 299
l1 20q0 56 -40 91t-104 35q-65 0 -117 -40t-69 -106h329zM282.5 592.5q-24.5 24.5 -24.5 59.5q0 10 2 20h64q-1 -5 -1 -11q0 -15 8 -24.5t23 -9.5q19 0 31.5 12t16.5 33h64q-8 -54 -38 -79t-81 -25q-40 0 -64.5 24.5z" />
    <glyph glyph-name="Edotaccent" unicode="&#x116;" horiz-adv-x="587" 
d="M175 700h433l-15 -74h-349l-44 -227h321l-14 -74h-321l-49 -251h352l-15 -74h-436zM383 884h97l-19 -97h-97z" />
    <glyph glyph-name="edotaccent" unicode="&#x117;" horiz-adv-x="576" 
d="M149.5 13q-50.5 27 -80.5 80.5t-30 131.5t37 143t102.5 103.5t146.5 38.5q68 0 116.5 -26t74 -71t25.5 -102q0 -26 -5 -54l-4 -22h-413q-2 -7 -2 -22q0 -44 19.5 -80t54 -57t79.5 -21q60 0 101 29t74 87l59 -38q-42 -75 -100.5 -111t-140.5 -36q-63 0 -113.5 27zM464 299
l1 20q0 56 -40 91t-104 35q-65 0 -117 -40t-69 -106h329zM316 680h97l-19 -97h-97z" />
    <glyph glyph-name="Eogonek" unicode="&#x118;" horiz-adv-x="587" 
d="M244 626l-44 -227h321l-14 -74h-321l-49 -251h352l-15 -74q-34 -14 -62 -38t-28 -52q0 -19 12 -29t31 -10q11 0 19 2l-3 -65q-21 -6 -45 -6q-40 0 -65 21t-25 60t22 68.5t60 48.5h-352l137 700h433l-15 -74h-349z" />
    <glyph glyph-name="eogonek" unicode="&#x119;" horiz-adv-x="576" 
d="M441.5 484q48.5 -26 74 -71t25.5 -102q0 -26 -5 -54l-4 -22h-413q-2 -7 -2 -22q0 -44 19.5 -80t54 -57t79.5 -21q60 0 101 29t74 87l59 -38q-29 -53 -66 -85.5t-84 -48.5q-33 -14 -60.5 -38t-27.5 -51q0 -19 12 -29t31 -10q11 0 19 2l-3 -65q-21 -6 -45 -6q-40 0 -65 21
t-25 60q0 63 59 103q-92 5 -151 66.5t-59 172.5q0 78 37 143t102.5 103.5t146.5 38.5q68 0 116.5 -26zM465 319q0 56 -40 91t-104 35q-65 0 -117 -40t-69 -106h329z" />
    <glyph glyph-name="Ecaron" unicode="&#x11a;" horiz-adv-x="587" 
d="M175 700h433l-15 -74h-349l-44 -227h321l-14 -74h-321l-49 -251h352l-15 -74h-436zM298 906h65l58 -72l81 72h71l-132 -144h-67z" />
    <glyph glyph-name="ecaron" unicode="&#x11b;" horiz-adv-x="576" 
d="M149.5 13q-50.5 27 -80.5 80.5t-30 131.5t37 143t102.5 103.5t146.5 38.5q68 0 116.5 -26t74 -71t25.5 -102q0 -26 -5 -54l-4 -22h-413q-2 -7 -2 -22q0 -44 19.5 -80t54 -57t79.5 -21q60 0 101 29t74 87l59 -38q-42 -75 -100.5 -111t-140.5 -36q-63 0 -113.5 27zM464 299
l1 20q0 56 -40 91t-104 35q-65 0 -117 -40t-69 -106h329zM231 702h65l58 -72l81 72h71l-132 -144h-67z" />
    <glyph glyph-name="Gcircumflex" unicode="&#x11c;" horiz-adv-x="760" 
d="M196 25q-63 39 -97.5 107t-34.5 154q0 119 51.5 217t144 154.5t210.5 56.5q102 0 170 -45.5t99 -125.5l-68 -44q-27 71 -81.5 106.5t-131.5 35.5q-87 0 -157.5 -47t-110.5 -127t-40 -175q0 -64 26 -117t73 -83.5t107 -30.5q63 0 117.5 32.5t91.5 83t52 103.5h-248l14 71
h332l-69 -351h-56l-3 113q-46 -64 -105.5 -95.5t-141.5 -31.5q-81 0 -144 39zM483 906h66l76 -144h-64l-58 72l-82 -72h-70z" />
    <glyph glyph-name="gcircumflex" unicode="&#x11d;" horiz-adv-x="586" 
d="M108.5 -199.5q-43.5 18.5 -66 50t-22.5 69.5q0 36 19 66l73 -23q-10 -17 -10 -39q0 -34 33.5 -54.5t87.5 -20.5q141 0 175 178l11 59q-50 -78 -160 -78q-56 0 -103 25t-75.5 74.5t-28.5 119.5q0 75 32 140t93 104t144 39q57 0 102 -24t63 -61l14 71h83l-92 -472
q-24 -124 -89.5 -183t-180.5 -59q-59 0 -102.5 18.5zM366 108.5q42 30.5 65 80t23 103.5q0 67 -40.5 107.5t-104.5 40.5q-54 0 -96 -29.5t-65 -78t-23 -102.5q0 -72 40.5 -112t103.5 -40q55 0 97 30.5zM332 702h67l76 -144h-65l-58 72l-81 -72h-71z" />
    <glyph glyph-name="Gbreve" unicode="&#x11e;" horiz-adv-x="760" 
d="M196 25q-63 39 -97.5 107t-34.5 154q0 119 51.5 217t144 154.5t210.5 56.5q102 0 170 -45.5t99 -125.5l-68 -44q-27 71 -81.5 106.5t-131.5 35.5q-87 0 -157.5 -47t-110.5 -127t-40 -175q0 -64 26 -117t73 -83.5t107 -30.5q63 0 117.5 32.5t91.5 83t52 103.5h-248l14 71
h332l-69 -351h-56l-3 113q-46 -64 -105.5 -95.5t-141.5 -31.5q-81 0 -144 39zM431.5 796.5q-24.5 24.5 -24.5 59.5q0 10 2 20h64q-1 -5 -1 -11q0 -15 8 -24.5t23 -9.5q19 0 31.5 12t16.5 33h64q-8 -54 -38 -79t-81 -25q-40 0 -64.5 24.5z" />
    <glyph glyph-name="gbreve" unicode="&#x11f;" horiz-adv-x="586" 
d="M108.5 -199.5q-43.5 18.5 -66 50t-22.5 69.5q0 36 19 66l73 -23q-10 -17 -10 -39q0 -34 33.5 -54.5t87.5 -20.5q141 0 175 178l11 59q-50 -78 -160 -78q-56 0 -103 25t-75.5 74.5t-28.5 119.5q0 75 32 140t93 104t144 39q57 0 102 -24t63 -61l14 71h83l-92 -472
q-24 -124 -89.5 -183t-180.5 -59q-59 0 -102.5 18.5zM366 108.5q42 30.5 65 80t23 103.5q0 67 -40.5 107.5t-104.5 40.5q-54 0 -96 -29.5t-65 -78t-23 -102.5q0 -72 40.5 -112t103.5 -40q55 0 97 30.5zM280.5 592.5q-24.5 24.5 -24.5 59.5q0 10 2 20h64q-1 -5 -1 -11
q0 -15 8 -24.5t23 -9.5q19 0 31.5 12t16.5 33h64q-8 -54 -38 -79t-81 -25q-40 0 -64.5 24.5z" />
    <glyph glyph-name="Gdotaccent" unicode="&#x120;" horiz-adv-x="760" 
d="M196 25q-63 39 -97.5 107t-34.5 154q0 119 51.5 217t144 154.5t210.5 56.5q102 0 170 -45.5t99 -125.5l-68 -44q-27 71 -81.5 106.5t-131.5 35.5q-87 0 -157.5 -47t-110.5 -127t-40 -175q0 -64 26 -117t73 -83.5t107 -30.5q63 0 117.5 32.5t91.5 83t52 103.5h-248l14 71
h332l-69 -351h-56l-3 113q-46 -64 -105.5 -95.5t-141.5 -31.5q-81 0 -144 39zM465 884h97l-19 -97h-97z" />
    <glyph glyph-name="gdotaccent" unicode="&#x121;" horiz-adv-x="586" 
d="M108.5 -199.5q-43.5 18.5 -66 50t-22.5 69.5q0 36 19 66l73 -23q-10 -17 -10 -39q0 -34 33.5 -54.5t87.5 -20.5q141 0 175 178l11 59q-50 -78 -160 -78q-56 0 -103 25t-75.5 74.5t-28.5 119.5q0 75 32 140t93 104t144 39q57 0 102 -24t63 -61l14 71h83l-92 -472
q-24 -124 -89.5 -183t-180.5 -59q-59 0 -102.5 18.5zM366 108.5q42 30.5 65 80t23 103.5q0 67 -40.5 107.5t-104.5 40.5q-54 0 -96 -29.5t-65 -78t-23 -102.5q0 -72 40.5 -112t103.5 -40q55 0 97 30.5zM314 680h97l-19 -97h-97z" />
    <glyph glyph-name="uni0122" unicode="&#x122;" horiz-adv-x="760" 
d="M196 25q-63 39 -97.5 107t-34.5 154q0 119 51.5 217t144 154.5t210.5 56.5q102 0 170 -45.5t99 -125.5l-68 -44q-27 71 -81.5 106.5t-131.5 35.5q-87 0 -157.5 -47t-110.5 -127t-40 -175q0 -64 26 -117t73 -83.5t107 -30.5q63 0 117.5 32.5t91.5 83t52 103.5h-248l14 71
h332l-69 -351h-56l-3 113q-46 -64 -105.5 -95.5t-141.5 -31.5q-81 0 -144 39zM244 -268l54 113h-35l19 95h95l-18 -95l-96 -120z" />
    <glyph glyph-name="uni0123" unicode="&#x123;" horiz-adv-x="586" 
d="M108.5 -199.5q-43.5 18.5 -66 50t-22.5 69.5q0 36 19 66l73 -23q-10 -17 -10 -39q0 -34 33.5 -54.5t87.5 -20.5q141 0 175 178l11 59q-50 -78 -160 -78q-56 0 -103 25t-75.5 74.5t-28.5 119.5q0 75 32 140t93 104t144 39q57 0 102 -24t63 -61l14 71h83l-92 -472
q-24 -124 -89.5 -183t-180.5 -59q-59 0 -102.5 18.5zM366 108.5q42 30.5 65 80t23 103.5q0 67 -40.5 107.5t-104.5 40.5q-54 0 -96 -29.5t-65 -78t-23 -102.5q0 -72 40.5 -112t103.5 -40q55 0 97 30.5zM301 659l118 122l17 -15l-79 -107h39l-19 -96h-95z" />
    <glyph glyph-name="Hcircumflex" unicode="&#x124;" horiz-adv-x="689" 
d="M175 700h84l-60 -305h348l60 305h84l-137 -700h-84l63 319h-348l-63 -319h-84zM439 906h66l76 -144h-64l-58 72l-82 -72h-70z" />
    <glyph glyph-name="hcircumflex" unicode="&#x125;" horiz-adv-x="572" 
d="M159 700h82l-55 -280q32 41 80 65.5t102 24.5q70 0 110.5 -35.5t40.5 -102.5q0 -23 -6 -51l-63 -321h-82l61 311q3 17 3 32q0 45 -25 69.5t-72 24.5q-39 0 -76.5 -21t-65 -60t-37.5 -90l-52 -266h-82zM288 906h67l76 -144h-65l-58 72l-81 -72h-71z" />
    <glyph glyph-name="Hbar" unicode="&#x126;" horiz-adv-x="689" 
d="M750 498h-99l-97 -498h-84l63 319h-348l-63 -319h-84l97 498h-97l12 66h98l27 136h84l-27 -136h348l27 136h84l-27 -136h99zM567 498h-348l-20 -103h348z" />
    <glyph glyph-name="hbar" unicode="&#x127;" horiz-adv-x="572" 
d="M478.5 474.5q40.5 -35.5 40.5 -102.5q0 -23 -6 -51l-63 -321h-82l61 311q3 17 3 32q0 45 -25 69.5t-72 24.5q-39 0 -76.5 -21t-65 -60t-37.5 -90l-52 -266h-82l112 570h-61l12 64h61l13 66h82l-13 -66h163l-12 -64h-164l-29 -150q32 41 80 65.5t102 24.5
q70 0 110.5 -35.5z" />
    <glyph glyph-name="Itilde" unicode="&#x128;" horiz-adv-x="257" 
d="M175 700h84l-137 -700h-84zM261.5 775.5q-19.5 10.5 -39.5 29.5q-16 15 -25.5 21t-24.5 6t-24.5 -10t-9.5 -25q0 -8 2 -16l-62 -12q-5 10 -5 29q0 41 26 67.5t75 26.5q30 0 48.5 -10t40.5 -30q17 -15 26.5 -21t23.5 -6q15 0 24 9.5t9 24.5q0 7 -2 17l62 13q4 -20 4 -35
q0 -41 -26 -65t-70 -24q-33 0 -52.5 10.5z" />
    <glyph glyph-name="itilde" unicode="&#x129;" horiz-adv-x="225" 
d="M119 496h83l-97 -496h-83zM205.5 571.5q-19.5 10.5 -39.5 29.5q-16 15 -25.5 21t-24.5 6t-24.5 -10t-9.5 -25q0 -8 2 -16l-62 -12q-5 10 -5 29q0 41 26 67.5t75 26.5q30 0 48.5 -10t40.5 -30q17 -15 26.5 -21t23.5 -6q15 0 24 9.5t9 24.5q0 7 -2 17l62 13q4 -20 4 -35
q0 -41 -26 -65t-70 -24q-33 0 -52.5 10.5z" />
    <glyph glyph-name="Imacron" unicode="&#x12a;" horiz-adv-x="257" 
d="M175 700h84l-137 -700h-84zM140 873h220l-13 -68h-220z" />
    <glyph glyph-name="imacron" unicode="&#x12b;" horiz-adv-x="225" 
d="M119 496h83l-97 -496h-83zM85 669h220l-13 -68h-220z" />
    <glyph glyph-name="Ibreve" unicode="&#x12c;" horiz-adv-x="257" 
d="M175 700h84l-137 -700h-84zM171.5 796.5q-24.5 24.5 -24.5 59.5q0 10 2 20h64q-1 -5 -1 -11q0 -15 8 -24.5t23 -9.5q19 0 31.5 12t16.5 33h64q-8 -54 -38 -79t-81 -25q-40 0 -64.5 24.5z" />
    <glyph glyph-name="ibreve" unicode="&#x12d;" horiz-adv-x="225" 
d="M119 496h83l-97 -496h-83zM114.5 592.5q-24.5 24.5 -24.5 59.5q0 10 2 20h64q-1 -5 -1 -11q0 -15 8 -24.5t23 -9.5q19 0 31.5 12t16.5 33h64q-8 -54 -38 -79t-81 -25q-40 0 -64.5 24.5z" />
    <glyph glyph-name="Iogonek" unicode="&#x12e;" horiz-adv-x="257" 
d="M60 -38q-28 -24 -28 -52q0 -19 12 -29t31 -10q11 0 19 2l-3 -65q-21 -6 -45 -6q-40 0 -65 21t-25 60t22 68.5t60 48.5l137 700h84l-137 -700q-34 -14 -62 -38z" />
    <glyph glyph-name="iogonek" unicode="&#x12f;" horiz-adv-x="225" 
d="M245 680l-19 -97h-97l19 97h97zM119 496h83l-97 -496q-34 -14 -62 -38t-28 -52q0 -19 12 -29t31 -10q11 0 19 2l-3 -65q-21 -6 -45 -6q-40 0 -65 21t-25 60t22.5 68.5t60.5 48.5z" />
    <glyph glyph-name="Idotaccent" unicode="&#x130;" horiz-adv-x="257" 
d="M175 700h84l-137 -700h-84zM204 884h97l-19 -97h-97z" />
    <glyph glyph-name="dotlessi" unicode="&#x131;" horiz-adv-x="225" 
d="M119 496h83l-97 -496h-83z" />
    <glyph glyph-name="IJ" unicode="&#x132;" horiz-adv-x="769" 
d="M175 700h84l-137 -700h-84zM361 7q-41 21 -65 58.5t-24 84.5q0 30 5 52l83 -9q-4 -17 -4 -35q0 -42 32 -69.5t78 -27.5q57 0 95.5 35t51.5 103l97 501h84l-97 -499q-21 -110 -81.5 -162.5t-163.5 -52.5q-50 0 -91 21z" />
    <glyph glyph-name="ij" unicode="&#x133;" horiz-adv-x="450" 
d="M119 496h83l-97 -496h-83zM148 680h97l-19 -97h-97zM108 -202l21 72q18 -8 37 -8q55 0 68 70l110 564h82l-110 -573q-25 -134 -151 -134q-35 0 -57 9zM374 680h97l-19 -97h-97z" />
    <glyph glyph-name="Jcircumflex" unicode="&#x134;" horiz-adv-x="532" 
d="M124 7q-41 21 -65 58.5t-24 84.5q0 30 5 52l83 -9q-4 -17 -4 -35q0 -42 32 -69.5t78 -27.5q57 0 95.5 35t51.5 103l97 501h84l-97 -499q-21 -110 -81.5 -162.5t-163.5 -52.5q-50 0 -91 21zM521 906h66l76 -144h-64l-58 72l-82 -72h-70z" />
    <glyph glyph-name="jcircumflex" unicode="&#x135;" horiz-adv-x="225" 
d="M-117 -202l21 72q18 -8 37 -8q55 0 68 70l110 564h82l-110 -573q-25 -134 -151 -134q-35 0 -57 9zM167 702h67l76 -144h-65l-58 72l-81 -72h-71z" />
    <glyph glyph-name="uni0136" unicode="&#x136;" horiz-adv-x="618" 
d="M175 700h84l-60 -313q11 9 19 16.5t13 12.5q48 43 46 41l278 243h110l-292 -259l176 -441h-95l-151 382l-128 -112l-53 -270h-84zM176 -268l54 113h-35l19 95h95l-18 -95l-96 -120z" />
    <glyph glyph-name="uni0137" unicode="&#x137;" horiz-adv-x="499" 
d="M159 700h82l-74 -381l209 177h109l-202 -171l142 -325h-88l-118 272l-74 -64l-41 -208h-82zM117 -268l54 113h-35l19 95h95l-18 -95l-96 -120z" />
    <glyph glyph-name="kgreenlandic" unicode="&#x138;" horiz-adv-x="494" 
d="M119 496h82l-39 -205l219 205h108l-213 -196l144 -300h-90l-117 243l-74 -67l-35 -176h-82z" />
    <glyph glyph-name="Lacute" unicode="&#x139;" horiz-adv-x="568" 
d="M175 700h84l-122 -625h352l-16 -75h-435zM284 907h111l-133 -145h-68z" />
    <glyph glyph-name="lacute" unicode="&#x13a;" horiz-adv-x="224" 
d="M159 700h82l-137 -700h-82zM266 907h111l-132 -145h-69z" />
    <glyph glyph-name="uni013B" unicode="&#x13b;" horiz-adv-x="568" 
d="M175 700h84l-122 -625h352l-16 -75h-435zM154 -268l54 113h-35l19 95h95l-18 -95l-96 -120z" />
    <glyph glyph-name="uni013C" unicode="&#x13c;" horiz-adv-x="224" 
d="M159 700h82l-137 -700h-82zM-33 -268l54 113h-35l19 95h95l-18 -95l-96 -120z" />
    <glyph glyph-name="Lcaron" unicode="&#x13d;" horiz-adv-x="568" 
d="M175 700h84l-122 -625h352l-16 -75h-435zM453 522l52 92h-37l17 86h85l-17 -87l-83 -101z" />
    <glyph glyph-name="lcaron" unicode="&#x13e;" horiz-adv-x="309" 
d="M159 700h82l-137 -700h-82zM280 522l52 92h-37l17 86h85l-17 -87l-83 -101z" />
    <glyph glyph-name="Ldot" unicode="&#x13f;" horiz-adv-x="568" 
d="M175 700h84l-122 -625h352l-16 -75h-435zM393 399h98l-19 -99h-98z" />
    <glyph glyph-name="ldot" unicode="&#x140;" horiz-adv-x="325" 
d="M159 700h82l-137 -700h-82zM257 400h98l-19 -99h-98z" />
    <glyph glyph-name="Lslash" unicode="&#x141;" horiz-adv-x="568" 
d="M489 75l-16 -75h-435l41 211l-94 -54l16 84l95 54l79 405h84l-69 -352l178 101l-16 -83l-178 -101l-37 -190h352z" />
    <glyph glyph-name="lslash" unicode="&#x142;" horiz-adv-x="224" 
d="M250 381l-80 -45l-66 -336h-82l56 285l-78 -43l15 76l78 44l66 338h82l-56 -287l80 45z" />
    <glyph glyph-name="Nacute" unicode="&#x143;" horiz-adv-x="705" 
d="M175 700h85l233 -526q15 -37 19 -55l114 581h81l-137 -700h-86l-232 526q-16 39 -20 55l-113 -581h-81zM508 907h111l-133 -145h-68z" />
    <glyph glyph-name="nacute" unicode="&#x144;" horiz-adv-x="570" 
d="M120 496h83l-14 -74q65 88 176 88q69 0 110 -36t41 -103q0 -22 -4 -45l-63 -326h-82l61 316q4 22 4 36q0 40 -27 62.5t-73 22.5q-39 0 -75 -21.5t-62 -59.5t-35 -85l-53 -271h-83zM403 703h111l-132 -145h-69z" />
    <glyph glyph-name="uni0145" unicode="&#x145;" horiz-adv-x="705" 
d="M175 700h85l233 -526q15 -37 19 -55l114 581h81l-137 -700h-86l-232 526q-16 39 -20 55l-113 -581h-81zM208 -268l54 113h-35l19 95h95l-18 -95l-96 -120z" />
    <glyph glyph-name="uni0146" unicode="&#x146;" horiz-adv-x="570" 
d="M120 496h83l-14 -74q65 88 176 88q69 0 110 -36t41 -103q0 -22 -4 -45l-63 -326h-82l61 316q4 22 4 36q0 40 -27 62.5t-73 22.5q-39 0 -75 -21.5t-62 -59.5t-35 -85l-53 -271h-83zM144 -268l54 113h-35l19 95h95l-18 -95l-96 -120z" />
    <glyph glyph-name="Ncaron" unicode="&#x147;" horiz-adv-x="705" 
d="M175 700h85l233 -526q15 -37 19 -55l114 581h81l-137 -700h-86l-232 526q-16 39 -20 55l-113 -581h-81zM343 906h65l58 -72l81 72h71l-132 -144h-67z" />
    <glyph glyph-name="ncaron" unicode="&#x148;" horiz-adv-x="570" 
d="M120 496h83l-14 -74q65 88 176 88q69 0 110 -36t41 -103q0 -22 -4 -45l-63 -326h-82l61 316q4 22 4 36q0 40 -27 62.5t-73 22.5q-39 0 -75 -21.5t-62 -59.5t-35 -85l-53 -271h-83zM240 702h65l58 -72l81 72h71l-132 -144h-67z" />
    <glyph glyph-name="Eng" unicode="&#x14a;" horiz-adv-x="706" 
d="M273 -200l34 73q26 -16 61 -16q88 0 113 120l5 23l-235 525q-11 25 -19 55l-113 -580h-81l136 700h90l231 -522q9 -20 20 -55l112 577h81l-141 -725q-18 -95 -69.5 -144t-140.5 -49q-51 0 -84 18z" />
    <glyph glyph-name="eng" unicode="&#x14b;" horiz-adv-x="570" 
d="M227 -202l21 72q18 -8 37 -8q55 0 68 70l75 384q4 22 4 36q0 40 -27 62.5t-73 22.5q-39 0 -75 -21.5t-62 -59.5t-35 -85l-53 -271h-83l96 496h83l-14 -74q65 88 176 88q69 0 110 -36t41 -103q0 -22 -4 -45l-77 -403q-25 -134 -151 -134q-34 0 -57 9z" />
    <glyph glyph-name="Omacron" unicode="&#x14c;" horiz-adv-x="784" 
d="M214 24.5q-69 38.5 -108.5 109.5t-39.5 164q0 106 47.5 202t136 155t204.5 59q93 0 161.5 -37.5t105.5 -107.5t37 -167q0 -109 -46 -204t-133.5 -153.5t-207.5 -58.5q-88 0 -157 38.5zM531.5 107.5q67.5 46.5 104 123.5t36.5 165q0 118 -61.5 180.5t-168.5 62.5
q-83 0 -149.5 -48t-104 -125.5t-37.5 -162.5q0 -74 30 -129t81.5 -84t114.5 -29q87 0 154.5 46.5zM397 873h220l-13 -68h-220z" />
    <glyph glyph-name="omacron" unicode="&#x14d;" horiz-adv-x="599" 
d="M155.5 12.5q-53.5 26.5 -86 77.5t-32.5 122q0 83 37 151t103.5 107.5t152.5 39.5q64 0 116.5 -25.5t83.5 -75.5t31 -122q0 -86 -37 -154.5t-103.5 -107.5t-149.5 -39q-62 0 -115.5 26.5zM378 87.5q45 28.5 72 78.5t27 111q0 74 -43.5 117t-115.5 43q-57 0 -102 -31.5
t-70 -82t-25 -104.5q0 -73 44.5 -116.5t114.5 -43.5q53 0 98 28.5zM264 669h220l-13 -68h-220z" />
    <glyph glyph-name="Obreve" unicode="&#x14e;" horiz-adv-x="784" 
d="M214 24.5q-69 38.5 -108.5 109.5t-39.5 164q0 106 47.5 202t136 155t204.5 59q93 0 161.5 -37.5t105.5 -107.5t37 -167q0 -109 -46 -204t-133.5 -153.5t-207.5 -58.5q-88 0 -157 38.5zM531.5 107.5q67.5 46.5 104 123.5t36.5 165q0 118 -61.5 180.5t-168.5 62.5
q-83 0 -149.5 -48t-104 -125.5t-37.5 -162.5q0 -74 30 -129t81.5 -84t114.5 -29q87 0 154.5 46.5zM428.5 796.5q-24.5 24.5 -24.5 59.5q0 10 2 20h64q-1 -5 -1 -11q0 -15 8 -24.5t23 -9.5q19 0 31.5 12t16.5 33h64q-8 -54 -38 -79t-81 -25q-40 0 -64.5 24.5z" />
    <glyph glyph-name="obreve" unicode="&#x14f;" horiz-adv-x="599" 
d="M155.5 12.5q-53.5 26.5 -86 77.5t-32.5 122q0 83 37 151t103.5 107.5t152.5 39.5q64 0 116.5 -25.5t83.5 -75.5t31 -122q0 -86 -37 -154.5t-103.5 -107.5t-149.5 -39q-62 0 -115.5 26.5zM378 87.5q45 28.5 72 78.5t27 111q0 74 -43.5 117t-115.5 43q-57 0 -102 -31.5
t-70 -82t-25 -104.5q0 -73 44.5 -116.5t114.5 -43.5q53 0 98 28.5zM294.5 592.5q-24.5 24.5 -24.5 59.5q0 10 2 20h64q-1 -5 -1 -11q0 -15 8 -24.5t23 -9.5q19 0 31.5 12t16.5 33h64q-8 -54 -38 -79t-81 -25q-40 0 -64.5 24.5z" />
    <glyph glyph-name="Ohungarumlaut" unicode="&#x150;" horiz-adv-x="784" 
d="M214 24.5q-69 38.5 -108.5 109.5t-39.5 164q0 106 47.5 202t136 155t204.5 59q93 0 161.5 -37.5t105.5 -107.5t37 -167q0 -109 -46 -204t-133.5 -153.5t-207.5 -58.5q-88 0 -157 38.5zM531.5 107.5q67.5 46.5 104 123.5t36.5 165q0 118 -61.5 180.5t-168.5 62.5
q-83 0 -149.5 -48t-104 -125.5t-37.5 -162.5q0 -74 30 -129t81.5 -84t114.5 -29q87 0 154.5 46.5zM433 907h112l-134 -145h-69zM592 907h111l-134 -145h-68z" />
    <glyph glyph-name="ohungarumlaut" unicode="&#x151;" horiz-adv-x="599" 
d="M155.5 12.5q-53.5 26.5 -86 77.5t-32.5 122q0 83 37 151t103.5 107.5t152.5 39.5q64 0 116.5 -25.5t83.5 -75.5t31 -122q0 -86 -37 -154.5t-103.5 -107.5t-149.5 -39q-62 0 -115.5 26.5zM378 87.5q45 28.5 72 78.5t27 111q0 74 -43.5 117t-115.5 43q-57 0 -102 -31.5
t-70 -82t-25 -104.5q0 -73 44.5 -116.5t114.5 -43.5q53 0 98 28.5zM318 703h112l-134 -145h-69zM477 703h112l-135 -145h-68z" />
    <glyph glyph-name="OE" unicode="&#x152;" horiz-adv-x="1150" 
d="M214 24.5q-69 38.5 -108.5 109.5t-39.5 164q0 106 47.5 202t136 155t204.5 59q88 0 153 -39t100 -110l27 135h437l-15 -74h-353l-44 -227h325l-14 -74h-325l-49 -251h356l-15 -74h-440l19 99q-45 -52 -107.5 -82.5t-137.5 -30.5q-88 0 -157 38.5zM531.5 107.5
q67.5 46.5 104 124t36.5 165.5q0 117 -61.5 179.5t-166.5 62.5q-84 0 -151 -48t-104.5 -125.5t-37.5 -162.5q0 -74 30 -129t81.5 -84t114.5 -29q87 0 154.5 46.5z" />
    <glyph glyph-name="oe" unicode="&#x153;" horiz-adv-x="1014" 
d="M155.5 12.5q-53.5 26.5 -86 77.5t-32.5 122q0 83 37 151t103.5 107.5t152.5 39.5q68 0 122 -30.5t83 -88.5q37 55 97 87t132 32q68 0 116.5 -26t74 -71t25.5 -102q0 -22 -5 -54l-5 -22h-413q-1 -7 -1 -22q0 -44 19.5 -80t54 -57t79.5 -21q60 0 101 29t74 87l59 -38
q-42 -75 -100.5 -111t-140.5 -36q-66 0 -119 31.5t-79 91.5q-40 -59 -99.5 -91t-133.5 -32q-62 0 -115.5 26.5zM903 299l1 20q0 56 -40.5 91t-104.5 35q-65 0 -116.5 -40t-69.5 -106h330zM378 87.5q45 28.5 72 78.5t27 111q0 74 -43.5 117t-115.5 43q-57 0 -102 -31.5
t-70 -82t-25 -104.5q0 -73 44.5 -116.5t114.5 -43.5q53 0 98 28.5z" />
    <glyph glyph-name="Racute" unicode="&#x154;" horiz-adv-x="635" 
d="M175 700h262q98 0 153 -46.5t55 -128.5q0 -86 -60 -144.5t-152 -72.5l113 -308h-89l-113 303h-162l-60 -303h-84zM379 376q77 0 128.5 36.5t51.5 102.5q0 112 -131 112h-183l-49 -251h183zM467 907h111l-133 -145h-68z" />
    <glyph glyph-name="racute" unicode="&#x155;" horiz-adv-x="348" 
d="M120 496h83l-15 -77q27 46 64.5 68.5t89.5 22.5q18 0 35 -5l-24 -74q-17 6 -42 6q-53 0 -95 -48.5t-58 -128.5l-51 -260h-83zM302 703h111l-132 -145h-69z" />
    <glyph glyph-name="uni0156" unicode="&#x156;" horiz-adv-x="635" 
d="M175 700h262q98 0 153 -46.5t55 -128.5q0 -86 -60 -144.5t-152 -72.5l113 -308h-89l-113 303h-162l-60 -303h-84zM379 376q77 0 128.5 36.5t51.5 102.5q0 112 -131 112h-183l-49 -251h183zM171 -268l54 113h-35l19 95h95l-18 -95l-96 -120z" />
    <glyph glyph-name="uni0157" unicode="&#x157;" horiz-adv-x="348" 
d="M120 496h83l-15 -77q27 46 64.5 68.5t89.5 22.5q18 0 35 -5l-24 -74q-17 6 -42 6q-53 0 -95 -48.5t-58 -128.5l-51 -260h-83zM-32 -268l54 113h-35l19 95h95l-18 -95l-96 -120z" />
    <glyph glyph-name="Rcaron" unicode="&#x158;" horiz-adv-x="635" 
d="M175 700h262q98 0 153 -46.5t55 -128.5q0 -86 -60 -144.5t-152 -72.5l113 -308h-89l-113 303h-162l-60 -303h-84zM379 376q77 0 128.5 36.5t51.5 102.5q0 112 -131 112h-183l-49 -251h183zM302 906h65l58 -72l81 72h71l-132 -144h-67z" />
    <glyph glyph-name="rcaron" unicode="&#x159;" horiz-adv-x="348" 
d="M120 496h83l-15 -77q27 46 64.5 68.5t89.5 22.5q18 0 35 -5l-24 -74q-17 6 -42 6q-53 0 -95 -48.5t-58 -128.5l-51 -260h-83zM139 702h65l58 -72l81 72h71l-132 -144h-67z" />
    <glyph glyph-name="Sacute" unicode="&#x15a;" horiz-adv-x="629" 
d="M163.5 15.5q-54.5 29.5 -85 79t-37.5 109.5l79 40q7 -82 53 -133.5t127 -51.5q46 0 86 17.5t64 50.5t24 77q0 53 -37 79.5t-123 48.5q-89 22 -139 67t-50 116q0 60 32 105t89.5 69.5t131.5 24.5q88 0 146.5 -43.5t81.5 -124.5l-68 -42q-37 137 -171 137q-65 0 -112 -31
t-47 -86q0 -49 39.5 -79t124.5 -49q90 -21 138 -63.5t48 -113.5q0 -69 -33 -122t-93 -82t-138 -29q-76 0 -130.5 29.5zM465 907h111l-133 -145h-68z" />
    <glyph glyph-name="sacute" unicode="&#x15b;" horiz-adv-x="485" 
d="M90.5 28q-51.5 42 -64.5 104l69 39q8 -51 41 -83.5t87 -32.5q52 0 82.5 25t30.5 66q0 35 -24 52.5t-85 33.5q-140 35 -140 136q0 63 50 102.5t130 39.5q71 0 114.5 -32t60.5 -88l-62 -33q-28 89 -117 89q-38 0 -69 -19t-31 -53q0 -31 26.5 -51t86.5 -34
q70 -16 104.5 -49.5t34.5 -87.5q0 -75 -54.5 -120.5t-143.5 -45.5q-75 0 -126.5 42zM343 703h111l-132 -145h-69z" />
    <glyph glyph-name="Scircumflex" unicode="&#x15c;" horiz-adv-x="629" 
d="M163.5 15.5q-54.5 29.5 -85 79t-37.5 109.5l79 40q7 -82 53 -133.5t127 -51.5q46 0 86 17.5t64 50.5t24 77q0 53 -37 79.5t-123 48.5q-89 22 -139 67t-50 116q0 60 32 105t89.5 69.5t131.5 24.5q88 0 146.5 -43.5t81.5 -124.5l-68 -42q-37 137 -171 137q-65 0 -112 -31
t-47 -86q0 -49 39.5 -79t124.5 -49q90 -21 138 -63.5t48 -113.5q0 -69 -33 -122t-93 -82t-138 -29q-76 0 -130.5 29.5zM404 906h66l76 -144h-64l-58 72l-82 -72h-70z" />
    <glyph glyph-name="scircumflex" unicode="&#x15d;" horiz-adv-x="485" 
d="M90.5 28q-51.5 42 -64.5 104l69 39q8 -51 41 -83.5t87 -32.5q52 0 82.5 25t30.5 66q0 35 -24 52.5t-85 33.5q-140 35 -140 136q0 63 50 102.5t130 39.5q71 0 114.5 -32t60.5 -88l-62 -33q-28 89 -117 89q-38 0 -69 -19t-31 -53q0 -31 26.5 -51t86.5 -34
q70 -16 104.5 -49.5t34.5 -87.5q0 -75 -54.5 -120.5t-143.5 -45.5q-75 0 -126.5 42zM283 702h67l76 -144h-65l-58 72l-81 -72h-71z" />
    <glyph glyph-name="Scedilla" unicode="&#x15e;" horiz-adv-x="629" 
d="M510 332.5q48 -42.5 48 -113.5q0 -69 -33 -122t-93 -82t-138 -29h-1l-30 -43q21 13 44 13q29 0 47.5 -18t18.5 -51q0 -42 -27 -66.5t-75 -24.5q-35 0 -55 16.5t-26 44.5l50 12q5 -28 36 -28q18 0 29.5 10.5t11.5 31.5q0 15 -9.5 23.5t-25.5 8.5q-12 0 -22.5 -5t-24.5 -15
l-26 29l35 66q-89 14 -141 73t-62 141l79 40q7 -82 53 -133.5t127 -51.5q46 0 86 17.5t64 50.5t24 77q0 53 -37 79.5t-123 48.5q-89 22 -139 67t-50 116q0 60 32 105t89.5 69.5t131.5 24.5q88 0 146.5 -43.5t81.5 -124.5l-68 -42q-37 137 -171 137q-65 0 -112 -31t-47 -86
q0 -49 39.5 -79t124.5 -49q90 -21 138 -63.5z" />
    <glyph glyph-name="scedilla" unicode="&#x15f;" horiz-adv-x="485" 
d="M380.5 239.5q34.5 -33.5 34.5 -87.5q0 -75 -54.5 -120.5t-143.5 -45.5h-9l-30 -43q21 13 44 13q29 0 47.5 -18t18.5 -51q0 -42 -27 -66.5t-75 -24.5q-35 0 -55 16.5t-26 44.5l50 12q5 -28 36 -28q18 0 29.5 10.5t11.5 31.5q0 15 -9.5 23.5t-25.5 8.5q-12 0 -22.5 -5
t-24.5 -15l-26 29l37 69q-53 14 -88.5 51.5t-46.5 87.5l69 39q8 -51 41 -83.5t87 -32.5q52 0 82.5 25t30.5 66q0 35 -24 52.5t-85 33.5q-140 35 -140 136q0 63 50 102.5t130 39.5q71 0 114.5 -32t60.5 -88l-62 -33q-28 89 -117 89q-38 0 -69 -19t-31 -53q0 -31 26.5 -51
t86.5 -34q70 -16 104.5 -49.5z" />
    <glyph glyph-name="Scaron" unicode="&#x160;" horiz-adv-x="629" 
d="M163.5 15.5q-54.5 29.5 -85 79t-37.5 109.5l79 40q7 -82 53 -133.5t127 -51.5q46 0 86 17.5t64 50.5t24 77q0 53 -37 79.5t-123 48.5q-89 22 -139 67t-50 116q0 60 32 105t89.5 69.5t131.5 24.5q88 0 146.5 -43.5t81.5 -124.5l-68 -42q-37 137 -171 137q-65 0 -112 -31
t-47 -86q0 -49 39.5 -79t124.5 -49q90 -21 138 -63.5t48 -113.5q0 -69 -33 -122t-93 -82t-138 -29q-76 0 -130.5 29.5zM300 906h65l58 -72l81 72h71l-132 -144h-67z" />
    <glyph glyph-name="scaron" unicode="&#x161;" horiz-adv-x="485" 
d="M90.5 28q-51.5 42 -64.5 104l69 39q8 -51 41 -83.5t87 -32.5q52 0 82.5 25t30.5 66q0 35 -24 52.5t-85 33.5q-140 35 -140 136q0 63 50 102.5t130 39.5q71 0 114.5 -32t60.5 -88l-62 -33q-28 89 -117 89q-38 0 -69 -19t-31 -53q0 -31 26.5 -51t86.5 -34
q70 -16 104.5 -49.5t34.5 -87.5q0 -75 -54.5 -120.5t-143.5 -45.5q-75 0 -126.5 42zM180 702h65l58 -72l81 72h71l-132 -144h-67z" />
    <glyph glyph-name="uni0162" unicode="&#x162;" horiz-adv-x="553" 
d="M621 700l-15 -75h-215l-121 -625h-20l-40 -57q21 13 44 13q29 0 47.5 -18t18.5 -51q0 -42 -27 -66.5t-75 -24.5q-35 0 -55 16.5t-26 44.5l50 12q5 -28 36 -28q18 0 29.5 10.5t11.5 31.5q0 15 -9.5 23.5t-25.5 8.5q-12 0 -22.5 -5t-24.5 -15l-26 29l40 76h-10l121 625
h-214l15 75h513z" />
    <glyph glyph-name="uni0163" unicode="&#x163;" horiz-adv-x="344" 
d="M172 135q-3 -16 -3 -28q0 -24 14.5 -37t38.5 -13q20 0 40 6l-5 -67q-29 -10 -66 -10q-9 0 -25 2l-31 -45q21 13 44 13q29 0 47.5 -18t18.5 -51q0 -42 -27 -66.5t-75 -24.5q-35 0 -55 16.5t-26 44.5l50 12q5 -28 36 -28q18 0 29.5 10.5t11.5 31.5q0 15 -9.5 23.5
t-25.5 8.5q-12 0 -22.5 -5t-24.5 -15l-26 29l43 81q-39 28 -39 85q0 26 4 43l57 300h-83l13 63h83l26 134h83l-26 -134h114l-12 -63h-115z" />
    <glyph glyph-name="Tcaron" unicode="&#x164;" horiz-adv-x="553" 
d="M307 625h-214l15 75h513l-15 -75h-215l-121 -625h-84zM267 906h65l58 -72l81 72h71l-132 -144h-67z" />
    <glyph glyph-name="tcaron" unicode="&#x165;" horiz-adv-x="344" 
d="M114.5 13q-29.5 27 -29.5 77q0 26 4 43l57 300h-83l13 63h83l26 134h83l-26 -134h114l-12 -63h-115l-57 -298q-3 -16 -3 -28q0 -24 14.5 -37t38.5 -13q20 0 40 6l-5 -67q-29 -10 -66 -10q-47 0 -76.5 27zM321 555l52 92h-37l17 86h85l-17 -87l-83 -101z" />
    <glyph glyph-name="Tbar" unicode="&#x166;" horiz-adv-x="553" 
d="M255 358h-147l14 66h147l38 201h-214l15 75h513l-15 -75h-215l-38 -201h147l-13 -66h-148l-69 -358h-84z" />
    <glyph glyph-name="tbar" unicode="&#x167;" horiz-adv-x="344" 
d="M114.5 13q-29.5 27 -29.5 77q0 26 4 43l18 98h-67l12 60h67l27 142h-83l13 63h83l26 134h83l-26 -134h114l-12 -63h-115l-28 -142h105l-12 -60h-104l-18 -96q-3 -16 -3 -28q0 -24 14.5 -37t38.5 -13q20 0 40 6l-5 -67q-29 -10 -66 -10q-47 0 -76.5 27z" />
    <glyph glyph-name="Utilde" unicode="&#x168;" horiz-adv-x="668" 
d="M174 10.5q-49 24.5 -77 72t-28 111.5q0 37 7 73l84 433h84l-88 -451q-4 -23 -4 -48q0 -63 39 -101.5t107 -38.5q85 0 140 47t72 131l89 461h84l-90 -466q-24 -126 -103 -187t-205 -61q-62 0 -111 24.5zM460.5 775.5q-19.5 10.5 -39.5 29.5q-16 15 -25.5 21t-24.5 6
t-24.5 -10t-9.5 -25q0 -8 2 -16l-62 -12q-5 10 -5 29q0 41 26 67.5t75 26.5q30 0 48.5 -10t40.5 -30q17 -15 26.5 -21t23.5 -6q15 0 24 9.5t9 24.5q0 7 -2 17l62 13q4 -20 4 -35q0 -41 -26 -65t-70 -24q-33 0 -52.5 10.5z" />
    <glyph glyph-name="utilde" unicode="&#x169;" horiz-adv-x="570" 
d="M98.5 27q-43.5 41 -43.5 108q0 16 5 48l61 313h82l-59 -303q-4 -25 -4 -42q0 -43 27.5 -67.5t75.5 -24.5q37 0 72 22t61 63t37 96l50 256h83l-96 -496h-83l14 74q-26 -41 -70 -64.5t-96 -23.5q-73 0 -116.5 41zM376.5 571.5q-19.5 10.5 -39.5 29.5q-16 15 -25.5 21
t-24.5 6t-24.5 -10t-9.5 -25q0 -8 2 -16l-62 -12q-5 10 -5 29q0 41 26 67.5t75 26.5q30 0 48.5 -10t40.5 -30q17 -15 26.5 -21t23.5 -6q15 0 24 9.5t9 24.5q0 7 -2 17l62 13q4 -20 4 -35q0 -41 -26 -65t-70 -24q-33 0 -52.5 10.5z" />
    <glyph glyph-name="Umacron" unicode="&#x16a;" horiz-adv-x="668" 
d="M174 10.5q-49 24.5 -77 72t-28 111.5q0 37 7 73l84 433h84l-88 -451q-4 -23 -4 -48q0 -63 39 -101.5t107 -38.5q85 0 140 47t72 131l89 461h84l-90 -466q-24 -126 -103 -187t-205 -61q-62 0 -111 24.5zM339 873h220l-13 -68h-220z" />
    <glyph glyph-name="umacron" unicode="&#x16b;" horiz-adv-x="570" 
d="M98.5 27q-43.5 41 -43.5 108q0 16 5 48l61 313h82l-59 -303q-4 -25 -4 -42q0 -43 27.5 -67.5t75.5 -24.5q37 0 72 22t61 63t37 96l50 256h83l-96 -496h-83l14 74q-26 -41 -70 -64.5t-96 -23.5q-73 0 -116.5 41zM256 669h220l-13 -68h-220z" />
    <glyph glyph-name="Ubreve" unicode="&#x16c;" horiz-adv-x="668" 
d="M174 10.5q-49 24.5 -77 72t-28 111.5q0 37 7 73l84 433h84l-88 -451q-4 -23 -4 -48q0 -63 39 -101.5t107 -38.5q85 0 140 47t72 131l89 461h84l-90 -466q-24 -126 -103 -187t-205 -61q-62 0 -111 24.5zM370.5 796.5q-24.5 24.5 -24.5 59.5q0 10 2 20h64q-1 -5 -1 -11
q0 -15 8 -24.5t23 -9.5q19 0 31.5 12t16.5 33h64q-8 -54 -38 -79t-81 -25q-40 0 -64.5 24.5z" />
    <glyph glyph-name="ubreve" unicode="&#x16d;" horiz-adv-x="570" 
d="M98.5 27q-43.5 41 -43.5 108q0 16 5 48l61 313h82l-59 -303q-4 -25 -4 -42q0 -43 27.5 -67.5t75.5 -24.5q37 0 72 22t61 63t37 96l50 256h83l-96 -496h-83l14 74q-26 -41 -70 -64.5t-96 -23.5q-73 0 -116.5 41zM286.5 592.5q-24.5 24.5 -24.5 59.5q0 10 2 20h64
q-1 -5 -1 -11q0 -15 8 -24.5t23 -9.5q19 0 31.5 12t16.5 33h64q-8 -54 -38 -79t-81 -25q-40 0 -64.5 24.5z" />
    <glyph glyph-name="Uring" unicode="&#x16e;" horiz-adv-x="668" 
d="M174 10.5q-49 24.5 -77 72t-28 111.5q0 37 7 73l84 433h84l-88 -451q-4 -23 -4 -48q0 -63 39 -101.5t107 -38.5q85 0 140 47t72 131l89 461h84l-90 -466q-24 -126 -103 -187t-205 -61q-62 0 -111 24.5zM375 771.5q-28 27.5 -28 67.5t28 67.5t68 27.5t68 -27.5t28 -67.5
t-28 -67.5t-68 -27.5t-68 27.5zM476 805.5q13 13.5 13 33.5t-13 33.5t-33 13.5t-33 -13.5t-13 -33.5t13 -33.5t33 -13.5t33 13.5z" />
    <glyph glyph-name="uring" unicode="&#x16f;" horiz-adv-x="570" 
d="M98.5 27q-43.5 41 -43.5 108q0 16 5 48l61 313h82l-59 -303q-4 -25 -4 -42q0 -43 27.5 -67.5t75.5 -24.5q37 0 72 22t61 63t37 96l50 256h83l-96 -496h-83l14 74q-26 -41 -70 -64.5t-96 -23.5q-73 0 -116.5 41zM291 567.5q-28 27.5 -28 67.5t28 67.5t68 27.5t68 -27.5
t28 -67.5t-28 -67.5t-68 -27.5t-68 27.5zM392 601.5q13 13.5 13 33.5t-13 33.5t-33 13.5t-33 -13.5t-13 -33.5t13 -33.5t33 -13.5t33 13.5z" />
    <glyph glyph-name="Uhungarumlaut" unicode="&#x170;" horiz-adv-x="668" 
d="M174 10.5q-49 24.5 -77 72t-28 111.5q0 37 7 73l84 433h84l-88 -451q-4 -23 -4 -48q0 -63 39 -101.5t107 -38.5q85 0 140 47t72 131l89 461h84l-90 -466q-24 -126 -103 -187t-205 -61q-62 0 -111 24.5zM375 907h112l-134 -145h-69zM534 907h111l-134 -145h-68z" />
    <glyph glyph-name="uhungarumlaut" unicode="&#x171;" horiz-adv-x="570" 
d="M98.5 27q-43.5 41 -43.5 108q0 16 5 48l61 313h82l-59 -303q-4 -25 -4 -42q0 -43 27.5 -67.5t75.5 -24.5q37 0 72 22t61 63t37 96l50 256h83l-96 -496h-83l14 74q-26 -41 -70 -64.5t-96 -23.5q-73 0 -116.5 41zM310 703h112l-134 -145h-69zM469 703h112l-135 -145h-68z
" />
    <glyph glyph-name="Uogonek" unicode="&#x172;" horiz-adv-x="668" 
d="M683 700l-90 -466q-41 -208 -230 -242q-30 -15 -52 -36.5t-22 -45.5q0 -19 12 -29t31 -10q11 0 19 2l-3 -65q-21 -6 -45 -6q-40 0 -65 21t-25 60q0 63 59 103q-90 4 -146.5 59.5t-56.5 148.5q0 37 7 73l84 433h84l-88 -451q-4 -23 -4 -48q0 -63 39 -101.5t107 -38.5
q85 0 140 47t72 131l89 461h84z" />
    <glyph glyph-name="uogonek" unicode="&#x173;" horiz-adv-x="570" 
d="M388 -38q-28 -24 -28 -52q0 -19 12 -29t31 -10q11 0 19 2l-3 -65q-21 -6 -45 -6q-40 0 -65 21t-25 60t22.5 68.5t60.5 48.5l14 74q-26 -41 -70 -64.5t-96 -23.5q-73 0 -116.5 41t-43.5 108q0 16 5 48l61 313h82l-59 -303q-4 -25 -4 -42q0 -43 27.5 -67.5t75.5 -24.5
q37 0 72 22t61 63t37 96l50 256h83l-96 -496q-34 -14 -62 -38z" />
    <glyph glyph-name="Wcircumflex" unicode="&#x174;" horiz-adv-x="898" 
d="M95 700h84l36 -521l4 -74q7 21 19 46.5t13 28.5l238 520h96l34 -518l1 -77q6 18 23 53q9 21 10 23l239 519h87l-330 -700h-93l-40 593l-270 -593h-93zM542 906h66l76 -144h-64l-58 72l-82 -72h-70z" />
    <glyph glyph-name="wcircumflex" unicode="&#x175;" horiz-adv-x="689" 
d="M59 496h80l24 -395l180 395h92l32 -395l175 395h83l-229 -496h-90l-34 400l-182 -400h-89zM396 702h67l76 -144h-65l-58 72l-81 -72h-71z" />
    <glyph glyph-name="Ycircumflex" unicode="&#x176;" horiz-adv-x="551" 
d="M241 286l-150 414h93l97 -292q3 -11 13 -50q17 29 31 46l215 296h96l-311 -414l-56 -286h-84zM366 906h66l76 -144h-64l-58 72l-82 -72h-70z" />
    <glyph glyph-name="ycircumflex" unicode="&#x177;" horiz-adv-x="500" 
d="M-27 -201l26 74q18 -9 39 -9q23 0 39 11t32 40l51 90l-105 491h85l81 -388l226 388h93l-363 -607q-35 -58 -66 -79t-83 -21q-34 0 -55 10zM294 702h67l76 -144h-65l-58 72l-81 -72h-71z" />
    <glyph glyph-name="Ydieresis" unicode="&#x178;" horiz-adv-x="551" 
d="M241 286l-150 414h93l97 -292q3 -11 13 -50q17 29 31 46l215 296h96l-311 -414l-56 -286h-84zM270 884h93l-19 -92h-92zM429 884h92l-18 -92h-93z" />
    <glyph glyph-name="Zacute" unicode="&#x179;" horiz-adv-x="593" 
d="M7 75l496 548h-378l16 77h480l-15 -77l-490 -546h401l-16 -77h-509zM435 907h111l-133 -145h-68z" />
    <glyph glyph-name="zacute" unicode="&#x17a;" horiz-adv-x="481" 
d="M6 67l360 362h-278l13 67h374l-14 -67l-358 -362h303l-13 -67h-399zM348 703h111l-132 -145h-69z" />
    <glyph glyph-name="Zdotaccent" unicode="&#x17b;" horiz-adv-x="593" 
d="M7 75l496 548h-378l16 77h480l-15 -77l-490 -546h401l-16 -77h-509zM355 884h97l-19 -97h-97z" />
    <glyph glyph-name="zdotaccent" unicode="&#x17c;" horiz-adv-x="481" 
d="M6 67l360 362h-278l13 67h374l-14 -67l-358 -362h303l-13 -67h-399zM270 680h97l-19 -97h-97z" />
    <glyph glyph-name="Zcaron" unicode="&#x17d;" horiz-adv-x="593" 
d="M7 75l496 548h-378l16 77h480l-15 -77l-490 -546h401l-16 -77h-509zM271 906h65l58 -72l81 72h71l-132 -144h-67z" />
    <glyph glyph-name="zcaron" unicode="&#x17e;" horiz-adv-x="481" 
d="M6 67l360 362h-278l13 67h374l-14 -67l-358 -362h303l-13 -67h-399zM185 702h65l58 -72l81 72h71l-132 -144h-67z" />
    <glyph glyph-name="florin" unicode="&#x192;" horiz-adv-x="317" 
d="M-93 -211l23 72q17 -7 34 -7q28 0 47 19.5t26 55.5l98 504h-76l12 63h76l20 100q14 73 58.5 113.5t119.5 40.5q23 0 46 -7l-17 -72q-17 7 -40 7q-31 0 -54.5 -21.5t-31.5 -64.5l-18 -96h113l-12 -63h-114l-99 -509q-14 -73 -53.5 -107.5t-107.5 -34.5q-27 0 -50 7z" />
    <glyph glyph-name="uni01B5" unicode="&#x1b5;" horiz-adv-x="593" 
d="M7 75l222 246h-149l13 66h196l214 236h-378l16 77h480l-15 -77l-211 -236h150l-13 -66h-198l-218 -244h401l-16 -77h-509z" />
    <glyph glyph-name="uni01B6" unicode="&#x1b6;" horiz-adv-x="481" 
d="M6 67l158 160h-94l13 64h147l136 138h-278l13 67h374l-14 -67l-136 -138h93l-12 -64h-146l-157 -160h303l-13 -67h-399z" />
    <glyph glyph-name="AEacute" unicode="&#x1fc;" horiz-adv-x="933" 
d="M406 700h548l-15 -74h-353l-44 -227h325l-14 -74h-325l-49 -251h356l-15 -74h-440l41 206h-237l-132 -206h-94zM434 278l68 348h-50l-222 -348h204zM701 907h111l-133 -145h-68z" />
    <glyph glyph-name="aeacute" unicode="&#x1fd;" horiz-adv-x="985" 
d="M136 16q-47 30 -72.5 82t-25.5 117q0 82 35 149.5t97.5 106.5t143.5 39q59 0 101.5 -25.5t62.5 -71.5l17 83h82l-11 -60q30 35 74.5 54.5t99.5 19.5q64 0 111.5 -26t73 -71.5t25.5 -101.5q0 -22 -5 -54l-4 -22h-412q-1 -7 -1 -22q0 -68 42 -113t109 -45q60 0 101 29
t74 87l59 -38q-42 -75 -100.5 -111t-139.5 -36q-60 0 -107 25.5t-69 71.5l-16 -83h-83l15 74q-61 -88 -167 -88q-63 0 -110 30zM873 299l1 20q0 56 -40 91t-104 35q-66 0 -117.5 -40t-68.5 -106h329zM364 89.5q43 30.5 67.5 82.5t24.5 114q0 70 -37.5 110.5t-102.5 40.5
q-56 0 -100.5 -29t-69 -79t-24.5 -110q0 -71 39.5 -115.5t105.5 -44.5q54 0 97 30.5zM600 703h111l-132 -145h-69z" />
    <glyph glyph-name="uni0218" unicode="&#x218;" horiz-adv-x="629" 
d="M163.5 15.5q-54.5 29.5 -85 79t-37.5 109.5l79 40q7 -82 53 -133.5t127 -51.5q46 0 86 17.5t64 50.5t24 77q0 53 -37 79.5t-123 48.5q-89 22 -139 67t-50 116q0 60 32 105t89.5 69.5t131.5 24.5q88 0 146.5 -43.5t81.5 -124.5l-68 -42q-37 137 -171 137q-65 0 -112 -31
t-47 -86q0 -49 39.5 -79t124.5 -49q90 -21 138 -63.5t48 -113.5q0 -69 -33 -122t-93 -82t-138 -29q-76 0 -130.5 29.5zM184 -268l54 113h-35l19 95h95l-18 -95l-96 -120z" />
    <glyph glyph-name="uni0219" unicode="&#x219;" horiz-adv-x="485" 
d="M90.5 28q-51.5 42 -64.5 104l69 39q8 -51 41 -83.5t87 -32.5q52 0 82.5 25t30.5 66q0 35 -24 52.5t-85 33.5q-140 35 -140 136q0 63 50 102.5t130 39.5q71 0 114.5 -32t60.5 -88l-62 -33q-28 89 -117 89q-38 0 -69 -19t-31 -53q0 -31 26.5 -51t86.5 -34
q70 -16 104.5 -49.5t34.5 -87.5q0 -75 -54.5 -120.5t-143.5 -45.5q-75 0 -126.5 42zM105 -268l54 113h-35l19 95h95l-18 -95l-96 -120z" />
    <glyph glyph-name="uni021A" unicode="&#x21a;" horiz-adv-x="553" 
d="M307 625h-214l15 75h513l-15 -75h-215l-121 -625h-84zM131 -268l54 113h-35l19 95h95l-18 -95l-96 -120z" />
    <glyph glyph-name="uni021B" unicode="&#x21b;" horiz-adv-x="344" 
d="M114.5 13q-29.5 27 -29.5 77q0 26 4 43l57 300h-83l13 63h83l26 134h83l-26 -134h114l-12 -63h-115l-57 -298q-3 -16 -3 -28q0 -24 14.5 -37t38.5 -13q20 0 40 6l-5 -67q-29 -10 -66 -10q-47 0 -76.5 27zM61 -268l54 113h-35l19 95h95l-18 -95l-96 -120z" />
    <glyph glyph-name="uni0237" unicode="&#x237;" horiz-adv-x="225" 
d="M-117 -202l21 72q18 -8 37 -8q55 0 68 70l110 564h82l-110 -573q-25 -134 -151 -134q-35 0 -57 9z" />
    <glyph glyph-name="circumflex" unicode="&#x2c6;" horiz-adv-x="372" 
d="M222 702h66l76 -144h-64l-58 72l-82 -72h-70z" />
    <glyph glyph-name="caron" unicode="&#x2c7;" horiz-adv-x="372" 
d="M123 702h64l58 -72l82 72h70l-132 -144h-66z" />
    <glyph glyph-name="uni02C9" unicode="&#x2c9;" horiz-adv-x="311" 
d="M118 669h220l-14 -68h-220z" />
    <glyph glyph-name="breve" unicode="&#x2d8;" horiz-adv-x="281" 
d="M125.5 592.5q-24.5 24.5 -24.5 59.5q0 10 2 20h63q-1 -5 -1 -11q0 -15 8.5 -24.5t23.5 -9.5q18 0 30.5 12t17.5 33h63q-8 -54 -38 -79t-81 -25q-39 0 -63.5 24.5z" />
    <glyph glyph-name="dotaccent" unicode="&#x2d9;" horiz-adv-x="223" 
d="M133 680h97l-19 -97h-97z" />
    <glyph glyph-name="ring" unicode="&#x2da;" horiz-adv-x="286" 
d="M140 567.5q-28 27.5 -28 67.5t28 67.5t68 27.5t68 -27.5t28 -67.5t-28 -67.5t-68 -27.5t-68 27.5zM241 601.5q13 13.5 13 33.5t-13 33.5t-33 13.5t-33 -13.5t-13 -33.5t13 -33.5t33 -13.5t33 13.5z" />
    <glyph glyph-name="ogonek" unicode="&#x2db;" horiz-adv-x="207" 
d="M-21 -177q-25 21 -25 60q0 43 28 75t74 51l64 -9q-34 -14 -62 -38t-28 -52q0 -19 12 -29t31 -10q11 0 19 2l-3 -65q-21 -6 -45 -6q-40 0 -65 21z" />
    <glyph glyph-name="tilde" unicode="&#x2dc;" horiz-adv-x="465" 
d="M305.5 571.5q-19.5 10.5 -39.5 29.5q-16 15 -25.5 21t-24.5 6t-25 -10t-10 -25q0 -4 3 -16l-62 -12q-5 10 -5 29q0 41 25.5 67.5t74.5 26.5q31 0 50.5 -10.5t39.5 -29.5q15 -14 25.5 -20.5t24.5 -6.5q15 0 24 9.5t9 24.5q0 7 -2 17l61 13q5 -17 5 -35q0 -41 -26 -65
t-70 -24q-33 0 -52.5 10.5z" />
    <glyph glyph-name="hungarumlaut" unicode="&#x2dd;" horiz-adv-x="456" 
d="M206 703h112l-134 -145h-69zM365 703h112l-135 -145h-68z" />
    <glyph glyph-name="gravecomb" unicode="&#x300;" 
d="M-86 703h106l40 -145h-67z" />
    <glyph glyph-name="acutecomb" unicode="&#x301;" 
d="M-23 703h111l-132 -145h-69z" />
    <glyph glyph-name="uni0302" unicode="&#x302;" 
d="M-82 702h67l76 -144h-65l-58 72l-81 -72h-71z" />
    <glyph glyph-name="tildecomb" unicode="&#x303;" 
d="M-72.5 571.5q-19.5 10.5 -39.5 29.5q-16 15 -25.5 21t-24.5 6t-24.5 -10t-9.5 -25q0 -8 2 -16l-62 -12q-5 10 -5 29q0 41 26 67.5t75 26.5q30 0 48.5 -10t40.5 -30q17 -15 26.5 -21t23.5 -6q15 0 24 9.5t9 24.5q0 7 -2 17l62 13q4 -20 4 -35q0 -41 -26 -65t-70 -24
q-33 0 -52.5 10.5z" />
    <glyph glyph-name="uni0304" unicode="&#x304;" 
d="M-139 669h220l-13 -68h-220z" />
    <glyph glyph-name="uni0306" unicode="&#x306;" 
d="M-100.5 592.5q-24.5 24.5 -24.5 59.5q0 10 2 20h64q-1 -5 -1 -11q0 -15 8 -24.5t23 -9.5q19 0 31.5 12t16.5 33h64q-8 -54 -38 -79t-81 -25q-40 0 -64.5 24.5z" />
    <glyph glyph-name="uni0307" unicode="&#x307;" 
d="M-13 680h97l-19 -97h-97z" />
    <glyph glyph-name="uni0308" unicode="&#x308;" 
d="M-168 680h93l-18 -92h-93zM-9 680h93l-19 -92h-92z" />
    <glyph glyph-name="uni030A" unicode="&#x30a;" 
d="M-91 567.5q-28 27.5 -28 67.5t28 67.5t68 27.5t68 -27.5t28 -67.5t-28 -67.5t-68 -27.5t-68 27.5zM10 601.5q13 13.5 13 33.5t-13 33.5t-33 13.5t-33 -13.5t-13 -33.5t13 -33.5t33 -13.5t33 13.5z" />
    <glyph glyph-name="uni030B" unicode="&#x30b;" 
d="M-182 703h112l-134 -145h-69zM-23 703h112l-135 -145h-68z" />
    <glyph glyph-name="uni030C" unicode="&#x30c;" 
d="M-186 702h65l58 -72l81 72h71l-132 -144h-67z" />
    <glyph glyph-name="uni0312" unicode="&#x312;" 
d="M-35 659l118 122l17 -15l-79 -107h39l-19 -96h-95z" />
    <glyph glyph-name="uni0326" unicode="&#x326;" 
d="M-193 -268l54 113h-35l19 95h95l-18 -95l-96 -120z" />
    <glyph glyph-name="uni0327" unicode="&#x327;" 
d="M-229 -187.5q-20 16.5 -26 44.5l50 12q5 -28 36 -28q18 0 29.5 10.5t11.5 31.5q0 15 -9.5 23.5t-25.5 8.5q-12 0 -22.5 -5t-24.5 -15l-26 29l49 92h56l-51 -73q21 13 44 13q29 0 47.5 -18t18.5 -51q0 -42 -27 -66.5t-75 -24.5q-35 0 -55 16.5z" />
    <glyph glyph-name="uni0328" unicode="&#x328;" 
d="M-195 -177q-25 21 -25 60q0 43 28 75t74 51l64 -9q-34 -14 -62 -38t-28 -52q0 -19 12 -29t31 -10q11 0 19 2l-3 -65q-21 -6 -45 -6q-40 0 -65 21z" />
    <glyph glyph-name="uni0335" unicode="&#x335;" 
d="M-280 385h306l-12 -64h-306z" />
    <glyph glyph-name="uni0336" unicode="&#x336;" 
d="M-652 564h713l-13 -66h-712z" />
    <glyph glyph-name="uni0337" unicode="&#x337;" 
d="M-224 243l250 140l-15 -77l-250 -139z" />
    <glyph glyph-name="uni0338" unicode="&#x338;" 
d="M-418 1l414 528l52 -34l-414 -528z" />
    <glyph glyph-name="uni0394" unicode="&#x394;" horiz-adv-x="659" 
d="M373 700h89l142 -700h-646zM504 73l-93 481q-2 7 -3 14.5t-2 14.5l-4 23q-12 -25 -28 -52l-281 -481h411z" />
    <glyph glyph-name="uni03A9" unicode="&#x3a9;" horiz-adv-x="785" 
d="M41 71h166q-57 47 -94.5 116t-37.5 159q0 98 48 182.5t136.5 135t203.5 50.5q92 0 160 -34.5t104.5 -98.5t36.5 -150q0 -114 -67 -205.5t-181 -154.5h159l-14 -71h-257l16 82q111 50 185.5 140t74.5 199q0 66 -28.5 115.5t-80 76t-118.5 26.5q-84 0 -151.5 -41.5
t-105.5 -108.5t-38 -139q0 -98 39.5 -162t102.5 -106l-16 -82h-256z" />
    <glyph glyph-name="uni03BC" unicode="&#x3bc;" horiz-adv-x="571" 
d="M121 496h83l-59 -303q-4 -19 -4 -42q0 -43 27.5 -67.5t74.5 -24.5q37 0 72 22t61.5 63t37.5 96l50 256h83l-96 -496h-83l14 74q-26 -42 -69 -65t-97 -23q-67 0 -108 36q0 -11 -10 -71l-31 -155h-82z" />
    <glyph glyph-name="pi" unicode="&#x3c0;" horiz-adv-x="649" 
d="M427.5 12q-29.5 26 -29.5 73q0 17 5 40l59 309h-211l-84 -434h-82l84 434h-105l12 62h584l-12 -62h-103l-60 -307q-2 -18 -2 -23q0 -23 13.5 -35t37.5 -12q16 0 34 5l-4 -67q-28 -9 -64 -9q-43 0 -72.5 26z" />
    <glyph glyph-name="Wgrave" unicode="&#x1e80;" horiz-adv-x="898" 
d="M95 700h84l36 -521l4 -74q7 21 19 46.5t13 28.5l238 520h96l34 -518l1 -77q6 18 23 53q9 21 10 23l239 519h87l-330 -700h-93l-40 593l-270 -593h-93zM435 907h106l40 -145h-67z" />
    <glyph glyph-name="wgrave" unicode="&#x1e81;" horiz-adv-x="689" 
d="M59 496h80l24 -395l180 395h92l32 -395l175 395h83l-229 -496h-90l-34 400l-182 -400h-89zM293 703h106l40 -145h-67z" />
    <glyph glyph-name="Wacute" unicode="&#x1e82;" horiz-adv-x="898" 
d="M95 700h84l36 -521l4 -74q7 21 19 46.5t13 28.5l238 520h96l34 -518l1 -77q6 18 23 53q9 21 10 23l239 519h87l-330 -700h-93l-40 593l-270 -593h-93zM604 907h111l-133 -145h-68z" />
    <glyph glyph-name="wacute" unicode="&#x1e83;" horiz-adv-x="689" 
d="M59 496h80l24 -395l180 395h92l32 -395l175 395h83l-229 -496h-90l-34 400l-182 -400h-89zM456 703h111l-132 -145h-69z" />
    <glyph glyph-name="Wdieresis" unicode="&#x1e84;" horiz-adv-x="898" 
d="M95 700h84l36 -521l4 -74q7 21 19 46.5t13 28.5l238 520h96l34 -518l1 -77q6 18 23 53q9 21 10 23l239 519h87l-330 -700h-93l-40 593l-270 -593h-93zM447 884h93l-19 -92h-92zM606 884h92l-18 -92h-93z" />
    <glyph glyph-name="wdieresis" unicode="&#x1e85;" horiz-adv-x="689" 
d="M59 496h80l24 -395l180 395h92l32 -395l175 395h83l-229 -496h-90l-34 400l-182 -400h-89zM301 680h93l-18 -92h-93zM460 680h93l-19 -92h-92z" />
    <glyph glyph-name="uni1E9E" unicode="&#x1e9e;" horiz-adv-x="663" 
d="M246 14.5q-44 28.5 -60 69.5l61 51q19 -37 47 -55.5t72 -18.5q46 0 81 22t54.5 60.5t19.5 85.5q0 141 -191 141l14 67l174 189h-143q-130 0 -157 -137l-96 -489h-84l96 489q20 102 85 156.5t170 54.5h229l-15 -74l-177 -192q81 -9 130.5 -58.5t49.5 -137.5
q0 -73 -33 -130.5t-90.5 -89.5t-127.5 -32q-65 0 -109 28.5z" />
    <glyph glyph-name="Ygrave" unicode="&#x1ef2;" horiz-adv-x="551" 
d="M241 286l-150 414h93l97 -292q3 -11 13 -50q17 29 31 46l215 296h96l-311 -414l-56 -286h-84zM259 907h106l40 -145h-67z" />
    <glyph glyph-name="ygrave" unicode="&#x1ef3;" horiz-adv-x="500" 
d="M-27 -201l26 74q18 -9 39 -9q23 0 39 11t32 40l51 90l-105 491h85l81 -388l226 388h93l-363 -607q-35 -58 -66 -79t-83 -21q-34 0 -55 10zM191 703h106l40 -145h-67z" />
    <glyph glyph-name="endash" unicode="&#x2013;" horiz-adv-x="528" 
d="M64 343h437l-13 -64h-436z" />
    <glyph glyph-name="emdash" unicode="&#x2014;" horiz-adv-x="797" 
d="M64 343h706l-13 -64h-705z" />
    <glyph glyph-name="quoteleft" unicode="&#x2018;" horiz-adv-x="197" 
d="M110 579l124 128l17 -17l-81 -111h38l-19 -99h-98z" />
    <glyph glyph-name="quoteright" unicode="&#x2019;" horiz-adv-x="197" 
d="M79 490l80 111h-38l20 99h98l-20 -99l-124 -128z" />
    <glyph glyph-name="quotesinglbase" unicode="&#x201a;" horiz-adv-x="195" 
d="M-38 -111l81 111h-38l19 99h98l-19 -99l-124 -128z" />
    <glyph glyph-name="quotedblleft" unicode="&#x201c;" horiz-adv-x="330" 
d="M110 579l124 128l17 -17l-81 -111h38l-19 -99h-98zM242 579l124 128l17 -17l-81 -111h38l-19 -99h-98z" />
    <glyph glyph-name="quotedblright" unicode="&#x201d;" horiz-adv-x="329" 
d="M79 490l81 111h-38l19 99h98l-19 -99l-124 -128zM211 490l81 111h-38l19 99h98l-19 -99l-124 -128z" />
    <glyph glyph-name="quotedblbase" unicode="&#x201e;" horiz-adv-x="327" 
d="M-38 -111l81 111h-38l19 99h98l-19 -99l-124 -128zM94 -111l81 111h-38l19 99h98l-19 -99l-124 -128z" />
    <glyph glyph-name="dagger" unicode="&#x2020;" horiz-adv-x="451" 
d="M220 427h-140l13 69h140l47 244h80l-47 -244h140l-13 -69h-141l-104 -537h-80z" />
    <glyph glyph-name="daggerdbl" unicode="&#x2021;" horiz-adv-x="452" 
d="M163 134h-140l14 69h140l44 224h-140l13 69h140l47 244h80l-47 -244h140l-13 -69h-141l-44 -224h141l-14 -69h-140l-47 -244h-80z" />
    <glyph glyph-name="bullet" unicode="&#x2022;" horiz-adv-x="285" 
d="M82.5 209.5q-27.5 27.5 -27.5 65.5t27.5 65.5t65.5 27.5t65 -27.5t27 -65.5t-27 -65.5t-65 -27.5t-65.5 27.5z" />
    <glyph glyph-name="ellipsis" unicode="&#x2026;" horiz-adv-x="556" 
d="M16 99h98l-19 -99h-98zM199 99h98l-19 -99h-98zM383 99h98l-19 -99h-98z" />
    <glyph glyph-name="perthousand" unicode="&#x2030;" horiz-adv-x="1160" 
d="M175 384q-35 20 -55 55.5t-20 79.5q0 53 25 98t69 71t100 26q73 0 113.5 -41.5t40.5 -111.5q0 -53 -25 -98t-69.5 -72t-100.5 -27q-43 0 -78 20zM154 41l565 660l45 -41l-565 -660zM346.5 463.5q34.5 37.5 34.5 90.5q0 45 -25 71.5t-68 26.5q-51 0 -86 -38t-35 -92
q0 -44 26.5 -70t67.5 -26q51 0 85.5 37.5zM544 6q-35 20 -55 55.5t-20 79.5q0 53 25 98t69 71t100 26q46 0 79.5 -17t51.5 -49q27 31 64.5 48.5t82.5 17.5q73 0 113.5 -41.5t40.5 -111.5q0 -53 -25 -98t-69.5 -72t-100.5 -27q-41 0 -74.5 18.5t-52.5 50.5q-25 -32 -64 -50.5
t-87 -18.5q-43 0 -78 20zM715.5 85.5q34.5 37.5 34.5 90.5q0 45 -25 71.5t-68 26.5q-51 0 -86 -38t-35 -92q0 -44 26.5 -70t67.5 -26q51 0 85.5 37.5zM993.5 85.5q34.5 37.5 34.5 90.5q0 45 -24.5 71.5t-67.5 26.5q-51 0 -86 -38t-35 -92q0 -44 26 -70t68 -26
q50 0 84.5 37.5z" />
    <glyph glyph-name="guilsinglleft" unicode="&#x2039;" horiz-adv-x="332" 
d="M50 275l195 201h100l-201 -206l113 -195h-89z" />
    <glyph glyph-name="guilsinglright" unicode="&#x203a;" horiz-adv-x="332" 
d="M198 280l-113 196h89l118 -200l-195 -201h-100z" />
    <glyph glyph-name="fraction" unicode="&#x2044;" horiz-adv-x="188" 
d="M-191 41l565 660l45 -41l-565 -660z" />
    <glyph glyph-name="uni2070" unicode="&#x2070;" horiz-adv-x="385" 
d="M144 464.5q-39 41.5 -39 115.5q0 51 21 98.5t62 78t97 30.5q61 0 98 -39.5t37 -114.5q0 -57 -22.5 -105t-63.5 -76.5t-94 -28.5q-57 0 -96 41.5zM326 521.5q31 42.5 31 103.5q0 52 -20.5 79t-56.5 27q-35 0 -60.5 -21.5t-38.5 -56t-13 -71.5q0 -50 20.5 -76.5t57.5 -26.5
q49 0 80 42.5z" />
    <glyph glyph-name="uni2074" unicode="&#x2074;" horiz-adv-x="373" 
d="M269 496h-168l11 51l211 233h63l-46 -233h39l-10 -51h-39l-13 -66h-62zM279 547l27 141l-128 -141h101z" />
    <glyph glyph-name="uni2075" unicode="&#x2075;" horiz-adv-x="350" 
d="M140 449.5q-31 26.5 -31 68.5q0 18 7 31l57 -10q-4 -7 -4 -19q0 -21 15.5 -34t42.5 -13q36 0 59 23.5t23 58.5q0 31 -17 48.5t-43 17.5t-47.5 -13.5t-32.5 -31.5l-49 15l51 189h222l-10 -50h-171l-28 -96q13 16 36.5 25.5t47.5 9.5q47 0 73.5 -28t26.5 -79
q0 -62 -40 -100.5t-106 -38.5q-51 0 -82 26.5z" />
    <glyph glyph-name="uni2076" unicode="&#x2076;" horiz-adv-x="354" 
d="M150 461q-33 38 -33 104q0 54 19 105t57 84t93 33q46 0 71.5 -22t25.5 -56q0 -13 -7 -34l-52 10q4 8 4 20q0 16 -13 25t-35 9q-39 0 -65.5 -35.5t-34.5 -87.5q13 18 37.5 30t53.5 12q48 0 76.5 -27t28.5 -72q0 -59 -38 -97.5t-100 -38.5q-55 0 -88 38zM296.5 494
q21.5 22 21.5 57q0 27 -18 42.5t-47 15.5q-32 0 -55 -21.5t-23 -54.5q0 -29 19.5 -45t46.5 -16q34 0 55.5 22z" />
    <glyph glyph-name="uni2077" unicode="&#x2077;" horiz-adv-x="308" 
d="M304 729h-163l11 51h227l-10 -48l-199 -302h-65z" />
    <glyph glyph-name="uni2078" unicode="&#x2078;" horiz-adv-x="335" 
d="M132 451q-34 28 -34 71q0 69 71 99q-13 9 -22.5 26.5t-9.5 36.5q0 44 32 73.5t90 29.5q48 0 76.5 -25t28.5 -60q0 -29 -17.5 -53t-44.5 -35q19 -11 31.5 -29t12.5 -44q0 -55 -37 -86.5t-93 -31.5q-50 0 -84 28zM286 653.5q18 15.5 18 42.5q0 21 -14 33t-35 12
q-25 0 -43 -15.5t-18 -41.5q0 -20 14.5 -33t34.5 -13q25 0 43 15.5zM264.5 490q18.5 19 18.5 49q0 24 -15.5 39t-40.5 15q-30 0 -47.5 -19t-17.5 -46q0 -26 16.5 -41.5t40.5 -15.5q27 0 45.5 19z" />
    <glyph glyph-name="uni2079" unicode="&#x2079;" horiz-adv-x="342" 
d="M145 445.5q-29 22.5 -29 55.5q0 19 8 33l51 -10q-4 -8 -4 -19q0 -15 13 -24.5t36 -9.5q41 0 67 34t34 91q-32 -44 -87 -44q-46 0 -79 29t-33 78q0 55 37.5 91.5t100.5 36.5q57 0 88.5 -37t31.5 -103q0 -59 -18 -110.5t-54.5 -82.5t-90.5 -31q-43 0 -72 22.5zM299 621.5
q22 22.5 22 56.5q0 27 -19 43.5t-45 16.5q-34 0 -55.5 -22t-21.5 -55q0 -30 17.5 -46t45.5 -16q34 0 56 22.5z" />
    <glyph glyph-name="uni2080" unicode="&#x2080;" horiz-adv-x="385" 
d="M21 -169.5q-39 41.5 -39 115.5q0 51 21 98.5t62 78t97 30.5q61 0 98 -39.5t37 -114.5q0 -57 -22.5 -105t-63.5 -76.5t-94 -28.5q-57 0 -96 41.5zM203 -112.5q31 42.5 31 103.5q0 52 -20.5 79t-56.5 27q-35 0 -60.5 -21.5t-38.5 -56t-13 -71.5q0 -50 20.5 -76.5
t57.5 -26.5q49 0 80 42.5z" />
    <glyph glyph-name="uni2081" unicode="&#x2081;" horiz-adv-x="245" 
d="M83 68q-15 -13 -33.5 -18t-45.5 -5l11 58q32 0 52 10t36 33h56l-69 -350h-60z" />
    <glyph glyph-name="uni2082" unicode="&#x2082;" horiz-adv-x="339" 
d="M-25 -162l163 132q25 20 36.5 40t11.5 42q0 23 -15 36t-42 13q-30 0 -47.5 -18t-17.5 -44q0 -6 2 -16l-57 -7q-3 9 -3 24q0 47 35.5 80t93.5 33q49 0 80.5 -26.5t31.5 -68.5q0 -36 -18 -65t-55 -59l-102 -84h143l-10 -54h-238z" />
    <glyph glyph-name="uni2083" unicode="&#x2083;" horiz-adv-x="340" 
d="M13 -184q-33 27 -33 65q0 25 10 42l53 -12q-5 -13 -5 -23q0 -21 17 -34t43 -13q30 0 49.5 17.5t19.5 46.5q0 55 -81 55l8 46q36 0 59.5 13.5t23.5 41.5q0 21 -14 31.5t-37 10.5t-40 -12.5t-17 -32.5q0 -8 2 -14l-54 -6q-2 10 -2 18q0 41 32.5 69t83.5 28q48 0 76 -22.5
t28 -55.5q0 -30 -16 -53t-45 -34q23 -8 38.5 -27.5t15.5 -47.5q0 -54 -37 -89t-96 -35q-49 0 -82 27z" />
    <glyph glyph-name="uni2084" unicode="&#x2084;" horiz-adv-x="373" 
d="M146 -138h-168l11 51l211 233h63l-46 -233h39l-10 -51h-39l-13 -66h-62zM156 -87l27 141l-128 -141h101z" />
    <glyph glyph-name="uni2085" unicode="&#x2085;" horiz-adv-x="350" 
d="M17 -184.5q-31 26.5 -31 68.5q0 18 7 31l57 -10q-4 -7 -4 -19q0 -21 15.5 -34t42.5 -13q36 0 59 23.5t23 58.5q0 31 -17 48.5t-43 17.5t-47.5 -13.5t-32.5 -31.5l-49 15l51 189h222l-10 -50h-171l-28 -96q13 16 36.5 25.5t47.5 9.5q47 0 73.5 -28t26.5 -79
q0 -62 -40 -100.5t-106 -38.5q-51 0 -82 26.5z" />
    <glyph glyph-name="uni2086" unicode="&#x2086;" horiz-adv-x="354" 
d="M27 -173q-33 38 -33 104q0 54 19 105t57 84t93 33q46 0 71.5 -22t25.5 -56q0 -13 -7 -34l-52 10q4 8 4 20q0 16 -13 25t-35 9q-39 0 -65.5 -35.5t-34.5 -87.5q13 18 37.5 30t53.5 12q48 0 76.5 -27t28.5 -72q0 -59 -38 -97.5t-100 -38.5q-55 0 -88 38zM173.5 -140
q21.5 22 21.5 57q0 27 -18 42.5t-47 15.5q-32 0 -55 -21.5t-23 -54.5q0 -29 19.5 -45t46.5 -16q34 0 55.5 22z" />
    <glyph glyph-name="uni2087" unicode="&#x2087;" horiz-adv-x="308" 
d="M181 95h-163l11 51h227l-10 -48l-199 -302h-65z" />
    <glyph glyph-name="uni2088" unicode="&#x2088;" horiz-adv-x="335" 
d="M9 -183q-34 28 -34 71q0 69 71 99q-13 9 -22.5 26.5t-9.5 36.5q0 44 32 73.5t90 29.5q48 0 76.5 -25t28.5 -60q0 -29 -17.5 -53t-44.5 -35q19 -11 31.5 -29t12.5 -44q0 -55 -37 -86.5t-93 -31.5q-50 0 -84 28zM163 19.5q18 15.5 18 42.5q0 21 -14 33t-35 12
q-25 0 -43 -15.5t-18 -41.5q0 -20 14.5 -33t34.5 -13q25 0 43 15.5zM141.5 -144q18.5 19 18.5 49q0 24 -15.5 39t-40.5 15q-30 0 -47.5 -19t-17.5 -46q0 -26 16.5 -41.5t40.5 -15.5q27 0 45.5 19z" />
    <glyph glyph-name="uni2089" unicode="&#x2089;" horiz-adv-x="342" 
d="M22 -188.5q-29 22.5 -29 55.5q0 19 8 33l51 -10q-4 -8 -4 -19q0 -15 13 -24.5t36 -9.5q41 0 67 34t34 91q-32 -44 -87 -44q-46 0 -79 29t-33 78q0 55 37.5 91.5t100.5 36.5q57 0 88.5 -37t31.5 -103q0 -59 -18 -110.5t-54.5 -82.5t-90.5 -31q-43 0 -72 22.5zM176 -12.5
q22 22.5 22 56.5q0 27 -19 43.5t-45 16.5q-34 0 -55.5 -22t-21.5 -55q0 -30 17.5 -46t45.5 -16q34 0 56 22.5z" />
    <glyph glyph-name="Euro" unicode="&#x20ac;" horiz-adv-x="751" 
d="M204.5 54.5q-69.5 68.5 -81.5 189.5h-85l40 62h43q1 40 11 88h-65l40 62h44q42 113 133 185.5t220 72.5q99 0 162 -49t83 -141l-75 -31q-17 76 -62 111t-123 35q-86 0 -151 -50t-103 -133h298l-41 -62h-277q-9 -36 -11 -88h300l-41 -62h-254q11 -85 58 -134t126 -49
q80 0 132 40t93 123l68 -26q-48 -107 -122.5 -159.5t-177.5 -52.5q-112 0 -181.5 68.5z" />
    <glyph glyph-name="uni20BA" unicode="&#x20ba;" horiz-adv-x="530" 
d="M493 293l-4 -19q-26 -128 -120 -201t-237 -73h-84l42 217l-83 -36l16 78l82 36l18 92l-83 -36l16 79l83 36l45 234h84l-37 -194l136 60l-15 -79l-137 -60l-18 -92l137 60l-15 -78l-137 -60l-35 -182q107 0 176.5 54.5t87.5 144.5l4 19h78z" />
    <glyph glyph-name="uni2113" unicode="&#x2113;" horiz-adv-x="489" 
d="M309 86.5q34 31.5 68 97.5l56 -36q-41 -80 -91 -121t-117 -41q-61 0 -98 42.5t-42 129.5q-21 -6 -65 -16v77q26 5 65 14q6 149 50 258.5t110.5 166t138.5 56.5q66 0 98 -40t32 -111q0 -124 -93.5 -223.5t-261.5 -158.5q4 -126 78 -126q38 0 72 31.5zM280 594.5
q-46 -51.5 -78.5 -141t-40.5 -196.5q134 48 205.5 126t71.5 174q0 89 -66 89q-46 0 -92 -51.5z" />
    <glyph glyph-name="uni2117" unicode="&#x2117;" horiz-adv-x="855" 
d="M265.5 35q-83.5 49 -132.5 132.5t-49 182.5t49 182.5t132.5 132.5t182.5 49t182.5 -49t132.5 -132.5t49 -182.5t-49 -182.5t-132.5 -132.5t-182.5 -49t-182.5 49zM600 86q69 41 109.5 111t40.5 153t-40.5 153t-109.5 111t-152 41t-152.5 -41t-110 -111t-40.5 -153
t40.5 -153t110 -111t152.5 -41t152 41zM309 549h176q62 0 96.5 -32.5t34.5 -85.5q0 -52 -34.5 -84t-96.5 -32h-116v-164h-60v398zM483 365q36 0 55 17.5t19 48.5t-19 48.5t-55 17.5h-114v-132h114z" />
    <glyph glyph-name="uni2120" unicode="&#x2120;" horiz-adv-x="871" 
d="M119.5 328q-41.5 35 -45.5 88l52 23q8 -43 33.5 -69t65.5 -26q46 0 74 19t28 52q0 28 -21 43.5t-68 26.5q-52 12 -81.5 39t-29.5 69q0 53 40.5 84t108.5 31q56 0 91 -26t46 -73l-50 -26q-18 76 -92 76q-41 0 -66 -16t-25 -42q0 -28 24 -44.5t73 -27.5q55 -13 81 -39.5
t26 -66.5q0 -60 -44 -95t-120 -35q-59 0 -100.5 35zM503 700h61l75 -338l204 338h64l-77 -400h-56l55 279l-170 -279h-59l-64 284l-55 -284h-55z" />
    <glyph glyph-name="trademark" unicode="&#x2122;" horiz-adv-x="846" 
d="M236 649h-122l9 51h303l-9 -51h-122l-68 -349h-59zM478 700h62l75 -338l204 338h63l-77 -400h-55l54 279l-169 -279h-59l-64 284l-55 -284h-56z" />
    <glyph glyph-name="uni2126" unicode="&#x2126;" horiz-adv-x="785" 
d="M41 71h166q-57 47 -94.5 116t-37.5 159q0 98 48 182.5t136.5 135t203.5 50.5q92 0 160 -34.5t104.5 -98.5t36.5 -150q0 -114 -67 -205.5t-181 -154.5h159l-14 -71h-257l16 82q111 50 185.5 140t74.5 199q0 66 -28.5 115.5t-80 76t-118.5 26.5q-84 0 -151.5 -41.5
t-105.5 -108.5t-38 -139q0 -98 39.5 -162t102.5 -106l-16 -82h-256z" />
    <glyph glyph-name="estimated" unicode="&#x212e;" horiz-adv-x="856" 
d="M623.5 83q77.5 51 115.5 135h51q-26 -68 -77 -120.5t-118.5 -82t-143.5 -29.5q-99 0 -182.5 49t-132.5 132.5t-49 182.5t49 182.5t132.5 132.5t182.5 49t182.5 -49t132.5 -132.5t49 -182.5h-596v-217q44 -47 104 -74t128 -27q95 0 172.5 51zM323 641q-60 -27 -104 -74
v-171h464v171q-44 47 -104 74t-128 27t-128 -27z" />
    <glyph glyph-name="uni2153" unicode="&#x2153;" horiz-adv-x="772" 
d="M190 622q-15 -13 -33.5 -18t-45.5 -5l11 58q32 0 52 10t36 33h56l-69 -350h-60zM53 41l565 660l45 -41l-565 -660zM485 20q-33 27 -33 65q0 25 10 42l53 -12q-5 -13 -5 -23q0 -21 17 -34t43 -13q30 0 49.5 17.5t19.5 46.5q0 55 -81 55l8 46q36 0 59.5 13.5t23.5 41.5
q0 21 -14 31.5t-37 10.5t-40 -12.5t-17 -32.5q0 -8 2 -14l-54 -6q-2 10 -2 18q0 41 32.5 69t83.5 28q48 0 76 -22.5t28 -55.5q0 -30 -16 -53t-45 -34q23 -8 38.5 -27.5t15.5 -47.5q0 -54 -37 -89t-96 -35q-49 0 -82 27z" />
    <glyph glyph-name="uni2154" unicode="&#x2154;" horiz-adv-x="866" 
d="M82 392l163 132q25 20 36.5 40t11.5 42q0 23 -15 36t-42 13q-30 0 -47.5 -18t-17.5 -44q0 -6 2 -16l-57 -7q-3 9 -3 24q0 47 35.5 80t93.5 33q49 0 80.5 -26.5t31.5 -68.5q0 -36 -18 -65t-55 -59l-102 -84h143l-10 -54h-238zM147 41l565 660l45 -41l-565 -660zM579 20
q-33 27 -33 65q0 25 10 42l53 -12q-5 -13 -5 -23q0 -21 17 -34t43 -13q30 0 49.5 17.5t19.5 46.5q0 55 -81 55l8 46q36 0 59.5 13.5t23.5 41.5q0 21 -14 31.5t-37 10.5t-40 -12.5t-17 -32.5q0 -8 2 -14l-54 -6q-2 10 -2 18q0 41 32.5 69t83.5 28q48 0 76 -22.5t28 -55.5
q0 -30 -16 -53t-45 -34q23 -8 38.5 -27.5t15.5 -47.5q0 -54 -37 -89t-96 -35q-49 0 -82 27z" />
    <glyph glyph-name="oneeighth" unicode="&#x215b;" horiz-adv-x="767" 
d="M190 622q-15 -13 -33.5 -18t-45.5 -5l11 58q32 0 52 10t36 33h56l-69 -350h-60zM53 41l565 660l45 -41l-565 -660zM481 21q-34 28 -34 71q0 69 71 99q-13 9 -22.5 26.5t-9.5 36.5q0 44 32 73.5t90 29.5q48 0 76.5 -25t28.5 -60q0 -29 -17.5 -53t-44.5 -35
q19 -11 31.5 -29t12.5 -44q0 -55 -37 -86.5t-93 -31.5q-50 0 -84 28zM635 223.5q18 15.5 18 42.5q0 21 -14 33t-35 12q-25 0 -43 -15.5t-18 -41.5q0 -20 14.5 -33t34.5 -13q25 0 43 15.5zM613.5 60q18.5 19 18.5 49q0 24 -15.5 39t-40.5 15q-30 0 -47.5 -19t-17.5 -46
q0 -26 16.5 -41.5t40.5 -15.5q27 0 45.5 19z" />
    <glyph glyph-name="threeeighths" unicode="&#x215c;" horiz-adv-x="863" 
d="M121 370q-33 27 -33 65q0 25 10 42l53 -12q-5 -13 -5 -23q0 -21 17 -34t43 -13q30 0 49.5 17.5t19.5 46.5q0 55 -81 55l8 46q36 0 59.5 13.5t23.5 41.5q0 21 -14 31.5t-37 10.5t-40 -12.5t-17 -32.5q0 -8 2 -14l-54 -6q-2 10 -2 18q0 41 32.5 69t83.5 28q48 0 76 -22.5
t28 -55.5q0 -30 -16 -53t-45 -34q23 -8 38.5 -27.5t15.5 -47.5q0 -54 -37 -89t-96 -35q-49 0 -82 27zM149 41l565 660l45 -41l-565 -660zM577 21q-34 28 -34 71q0 69 71 99q-13 9 -22.5 26.5t-9.5 36.5q0 44 32 73.5t90 29.5q48 0 76.5 -25t28.5 -60q0 -29 -17.5 -53
t-44.5 -35q19 -11 31.5 -29t12.5 -44q0 -55 -37 -86.5t-93 -31.5q-50 0 -84 28zM731 223.5q18 15.5 18 42.5q0 21 -14 33t-35 12q-25 0 -43 -15.5t-18 -41.5q0 -20 14.5 -33t34.5 -13q25 0 43 15.5zM709.5 60q18.5 19 18.5 49q0 24 -15.5 39t-40.5 15q-30 0 -47.5 -19
t-17.5 -46q0 -26 16.5 -41.5t40.5 -15.5q27 0 45.5 19z" />
    <glyph glyph-name="fiveeighths" unicode="&#x215d;" horiz-adv-x="873" 
d="M124 369.5q-31 26.5 -31 68.5q0 18 7 31l57 -10q-4 -7 -4 -19q0 -21 15.5 -34t42.5 -13q36 0 59 23.5t23 58.5q0 31 -17 48.5t-43 17.5t-47.5 -13.5t-32.5 -31.5l-49 15l51 189h222l-10 -50h-171l-28 -96q13 16 36.5 25.5t47.5 9.5q47 0 73.5 -28t26.5 -79
q0 -62 -40 -100.5t-106 -38.5q-51 0 -82 26.5zM159 41l565 660l45 -41l-565 -660zM587 21q-34 28 -34 71q0 69 71 99q-13 9 -22.5 26.5t-9.5 36.5q0 44 32 73.5t90 29.5q48 0 76.5 -25t28.5 -60q0 -29 -17.5 -53t-44.5 -35q19 -11 31.5 -29t12.5 -44q0 -55 -37 -86.5
t-93 -31.5q-50 0 -84 28zM741 223.5q18 15.5 18 42.5q0 21 -14 33t-35 12q-25 0 -43 -15.5t-18 -41.5q0 -20 14.5 -33t34.5 -13q25 0 43 15.5zM719.5 60q18.5 19 18.5 49q0 24 -15.5 39t-40.5 15q-30 0 -47.5 -19t-17.5 -46q0 -26 16.5 -41.5t40.5 -15.5q27 0 45.5 19z" />
    <glyph glyph-name="seveneighths" unicode="&#x215e;" horiz-adv-x="831" 
d="M288 649h-163l11 51h227l-10 -48l-199 -302h-65zM117 41l565 660l45 -41l-565 -660zM545 21q-34 28 -34 71q0 69 71 99q-13 9 -22.5 26.5t-9.5 36.5q0 44 32 73.5t90 29.5q48 0 76.5 -25t28.5 -60q0 -29 -17.5 -53t-44.5 -35q19 -11 31.5 -29t12.5 -44q0 -55 -37 -86.5
t-93 -31.5q-50 0 -84 28zM699 223.5q18 15.5 18 42.5q0 21 -14 33t-35 12q-25 0 -43 -15.5t-18 -41.5q0 -20 14.5 -33t34.5 -13q25 0 43 15.5zM677.5 60q18.5 19 18.5 49q0 24 -15.5 39t-40.5 15q-30 0 -47.5 -19t-17.5 -46q0 -26 16.5 -41.5t40.5 -15.5q27 0 45.5 19z" />
    <glyph glyph-name="arrowleft" unicode="&#x2190;" horiz-adv-x="559" 
d="M64 311l245 205l40 -50l-146 -123h327l-12 -64h-337l102 -127l-54 -45z" />
    <glyph glyph-name="arrowup" unicode="&#x2191;" horiz-adv-x="495" 
d="M260 471l-147 -123l-39 49l240 201l163 -205l-54 -45l-97 125l-64 -331h-66z" />
    <glyph glyph-name="arrowright" unicode="&#x2192;" horiz-adv-x="560" 
d="M234 156l147 123h-328l13 64h337l-102 127l53 45l165 -204l-244 -205z" />
    <glyph glyph-name="arrowdown" unicode="&#x2193;" horiz-adv-x="495" 
d="M64 347l55 44l96 -125l65 332h66l-65 -329l147 123l39 -49l-240 -201z" />
    <glyph glyph-name="arrowboth" unicode="&#x2194;" horiz-adv-x="763" 
d="M64 311l245 205l40 -50l-146 -123h404l-102 127l53 45l165 -204l-244 -205l-41 50l147 123h-404l102 -127l-54 -46z" />
    <glyph glyph-name="arrowupdn" unicode="&#x2195;" horiz-adv-x="500" 
d="M45 225l55 44l96 -125l80 409l-147 -123l-39 49l240 201l163 -205l-54 -44l-97 125l-80 -409l147 123l39 -49l-240 -201z" />
    <glyph glyph-name="uni2196" unicode="&#x2196;" horiz-adv-x="510" 
d="M178 361l-35 -178h-67l56 290h290l-13 -67h-178l188 -236l-52 -44z" />
    <glyph glyph-name="uni2197" unicode="&#x2197;" horiz-adv-x="513" 
d="M61 171l278 235h-173l13 67h290l-57 -290h-69l34 173l-277 -234z" />
    <glyph glyph-name="uni2198" unicode="&#x2198;" horiz-adv-x="510" 
d="M122 197h178l-188 236l52 44l189 -235l35 178h67l-56 -290h-290z" />
    <glyph glyph-name="uni2199" unicode="&#x2199;" horiz-adv-x="512" 
d="M122 420h68l-33 -173l276 234l39 -49l-278 -235h174l-13 -67h-290z" />
    <glyph glyph-name="partialdiff" unicode="&#x2202;" horiz-adv-x="580" 
d="M151 11.5q-50 25.5 -80 73t-30 112.5q0 72 34.5 132.5t96.5 96.5t141 36q54 0 98.5 -23t68.5 -63q2 32 2 47q0 102 -37 162t-116 60q-44 0 -78 -21t-34 -56q0 -13 2 -19l-75 -30q-7 18 -7 41q0 45 26.5 80t72 54.5t102.5 19.5q116 0 169 -77.5t53 -229.5
q0 -114 -31.5 -209t-99 -153.5t-169.5 -58.5q-59 0 -109 25.5zM361.5 83q42.5 27 67 71.5t24.5 95.5q0 67 -40.5 104.5t-102.5 37.5q-53 0 -95.5 -26t-66.5 -70t-24 -95q0 -45 20 -77.5t52.5 -50t69.5 -17.5q53 0 95.5 27z" />
    <glyph glyph-name="uni2206" unicode="&#x2206;" horiz-adv-x="659" 
d="M373 700h89l142 -700h-646zM504 73l-93 481q-2 7 -3 14.5t-2 14.5l-4 23q-12 -25 -28 -52l-281 -481h411z" />
    <glyph glyph-name="product" unicode="&#x220f;" horiz-adv-x="673" 
d="M174 700h500l-175 -904h-83l160 829h-332l-161 -829h-84z" />
    <glyph glyph-name="summation" unicode="&#x2211;" horiz-adv-x="568" 
d="M-22 -40l285 330l-149 332l15 78h475l-16 -78h-379l149 -342l-281 -325h392l-14 -75h-492z" />
    <glyph glyph-name="minus" unicode="&#x2212;" horiz-adv-x="514" 
d="M74 397h423l-12 -64h-423z" />
    <glyph glyph-name="uni2215" unicode="&#x2215;" horiz-adv-x="496" 
d="M496 730h89l-546 -760h-88z" />
    <glyph glyph-name="uni2219" unicode="&#x2219;" horiz-adv-x="285" 
d="M82.5 209.5q-27.5 27.5 -27.5 65.5t27.5 65.5t65.5 27.5t65 -27.5t27 -65.5t-27 -65.5t-65 -27.5t-65.5 27.5z" />
    <glyph glyph-name="radical" unicode="&#x221a;" horiz-adv-x="595" 
d="M140 288h-102l13 68h163l34 -238l330 582h82l-395 -700h-78z" />
    <glyph glyph-name="infinity" unicode="&#x221e;" horiz-adv-x="774" 
d="M100.5 182.5q-37.5 37.5 -37.5 97.5q0 46 22 86t63 64.5t96 24.5t92.5 -27t68.5 -75q44 48 86.5 75t97.5 27q69 0 106 -37.5t37 -95.5q0 -53 -23.5 -93t-64.5 -62t-93 -22q-54 0 -89.5 26t-65.5 73q-40 -46 -85 -72.5t-103 -26.5q-70 0 -107.5 37.5zM289 230.5
q35 25.5 72 72.5q-27 44 -54.5 68t-68.5 24q-43 0 -74.5 -32.5t-31.5 -77.5q0 -36 21.5 -58t61.5 -22q39 0 74 25.5zM608 218.5q24 13.5 39.5 39.5t15.5 61q0 33 -21.5 54.5t-59.5 21.5q-40 0 -71.5 -25t-71.5 -75q28 -44 54.5 -67t65.5 -23q25 0 49 13.5z" />
    <glyph glyph-name="integral" unicode="&#x222b;" horiz-adv-x="317" 
d="M-93 -211l23 72q17 -7 34 -7q28 0 47 19.5t26 55.5l130 667q14 73 58.5 113.5t119.5 40.5q23 0 46 -7l-17 -72q-17 7 -40 7q-30 0 -53.5 -21.5t-32.5 -64.5l-130 -668q-13 -73 -53 -107.5t-108 -34.5q-27 0 -50 7z" />
    <glyph glyph-name="approxequal" unicode="&#x2248;" horiz-adv-x="446" 
d="M45 234q0 42 27.5 70.5t79.5 28.5q33 0 54 -10t45 -29q16 -13 27.5 -19.5t25.5 -6.5q16 0 25 10t9 28q0 6 -2 14l67 13q5 -15 5 -33q0 -46 -28 -71.5t-78 -25.5q-33 0 -54.5 10.5t-45.5 30.5q-15 12 -25.5 18t-22.5 6q-18 0 -28.5 -11t-10.5 -30q0 -6 2 -14l-67 -11
q-5 18 -5 32zM77 396q0 42 27.5 70.5t79.5 28.5q33 0 54 -10t45 -29q16 -13 27.5 -19.5t25.5 -6.5q16 0 25 10t9 28q0 6 -2 14l67 13q5 -15 5 -33q0 -46 -28 -71.5t-78 -25.5q-33 0 -54.5 10.5t-45.5 30.5q-15 12 -25.5 18t-22.5 6q-18 0 -28.5 -11t-10.5 -30q0 -6 2 -14
l-67 -11q-5 18 -5 32z" />
    <glyph glyph-name="notequal" unicode="&#x2260;" horiz-adv-x="514" 
d="M51 121l78 98h-88l12 65h127l101 129h-203l12 64h242l111 139l51 -42l-77 -97h95l-12 -64h-134l-102 -129h211l-12 -65h-251l-110 -140z" />
    <glyph glyph-name="lessequal" unicode="&#x2264;" horiz-adv-x="517" 
d="M74 358l15 78l446 201l-16 -87l-355 -157l293 -156l-16 -80zM11 64h423l-12 -64h-423z" />
    <glyph glyph-name="greaterequal" unicode="&#x2265;" horiz-adv-x="517" 
d="M59 244l355 157l-293 157l16 79l367 -201l-15 -77l-446 -202zM12 64h423l-12 -64h-423z" />
    <glyph glyph-name="lozenge" unicode="&#x25ca;" horiz-adv-x="576" 
d="M47 350l285 350h88l149 -350l-286 -350h-88zM482 358l-115 272l-233 -286l115 -274z" />
    <glyph glyph-name="uniF8FF" unicode="&#xf8ff;" horiz-adv-x="780" 
d="M108.5 6.5q-6.5 6.5 -6.5 15.5v595q0 7 4.5 13.5t11.5 8.5l270 78l10 2l10 -2l270 -78q7 -2 11.5 -8.5t4.5 -13.5v-595q0 -9 -6.5 -15.5t-15.5 -6.5l-7 1l-267 77l-267 -77l-7 -1q-9 0 -15.5 6.5zM376 669l-230 -67q4 -62 35 -114t82.5 -84.5t112.5 -37.5v303z
M532.5 403.5q51.5 32.5 82.5 84.5t35 114l-230 67v-303q61 5 112.5 37.5zM376 118v204q-73 6 -134 43.5t-97 97.5v-412zM651 463q-37 -60 -97.5 -97.5t-133.5 -43.5v-204l231 -67v412z" />
    <glyph glyph-name="fi" unicode="&#xfb01;" horiz-adv-x="526" 
d="M133 433h-75l12 63h76l20 101q31 153 177 153q26 0 47 -7l-14 -71q-20 7 -40 7q-32 0 -56 -21.5t-32 -64.5l-19 -97h273l-97 -496h-82l84 433h-191l-83 -433h-83zM448 680h98l-20 -97h-97z" />
    <glyph glyph-name="fl" unicode="&#xfb02;" horiz-adv-x="525" 
d="M133 433h-75l12 63h76l20 101q31 153 177 153q26 0 47 -7l-14 -72q-20 7 -40 7q-32 0 -56 -21.5t-32 -63.5l-19 -97h113l-12 -63h-114l-83 -433h-83zM460 700h82l-137 -700h-82z" />
    <glyph glyph-name="i.loclTRK" horiz-adv-x="225" 
d="M119 496h83l-97 -496h-83zM148 680h97l-19 -97h-97z" />
    <glyph glyph-name="uni030C.alt" 
d="M-29 522l52 92h-37l17 86h85l-17 -87l-83 -101z" />
    <glyph glyph-name="uni0308.cap" 
d="M-127 884h93l-19 -92h-92zM32 884h92l-18 -92h-93z" />
    <glyph glyph-name="uni0307.cap" 
d="M27 884h97l-19 -97h-97z" />
    <glyph glyph-name="gravecomb.cap" 
d="M-46 907h106l40 -145h-67z" />
    <glyph glyph-name="acutecomb.cap" 
d="M18 907h111l-133 -145h-68z" />
    <glyph glyph-name="uni030B.cap" 
d="M-142 907h112l-134 -145h-69zM17 907h111l-134 -145h-68z" />
    <glyph glyph-name="uni0302.cap" 
d="M-42 906h66l76 -144h-64l-58 72l-82 -72h-70z" />
    <glyph glyph-name="uni030C.cap" 
d="M-146 906h65l58 -72l81 72h71l-132 -144h-67z" />
    <glyph glyph-name="uni0306.cap" 
d="M-61.5 796.5q-24.5 24.5 -24.5 59.5q0 10 2 20h64q-1 -5 -1 -11q0 -15 8 -24.5t23 -9.5q19 0 31.5 12t16.5 33h64q-8 -54 -38 -79t-81 -25q-40 0 -64.5 24.5z" />
    <glyph glyph-name="uni030A.cap" 
d="M-51 771.5q-28 27.5 -28 67.5t28 67.5t68 27.5t68 -27.5t28 -67.5t-28 -67.5t-68 -27.5t-68 27.5zM50 805.5q13 13.5 13 33.5t-13 33.5t-33 13.5t-33 -13.5t-13 -33.5t13 -33.5t33 -13.5t33 13.5z" />
    <glyph glyph-name="tildecomb.cap" 
d="M-32.5 775.5q-19.5 10.5 -39.5 29.5q-16 15 -25.5 21t-24.5 6t-24.5 -10t-9.5 -25q0 -8 2 -16l-62 -12q-5 10 -5 29q0 41 26 67.5t75 26.5q30 0 48.5 -10t40.5 -30q17 -15 26.5 -21t23.5 -6q15 0 24 9.5t9 24.5q0 7 -2 17l62 13q4 -20 4 -35q0 -41 -26 -65t-70 -24
q-33 0 -52.5 10.5z" />
    <glyph glyph-name="uni0304.cap" 
d="M-99 873h220l-13 -68h-220z" />
    <glyph glyph-name="uni0328.cap" 
d="M-195 -177q-25 21 -25 60q0 43 28 75t74 51l64 -9q-34 -14 -62 -38t-28 -52q0 -19 12 -29t31 -10q11 0 19 2l-3 -65q-21 -6 -45 -6q-40 0 -65 21z" />
    <glyph glyph-name="uni0337.cap" 
d="M-328 243l367 208l-16 -83l-367 -209z" />
    <glyph glyph-name="uni0338.cap" 
d="M-500 -1l530 738l58 -36l-531 -738z" />
    </font>
</defs>
</svg>
