<?xml version="1.0" standalone="no"?>
<!DOCTYPE svg PUBLIC "-//W3C//DTD SVG 1.1//EN" "http://www.w3.org/Graphics/SVG/1.1/DTD/svg11.dtd" >
<svg xmlns="http://www.w3.org/2000/svg" xmlns:xlink="http://www.w3.org/1999/xlink" version="1.1">
<metadata>
Created by FontForge 20170731 at Thu Mar  5 18:53:55 2020
 By Aleksey,,,
Copyright (c) 2015 by Colophon Foundry. All rights reserved.
</metadata>
<defs>
<font id="BasisGrotesque-Off-WhiteItalic" horiz-adv-x="0" >
  <font-face 
    font-family="Basis Grotesque Off-White"
    font-weight="350"
    font-style="italic"
    font-stretch="normal"
    units-per-em="1000"
    panose-1="2 11 5 3 3 6 4 4 1 3"
    ascent="800"
    descent="-200"
    x-height="496"
    cap-height="700"
    bbox="-661 -271 1170 934"
    underline-thickness="50"
    underline-position="-150"
    slope="-11"
    unicode-range="U+000D-FB02"
  />
<missing-glyph horiz-adv-x="586" 
d="M60 700h466v-700h-466v700zM464 664h-342l171 -280zM272 350l-176 288v-576zM490 638l-176 -288l176 -288v576zM464 36l-171 280l-171 -280h342z" />
    <glyph glyph-name="f_i" unicode="fi" horiz-adv-x="526" 
d="M138 437h-76l11 59h77l20 104q14 72 57 111t117 39q25 0 46 -7l-14 -67q-20 7 -39 7q-33 0 -57 -22t-33 -66l-19 -99h270l-97 -496h-78l85 437h-192l-84 -437h-78zM448 678h93l-19 -94h-93z" />
    <glyph glyph-name="f_l" unicode="fl" horiz-adv-x="525" 
d="M136 437h-76l12 59h76l21 104q14 72 57 111t117 39q26 0 45 -7l-13 -67q-17 6 -40 6q-33 0 -57 -21.5t-32 -65.5l-20 -99h115l-12 -59h-115l-84 -437h-78zM461 700h78l-137 -700h-78z" />
    <glyph glyph-name=".notdef" horiz-adv-x="586" 
d="M60 700h466v-700h-466v700zM464 664h-342l171 -280zM272 350l-176 288v-576zM490 638l-176 -288l176 -288v576zM464 36l-171 280l-171 -280h342z" />
    <glyph glyph-name=".null" 
 />
    <glyph glyph-name="nonmarkingreturn" unicode="&#xd;" horiz-adv-x="289" 
 />
    <glyph glyph-name="space" unicode=" " horiz-adv-x="276" 
 />
    <glyph glyph-name="exclam" unicode="!" horiz-adv-x="266" 
d="M139 479l43 221h79l-43 -221l-70 -297h-55zM57 98h95l-20 -98h-95z" />
    <glyph glyph-name="quotedbl" unicode="&#x22;" horiz-adv-x="337" 
d="M138 644l11 56h79l-11 -56l-43 -154h-53zM275 644l11 56h79l-11 -56l-43 -154h-53z" />
    <glyph glyph-name="numbersign" unicode="#" horiz-adv-x="661" 
d="M176 225h-105v55h116l25 140h-121v55h132l41 225h70l-41 -225h165l42 225h70l-42 -225h106v-55h-116l-26 -140h122v-55h-132l-41 -225h-71l42 225h-165l-42 -225h-70zM422 280l26 140h-165l-26 -140h165z" />
    <glyph glyph-name="dollar" unicode="$" horiz-adv-x="625" 
d="M233 -8q-84 16 -133 75t-58 137l72 36q5 -68 38.5 -115t94.5 -61l53 273q-166 48 -166 179q0 58 31 102t85 69t123 27l17 86h72l-18 -92q63 -14 107 -55t61 -107l-66 -38q-27 103 -116 129l-47 -247q169 -45 169 -172q0 -64 -30.5 -115.5t-87 -82.5t-131.5 -34l-16 -86
h-72zM360 645q-63 -2 -105.5 -34t-42.5 -87q0 -41 23.5 -68.5t79.5 -46.5zM428 104q44 40 44 99q0 45 -24.5 70t-79.5 44l-50 -258q66 5 110 45z" />
    <glyph glyph-name="percent" unicode="%" horiz-adv-x="882" 
d="M176 384q-35 20 -55 55.5t-20 79.5q0 54 25 98.5t69 70.5t100 26q72 0 112.5 -42t40.5 -111q0 -53 -25 -98t-69.5 -72t-100.5 -27q-42 0 -77 20zM155 40l565 660l43 -39l-565 -660zM348 462q35 38 35 92q0 46 -25 73t-69 27q-52 0 -87.5 -38.5t-35.5 -93.5
q0 -45 26.5 -71.5t69.5 -26.5q51 0 86 38zM545 6q-35 20 -55 55.5t-20 79.5q0 54 25 98.5t69 70.5t99 26q73 0 113.5 -42t40.5 -111q0 -53 -25 -98t-69.5 -72t-100.5 -27q-42 0 -77 20zM716.5 84q35.5 38 35.5 92q0 46 -25 73t-69 27q-52 0 -88 -38.5t-36 -93.5
q0 -45 27 -71.5t69 -26.5q51 0 86.5 38z" />
    <glyph glyph-name="ampersand" unicode="&#x26;" horiz-adv-x="648" 
d="M148.5 12.5q-45.5 26.5 -70.5 72.5t-25 101q0 149 169 227q-26 59 -26 117q0 49 20.5 91t60.5 67.5t95 25.5q63 0 103.5 -34t40.5 -96q0 -68 -47 -114.5t-145 -84.5l133 -215q40 61 70 158l56 -34q-33 -111 -88 -186l67 -108h-90l-31 52q-80 -66 -188 -66
q-59 0 -104.5 26.5zM409 498.5q35 29.5 35 78.5q0 32 -20.5 53.5t-54.5 21.5q-46 0 -73.5 -35.5t-27.5 -81.5q0 -53 23 -96q83 30 118 59.5zM405 110l-151 248q-65 -27 -94.5 -70t-29.5 -96q0 -63 38.5 -101.5t96.5 -38.5q80 0 140 58z" />
    <glyph glyph-name="quotesingle" unicode="'" horiz-adv-x="200" 
d="M138 644l11 56h79l-11 -56l-43 -154h-53z" />
    <glyph glyph-name="parenleft" unicode="(" horiz-adv-x="337" 
d="M78 -21.5q-12 73.5 -12 154.5q0 161 59 311t149 256h69q-84 -115 -142 -266.5t-58 -307.5q0 -83 8 -143.5t26 -130.5h-69q-18 53 -30 126.5z" />
    <glyph glyph-name="parenright" unicode=")" horiz-adv-x="337" 
d="M146.5 118q58.5 152 58.5 308q0 83 -8 143.5t-26 130.5h69q18 -52 29.5 -126t11.5 -155q0 -161 -59 -311t-148 -256h-70q84 114 142.5 266z" />
    <glyph glyph-name="asterisk" unicode="*" horiz-adv-x="409" 
d="M232 509l-93 -65l-36 64l112 42l-89 38l41 70l81 -68l5 110h78l-37 -110l101 67l27 -68l-111 -39l91 -41l-45 -69l-79 69l-6 -110h-76z" />
    <glyph glyph-name="plus" unicode="+" horiz-adv-x="514" 
d="M242 335h-176l11 60h176l35 178h63l-35 -178h178l-12 -60h-177l-35 -178h-63z" />
    <glyph glyph-name="comma" unicode="," horiz-adv-x="189" 
d="M-19 -113l55 113h-37l19 96h94l-18 -96l-97 -125z" />
    <glyph glyph-name="hyphen" unicode="-" horiz-adv-x="454" 
d="M65 341h360l-12 -60h-360z" />
    <glyph glyph-name="period" unicode="." horiz-adv-x="189" 
d="M18 96h94l-18 -96h-95z" />
    <glyph glyph-name="slash" unicode="/" horiz-adv-x="496" 
d="M499 730h83l-545 -760h-83z" />
    <glyph glyph-name="zero" unicode="0" horiz-adv-x="716" 
d="M196.5 23.5q-61.5 37.5 -96 105.5t-34.5 157q0 110 43 208.5t123 159t186 60.5q126 0 198 -79t72 -219q0 -115 -41 -213t-120.5 -157.5t-190.5 -59.5q-78 0 -139.5 37.5zM484.5 104.5q60.5 47.5 92.5 127.5t32 173q0 111 -53 174.5t-144 63.5q-79 0 -139.5 -51.5
t-93.5 -134t-33 -170.5q0 -71 25 -123t69.5 -79.5t101.5 -27.5q82 0 142.5 47.5z" />
    <glyph glyph-name="one" unicode="1" horiz-adv-x="361" 
d="M268 595q-30 -30 -65.5 -42t-92.5 -12l14 71q111 0 171 88h72l-137 -700h-78z" />
    <glyph glyph-name="two" unicode="2" horiz-adv-x="583" 
d="M24 55l320 266q61 50 90.5 98t29.5 100q0 59 -36 92.5t-96 33.5q-65 0 -106.5 -41.5t-41.5 -103.5q0 -25 6 -39l-78 -13q-7 21 -7 54q0 61 29.5 109.5t83 75.5t123.5 27q91 0 146.5 -51t55.5 -141q0 -63 -35.5 -124t-111.5 -124l-236 -197h316l-15 -77h-448z" />
    <glyph glyph-name="three" unicode="3" horiz-adv-x="584" 
d="M159.5 11.5q-49.5 25.5 -75.5 68.5t-26 94q0 43 15 67l71 -17q-8 -21 -8 -47q0 -52 37.5 -87.5t102.5 -35.5q46 0 83.5 20.5t58.5 56.5t21 82q0 67 -47.5 98t-126.5 31l13 67q82 1 133 35.5t51 101.5q0 43 -33.5 72t-89.5 29q-57 0 -96 -36t-39 -91q0 -10 1 -19l-77 -12
q-2 14 -2 27q0 55 27 100t77.5 71.5t116.5 26.5q90 0 141 -45.5t51 -117.5q0 -58 -36 -104.5t-100 -66.5q51 -18 83.5 -58t32.5 -102q0 -66 -29.5 -119.5t-84.5 -84t-131 -30.5q-65 0 -114.5 25.5z" />
    <glyph glyph-name="four" unicode="4" horiz-adv-x="580" 
d="M358 141h-330l13 71l423 488h82l-96 -488h78l-14 -71h-77l-28 -141h-80zM371 212l69 358l-311 -358h242z" />
    <glyph glyph-name="five" unicode="5" horiz-adv-x="592" 
d="M156 9.5q-48 23.5 -75.5 64.5t-27.5 92q0 39 12 64l72 -16q-6 -18 -6 -43q0 -53 37.5 -85t102.5 -32q84 0 135.5 57.5t51.5 154.5q0 70 -40.5 107.5t-103.5 37.5q-55 0 -101.5 -32t-71.5 -76l-69 19l107 378h401l-14 -71h-336l-72 -238q34 40 82.5 63.5t98.5 23.5
q91 0 145 -55t54 -152q0 -81 -34 -146t-96.5 -102t-143.5 -37q-60 0 -108 23.5z" />
    <glyph glyph-name="six" unicode="6" horiz-adv-x="608" 
d="M175 19q-53 33 -82.5 95t-29.5 147q0 101 38.5 206.5t114.5 176t182 70.5q80 0 131.5 -42t51.5 -109q0 -32 -15 -67l-70 16q10 21 10 46q0 42 -32.5 66.5t-84.5 24.5q-55 0 -105 -36.5t-85 -104t-49 -155.5q25 45 81 75t113 30q58 0 106 -26t76 -72.5t28 -105.5
q0 -77 -33.5 -138t-92 -95.5t-131.5 -34.5q-69 0 -122 33zM391 77q39 24 62 66.5t23 95.5q0 44 -20 78.5t-55.5 54t-78.5 19.5q-49 0 -88.5 -25.5t-62.5 -67.5t-23 -90q0 -39 19 -75t54.5 -58t82.5 -22q48 0 87 24z" />
    <glyph glyph-name="seven" unicode="7" horiz-adv-x="536" 
d="M481 629h-365l14 71h451l-13 -65l-406 -635h-86z" />
    <glyph glyph-name="eight" unicode="8" horiz-adv-x="576" 
d="M150 10.5q-49 24.5 -77 68.5t-28 101q0 70 42.5 124.5t111.5 79.5q-31 20 -52.5 55.5t-21.5 79.5q0 51 27.5 96t78 72t114.5 27q60 0 105 -21.5t69.5 -59t24.5 -83.5q0 -64 -35.5 -111.5t-94.5 -70.5q42 -22 69 -60.5t27 -90.5q0 -72 -33.5 -124t-90.5 -79.5t-127 -27.5
q-60 0 -109 24.5zM425.5 440q41.5 37 41.5 100q0 52 -35.5 81.5t-89.5 29.5q-40 0 -72.5 -18t-51 -48.5t-18.5 -66.5q0 -53 33.5 -84t84.5 -31q66 0 107.5 37zM348.5 71.5q37.5 18.5 60.5 54.5t23 85q0 58 -40 93t-102 35q-74 0 -119.5 -45t-45.5 -115q0 -55 40.5 -90.5
t101.5 -35.5q44 0 81.5 18.5z" />
    <glyph glyph-name="nine" unicode="9" horiz-adv-x="614" 
d="M133.5 28q-53.5 42 -53.5 110q0 32 12 65l72 -17q-7 -23 -7 -41q0 -42 31 -67t82 -25q90 0 152 78t85 220q-30 -49 -81.5 -79t-108.5 -30q-62 0 -112.5 27t-80 76.5t-29.5 113.5q0 74 34.5 132t93 90.5t129.5 32.5q113 0 175.5 -71.5t62.5 -198.5q0 -107 -34 -212.5
t-106 -175.5t-179 -70q-84 0 -137.5 42zM418.5 334q39.5 25 61.5 67t22 91q0 66 -40.5 110.5t-108.5 44.5q-51 0 -91.5 -24t-64 -66t-23.5 -92q0 -75 44.5 -115.5t109.5 -40.5q51 0 90.5 25z" />
    <glyph glyph-name="colon" unicode=":" horiz-adv-x="189" 
d="M92 475h94l-19 -96h-94zM19 96h94l-19 -96h-94z" />
    <glyph glyph-name="semicolon" unicode=";" horiz-adv-x="189" 
d="M92 475h94l-18 -96h-94zM-19 -113l56 113h-37l19 96h94l-19 -96l-96 -125z" />
    <glyph glyph-name="less" unicode="&#x3c;" horiz-adv-x="508" 
d="M52 273l15 74l441 200l-14 -81l-359 -160l296 -158l-15 -75z" />
    <glyph glyph-name="equal" unicode="=" horiz-adv-x="514" 
d="M93 475h416l-12 -60h-416zM56 283h416l-12 -61h-415z" />
    <glyph glyph-name="greater" unicode="&#x3e;" horiz-adv-x="508" 
d="M38 155l359 159l-296 159l15 74l364 -199l-14 -75l-442 -200z" />
    <glyph glyph-name="question" unicode="?" horiz-adv-x="534" 
d="M206 198q7 40 19 66t35.5 49t67.5 55q59 42 90.5 79.5t31.5 88.5t-33.5 81t-88.5 30q-65 0 -105.5 -41t-40.5 -102q0 -16 3 -31l-73 -15q-6 19 -6 45q0 60 28 108t79.5 75.5t119.5 27.5q90 0 143 -46.5t53 -121.5q0 -65 -37.5 -116.5t-117.5 -107.5q-45 -32 -64 -59
t-28 -79h-78zM179 98h95l-19 -98h-95z" />
    <glyph glyph-name="at" unicode="@" horiz-adv-x="943" 
d="M239.5 -109q-82.5 43 -132.5 127t-50 201q0 132 60.5 245.5t170.5 181.5t253 68q109 0 191.5 -41.5t127 -117t44.5 -174.5q0 -93 -32.5 -174.5t-91.5 -130.5t-133 -49q-38 0 -58.5 22t-20.5 60q0 18 2 27q-25 -50 -72.5 -79.5t-102.5 -29.5q-70 0 -114.5 54t-44.5 153
q0 76 32.5 146.5t92.5 115t137 44.5q42 0 76.5 -22.5t46.5 -61.5l14 68h71l-76 -378q-2 -12 -2 -20q0 -38 37 -38q48 0 86.5 41.5t60 108.5t21.5 138q0 78 -33.5 140t-101.5 98t-166 36q-113 0 -205 -58.5t-145 -156.5t-53 -211q0 -95 38 -166t104.5 -109t149.5 -38
q105 0 205 55l25 -54q-53 -32 -112.5 -48t-119.5 -16q-97 0 -179.5 43zM509.5 127q43.5 39 67.5 98.5t24 117.5q0 65 -28.5 99.5t-76.5 34.5q-55 0 -98.5 -36t-67 -92.5t-23.5 -114.5q0 -67 29 -106.5t75 -39.5q55 0 98.5 39z" />
    <glyph glyph-name="A" unicode="A" horiz-adv-x="659" 
d="M375 700h85l142 -700h-81l-41 208h-310l-121 -208h-89zM467 276l-55 286q-6 29 -8 51q-3 -5 -10 -19t-18 -32l-167 -286h258z" />
    <glyph glyph-name="B" unicode="B" horiz-adv-x="639" 
d="M178 700h245q91 0 142 -41.5t51 -111.5q0 -61 -41 -108.5t-107 -64.5q46 -18 78.5 -56t32.5 -96q0 -68 -36.5 -118t-99.5 -77t-141 -27h-261zM368 406q69 0 117.5 34t48.5 94q0 52 -33 74.5t-93 22.5h-165l-44 -225h169zM296 70q93 0 148 39t55 115q0 59 -40 86t-109 27
h-164l-52 -267h162z" />
    <glyph glyph-name="C" unicode="C" horiz-adv-x="742" 
d="M203 25.5q-66 39.5 -101 110t-35 161.5q0 108 50.5 204t142.5 154.5t210 58.5q100 0 167 -48.5t97 -132.5l-66 -40q-31 79 -83.5 114.5t-128.5 35.5q-88 0 -158.5 -49t-110.5 -128t-40 -165q0 -71 27.5 -126.5t77 -86.5t113.5 -31q76 0 138.5 40.5t107.5 114.5l60 -41
q-58 -92 -134.5 -138.5t-179.5 -46.5q-88 0 -154 39.5z" />
    <glyph glyph-name="D" unicode="D" horiz-adv-x="686" 
d="M178 700h188q87 0 152.5 -33t102.5 -98t37 -159q0 -118 -50.5 -211t-145.5 -146t-225 -53h-196zM242 71q106 0 181.5 43.5t115 119.5t39.5 173q0 114 -62.5 168t-170.5 54h-103l-108 -558h108z" />
    <glyph glyph-name="E" unicode="E" horiz-adv-x="587" 
d="M178 700h428l-14 -70h-349l-46 -233h322l-14 -70h-321l-50 -257h352l-14 -70h-431z" />
    <glyph glyph-name="F" unicode="F" horiz-adv-x="591" 
d="M178 700h442l-14 -70h-363l-50 -253h334l-14 -70h-333l-60 -307h-79z" />
    <glyph glyph-name="G" unicode="G" horiz-adv-x="760" 
d="M197.5 25q-62.5 39 -97 107t-34.5 154q0 120 51 217.5t143.5 154t210.5 56.5q101 0 168.5 -45.5t98.5 -124.5l-64 -42q-27 71 -82.5 107t-132.5 36q-88 0 -159.5 -47.5t-112.5 -129t-41 -177.5q0 -65 26.5 -118.5t74 -84.5t109.5 -31q64 0 119.5 33.5t92.5 85t52 105.5
h-249l12 67h330l-68 -348h-53l-3 115q-47 -65 -106 -97t-142 -32q-81 0 -143.5 39z" />
    <glyph glyph-name="H" unicode="H" horiz-adv-x="689" 
d="M178 700h79l-60 -308h352l60 308h80l-137 -700h-80l64 322h-353l-63 -322h-79z" />
    <glyph glyph-name="I" unicode="I" horiz-adv-x="257" 
d="M178 700h79l-137 -700h-79z" />
    <glyph glyph-name="J" unicode="J" horiz-adv-x="532" 
d="M125.5 7q-40.5 21 -64.5 58t-24 83q0 30 5 51l78 -8q-4 -17 -4 -35q0 -43 33 -71t79 -28q59 0 98 35.5t53 105.5l98 502h79l-97 -500q-22 -109 -82.5 -161.5t-161.5 -52.5q-49 0 -89.5 21z" />
    <glyph glyph-name="K" unicode="K" horiz-adv-x="618" 
d="M178 700h79l-61 -318l79 71l283 247h104l-292 -259l176 -441h-90l-152 386l-131 -115l-53 -271h-79z" />
    <glyph glyph-name="L" unicode="L" horiz-adv-x="568" 
d="M178 700h79l-123 -629h352l-14 -71h-431z" />
    <glyph glyph-name="M" unicode="M" horiz-adv-x="856" 
d="M177 700h85l131 -622l372 622h91l-137 -700h-77l106 544q-9 -17 -56 -95l-269 -449h-85l-97 448l-17 102l-107 -550h-77z" />
    <glyph glyph-name="N" unicode="N" horiz-adv-x="705" 
d="M178 700h80l236 -533q15 -38 20 -55l114 588h77l-137 -700h-81l-235 533q-16 40 -20 55l-115 -588h-76z" />
    <glyph glyph-name="O" unicode="O" horiz-adv-x="784" 
d="M214.5 24.5q-69.5 38.5 -108.5 109t-39 164.5q0 106 47.5 202t135.5 155t204 59q93 0 161 -37t104.5 -107t36.5 -167q0 -109 -45.5 -204.5t-133 -154t-206.5 -58.5q-87 0 -156.5 38.5zM533.5 104.5q68.5 47.5 105.5 125.5t37 167q0 120 -62.5 183t-170.5 63
q-84 0 -151.5 -49t-105.5 -127.5t-38 -164.5q0 -75 30.5 -130.5t82 -85t115.5 -29.5q89 0 157.5 47.5z" />
    <glyph glyph-name="P" unicode="P" horiz-adv-x="674" 
d="M178 700h266q107 0 165 -51.5t58 -144.5q0 -75 -36 -129t-101 -83t-149 -29h-209l-52 -263h-79zM387 333q94 0 146.5 45t52.5 124q0 63 -38.5 95.5t-111.5 32.5h-193l-58 -297h202z" />
    <glyph glyph-name="Q" unicode="Q" horiz-adv-x="784" 
d="M400 -13l-29 -1q-87 0 -156.5 38.5t-108.5 109t-39 164.5q0 106 47.5 202t135.5 155t204 59q93 0 161 -37t104.5 -107t36.5 -167q0 -91 -32 -173.5t-94 -143.5t-148 -85q22 -46 61 -92l-65 -52q-51 61 -78 130zM533.5 104.5q68.5 47.5 105.5 125.5t37 167
q0 120 -62.5 183t-170.5 63q-84 0 -151.5 -49t-105.5 -127.5t-38 -164.5q0 -75 30.5 -130.5t82 -85t115.5 -29.5q89 0 157.5 47.5z" />
    <glyph glyph-name="R" unicode="R" horiz-adv-x="635" 
d="M178 700h260q97 0 151 -46.5t54 -127.5q0 -57 -28 -103.5t-76 -75.5t-108 -38l113 -309h-84l-113 305h-167l-60 -305h-79zM378 374q79 0 132 37t53 105q0 115 -135 115h-184l-51 -257h185z" />
    <glyph glyph-name="S" unicode="S" horiz-adv-x="629" 
d="M118.5 48q-64.5 62 -76.5 156l75 37q7 -83 53.5 -134.5t129.5 -51.5q46 0 87 18t65.5 51.5t24.5 78.5q0 38 -17.5 62t-51.5 39t-93 30q-188 46 -188 182q0 60 32 104.5t89 69t131 24.5q87 0 145.5 -43.5t80.5 -124.5l-64 -39q-39 138 -174 138q-66 0 -114.5 -32
t-48.5 -88q0 -50 40.5 -81t125.5 -50q90 -20 138 -62.5t48 -113.5q0 -68 -32.5 -121t-92 -82t-136.5 -29q-112 0 -176.5 62z" />
    <glyph glyph-name="T" unicode="T" horiz-adv-x="553" 
d="M311 629h-215l14 71h509l-14 -71h-215l-123 -629h-79z" />
    <glyph glyph-name="U" unicode="U" horiz-adv-x="668" 
d="M174.5 10.5q-48.5 24.5 -76 71t-27.5 110.5q0 37 7 73l84 435h80l-89 -454q-4 -23 -4 -48q0 -64 39.5 -102.5t108.5 -38.5q87 0 142.5 47t72.5 131l90 465h79l-91 -469q-24 -124 -102.5 -184.5t-202.5 -60.5q-62 0 -110.5 24.5z" />
    <glyph glyph-name="V" unicode="V" horiz-adv-x="617" 
d="M96 700h81l88 -537q4 -29 10 -77q10 22 16 33q18 38 22 46l296 535h88l-393 -700h-89z" />
    <glyph glyph-name="W" unicode="W" horiz-adv-x="898" 
d="M98 700h79l36 -529q0 -6 2 -31.5t2 -41.5q7 18 19 43.5t14 30.5l242 528h91l35 -526l1 -76q10 25 20.5 48t12.5 27l243 527h82l-331 -700h-87l-41 601l-274 -601h-88z" />
    <glyph glyph-name="X" unicode="X" horiz-adv-x="574" 
d="M271 387l-140 313h87l108 -254l201 254h96l-266 -323l159 -377h-85l-128 313l-245 -313h-96z" />
    <glyph glyph-name="Y" unicode="Y" horiz-adv-x="551" 
d="M244 287l-150 413h88l98 -296l14 -50q6 11 30 46l219 300h91l-311 -413l-56 -287h-79z" />
    <glyph glyph-name="Z" unicode="Z" horiz-adv-x="593" 
d="M8 70l501 558h-381l14 72h478l-15 -72l-494 -556h403l-14 -72h-507z" />
    <glyph glyph-name="bracketleft" unicode="[" horiz-adv-x="328" 
d="M177 700h187l-14 -68h-111l-138 -714h111l-13 -68h-187z" />
    <glyph glyph-name="backslash" unicode="\" horiz-adv-x="494" 
d="M102 730h77l254 -760h-77z" />
    <glyph glyph-name="bracketright" unicode="]" horiz-adv-x="327" 
d="M-11 -82h110l138 714h-111l14 68h187l-165 -850h-186z" />
    <glyph glyph-name="asciicircum" unicode="^" horiz-adv-x="441" 
d="M269 700h77l114 -250h-71l-89 194l-162 -194h-78z" />
    <glyph glyph-name="underscore" unicode="_" horiz-adv-x="453" 
d="M-39 -7h431l-12 -61h-430z" />
    <glyph glyph-name="grave" unicode="`" horiz-adv-x="289" 
d="M133 702h100l41 -143h-64z" />
    <glyph glyph-name="a" unicode="a" horiz-adv-x="602" 
d="M137 16q-47 30 -72 82t-25 117q0 82 34.5 149.5t97.5 106.5t143 39q59 0 102.5 -26t62.5 -74l17 86h78l-97 -496h-78l15 76q-31 -47 -72.5 -68.5t-95.5 -21.5q-63 0 -110 30zM364.5 85.5q44.5 31.5 69.5 85t25 116.5q0 71 -38.5 113t-104.5 42q-57 0 -102.5 -30
t-70.5 -81t-25 -113q0 -73 40.5 -118.5t106.5 -45.5q55 0 99.5 31.5z" />
    <glyph glyph-name="b" unicode="b" horiz-adv-x="607" 
d="M182.5 14q-43.5 28 -63.5 73l-17 -87h-77l135 700h78l-53 -276q31 41 78 63.5t102 22.5q57 0 103.5 -26t73.5 -76.5t27 -120.5q0 -81 -36 -150t-101 -110t-149 -41q-57 0 -100.5 28zM389.5 86q45.5 32 71.5 86t26 115q0 74 -39.5 114.5t-107.5 40.5q-57 0 -103 -33
t-71.5 -86.5t-25.5 -112.5q0 -71 42 -113.5t107 -42.5q55 0 100.5 32z" />
    <glyph glyph-name="c" unicode="c" horiz-adv-x="558" 
d="M149 14.5q-51 28.5 -80 81.5t-29 123q0 74 34.5 141t100.5 108.5t156 41.5q73 0 126 -36.5t77 -99.5l-63 -36q-42 102 -151 102q-58 0 -103.5 -30.5t-70.5 -80.5t-25 -107q0 -78 42 -122t107 -44q60 0 102.5 28.5t76.5 85.5l56 -40q-43 -75 -101.5 -109.5t-139.5 -34.5
q-64 0 -115 28.5z" />
    <glyph glyph-name="d" unicode="d" horiz-adv-x="608" 
d="M146 14.5q-49 28.5 -77 81t-28 122.5q0 85 34.5 151t97 103.5t141.5 37.5q61 0 106 -27t68 -73l57 290h78l-136 -700h-78l14 76q-24 -40 -69 -65t-97 -25q-62 0 -111 28.5zM370.5 86q45.5 32 71.5 84.5t26 113.5q0 71 -44.5 114.5t-111.5 43.5q-54 0 -97.5 -29t-68 -79
t-24.5 -112q0 -80 41 -124t107 -44q55 0 100.5 32z" />
    <glyph glyph-name="e" unicode="e" horiz-adv-x="576" 
d="M150.5 12.5q-50.5 26.5 -80 80.5t-29.5 132t37 143.5t102 103.5t146 38q67 0 115.5 -26t74 -71t25.5 -102q0 -25 -5 -53l-4 -22h-416q-1 -7 -1 -24q0 -45 19.5 -81.5t55 -58t81.5 -21.5q61 0 102.5 29.5t75.5 89.5l56 -36q-42 -76 -100.5 -112t-140.5 -36
q-63 0 -113.5 26.5zM468 298l1 22q0 56 -41 92t-107 36t-119 -41t-71 -109h337z" />
    <glyph glyph-name="f" unicode="f" horiz-adv-x="316" 
d="M136 437h-76l12 59h76l21 104q14 72 57 111t117 39q26 0 45 -7l-13 -67q-17 6 -40 6q-33 0 -57 -21.5t-32 -65.5l-20 -99h115l-12 -59h-115l-84 -437h-78z" />
    <glyph glyph-name="g" unicode="g" horiz-adv-x="586" 
d="M109.5 -199.5q-42.5 18.5 -65 50t-22.5 68.5q0 36 19 65l68 -21q-10 -17 -10 -40q0 -34 34.5 -56t89.5 -22q143 0 178 183l11 59q-52 -79 -162 -79q-56 0 -103 25t-75.5 74.5t-28.5 119.5q0 75 32 140t92.5 104t143.5 39q59 0 104 -24.5t63 -62.5l15 73h78l-92 -472
q-23 -123 -88.5 -182.5t-179.5 -59.5q-59 0 -101.5 18.5zM367 105q43 31 66.5 81.5t23.5 105.5q0 69 -41 110.5t-107 41.5q-55 0 -97.5 -30t-66 -79.5t-23.5 -104.5q0 -73 41 -114.5t105 -41.5q56 0 99 31z" />
    <glyph glyph-name="h" unicode="h" horiz-adv-x="572" 
d="M161 700h78l-55 -281q32 42 80 66.5t102 24.5q69 0 109.5 -35t40.5 -102q0 -23 -5 -53l-63 -320h-78l62 314q3 15 3 33q0 45 -25.5 70t-73.5 25q-40 0 -78 -21.5t-65.5 -61.5t-37.5 -91l-53 -268h-78z" />
    <glyph glyph-name="i" unicode="i" horiz-adv-x="225" 
d="M121 496h79l-97 -496h-78zM150 678h93l-19 -94h-93z" />
    <glyph glyph-name="j" unicode="j" horiz-adv-x="225" 
d="M-114 -202l20 68q18 -8 37 -8q29 0 45 17.5t23 52.5l110 568h78l-111 -577q-24 -130 -147 -130q-32 0 -55 9zM151 678h93l-19 -94h-93z" />
    <glyph glyph-name="k" unicode="k" horiz-adv-x="499" 
d="M161 700h78l-75 -385l214 181h103l-202 -171l143 -325h-84l-119 276l-76 -66l-41 -210h-78z" />
    <glyph glyph-name="l" unicode="l" horiz-adv-x="224" 
d="M161 700h78l-137 -700h-78z" />
    <glyph glyph-name="m" unicode="m" horiz-adv-x="813" 
d="M123 496h78l-13 -71q25 38 66.5 61.5t90.5 23.5q44 0 75 -22t43 -63q30 40 73 62.5t91 22.5q62 0 98 -32t36 -88q0 -19 -4 -42l-68 -348h-78l66 339q4 17 4 35q0 34 -21.5 52t-62.5 18q-49 0 -90.5 -45.5t-58.5 -133.5l-52 -265h-78l66 339q3 18 3 27q0 36 -21 57t-58 21
q-50 0 -92 -47t-59 -131l-52 -266h-78z" />
    <glyph glyph-name="n" unicode="n" horiz-adv-x="570" 
d="M122 496h79l-15 -74q66 88 178 88q68 0 109 -36t41 -103q0 -22 -4 -45l-63 -326h-78l62 319q4 22 4 35q0 41 -27.5 64.5t-73.5 23.5q-39 0 -76 -22t-64 -60.5t-36 -86.5l-53 -273h-79z" />
    <glyph glyph-name="o" unicode="o" horiz-adv-x="599" 
d="M157 12.5q-53 26.5 -85.5 77.5t-32.5 122q0 83 36.5 151t103 107.5t151.5 39.5q63 0 115.5 -25t83.5 -75t31 -122q0 -85 -37 -154t-103 -108.5t-148 -39.5q-62 0 -115 26.5zM380 83.5q46 29.5 73.5 81t27.5 113.5q0 75 -44 119.5t-118 44.5q-58 0 -104 -32.5t-72 -84
t-26 -107.5q0 -74 45.5 -119t117.5 -45q54 0 100 29.5z" />
    <glyph glyph-name="p" unicode="p" horiz-adv-x="604" 
d="M122 496h79l-14 -71q24 37 71.5 61t102.5 24q59 0 105.5 -26.5t73 -77.5t26.5 -122q0 -77 -35 -145.5t-99.5 -110.5t-148.5 -42q-57 0 -101 27t-63 66l-54 -283h-78zM391.5 85.5q44.5 31.5 70 83.5t25.5 112q0 76 -40.5 118.5t-108.5 42.5q-52 0 -97.5 -31t-72.5 -84
t-27 -117q0 -70 41.5 -113t109.5 -43q55 0 99.5 31.5z" />
    <glyph glyph-name="q" unicode="q" horiz-adv-x="609" 
d="M422 65q-28 -37 -71.5 -58t-97.5 -21q-59 0 -107.5 27t-77 79t-28.5 124q0 82 36 149.5t100 106t145 38.5q59 0 104 -27t64 -72l17 85h78l-136 -700h-78zM366.5 83.5q46.5 29.5 73.5 80.5t27 114q0 77 -41.5 120.5t-108.5 43.5q-54 0 -99.5 -29t-72 -80t-26.5 -114
q0 -79 40 -122t107 -43q54 0 100.5 29.5z" />
    <glyph glyph-name="r" unicode="r" horiz-adv-x="348" 
d="M122 496h79l-15 -78q27 46 64.5 69t89.5 23q18 0 35 -5l-22 -69q-18 6 -42 6q-53 0 -96 -50t-59 -130l-51 -262h-79z" />
    <glyph glyph-name="s" unicode="s" horiz-adv-x="485" 
d="M92.5 28q-51.5 42 -64.5 104l66 37q8 -52 41.5 -85t87.5 -33q53 0 84 26t31 68q0 37 -23.5 54.5t-85.5 33.5q-140 37 -140 136q0 62 50 101.5t128 39.5q71 0 114 -32t60 -88l-59 -31q-28 90 -119 90q-38 0 -70 -20t-32 -55q0 -32 26.5 -52t87.5 -34q70 -17 104.5 -50
t34.5 -87q0 -75 -54 -120t-142 -45q-74 0 -125.5 42z" />
    <glyph glyph-name="t" unicode="t" horiz-adv-x="344" 
d="M115 12.5q-28 26.5 -28 76.5q0 25 3 41l59 307h-83l12 59h83l26 134h78l-26 -134h116l-12 -59h-115l-59 -305q-3 -16 -3 -29q0 -24 15 -37t39 -13q20 0 39 6l-4 -63q-29 -10 -65 -10q-47 0 -75 26.5z" />
    <glyph glyph-name="u" unicode="u" horiz-adv-x="570" 
d="M101 27q-43 41 -43 108q0 23 4 48l61 313h78l-59 -305q-5 -25 -5 -42q0 -44 28 -69.5t77 -25.5q37 0 73 22.5t62.5 64.5t38.5 98l50 257h78l-96 -496h-78l14 74q-26 -41 -70.5 -64.5t-97.5 -23.5q-72 0 -115 41z" />
    <glyph glyph-name="v" unicode="v" horiz-adv-x="494" 
d="M60 496h82l75 -400l228 400h84l-290 -496h-77z" />
    <glyph glyph-name="w" unicode="w" horiz-adv-x="689" 
d="M61 496h76l25 -402l183 402h88l33 -402l179 402h78l-229 -496h-86l-35 407l-185 -407h-85z" />
    <glyph glyph-name="x" unicode="x" horiz-adv-x="427" 
d="M178 275l-101 221h83l70 -165l130 165h90l-188 -228l114 -268h-81l-84 207l-162 -207h-93z" />
    <glyph glyph-name="y" unicode="y" horiz-adv-x="500" 
d="M-26 -201l25 70q17 -9 39 -9q23 0 38.5 11t31.5 40l55 94l-106 491h80l83 -394l230 394h87l-363 -609q-34 -57 -64.5 -77.5t-81.5 -20.5q-33 0 -54 10z" />
    <glyph glyph-name="z" unicode="z" horiz-adv-x="481" 
d="M7 64l364 368h-281l13 64h371l-13 -64l-363 -368h306l-12 -64h-397z" />
    <glyph glyph-name="braceleft" unicode="{" horiz-adv-x="372" 
d="M115.5 -121q-33.5 29 -33.5 87q0 16 7 56l26 137q3 18 3 31q0 27 -15 39.5t-47 12.5l13 66q40 0 61.5 19.5t29.5 59.5l32 168q16 78 58 111.5t122 33.5h35l-13 -68h-33q-36 0 -60.5 -20.5t-32.5 -58.5l-33 -168q-10 -49 -28.5 -72.5t-57.5 -37.5q23 -10 35 -28t12 -48
q0 -18 -6 -47l-26 -139q-4 -16 -4 -34q0 -32 15.5 -46.5t47.5 -14.5h33l-14 -68h-37q-56 0 -89.5 29z" />
    <glyph glyph-name="bar" unicode="|" horiz-adv-x="247" 
d="M180 740h77l-165 -850h-76z" />
    <glyph glyph-name="braceright" unicode="}" horiz-adv-x="372" 
d="M-12 -82h34q36 0 60 20t32 59l33 168q10 49 28.5 72.5t57.5 37.5q-23 10 -35 28t-12 48q0 19 6 47l27 139q4 24 4 34q0 32 -15.5 46.5t-48.5 14.5h-33l14 68h38q56 0 89 -29t33 -87q0 -24 -7 -56l-26 -137q-3 -18 -3 -31q0 -27 15 -39.5t47 -12.5l-13 -66
q-40 0 -61.5 -19.5t-29.5 -59.5l-32 -168q-16 -78 -58 -111.5t-122 -33.5h-35z" />
    <glyph glyph-name="asciitilde" unicode="~" horiz-adv-x="445" 
d="M59 300q0 41 27 69t78 28q32 0 53 -10t45 -29q18 -14 29 -20t26 -6q16 0 25 10t9 28q0 6 -2 14l64 12q5 -8 5 -32q0 -45 -27.5 -70t-76.5 -25q-33 0 -55 11t-44 30q-18 14 -27.5 19.5t-21.5 5.5q-18 0 -28.5 -11.5t-10.5 -30.5q0 -6 2 -14l-65 -11q-5 12 -5 32z" />
    <glyph glyph-name="uni00A0" unicode="&#xa0;" horiz-adv-x="276" 
 />
    <glyph glyph-name="exclamdown" unicode="&#xa1;" horiz-adv-x="266" 
d="M133 496h96l-20 -98h-95zM48 17l70 297h54l-45 -297l-43 -221h-80z" />
    <glyph glyph-name="cent" unicode="&#xa2;" horiz-adv-x="558" 
d="M205 -7q-76 17 -120.5 78t-44.5 148q0 70 31 134t91 106.5t142 48.5l22 112h71l-22 -114q57 -10 98 -44t61 -88l-63 -36q-33 81 -110 98l-73 -380q53 4 91 33t70 81l56 -40q-42 -72 -98 -107t-133 -37l-18 -96h-71zM291 437q-51 -7 -89.5 -38.5t-59.5 -78t-21 -98.5
q0 -62 26.5 -102.5t70.5 -54.5z" />
    <glyph glyph-name="sterling" unicode="&#xa3;" horiz-adv-x="556" 
d="M34 59q52 57 78.5 112.5t26.5 132.5v13h-92l11 62h74q-4 44 -4 80q0 72 29 129.5t85.5 91.5t137.5 34q84 0 136.5 -43t52.5 -113q0 -44 -22 -86l-71 14q14 33 14 63q0 43 -30.5 71t-88.5 28q-76 0 -120.5 -53t-44.5 -138q0 -32 4 -78h197l-11 -62h-180q1 -6 1 -28
q-1 -53 -26 -112.5t-66 -107.5h349l-13 -69h-437z" />
    <glyph glyph-name="currency" unicode="&#xa4;" horiz-adv-x="631" 
d="M88 153l66 66q-41 55 -41 131t41 131l-66 66l51 50l66 -65q59 41 130 41q72 0 131 -41l66 65l51 -50l-66 -66q40 -54 40 -131t-40 -131l66 -66l-51 -50l-66 65q-59 -41 -131 -41q-71 0 -130 41l-66 -65zM444 236q42 44 42 114t-42 114t-109 44q-66 0 -108 -44t-42 -114
t42 -114t108 -44q67 0 109 44z" />
    <glyph glyph-name="yen" unicode="&#xa5;" horiz-adv-x="556" 
d="M218 146h-148l12 61h148l16 80h-148l12 61h113l-116 352h85l90 -296q4 -11 13 -49q16 31 29 48l212 297h90l-254 -352h114l-12 -61h-149l-16 -80h149l-12 -61h-148l-29 -146h-79z" />
    <glyph glyph-name="brokenbar" unicode="&#xa6;" horiz-adv-x="247" 
d="M180 740h77l-70 -358h-76zM85 248h77l-70 -358h-76z" />
    <glyph glyph-name="section" unicode="&#xa7;" horiz-adv-x="516" 
d="M84 -55q-53 38 -69 95l63 41q15 -54 52 -82t89 -28q50 0 86.5 29.5t36.5 76.5q0 41 -28 65t-99 41q-67 16 -103 54t-36 89q0 75 73 122q-29 37 -29 88q0 52 27.5 92.5t75 63t105.5 22.5q72 0 125.5 -38t71.5 -95l-64 -41q-15 54 -52.5 82t-89.5 28q-53 0 -89 -29t-36 -74
q0 -41 29.5 -68.5t104.5 -45.5q70 -17 103 -51t33 -79q0 -83 -76 -132q28 -36 28 -82q0 -54 -26.5 -95.5t-73.5 -64t-106 -22.5q-73 0 -126 38zM389 292q0 29 -26 50t-86 35q-49 12 -80 30q-21 -12 -33.5 -30.5t-12.5 -41.5q0 -33 24 -53.5t87 -35.5q41 -10 77 -32
q50 26 50 78z" />
    <glyph glyph-name="dieresis" unicode="&#xa8;" horiz-adv-x="380" 
d="M136 678h91l-18 -89h-90zM293 678h90l-18 -89h-90z" />
    <glyph glyph-name="copyright" unicode="&#xa9;" horiz-adv-x="855" 
d="M265.5 35q-83.5 49 -132.5 132.5t-49 182.5t49 182.5t132.5 132.5t182.5 49t182.5 -49t132.5 -132.5t49 -182.5t-49 -182.5t-132.5 -132.5t-182.5 -49t-182.5 49zM602 84q70 41 110.5 111.5t40.5 154.5t-40.5 154.5t-110.5 111.5t-154 41t-154 -41t-111 -111.5
t-41 -154.5t41 -154.5t111 -111.5t154 -41t154 41zM347.5 172q-45.5 26 -71 72.5t-25.5 105.5q0 58 26.5 104.5t72 73t99.5 26.5q62 0 106.5 -28t64.5 -78l-44 -29q-39 80 -127 80q-37 0 -68 -18.5t-49.5 -52t-18.5 -78.5q0 -67 39 -108t98 -41q84 0 128 85l44 -29
q-26 -53 -70 -82t-101 -29q-58 0 -103.5 26z" />
    <glyph glyph-name="ordfeminine" unicode="&#xaa;" horiz-adv-x="452" 
d="M156 312q-33 19 -52 55t-19 84q0 58 23.5 105t67 74t101.5 27q40 0 73.5 -17.5t45.5 -47.5l11 58h62l-68 -350h-62l11 55q-38 -62 -122 -62q-39 0 -72 19zM316 368.5q31 21.5 48 57t17 75.5q0 44 -29.5 73t-72.5 29q-56 0 -94 -41.5t-38 -102.5q0 -50 26.5 -81t71.5 -31
q40 0 71 21.5z" />
    <glyph glyph-name="guillemotleft" unicode="&#xab;" horiz-adv-x="509" 
d="M54 275l193 199h95l-200 -204l113 -194h-84zM230 275l194 199h95l-200 -204l113 -194h-84z" />
    <glyph glyph-name="logicalnot" unicode="&#xac;" horiz-adv-x="528" 
d="M394 333h-330l12 64h409l-38 -198h-79z" />
    <glyph glyph-name="uni00AD" unicode="&#xad;" horiz-adv-x="454" 
d="M65 341h360l-12 -60h-360z" />
    <glyph glyph-name="registered" unicode="&#xae;" horiz-adv-x="855" 
d="M265.5 35q-83.5 49 -132.5 132.5t-49 182.5t49 182.5t132.5 132.5t182.5 49t182.5 -49t132.5 -132.5t49 -182.5t-49 -182.5t-132.5 -132.5t-182.5 -49t-182.5 49zM602 84q70 41 110.5 111.5t40.5 154.5t-40.5 154.5t-110.5 111.5t-154 41t-154 -41t-111 -111.5
t-41 -154.5t41 -154.5t111 -111.5t154 -41t154 41zM309 549h160q61 0 95.5 -32t34.5 -84q0 -44 -27.5 -73t-73.5 -38l98 -171h-62l-96 168h-71v-168h-58v398zM467 366q36 0 56 18.5t20 48.5q0 31 -19.5 48.5t-56.5 17.5h-100v-133h100z" />
    <glyph glyph-name="macron" unicode="&#xaf;" horiz-adv-x="309" 
d="M118 667h217l-13 -64h-217z" />
    <glyph glyph-name="degree" unicode="&#xb0;" horiz-adv-x="358" 
d="M173.5 460q-31.5 18 -49.5 49t-18 69q0 37 18 68t49.5 49.5t70.5 18.5q38 0 69.5 -18.5t49.5 -49.5t18 -68q0 -38 -18 -69t-49.5 -49t-69.5 -18q-39 0 -70.5 18zM301.5 520q22.5 24 22.5 58t-22.5 57.5t-57.5 23.5q-36 0 -58.5 -23.5t-22.5 -57.5q0 -35 22.5 -58.5
t58.5 -23.5q35 0 57.5 24z" />
    <glyph glyph-name="plusminus" unicode="&#xb1;" horiz-adv-x="517" 
d="M244 334h-176l11 60h176l35 178h63l-35 -178h178l-12 -60h-177l-35 -178h-63zM14 60h417l-12 -60h-416z" />
    <glyph glyph-name="uni00B2" unicode="&#xb2;" horiz-adv-x="339" 
d="M98 471l164 133q25 20 36.5 40t11.5 43t-15.5 36.5t-42.5 13.5q-31 0 -49 -18t-18 -46q0 -5 2 -15l-54 -8q-3 11 -3 24q0 48 35 80.5t93 32.5q49 0 80 -26t31 -69q0 -36 -18 -65t-55 -59l-105 -86h146l-10 -52h-236z" />
    <glyph glyph-name="uni00B3" unicode="&#xb3;" horiz-adv-x="340" 
d="M137.5 450q-32.5 27 -32.5 65q0 26 9 41l50 -12q-4 -9 -4 -23q0 -21 17.5 -34t43.5 -13q31 0 50.5 17t19.5 47q0 57 -82 57l8 45q37 0 60.5 14t23.5 42q0 21 -14 32t-38 11t-41 -13t-17 -33q0 -8 1 -15l-51 -5q-2 10 -2 18q0 40 32 68t82 28q48 0 76 -22.5t28 -55.5
q0 -30 -16.5 -53t-46.5 -34q24 -8 39.5 -27.5t15.5 -47.5q0 -54 -36 -89t-95 -35q-48 0 -80.5 27z" />
    <glyph glyph-name="acute" unicode="&#xb4;" horiz-adv-x="289" 
d="M206 702h107l-131 -143h-65z" />
    <glyph glyph-name="uni00B5" unicode="&#xb5;" horiz-adv-x="571" 
d="M124 496h78l-60 -305q-4 -27 -4 -42q0 -44 28 -69.5t76 -25.5q38 0 73.5 22.5t62.5 64.5t38 98l50 257h79l-96 -496h-79l15 74q-26 -42 -69.5 -65t-98.5 -23q-34 0 -62.5 10t-47.5 29q-1 -5 -4.5 -32.5t-6.5 -39.5l-31 -157h-78z" />
    <glyph glyph-name="paragraph" unicode="&#xb6;" horiz-adv-x="624" 
d="M314 311h-36q-52 0 -94.5 20.5t-67.5 59.5t-25 92q0 62 32.5 111.5t91.5 77.5t136 28h324l-12 -65h-62l-146 -755h-74l147 755h-77l-146 -755h-74z" />
    <glyph glyph-name="periodcentered" unicode="&#xb7;" horiz-adv-x="189" 
d="M78 407h94l-18 -96h-95z" />
    <glyph glyph-name="cedilla" unicode="&#xb8;" horiz-adv-x="298" 
d="M28 -187.5q-20 16.5 -26 44.5l48 11q7 -28 38 -28q18 0 30 11t12 32q0 16 -10 24.5t-26 8.5q-22 0 -47 -20l-26 28l49 92h55l-51 -73q21 13 45 13q28 0 46.5 -18t18.5 -51q0 -42 -27 -66.5t-75 -24.5q-34 0 -54 16.5z" />
    <glyph glyph-name="uni00B9" unicode="&#xb9;" horiz-adv-x="245" 
d="M208 704q-15 -13 -33.5 -18t-45.5 -5l11 56q32 0 52 10t35 33h54l-69 -350h-58z" />
    <glyph glyph-name="ordmasculine" unicode="&#xba;" horiz-adv-x="455" 
d="M169 312.5q-37 19.5 -59.5 55.5t-22.5 83q0 54 24.5 101.5t72 76t113.5 28.5q70 0 114.5 -42t44.5 -113q0 -58 -26.5 -105.5t-73.5 -75.5t-108 -28q-42 0 -79 19.5zM327.5 367q32.5 20 50.5 54.5t18 74.5q0 48 -30 77.5t-77 29.5q-41 0 -73.5 -20.5t-50 -54t-17.5 -71.5
q0 -51 30.5 -80.5t76.5 -29.5q40 0 72.5 20z" />
    <glyph glyph-name="guillemotright" unicode="&#xbb;" horiz-adv-x="510" 
d="M201 280l-113 194h84l118 -199l-194 -199h-95zM378 280l-113 194h84l117 -199l-193 -199h-95z" />
    <glyph glyph-name="onequarter" unicode="&#xbc;" horiz-adv-x="743" 
d="M192 624q-15 -13 -33.5 -18t-45.5 -5l11 56q32 0 52 10t35 33h54l-69 -350h-58zM54 40l565 660l43 -39l-565 -660zM557 67h-168l10 50l212 233h61l-46 -233h39l-10 -50h-39l-13 -67h-59zM567 117l28 143l-131 -143h103z" />
    <glyph glyph-name="onehalf" unicode="&#xbd;" horiz-adv-x="771" 
d="M192 624q-15 -13 -33.5 -18t-45.5 -5l11 56q32 0 52 10t35 33h54l-69 -350h-58zM54 40l565 660l43 -39l-565 -660zM447 41l164 133q25 20 36.5 40t11.5 43t-15.5 36.5t-42.5 13.5q-31 0 -49 -18t-18 -46q0 -5 2 -15l-54 -8q-3 11 -3 24q0 48 35 80.5t93 32.5q49 0 80 -26
t31 -69q0 -36 -18 -65t-55 -59l-105 -86h146l-10 -52h-236z" />
    <glyph glyph-name="threequarters" unicode="&#xbe;" horiz-adv-x="839" 
d="M122.5 370q-32.5 27 -32.5 65q0 26 9 41l50 -12q-4 -9 -4 -23q0 -21 17.5 -34t43.5 -13q31 0 50.5 17t19.5 47q0 57 -82 57l8 45q37 0 60.5 14t23.5 42q0 21 -14 32t-38 11t-41 -13t-17 -33q0 -8 1 -15l-51 -5q-2 10 -2 18q0 40 32 68t82 28q48 0 76 -22.5t28 -55.5
q0 -30 -16.5 -53t-46.5 -34q24 -8 39.5 -27.5t15.5 -47.5q0 -54 -36 -89t-95 -35q-48 0 -80.5 27zM150 40l565 660l43 -39l-565 -660zM652 67h-168l10 50l212 233h61l-46 -233h39l-10 -50h-39l-13 -67h-59zM662 117l28 143l-131 -143h103z" />
    <glyph glyph-name="questiondown" unicode="&#xbf;" horiz-adv-x="534" 
d="M355 398h-95l19 98h95zM328 298q-7 -40 -19 -66t-35.5 -49t-67.5 -55q-59 -42 -90.5 -79.5t-31.5 -88.5t33.5 -81t88.5 -30q65 0 105.5 41t40.5 102q0 16 -3 31l74 15q5 -20 5 -45q0 -60 -27.5 -108t-79 -75.5t-120.5 -27.5q-89 0 -142 46.5t-53 121.5q0 65 37 116.5
t117 107.5q45 32 64 59t28 79h78z" />
    <glyph glyph-name="Agrave" unicode="&#xc0;" horiz-adv-x="659" 
d="M375 700h85l142 -700h-81l-41 208h-310l-121 -208h-89zM467 276l-55 286q-6 29 -8 51q-3 -5 -10 -19t-18 -32l-167 -286h258zM320 906h101l41 -143h-64z" />
    <glyph glyph-name="Aacute" unicode="&#xc1;" horiz-adv-x="659" 
d="M375 700h85l142 -700h-81l-41 208h-310l-121 -208h-89zM467 276l-55 286q-6 29 -8 51q-3 -5 -10 -19t-18 -32l-167 -286h258zM486 906h107l-131 -143h-65z" />
    <glyph glyph-name="Acircumflex" unicode="&#xc2;" horiz-adv-x="659" 
d="M375 700h85l142 -700h-81l-41 208h-310l-121 -208h-89zM467 276l-55 286q-6 29 -8 51q-3 -5 -10 -19t-18 -32l-167 -286h258zM425 906h64l75 -143h-61l-59 73l-82 -73h-68z" />
    <glyph glyph-name="Atilde" unicode="&#xc3;" horiz-adv-x="659" 
d="M375 700h85l142 -700h-81l-41 208h-310l-121 -208h-89zM467 276l-55 286q-6 29 -8 51q-3 -5 -10 -19t-18 -32l-167 -286h258zM462.5 776.5q-19.5 10.5 -39.5 29.5q-16 15 -25.5 21t-24.5 6q-16 0 -25.5 -10.5t-9.5 -25.5q0 -6 2 -16l-60 -11q-5 10 -5 29q0 40 25.5 66
t73.5 26q31 0 50.5 -10.5t39.5 -29.5q15 -14 25.5 -20.5t24.5 -6.5q15 0 24.5 10t9.5 25q0 10 -3 17l60 12q4 -20 4 -34q0 -41 -25.5 -64.5t-68.5 -23.5q-33 0 -52.5 10.5z" />
    <glyph glyph-name="Adieresis" unicode="&#xc4;" horiz-adv-x="659" 
d="M375 700h85l142 -700h-81l-41 208h-310l-121 -208h-89zM467 276l-55 286q-6 29 -8 51q-3 -5 -10 -19t-18 -32l-167 -286h258zM330 882h90l-18 -89h-90zM486 882h90l-17 -89h-91z" />
    <glyph glyph-name="Aring" unicode="&#xc5;" horiz-adv-x="659" 
d="M375 700h85l142 -700h-81l-41 208h-310l-121 -208h-89zM467 276l-55 286q-6 29 -8 51q-3 -5 -10 -19t-18 -32l-167 -286h258zM377 771.5q-28 27.5 -28 67.5t28 67.5t68 27.5t68 -27.5t28 -67.5t-28 -67.5t-68 -27.5t-68 27.5zM478.5 805q13.5 14 13.5 34t-13.5 34
t-33.5 14t-33.5 -14t-13.5 -34t13.5 -34t33.5 -14t33.5 14z" />
    <glyph glyph-name="AE" unicode="&#xc6;" horiz-adv-x="933" 
d="M409 700h541l-14 -70h-353l-45 -233h325l-13 -70h-326l-50 -257h357l-15 -70h-435l41 208h-239l-133 -208h-90zM435 276l69 354h-52l-226 -354h209z" />
    <glyph glyph-name="Ccedilla" unicode="&#xc7;" horiz-adv-x="742" 
d="M503.5 97.5q62.5 40.5 107.5 114.5l60 -41q-56 -90 -130.5 -136.5t-173.5 -48.5l-30 -43q19 13 44 13q29 0 47.5 -18t18.5 -51q0 -42 -27 -66.5t-75 -24.5q-66 0 -80 61l48 11q5 -28 37 -28q18 0 30 11t12 32q0 16 -9.5 24.5t-25.5 8.5q-13 0 -23.5 -5t-24.5 -15l-25 28
l34 64q-77 8 -134 49.5t-87 108.5t-30 151q0 108 50.5 204t142.5 154.5t210 58.5q100 0 167 -48.5t97 -132.5l-66 -40q-31 79 -83.5 114.5t-128.5 35.5q-88 0 -158.5 -49t-110.5 -128t-40 -165q0 -71 27.5 -126.5t77 -86.5t113.5 -31q76 0 138.5 40.5z" />
    <glyph glyph-name="Egrave" unicode="&#xc8;" horiz-adv-x="587" 
d="M178 700h428l-14 -70h-349l-46 -233h322l-14 -70h-321l-50 -257h352l-14 -70h-431zM298 906h101l41 -143h-64z" />
    <glyph glyph-name="Eacute" unicode="&#xc9;" horiz-adv-x="587" 
d="M178 700h428l-14 -70h-349l-46 -233h322l-14 -70h-321l-50 -257h352l-14 -70h-431zM464 906h107l-131 -143h-65z" />
    <glyph glyph-name="Ecircumflex" unicode="&#xca;" horiz-adv-x="587" 
d="M178 700h428l-14 -70h-349l-46 -233h322l-14 -70h-321l-50 -257h352l-14 -70h-431zM403 906h64l75 -143h-61l-59 73l-82 -73h-68z" />
    <glyph glyph-name="Edieresis" unicode="&#xcb;" horiz-adv-x="587" 
d="M178 700h428l-14 -70h-349l-46 -233h322l-14 -70h-321l-50 -257h352l-14 -70h-431zM309 882h90l-18 -89h-90zM465 882h90l-17 -89h-91z" />
    <glyph glyph-name="Igrave" unicode="&#xcc;" horiz-adv-x="257" 
d="M178 700h79l-137 -700h-79zM119 906h101l41 -143h-64z" />
    <glyph glyph-name="Iacute" unicode="&#xcd;" horiz-adv-x="257" 
d="M178 700h79l-137 -700h-79zM285 906h107l-131 -143h-65z" />
    <glyph glyph-name="Icircumflex" unicode="&#xce;" horiz-adv-x="257" 
d="M178 700h79l-137 -700h-79zM224 906h64l75 -143h-61l-59 73l-82 -73h-68z" />
    <glyph glyph-name="Idieresis" unicode="&#xcf;" horiz-adv-x="257" 
d="M178 700h79l-137 -700h-79zM130 882h90l-18 -89h-90zM286 882h90l-17 -89h-91z" />
    <glyph glyph-name="Eth" unicode="&#xd0;" horiz-adv-x="714" 
d="M128 316h-74l14 68h74l62 316h188q86 0 152.5 -34t104 -100.5t37.5 -160.5q0 -118 -50.5 -210t-146.5 -143.5t-226 -51.5h-196zM269 71q106 0 182 42.5t115.5 117.5t39.5 171q0 114 -63.5 170.5t-171.5 56.5h-102l-48 -245h154l-14 -68h-153l-47 -245h108z" />
    <glyph glyph-name="Ntilde" unicode="&#xd1;" horiz-adv-x="705" 
d="M178 700h80l236 -533q15 -38 20 -55l114 588h77l-137 -700h-81l-235 533q-16 40 -20 55l-115 -588h-76zM485.5 776.5q-19.5 10.5 -39.5 29.5q-16 15 -25.5 21t-24.5 6q-16 0 -25.5 -10.5t-9.5 -25.5q0 -6 2 -16l-60 -11q-5 10 -5 29q0 40 25.5 66t73.5 26
q31 0 50.5 -10.5t39.5 -29.5q15 -14 25.5 -20.5t24.5 -6.5q15 0 24.5 10t9.5 25q0 10 -3 17l60 12q4 -20 4 -34q0 -41 -25.5 -64.5t-68.5 -23.5q-33 0 -52.5 10.5z" />
    <glyph glyph-name="Ograve" unicode="&#xd2;" horiz-adv-x="784" 
d="M214.5 24.5q-69.5 38.5 -108.5 109t-39 164.5q0 106 47.5 202t135.5 155t204 59q93 0 161 -37t104.5 -107t36.5 -167q0 -109 -45.5 -204.5t-133 -154t-206.5 -58.5q-87 0 -156.5 38.5zM533.5 104.5q68.5 47.5 105.5 125.5t37 167q0 120 -62.5 183t-170.5 63
q-84 0 -151.5 -49t-105.5 -127.5t-38 -164.5q0 -75 30.5 -130.5t82 -85t115.5 -29.5q89 0 157.5 47.5zM377 906h101l41 -143h-64z" />
    <glyph glyph-name="Oacute" unicode="&#xd3;" horiz-adv-x="784" 
d="M214.5 24.5q-69.5 38.5 -108.5 109t-39 164.5q0 106 47.5 202t135.5 155t204 59q93 0 161 -37t104.5 -107t36.5 -167q0 -109 -45.5 -204.5t-133 -154t-206.5 -58.5q-87 0 -156.5 38.5zM533.5 104.5q68.5 47.5 105.5 125.5t37 167q0 120 -62.5 183t-170.5 63
q-84 0 -151.5 -49t-105.5 -127.5t-38 -164.5q0 -75 30.5 -130.5t82 -85t115.5 -29.5q89 0 157.5 47.5zM543 906h107l-131 -143h-65z" />
    <glyph glyph-name="Ocircumflex" unicode="&#xd4;" horiz-adv-x="784" 
d="M214.5 24.5q-69.5 38.5 -108.5 109t-39 164.5q0 106 47.5 202t135.5 155t204 59q93 0 161 -37t104.5 -107t36.5 -167q0 -109 -45.5 -204.5t-133 -154t-206.5 -58.5q-87 0 -156.5 38.5zM533.5 104.5q68.5 47.5 105.5 125.5t37 167q0 120 -62.5 183t-170.5 63
q-84 0 -151.5 -49t-105.5 -127.5t-38 -164.5q0 -75 30.5 -130.5t82 -85t115.5 -29.5q89 0 157.5 47.5zM482 906h64l75 -143h-61l-59 73l-82 -73h-68z" />
    <glyph glyph-name="Otilde" unicode="&#xd5;" horiz-adv-x="784" 
d="M214.5 24.5q-69.5 38.5 -108.5 109t-39 164.5q0 106 47.5 202t135.5 155t204 59q93 0 161 -37t104.5 -107t36.5 -167q0 -109 -45.5 -204.5t-133 -154t-206.5 -58.5q-87 0 -156.5 38.5zM533.5 104.5q68.5 47.5 105.5 125.5t37 167q0 120 -62.5 183t-170.5 63
q-84 0 -151.5 -49t-105.5 -127.5t-38 -164.5q0 -75 30.5 -130.5t82 -85t115.5 -29.5q89 0 157.5 47.5zM519.5 776.5q-19.5 10.5 -39.5 29.5q-16 15 -25.5 21t-24.5 6q-16 0 -25.5 -10.5t-9.5 -25.5q0 -6 2 -16l-60 -11q-5 10 -5 29q0 40 25.5 66t73.5 26q31 0 50.5 -10.5
t39.5 -29.5q15 -14 25.5 -20.5t24.5 -6.5q15 0 24.5 10t9.5 25q0 10 -3 17l60 12q4 -20 4 -34q0 -41 -25.5 -64.5t-68.5 -23.5q-33 0 -52.5 10.5z" />
    <glyph glyph-name="Odieresis" unicode="&#xd6;" horiz-adv-x="784" 
d="M214.5 24.5q-69.5 38.5 -108.5 109t-39 164.5q0 106 47.5 202t135.5 155t204 59q93 0 161 -37t104.5 -107t36.5 -167q0 -109 -45.5 -204.5t-133 -154t-206.5 -58.5q-87 0 -156.5 38.5zM533.5 104.5q68.5 47.5 105.5 125.5t37 167q0 120 -62.5 183t-170.5 63
q-84 0 -151.5 -49t-105.5 -127.5t-38 -164.5q0 -75 30.5 -130.5t82 -85t115.5 -29.5q89 0 157.5 47.5zM388 882h90l-18 -89h-90zM544 882h90l-17 -89h-91z" />
    <glyph glyph-name="multiply" unicode="&#xd7;" horiz-adv-x="506" 
d="M82 241l151 126l-100 124l49 42l100 -125l151 126l38 -46l-152 -127l100 -123l-50 -40l-98 123l-152 -127z" />
    <glyph glyph-name="Oslash" unicode="&#xd8;" horiz-adv-x="784" 
d="M732 542q24 -61 24 -139q0 -109 -45.5 -204.5t-133 -154t-206.5 -58.5q-86 0 -155 37l-41 -57l-54 34l43 60q-46 41 -71.5 102t-25.5 136q0 106 47.5 202t135.5 155t204 59q89 0 156 -35l39 55l55 -34l-41 -57q45 -40 69 -101zM211 125l353 492q-52 26 -121 26
q-84 0 -151.5 -49t-105.5 -127.5t-38 -164.5q0 -109 63 -177zM533.5 104.5q68.5 47.5 105.5 125.5t37 167q0 116 -60 181l-355 -492q52 -29 115 -29q89 0 157.5 47.5z" />
    <glyph glyph-name="Ugrave" unicode="&#xd9;" horiz-adv-x="668" 
d="M174.5 10.5q-48.5 24.5 -76 71t-27.5 110.5q0 37 7 73l84 435h80l-89 -454q-4 -23 -4 -48q0 -64 39.5 -102.5t108.5 -38.5q87 0 142.5 47t72.5 131l90 465h79l-91 -469q-24 -124 -102.5 -184.5t-202.5 -60.5q-62 0 -110.5 24.5zM318 906h101l41 -143h-64z" />
    <glyph glyph-name="Uacute" unicode="&#xda;" horiz-adv-x="668" 
d="M174.5 10.5q-48.5 24.5 -76 71t-27.5 110.5q0 37 7 73l84 435h80l-89 -454q-4 -23 -4 -48q0 -64 39.5 -102.5t108.5 -38.5q87 0 142.5 47t72.5 131l90 465h79l-91 -469q-24 -124 -102.5 -184.5t-202.5 -60.5q-62 0 -110.5 24.5zM485 906h107l-131 -143h-65z" />
    <glyph glyph-name="Ucircumflex" unicode="&#xdb;" horiz-adv-x="668" 
d="M174.5 10.5q-48.5 24.5 -76 71t-27.5 110.5q0 37 7 73l84 435h80l-89 -454q-4 -23 -4 -48q0 -64 39.5 -102.5t108.5 -38.5q87 0 142.5 47t72.5 131l90 465h79l-91 -469q-24 -124 -102.5 -184.5t-202.5 -60.5q-62 0 -110.5 24.5zM424 906h64l75 -143h-61l-59 73l-82 -73
h-68z" />
    <glyph glyph-name="Udieresis" unicode="&#xdc;" horiz-adv-x="668" 
d="M174.5 10.5q-48.5 24.5 -76 71t-27.5 110.5q0 37 7 73l84 435h80l-89 -454q-4 -23 -4 -48q0 -64 39.5 -102.5t108.5 -38.5q87 0 142.5 47t72.5 131l90 465h79l-91 -469q-24 -124 -102.5 -184.5t-202.5 -60.5q-62 0 -110.5 24.5zM329 882h90l-18 -89h-90zM485 882h90
l-17 -89h-91z" />
    <glyph glyph-name="Yacute" unicode="&#xdd;" horiz-adv-x="551" 
d="M244 287l-150 413h88l98 -296l14 -50q6 11 30 46l219 300h91l-311 -413l-56 -287h-79zM428 906h107l-131 -143h-65z" />
    <glyph glyph-name="Thorn" unicode="&#xde;" horiz-adv-x="674" 
d="M178 700h79l-26 -132h188q107 0 164.5 -51.5t57.5 -144.5q0 -74 -36 -128.5t-100.5 -83t-148.5 -28.5h-210l-26 -132h-79zM362 201q94 0 146.5 45t52.5 124q0 63 -38.5 96t-111.5 33h-194l-57 -298h202z" />
    <glyph glyph-name="germandbls" unicode="&#xdf;" horiz-adv-x="592" 
d="M226 -0.5q-37 13.5 -61 37.5l43 62q19 -21 46.5 -34t61.5 -13q62 0 102.5 42.5t40.5 112.5q0 65 -45.5 103t-121.5 38h-22l13 67h21q76 0 127 36.5t51 97.5q0 48 -29.5 73.5t-79.5 25.5q-51 0 -89.5 -34t-51.5 -102l-100 -512h-78l86 437h-77l11 59h77l2 13
q18 104 78 154.5t151 50.5q78 0 127.5 -41.5t49.5 -116.5q0 -59 -39 -106t-101 -64q52 -23 85 -66.5t33 -104.5q0 -68 -29 -120t-81.5 -80.5t-121.5 -28.5q-42 0 -79 13.5z" />
    <glyph glyph-name="agrave" unicode="&#xe0;" horiz-adv-x="602" 
d="M137 16q-47 30 -72 82t-25 117q0 82 34.5 149.5t97.5 106.5t143 39q59 0 102.5 -26t62.5 -74l17 86h78l-97 -496h-78l15 76q-31 -47 -72.5 -68.5t-95.5 -21.5q-63 0 -110 30zM364.5 85.5q44.5 31.5 69.5 85t25 116.5q0 71 -38.5 113t-104.5 42q-57 0 -102.5 -30
t-70.5 -81t-25 -113q0 -73 40.5 -118.5t106.5 -45.5q55 0 99.5 31.5zM225 702h101l41 -143h-64z" />
    <glyph glyph-name="aacute" unicode="&#xe1;" horiz-adv-x="602" 
d="M137 16q-47 30 -72 82t-25 117q0 82 34.5 149.5t97.5 106.5t143 39q59 0 102.5 -26t62.5 -74l17 86h78l-97 -496h-78l15 76q-31 -47 -72.5 -68.5t-95.5 -21.5q-63 0 -110 30zM364.5 85.5q44.5 31.5 69.5 85t25 116.5q0 71 -38.5 113t-104.5 42q-57 0 -102.5 -30
t-70.5 -81t-25 -113q0 -73 40.5 -118.5t106.5 -45.5q55 0 99.5 31.5zM388 702h106l-130 -143h-66z" />
    <glyph glyph-name="acircumflex" unicode="&#xe2;" horiz-adv-x="602" 
d="M137 16q-47 30 -72 82t-25 117q0 82 34.5 149.5t97.5 106.5t143 39q59 0 102.5 -26t62.5 -74l17 86h78l-97 -496h-78l15 76q-31 -47 -72.5 -68.5t-95.5 -21.5q-63 0 -110 30zM364.5 85.5q44.5 31.5 69.5 85t25 116.5q0 71 -38.5 113t-104.5 42q-57 0 -102.5 -30
t-70.5 -81t-25 -113q0 -73 40.5 -118.5t106.5 -45.5q55 0 99.5 31.5zM327 702h64l76 -143h-62l-59 73l-82 -73h-68z" />
    <glyph glyph-name="atilde" unicode="&#xe3;" horiz-adv-x="602" 
d="M137 16q-47 30 -72 82t-25 117q0 82 34.5 149.5t97.5 106.5t143 39q59 0 102.5 -26t62.5 -74l17 86h78l-97 -496h-78l15 76q-31 -47 -72.5 -68.5t-95.5 -21.5q-63 0 -110 30zM364.5 85.5q44.5 31.5 69.5 85t25 116.5q0 71 -38.5 113t-104.5 42q-57 0 -102.5 -30
t-70.5 -81t-25 -113q0 -73 40.5 -118.5t106.5 -45.5q55 0 99.5 31.5zM365.5 572.5q-19.5 10.5 -39.5 29.5q-16 15 -25.5 21t-24.5 6q-16 0 -25.5 -10.5t-9.5 -25.5q0 -6 2 -16l-60 -11q-5 10 -5 29q0 40 25.5 66t73.5 26q31 0 50.5 -10.5t39.5 -29.5q15 -14 25.5 -20.5
t24.5 -6.5q15 0 24.5 10t9.5 25q0 10 -3 17l60 12q4 -20 4 -34q0 -41 -25.5 -64.5t-68.5 -23.5q-33 0 -52.5 10.5z" />
    <glyph glyph-name="adieresis" unicode="&#xe4;" horiz-adv-x="602" 
d="M137 16q-47 30 -72 82t-25 117q0 82 34.5 149.5t97.5 106.5t143 39q59 0 102.5 -26t62.5 -74l17 86h78l-97 -496h-78l15 76q-31 -47 -72.5 -68.5t-95.5 -21.5q-63 0 -110 30zM364.5 85.5q44.5 31.5 69.5 85t25 116.5q0 71 -38.5 113t-104.5 42q-57 0 -102.5 -30
t-70.5 -81t-25 -113q0 -73 40.5 -118.5t106.5 -45.5q55 0 99.5 31.5zM233 678h90l-18 -89h-90zM389 678h91l-18 -89h-90z" />
    <glyph glyph-name="aring" unicode="&#xe5;" horiz-adv-x="602" 
d="M137 16q-47 30 -72 82t-25 117q0 82 34.5 149.5t97.5 106.5t143 39q59 0 102.5 -26t62.5 -74l17 86h78l-97 -496h-78l15 76q-31 -47 -72.5 -68.5t-95.5 -21.5q-63 0 -110 30zM364.5 85.5q44.5 31.5 69.5 85t25 116.5q0 71 -38.5 113t-104.5 42q-57 0 -102.5 -30
t-70.5 -81t-25 -113q0 -73 40.5 -118.5t106.5 -45.5q55 0 99.5 31.5zM279 567.5q-28 27.5 -28 67.5t28 67.5t68 27.5t68 -27.5t28 -67.5t-28 -67.5t-68 -27.5t-68 27.5zM380.5 601q13.5 14 13.5 34t-13.5 34t-33.5 14t-33.5 -14t-13.5 -34t13.5 -34t33.5 -14t33.5 14z" />
    <glyph glyph-name="ae" unicode="&#xe6;" horiz-adv-x="985" 
d="M136.5 16q-46.5 30 -72 82t-25.5 117q0 82 34.5 149.5t97.5 106.5t143 39q60 0 102.5 -26t62.5 -73l18 85h77l-11 -61q31 36 75.5 55.5t100.5 19.5q65 0 113 -26t73 -71.5t25 -101.5q0 -21 -5 -53l-4 -22h-415q-1 -7 -1 -24q0 -45 19.5 -81.5t55 -58t80.5 -21.5
q61 0 102.5 29.5t75.5 89.5l55 -36q-42 -76 -100 -112t-140 -36q-60 0 -108 26t-70 74l-17 -86h-78l15 76q-60 -90 -169 -90q-63 0 -109.5 30zM876 298q2 11 2 22q0 56 -41.5 92t-106.5 36q-67 0 -119.5 -41t-70.5 -109h336zM364 85.5q44 31.5 68.5 85t24.5 116.5
q0 72 -38 113.5t-104 41.5q-57 0 -102 -30t-70 -81t-25 -113q0 -73 40 -118.5t106 -45.5q56 0 100 31.5z" />
    <glyph glyph-name="ccedilla" unicode="&#xe7;" horiz-adv-x="558" 
d="M372.5 84.5q42.5 28.5 76.5 85.5l56 -40q-43 -75 -101.5 -109.5t-139.5 -34.5h-5l-29 -43q19 13 44 13q29 0 47.5 -18t18.5 -51q0 -42 -27 -66.5t-75 -24.5q-66 0 -80 61l48 11q5 -28 37 -28q18 0 30 11t12 32q0 16 -9.5 24.5t-25.5 8.5q-13 0 -23.5 -5t-24.5 -15l-25 28
l36 67q-78 16 -125.5 76.5t-47.5 151.5q0 74 34.5 141t100.5 108.5t156 41.5q73 0 126 -36.5t77 -99.5l-63 -36q-42 102 -151 102q-58 0 -103.5 -30.5t-70.5 -80.5t-25 -107q0 -78 42 -122t107 -44q60 0 102.5 28.5z" />
    <glyph glyph-name="egrave" unicode="&#xe8;" horiz-adv-x="576" 
d="M150.5 12.5q-50.5 26.5 -80 80.5t-29.5 132t37 143.5t102 103.5t146 38q67 0 115.5 -26t74 -71t25.5 -102q0 -25 -5 -53l-4 -22h-416q-1 -7 -1 -24q0 -45 19.5 -81.5t55 -58t81.5 -21.5q61 0 102.5 29.5t75.5 89.5l56 -36q-42 -76 -100.5 -112t-140.5 -36
q-63 0 -113.5 26.5zM468 298l1 22q0 56 -41 92t-107 36t-119 -41t-71 -109h337zM234 702h101l41 -143h-64z" />
    <glyph glyph-name="eacute" unicode="&#xe9;" horiz-adv-x="576" 
d="M150.5 12.5q-50.5 26.5 -80 80.5t-29.5 132t37 143.5t102 103.5t146 38q67 0 115.5 -26t74 -71t25.5 -102q0 -25 -5 -53l-4 -22h-416q-1 -7 -1 -24q0 -45 19.5 -81.5t55 -58t81.5 -21.5q61 0 102.5 29.5t75.5 89.5l56 -36q-42 -76 -100.5 -112t-140.5 -36
q-63 0 -113.5 26.5zM468 298l1 22q0 56 -41 92t-107 36t-119 -41t-71 -109h337zM397 702h106l-130 -143h-66z" />
    <glyph glyph-name="ecircumflex" unicode="&#xea;" horiz-adv-x="576" 
d="M150.5 12.5q-50.5 26.5 -80 80.5t-29.5 132t37 143.5t102 103.5t146 38q67 0 115.5 -26t74 -71t25.5 -102q0 -25 -5 -53l-4 -22h-416q-1 -7 -1 -24q0 -45 19.5 -81.5t55 -58t81.5 -21.5q61 0 102.5 29.5t75.5 89.5l56 -36q-42 -76 -100.5 -112t-140.5 -36
q-63 0 -113.5 26.5zM468 298l1 22q0 56 -41 92t-107 36t-119 -41t-71 -109h337zM336 702h64l76 -143h-62l-59 73l-82 -73h-68z" />
    <glyph glyph-name="edieresis" unicode="&#xeb;" horiz-adv-x="576" 
d="M150.5 12.5q-50.5 26.5 -80 80.5t-29.5 132t37 143.5t102 103.5t146 38q67 0 115.5 -26t74 -71t25.5 -102q0 -25 -5 -53l-4 -22h-416q-1 -7 -1 -24q0 -45 19.5 -81.5t55 -58t81.5 -21.5q61 0 102.5 29.5t75.5 89.5l56 -36q-42 -76 -100.5 -112t-140.5 -36
q-63 0 -113.5 26.5zM468 298l1 22q0 56 -41 92t-107 36t-119 -41t-71 -109h337zM241 678h90l-18 -89h-90zM397 678h91l-18 -89h-90z" />
    <glyph glyph-name="igrave" unicode="&#xec;" horiz-adv-x="225" 
d="M121 496h79l-97 -496h-78zM66 702h101l41 -143h-64z" />
    <glyph glyph-name="iacute" unicode="&#xed;" horiz-adv-x="225" 
d="M121 496h79l-97 -496h-78zM228 702h106l-130 -143h-66z" />
    <glyph glyph-name="icircumflex" unicode="&#xee;" horiz-adv-x="225" 
d="M121 496h79l-97 -496h-78zM168 702h64l76 -143h-62l-59 73l-82 -73h-68z" />
    <glyph glyph-name="idieresis" unicode="&#xef;" horiz-adv-x="225" 
d="M121 496h79l-97 -496h-78zM73 678h90l-18 -89h-90zM229 678h91l-18 -89h-90z" />
    <glyph glyph-name="eth" unicode="&#xf0;" horiz-adv-x="583" 
d="M149 11.5q-49 25.5 -78.5 73.5t-29.5 111q0 70 34 131t96 98t142 37q54 0 100.5 -26.5t64.5 -65.5q-9 114 -68 190l-126 -46l-18 56l101 36q-50 43 -121 80l38 54q94 -45 155 -108l108 39l18 -54l-88 -32q70 -97 70 -236q0 -104 -33 -186t-99 -129.5t-161 -47.5
q-56 0 -105 25.5zM361.5 78q43.5 27 68 74t24.5 104q0 64 -42 102.5t-109 38.5q-52 0 -94.5 -27.5t-66.5 -73t-24 -95.5q0 -71 42.5 -110.5t104.5 -39.5q53 0 96.5 27z" />
    <glyph glyph-name="ntilde" unicode="&#xf1;" horiz-adv-x="570" 
d="M122 496h79l-15 -74q66 88 178 88q68 0 109 -36t41 -103q0 -22 -4 -45l-63 -326h-78l62 319q4 22 4 35q0 41 -27.5 64.5t-73.5 23.5q-39 0 -76 -22t-64 -60.5t-36 -86.5l-53 -273h-79zM382.5 572.5q-19.5 10.5 -39.5 29.5q-16 15 -25.5 21t-24.5 6q-16 0 -25.5 -10.5
t-9.5 -25.5q0 -6 2 -16l-60 -11q-5 10 -5 29q0 40 25.5 66t73.5 26q31 0 50.5 -10.5t39.5 -29.5q15 -14 25.5 -20.5t24.5 -6.5q15 0 24.5 10t9.5 25q0 10 -3 17l60 12q4 -20 4 -34q0 -41 -25.5 -64.5t-68.5 -23.5q-33 0 -52.5 10.5z" />
    <glyph glyph-name="ograve" unicode="&#xf2;" horiz-adv-x="599" 
d="M157 12.5q-53 26.5 -85.5 77.5t-32.5 122q0 83 36.5 151t103 107.5t151.5 39.5q63 0 115.5 -25t83.5 -75t31 -122q0 -85 -37 -154t-103 -108.5t-148 -39.5q-62 0 -115 26.5zM380 83.5q46 29.5 73.5 81t27.5 113.5q0 75 -44 119.5t-118 44.5q-58 0 -104 -32.5t-72 -84
t-26 -107.5q0 -74 45.5 -119t117.5 -45q54 0 100 29.5zM245 702h101l41 -143h-64z" />
    <glyph glyph-name="oacute" unicode="&#xf3;" horiz-adv-x="599" 
d="M157 12.5q-53 26.5 -85.5 77.5t-32.5 122q0 83 36.5 151t103 107.5t151.5 39.5q63 0 115.5 -25t83.5 -75t31 -122q0 -85 -37 -154t-103 -108.5t-148 -39.5q-62 0 -115 26.5zM380 83.5q46 29.5 73.5 81t27.5 113.5q0 75 -44 119.5t-118 44.5q-58 0 -104 -32.5t-72 -84
t-26 -107.5q0 -74 45.5 -119t117.5 -45q54 0 100 29.5zM407 702h106l-130 -143h-66z" />
    <glyph glyph-name="ocircumflex" unicode="&#xf4;" horiz-adv-x="599" 
d="M157 12.5q-53 26.5 -85.5 77.5t-32.5 122q0 83 36.5 151t103 107.5t151.5 39.5q63 0 115.5 -25t83.5 -75t31 -122q0 -85 -37 -154t-103 -108.5t-148 -39.5q-62 0 -115 26.5zM380 83.5q46 29.5 73.5 81t27.5 113.5q0 75 -44 119.5t-118 44.5q-58 0 -104 -32.5t-72 -84
t-26 -107.5q0 -74 45.5 -119t117.5 -45q54 0 100 29.5zM347 702h64l76 -143h-62l-59 73l-82 -73h-68z" />
    <glyph glyph-name="otilde" unicode="&#xf5;" horiz-adv-x="599" 
d="M157 12.5q-53 26.5 -85.5 77.5t-32.5 122q0 83 36.5 151t103 107.5t151.5 39.5q63 0 115.5 -25t83.5 -75t31 -122q0 -85 -37 -154t-103 -108.5t-148 -39.5q-62 0 -115 26.5zM380 83.5q46 29.5 73.5 81t27.5 113.5q0 75 -44 119.5t-118 44.5q-58 0 -104 -32.5t-72 -84
t-26 -107.5q0 -74 45.5 -119t117.5 -45q54 0 100 29.5zM384.5 572.5q-19.5 10.5 -39.5 29.5q-16 15 -25.5 21t-24.5 6q-16 0 -25.5 -10.5t-9.5 -25.5q0 -6 2 -16l-60 -11q-5 10 -5 29q0 40 25.5 66t73.5 26q31 0 50.5 -10.5t39.5 -29.5q15 -14 25.5 -20.5t24.5 -6.5
q15 0 24.5 10t9.5 25q0 10 -3 17l60 12q4 -20 4 -34q0 -41 -25.5 -64.5t-68.5 -23.5q-33 0 -52.5 10.5z" />
    <glyph glyph-name="odieresis" unicode="&#xf6;" horiz-adv-x="599" 
d="M157 12.5q-53 26.5 -85.5 77.5t-32.5 122q0 83 36.5 151t103 107.5t151.5 39.5q63 0 115.5 -25t83.5 -75t31 -122q0 -85 -37 -154t-103 -108.5t-148 -39.5q-62 0 -115 26.5zM380 83.5q46 29.5 73.5 81t27.5 113.5q0 75 -44 119.5t-118 44.5q-58 0 -104 -32.5t-72 -84
t-26 -107.5q0 -74 45.5 -119t117.5 -45q54 0 100 29.5zM252 678h90l-18 -89h-90zM408 678h91l-18 -89h-90z" />
    <glyph glyph-name="divide" unicode="&#xf7;" horiz-adv-x="514" 
d="M254 475h94l-19 -96h-94zM181 96h94l-19 -96h-94zM53 269h417l-12 -60h-416z" />
    <glyph glyph-name="oslash" unicode="&#xf8;" horiz-adv-x="599" 
d="M560 288q0 -85 -37 -154t-103 -108.5t-148 -39.5q-65 0 -118 28l-36 -46l-50 32l38 48q-67 62 -67 164q0 83 36.5 151t103 107.5t151.5 39.5q65 0 117 -26l35 44l50 -32l-36 -46q64 -61 64 -162zM154 109l246 315q-35 18 -81 18q-58 0 -104 -32.5t-72 -84t-26 -107.5
q0 -66 37 -109zM380 83.5q46 29.5 73.5 81t27.5 113.5q0 66 -34 109l-247 -315q34 -18 80 -18q54 0 100 29.5z" />
    <glyph glyph-name="ugrave" unicode="&#xf9;" horiz-adv-x="570" 
d="M101 27q-43 41 -43 108q0 23 4 48l61 313h78l-59 -305q-5 -25 -5 -42q0 -44 28 -69.5t77 -25.5q37 0 73 22.5t62.5 64.5t38.5 98l50 257h78l-96 -496h-78l14 74q-26 -41 -70.5 -64.5t-97.5 -23.5q-72 0 -115 41zM237 702h101l41 -143h-64z" />
    <glyph glyph-name="uacute" unicode="&#xfa;" horiz-adv-x="570" 
d="M101 27q-43 41 -43 108q0 23 4 48l61 313h78l-59 -305q-5 -25 -5 -42q0 -44 28 -69.5t77 -25.5q37 0 73 22.5t62.5 64.5t38.5 98l50 257h78l-96 -496h-78l14 74q-26 -41 -70.5 -64.5t-97.5 -23.5q-72 0 -115 41zM400 702h106l-130 -143h-66z" />
    <glyph glyph-name="ucircumflex" unicode="&#xfb;" horiz-adv-x="570" 
d="M101 27q-43 41 -43 108q0 23 4 48l61 313h78l-59 -305q-5 -25 -5 -42q0 -44 28 -69.5t77 -25.5q37 0 73 22.5t62.5 64.5t38.5 98l50 257h78l-96 -496h-78l14 74q-26 -41 -70.5 -64.5t-97.5 -23.5q-72 0 -115 41zM339 702h64l76 -143h-62l-59 73l-82 -73h-68z" />
    <glyph glyph-name="udieresis" unicode="&#xfc;" horiz-adv-x="570" 
d="M101 27q-43 41 -43 108q0 23 4 48l61 313h78l-59 -305q-5 -25 -5 -42q0 -44 28 -69.5t77 -25.5q37 0 73 22.5t62.5 64.5t38.5 98l50 257h78l-96 -496h-78l14 74q-26 -41 -70.5 -64.5t-97.5 -23.5q-72 0 -115 41zM245 678h90l-18 -89h-90zM401 678h91l-18 -89h-90z" />
    <glyph glyph-name="yacute" unicode="&#xfd;" horiz-adv-x="500" 
d="M-26 -201l25 70q17 -9 39 -9q23 0 38.5 11t31.5 40l55 94l-106 491h80l83 -394l230 394h87l-363 -609q-34 -57 -64.5 -77.5t-81.5 -20.5q-33 0 -54 10zM355 702h106l-130 -143h-66z" />
    <glyph glyph-name="thorn" unicode="&#xfe;" horiz-adv-x="603" 
d="M160 700h78l-52 -275q23 37 70.5 61t103.5 24q58 0 104.5 -26.5t73 -77.5t26.5 -122q0 -77 -35 -145.5t-99 -110.5t-148 -42q-57 0 -101.5 27.5t-62.5 65.5l-55 -283h-78zM389.5 85.5q44.5 31.5 70 83.5t25.5 112q0 76 -40.5 118.5t-108.5 42.5q-52 0 -97.5 -31
t-73 -84.5t-27.5 -117.5q0 -70 42.5 -112.5t110.5 -42.5q54 0 98.5 31.5z" />
    <glyph glyph-name="ydieresis" unicode="&#xff;" horiz-adv-x="500" 
d="M-26 -201l25 70q17 -9 39 -9q23 0 38.5 11t31.5 40l55 94l-106 491h80l83 -394l230 394h87l-363 -609q-34 -57 -64.5 -77.5t-81.5 -20.5q-33 0 -54 10zM200 678h90l-18 -89h-90zM356 678h91l-18 -89h-90z" />
    <glyph glyph-name="Amacron" unicode="&#x100;" horiz-adv-x="659" 
d="M375 700h85l142 -700h-81l-41 208h-310l-121 -208h-89zM467 276l-55 286q-6 29 -8 51q-3 -5 -10 -19t-18 -32l-167 -286h258zM343 871h217l-13 -64h-217z" />
    <glyph glyph-name="amacron" unicode="&#x101;" horiz-adv-x="602" 
d="M137 16q-47 30 -72 82t-25 117q0 82 34.5 149.5t97.5 106.5t143 39q59 0 102.5 -26t62.5 -74l17 86h78l-97 -496h-78l15 76q-31 -47 -72.5 -68.5t-95.5 -21.5q-63 0 -110 30zM364.5 85.5q44.5 31.5 69.5 85t25 116.5q0 71 -38.5 113t-104.5 42q-57 0 -102.5 -30
t-70.5 -81t-25 -113q0 -73 40.5 -118.5t106.5 -45.5q55 0 99.5 31.5zM246 667h217l-13 -64h-217z" />
    <glyph glyph-name="Abreve" unicode="&#x102;" horiz-adv-x="659" 
d="M375 700h85l142 -700h-81l-41 208h-310l-121 -208h-89zM467 276l-55 286q-6 29 -8 51q-3 -5 -10 -19t-18 -32l-167 -286h258zM373.5 796.5q-24.5 24.5 -24.5 59.5q0 11 2 19h63q-1 -5 -1 -11q0 -15 8 -24t23 -9q19 0 31.5 11.5t16.5 32.5h62q-8 -53 -37.5 -78t-79.5 -25
q-39 0 -63.5 24.5z" />
    <glyph glyph-name="abreve" unicode="&#x103;" horiz-adv-x="602" 
d="M137 16q-47 30 -72 82t-25 117q0 82 34.5 149.5t97.5 106.5t143 39q59 0 102.5 -26t62.5 -74l17 86h78l-97 -496h-78l15 76q-31 -47 -72.5 -68.5t-95.5 -21.5q-63 0 -110 30zM364.5 85.5q44.5 31.5 69.5 85t25 116.5q0 71 -38.5 113t-104.5 42q-57 0 -102.5 -30
t-70.5 -81t-25 -113q0 -73 40.5 -118.5t106.5 -45.5q55 0 99.5 31.5zM275.5 592.5q-24.5 24.5 -24.5 59.5q0 11 2 19h63q-1 -5 -1 -11q0 -15 8 -24t23 -9q19 0 31.5 11.5t16.5 32.5h62q-8 -53 -37.5 -78t-79.5 -25q-39 0 -63.5 24.5z" />
    <glyph glyph-name="Aogonek" unicode="&#x104;" horiz-adv-x="659" 
d="M524 -120.5q12 -10.5 31 -10.5q5 0 19 2l-3 -63q-19 -6 -43 -6q-39 0 -64 21t-25 60t22 68.5t60 48.5l-41 208h-310l-121 -208h-89l415 700h85l142 -700q-34 -14 -62 -38.5t-28 -51.5q0 -20 12 -30.5zM467 276l-55 286q-6 29 -8 51q-3 -5 -10 -19t-18 -32l-167 -286h258z
" />
    <glyph glyph-name="aogonek" unicode="&#x105;" horiz-adv-x="602" 
d="M416 -38.5q-28 -24.5 -28 -51.5q0 -20 12 -30.5t31 -10.5q5 0 19 2l-3 -63q-19 -6 -43 -6q-39 0 -64 21t-25 60t23 69t62 50l15 74q-31 -47 -72.5 -68.5t-95.5 -21.5q-63 0 -110 30t-72 82t-25 117q0 82 34.5 149.5t97.5 106.5t143 39q59 0 102.5 -26t62.5 -74l17 86h78
l-97 -496q-34 -14 -62 -38.5zM364.5 85.5q44.5 31.5 69.5 85t25 116.5q0 71 -38.5 113t-104.5 42q-57 0 -102.5 -30t-70.5 -81t-25 -113q0 -73 40.5 -118.5t106.5 -45.5q55 0 99.5 31.5z" />
    <glyph glyph-name="Cacute" unicode="&#x106;" horiz-adv-x="742" 
d="M203 25.5q-66 39.5 -101 110t-35 161.5q0 108 50.5 204t142.5 154.5t210 58.5q100 0 167 -48.5t97 -132.5l-66 -40q-31 79 -83.5 114.5t-128.5 35.5q-88 0 -158.5 -49t-110.5 -128t-40 -165q0 -71 27.5 -126.5t77 -86.5t113.5 -31q76 0 138.5 40.5t107.5 114.5l60 -41
q-58 -92 -134.5 -138.5t-179.5 -46.5q-88 0 -154 39.5zM539 906h107l-131 -143h-65z" />
    <glyph glyph-name="cacute" unicode="&#x107;" horiz-adv-x="558" 
d="M149 14.5q-51 28.5 -80 81.5t-29 123q0 74 34.5 141t100.5 108.5t156 41.5q73 0 126 -36.5t77 -99.5l-63 -36q-42 102 -151 102q-58 0 -103.5 -30.5t-70.5 -80.5t-25 -107q0 -78 42 -122t107 -44q60 0 102.5 28.5t76.5 85.5l56 -40q-43 -75 -101.5 -109.5t-139.5 -34.5
q-64 0 -115 28.5zM399 702h106l-130 -143h-66z" />
    <glyph glyph-name="Ccircumflex" unicode="&#x108;" horiz-adv-x="742" 
d="M203 25.5q-66 39.5 -101 110t-35 161.5q0 108 50.5 204t142.5 154.5t210 58.5q100 0 167 -48.5t97 -132.5l-66 -40q-31 79 -83.5 114.5t-128.5 35.5q-88 0 -158.5 -49t-110.5 -128t-40 -165q0 -71 27.5 -126.5t77 -86.5t113.5 -31q76 0 138.5 40.5t107.5 114.5l60 -41
q-58 -92 -134.5 -138.5t-179.5 -46.5q-88 0 -154 39.5zM478 906h64l75 -143h-61l-59 73l-82 -73h-68z" />
    <glyph glyph-name="ccircumflex" unicode="&#x109;" horiz-adv-x="558" 
d="M149 14.5q-51 28.5 -80 81.5t-29 123q0 74 34.5 141t100.5 108.5t156 41.5q73 0 126 -36.5t77 -99.5l-63 -36q-42 102 -151 102q-58 0 -103.5 -30.5t-70.5 -80.5t-25 -107q0 -78 42 -122t107 -44q60 0 102.5 28.5t76.5 85.5l56 -40q-43 -75 -101.5 -109.5t-139.5 -34.5
q-64 0 -115 28.5zM338 702h64l76 -143h-62l-59 73l-82 -73h-68z" />
    <glyph glyph-name="Cdotaccent" unicode="&#x10a;" horiz-adv-x="742" 
d="M203 25.5q-66 39.5 -101 110t-35 161.5q0 108 50.5 204t142.5 154.5t210 58.5q100 0 167 -48.5t97 -132.5l-66 -40q-31 79 -83.5 114.5t-128.5 35.5q-88 0 -158.5 -49t-110.5 -128t-40 -165q0 -71 27.5 -126.5t77 -86.5t113.5 -31q76 0 138.5 40.5t107.5 114.5l60 -41
q-58 -92 -134.5 -138.5t-179.5 -46.5q-88 0 -154 39.5zM460 882h93l-19 -94h-93z" />
    <glyph glyph-name="cdotaccent" unicode="&#x10b;" horiz-adv-x="558" 
d="M149 14.5q-51 28.5 -80 81.5t-29 123q0 74 34.5 141t100.5 108.5t156 41.5q73 0 126 -36.5t77 -99.5l-63 -36q-42 102 -151 102q-58 0 -103.5 -30.5t-70.5 -80.5t-25 -107q0 -78 42 -122t107 -44q60 0 102.5 28.5t76.5 85.5l56 -40q-43 -75 -101.5 -109.5t-139.5 -34.5
q-64 0 -115 28.5zM320 678h93l-19 -94h-93z" />
    <glyph glyph-name="Ccaron" unicode="&#x10c;" horiz-adv-x="742" 
d="M203 25.5q-66 39.5 -101 110t-35 161.5q0 108 50.5 204t142.5 154.5t210 58.5q100 0 167 -48.5t97 -132.5l-66 -40q-31 79 -83.5 114.5t-128.5 35.5q-88 0 -158.5 -49t-110.5 -128t-40 -165q0 -71 27.5 -126.5t77 -86.5t113.5 -31q76 0 138.5 40.5t107.5 114.5l60 -41
q-58 -92 -134.5 -138.5t-179.5 -46.5q-88 0 -154 39.5zM375 906h62l58 -73l83 73h67l-130 -143h-64z" />
    <glyph glyph-name="ccaron" unicode="&#x10d;" horiz-adv-x="558" 
d="M149 14.5q-51 28.5 -80 81.5t-29 123q0 74 34.5 141t100.5 108.5t156 41.5q73 0 126 -36.5t77 -99.5l-63 -36q-42 102 -151 102q-58 0 -103.5 -30.5t-70.5 -80.5t-25 -107q0 -78 42 -122t107 -44q60 0 102.5 28.5t76.5 85.5l56 -40q-43 -75 -101.5 -109.5t-139.5 -34.5
q-64 0 -115 28.5zM236 702h62l58 -73l83 73h67l-130 -143h-64z" />
    <glyph glyph-name="Dcaron" unicode="&#x10e;" horiz-adv-x="686" 
d="M178 700h188q87 0 152.5 -33t102.5 -98t37 -159q0 -118 -50.5 -211t-145.5 -146t-225 -53h-196zM242 71q106 0 181.5 43.5t115 119.5t39.5 173q0 114 -62.5 168t-170.5 54h-103l-108 -558h108zM235 906h62l58 -73l83 73h67l-130 -143h-64z" />
    <glyph glyph-name="dcaron" unicode="&#x10f;" horiz-adv-x="686" 
d="M146 14.5q-49 28.5 -77 81t-28 122.5q0 85 34.5 151t97 103.5t141.5 37.5q61 0 106 -27t68 -73l57 290h78l-136 -700h-78l14 76q-24 -40 -69 -65t-97 -25q-62 0 -111 28.5zM370.5 86q45.5 32 71.5 84.5t26 113.5q0 71 -44.5 114.5t-111.5 43.5q-54 0 -97.5 -29t-68 -79
t-24.5 -112q0 -80 41 -124t107 -44q55 0 100.5 32zM659 525l52 91h-37l17 84h83l-17 -85l-82 -100z" />
    <glyph glyph-name="Dcroat" unicode="&#x110;" horiz-adv-x="714" 
d="M128 316h-74l14 68h74l62 316h188q86 0 152.5 -34t104 -100.5t37.5 -160.5q0 -118 -50.5 -210t-146.5 -143.5t-226 -51.5h-196zM269 71q106 0 182 42.5t115.5 117.5t39.5 171q0 114 -63.5 170.5t-171.5 56.5h-102l-48 -245h154l-14 -68h-153l-47 -245h108z" />
    <glyph glyph-name="dcroat" unicode="&#x111;" horiz-adv-x="608" 
d="M659 572h-61l-111 -572h-78l14 76q-24 -40 -69 -65t-97 -25q-62 0 -111 28.5t-77 81t-28 122.5q0 85 34.5 151t97 103.5t141.5 37.5q61 0 106 -27t68 -73l32 162h-163l12 61h163l13 67h78l-13 -67h61zM370.5 86q45.5 32 71.5 84.5t26 113.5q0 71 -44.5 114.5t-111.5 43.5
q-54 0 -97.5 -29t-68 -79t-24.5 -112q0 -80 41 -124t107 -44q55 0 100.5 32z" />
    <glyph glyph-name="Emacron" unicode="&#x112;" horiz-adv-x="587" 
d="M178 700h428l-14 -70h-349l-46 -233h322l-14 -70h-321l-50 -257h352l-14 -70h-431zM321 871h217l-13 -64h-217z" />
    <glyph glyph-name="emacron" unicode="&#x113;" horiz-adv-x="576" 
d="M150.5 12.5q-50.5 26.5 -80 80.5t-29.5 132t37 143.5t102 103.5t146 38q67 0 115.5 -26t74 -71t25.5 -102q0 -25 -5 -53l-4 -22h-416q-1 -7 -1 -24q0 -45 19.5 -81.5t55 -58t81.5 -21.5q61 0 102.5 29.5t75.5 89.5l56 -36q-42 -76 -100.5 -112t-140.5 -36
q-63 0 -113.5 26.5zM468 298l1 22q0 56 -41 92t-107 36t-119 -41t-71 -109h337zM254 667h217l-13 -64h-217z" />
    <glyph glyph-name="Ebreve" unicode="&#x114;" horiz-adv-x="587" 
d="M178 700h428l-14 -70h-349l-46 -233h322l-14 -70h-321l-50 -257h352l-14 -70h-431zM351.5 796.5q-24.5 24.5 -24.5 59.5q0 11 2 19h63q-1 -5 -1 -11q0 -15 8 -24t23 -9q19 0 31.5 11.5t16.5 32.5h62q-8 -53 -37.5 -78t-79.5 -25q-39 0 -63.5 24.5z" />
    <glyph glyph-name="ebreve" unicode="&#x115;" horiz-adv-x="576" 
d="M150.5 12.5q-50.5 26.5 -80 80.5t-29.5 132t37 143.5t102 103.5t146 38q67 0 115.5 -26t74 -71t25.5 -102q0 -25 -5 -53l-4 -22h-416q-1 -7 -1 -24q0 -45 19.5 -81.5t55 -58t81.5 -21.5q61 0 102.5 29.5t75.5 89.5l56 -36q-42 -76 -100.5 -112t-140.5 -36
q-63 0 -113.5 26.5zM468 298l1 22q0 56 -41 92t-107 36t-119 -41t-71 -109h337zM284.5 592.5q-24.5 24.5 -24.5 59.5q0 11 2 19h63q-1 -5 -1 -11q0 -15 8 -24t23 -9q19 0 31.5 11.5t16.5 32.5h62q-8 -53 -37.5 -78t-79.5 -25q-39 0 -63.5 24.5z" />
    <glyph glyph-name="Edotaccent" unicode="&#x116;" horiz-adv-x="587" 
d="M178 700h428l-14 -70h-349l-46 -233h322l-14 -70h-321l-50 -257h352l-14 -70h-431zM385 882h93l-19 -94h-93z" />
    <glyph glyph-name="edotaccent" unicode="&#x117;" horiz-adv-x="576" 
d="M150.5 12.5q-50.5 26.5 -80 80.5t-29.5 132t37 143.5t102 103.5t146 38q67 0 115.5 -26t74 -71t25.5 -102q0 -25 -5 -53l-4 -22h-416q-1 -7 -1 -24q0 -45 19.5 -81.5t55 -58t81.5 -21.5q61 0 102.5 29.5t75.5 89.5l56 -36q-42 -76 -100.5 -112t-140.5 -36
q-63 0 -113.5 26.5zM468 298l1 22q0 56 -41 92t-107 36t-119 -41t-71 -109h337zM318 678h93l-19 -94h-93z" />
    <glyph glyph-name="Eogonek" unicode="&#x118;" horiz-adv-x="587" 
d="M243 630l-46 -233h322l-14 -70h-321l-50 -257h352l-14 -70q-34 -14 -62 -38.5t-28 -51.5q0 -20 12 -30.5t31 -10.5q5 0 19 2l-3 -63q-19 -6 -43 -6q-39 0 -64 21t-25 60t22 68.5t60 48.5h-350l137 700h428l-14 -70h-349z" />
    <glyph glyph-name="eogonek" unicode="&#x119;" horiz-adv-x="576" 
d="M441.5 484q48.5 -26 74 -71t25.5 -102q0 -25 -5 -53l-4 -22h-416q-1 -7 -1 -24q0 -45 19.5 -81.5t55 -58t81.5 -21.5q61 0 102.5 29.5t75.5 89.5l56 -36q-58 -105 -152 -135q-34 -15 -60.5 -38.5t-26.5 -50.5q0 -20 12 -30.5t31 -10.5q5 0 19 2l-3 -63q-19 -6 -43 -6
q-39 0 -64 21t-25 60q0 63 59 103q-92 4 -151.5 65.5t-59.5 173.5q0 78 37 143.5t102 103.5t146 38q67 0 115.5 -26zM469 320q0 56 -41 92t-107 36t-119 -41t-71 -109h337z" />
    <glyph glyph-name="Ecaron" unicode="&#x11a;" horiz-adv-x="587" 
d="M178 700h428l-14 -70h-349l-46 -233h322l-14 -70h-321l-50 -257h352l-14 -70h-431zM301 906h62l58 -73l83 73h67l-130 -143h-64z" />
    <glyph glyph-name="ecaron" unicode="&#x11b;" horiz-adv-x="576" 
d="M150.5 12.5q-50.5 26.5 -80 80.5t-29.5 132t37 143.5t102 103.5t146 38q67 0 115.5 -26t74 -71t25.5 -102q0 -25 -5 -53l-4 -22h-416q-1 -7 -1 -24q0 -45 19.5 -81.5t55 -58t81.5 -21.5q61 0 102.5 29.5t75.5 89.5l56 -36q-42 -76 -100.5 -112t-140.5 -36
q-63 0 -113.5 26.5zM468 298l1 22q0 56 -41 92t-107 36t-119 -41t-71 -109h337zM234 702h62l58 -73l83 73h67l-130 -143h-64z" />
    <glyph glyph-name="Gcircumflex" unicode="&#x11c;" horiz-adv-x="760" 
d="M197.5 25q-62.5 39 -97 107t-34.5 154q0 120 51 217.5t143.5 154t210.5 56.5q101 0 168.5 -45.5t98.5 -124.5l-64 -42q-27 71 -82.5 107t-132.5 36q-88 0 -159.5 -47.5t-112.5 -129t-41 -177.5q0 -65 26.5 -118.5t74 -84.5t109.5 -31q64 0 119.5 33.5t92.5 85t52 105.5
h-249l12 67h330l-68 -348h-53l-3 115q-47 -65 -106 -97t-142 -32q-81 0 -143.5 39zM485 906h64l75 -143h-61l-59 73l-82 -73h-68z" />
    <glyph glyph-name="gcircumflex" unicode="&#x11d;" horiz-adv-x="586" 
d="M109.5 -199.5q-42.5 18.5 -65 50t-22.5 68.5q0 36 19 65l68 -21q-10 -17 -10 -40q0 -34 34.5 -56t89.5 -22q143 0 178 183l11 59q-52 -79 -162 -79q-56 0 -103 25t-75.5 74.5t-28.5 119.5q0 75 32 140t92.5 104t143.5 39q59 0 104 -24.5t63 -62.5l15 73h78l-92 -472
q-23 -123 -88.5 -182.5t-179.5 -59.5q-59 0 -101.5 18.5zM367 105q43 31 66.5 81.5t23.5 105.5q0 69 -41 110.5t-107 41.5q-55 0 -97.5 -30t-66 -79.5t-23.5 -104.5q0 -73 41 -114.5t105 -41.5q56 0 99 31zM332 702h64l76 -143h-62l-59 73l-82 -73h-68z" />
    <glyph glyph-name="Gbreve" unicode="&#x11e;" horiz-adv-x="760" 
d="M197.5 25q-62.5 39 -97 107t-34.5 154q0 120 51 217.5t143.5 154t210.5 56.5q101 0 168.5 -45.5t98.5 -124.5l-64 -42q-27 71 -82.5 107t-132.5 36q-88 0 -159.5 -47.5t-112.5 -129t-41 -177.5q0 -65 26.5 -118.5t74 -84.5t109.5 -31q64 0 119.5 33.5t92.5 85t52 105.5
h-249l12 67h330l-68 -348h-53l-3 115q-47 -65 -106 -97t-142 -32q-81 0 -143.5 39zM433.5 796.5q-24.5 24.5 -24.5 59.5q0 11 2 19h63q-1 -5 -1 -11q0 -15 8 -24t23 -9q19 0 31.5 11.5t16.5 32.5h62q-8 -53 -37.5 -78t-79.5 -25q-39 0 -63.5 24.5z" />
    <glyph glyph-name="gbreve" unicode="&#x11f;" horiz-adv-x="586" 
d="M109.5 -199.5q-42.5 18.5 -65 50t-22.5 68.5q0 36 19 65l68 -21q-10 -17 -10 -40q0 -34 34.5 -56t89.5 -22q143 0 178 183l11 59q-52 -79 -162 -79q-56 0 -103 25t-75.5 74.5t-28.5 119.5q0 75 32 140t92.5 104t143.5 39q59 0 104 -24.5t63 -62.5l15 73h78l-92 -472
q-23 -123 -88.5 -182.5t-179.5 -59.5q-59 0 -101.5 18.5zM367 105q43 31 66.5 81.5t23.5 105.5q0 69 -41 110.5t-107 41.5q-55 0 -97.5 -30t-66 -79.5t-23.5 -104.5q0 -73 41 -114.5t105 -41.5q56 0 99 31zM280.5 592.5q-24.5 24.5 -24.5 59.5q0 11 2 19h63q-1 -5 -1 -11
q0 -15 8 -24t23 -9q19 0 31.5 11.5t16.5 32.5h62q-8 -53 -37.5 -78t-79.5 -25q-39 0 -63.5 24.5z" />
    <glyph glyph-name="Gdotaccent" unicode="&#x120;" horiz-adv-x="760" 
d="M197.5 25q-62.5 39 -97 107t-34.5 154q0 120 51 217.5t143.5 154t210.5 56.5q101 0 168.5 -45.5t98.5 -124.5l-64 -42q-27 71 -82.5 107t-132.5 36q-88 0 -159.5 -47.5t-112.5 -129t-41 -177.5q0 -65 26.5 -118.5t74 -84.5t109.5 -31q64 0 119.5 33.5t92.5 85t52 105.5
h-249l12 67h330l-68 -348h-53l-3 115q-47 -65 -106 -97t-142 -32q-81 0 -143.5 39zM467 882h93l-19 -94h-93z" />
    <glyph glyph-name="gdotaccent" unicode="&#x121;" horiz-adv-x="586" 
d="M109.5 -199.5q-42.5 18.5 -65 50t-22.5 68.5q0 36 19 65l68 -21q-10 -17 -10 -40q0 -34 34.5 -56t89.5 -22q143 0 178 183l11 59q-52 -79 -162 -79q-56 0 -103 25t-75.5 74.5t-28.5 119.5q0 75 32 140t92.5 104t143.5 39q59 0 104 -24.5t63 -62.5l15 73h78l-92 -472
q-23 -123 -88.5 -182.5t-179.5 -59.5q-59 0 -101.5 18.5zM367 105q43 31 66.5 81.5t23.5 105.5q0 69 -41 110.5t-107 41.5q-55 0 -97.5 -30t-66 -79.5t-23.5 -104.5q0 -73 41 -114.5t105 -41.5q56 0 99 31zM315 678h93l-19 -94h-93z" />
    <glyph glyph-name="uni0122" unicode="&#x122;" horiz-adv-x="760" 
d="M197.5 25q-62.5 39 -97 107t-34.5 154q0 120 51 217.5t143.5 154t210.5 56.5q101 0 168.5 -45.5t98.5 -124.5l-64 -42q-27 71 -82.5 107t-132.5 36q-88 0 -159.5 -47.5t-112.5 -129t-41 -177.5q0 -65 26.5 -118.5t74 -84.5t109.5 -31q64 0 119.5 33.5t92.5 85t52 105.5
h-249l12 67h330l-68 -348h-53l-3 115q-47 -65 -106 -97t-142 -32q-81 0 -143.5 39zM247 -264l53 111h-34l18 93h92l-18 -93l-93 -118z" />
    <glyph glyph-name="uni0123" unicode="&#x123;" horiz-adv-x="586" 
d="M109.5 -199.5q-42.5 18.5 -65 50t-22.5 68.5q0 36 19 65l68 -21q-10 -17 -10 -40q0 -34 34.5 -56t89.5 -22q143 0 178 183l11 59q-52 -79 -162 -79q-56 0 -103 25t-75.5 74.5t-28.5 119.5q0 75 32 140t92.5 104t143.5 39q59 0 104 -24.5t63 -62.5l15 73h78l-92 -472
q-23 -123 -88.5 -182.5t-179.5 -59.5q-59 0 -101.5 18.5zM367 105q43 31 66.5 81.5t23.5 105.5q0 69 -41 110.5t-107 41.5q-55 0 -97.5 -30t-66 -79.5t-23.5 -104.5q0 -73 41 -114.5t105 -41.5q56 0 99 31zM300 656l117 121l16 -15l-78 -106h37l-18 -93h-92z" />
    <glyph glyph-name="Hcircumflex" unicode="&#x124;" horiz-adv-x="689" 
d="M178 700h79l-60 -308h352l60 308h80l-137 -700h-80l64 322h-353l-63 -322h-79zM440 906h64l75 -143h-61l-59 73l-82 -73h-68z" />
    <glyph glyph-name="hcircumflex" unicode="&#x125;" horiz-adv-x="572" 
d="M161 700h78l-55 -281q32 42 80 66.5t102 24.5q69 0 109.5 -35t40.5 -102q0 -23 -5 -53l-63 -320h-78l62 314q3 15 3 33q0 45 -25.5 70t-73.5 25q-40 0 -78 -21.5t-65.5 -61.5t-37.5 -91l-53 -268h-78zM289 906h64l76 -143h-62l-59 73l-82 -73h-68z" />
    <glyph glyph-name="Hbar" unicode="&#x126;" horiz-adv-x="689" 
d="M750 499h-100l-98 -499h-80l64 322h-353l-63 -322h-79l98 499h-99l12 64h99l27 137h79l-27 -137h352l27 137h80l-27 -137h100zM570 499h-352l-21 -107h352z" />
    <glyph glyph-name="hbar" unicode="&#x127;" horiz-adv-x="572" 
d="M475.5 475q40.5 -35 40.5 -102q0 -23 -5 -53l-63 -320h-78l62 314q3 15 3 33q0 45 -25.5 70t-73.5 25q-40 0 -78 -21.5t-65.5 -61.5t-37.5 -91l-53 -268h-78l112 572h-62l12 61h62l13 67h78l-13 -67h162l-12 -61h-162l-30 -153q32 42 80 66.5t102 24.5q69 0 109.5 -35z
" />
    <glyph glyph-name="Itilde" unicode="&#x128;" horiz-adv-x="257" 
d="M178 700h79l-137 -700h-79zM261.5 776.5q-19.5 10.5 -39.5 29.5q-16 15 -25.5 21t-24.5 6q-16 0 -25.5 -10.5t-9.5 -25.5q0 -6 2 -16l-60 -11q-5 10 -5 29q0 40 25.5 66t73.5 26q31 0 50.5 -10.5t39.5 -29.5q15 -14 25.5 -20.5t24.5 -6.5q15 0 24.5 10t9.5 25q0 10 -3 17
l60 12q4 -20 4 -34q0 -41 -25.5 -64.5t-68.5 -23.5q-33 0 -52.5 10.5z" />
    <glyph glyph-name="itilde" unicode="&#x129;" horiz-adv-x="225" 
d="M121 496h79l-97 -496h-78zM205.5 572.5q-19.5 10.5 -39.5 29.5q-16 15 -25.5 21t-24.5 6q-16 0 -25.5 -10.5t-9.5 -25.5q0 -6 2 -16l-60 -11q-5 10 -5 29q0 40 25.5 66t73.5 26q31 0 50.5 -10.5t39.5 -29.5q15 -14 25.5 -20.5t24.5 -6.5q15 0 24.5 10t9.5 25q0 10 -3 17
l60 12q4 -20 4 -34q0 -41 -25.5 -64.5t-68.5 -23.5q-33 0 -52.5 10.5z" />
    <glyph glyph-name="Imacron" unicode="&#x12a;" horiz-adv-x="257" 
d="M178 700h79l-137 -700h-79zM142 871h217l-13 -64h-217z" />
    <glyph glyph-name="imacron" unicode="&#x12b;" horiz-adv-x="225" 
d="M121 496h79l-97 -496h-78zM86 667h217l-13 -64h-217z" />
    <glyph glyph-name="Ibreve" unicode="&#x12c;" horiz-adv-x="257" 
d="M178 700h79l-137 -700h-79zM172.5 796.5q-24.5 24.5 -24.5 59.5q0 11 2 19h63q-1 -5 -1 -11q0 -15 8 -24t23 -9q19 0 31.5 11.5t16.5 32.5h62q-8 -53 -37.5 -78t-79.5 -25q-39 0 -63.5 24.5z" />
    <glyph glyph-name="ibreve" unicode="&#x12d;" horiz-adv-x="225" 
d="M121 496h79l-97 -496h-78zM116.5 592.5q-24.5 24.5 -24.5 59.5q0 11 2 19h63q-1 -5 -1 -11q0 -15 8 -24t23 -9q19 0 31.5 11.5t16.5 32.5h62q-8 -53 -37.5 -78t-79.5 -25q-39 0 -63.5 24.5z" />
    <glyph glyph-name="Iogonek" unicode="&#x12e;" horiz-adv-x="257" 
d="M58 -38.5q-28 -24.5 -28 -51.5q0 -20 12 -30.5t31 -10.5q5 0 19 2l-3 -63q-19 -6 -43 -6q-39 0 -64 21t-25 60t23 69t61 49l137 699h79l-137 -700q-34 -14 -62 -38.5z" />
    <glyph glyph-name="iogonek" unicode="&#x12f;" horiz-adv-x="225" 
d="M243 678l-19 -94h-93l19 94h93zM121 496h79l-97 -496q-34 -14 -62 -38.5t-28 -51.5q0 -20 12 -30.5t31 -10.5q5 0 19 2l-3 -63q-19 -6 -43 -6q-39 0 -64 21t-25 60t23 69t62 50z" />
    <glyph glyph-name="Idotaccent" unicode="&#x130;" horiz-adv-x="257" 
d="M178 700h79l-137 -700h-79zM206 882h93l-19 -94h-93z" />
    <glyph glyph-name="dotlessi" unicode="&#x131;" horiz-adv-x="225" 
d="M121 496h79l-97 -496h-78z" />
    <glyph glyph-name="IJ" unicode="&#x132;" horiz-adv-x="769" 
d="M178 700h79l-137 -700h-79zM363.5 7q-40.5 21 -64.5 58t-24 83q0 30 5 51l78 -8q-4 -17 -4 -35q0 -43 33 -71t79 -28q59 0 98 35.5t53 105.5l98 502h79l-97 -500q-22 -109 -82.5 -161.5t-161.5 -52.5q-49 0 -89.5 21z" />
    <glyph glyph-name="ij" unicode="&#x133;" horiz-adv-x="449" 
d="M121 496h79l-97 -496h-78zM150 678h93l-19 -94h-93zM110 -202l20 68q18 -8 37 -8q29 0 45 17.5t23 52.5l110 568h78l-111 -577q-24 -130 -147 -130q-32 0 -55 9zM375 678h93l-19 -94h-93z" />
    <glyph glyph-name="Jcircumflex" unicode="&#x134;" horiz-adv-x="532" 
d="M125.5 7q-40.5 21 -64.5 58t-24 83q0 30 5 51l78 -8q-4 -17 -4 -35q0 -43 33 -71t79 -28q59 0 98 35.5t53 105.5l98 502h79l-97 -500q-22 -109 -82.5 -161.5t-161.5 -52.5q-49 0 -89.5 21zM523 906h64l75 -143h-61l-59 73l-82 -73h-68z" />
    <glyph glyph-name="jcircumflex" unicode="&#x135;" horiz-adv-x="225" 
d="M-114 -202l20 68q18 -8 37 -8q29 0 45 17.5t23 52.5l110 568h78l-111 -577q-24 -130 -147 -130q-32 0 -55 9zM169 702h64l76 -143h-62l-59 73l-82 -73h-68z" />
    <glyph glyph-name="uni0136" unicode="&#x136;" horiz-adv-x="618" 
d="M178 700h79l-61 -318l79 71l283 247h104l-292 -259l176 -441h-90l-152 386l-131 -115l-53 -271h-79zM178 -264l53 111h-34l18 93h92l-18 -93l-93 -118z" />
    <glyph glyph-name="uni0137" unicode="&#x137;" horiz-adv-x="499" 
d="M161 700h78l-75 -385l214 181h103l-202 -171l143 -325h-84l-119 276l-76 -66l-41 -210h-78zM119 -264l53 111h-34l18 93h92l-18 -93l-93 -118z" />
    <glyph glyph-name="kgreenlandic" unicode="&#x138;" horiz-adv-x="494" 
d="M121 496h78l-40 -211l224 211h103l-214 -197l144 -299h-85l-118 244l-77 -69l-34 -175h-78z" />
    <glyph glyph-name="Lacute" unicode="&#x139;" horiz-adv-x="568" 
d="M178 700h79l-123 -629h352l-14 -71h-431zM285 906h107l-131 -143h-65z" />
    <glyph glyph-name="lacute" unicode="&#x13a;" horiz-adv-x="224" 
d="M161 700h78l-137 -700h-78zM268 906h106l-130 -143h-66z" />
    <glyph glyph-name="uni013B" unicode="&#x13b;" horiz-adv-x="568" 
d="M178 700h79l-123 -629h352l-14 -71h-431zM156 -264l53 111h-34l18 93h92l-18 -93l-93 -118z" />
    <glyph glyph-name="uni013C" unicode="&#x13c;" horiz-adv-x="224" 
d="M161 700h78l-137 -700h-78zM-31 -264l53 111h-34l18 93h92l-18 -93l-93 -118z" />
    <glyph glyph-name="Lcaron" unicode="&#x13d;" horiz-adv-x="568" 
d="M178 700h79l-123 -629h352l-14 -71h-431zM455 525l52 91h-37l17 84h83l-17 -85l-82 -100z" />
    <glyph glyph-name="lcaron" unicode="&#x13e;" horiz-adv-x="309" 
d="M161 700h78l-137 -700h-78zM282 525l52 91h-37l17 84h83l-17 -85l-82 -100z" />
    <glyph glyph-name="Ldot" unicode="&#x13f;" horiz-adv-x="568" 
d="M178 700h79l-123 -629h352l-14 -71h-431zM396 398h94l-18 -96h-95z" />
    <glyph glyph-name="ldot" unicode="&#x140;" horiz-adv-x="325" 
d="M161 700h78l-137 -700h-78zM260 399h94l-18 -96h-95z" />
    <glyph glyph-name="Lslash" unicode="&#x141;" horiz-adv-x="568" 
d="M486 71l-14 -71h-431l42 215l-96 -55l15 80l97 55l79 405h79l-69 -355l177 101l-15 -79l-178 -101l-38 -195h352z" />
    <glyph glyph-name="lslash" unicode="&#x142;" horiz-adv-x="224" 
d="M248 382l-80 -45l-66 -337h-78l57 289l-79 -44l14 73l79 44l66 338h78l-57 -289l80 44z" />
    <glyph glyph-name="Nacute" unicode="&#x143;" horiz-adv-x="705" 
d="M178 700h80l236 -533q15 -38 20 -55l114 588h77l-137 -700h-81l-235 533q-16 40 -20 55l-115 -588h-76zM509 906h107l-131 -143h-65z" />
    <glyph glyph-name="nacute" unicode="&#x144;" horiz-adv-x="570" 
d="M122 496h79l-15 -74q66 88 178 88q68 0 109 -36t41 -103q0 -22 -4 -45l-63 -326h-78l62 319q4 22 4 35q0 41 -27.5 64.5t-73.5 23.5q-39 0 -76 -22t-64 -60.5t-36 -86.5l-53 -273h-79zM405 702h106l-130 -143h-66z" />
    <glyph glyph-name="uni0145" unicode="&#x145;" horiz-adv-x="705" 
d="M178 700h80l236 -533q15 -38 20 -55l114 588h77l-137 -700h-81l-235 533q-16 40 -20 55l-115 -588h-76zM211 -264l53 111h-34l18 93h92l-18 -93l-93 -118z" />
    <glyph glyph-name="uni0146" unicode="&#x146;" horiz-adv-x="570" 
d="M122 496h79l-15 -74q66 88 178 88q68 0 109 -36t41 -103q0 -22 -4 -45l-63 -326h-78l62 319q4 22 4 35q0 41 -27.5 64.5t-73.5 23.5q-39 0 -76 -22t-64 -60.5t-36 -86.5l-53 -273h-79zM147 -264l53 111h-34l18 93h92l-18 -93l-93 -118z" />
    <glyph glyph-name="Ncaron" unicode="&#x147;" horiz-adv-x="705" 
d="M178 700h80l236 -533q15 -38 20 -55l114 588h77l-137 -700h-81l-235 533q-16 40 -20 55l-115 -588h-76zM346 906h62l58 -73l83 73h67l-130 -143h-64z" />
    <glyph glyph-name="ncaron" unicode="&#x148;" horiz-adv-x="570" 
d="M122 496h79l-15 -74q66 88 178 88q68 0 109 -36t41 -103q0 -22 -4 -45l-63 -326h-78l62 319q4 22 4 35q0 41 -27.5 64.5t-73.5 23.5q-39 0 -76 -22t-64 -60.5t-36 -86.5l-53 -273h-79zM242 702h62l58 -73l83 73h67l-130 -143h-64z" />
    <glyph glyph-name="Eng" unicode="&#x14a;" horiz-adv-x="706" 
d="M274 -200l32 68q26 -15 62 -15q90 0 116 122l5 25l-239 533q-11 24 -19 55l-114 -588h-76l136 700h85l234 -529q9 -20 20 -55l113 584h77l-142 -727q-18 -95 -68 -143t-139 -48q-50 0 -83 18z" />
    <glyph glyph-name="eng" unicode="&#x14b;" horiz-adv-x="570" 
d="M230 -202l20 68q18 -8 37 -8q29 0 45 17.5t23 52.5l76 391q4 22 4 35q0 41 -27.5 64.5t-73.5 23.5q-39 0 -76 -22t-64 -60.5t-36 -86.5l-53 -273h-79l96 496h79l-15 -74q66 88 178 88q68 0 109 -36t41 -103q0 -22 -4 -45l-78 -407q-24 -130 -147 -130q-32 0 -55 9z" />
    <glyph glyph-name="Omacron" unicode="&#x14c;" horiz-adv-x="784" 
d="M214.5 24.5q-69.5 38.5 -108.5 109t-39 164.5q0 106 47.5 202t135.5 155t204 59q93 0 161 -37t104.5 -107t36.5 -167q0 -109 -45.5 -204.5t-133 -154t-206.5 -58.5q-87 0 -156.5 38.5zM533.5 104.5q68.5 47.5 105.5 125.5t37 167q0 120 -62.5 183t-170.5 63
q-84 0 -151.5 -49t-105.5 -127.5t-38 -164.5q0 -75 30.5 -130.5t82 -85t115.5 -29.5q89 0 157.5 47.5zM400 871h217l-13 -64h-217z" />
    <glyph glyph-name="omacron" unicode="&#x14d;" horiz-adv-x="599" 
d="M157 12.5q-53 26.5 -85.5 77.5t-32.5 122q0 83 36.5 151t103 107.5t151.5 39.5q63 0 115.5 -25t83.5 -75t31 -122q0 -85 -37 -154t-103 -108.5t-148 -39.5q-62 0 -115 26.5zM380 83.5q46 29.5 73.5 81t27.5 113.5q0 75 -44 119.5t-118 44.5q-58 0 -104 -32.5t-72 -84
t-26 -107.5q0 -74 45.5 -119t117.5 -45q54 0 100 29.5zM265 667h217l-13 -64h-217z" />
    <glyph glyph-name="Obreve" unicode="&#x14e;" horiz-adv-x="784" 
d="M214.5 24.5q-69.5 38.5 -108.5 109t-39 164.5q0 106 47.5 202t135.5 155t204 59q93 0 161 -37t104.5 -107t36.5 -167q0 -109 -45.5 -204.5t-133 -154t-206.5 -58.5q-87 0 -156.5 38.5zM533.5 104.5q68.5 47.5 105.5 125.5t37 167q0 120 -62.5 183t-170.5 63
q-84 0 -151.5 -49t-105.5 -127.5t-38 -164.5q0 -75 30.5 -130.5t82 -85t115.5 -29.5q89 0 157.5 47.5zM430.5 796.5q-24.5 24.5 -24.5 59.5q0 11 2 19h63q-1 -5 -1 -11q0 -15 8 -24t23 -9q19 0 31.5 11.5t16.5 32.5h62q-8 -53 -37.5 -78t-79.5 -25q-39 0 -63.5 24.5z" />
    <glyph glyph-name="obreve" unicode="&#x14f;" horiz-adv-x="599" 
d="M157 12.5q-53 26.5 -85.5 77.5t-32.5 122q0 83 36.5 151t103 107.5t151.5 39.5q63 0 115.5 -25t83.5 -75t31 -122q0 -85 -37 -154t-103 -108.5t-148 -39.5q-62 0 -115 26.5zM380 83.5q46 29.5 73.5 81t27.5 113.5q0 75 -44 119.5t-118 44.5q-58 0 -104 -32.5t-72 -84
t-26 -107.5q0 -74 45.5 -119t117.5 -45q54 0 100 29.5zM295.5 592.5q-24.5 24.5 -24.5 59.5q0 11 2 19h63q-1 -5 -1 -11q0 -15 8 -24t23 -9q19 0 31.5 11.5t16.5 32.5h62q-8 -53 -37.5 -78t-79.5 -25q-39 0 -63.5 24.5z" />
    <glyph glyph-name="Ohungarumlaut" unicode="&#x150;" horiz-adv-x="784" 
d="M214.5 24.5q-69.5 38.5 -108.5 109t-39 164.5q0 106 47.5 202t135.5 155t204 59q93 0 161 -37t104.5 -107t36.5 -167q0 -109 -45.5 -204.5t-133 -154t-206.5 -58.5q-87 0 -156.5 38.5zM533.5 104.5q68.5 47.5 105.5 125.5t37 167q0 120 -62.5 183t-170.5 63
q-84 0 -151.5 -49t-105.5 -127.5t-38 -164.5q0 -75 30.5 -130.5t82 -85t115.5 -29.5q89 0 157.5 47.5zM438 906h108l-133 -143h-66zM593 906h108l-133 -143h-65z" />
    <glyph glyph-name="ohungarumlaut" unicode="&#x151;" horiz-adv-x="599" 
d="M157 12.5q-53 26.5 -85.5 77.5t-32.5 122q0 83 36.5 151t103 107.5t151.5 39.5q63 0 115.5 -25t83.5 -75t31 -122q0 -85 -37 -154t-103 -108.5t-148 -39.5q-62 0 -115 26.5zM380 83.5q46 29.5 73.5 81t27.5 113.5q0 75 -44 119.5t-118 44.5q-58 0 -104 -32.5t-72 -84
t-26 -107.5q0 -74 45.5 -119t117.5 -45q54 0 100 29.5zM323 702h108l-133 -143h-66zM479 702h107l-133 -143h-65z" />
    <glyph glyph-name="OE" unicode="&#x152;" horiz-adv-x="1150" 
d="M214.5 24.5q-69.5 38.5 -108.5 109t-39 164.5q0 106 47.5 202t135.5 155t204 59q90 0 155.5 -40t100.5 -113l27 139h433l-15 -70h-353l-45 -233h325l-13 -70h-326l-49 -257h356l-14 -70h-436l19 101q-45 -52 -108 -83.5t-140 -31.5q-87 0 -156.5 38.5zM533.5 104.5
q68.5 47.5 105.5 125.5t37 167q0 120 -62 183t-170 63q-85 0 -152.5 -49t-105.5 -127.5t-38 -164.5q0 -75 30.5 -130.5t82 -85t115.5 -29.5q89 0 157.5 47.5z" />
    <glyph glyph-name="oe" unicode="&#x153;" horiz-adv-x="1014" 
d="M155.5 12.5q-53.5 26.5 -86 77.5t-32.5 122q0 83 36.5 151t103 107.5t151.5 39.5q69 0 123.5 -31t82.5 -90q37 56 97.5 88.5t133.5 32.5q67 0 115.5 -26t74 -71t25.5 -102q0 -21 -5 -53l-4 -22h-416q-2 -7 -2 -24q0 -45 20 -81.5t55.5 -58t81.5 -21.5q61 0 102.5 29.5
t75.5 89.5l55 -36q-42 -76 -100 -112t-140 -36q-66 0 -119.5 31.5t-80.5 93.5q-39 -60 -98.5 -92.5t-134.5 -32.5q-61 0 -114.5 26.5zM906 298q2 11 2 22q0 56 -41.5 92t-106.5 36q-66 0 -119 -41t-71 -109h336zM378.5 83.5q46.5 29.5 73.5 81t27 113.5q0 75 -44 119.5
t-117 44.5q-58 0 -104.5 -32.5t-72 -84t-25.5 -107.5q0 -74 45.5 -119t116.5 -45q54 0 100.5 29.5z" />
    <glyph glyph-name="Racute" unicode="&#x154;" horiz-adv-x="635" 
d="M178 700h260q97 0 151 -46.5t54 -127.5q0 -57 -28 -103.5t-76 -75.5t-108 -38l113 -309h-84l-113 305h-167l-60 -305h-79zM378 374q79 0 132 37t53 105q0 115 -135 115h-184l-51 -257h185zM468 906h107l-131 -143h-65z" />
    <glyph glyph-name="racute" unicode="&#x155;" horiz-adv-x="348" 
d="M122 496h79l-15 -78q27 46 64.5 69t89.5 23q18 0 35 -5l-22 -69q-18 6 -42 6q-53 0 -96 -50t-59 -130l-51 -262h-79zM303 702h106l-130 -143h-66z" />
    <glyph glyph-name="uni0156" unicode="&#x156;" horiz-adv-x="635" 
d="M178 700h260q97 0 151 -46.5t54 -127.5q0 -57 -28 -103.5t-76 -75.5t-108 -38l113 -309h-84l-113 305h-167l-60 -305h-79zM378 374q79 0 132 37t53 105q0 115 -135 115h-184l-51 -257h185zM172 -264l53 111h-34l18 93h92l-18 -93l-93 -118z" />
    <glyph glyph-name="uni0157" unicode="&#x157;" horiz-adv-x="348" 
d="M122 496h79l-15 -78q27 46 64.5 69t89.5 23q18 0 35 -5l-22 -69q-18 6 -42 6q-53 0 -96 -50t-59 -130l-51 -262h-79zM-29 -264l53 111h-34l18 93h92l-18 -93l-93 -118z" />
    <glyph glyph-name="Rcaron" unicode="&#x158;" horiz-adv-x="635" 
d="M178 700h260q97 0 151 -46.5t54 -127.5q0 -57 -28 -103.5t-76 -75.5t-108 -38l113 -309h-84l-113 305h-167l-60 -305h-79zM378 374q79 0 132 37t53 105q0 115 -135 115h-184l-51 -257h185zM304 906h62l58 -73l83 73h67l-130 -143h-64z" />
    <glyph glyph-name="rcaron" unicode="&#x159;" horiz-adv-x="348" 
d="M122 496h79l-15 -78q27 46 64.5 69t89.5 23q18 0 35 -5l-22 -69q-18 6 -42 6q-53 0 -96 -50t-59 -130l-51 -262h-79zM140 702h62l58 -73l83 73h67l-130 -143h-64z" />
    <glyph glyph-name="Sacute" unicode="&#x15a;" horiz-adv-x="629" 
d="M118.5 48q-64.5 62 -76.5 156l75 37q7 -83 53.5 -134.5t129.5 -51.5q46 0 87 18t65.5 51.5t24.5 78.5q0 38 -17.5 62t-51.5 39t-93 30q-188 46 -188 182q0 60 32 104.5t89 69t131 24.5q87 0 145.5 -43.5t80.5 -124.5l-64 -39q-39 138 -174 138q-66 0 -114.5 -32
t-48.5 -88q0 -50 40.5 -81t125.5 -50q90 -20 138 -62.5t48 -113.5q0 -68 -32.5 -121t-92 -82t-136.5 -29q-112 0 -176.5 62zM466 906h107l-131 -143h-65z" />
    <glyph glyph-name="sacute" unicode="&#x15b;" horiz-adv-x="485" 
d="M92.5 28q-51.5 42 -64.5 104l66 37q8 -52 41.5 -85t87.5 -33q53 0 84 26t31 68q0 37 -23.5 54.5t-85.5 33.5q-140 37 -140 136q0 62 50 101.5t128 39.5q71 0 114 -32t60 -88l-59 -31q-28 90 -119 90q-38 0 -70 -20t-32 -55q0 -32 26.5 -52t87.5 -34q70 -17 104.5 -50
t34.5 -87q0 -75 -54 -120t-142 -45q-74 0 -125.5 42zM345 702h106l-130 -143h-66z" />
    <glyph glyph-name="Scircumflex" unicode="&#x15c;" horiz-adv-x="629" 
d="M118.5 48q-64.5 62 -76.5 156l75 37q7 -83 53.5 -134.5t129.5 -51.5q46 0 87 18t65.5 51.5t24.5 78.5q0 38 -17.5 62t-51.5 39t-93 30q-188 46 -188 182q0 60 32 104.5t89 69t131 24.5q87 0 145.5 -43.5t80.5 -124.5l-64 -39q-39 138 -174 138q-66 0 -114.5 -32
t-48.5 -88q0 -50 40.5 -81t125.5 -50q90 -20 138 -62.5t48 -113.5q0 -68 -32.5 -121t-92 -82t-136.5 -29q-112 0 -176.5 62zM405 906h64l75 -143h-61l-59 73l-82 -73h-68z" />
    <glyph glyph-name="scircumflex" unicode="&#x15d;" horiz-adv-x="485" 
d="M92.5 28q-51.5 42 -64.5 104l66 37q8 -52 41.5 -85t87.5 -33q53 0 84 26t31 68q0 37 -23.5 54.5t-85.5 33.5q-140 37 -140 136q0 62 50 101.5t128 39.5q71 0 114 -32t60 -88l-59 -31q-28 90 -119 90q-38 0 -70 -20t-32 -55q0 -32 26.5 -52t87.5 -34q70 -17 104.5 -50
t34.5 -87q0 -75 -54 -120t-142 -45q-74 0 -125.5 42zM285 702h64l76 -143h-62l-59 73l-82 -73h-68z" />
    <glyph glyph-name="Scedilla" unicode="&#x15e;" horiz-adv-x="629" 
d="M508 331.5q48 -42.5 48 -113.5q0 -68 -32.5 -121t-92 -82t-136.5 -29h-2l-29 -43q20 13 44 13q29 0 47.5 -18t18.5 -51q0 -42 -27 -66.5t-75 -24.5q-66 0 -80 61l48 11q5 -28 37 -28q18 0 30 11t12 32q0 16 -9.5 24.5t-25.5 8.5q-13 0 -23.5 -5t-24.5 -15l-25 28l35 66
q-90 14 -142 73t-62 141l75 37q7 -83 53.5 -134.5t129.5 -51.5q46 0 87 18t65.5 51.5t24.5 78.5q0 38 -17.5 62t-51.5 39t-93 30q-188 46 -188 182q0 60 32 104.5t89 69t131 24.5q87 0 145.5 -43.5t80.5 -124.5l-64 -39q-39 138 -174 138q-66 0 -114.5 -32t-48.5 -88
q0 -50 40.5 -81t125.5 -50q90 -20 138 -62.5z" />
    <glyph glyph-name="scedilla" unicode="&#x15f;" horiz-adv-x="485" 
d="M379.5 238q34.5 -33 34.5 -87q0 -75 -54 -120t-142 -45h-11l-30 -43q20 13 44 13q29 0 47.5 -18t18.5 -51q0 -42 -27 -66.5t-75 -24.5q-66 0 -80 61l48 11q5 -28 37 -28q18 0 30 11t12 32q0 16 -9.5 24.5t-25.5 8.5q-13 0 -23.5 -5t-24.5 -15l-25 28l37 69
q-52 15 -87 52.5t-46 86.5l66 37q8 -52 41.5 -85t87.5 -33q53 0 84 26t31 68q0 37 -23.5 54.5t-85.5 33.5q-140 37 -140 136q0 62 50 101.5t128 39.5q71 0 114 -32t60 -88l-59 -31q-28 90 -119 90q-38 0 -70 -20t-32 -55q0 -32 26.5 -52t87.5 -34q70 -17 104.5 -50z" />
    <glyph glyph-name="Scaron" unicode="&#x160;" horiz-adv-x="629" 
d="M118.5 48q-64.5 62 -76.5 156l75 37q7 -83 53.5 -134.5t129.5 -51.5q46 0 87 18t65.5 51.5t24.5 78.5q0 38 -17.5 62t-51.5 39t-93 30q-188 46 -188 182q0 60 32 104.5t89 69t131 24.5q87 0 145.5 -43.5t80.5 -124.5l-64 -39q-39 138 -174 138q-66 0 -114.5 -32
t-48.5 -88q0 -50 40.5 -81t125.5 -50q90 -20 138 -62.5t48 -113.5q0 -68 -32.5 -121t-92 -82t-136.5 -29q-112 0 -176.5 62zM303 906h62l58 -73l83 73h67l-130 -143h-64z" />
    <glyph glyph-name="scaron" unicode="&#x161;" horiz-adv-x="485" 
d="M92.5 28q-51.5 42 -64.5 104l66 37q8 -52 41.5 -85t87.5 -33q53 0 84 26t31 68q0 37 -23.5 54.5t-85.5 33.5q-140 37 -140 136q0 62 50 101.5t128 39.5q71 0 114 -32t60 -88l-59 -31q-28 90 -119 90q-38 0 -70 -20t-32 -55q0 -32 26.5 -52t87.5 -34q70 -17 104.5 -50
t34.5 -87q0 -75 -54 -120t-142 -45q-74 0 -125.5 42zM183 702h62l58 -73l83 73h67l-130 -143h-64z" />
    <glyph glyph-name="uni0162" unicode="&#x162;" horiz-adv-x="553" 
d="M619 700l-14 -71h-215l-123 -629h-18l-39 -57q20 13 44 13q29 0 47.5 -18t18.5 -51q0 -42 -27 -66.5t-75 -24.5q-66 0 -80 61l48 11q5 -28 37 -28q18 0 30 11t12 32q0 16 -9.5 24.5t-25.5 8.5q-13 0 -23.5 -5t-24.5 -15l-25 28l40 76h-9l123 629h-215l14 71h509z" />
    <glyph glyph-name="uni0163" unicode="&#x163;" horiz-adv-x="344" 
d="M169 132q-3 -16 -3 -29q0 -24 15 -37t39 -13q20 0 39 6l-4 -63q-29 -10 -65 -10q-8 0 -24 2l-31 -45q20 13 44 13q29 0 47.5 -18t18.5 -51q0 -42 -27 -66.5t-75 -24.5q-66 0 -80 61l48 11q5 -28 37 -28q18 0 30 11t12 32q0 16 -9.5 24.5t-25.5 8.5q-13 0 -23.5 -5
t-24.5 -15l-25 28l43 80q-38 27 -38 85q0 25 3 41l59 307h-83l12 59h83l26 134h78l-26 -134h116l-12 -59h-115z" />
    <glyph glyph-name="Tcaron" unicode="&#x164;" horiz-adv-x="553" 
d="M311 629h-215l14 71h509l-14 -71h-215l-123 -629h-79zM269 906h62l58 -73l83 73h67l-130 -143h-64z" />
    <glyph glyph-name="tcaron" unicode="&#x165;" horiz-adv-x="344" 
d="M115 12.5q-28 26.5 -28 76.5q0 25 3 41l59 307h-83l12 59h83l26 134h78l-26 -134h116l-12 -59h-115l-59 -305q-3 -16 -3 -29q0 -24 15 -37t39 -13q20 0 39 6l-4 -63q-29 -10 -65 -10q-47 0 -75 26.5zM320 558l52 91h-37l17 84h83l-17 -85l-82 -100z" />
    <glyph glyph-name="Tbar" unicode="&#x166;" horiz-adv-x="553" 
d="M258 359h-148l13 64h148l40 206h-215l14 71h509l-14 -71h-215l-39 -206h148l-13 -64h-149l-70 -359h-79z" />
    <glyph glyph-name="tbar" unicode="&#x167;" horiz-adv-x="344" 
d="M115 12.5q-28 26.5 -28 76.5q0 25 3 41l20 103h-68l12 57h67l28 147h-83l12 59h83l26 134h78l-26 -134h116l-12 -59h-115l-29 -147h106l-12 -57h-105l-19 -101q-3 -16 -3 -29q0 -24 15 -37t39 -13q20 0 39 6l-4 -63q-29 -10 -65 -10q-47 0 -75 26.5z" />
    <glyph glyph-name="Utilde" unicode="&#x168;" horiz-adv-x="668" 
d="M174.5 10.5q-48.5 24.5 -76 71t-27.5 110.5q0 37 7 73l84 435h80l-89 -454q-4 -23 -4 -48q0 -64 39.5 -102.5t108.5 -38.5q87 0 142.5 47t72.5 131l90 465h79l-91 -469q-24 -124 -102.5 -184.5t-202.5 -60.5q-62 0 -110.5 24.5zM461.5 776.5q-19.5 10.5 -39.5 29.5
q-16 15 -25.5 21t-24.5 6q-16 0 -25.5 -10.5t-9.5 -25.5q0 -6 2 -16l-60 -11q-5 10 -5 29q0 40 25.5 66t73.5 26q31 0 50.5 -10.5t39.5 -29.5q15 -14 25.5 -20.5t24.5 -6.5q15 0 24.5 10t9.5 25q0 10 -3 17l60 12q4 -20 4 -34q0 -41 -25.5 -64.5t-68.5 -23.5
q-33 0 -52.5 10.5z" />
    <glyph glyph-name="utilde" unicode="&#x169;" horiz-adv-x="570" 
d="M101 27q-43 41 -43 108q0 23 4 48l61 313h78l-59 -305q-5 -25 -5 -42q0 -44 28 -69.5t77 -25.5q37 0 73 22.5t62.5 64.5t38.5 98l50 257h78l-96 -496h-78l14 74q-26 -41 -70.5 -64.5t-97.5 -23.5q-72 0 -115 41zM377.5 572.5q-19.5 10.5 -39.5 29.5q-16 15 -25.5 21
t-24.5 6q-16 0 -25.5 -10.5t-9.5 -25.5q0 -6 2 -16l-60 -11q-5 10 -5 29q0 40 25.5 66t73.5 26q31 0 50.5 -10.5t39.5 -29.5q15 -14 25.5 -20.5t24.5 -6.5q15 0 24.5 10t9.5 25q0 10 -3 17l60 12q4 -20 4 -34q0 -41 -25.5 -64.5t-68.5 -23.5q-33 0 -52.5 10.5z" />
    <glyph glyph-name="Umacron" unicode="&#x16a;" horiz-adv-x="668" 
d="M174.5 10.5q-48.5 24.5 -76 71t-27.5 110.5q0 37 7 73l84 435h80l-89 -454q-4 -23 -4 -48q0 -64 39.5 -102.5t108.5 -38.5q87 0 142.5 47t72.5 131l90 465h79l-91 -469q-24 -124 -102.5 -184.5t-202.5 -60.5q-62 0 -110.5 24.5zM342 871h217l-13 -64h-217z" />
    <glyph glyph-name="umacron" unicode="&#x16b;" horiz-adv-x="570" 
d="M101 27q-43 41 -43 108q0 23 4 48l61 313h78l-59 -305q-5 -25 -5 -42q0 -44 28 -69.5t77 -25.5q37 0 73 22.5t62.5 64.5t38.5 98l50 257h78l-96 -496h-78l14 74q-26 -41 -70.5 -64.5t-97.5 -23.5q-72 0 -115 41zM258 667h217l-13 -64h-217z" />
    <glyph glyph-name="Ubreve" unicode="&#x16c;" horiz-adv-x="668" 
d="M174.5 10.5q-48.5 24.5 -76 71t-27.5 110.5q0 37 7 73l84 435h80l-89 -454q-4 -23 -4 -48q0 -64 39.5 -102.5t108.5 -38.5q87 0 142.5 47t72.5 131l90 465h79l-91 -469q-24 -124 -102.5 -184.5t-202.5 -60.5q-62 0 -110.5 24.5zM372.5 796.5q-24.5 24.5 -24.5 59.5
q0 11 2 19h63q-1 -5 -1 -11q0 -15 8 -24t23 -9q19 0 31.5 11.5t16.5 32.5h62q-8 -53 -37.5 -78t-79.5 -25q-39 0 -63.5 24.5z" />
    <glyph glyph-name="ubreve" unicode="&#x16d;" horiz-adv-x="570" 
d="M101 27q-43 41 -43 108q0 23 4 48l61 313h78l-59 -305q-5 -25 -5 -42q0 -44 28 -69.5t77 -25.5q37 0 73 22.5t62.5 64.5t38.5 98l50 257h78l-96 -496h-78l14 74q-26 -41 -70.5 -64.5t-97.5 -23.5q-72 0 -115 41zM287.5 592.5q-24.5 24.5 -24.5 59.5q0 11 2 19h63
q-1 -5 -1 -11q0 -15 8 -24t23 -9q19 0 31.5 11.5t16.5 32.5h62q-8 -53 -37.5 -78t-79.5 -25q-39 0 -63.5 24.5z" />
    <glyph glyph-name="Uring" unicode="&#x16e;" horiz-adv-x="668" 
d="M174.5 10.5q-48.5 24.5 -76 71t-27.5 110.5q0 37 7 73l84 435h80l-89 -454q-4 -23 -4 -48q0 -64 39.5 -102.5t108.5 -38.5q87 0 142.5 47t72.5 131l90 465h79l-91 -469q-24 -124 -102.5 -184.5t-202.5 -60.5q-62 0 -110.5 24.5zM376 771.5q-28 27.5 -28 67.5t28 67.5
t68 27.5t68 -27.5t28 -67.5t-28 -67.5t-68 -27.5t-68 27.5zM477.5 805q13.5 14 13.5 34t-13.5 34t-33.5 14t-33.5 -14t-13.5 -34t13.5 -34t33.5 -14t33.5 14z" />
    <glyph glyph-name="uring" unicode="&#x16f;" horiz-adv-x="570" 
d="M101 27q-43 41 -43 108q0 23 4 48l61 313h78l-59 -305q-5 -25 -5 -42q0 -44 28 -69.5t77 -25.5q37 0 73 22.5t62.5 64.5t38.5 98l50 257h78l-96 -496h-78l14 74q-26 -41 -70.5 -64.5t-97.5 -23.5q-72 0 -115 41zM292 567.5q-28 27.5 -28 67.5t28 67.5t68 27.5t68 -27.5
t28 -67.5t-28 -67.5t-68 -27.5t-68 27.5zM393.5 601q13.5 14 13.5 34t-13.5 34t-33.5 14t-33.5 -14t-13.5 -34t13.5 -34t33.5 -14t33.5 14z" />
    <glyph glyph-name="Uhungarumlaut" unicode="&#x170;" horiz-adv-x="668" 
d="M174.5 10.5q-48.5 24.5 -76 71t-27.5 110.5q0 37 7 73l84 435h80l-89 -454q-4 -23 -4 -48q0 -64 39.5 -102.5t108.5 -38.5q87 0 142.5 47t72.5 131l90 465h79l-91 -469q-24 -124 -102.5 -184.5t-202.5 -60.5q-62 0 -110.5 24.5zM379 906h108l-133 -143h-66zM534 906h108
l-133 -143h-65z" />
    <glyph glyph-name="uhungarumlaut" unicode="&#x171;" horiz-adv-x="570" 
d="M101 27q-43 41 -43 108q0 23 4 48l61 313h78l-59 -305q-5 -25 -5 -42q0 -44 28 -69.5t77 -25.5q37 0 73 22.5t62.5 64.5t38.5 98l50 257h78l-96 -496h-78l14 74q-26 -41 -70.5 -64.5t-97.5 -23.5q-72 0 -115 41zM316 702h108l-133 -143h-66zM472 702h107l-133 -143h-65z
" />
    <glyph glyph-name="Uogonek" unicode="&#x172;" horiz-adv-x="668" 
d="M681 700l-91 -469q-41 -206 -230 -239q-30 -15 -51.5 -37t-21.5 -45q0 -20 12 -30.5t31 -10.5q5 0 19 2l-3 -63q-20 -6 -43 -6q-39 0 -64 21t-25 60q0 63 59 103q-91 4 -146.5 58.5t-55.5 147.5q0 37 7 73l84 435h80l-89 -454q-4 -23 -4 -48q0 -64 39.5 -102.5
t108.5 -38.5q87 0 142.5 47t72.5 131l90 465h79z" />
    <glyph glyph-name="uogonek" unicode="&#x173;" horiz-adv-x="570" 
d="M386 -38.5q-28 -24.5 -28 -51.5q0 -20 12 -30.5t31 -10.5q5 0 19 2l-3 -63q-19 -6 -43 -6q-39 0 -64 21t-25 60t23 69t62 50l14 72q-26 -41 -70.5 -64.5t-97.5 -23.5q-72 0 -115 41t-43 108q0 23 4 48l61 313h78l-59 -305q-5 -25 -5 -42q0 -44 28 -69.5t77 -25.5
q37 0 73 22.5t62.5 64.5t38.5 98l50 257h78l-96 -496q-34 -14 -62 -38.5z" />
    <glyph glyph-name="Wcircumflex" unicode="&#x174;" horiz-adv-x="898" 
d="M98 700h79l36 -529q0 -6 2 -31.5t2 -41.5q7 18 19 43.5t14 30.5l242 528h91l35 -526l1 -76q10 25 20.5 48t12.5 27l243 527h82l-331 -700h-87l-41 601l-274 -601h-88zM544 906h64l75 -143h-61l-59 73l-82 -73h-68z" />
    <glyph glyph-name="wcircumflex" unicode="&#x175;" horiz-adv-x="689" 
d="M61 496h76l25 -402l183 402h88l33 -402l179 402h78l-229 -496h-86l-35 407l-185 -407h-85zM398 702h64l76 -143h-62l-59 73l-82 -73h-68z" />
    <glyph glyph-name="Ycircumflex" unicode="&#x176;" horiz-adv-x="551" 
d="M244 287l-150 413h88l98 -296l14 -50q6 11 30 46l219 300h91l-311 -413l-56 -287h-79zM367 906h64l75 -143h-61l-59 73l-82 -73h-68z" />
    <glyph glyph-name="ycircumflex" unicode="&#x177;" horiz-adv-x="500" 
d="M-26 -201l25 70q17 -9 39 -9q23 0 38.5 11t31.5 40l55 94l-106 491h80l83 -394l230 394h87l-363 -609q-34 -57 -64.5 -77.5t-81.5 -20.5q-33 0 -54 10zM295 702h64l76 -143h-62l-59 73l-82 -73h-68z" />
    <glyph glyph-name="Ydieresis" unicode="&#x178;" horiz-adv-x="551" 
d="M244 287l-150 413h88l98 -296l14 -50q6 11 30 46l219 300h91l-311 -413l-56 -287h-79zM273 882h90l-18 -89h-90zM429 882h90l-17 -89h-91z" />
    <glyph glyph-name="Zacute" unicode="&#x179;" horiz-adv-x="593" 
d="M8 70l501 558h-381l14 72h478l-15 -72l-494 -556h403l-14 -72h-507zM436 906h107l-131 -143h-65z" />
    <glyph glyph-name="zacute" unicode="&#x17a;" horiz-adv-x="481" 
d="M7 64l364 368h-281l13 64h371l-13 -64l-363 -368h306l-12 -64h-397zM350 702h106l-130 -143h-66z" />
    <glyph glyph-name="Zdotaccent" unicode="&#x17b;" horiz-adv-x="593" 
d="M8 70l501 558h-381l14 72h478l-15 -72l-494 -556h403l-14 -72h-507zM357 882h93l-19 -94h-93z" />
    <glyph glyph-name="zdotaccent" unicode="&#x17c;" horiz-adv-x="481" 
d="M7 64l364 368h-281l13 64h371l-13 -64l-363 -368h306l-12 -64h-397zM272 678h93l-19 -94h-93z" />
    <glyph glyph-name="Zcaron" unicode="&#x17d;" horiz-adv-x="593" 
d="M8 70l501 558h-381l14 72h478l-15 -72l-494 -556h403l-14 -72h-507zM272 906h62l58 -73l83 73h67l-130 -143h-64z" />
    <glyph glyph-name="zcaron" unicode="&#x17e;" horiz-adv-x="481" 
d="M7 64l364 368h-281l13 64h371l-13 -64l-363 -368h306l-12 -64h-397zM187 702h62l58 -73l83 73h67l-130 -143h-64z" />
    <glyph glyph-name="florin" unicode="&#x192;" horiz-adv-x="317" 
d="M-91 -211l22 68q14 -7 33 -7q29 0 48.5 20t26.5 56l99 511h-77l12 59h77l20 102q14 73 57.5 112.5t117.5 39.5q22 0 45 -7l-16 -68q-15 7 -39 7q-32 0 -56 -22t-32 -66l-19 -98h114l-12 -59h-114l-100 -516q-14 -71 -52 -105t-106 -34q-26 0 -49 7z" />
    <glyph glyph-name="uni01B5" unicode="&#x1b5;" horiz-adv-x="593" 
d="M8 70l226 252h-152l12 64h197l218 242h-381l14 72h478l-15 -72l-215 -242h153l-12 -64h-198l-222 -250h403l-14 -72h-507z" />
    <glyph glyph-name="uni01B6" unicode="&#x1b6;" horiz-adv-x="481" 
d="M7 64l161 164h-96l12 61h147l140 143h-281l13 64h371l-13 -64l-140 -143h95l-11 -61h-145l-162 -164h306l-12 -64h-397z" />
    <glyph glyph-name="AEacute" unicode="&#x1fc;" horiz-adv-x="933" 
d="M409 700h541l-14 -70h-353l-45 -233h325l-13 -70h-326l-50 -257h357l-15 -70h-435l41 208h-239l-133 -208h-90zM435 276l69 354h-52l-226 -354h209zM704 906h107l-131 -143h-65z" />
    <glyph glyph-name="aeacute" unicode="&#x1fd;" horiz-adv-x="985" 
d="M136.5 16q-46.5 30 -72 82t-25.5 117q0 82 34.5 149.5t97.5 106.5t143 39q60 0 102.5 -26t62.5 -73l18 85h77l-11 -61q31 36 75.5 55.5t100.5 19.5q65 0 113 -26t73 -71.5t25 -101.5q0 -21 -5 -53l-4 -22h-415q-1 -7 -1 -24q0 -45 19.5 -81.5t55 -58t80.5 -21.5
q61 0 102.5 29.5t75.5 89.5l55 -36q-42 -76 -100 -112t-140 -36q-60 0 -108 26t-70 74l-17 -86h-78l15 76q-60 -90 -169 -90q-63 0 -109.5 30zM876 298q2 11 2 22q0 56 -41.5 92t-106.5 36q-67 0 -119.5 -41t-70.5 -109h336zM364 85.5q44 31.5 68.5 85t24.5 116.5
q0 72 -38 113.5t-104 41.5q-57 0 -102 -30t-70 -81t-25 -113q0 -73 40 -118.5t106 -45.5q56 0 100 31.5zM602 702h106l-130 -143h-66z" />
    <glyph glyph-name="uni0218" unicode="&#x218;" horiz-adv-x="629" 
d="M118.5 48q-64.5 62 -76.5 156l75 37q7 -83 53.5 -134.5t129.5 -51.5q46 0 87 18t65.5 51.5t24.5 78.5q0 38 -17.5 62t-51.5 39t-93 30q-188 46 -188 182q0 60 32 104.5t89 69t131 24.5q87 0 145.5 -43.5t80.5 -124.5l-64 -39q-39 138 -174 138q-66 0 -114.5 -32
t-48.5 -88q0 -50 40.5 -81t125.5 -50q90 -20 138 -62.5t48 -113.5q0 -68 -32.5 -121t-92 -82t-136.5 -29q-112 0 -176.5 62zM187 -264l53 111h-34l18 93h92l-18 -93l-93 -118z" />
    <glyph glyph-name="uni0219" unicode="&#x219;" horiz-adv-x="485" 
d="M92.5 28q-51.5 42 -64.5 104l66 37q8 -52 41.5 -85t87.5 -33q53 0 84 26t31 68q0 37 -23.5 54.5t-85.5 33.5q-140 37 -140 136q0 62 50 101.5t128 39.5q71 0 114 -32t60 -88l-59 -31q-28 90 -119 90q-38 0 -70 -20t-32 -55q0 -32 26.5 -52t87.5 -34q70 -17 104.5 -50
t34.5 -87q0 -75 -54 -120t-142 -45q-74 0 -125.5 42zM107 -264l53 111h-34l18 93h92l-18 -93l-93 -118z" />
    <glyph glyph-name="uni021A" unicode="&#x21a;" horiz-adv-x="553" 
d="M311 629h-215l14 71h509l-14 -71h-215l-123 -629h-79zM133 -264l53 111h-34l18 93h92l-18 -93l-93 -118z" />
    <glyph glyph-name="uni021B" unicode="&#x21b;" horiz-adv-x="344" 
d="M115 12.5q-28 26.5 -28 76.5q0 25 3 41l59 307h-83l12 59h83l26 134h78l-26 -134h116l-12 -59h-115l-59 -305q-3 -16 -3 -29q0 -24 15 -37t39 -13q20 0 39 6l-4 -63q-29 -10 -65 -10q-47 0 -75 26.5zM64 -264l53 111h-34l18 93h92l-18 -93l-93 -118z" />
    <glyph glyph-name="uni0237" unicode="&#x237;" horiz-adv-x="225" 
d="M-114 -202l20 68q18 -8 37 -8q29 0 45 17.5t23 52.5l110 568h78l-111 -577q-24 -130 -147 -130q-32 0 -55 9z" />
    <glyph glyph-name="circumflex" unicode="&#x2c6;" horiz-adv-x="368" 
d="M221 702h64l76 -143h-62l-58 73l-83 -73h-67z" />
    <glyph glyph-name="caron" unicode="&#x2c7;" horiz-adv-x="368" 
d="M123 702h62l58 -73l83 73h67l-130 -143h-64z" />
    <glyph glyph-name="uni02C9" unicode="&#x2c9;" horiz-adv-x="309" 
d="M118 667h217l-13 -64h-217z" />
    <glyph glyph-name="breve" unicode="&#x2d8;" horiz-adv-x="279" 
d="M125 592.5q-24 24.5 -24 59.5q0 11 2 19h62q-1 -5 -1 -11q0 -15 8.5 -24t23.5 -9q18 0 30.5 11.5t17.5 32.5h62q-16 -103 -118 -103q-39 0 -63 24.5z" />
    <glyph glyph-name="dotaccent" unicode="&#x2d9;" horiz-adv-x="221" 
d="M133 678h93l-18 -94h-93z" />
    <glyph glyph-name="ring" unicode="&#x2da;" horiz-adv-x="287" 
d="M141 567.5q-28 27.5 -28 67.5t28 67.5t68 27.5t68 -27.5t28 -67.5t-28 -67.5t-68 -27.5t-68 27.5zM242.5 601q13.5 14 13.5 34t-13.5 34t-33.5 14q-21 0 -34 -13.5t-13 -34.5t13 -34.5t34 -13.5q20 0 33.5 14z" />
    <glyph glyph-name="ogonek" unicode="&#x2db;" horiz-adv-x="205" 
d="M-20 -177q-25 21 -25 60q0 43 28 75t74 51l61 -9q-34 -14 -62 -38.5t-28 -51.5q0 -19 12.5 -30t31.5 -11q3 0 19 2l-4 -63q-19 -6 -43 -6q-39 0 -64 21z" />
    <glyph glyph-name="tilde" unicode="&#x2dc;" horiz-adv-x="465" 
d="M305.5 572.5q-19.5 10.5 -39.5 29.5q-16 15 -25.5 21t-24.5 6q-16 0 -26 -10.5t-10 -25.5q0 -5 1.5 -9.5t1.5 -6.5l-60 -11q-5 10 -5 29q0 40 25.5 66t73.5 26q31 0 49.5 -10t39.5 -30q17 -15 26.5 -21t24.5 -6t24.5 10t9.5 25q0 10 -3 17l60 12q4 -20 4 -34
q0 -41 -25.5 -64.5t-68.5 -23.5q-33 0 -52.5 10.5z" />
    <glyph glyph-name="hungarumlaut" unicode="&#x2dd;" horiz-adv-x="450" 
d="M206 702h109l-133 -143h-66zM362 702h108l-133 -143h-65z" />
    <glyph glyph-name="gravecomb" unicode="&#x300;" 
d="M-81 702h101l41 -143h-64z" />
    <glyph glyph-name="acutecomb" unicode="&#x301;" 
d="M-18 702h106l-130 -143h-66z" />
    <glyph glyph-name="uni0302" unicode="&#x302;" 
d="M-79 702h64l76 -143h-62l-59 73l-82 -73h-68z" />
    <glyph glyph-name="tildecomb" unicode="&#x303;" 
d="M-70.5 572.5q-19.5 10.5 -39.5 29.5q-16 15 -25.5 21t-24.5 6q-16 0 -25.5 -10.5t-9.5 -25.5q0 -6 2 -16l-60 -11q-5 10 -5 29q0 40 25.5 66t73.5 26q31 0 50.5 -10.5t39.5 -29.5q15 -14 25.5 -20.5t24.5 -6.5q15 0 24.5 10t9.5 25q0 10 -3 17l60 12q4 -20 4 -34
q0 -41 -25.5 -64.5t-68.5 -23.5q-33 0 -52.5 10.5z" />
    <glyph glyph-name="uni0304" unicode="&#x304;" 
d="M-136 667h217l-13 -64h-217z" />
    <glyph glyph-name="uni0306" unicode="&#x306;" 
d="M-98.5 592.5q-24.5 24.5 -24.5 59.5q0 11 2 19h63q-1 -5 -1 -11q0 -15 8 -24t23 -9q19 0 31.5 11.5t16.5 32.5h62q-8 -53 -37.5 -78t-79.5 -25q-39 0 -63.5 24.5z" />
    <glyph glyph-name="uni0307" unicode="&#x307;" 
d="M-9 678h93l-19 -94h-93z" />
    <glyph glyph-name="uni0308" unicode="&#x308;" 
d="M-163 678h90l-18 -89h-90zM-7 678h91l-18 -89h-90z" />
    <glyph glyph-name="uni030A" unicode="&#x30a;" 
d="M-91 567.5q-28 27.5 -28 67.5t28 67.5t68 27.5t68 -27.5t28 -67.5t-28 -67.5t-68 -27.5t-68 27.5zM10.5 601q13.5 14 13.5 34t-13.5 34t-33.5 14t-33.5 -14t-13.5 -34t13.5 -34t33.5 -14t33.5 14z" />
    <glyph glyph-name="uni030B" unicode="&#x30b;" 
d="M-175 702h108l-133 -143h-66zM-19 702h107l-133 -143h-65z" />
    <glyph glyph-name="uni030C" unicode="&#x30c;" 
d="M-182 702h62l58 -73l83 73h67l-130 -143h-64z" />
    <glyph glyph-name="uni0312" unicode="&#x312;" 
d="M-34 656l117 121l16 -15l-78 -106h37l-18 -93h-92z" />
    <glyph glyph-name="uni0326" unicode="&#x326;" 
d="M-189 -264l53 111h-34l18 93h92l-18 -93l-93 -118z" />
    <glyph glyph-name="uni0327" unicode="&#x327;" 
d="M-254 -143l48 11q5 -28 37 -28q18 0 30 11t12 32q0 16 -9.5 24.5t-25.5 8.5q-13 0 -23.5 -5t-24.5 -15l-25 28l49 92h54l-50 -73q19 13 44 13q29 0 47.5 -18t18.5 -51q0 -42 -27 -66.5t-75 -24.5q-66 0 -80 61z" />
    <glyph glyph-name="uni0328" unicode="&#x328;" 
d="M-193 -177q-25 21 -25 60q0 43 28 75t74 51l61 -9q-34 -14 -62 -38.5t-28 -51.5q0 -20 12 -30.5t31 -10.5q5 0 19 2l-3 -63q-19 -6 -43 -6q-39 0 -64 21z" />
    <glyph glyph-name="uni0335" unicode="&#x335;" 
d="M-276 384h302l-12 -61h-302z" />
    <glyph glyph-name="uni0336" unicode="&#x336;" 
d="M-649 563h710l-12 -64h-710z" />
    <glyph glyph-name="uni0337" unicode="&#x337;" 
d="M-220 243l246 137l-14 -73l-246 -137z" />
    <glyph glyph-name="uni0338" unicode="&#x338;" 
d="M-416 0l414 528l50 -32l-414 -528z" />
    <glyph glyph-name="uni0394" unicode="&#x394;" horiz-adv-x="659" 
d="M375 700h85l142 -700h-642zM508 68l-96 494q-4 16 -8 50q-14 -27 -28 -50l-288 -494h420z" />
    <glyph glyph-name="uni03A9" unicode="&#x3a9;" horiz-adv-x="785" 
d="M43 68h168q-59 48 -97 117t-38 161q0 98 48 182.5t136.5 135t202.5 50.5q92 0 159.5 -34.5t104 -98.5t36.5 -150q0 -115 -68 -207t-184 -156h162l-14 -68h-253l15 79q112 50 187.5 141t75.5 202q0 67 -29 117t-81 77t-120 27q-85 0 -154 -42t-107.5 -109.5t-38.5 -141.5
q0 -100 40 -164.5t104 -106.5l-15 -79h-253z" />
    <glyph glyph-name="uni03BC" unicode="&#x3bc;" horiz-adv-x="571" 
d="M124 496h78l-60 -305q-4 -27 -4 -42q0 -44 28 -69.5t76 -25.5q38 0 73.5 22.5t62.5 64.5t38 98l50 257h79l-96 -496h-79l15 74q-26 -42 -69.5 -65t-98.5 -23q-34 0 -62.5 10t-47.5 29q-1 -5 -4.5 -32.5t-6.5 -39.5l-31 -157h-78z" />
    <glyph glyph-name="pi" unicode="&#x3c0;" horiz-adv-x="649" 
d="M428.5 11.5q-28.5 25.5 -28.5 71.5q0 17 5 39l61 316h-216l-85 -438h-78l85 438h-105l12 58h579l-11 -58h-103l-62 -315q-2 -18 -2 -22q0 -23 13.5 -35.5t38.5 -12.5q14 0 34 5l-4 -63q-27 -9 -62 -9q-43 0 -71.5 25.5z" />
    <glyph glyph-name="Wgrave" unicode="&#x1e80;" horiz-adv-x="898" 
d="M98 700h79l36 -529q0 -6 2 -31.5t2 -41.5q7 18 19 43.5t14 30.5l242 528h91l35 -526l1 -76q10 25 20.5 48t12.5 27l243 527h82l-331 -700h-87l-41 601l-274 -601h-88zM439 906h101l41 -143h-64z" />
    <glyph glyph-name="wgrave" unicode="&#x1e81;" horiz-adv-x="689" 
d="M61 496h76l25 -402l183 402h88l33 -402l179 402h78l-229 -496h-86l-35 407l-185 -407h-85zM296 702h101l41 -143h-64z" />
    <glyph glyph-name="Wacute" unicode="&#x1e82;" horiz-adv-x="898" 
d="M98 700h79l36 -529q0 -6 2 -31.5t2 -41.5q7 18 19 43.5t14 30.5l242 528h91l35 -526l1 -76q10 25 20.5 48t12.5 27l243 527h82l-331 -700h-87l-41 601l-274 -601h-88zM605 906h107l-131 -143h-65z" />
    <glyph glyph-name="wacute" unicode="&#x1e83;" horiz-adv-x="689" 
d="M61 496h76l25 -402l183 402h88l33 -402l179 402h78l-229 -496h-86l-35 407l-185 -407h-85zM458 702h106l-130 -143h-66z" />
    <glyph glyph-name="Wdieresis" unicode="&#x1e84;" horiz-adv-x="898" 
d="M98 700h79l36 -529q0 -6 2 -31.5t2 -41.5q7 18 19 43.5t14 30.5l242 528h91l35 -526l1 -76q10 25 20.5 48t12.5 27l243 527h82l-331 -700h-87l-41 601l-274 -601h-88zM449 882h90l-18 -89h-90zM605 882h90l-17 -89h-91z" />
    <glyph glyph-name="wdieresis" unicode="&#x1e85;" horiz-adv-x="689" 
d="M61 496h76l25 -402l183 402h88l33 -402l179 402h78l-229 -496h-86l-35 407l-185 -407h-85zM303 678h90l-18 -89h-90zM459 678h91l-18 -89h-90z" />
    <glyph glyph-name="uni1E9E" unicode="&#x1e9e;" horiz-adv-x="663" 
d="M243.5 15.5q-43.5 29.5 -58.5 70.5l57 47q19 -38 47.5 -57t74.5 -19q47 0 83.5 23t56 62.5t19.5 88.5q0 143 -193 143l13 64l177 192h-144q-133 0 -160 -140l-96 -490h-79l96 490q20 101 84.5 155.5t168.5 54.5h225l-13 -70l-180 -195q81 -8 131 -58t50 -138
q0 -73 -33 -131t-90 -90t-128 -32q-65 0 -108.5 29.5z" />
    <glyph glyph-name="Ygrave" unicode="&#x1ef2;" horiz-adv-x="551" 
d="M244 287l-150 413h88l98 -296l14 -50q6 11 30 46l219 300h91l-311 -413l-56 -287h-79zM262 906h101l41 -143h-64z" />
    <glyph glyph-name="ygrave" unicode="&#x1ef3;" horiz-adv-x="500" 
d="M-26 -201l25 70q17 -9 39 -9q23 0 38.5 11t31.5 40l55 94l-106 491h80l83 -394l230 394h87l-363 -609q-34 -57 -64.5 -77.5t-81.5 -20.5q-33 0 -54 10zM193 702h101l41 -143h-64z" />
    <glyph glyph-name="endash" unicode="&#x2013;" horiz-adv-x="528" 
d="M67 341h431l-12 -60h-431z" />
    <glyph glyph-name="emdash" unicode="&#x2014;" horiz-adv-x="797" 
d="M67 341h699l-11 -60h-700z" />
    <glyph glyph-name="quoteleft" unicode="&#x2018;" horiz-adv-x="197" 
d="M112 582l121 125l16 -17l-79 -108h37l-19 -96h-95z" />
    <glyph glyph-name="quoteright" unicode="&#x2019;" horiz-adv-x="197" 
d="M81 495l80 109h-37l19 96h94l-18 -96l-122 -125z" />
    <glyph glyph-name="quotesinglbase" unicode="&#x201a;" horiz-adv-x="195" 
d="M-36 -109l80 109h-37l19 96h94l-19 -96l-121 -125z" />
    <glyph glyph-name="quotedblleft" unicode="&#x201c;" horiz-adv-x="330" 
d="M114 582l122 125l16 -17l-80 -108h37l-19 -96h-94zM243 582l121 125l16 -17l-79 -108h36l-19 -96h-94z" />
    <glyph glyph-name="quotedblright" unicode="&#x201d;" horiz-adv-x="329" 
d="M84 495l79 109h-37l19 96h95l-19 -96l-121 -125zM212 495l79 109h-36l19 96h94l-19 -96l-121 -125z" />
    <glyph glyph-name="quotedblbase" unicode="&#x201e;" horiz-adv-x="327" 
d="M-34 -109l79 109h-36l19 96h94l-19 -96l-121 -125zM94 -109l80 109h-37l19 96h94l-18 -96l-122 -125z" />
    <glyph glyph-name="dagger" unicode="&#x2020;" horiz-adv-x="451" 
d="M223 431h-141l13 65h141l47 244h75l-47 -244h141l-13 -65h-141l-105 -541h-75z" />
    <glyph glyph-name="daggerdbl" unicode="&#x2021;" horiz-adv-x="452" 
d="M166 134h-141l12 65h141l46 232h-141l13 65h141l47 244h75l-47 -244h141l-13 -65h-141l-46 -232h142l-13 -65h-141l-47 -244h-75z" />
    <glyph glyph-name="bullet" unicode="&#x2022;" horiz-adv-x="285" 
d="M84.5 211.5q-26.5 26.5 -26.5 63.5t26.5 63.5t63.5 26.5t63.5 -26.5t26.5 -63.5t-26.5 -63.5t-63.5 -26.5t-63.5 26.5z" />
    <glyph glyph-name="ellipsis" unicode="&#x2026;" horiz-adv-x="556" 
d="M19 96h94l-18 -96h-95zM201 96h94l-18 -96h-95zM384 96h94l-18 -96h-95z" />
    <glyph glyph-name="perthousand" unicode="&#x2030;" horiz-adv-x="1160" 
d="M175 384q-35 20 -55 55.5t-20 79.5q0 54 25 98.5t69 70.5t100 26q72 0 112.5 -42t40.5 -111q0 -53 -25 -98t-69.5 -72t-100.5 -27q-42 0 -77 20zM154 40l564 660l44 -39l-565 -660zM347 462q35 38 35 92q0 46 -25 73t-69 27q-52 0 -87.5 -38.5t-35.5 -93.5
q0 -45 26.5 -71.5t69.5 -26.5q51 0 86 38zM544 6q-35 20 -55 55.5t-20 79.5q0 54 25 98.5t69 70.5t99 26q48 0 81.5 -17t50.5 -50q27 32 65 49.5t84 17.5q72 0 112.5 -42t40.5 -111q0 -53 -25 -98t-69.5 -72t-100.5 -27q-41 0 -75 19t-53 51q-24 -32 -63.5 -51t-88.5 -19
q-42 0 -77 20zM715.5 84q35.5 38 35.5 92q0 46 -25 73t-69 27q-52 0 -88 -38.5t-36 -93.5q0 -45 27 -71.5t69 -26.5q51 0 86.5 38zM996 84q35 38 35 92q0 46 -25 73t-69 27q-52 0 -87.5 -38.5t-35.5 -93.5q0 -45 26.5 -71.5t68.5 -26.5q52 0 87 38z" />
    <glyph glyph-name="guilsinglleft" unicode="&#x2039;" horiz-adv-x="332" 
d="M54 275l193 199h95l-200 -204l113 -194h-84z" />
    <glyph glyph-name="guilsinglright" unicode="&#x203a;" horiz-adv-x="332" 
d="M201 280l-113 194h84l117 -198l-193 -200h-95z" />
    <glyph glyph-name="fraction" unicode="&#x2044;" horiz-adv-x="188" 
d="M-190 40l565 660l43 -39l-565 -660z" />
    <glyph glyph-name="uni2070" unicode="&#x2070;" horiz-adv-x="385" 
d="M144.5 464.5q-38.5 41.5 -38.5 115.5q0 51 21 98.5t61.5 78t96.5 30.5q60 0 97 -39.5t37 -114.5q0 -57 -22 -105t-63 -76.5t-94 -28.5q-57 0 -95.5 41.5zM327 520.5q31 43.5 31 104.5q0 52 -20.5 80t-57.5 28q-35 0 -61 -22t-39.5 -57t-13.5 -72q0 -51 21.5 -78t58.5 -27
q50 0 81 43.5z" />
    <glyph glyph-name="uni2074" unicode="&#x2074;" horiz-adv-x="373" 
d="M270 497h-168l10 50l212 233h61l-46 -233h39l-10 -50h-39l-13 -67h-59zM280 547l28 143l-131 -143h103z" />
    <glyph glyph-name="uni2075" unicode="&#x2075;" horiz-adv-x="350" 
d="M141 449.5q-31 26.5 -31 68.5q0 17 7 30l54 -10q-3 -7 -3 -18q0 -22 15.5 -35t43.5 -13q36 0 59.5 23.5t23.5 59.5q0 31 -17 49t-43 18q-27 0 -49 -14t-33 -32l-47 15l50 189h221l-9 -48h-172l-29 -99q14 16 37.5 26t47.5 10q47 0 73.5 -28t26.5 -79q0 -61 -40 -100
t-105 -39q-50 0 -81 26.5z" />
    <glyph glyph-name="uni2076" unicode="&#x2076;" horiz-adv-x="354" 
d="M150 460.5q-33 37.5 -33 104.5q0 54 19 105t57 84t93 33q46 0 71 -22t25 -56q0 -12 -7 -33l-50 10q5 10 5 19q0 16 -13.5 25.5t-36.5 9.5q-40 0 -66.5 -36t-35.5 -89q15 19 39.5 31t53.5 12q48 0 76 -27t28 -73q0 -58 -38 -96.5t-99 -38.5q-55 0 -88 37.5zM297 493
q22 22 22 58q0 28 -18.5 44t-47.5 16q-32 0 -55.5 -22t-23.5 -56q0 -29 19.5 -45.5t47.5 -16.5q34 0 56 22z" />
    <glyph glyph-name="uni2077" unicode="&#x2077;" horiz-adv-x="308" 
d="M306 731h-164l10 49h226l-9 -47l-200 -303h-63z" />
    <glyph glyph-name="uni2078" unicode="&#x2078;" horiz-adv-x="335" 
d="M132.5 451q-33.5 28 -33.5 71q0 33 17.5 58.5t53.5 40.5q-14 9 -23.5 26.5t-9.5 36.5q0 44 32 73.5t90 29.5q48 0 76 -25t28 -60q0 -29 -17.5 -53t-44.5 -35q18 -11 31 -29.5t13 -43.5q0 -55 -37 -86.5t-92 -31.5q-50 0 -83.5 28zM286 653.5q18 15.5 18 42.5
q0 21 -14.5 33.5t-34.5 12.5q-26 0 -44.5 -16t-18.5 -42q0 -21 15 -33.5t36 -12.5q25 0 43 15.5zM265 489q19 19 19 50q0 24 -16.5 39.5t-41.5 15.5q-30 0 -47.5 -19.5t-17.5 -46.5t16.5 -42.5t40.5 -15.5q28 0 47 19z" />
    <glyph glyph-name="uni2079" unicode="&#x2079;" horiz-adv-x="342" 
d="M146.5 445.5q-28.5 22.5 -28.5 55.5q0 19 7 32l49 -9q-4 -8 -4 -19q0 -16 13.5 -25.5t37.5 -9.5q42 0 68 35t34 92q-32 -45 -88 -45q-46 0 -79 29t-33 78q0 55 37.5 91.5t100.5 36.5q56 0 87.5 -37t31.5 -102q0 -60 -18 -111t-54.5 -82.5t-89.5 -31.5q-43 0 -71.5 22.5z
M300 621q23 23 23 57q0 28 -19.5 44.5t-46.5 16.5q-34 0 -56 -22.5t-22 -55.5q0 -31 17.5 -47t46.5 -16q34 0 57 23z" />
    <glyph glyph-name="uni2080" unicode="&#x2080;" horiz-adv-x="385" 
d="M21.5 -169.5q-38.5 41.5 -38.5 115.5q0 51 21 98.5t61.5 78t96.5 30.5q60 0 97 -39.5t37 -114.5q0 -57 -22 -105t-63 -76.5t-94 -28.5q-57 0 -95.5 41.5zM204 -113.5q31 43.5 31 104.5q0 52 -20.5 80t-57.5 28q-35 0 -61 -22t-39.5 -57t-13.5 -72q0 -51 21.5 -78
t58.5 -27q50 0 81 43.5z" />
    <glyph glyph-name="uni2081" unicode="&#x2081;" horiz-adv-x="245" 
d="M85 70q-15 -13 -33.5 -18t-45.5 -5l11 56q32 0 52 10t35 33h54l-69 -350h-58z" />
    <glyph glyph-name="uni2082" unicode="&#x2082;" horiz-adv-x="339" 
d="M-25 -163l164 133q25 20 36.5 40t11.5 43t-15.5 36.5t-42.5 13.5q-31 0 -49 -18t-18 -46q0 -5 2 -15l-54 -8q-3 11 -3 24q0 48 35 80.5t93 32.5q49 0 80 -26t31 -69q0 -36 -18 -65t-55 -59l-105 -86h146l-10 -52h-236z" />
    <glyph glyph-name="uni2083" unicode="&#x2083;" horiz-adv-x="340" 
d="M14.5 -184q-32.5 27 -32.5 65q0 26 9 41l50 -12q-4 -9 -4 -23q0 -21 17.5 -34t43.5 -13q31 0 50.5 17t19.5 47q0 57 -82 57l8 45q37 0 60.5 14t23.5 42q0 21 -14 32t-38 11t-41 -13t-17 -33q0 -8 1 -15l-51 -5q-2 10 -2 18q0 40 32 68t82 28q48 0 76 -22.5t28 -55.5
q0 -30 -16.5 -53t-46.5 -34q24 -8 39.5 -27.5t15.5 -47.5q0 -54 -36 -89t-95 -35q-48 0 -80.5 27z" />
    <glyph glyph-name="uni2084" unicode="&#x2084;" horiz-adv-x="373" 
d="M147 -137h-168l10 50l212 233h61l-46 -233h39l-10 -50h-39l-13 -67h-59zM157 -87l28 143l-131 -143h103z" />
    <glyph glyph-name="uni2085" unicode="&#x2085;" horiz-adv-x="350" 
d="M18 -184.5q-31 26.5 -31 68.5q0 17 7 30l54 -10q-3 -7 -3 -18q0 -22 15.5 -35t43.5 -13q36 0 59.5 23.5t23.5 59.5q0 31 -17 49t-43 18q-27 0 -49 -14t-33 -32l-47 15l50 189h221l-9 -48h-172l-29 -99q14 16 37.5 26t47.5 10q47 0 73.5 -28t26.5 -79q0 -61 -40 -100
t-105 -39q-50 0 -81 26.5z" />
    <glyph glyph-name="uni2086" unicode="&#x2086;" horiz-adv-x="354" 
d="M27 -173.5q-33 37.5 -33 104.5q0 54 19 105t57 84t93 33q46 0 71 -22t25 -56q0 -12 -7 -33l-50 10q5 10 5 19q0 16 -13.5 25.5t-36.5 9.5q-40 0 -66.5 -36t-35.5 -89q15 19 39.5 31t53.5 12q48 0 76 -27t28 -73q0 -58 -38 -96.5t-99 -38.5q-55 0 -88 37.5zM174 -141
q22 22 22 58q0 28 -18.5 44t-47.5 16q-32 0 -55.5 -22t-23.5 -56q0 -29 19.5 -45.5t47.5 -16.5q34 0 56 22z" />
    <glyph glyph-name="uni2087" unicode="&#x2087;" horiz-adv-x="308" 
d="M183 97h-164l10 49h226l-9 -47l-200 -303h-63z" />
    <glyph glyph-name="uni2088" unicode="&#x2088;" horiz-adv-x="335" 
d="M9.5 -183q-33.5 28 -33.5 71q0 33 17.5 58.5t53.5 40.5q-14 9 -23.5 26.5t-9.5 36.5q0 44 32 73.5t90 29.5q48 0 76 -25t28 -60q0 -29 -17.5 -53t-44.5 -35q18 -11 31 -29.5t13 -43.5q0 -55 -37 -86.5t-92 -31.5q-50 0 -83.5 28zM163 19.5q18 15.5 18 42.5
q0 21 -14.5 33.5t-34.5 12.5q-26 0 -44.5 -16t-18.5 -42q0 -21 15 -33.5t36 -12.5q25 0 43 15.5zM142 -145q19 19 19 50q0 24 -16.5 39.5t-41.5 15.5q-30 0 -47.5 -19.5t-17.5 -46.5t16.5 -42.5t40.5 -15.5q28 0 47 19z" />
    <glyph glyph-name="uni2089" unicode="&#x2089;" horiz-adv-x="342" 
d="M23.5 -188.5q-28.5 22.5 -28.5 55.5q0 19 7 32l49 -9q-4 -8 -4 -19q0 -16 13.5 -25.5t37.5 -9.5q42 0 68 35t34 92q-32 -45 -88 -45q-46 0 -79 29t-33 78q0 55 37.5 91.5t100.5 36.5q56 0 87.5 -37t31.5 -102q0 -60 -18 -111t-54.5 -82.5t-89.5 -31.5q-43 0 -71.5 22.5z
M177 -13q23 23 23 57q0 28 -19.5 44.5t-46.5 16.5q-34 0 -56 -22.5t-22 -55.5q0 -31 17.5 -47t46.5 -16q34 0 57 23z" />
    <glyph glyph-name="Euro" unicode="&#x20ac;" horiz-adv-x="751" 
d="M205 54.5q-69 68.5 -80 190.5h-85l39 60h44q2 45 12 90h-66l39 60h44q43 114 133.5 186.5t219.5 72.5q98 0 160 -48.5t83 -140.5l-71 -29q-17 77 -63 112t-124 35q-88 0 -153.5 -51t-104.5 -137h298l-39 -60h-278q-10 -42 -12 -90h300l-39 -60h-257q11 -87 58.5 -137.5
t128.5 -50.5t133.5 40t94.5 124l63 -24q-47 -106 -120.5 -158.5t-175.5 -52.5q-113 0 -182 68.5z" />
    <glyph glyph-name="uni20BA" unicode="&#x20ba;" horiz-adv-x="530" 
d="M491 291l-4 -19q-27 -127 -119 -199.5t-237 -72.5h-79l43 223l-84 -37l15 75l84 36l18 94l-84 -37l14 75l85 37l45 234h79l-38 -196l137 60l-15 -75l-137 -60l-18 -94l138 60l-15 -74l-137 -60l-37 -190q108 0 178.5 55.5t88.5 145.5l4 19h75z" />
    <glyph glyph-name="uni2113" unicode="&#x2113;" horiz-adv-x="489" 
d="M309 84q34 32 70 100l53 -34q-41 -81 -91 -122.5t-117 -41.5q-60 0 -96 43.5t-40 130.5q-26 -7 -67 -16v73q28 5 47 10l20 5q6 150 49.5 259.5t109 166t136.5 56.5q66 0 98 -40t32 -111q0 -124 -93.5 -223t-261.5 -158q4 -130 78 -130q39 0 73 32zM278.5 596.5
q-46.5 -52.5 -79 -143.5t-39.5 -199q135 48 207.5 126.5t72.5 176.5q0 92 -68 92q-47 0 -93.5 -52.5z" />
    <glyph glyph-name="uni2117" unicode="&#x2117;" horiz-adv-x="855" 
d="M265.5 35q-83.5 49 -132.5 132.5t-49 182.5t49 182.5t132.5 132.5t182.5 49t182.5 -49t132.5 -132.5t49 -182.5t-49 -182.5t-132.5 -132.5t-182.5 -49t-182.5 49zM602 84q70 41 110.5 111.5t40.5 154.5t-40.5 154.5t-110.5 111.5t-154 41t-154 -41t-111 -111.5
t-41 -154.5t41 -154.5t111 -111.5t154 -41t154 41zM309 549h176q61 0 95 -32.5t34 -84.5t-34 -84t-95 -32h-118v-165h-58v398zM482 364q37 0 56.5 18.5t19.5 49.5t-19.5 49t-56.5 18h-115v-135h115z" />
    <glyph glyph-name="uni2120" unicode="&#x2120;" horiz-adv-x="871" 
d="M120.5 328.5q-41.5 35.5 -44.5 87.5l49 22q9 -44 34.5 -70t66.5 -26q47 0 75 19.5t28 52.5q0 28 -21.5 44.5t-68.5 27.5q-52 12 -81.5 39t-29.5 68q0 53 40.5 84t108.5 31q55 0 90 -26t46 -73l-48 -25q-18 77 -93 77q-41 0 -67 -16.5t-26 -42.5q0 -29 24 -45.5t74 -28.5
q56 -13 81.5 -39t25.5 -66q0 -60 -44 -95t-120 -35q-58 0 -99.5 35.5zM504 700h58l76 -341l207 341h61l-77 -400h-53l55 284l-173 -284h-57l-66 290l-56 -290h-52z" />
    <glyph glyph-name="trademark" unicode="&#x2122;" horiz-adv-x="846" 
d="M238 651h-122l9 49h301l-9 -49h-122l-68 -351h-57zM479 700h59l76 -341l207 341h60l-77 -400h-52l55 284l-174 -284h-57l-65 290l-56 -290h-53z" />
    <glyph glyph-name="uni2126" unicode="&#x2126;" horiz-adv-x="785" 
d="M43 68h168q-59 48 -97 117t-38 161q0 98 48 182.5t136.5 135t202.5 50.5q92 0 159.5 -34.5t104 -98.5t36.5 -150q0 -115 -68 -207t-184 -156h162l-14 -68h-253l15 79q112 50 187.5 141t75.5 202q0 67 -29 117t-81 77t-120 27q-85 0 -154 -42t-107.5 -109.5t-38.5 -141.5
q0 -100 40 -164.5t104 -106.5l-15 -79h-253z" />
    <glyph glyph-name="estimated" unicode="&#x212e;" horiz-adv-x="856" 
d="M623.5 83q77.5 51 115.5 135h51q-26 -68 -77 -120.5t-118.5 -82t-143.5 -29.5q-99 0 -182.5 49t-132.5 132.5t-49 182.5t49 182.5t132.5 132.5t182.5 49t182.5 -49t132.5 -132.5t49 -182.5h-596v-217q44 -47 104 -74t128 -27q95 0 172.5 51zM323 641q-60 -27 -104 -74
v-171h464v171q-44 47 -104 74t-128 27t-128 -27z" />
    <glyph glyph-name="uni2153" unicode="&#x2153;" horiz-adv-x="772" 
d="M192 624q-15 -13 -33.5 -18t-45.5 -5l11 56q32 0 52 10t35 33h54l-69 -350h-58zM54 40l565 660l43 -39l-565 -660zM486.5 20q-32.5 27 -32.5 65q0 26 9 41l50 -12q-4 -9 -4 -23q0 -21 17.5 -34t43.5 -13q31 0 50.5 17t19.5 47q0 57 -82 57l8 45q37 0 60.5 14t23.5 42
q0 21 -14 32t-38 11t-41 -13t-17 -33q0 -8 1 -15l-51 -5q-2 10 -2 18q0 40 32 68t82 28q48 0 76 -22.5t28 -55.5q0 -30 -16.5 -53t-46.5 -34q24 -8 39.5 -27.5t15.5 -47.5q0 -54 -36 -89t-95 -35q-48 0 -80.5 27z" />
    <glyph glyph-name="uni2154" unicode="&#x2154;" horiz-adv-x="866" 
d="M82 391l164 133q25 20 36.5 40t11.5 43t-15.5 36.5t-42.5 13.5q-31 0 -49 -18t-18 -46q0 -5 2 -15l-54 -8q-3 11 -3 24q0 48 35 80.5t93 32.5q49 0 80 -26t31 -69q0 -36 -18 -65t-55 -59l-105 -86h146l-10 -52h-236zM148 40l565 660l43 -39l-565 -660zM580.5 20
q-32.5 27 -32.5 65q0 26 9 41l50 -12q-4 -9 -4 -23q0 -21 17.5 -34t43.5 -13q31 0 50.5 17t19.5 47q0 57 -82 57l8 45q37 0 60.5 14t23.5 42q0 21 -14 32t-38 11t-41 -13t-17 -33q0 -8 1 -15l-51 -5q-2 10 -2 18q0 40 32 68t82 28q48 0 76 -22.5t28 -55.5q0 -30 -16.5 -53
t-46.5 -34q24 -8 39.5 -27.5t15.5 -47.5q0 -54 -36 -89t-95 -35q-48 0 -80.5 27z" />
    <glyph glyph-name="oneeighth" unicode="&#x215b;" horiz-adv-x="767" 
d="M192 624q-15 -13 -33.5 -18t-45.5 -5l11 56q32 0 52 10t35 33h54l-69 -350h-58zM54 40l565 660l43 -39l-565 -660zM481.5 21q-33.5 28 -33.5 71q0 33 17.5 58.5t53.5 40.5q-14 9 -23.5 26.5t-9.5 36.5q0 44 32 73.5t90 29.5q48 0 76 -25t28 -60q0 -29 -17.5 -53
t-44.5 -35q18 -11 31 -29.5t13 -43.5q0 -55 -37 -86.5t-92 -31.5q-50 0 -83.5 28zM635 223.5q18 15.5 18 42.5q0 21 -14.5 33.5t-34.5 12.5q-26 0 -44.5 -16t-18.5 -42q0 -21 15 -33.5t36 -12.5q25 0 43 15.5zM614 59q19 19 19 50q0 24 -16.5 39.5t-41.5 15.5
q-30 0 -47.5 -19.5t-17.5 -46.5t16.5 -42.5t40.5 -15.5q28 0 47 19z" />
    <glyph glyph-name="threeeighths" unicode="&#x215c;" horiz-adv-x="863" 
d="M122.5 370q-32.5 27 -32.5 65q0 26 9 41l50 -12q-4 -9 -4 -23q0 -21 17.5 -34t43.5 -13q31 0 50.5 17t19.5 47q0 57 -82 57l8 45q37 0 60.5 14t23.5 42q0 21 -14 32t-38 11t-41 -13t-17 -33q0 -8 1 -15l-51 -5q-2 10 -2 18q0 40 32 68t82 28q48 0 76 -22.5t28 -55.5
q0 -30 -16.5 -53t-46.5 -34q24 -8 39.5 -27.5t15.5 -47.5q0 -54 -36 -89t-95 -35q-48 0 -80.5 27zM150 40l565 660l43 -39l-565 -660zM577.5 21q-33.5 28 -33.5 71q0 33 17.5 58.5t53.5 40.5q-14 9 -23.5 26.5t-9.5 36.5q0 44 32 73.5t90 29.5q48 0 76 -25t28 -60
q0 -29 -17.5 -53t-44.5 -35q18 -11 31 -29.5t13 -43.5q0 -55 -37 -86.5t-92 -31.5q-50 0 -83.5 28zM731 223.5q18 15.5 18 42.5q0 21 -14.5 33.5t-34.5 12.5q-26 0 -44.5 -16t-18.5 -42q0 -21 15 -33.5t36 -12.5q25 0 43 15.5zM710 59q19 19 19 50q0 24 -16.5 39.5
t-41.5 15.5q-30 0 -47.5 -19.5t-17.5 -46.5t16.5 -42.5t40.5 -15.5q28 0 47 19z" />
    <glyph glyph-name="fiveeighths" unicode="&#x215d;" horiz-adv-x="873" 
d="M125 369.5q-31 26.5 -31 68.5q0 17 7 30l54 -10q-3 -7 -3 -18q0 -22 15.5 -35t43.5 -13q36 0 59.5 23.5t23.5 59.5q0 31 -17 49t-43 18q-27 0 -49 -14t-33 -32l-47 15l50 189h221l-9 -48h-172l-29 -99q14 16 37.5 26t47.5 10q47 0 73.5 -28t26.5 -79q0 -61 -40 -100
t-105 -39q-50 0 -81 26.5zM160 40l565 660l43 -39l-565 -660zM587.5 21q-33.5 28 -33.5 71q0 33 17.5 58.5t53.5 40.5q-14 9 -23.5 26.5t-9.5 36.5q0 44 32 73.5t90 29.5q48 0 76 -25t28 -60q0 -29 -17.5 -53t-44.5 -35q18 -11 31 -29.5t13 -43.5q0 -55 -37 -86.5t-92 -31.5
q-50 0 -83.5 28zM741 223.5q18 15.5 18 42.5q0 21 -14.5 33.5t-34.5 12.5q-26 0 -44.5 -16t-18.5 -42q0 -21 15 -33.5t36 -12.5q25 0 43 15.5zM720 59q19 19 19 50q0 24 -16.5 39.5t-41.5 15.5q-30 0 -47.5 -19.5t-17.5 -46.5t16.5 -42.5t40.5 -15.5q28 0 47 19z" />
    <glyph glyph-name="seveneighths" unicode="&#x215e;" horiz-adv-x="831" 
d="M290 651h-164l10 49h226l-9 -47l-200 -303h-63zM118 40l565 660l43 -39l-565 -660zM545.5 21q-33.5 28 -33.5 71q0 33 17.5 58.5t53.5 40.5q-14 9 -23.5 26.5t-9.5 36.5q0 44 32 73.5t90 29.5q48 0 76 -25t28 -60q0 -29 -17.5 -53t-44.5 -35q18 -11 31 -29.5t13 -43.5
q0 -55 -37 -86.5t-92 -31.5q-50 0 -83.5 28zM699 223.5q18 15.5 18 42.5q0 21 -14.5 33.5t-34.5 12.5q-26 0 -44.5 -16t-18.5 -42q0 -21 15 -33.5t36 -12.5q25 0 43 15.5zM678 59q19 19 19 50q0 24 -16.5 39.5t-41.5 15.5q-30 0 -47.5 -19.5t-17.5 -46.5t16.5 -42.5
t40.5 -15.5q28 0 47 19z" />
    <glyph glyph-name="arrowleft" unicode="&#x2190;" horiz-adv-x="559" 
d="M67 311l241 202l39 -47l-149 -125h330l-12 -60h-339l104 -129l-51 -43z" />
    <glyph glyph-name="arrowup" unicode="&#x2191;" horiz-adv-x="495" 
d="M263 476l-149 -125l-37 46l236 198l162 -202l-52 -42l-98 127l-64 -333h-63z" />
    <glyph glyph-name="arrowright" unicode="&#x2192;" horiz-adv-x="560" 
d="M237 156l149 125h-330l12 60h339l-103 129l50 43l163 -202l-241 -202z" />
    <glyph glyph-name="arrowdown" unicode="&#x2193;" horiz-adv-x="495" 
d="M67 347l52 42l97 -127l65 333h62l-65 -331l150 125l37 -46l-237 -198z" />
    <glyph glyph-name="arrowboth" unicode="&#x2194;" horiz-adv-x="763" 
d="M67 311l241 202l39 -47l-149 -125h412l-104 129l51 43l163 -202l-241 -202l-39 47l149 125h-412l104 -129l-51 -43z" />
    <glyph glyph-name="arrowupdn" unicode="&#x2195;" horiz-adv-x="500" 
d="M48 225l52 42l97 -127l82 418l-149 -125l-37 46l236 199l161 -203l-51 -42l-98 127l-82 -418l150 125l37 -46l-237 -199z" />
    <glyph glyph-name="uni2196" unicode="&#x2196;" horiz-adv-x="510" 
d="M177 365l-35 -180h-64l56 286h285l-12 -63h-180l189 -237l-49 -42z" />
    <glyph glyph-name="uni2197" unicode="&#x2197;" horiz-adv-x="513" 
d="M65 172l280 236h-176l12 63h286l-56 -286h-65l34 175l-278 -235z" />
    <glyph glyph-name="uni2198" unicode="&#x2198;" horiz-adv-x="510" 
d="M124 196h180l-189 237l50 42l190 -237l35 180h64l-56 -286h-286z" />
    <glyph glyph-name="uni2199" unicode="&#x2199;" horiz-adv-x="512" 
d="M123 418h65l-34 -175l278 235l37 -46l-280 -236h176l-12 -64h-286z" />
    <glyph glyph-name="partialdiff" unicode="&#x2202;" horiz-adv-x="580" 
d="M152 11q-50 25 -80 72.5t-30 112.5q0 72 34.5 133t96.5 97t141 36q55 0 100.5 -24t68.5 -65q2 36 2 51q0 103 -37.5 163.5t-117.5 60.5q-45 0 -80 -21.5t-35 -57.5q0 -11 3 -20l-71 -28q-7 18 -7 41q0 44 26 78.5t71.5 54t101.5 19.5q115 0 168 -77.5t53 -227.5
q0 -113 -31 -209t-98.5 -155t-169.5 -59q-59 0 -109 25zM362.5 79.5q43.5 27.5 68.5 73.5t25 98q0 69 -41 107t-104 38q-54 0 -98 -26.5t-68.5 -71.5t-24.5 -97q0 -46 20.5 -80t54 -51.5t70.5 -17.5q54 0 97.5 27.5z" />
    <glyph glyph-name="uni2206" unicode="&#x2206;" horiz-adv-x="659" 
d="M375 700h85l142 -700h-642zM508 68l-96 494q-4 16 -8 50q-14 -27 -28 -50l-288 -494h420z" />
    <glyph glyph-name="product" unicode="&#x220f;" horiz-adv-x="673" 
d="M176 700h496l-175 -904h-79l162 833h-338l-162 -833h-79z" />
    <glyph glyph-name="summation" unicode="&#x2211;" horiz-adv-x="568" 
d="M-22 -44l288 334l-150 336l14 74h472l-14 -74h-383l151 -346l-285 -329h396l-14 -71h-489z" />
    <glyph glyph-name="minus" unicode="&#x2212;" horiz-adv-x="514" 
d="M77 395h417l-12 -60h-416z" />
    <glyph glyph-name="uni2215" unicode="&#x2215;" horiz-adv-x="496" 
d="M499 730h83l-545 -760h-83z" />
    <glyph glyph-name="uni2219" unicode="&#x2219;" horiz-adv-x="285" 
d="M84.5 211.5q-26.5 26.5 -26.5 63.5t26.5 63.5t63.5 26.5t63.5 -26.5t26.5 -63.5t-26.5 -63.5t-63.5 -26.5t-63.5 26.5z" />
    <glyph glyph-name="radical" unicode="&#x221a;" horiz-adv-x="595" 
d="M143 291h-102l12 65h159l35 -244l333 588h78l-395 -700h-73z" />
    <glyph glyph-name="infinity" unicode="&#x221e;" horiz-adv-x="774" 
d="M102 183.5q-37 37.5 -37 96.5q0 46 21.5 86t62 64t95.5 24t92 -27.5t69 -75.5q44 49 86.5 76t97.5 27q68 0 105 -37.5t37 -94.5q0 -52 -23.5 -92t-64.5 -62t-91 -22q-55 0 -90.5 26.5t-65.5 73.5q-40 -46 -85 -73t-103 -27q-69 0 -106 37.5zM290 229.5q35 25.5 73 72.5
q-28 46 -56 70t-70 24q-44 0 -75 -32.5t-31 -78.5q0 -37 22 -59t62 -22t75 25.5zM608.5 217.5q24.5 13.5 40 40t15.5 62.5q0 34 -21 55t-60 21q-41 0 -72.5 -25t-73.5 -75q29 -45 56 -68.5t66 -23.5q25 0 49.5 13.5z" />
    <glyph glyph-name="integral" unicode="&#x222b;" horiz-adv-x="317" 
d="M-91 -211l22 68q14 -7 33 -7q29 0 48.5 20t26.5 56l131 672q14 73 57.5 112.5t117.5 39.5q22 0 45 -7l-16 -68q-15 7 -39 7q-32 0 -56 -22t-32 -66l-131 -673q-14 -71 -52 -105t-106 -34q-26 0 -49 7z" />
    <glyph glyph-name="approxequal" unicode="&#x2248;" horiz-adv-x="446" 
d="M47 236q0 41 27 69t78 28q32 0 53 -10t45 -29q18 -14 29 -20t26 -6q16 0 25 10t9 28q0 6 -2 14l64 12q5 -8 5 -32q0 -45 -27.5 -70t-76.5 -25q-33 0 -55 11t-44 30q-18 14 -27.5 19.5t-21.5 5.5q-18 0 -28.5 -11.5t-10.5 -30.5q0 -6 2 -14l-65 -11q-5 12 -5 32zM78 396
q0 41 27 69t78 28q32 0 53 -10t45 -29q18 -14 29 -20t26 -6q16 0 25 10t9 28q0 6 -2 14l64 12q5 -8 5 -32q0 -45 -27.5 -70t-76.5 -25q-33 0 -55 11t-44 30q-18 14 -27.5 19.5t-21.5 5.5q-18 0 -28.5 -11.5t-10.5 -30.5q0 -6 2 -14l-65 -11q-5 12 -5 32z" />
    <glyph glyph-name="notequal" unicode="&#x2260;" horiz-adv-x="514" 
d="M54 122l79 100h-88l11 61h125l104 132h-204l12 60h240l109 138l49 -39l-78 -99h96l-12 -60h-132l-105 -132h212l-12 -61h-248l-110 -139z" />
    <glyph glyph-name="lessequal" unicode="&#x2264;" horiz-adv-x="517" 
d="M77 358l15 74l441 200l-14 -81l-359 -160l296 -158l-15 -75zM14 60h417l-12 -60h-416z" />
    <glyph glyph-name="greaterequal" unicode="&#x2265;" horiz-adv-x="517" 
d="M60 240l359 159l-296 159l15 74l364 -199l-14 -75l-442 -200zM15 60h417l-12 -60h-416z" />
    <glyph glyph-name="lozenge" unicode="&#x25ca;" horiz-adv-x="576" 
d="M49 350l285 350h84l150 -350l-287 -350h-84zM485 358l-117 276l-236 -290l116 -278z" />
    <glyph glyph-name="uniF8FF" unicode="&#xf8ff;" horiz-adv-x="780" 
d="M108.5 6.5q-6.5 6.5 -6.5 15.5v595q0 7 4.5 13.5t11.5 8.5l270 78l10 2l10 -2l270 -78q7 -2 11.5 -8.5t4.5 -13.5v-595q0 -9 -6.5 -15.5t-15.5 -6.5l-7 1l-267 77l-267 -77l-7 -1q-9 0 -15.5 6.5zM376 669l-230 -67q4 -62 35 -114t82.5 -84.5t112.5 -37.5v303z
M532.5 403.5q51.5 32.5 82.5 84.5t35 114l-230 67v-303q61 5 112.5 37.5zM376 118v204q-73 6 -134 43.5t-97 97.5v-412zM651 463q-37 -60 -97.5 -97.5t-133.5 -43.5v-204l231 -67v412z" />
    <glyph glyph-name="fi" unicode="&#xfb01;" horiz-adv-x="526" 
d="M138 437h-76l11 59h77l20 104q14 72 57 111t117 39q25 0 46 -7l-14 -67q-20 7 -39 7q-33 0 -57 -22t-33 -66l-19 -99h270l-97 -496h-78l85 437h-192l-84 -437h-78zM448 678h93l-19 -94h-93z" />
    <glyph glyph-name="fl" unicode="&#xfb02;" horiz-adv-x="525" 
d="M136 437h-76l12 59h76l21 104q14 72 57 111t117 39q26 0 45 -7l-13 -67q-17 6 -40 6q-33 0 -57 -21.5t-32 -65.5l-20 -99h115l-12 -59h-115l-84 -437h-78zM461 700h78l-137 -700h-78z" />
    <glyph glyph-name="i.loclTRK" horiz-adv-x="225" 
d="M121 496h79l-97 -496h-78zM150 678h93l-19 -94h-93z" />
    <glyph glyph-name="uni030C.alt" 
d="M-27 525l52 91h-37l17 84h83l-17 -85l-82 -100z" />
    <glyph glyph-name="uni0308.cap" 
d="M-123 882h90l-18 -89h-90zM33 882h90l-17 -89h-91z" />
    <glyph glyph-name="uni0307.cap" 
d="M31 882h93l-19 -94h-93z" />
    <glyph glyph-name="gravecomb.cap" 
d="M-41 906h101l41 -143h-64z" />
    <glyph glyph-name="acutecomb.cap" 
d="M21 906h107l-131 -143h-65z" />
    <glyph glyph-name="uni030B.cap" 
d="M-135 906h108l-133 -143h-66zM20 906h108l-133 -143h-65z" />
    <glyph glyph-name="uni0302.cap" 
d="M-39 906h64l75 -143h-61l-59 73l-82 -73h-68z" />
    <glyph glyph-name="uni030C.cap" 
d="M-142 906h62l58 -73l83 73h67l-130 -143h-64z" />
    <glyph glyph-name="uni0306.cap" 
d="M-59.5 796.5q-24.5 24.5 -24.5 59.5q0 11 2 19h63q-1 -5 -1 -11q0 -15 8 -24t23 -9q19 0 31.5 11.5t16.5 32.5h62q-8 -53 -37.5 -78t-79.5 -25q-39 0 -63.5 24.5z" />
    <glyph glyph-name="uni030A.cap" 
d="M-51 771.5q-28 27.5 -28 67.5t28 67.5t68 27.5t68 -27.5t28 -67.5t-28 -67.5t-68 -27.5t-68 27.5zM50.5 805q13.5 14 13.5 34t-13.5 34t-33.5 14t-33.5 -14t-13.5 -34t13.5 -34t33.5 -14t33.5 14z" />
    <glyph glyph-name="tildecomb.cap" 
d="M-30.5 776.5q-19.5 10.5 -39.5 29.5q-16 15 -25.5 21t-24.5 6q-16 0 -25.5 -10.5t-9.5 -25.5q0 -6 2 -16l-60 -11q-5 10 -5 29q0 40 25.5 66t73.5 26q31 0 50.5 -10.5t39.5 -29.5q15 -14 25.5 -20.5t24.5 -6.5q15 0 24.5 10t9.5 25q0 10 -3 17l60 12q4 -20 4 -34
q0 -41 -25.5 -64.5t-68.5 -23.5q-33 0 -52.5 10.5z" />
    <glyph glyph-name="uni0304.cap" 
d="M-96 871h217l-13 -64h-217z" />
    <glyph glyph-name="uni0328.cap" 
d="M-193 -177q-25 21 -25 60q0 43 28 75t74 51l61 -9q-34 -14 -62 -38.5t-28 -51.5q0 -20 12 -30.5t31 -10.5q5 0 19 2l-3 -63q-19 -6 -43 -6q-39 0 -64 21z" />
    <glyph glyph-name="uni0337.cap" 
d="M-324 242l363 206l-15 -79l-363 -207z" />
    <glyph glyph-name="uni0338.cap" 
d="M-495 0l528 734l55 -34l-529 -734z" />
    </font>
</defs>
</svg>
