<?xml version="1.0" standalone="no"?>
<!DOCTYPE svg PUBLIC "-//W3C//DTD SVG 1.1//EN" "http://www.w3.org/Graphics/SVG/1.1/DTD/svg11.dtd" >
<svg xmlns="http://www.w3.org/2000/svg" xmlns:xlink="http://www.w3.org/1999/xlink" version="1.1">
<metadata>
Created by FontForge 20170731 at Thu Mar  5 18:53:55 2020
 By Aleksey,,,
Copyright (c) 2015 by Colophon Foundry. All rights reserved.
</metadata>
<defs>
<font id="BasisGrotesque-LightItalic" horiz-adv-x="0" >
  <font-face 
    font-family="Basis Grotesque Light"
    font-weight="300"
    font-style="italic"
    font-stretch="normal"
    units-per-em="1000"
    panose-1="2 11 3 3 3 6 4 4 1 3"
    ascent="800"
    descent="-200"
    x-height="496"
    cap-height="700"
    bbox="-648 -256 1155 934"
    underline-thickness="50"
    underline-position="-150"
    slope="-11"
    unicode-range="U+000D-FB02"
  />
<missing-glyph horiz-adv-x="586" 
d="M60 700h466v-700h-466v700zM464 664h-342l171 -280zM272 350l-176 288v-576zM490 638l-176 -288l176 -288v576zM464 36l-171 280l-171 -280h342z" />
    <glyph glyph-name="f_i" unicode="fi" horiz-adv-x="494" 
d="M141 452h-78l9 44h78l22 113q13 66 53 103.5t111 37.5q22 0 38 -6l-9 -50q-17 6 -39 6q-34 0 -60 -23.5t-35 -72.5l-21 -108h255l-97 -496h-60l88 452h-195l-87 -452h-60zM431 670h76l-16 -80h-76z" />
    <glyph glyph-name="f_l" unicode="fl" horiz-adv-x="492" 
d="M141 452h-78l9 44h78l22 113q13 66 53 103.5t111 37.5q22 0 38 -6l-9 -50q-17 6 -39 6q-34 0 -60 -23.5t-35 -72.5l-21 -108h117l-9 -44h-117l-87 -452h-60zM445 700h60l-137 -700h-60z" />
    <glyph glyph-name=".notdef" horiz-adv-x="586" 
d="M60 700h466v-700h-466v700zM464 664h-342l171 -280zM272 350l-176 288v-576zM490 638l-176 -288l176 -288v576zM464 36l-171 280l-171 -280h342z" />
    <glyph glyph-name=".null" 
 />
    <glyph glyph-name="nonmarkingreturn" unicode="&#xd;" horiz-adv-x="289" 
 />
    <glyph glyph-name="space" unicode=" " horiz-adv-x="276" 
 />
    <glyph glyph-name="exclam" unicode="!" horiz-adv-x="258" 
d="M146 487l42 213h60l-42 -213l-72 -315h-38zM57 84h82l-17 -84h-82z" />
    <glyph glyph-name="quotedbl" unicode="&#x22;" horiz-adv-x="308" 
d="M141 652l10 48h64l-10 -48l-42 -149h-38zM260 652l10 48h64l-10 -48l-42 -149h-38z" />
    <glyph glyph-name="numbersign" unicode="#" horiz-adv-x="659" 
d="M185 232h-111v42h119l28 152h-127v42h135l43 232h56l-43 -232h178l43 232h56l-43 -232h111v-42h-119l-28 -152h127v-42h-135l-43 -232h-56l43 232h-178l-43 -232h-56zM427 274l28 152h-178l-28 -152h178z" />
    <glyph glyph-name="dollar" unicode="$" horiz-adv-x="614" 
d="M233 -9q-85 14 -134 73.5t-56 137.5l54 27q6 -72 42.5 -121t104.5 -62l58 298q-86 24 -125.5 67.5t-39.5 108.5q0 58 31.5 101.5t85.5 67.5t120 25l17 86h60l-18 -91q64 -12 108.5 -52t61.5 -108l-50 -30q-30 114 -130 137l-53 -273q81 -21 125 -63.5t44 -105.5
q0 -62 -30 -113.5t-86 -82.5t-131 -32l-16 -86h-60zM364 662q-69 -2 -118 -38t-49 -97q0 -47 26 -78t90 -51zM429 90q50 44 50 111q0 52 -28 79t-92 48l-56 -286q76 4 126 48z" />
    <glyph glyph-name="percent" unicode="%" horiz-adv-x="885" 
d="M180.5 384.5q-34.5 20.5 -54.5 56t-20 78.5q0 54 25 98.5t69 70.5t99 26q72 0 111.5 -42t39.5 -111q0 -52 -24.5 -97.5t-69 -72.5t-100.5 -27q-41 0 -75.5 20.5zM162 37l564 661l36 -33l-564 -661zM331 433.5q30 19.5 47.5 52t17.5 69.5q0 52 -27.5 80.5t-75.5 28.5
q-36 0 -66.5 -19t-48.5 -52t-18 -72q0 -49 29 -78t75 -29q37 0 67 19.5zM548.5 6.5q-34.5 20.5 -54.5 56t-20 78.5q0 54 25 98.5t69 70.5t99 26q72 0 111.5 -42t39.5 -111q0 -52 -24.5 -97.5t-69 -72.5t-100.5 -27q-41 0 -75.5 20.5zM699 55.5q30 19.5 47.5 52t17.5 69.5
q0 52 -27.5 80.5t-75.5 28.5q-36 0 -66.5 -19t-48.5 -52t-18 -72q0 -49 29 -78t75 -29q37 0 67 19.5z" />
    <glyph glyph-name="ampersand" unicode="&#x26;" horiz-adv-x="630" 
d="M148 12.5q-44 26.5 -68.5 72t-24.5 100.5q0 154 170 228q-29 60 -29 121q0 47 20.5 88.5t59.5 66.5t91 25q58 0 96.5 -33t38.5 -93q0 -69 -48 -114.5t-150 -83.5l149 -240q43 65 73 167l42 -26q-33 -115 -87 -187l65 -104h-69l-36 59q-81 -73 -193 -73q-56 0 -100 26.5z
M374.5 474.5q35.5 19.5 52.5 45t17 62.5q0 34 -22 58t-59 24q-50 0 -79.5 -38.5t-29.5 -88.5q0 -59 24 -104q61 22 96.5 41.5zM414 103l-164 268q-137 -56 -137 -183q0 -67 41 -109.5t103 -42.5q92 0 157 67z" />
    <glyph glyph-name="quotesingle" unicode="'" horiz-adv-x="189" 
d="M141 652l10 48h64l-10 -48l-42 -149h-38z" />
    <glyph glyph-name="parenleft" unicode="(" horiz-adv-x="326" 
d="M80.5 -22q-11.5 74 -11.5 156q0 164 60 312.5t147 253.5h54q-81 -111 -141 -263.5t-60 -310.5q0 -82 8 -141t26 -133h-54q-17 52 -28.5 126z" />
    <glyph glyph-name="parenright" unicode=")" horiz-adv-x="326" 
d="M148 115.5q60 152.5 60 310.5q0 82 -8 141t-26 133h54q17 -52 28.5 -126t11.5 -156q0 -164 -60 -312.5t-147 -253.5h-54q81 111 141 263.5z" />
    <glyph glyph-name="asterisk" unicode="*" horiz-adv-x="394" 
d="M231 522l-94 -66l-32 57l114 43l-90 39l36 62l79 -67l6 110h68l-36 -110l101 67l25 -61l-113 -40l93 -43l-40 -60l-79 69l-6 -110h-67z" />
    <glyph glyph-name="plus" unicode="+" horiz-adv-x="488" 
d="M237 342h-171l9 46h171l34 172h48l-34 -172h173l-9 -46h-173l-34 -173h-48z" />
    <glyph glyph-name="comma" unicode="," horiz-adv-x="176" 
d="M-19 -105l53 105h-34l16 82h80l-16 -82l-85 -115z" />
    <glyph glyph-name="hyphen" unicode="-" horiz-adv-x="446" 
d="M65 334h350l-9 -46h-350z" />
    <glyph glyph-name="period" unicode="." horiz-adv-x="176" 
d="M15 82h80l-15 -82h-80z" />
    <glyph glyph-name="slash" unicode="/" horiz-adv-x="474" 
d="M497 730h65l-545 -760h-65z" />
    <glyph glyph-name="zero" unicode="0" horiz-adv-x="706" 
d="M195 24q-61 38 -95 105.5t-34 154.5q0 112 43 211t121.5 159t179.5 60q127 0 197.5 -79t70.5 -218q0 -115 -39.5 -213.5t-117.5 -158t-187 -59.5q-78 0 -139 38zM487 89q64 51 97.5 135t33.5 183q0 118 -57 186.5t-155 68.5q-83 0 -146.5 -54t-98.5 -141.5t-35 -182.5
q0 -76 27 -131.5t74.5 -85t107.5 -29.5q88 0 152 51z" />
    <glyph glyph-name="one" unicode="1" horiz-adv-x="344" 
d="M273 616q-31 -31 -66 -43.5t-92 -12.5l10 52q55 0 97 21.5t74 66.5h52l-137 -700h-58z" />
    <glyph glyph-name="two" unicode="2" horiz-adv-x="574" 
d="M18 41l322 269q65 54 97 106t32 108q0 64 -39 101t-104 37q-71 0 -115.5 -45t-44.5 -115q0 -24 5 -39l-58 -9q-7 19 -7 55q0 60 29 106.5t81.5 72.5t120.5 26q86 0 139 -50.5t53 -139.5q0 -62 -35.5 -124t-113.5 -127l-254 -213h335l-12 -60h-439z" />
    <glyph glyph-name="three" unicode="3" horiz-adv-x="575" 
d="M162 11q-48 25 -73.5 68t-25.5 94q0 16 3.5 33.5t9.5 27.5l53 -13q-6 -19 -6 -47q0 -58 39.5 -97t110.5 -39q50 0 90 22t62.5 61.5t22.5 88.5q0 71 -49.5 104.5t-130.5 33.5l11 56q85 1 137.5 38.5t52.5 110.5q0 46 -35.5 77.5t-97.5 31.5q-40 0 -73.5 -18.5t-53 -50
t-19.5 -68.5q0 -12 1 -21l-59 -9q-2 12 -2 26q0 53 26.5 97t74.5 70t111 26q87 0 136 -44.5t49 -116.5q0 -58 -37 -106t-105 -68q53 -17 88 -56.5t35 -104.5q0 -66 -28 -119t-81.5 -83t-125.5 -30q-63 0 -111 25z" />
    <glyph glyph-name="four" unicode="4" horiz-adv-x="565" 
d="M358 150h-328l10 52l425 498h60l-97 -498h80l-10 -52h-80l-30 -150h-60zM368 202l75 388l-336 -388h261z" />
    <glyph glyph-name="five" unicode="5" horiz-adv-x="584" 
d="M157.5 9q-46.5 23 -73.5 63.5t-27 92.5q0 34 11 59l55 -12q-6 -18 -6 -43q0 -60 40 -95.5t111 -35.5q58 0 103 28t70.5 80t25.5 123q0 74 -43.5 114.5t-110.5 40.5q-59 0 -107.5 -35t-74.5 -82l-58 16l108 377h389l-10 -52h-336l-81 -267q35 45 87 71t103 26
q87 0 140.5 -55.5t53.5 -150.5q0 -80 -33 -145.5t-93.5 -103t-139.5 -37.5q-57 0 -103.5 23z" />
    <glyph glyph-name="six" unicode="6" horiz-adv-x="595" 
d="M173 18.5q-52 32.5 -81.5 94t-29.5 146.5q0 101 38.5 207t113.5 177t177 71q77 0 126.5 -41.5t49.5 -109.5q0 -29 -14 -63l-54 13q10 23 10 48q0 47 -34.5 74t-90.5 27q-59 0 -112 -39.5t-91 -113t-52 -170.5q24 50 84 84.5t121 34.5q57 0 104 -26.5t74.5 -73
t27.5 -104.5q0 -76 -32.5 -137.5t-89.5 -96t-126 -34.5q-67 0 -119 32.5zM389 64.5q42 26.5 66.5 73t24.5 103.5q0 46 -21.5 84t-59.5 59.5t-83 21.5q-52 0 -94.5 -27.5t-67 -73.5t-24.5 -98q0 -41 20 -80t58 -64t89 -25q50 0 92 26.5z" />
    <glyph glyph-name="seven" unicode="7" horiz-adv-x="531" 
d="M499 648h-378l11 52h443l-9 -46l-417 -654h-66z" />
    <glyph glyph-name="eight" unicode="8" horiz-adv-x="564" 
d="M149.5 10q-47.5 24 -75 68.5t-27.5 102.5q0 69 43 124.5t112 79.5q-32 20 -54 55t-22 81q0 49 26.5 93.5t75 72t109.5 27.5q58 0 102 -21.5t67.5 -59t23.5 -83.5q0 -65 -36 -112.5t-95 -70.5q44 -23 70.5 -60.5t26.5 -91.5q0 -71 -32.5 -123t-88 -79t-122.5 -27
q-56 0 -103.5 24zM427.5 436q44.5 40 44.5 107q0 56 -39 88.5t-97 32.5q-42 0 -77 -19.5t-55 -52.5t-20 -71q0 -58 36 -91.5t92 -33.5q71 0 115.5 40zM346.5 58q40.5 20 65 59t24.5 92q0 62 -43 100.5t-110 38.5q-52 0 -92 -22.5t-62 -62t-22 -89.5q0 -59 43.5 -97.5
t109.5 -38.5q46 0 86.5 20z" />
    <glyph glyph-name="nine" unicode="9" horiz-adv-x="605" 
d="M137 27.5q-52 41.5 -52 109.5q0 28 11 61l54 -13q-7 -23 -7 -43q0 -47 35 -74.5t89 -27.5q95 0 161.5 85t91.5 240q-31 -55 -86.5 -89t-116.5 -34q-60 0 -110.5 26.5t-80 76t-29.5 115.5q0 73 34 131t91 90.5t124 32.5q110 0 172 -72t62 -201q0 -107 -33.5 -212
t-104 -174t-173.5 -69q-80 0 -132 41.5zM419.5 322q41.5 28 64.5 73.5t23 97.5q0 72 -43 120.5t-116 48.5q-54 0 -97.5 -26.5t-68.5 -71.5t-25 -98q0 -85 48.5 -128.5t118.5 -43.5q54 0 95.5 28z" />
    <glyph glyph-name="colon" unicode=":" horiz-adv-x="176" 
d="M92 472h80l-16 -82h-80zM17 82h80l-16 -82h-80z" />
    <glyph glyph-name="semicolon" unicode=";" horiz-adv-x="176" 
d="M92 472h80l-15 -82h-80zM-18 -105l53 105h-34l16 82h80l-16 -82l-85 -115z" />
    <glyph glyph-name="less" unicode="&#x3c;" horiz-adv-x="499" 
d="M54 278l13 64l428 194l-10 -61l-375 -168l308 -168l-10 -55z" />
    <glyph glyph-name="equal" unicode="=" horiz-adv-x="488" 
d="M91 468h391l-9 -46h-391zM55 278h391l-9 -46h-391z" />
    <glyph glyph-name="greater" unicode="&#x3e;" horiz-adv-x="499" 
d="M38 145l375 168l-308 168l10 55l354 -194l-13 -64l-428 -194z" />
    <glyph glyph-name="question" unicode="?" horiz-adv-x="525" 
d="M208 188q7 43 18.5 69.5t34.5 49.5t69 56q60 43 93 83.5t33 94.5q0 58 -36 90.5t-95 32.5q-47 0 -82.5 -21t-55 -56.5t-19.5 -77.5q0 -17 3 -34l-55 -10q-6 20 -6 45q0 58 27 104.5t76.5 73t114.5 26.5q86 0 137 -47t51 -120q0 -65 -37 -116t-119 -110q-30 -22 -47 -39
t-28.5 -42t-18.5 -65h-60zM178 84h82l-16 -84h-82z" />
    <glyph glyph-name="at" unicode="@" horiz-adv-x="938" 
d="M240 -108.5q-82 43.5 -132 126.5t-50 197q0 133 60 247.5t170 183t253 68.5q107 0 188 -42t125 -116.5t44 -171.5q0 -92 -32.5 -174t-90 -132.5t-130.5 -50.5q-37 0 -57 22t-20 59q0 19 4 35q-26 -55 -74.5 -85.5t-105.5 -30.5q-67 0 -111 53.5t-44 152.5q0 77 33 148
t92.5 115t134.5 44q42 0 78.5 -24.5t47.5 -67.5l15 76h60l-76 -384q-2 -10 -2 -20q0 -41 39 -41q52 0 93.5 44.5t64.5 114t23 141.5q0 78 -35 141.5t-104.5 101.5t-168.5 38q-115 0 -210 -60.5t-149.5 -161.5t-54.5 -217q0 -95 39 -168t107 -113t152 -40q104 0 205 56
l20 -44q-52 -32 -110 -48t-113 -16q-96 0 -178 43.5zM509 120.5q46 41.5 71.5 104t25.5 121.5q0 67 -31 103.5t-79 36.5q-59 0 -104.5 -37.5t-71 -96.5t-25.5 -118q0 -70 31 -112.5t80 -42.5q57 0 103 41.5z" />
    <glyph glyph-name="A" unicode="A" horiz-adv-x="636" 
d="M373 700h67l141 -700h-60l-43 217h-326l-128 -217h-66zM468 267l-65 329q-4 21 -5 30t-2 12q-11 -22 -23 -42l-193 -329h288z" />
    <glyph glyph-name="B" unicode="B" horiz-adv-x="626" 
d="M181 700h235q89 0 138.5 -41t49.5 -111q0 -62 -43.5 -110.5t-112.5 -64.5q47 -16 82 -55.5t35 -98.5q0 -68 -35.5 -117.5t-97 -75.5t-138.5 -26h-250zM359 398q48 0 89.5 16.5t67 48t25.5 76.5q0 59 -36.5 84t-102.5 25h-172l-48 -250h177zM280 52q103 0 164 43t61 127
q0 65 -44.5 94.5t-119.5 29.5h-169l-57 -294h165z" />
    <glyph glyph-name="C" unicode="C" horiz-adv-x="729" 
d="M197 25.5q-64 39.5 -97.5 109.5t-33.5 161q0 108 50.5 204t142 155t207.5 59q96 0 162 -48t94 -131l-48 -29q-32 83 -86.5 119.5t-134.5 36.5q-93 0 -167.5 -52t-117 -136.5t-42.5 -175.5q0 -75 29 -134.5t81 -92.5t120 -33q79 0 144 41t114 120l42 -29
q-55 -91 -130 -137.5t-176 -46.5q-89 0 -153 39.5z" />
    <glyph glyph-name="D" unicode="D" horiz-adv-x="670" 
d="M181 700h180q82 0 146 -32.5t100 -97.5t36 -158q0 -118 -50 -211.5t-143.5 -147t-218.5 -53.5h-187zM229 52q112 0 192 46.5t121 128.5t41 185q0 122 -66 179t-179 57h-108l-115 -596h114z" />
    <glyph glyph-name="E" unicode="E" horiz-adv-x="574" 
d="M181 700h410l-11 -52h-350l-50 -260h322l-10 -52h-322l-55 -284h353l-11 -52h-413z" />
    <glyph glyph-name="F" unicode="F" horiz-adv-x="577" 
d="M181 700h424l-11 -52h-364l-54 -280h334l-10 -52h-334l-62 -316h-60z" />
    <glyph glyph-name="G" unicode="G" horiz-adv-x="750" 
d="M193 25q-61 39 -94 107t-33 152q0 122 51.5 220t142.5 154t205 56q99 0 165 -44.5t98 -124.5l-47 -31q-30 76 -88 112t-138 36q-92 0 -167.5 -51t-118.5 -137.5t-43 -187.5q0 -67 27.5 -124t78 -90.5t115.5 -33.5q67 0 126 37.5t99.5 95.5t54.5 116h-258l10 52h320
l-66 -339h-40v124q-49 -71 -110.5 -104.5t-146.5 -33.5q-82 0 -143 39z" />
    <glyph glyph-name="H" unicode="H" horiz-adv-x="676" 
d="M181 700h60l-62 -317h371l62 317h60l-137 -700h-60l65 331h-371l-65 -331h-60z" />
    <glyph glyph-name="I" unicode="I" horiz-adv-x="245" 
d="M181 700h60l-137 -700h-60z" />
    <glyph glyph-name="J" unicode="J" horiz-adv-x="520" 
d="M123.5 6.5q-39.5 20.5 -63 56.5t-23.5 79q0 26 5 48l59 -6q-4 -17 -4 -36q0 -49 36.5 -79.5t85.5 -30.5q63 0 106 39t58 114l99 509h60l-98 -505q-41 -209 -234 -209q-47 0 -86.5 20.5z" />
    <glyph glyph-name="K" unicode="K" horiz-adv-x="597" 
d="M181 700h60l-65 -339l84 75l303 264h78l-290 -259l176 -441h-68l-158 399l-144 -125l-53 -274h-60z" />
    <glyph glyph-name="L" unicode="L" horiz-adv-x="554" 
d="M181 700h60l-126 -648h353l-11 -52h-413z" />
    <glyph glyph-name="M" unicode="M" horiz-adv-x="847" 
d="M181 700h66l137 -648l388 648h71l-137 -700h-58l114 586q-9 -17 -54 -90l-298 -496h-69l-106 498l-17 97l-116 -595h-58z" />
    <glyph glyph-name="N" unicode="N" horiz-adv-x="693" 
d="M181 700h60l250 -562q17 -41 20 -55l120 617h58l-137 -700h-60l-250 562q-17 41 -20 55l-120 -617h-58z" />
    <glyph glyph-name="O" unicode="O" horiz-adv-x="770" 
d="M211.5 23.5q-67.5 37.5 -106 107.5t-38.5 164q0 106 47 202.5t134 156.5t200 60q90 0 156 -36.5t102 -106t36 -167.5q0 -107 -43.5 -203t-129 -155.5t-204.5 -59.5q-86 0 -153.5 37.5zM533 89q72 51 110.5 134t38.5 176q0 130 -64.5 196.5t-179.5 66.5q-89 0 -160 -52.5
t-111 -136.5t-40 -173q0 -80 31.5 -139.5t86 -91t121.5 -31.5q95 0 167 51z" />
    <glyph glyph-name="P" unicode="P" horiz-adv-x="661" 
d="M181 700h255q106 0 161 -51t55 -142q0 -73 -34.5 -126.5t-97 -82t-144.5 -28.5h-219l-53 -270h-60zM378 322q102 0 158 50t56 136q0 68 -41 104t-120 36h-201l-63 -326h211z" />
    <glyph glyph-name="Q" unicode="Q" horiz-adv-x="770" 
d="M403 -12q-26 -2 -38 -2q-86 0 -153.5 37.5t-106 107.5t-38.5 164q0 106 47 202.5t134 156.5t200 60q90 0 156 -36.5t102 -106t36 -167.5q0 -91 -32 -175t-94 -145.5t-150 -84.5q25 -51 60 -93l-49 -40q-46 56 -74 122zM533 89q72 51 110.5 134t38.5 176
q0 130 -64.5 196.5t-179.5 66.5q-89 0 -160 -52.5t-111 -136.5t-40 -173q0 -80 31.5 -139.5t86 -91t121.5 -31.5q95 0 167 51z" />
    <glyph glyph-name="R" unicode="R" horiz-adv-x="620" 
d="M181 700h250q95 0 147 -46t52 -127q0 -57 -28.5 -103t-78 -74.5t-109.5 -35.5l114 -314h-64l-116 312h-182l-62 -312h-60zM367 364q86 0 144.5 41.5t58.5 115.5q0 66 -38 96.5t-110 30.5h-190l-56 -284h191z" />
    <glyph glyph-name="S" unicode="S" horiz-adv-x="618" 
d="M116 47.5q-62 61.5 -73 154.5l58 29q6 -86 55 -139.5t137 -53.5q49 0 93 20t70.5 57t26.5 86q0 41 -18 67t-53 42t-97 31q-95 24 -142 67t-47 112q0 59 32 103t88.5 67.5t128.5 23.5q82 0 140 -42t80 -124l-51 -31q-40 145 -181 145q-45 0 -86 -16t-66 -46.5t-25 -72.5
q0 -55 42.5 -88.5t131.5 -52.5q89 -20 136 -61.5t47 -110.5q0 -67 -32 -118.5t-89.5 -80.5t-131.5 -29q-112 0 -174 61.5z" />
    <glyph glyph-name="T" unicode="T" horiz-adv-x="533" 
d="M314 648h-216l11 52h492l-11 -52h-216l-126 -648h-60z" />
    <glyph glyph-name="U" unicode="U" horiz-adv-x="652" 
d="M126.5 39q-56.5 53 -56.5 146q0 37 7 72l86 443h60l-91 -468q-4 -23 -4 -47q0 -65 41 -106t115 -41q91 0 150.5 48.5t75.5 130.5l94 483h60l-93 -482q-23 -116 -100 -174t-195 -58q-93 0 -149.5 53z" />
    <glyph glyph-name="V" unicode="V" horiz-adv-x="596" 
d="M95 700h60l94 -569l11 -77l11 24q16 38 26 55l315 567h65l-392 -700h-72z" />
    <glyph glyph-name="W" unicode="W" horiz-adv-x="876" 
d="M96 700h58l41 -561q4 -48 5 -72q9 24 33 73l257 560h73l38 -557l1 -76q13 34 34 75l260 558h60l-331 -700h-68l-43 635l-290 -635h-69z" />
    <glyph glyph-name="X" unicode="X" horiz-adv-x="550" 
d="M269 388l-139 312h66l114 -267l212 267h76l-263 -321l159 -379h-64l-136 331l-259 -331h-75z" />
    <glyph glyph-name="Y" unicode="Y" horiz-adv-x="526" 
d="M242 292l-151 408h67l106 -313q9 -28 14 -49q8 14 30 44l234 318h69l-309 -408l-57 -292h-60z" />
    <glyph glyph-name="Z" unicode="Z" horiz-adv-x="582" 
d="M5 52l521 594h-394l11 54h465l-11 -54l-513 -592h415l-11 -54h-494z" />
    <glyph glyph-name="bracketleft" unicode="[" horiz-adv-x="318" 
d="M180 700h172l-10 -50h-114l-145 -750h114l-10 -50h-172z" />
    <glyph glyph-name="backslash" unicode="\" horiz-adv-x="474" 
d="M100 730h60l254 -760h-60z" />
    <glyph glyph-name="bracketright" unicode="]" horiz-adv-x="317" 
d="M-13 -100h113l145 750h-114l10 50h172l-165 -850h-171z" />
    <glyph glyph-name="asciicircum" unicode="^" horiz-adv-x="412" 
d="M261 700h64l110 -243h-52l-94 204l-170 -204h-60z" />
    <glyph glyph-name="underscore" unicode="_" horiz-adv-x="422" 
d="M-42 -7h406l-9 -46h-406z" />
    <glyph glyph-name="grave" unicode="`" horiz-adv-x="276" 
d="M137 700h82l42 -138h-52z" />
    <glyph glyph-name="a" unicode="a" horiz-adv-x="592" 
d="M138 16q-47 30 -72 82.5t-25 117.5q0 83 35.5 150t98 105.5t140.5 38.5q61 0 105.5 -28t63.5 -81l19 95h60l-97 -496h-60l16 81q-32 -50 -75 -72.5t-99 -22.5q-63 0 -110 30zM362.5 71q47.5 35 74 94t26.5 128q0 77 -40 122t-110 45q-61 0 -109.5 -33t-75.5 -89t-27 -123
q0 -78 41.5 -128.5t112.5 -50.5q60 0 107.5 35z" />
    <glyph glyph-name="b" unicode="b" horiz-adv-x="597" 
d="M168.5 16.5q-45.5 30.5 -64.5 79.5l-18 -96h-60l136 700h60l-54 -280q31 43 80.5 66.5t105.5 23.5q57 0 103 -25.5t73 -75.5t27 -122q0 -79 -36 -148.5t-101 -111t-148 -41.5q-58 0 -103.5 30.5zM389 72q49 36 77 95.5t28 125.5q0 80 -41.5 123.5t-113.5 43.5
q-60 0 -109.5 -36t-77.5 -95t-28 -124q0 -51 20.5 -89.5t56.5 -59t80 -20.5q59 0 108 36z" />
    <glyph glyph-name="c" unicode="c" horiz-adv-x="554" 
d="M147 14.5q-50 28.5 -78 81t-28 122.5q0 74 34.5 141t100.5 109t155 42q71 0 122.5 -36.5t75.5 -99.5l-46 -26q-24 57 -64.5 83.5t-98.5 26.5q-63 0 -112 -33.5t-76.5 -88.5t-27.5 -117q0 -85 45.5 -133t114.5 -48q65 0 110.5 31.5t83.5 92.5l40 -30q-41 -74 -99.5 -110
t-137.5 -36q-64 0 -114 28.5z" />
    <glyph glyph-name="d" unicode="d" horiz-adv-x="598" 
d="M147.5 14q-48.5 28 -76.5 81t-28 124q0 86 34.5 152.5t96 102.5t138.5 36q63 0 109.5 -29t71.5 -80l58 299h60l-136 -700h-60l16 82q-23 -42 -71.5 -69t-101.5 -27q-62 0 -110.5 28zM370 71.5q49 35.5 76.5 94t27.5 123.5q0 50 -22 89t-60 60.5t-84 21.5q-57 0 -103 -31
t-72.5 -86.5t-26.5 -123.5q0 -88 42.5 -135.5t112.5 -47.5q60 0 109 35.5z" />
    <glyph glyph-name="e" unicode="e" horiz-adv-x="574" 
d="M152 12q-50 26 -80 80t-30 134q0 78 37 143t101.5 103t144.5 38q67 0 115 -26t73 -71.5t25 -102.5q0 -21 -5 -48l-4 -19h-427q-2 -10 -2 -33q0 -47 21.5 -87t60.5 -63.5t88 -23.5q65 0 108.5 32t80.5 97l43 -28q-42 -78 -100.5 -114.5t-138.5 -36.5q-61 0 -111 26z
M478 293q2 15 2 30q0 59 -44.5 98t-114.5 39q-74 0 -131 -45t-75 -122h363z" />
    <glyph glyph-name="f" unicode="f" horiz-adv-x="305" 
d="M141 452h-78l9 44h78l22 113q13 66 53 103.5t111 37.5q22 0 38 -6l-9 -50q-17 6 -39 6q-34 0 -60 -23.5t-35 -72.5l-21 -108h117l-9 -44h-117l-87 -452h-60z" />
    <glyph glyph-name="g" unicode="g" horiz-adv-x="577" 
d="M109.5 -200q-40.5 18 -61.5 48.5t-21 67.5q0 34 17 60l51 -15q-10 -17 -10 -42q0 -39 38 -63t96 -24q82 0 127.5 53t63.5 147l11 58q-27 -41 -70.5 -61.5t-99.5 -20.5t-103 25t-75.5 75t-28.5 120q0 75 31.5 139.5t91.5 103.5t143 39q62 0 110 -26t65 -68l16 80h60
l-92 -471q-24 -122 -87 -182.5t-175 -60.5q-57 0 -97.5 18zM369.5 91.5q46.5 33.5 72 88t25.5 113.5q0 76 -44.5 121.5t-116.5 45.5q-59 0 -105 -33t-71.5 -86.5t-25.5 -113.5q0 -79 44.5 -124t114.5 -45q60 0 106.5 33.5z" />
    <glyph glyph-name="h" unicode="h" horiz-adv-x="558" 
d="M163 700h60l-56 -283q35 43 83.5 68t102.5 25q67 0 106.5 -34t39.5 -102q0 -25 -6 -57l-62 -317h-60l64 325q4 20 4 36q0 47 -27 73t-78 26q-41 0 -82 -24t-71.5 -66t-40.5 -95l-54 -275h-60z" />
    <glyph glyph-name="i" unicode="i" horiz-adv-x="212" 
d="M124 496h60l-97 -496h-60zM150 670h76l-16 -80h-76z" />
    <glyph glyph-name="j" unicode="j" horiz-adv-x="212" 
d="M-110 -203l15 52q18 -8 37 -8q55 0 68 69l114 586h60l-114 -590q-22 -117 -131 -117q-27 0 -49 8zM152 670h76l-16 -80h-76z" />
    <glyph glyph-name="k" unicode="k" horiz-adv-x="478" 
d="M163 700h60l-78 -400l232 196h80l-199 -170l144 -326h-65l-124 289l-85 -74l-42 -215h-60z" />
    <glyph glyph-name="l" unicode="l" horiz-adv-x="210" 
d="M163 700h60l-137 -700h-60z" />
    <glyph glyph-name="m" unicode="m" horiz-adv-x="793" 
d="M125 496h60l-14 -74q24 38 65.5 63t92.5 25q44 0 74.5 -23t40.5 -64q31 41 74.5 64t90.5 23q61 0 96 -30.5t35 -84.5q0 -19 -4 -40l-69 -355h-60l68 351q5 23 5 38q0 34 -23.5 52.5t-66.5 18.5q-32 0 -64.5 -21.5t-59 -66.5t-39.5 -111l-51 -261h-60l68 349q3 18 3 27
q0 38 -22.5 61t-61.5 23q-53 0 -99 -53t-64 -145l-51 -262h-60z" />
    <glyph glyph-name="n" unicode="n" horiz-adv-x="558" 
d="M125 496h60l-15 -77q67 91 182 91q64 0 105.5 -35t41.5 -104q0 -21 -4 -45l-63 -326h-60l64 330q3 18 3 35q0 45 -29 70t-78 25q-41 0 -81 -23.5t-68.5 -64.5t-38.5 -91l-55 -281h-60z" />
    <glyph glyph-name="o" unicode="o" horiz-adv-x="592" 
d="M157.5 11.5q-52.5 25.5 -85 76.5t-32.5 124q0 82 36.5 150.5t101.5 108t149 39.5q61 0 112 -24.5t82 -74t31 -120.5q0 -86 -36.5 -156t-101 -109.5t-144.5 -39.5q-60 0 -112.5 25.5zM383 68.5q50 32.5 79.5 89t29.5 123.5q0 82 -47.5 130.5t-126.5 48.5q-62 0 -112 -35.5
t-78 -92.5t-28 -118q0 -79 48.5 -128.5t126.5 -49.5q58 0 108 32.5z" />
    <glyph glyph-name="p" unicode="p" horiz-adv-x="594" 
d="M125 496h60l-14 -75q24 39 73.5 64t105.5 25q59 0 105 -27t72.5 -78t26.5 -122q0 -75 -34.5 -143.5t-99 -111t-149.5 -42.5q-59 0 -104 29t-62 70l-56 -289h-60zM392.5 71q47.5 35 74.5 92t27 122q0 84 -43 129.5t-115 45.5q-55 0 -103.5 -34t-78 -93t-29.5 -129
q0 -76 44 -122t117 -46q59 0 106.5 35z" />
    <glyph glyph-name="q" unicode="q" horiz-adv-x="601" 
d="M428 66q-27 -37 -73.5 -58.5t-101.5 -21.5q-58 0 -106.5 26.5t-77 79t-28.5 125.5q0 84 36.5 151t100.5 104.5t143 37.5q60 0 106.5 -29t66.5 -77l18 92h60l-136 -700h-60zM364 68q50 32 79.5 88.5t29.5 124.5q0 85 -43.5 132t-116.5 47q-57 0 -105.5 -31.5t-77.5 -87
t-29 -124.5q0 -87 42 -134t113 -47q58 0 108 32z" />
    <glyph glyph-name="r" unicode="r" horiz-adv-x="332" 
d="M125 496h60l-15 -81q29 48 66.5 71.5t89.5 23.5q16 0 32 -4l-14 -52q-19 6 -43 6q-34 0 -66.5 -24t-57 -67.5t-35.5 -97.5l-53 -271h-60z" />
    <glyph glyph-name="s" unicode="s" horiz-adv-x="478" 
d="M95 27q-49 41 -62 103l53 29q8 -53 42.5 -88t89.5 -35q59 0 93 29.5t34 78.5q0 28 -10.5 44.5t-34 28t-68.5 23.5q-139 36 -139 131q0 62 48.5 100.5t123.5 38.5q68 0 109.5 -32t57.5 -87l-47 -24q-28 93 -123 93q-41 0 -77 -22.5t-36 -61.5q0 -37 27 -57.5t94 -36.5
q68 -16 101.5 -48.5t33.5 -85.5q0 -73 -52.5 -117.5t-135.5 -44.5q-73 0 -122 41z" />
    <glyph glyph-name="t" unicode="t" horiz-adv-x="332" 
d="M113.5 10q-25.5 24 -25.5 73q0 21 3 36l64 333h-86l9 44h86l26 134h60l-26 -134h119l-9 -44h-119l-64 -333q-3 -16 -3 -29q0 -25 15 -39.5t40 -14.5q17 0 38 6l-3 -48q-23 -8 -55 -8q-44 0 -69.5 24z" />
    <glyph glyph-name="u" unicode="u" horiz-adv-x="558" 
d="M103.5 26q-42.5 40 -42.5 109q0 22 4 46l61 315h60l-61 -314q-4 -21 -4 -41q0 -47 29 -76t81 -29q39 0 78 24.5t68 70t41 105.5l51 260h60l-96 -496h-60l15 77q-27 -43 -72.5 -67t-99.5 -24q-70 0 -112.5 40z" />
    <glyph glyph-name="v" unicode="v" horiz-adv-x="474" 
d="M60 496h63l81 -423l241 423h64l-287 -496h-60z" />
    <glyph glyph-name="w" unicode="w" horiz-adv-x="676" 
d="M62 496h60l28 -431l196 431h74l36 -431l193 431h60l-229 -496h-71l-38 432l-195 -432h-72z" />
    <glyph glyph-name="x" unicode="x" horiz-adv-x="400" 
d="M175 276l-101 220h64l76 -178l140 178h69l-185 -228l113 -268h-60l-91 222l-174 -222h-73z" />
    <glyph glyph-name="y" unicode="y" horiz-adv-x="477" 
d="M-33 -202l19 53q18 -8 37 -8q24 0 39.5 11.5t32.5 41.5l65 111l-105 489h60l88 -418l245 418h68l-368 -617q-32 -53 -59.5 -71.5t-73.5 -18.5q-25 0 -48 9z" />
    <glyph glyph-name="z" unicode="z" horiz-adv-x="474" 
d="M5 50l382 396h-293l10 50h362l-10 -50l-381 -396h318l-10 -50h-387z" />
    <glyph glyph-name="braceleft" unicode="{" horiz-adv-x="360" 
d="M112.5 -122.5q-30.5 27.5 -30.5 83.5q0 19 8 57l28 146q3 18 3 32q0 27 -15 39.5t-48 12.5l11 54q41 0 62.5 20.5t28.5 58.5l36 185q14 72 54 103t117 31h27l-10 -50h-36q-35 0 -60 -20t-32 -56l-37 -188q-10 -49 -28 -72.5t-58 -38.5q22 -10 34 -28.5t12 -49.5
q0 -18 -6 -48l-29 -151q-4 -17 -4 -35q0 -33 15.5 -48t48.5 -15h35l-10 -50h-31q-55 0 -85.5 27.5z" />
    <glyph glyph-name="bar" unicode="|" horiz-adv-x="236" 
d="M183 740h60l-165 -850h-60z" />
    <glyph glyph-name="braceright" unicode="}" horiz-adv-x="360" 
d="M-14 -100h36q35 0 60 20t32 56l37 188q10 49 28 72.5t58 38.5q-22 10 -34 28.5t-12 49.5q0 18 6 48l29 151q4 17 4 35q0 33 -15.5 48t-48.5 15h-35l10 50h31q55 0 85.5 -27.5t30.5 -83.5q0 -19 -8 -57l-28 -146q-3 -18 -3 -32q0 -27 15 -39.5t48 -12.5l-11 -54
q-41 0 -62.5 -20.5t-28.5 -58.5l-36 -185q-14 -72 -54 -103t-117 -31h-27z" />
    <glyph glyph-name="asciitilde" unicode="~" horiz-adv-x="433" 
d="M60 302q0 38 25 64t73 26q32 0 53 -10t44 -28q17 -14 30 -21t29 -7q17 0 25.5 11t8.5 30q0 5 -2 13l55 11q4 -10 4 -29q0 -41 -25.5 -64t-71.5 -23q-32 0 -52 10t-45 30q-16 13 -27.5 19.5t-24.5 6.5q-19 0 -30.5 -12.5t-11.5 -32.5q0 -5 2 -13l-55 -9q-4 10 -4 28z" />
    <glyph glyph-name="uni00A0" unicode="&#xa0;" horiz-adv-x="276" 
 />
    <glyph glyph-name="exclamdown" unicode="&#xa1;" horiz-adv-x="258" 
d="M136 496h82l-17 -84h-82zM52 9l72 315h38l-50 -315l-42 -213h-60z" />
    <glyph glyph-name="cent" unicode="&#xa2;" horiz-adv-x="554" 
d="M208 -8q-76 15 -121.5 75t-45.5 151q0 70 31.5 135t92.5 107.5t143 48.5l22 111h60l-22 -113q57 -9 99 -43.5t62 -89.5l-46 -26q-39 92 -125 107l-81 -417q60 4 102.5 35t78.5 89l40 -30q-41 -73 -97.5 -109t-133.5 -37l-18 -96h-60zM298 456q-57 -6 -101.5 -40
t-68.5 -86t-24 -111q0 -70 31 -115.5t83 -59.5z" />
    <glyph glyph-name="sterling" unicode="&#xa3;" horiz-adv-x="544" 
d="M32 46q53 60 81.5 119.5t28.5 140.5l-1 18h-93l9 48h77q-5 40 -5 88q0 72 28.5 129.5t84.5 91t135 33.5t129 -42t50 -110q0 -44 -21 -84l-54 10q8 19 11.5 34.5t3.5 34.5q0 45 -32 75t-95 30q-82 0 -131 -55.5t-49 -146.5q0 -45 5 -88h200l-9 -48h-185q2 -16 2 -38
q0 -53 -28.5 -118t-71.5 -114h358l-10 -54h-426z" />
    <glyph glyph-name="currency" unicode="&#xa4;" horiz-adv-x="620" 
d="M90 153l61 62q-43 56 -43 135t43 135l-61 62l43 43l62 -61q61 44 135 44t135 -44l62 61l43 -43l-61 -62q43 -56 43 -135t-43 -135l61 -62l-43 -43l-62 61q-61 -44 -135 -44t-135 44l-62 -61zM446.5 227.5q45.5 47.5 45.5 122.5t-45.5 122.5t-116.5 47.5t-116.5 -47.5
t-45.5 -122.5t45.5 -122.5t116.5 -47.5t116.5 47.5z" />
    <glyph glyph-name="yen" unicode="&#xa5;" horiz-adv-x="527" 
d="M216 158h-149l9 46h149l17 88h-149l9 46h122l-120 362h64l98 -315q7 -24 12 -47q11 21 28 47l227 315h66l-261 -362h123l-9 -46h-150l-17 -88h150l-9 -46h-150l-31 -158h-60z" />
    <glyph glyph-name="brokenbar" unicode="&#xa6;" horiz-adv-x="236" 
d="M183 740h60l-70 -360h-60zM88 250h60l-70 -360h-60z" />
    <glyph glyph-name="section" unicode="&#xa7;" horiz-adv-x="511" 
d="M85 -55q-53 38 -69 93l53 33q15 -55 54 -83.5t94 -28.5q53 0 92 33t39 83q0 44 -29 69.5t-103 43.5q-67 16 -102.5 53.5t-35.5 87.5q0 75 74 120q-31 38 -31 90t28 92t75 61.5t102 21.5q70 0 123 -38t69 -93l-53 -33q-15 55 -54 83.5t-94 28.5q-58 0 -97 -32t-39 -80
q0 -45 31 -75t111 -48q69 -16 101 -49.5t32 -75.5q0 -46 -19.5 -77t-57.5 -56q29 -35 29 -82q0 -55 -27 -96t-72.5 -62.5t-100.5 -21.5q-70 0 -123 38zM393 293q0 63 -113 89q-52 12 -86 32q-23 -13 -38 -33.5t-15 -45.5q0 -35 25 -57.5t88 -36.5q43 -10 83 -34q56 27 56 86
z" />
    <glyph glyph-name="dieresis" unicode="&#xa8;" horiz-adv-x="368" 
d="M138 670h80l-15 -76h-80zM286 670h80l-15 -76h-80z" />
    <glyph glyph-name="copyright" unicode="&#xa9;" horiz-adv-x="862" 
d="M268.5 35q-83.5 49 -132.5 132.5t-49 182.5t49 182.5t132.5 132.5t182.5 49t182.5 -49t132.5 -132.5t49 -182.5t-49 -182.5t-132.5 -132.5t-182.5 -49t-182.5 49zM610.5 74.5q72.5 42.5 114.5 115.5t42 160t-42 160t-114.5 115.5t-159.5 42.5t-159.5 -42.5t-114.5 -115.5
t-42 -160t42 -160t114.5 -115.5t159.5 -42.5t159.5 42.5zM352 172.5q-45 26.5 -70 73t-25 104.5t26 104.5t70.5 73t98.5 26.5q61 0 105 -28t65 -78l-32 -21q-22 44 -57.5 65t-80.5 21q-39 0 -73 -20t-54.5 -57t-20.5 -86q0 -48 20 -85t54 -57t76 -20q89 0 137 90l32 -21
q-25 -52 -69 -81.5t-99 -29.5q-58 0 -103 26.5z" />
    <glyph glyph-name="ordfeminine" unicode="&#xaa;" horiz-adv-x="450" 
d="M155.5 312.5q-32.5 19.5 -51.5 55t-19 82.5q0 58 23.5 105t67 74.5t101.5 27.5q41 0 75 -18t48 -52l12 63h48l-68 -350h-48l11 58q-40 -65 -129 -65q-38 0 -70.5 19.5zM315 359.5q34 24.5 52.5 63.5t18.5 83q0 47 -32.5 78t-77.5 31q-40 0 -72.5 -21t-51 -56.5
t-18.5 -78.5q0 -56 28 -90t76 -34q43 0 77 24.5z" />
    <glyph glyph-name="guillemotleft" unicode="&#xab;" horiz-adv-x="465" 
d="M53 275l188 194h76l-196 -199l110 -189h-64zM213 275l188 194h76l-196 -199l110 -189h-64z" />
    <glyph glyph-name="logicalnot" unicode="&#xac;" horiz-adv-x="518" 
d="M397 340h-331l10 50h395l-35 -182h-64z" />
    <glyph glyph-name="uni00AD" unicode="&#xad;" horiz-adv-x="446" 
d="M65 334h350l-9 -46h-350z" />
    <glyph glyph-name="registered" unicode="&#xae;" horiz-adv-x="862" 
d="M268.5 35q-83.5 49 -132.5 132.5t-49 182.5t49 182.5t132.5 132.5t182.5 49t182.5 -49t132.5 -132.5t49 -182.5t-49 -182.5t-132.5 -132.5t-182.5 -49t-182.5 49zM610.5 74.5q72.5 42.5 114.5 115.5t42 160t-42 160t-114.5 115.5t-159.5 42.5t-159.5 -42.5t-114.5 -115.5
t-42 -160t42 -160t114.5 -115.5t159.5 -42.5t159.5 42.5zM316 549h159q58 0 91 -31.5t33 -81.5q0 -44 -27.5 -72t-73.5 -37l99 -176h-50l-98 173h-87v-173h-46v398zM473 363q38 0 59.5 20t21.5 53t-21.5 52.5t-59.5 19.5h-111v-145h111z" />
    <glyph glyph-name="macron" unicode="&#xaf;" horiz-adv-x="302" 
d="M119 662h206l-11 -54h-206z" />
    <glyph glyph-name="degree" unicode="&#xb0;" horiz-adv-x="360" 
d="M176 462q-31 18 -49 49t-18 68t18 68t49 49t69 18t69 -18t49 -49t18 -68t-18 -68t-49 -49t-69 -18t-69 18zM308.5 515.5q24.5 25.5 24.5 63.5t-24.5 63.5t-63.5 25.5t-63.5 -25.5t-24.5 -63.5t24.5 -63.5t63.5 -25.5t63.5 25.5z" />
    <glyph glyph-name="plusminus" unicode="&#xb1;" horiz-adv-x="488" 
d="M233 319h-171l9 46h171l34 172h48l-34 -172h173l-9 -46h-173l-34 -173h-48zM9 46h392l-9 -46h-392z" />
    <glyph glyph-name="uni00B2" unicode="&#xb2;" horiz-adv-x="334" 
d="M97 468l166 134q50 40 50 88q0 25 -17 40t-47 15q-34 0 -53.5 -19.5t-19.5 -49.5q0 -7 2 -17l-44 -6q-3 11 -3 24q0 47 35 78.5t89 31.5q47 0 76.5 -26.5t29.5 -67.5q0 -36 -18 -65t-54 -58l-114 -94h154l-8 -46h-231z" />
    <glyph glyph-name="uni00B3" unicode="&#xb3;" horiz-adv-x="334" 
d="M138 449q-32 26 -32 64q0 24 8 39l40 -9q-4 -11 -4 -24q0 -23 19 -37.5t48 -14.5q34 0 55 18.5t21 50.5q0 63 -85 63l7 39q38 0 62.5 15t24.5 45q0 24 -15.5 35.5t-41.5 11.5t-45 -13.5t-19 -34.5q0 -9 2 -16l-41 -4q-2 8 -2 18q0 37 30 64.5t78 27.5q47 0 73 -22t26 -56
q0 -30 -17 -53t-48 -34q25 -8 42 -27.5t17 -48.5q0 -52 -35 -87.5t-91 -35.5q-45 0 -77 26z" />
    <glyph glyph-name="acute" unicode="&#xb4;" horiz-adv-x="276" 
d="M207 700h89l-124 -138h-52z" />
    <glyph glyph-name="uni00B5" unicode="&#xb5;" horiz-adv-x="559" 
d="M127 496h60l-61 -314q-4 -21 -4 -41q0 -47 29 -76t81 -29q39 0 78 24.5t68 70t41 105.5l51 260h60l-96 -496h-60l15 77q-27 -43 -72.5 -67t-99.5 -24q-39 0 -71 12.5t-52 35.5q-8 -58 -11 -71l-33 -167h-60z" />
    <glyph glyph-name="paragraph" unicode="&#xb6;" horiz-adv-x="600" 
d="M320 314h-43q-51 0 -94 20t-68 58.5t-25 92.5q0 61 32.5 110t91.5 77t134 28h305l-10 -52h-60l-149 -768h-60l149 768h-78l-149 -768h-60z" />
    <glyph glyph-name="periodcentered" unicode="&#xb7;" horiz-adv-x="176" 
d="M77 400h80l-15 -82h-80z" />
    <glyph glyph-name="cedilla" unicode="&#xb8;" horiz-adv-x="299" 
d="M30.5 -187.5q-18.5 16.5 -24.5 44.5l40 9q7 -30 42 -30q20 0 33.5 12t13.5 35q0 17 -11 26.5t-28 9.5q-14 0 -24.5 -5t-24.5 -15l-23 26l49 91h48l-50 -75q22 15 47 15q29 0 47 -18t18 -52q0 -41 -26.5 -65.5t-74.5 -24.5q-33 0 -51.5 16.5z" />
    <glyph glyph-name="uni00B9" unicode="&#xb9;" horiz-adv-x="239" 
d="M211 712q-26 -23 -79 -23l9 48q33 0 52.5 10t35.5 33h44l-69 -350h-48z" />
    <glyph glyph-name="ordmasculine" unicode="&#xba;" horiz-adv-x="454" 
d="M169.5 313q-36.5 20 -58.5 56t-22 82q0 55 24 102t71 75.5t112 28.5q70 0 113.5 -43t43.5 -112q0 -58 -26 -106t-73 -75.5t-106 -27.5q-42 0 -78.5 20zM331 357q35 22 54.5 59.5t19.5 81.5q0 52 -32 84.5t-83 32.5q-45 0 -80 -22.5t-54 -59t-19 -78.5q0 -55 33 -87.5
t83 -32.5q43 0 78 22z" />
    <glyph glyph-name="guillemotright" unicode="&#xbb;" horiz-adv-x="466" 
d="M195 280l-110 189h64l114 -194l-188 -194h-76zM355 280l-110 189h64l114 -194l-188 -194h-76z" />
    <glyph glyph-name="onequarter" unicode="&#xbc;" horiz-adv-x="723" 
d="M195 632q-26 -23 -79 -23l9 48q33 0 52.5 10t35.5 33h44l-69 -350h-48zM46 37l564 661l36 -33l-564 -661zM543 70h-170l9 44l214 236h52l-46 -236h40l-9 -44h-40l-14 -70h-50zM552 114l30 157l-143 -157h113z" />
    <glyph glyph-name="onehalf" unicode="&#xbd;" horiz-adv-x="748" 
d="M195 632q-26 -23 -79 -23l9 48q33 0 52.5 10t35.5 33h44l-69 -350h-48zM46 37l564 661l36 -33l-564 -661zM428 38l166 134q50 40 50 88q0 25 -17 40t-47 15q-34 0 -53.5 -19.5t-19.5 -49.5q0 -7 2 -17l-44 -6q-3 11 -3 24q0 47 35 78.5t89 31.5q47 0 76.5 -26.5
t29.5 -67.5q0 -36 -18 -65t-54 -58l-114 -94h154l-8 -46h-231z" />
    <glyph glyph-name="threequarters" unicode="&#xbe;" horiz-adv-x="818" 
d="M123 369q-32 26 -32 64q0 24 8 39l40 -9q-4 -11 -4 -24q0 -23 19 -37.5t48 -14.5q34 0 55 18.5t21 50.5q0 63 -85 63l7 39q38 0 62.5 15t24.5 45q0 24 -15.5 35.5t-41.5 11.5t-45 -13.5t-19 -34.5q0 -9 2 -16l-41 -4q-2 8 -2 18q0 37 30 64.5t78 27.5q47 0 73 -22t26 -56
q0 -30 -17 -53t-48 -34q25 -8 42 -27.5t17 -48.5q0 -52 -35 -87.5t-91 -35.5q-45 0 -77 26zM142 37l564 661l36 -33l-564 -661zM637 70h-170l9 44l214 236h52l-46 -236h40l-9 -44h-40l-14 -70h-50zM646 114l30 157l-143 -157h113z" />
    <glyph glyph-name="questiondown" unicode="&#xbf;" horiz-adv-x="525" 
d="M347 412h-82l16 84h82zM317 308q-7 -43 -18.5 -69.5t-34.5 -49.5t-69 -56q-60 -43 -93 -83.5t-33 -94.5q0 -58 36 -90.5t95 -32.5q47 0 82.5 21t55 56.5t19.5 77.5q0 18 -3 34l55 10q6 -20 6 -45q0 -58 -27 -104.5t-76.5 -73t-114.5 -26.5q-86 0 -137 47t-51 120
q0 65 37 116t119 110q30 22 47 39t28.5 42t18.5 65h60z" />
    <glyph glyph-name="Agrave" unicode="&#xc0;" horiz-adv-x="636" 
d="M373 700h67l141 -700h-60l-43 217h-326l-128 -217h-66zM468 267l-65 329q-4 21 -5 30t-2 12q-11 -22 -23 -42l-193 -329h288zM320 904h82l42 -138h-52z" />
    <glyph glyph-name="Aacute" unicode="&#xc1;" horiz-adv-x="636" 
d="M373 700h67l141 -700h-60l-43 217h-326l-128 -217h-66zM468 267l-65 329q-4 21 -5 30t-2 12q-11 -22 -23 -42l-193 -329h288zM481 904h89l-124 -138h-52z" />
    <glyph glyph-name="Acircumflex" unicode="&#xc2;" horiz-adv-x="636" 
d="M373 700h67l141 -700h-60l-43 217h-326l-128 -217h-66zM468 267l-65 329q-4 21 -5 30t-2 12q-11 -22 -23 -42l-193 -329h288zM418 904h54l73 -138h-50l-61 78l-86 -78h-56z" />
    <glyph glyph-name="Atilde" unicode="&#xc3;" horiz-adv-x="636" 
d="M373 700h67l141 -700h-60l-43 217h-326l-128 -217h-66zM468 267l-65 329q-4 21 -5 30t-2 12q-11 -22 -23 -42l-193 -329h288zM452.5 780q-18.5 10 -38.5 30q-15 15 -25.5 21.5t-27.5 6.5t-27.5 -11t-10.5 -27q0 -8 2 -16l-51 -10q-4 12 -4 27q0 38 23.5 62.5t69.5 24.5
q30 0 48.5 -10.5t37.5 -29.5q15 -14 26.5 -21t26.5 -7q17 0 27 10.5t10 26.5q0 7 -2 17l51 10q4 -18 4 -31q0 -40 -24 -61.5t-64 -21.5q-33 0 -51.5 10z" />
    <glyph glyph-name="Adieresis" unicode="&#xc4;" horiz-adv-x="636" 
d="M373 700h67l141 -700h-60l-43 217h-326l-128 -217h-66zM468 267l-65 329q-4 21 -5 30t-2 12q-11 -22 -23 -42l-193 -329h288zM326 874h80l-15 -76h-80zM474 874h80l-15 -76h-80z" />
    <glyph glyph-name="Aring" unicode="&#xc5;" horiz-adv-x="636" 
d="M373 700h67l141 -700h-60l-43 217h-326l-128 -217h-66zM468 267l-65 329q-4 21 -5 30t-2 12q-11 -22 -23 -42l-193 -329h288zM365 771.5q-28 27.5 -28 67.5t28 67.5t68 27.5t68 -27.5t28 -67.5t-28 -67.5t-68 -27.5t-68 27.5zM470 801.5q15 15.5 15 37.5t-15 37.5
t-37 15.5t-37 -15.5t-15 -37.5t15 -37.5t37 -15.5t37 15.5z" />
    <glyph glyph-name="AE" unicode="&#xc6;" horiz-adv-x="906" 
d="M404 700h519l-11 -52h-354l-50 -260h326l-10 -52h-326l-55 -284h357l-11 -52h-417l43 217h-250l-139 -217h-68zM424 267l74 381h-59l-243 -381h228z" />
    <glyph glyph-name="Ccedilla" unicode="&#xc7;" horiz-adv-x="729" 
d="M285.5 610q-74.5 -52 -117 -136.5t-42.5 -175.5q0 -75 29 -134.5t81 -92.5t120 -33q79 0 144 41t114 120l42 -29q-54 -89 -127.5 -136t-172.5 -48l-30 -45q22 15 47 15q29 0 47 -18t18 -52q0 -41 -26.5 -65.5t-74.5 -24.5q-33 0 -51.5 16.5t-24.5 44.5l40 9q7 -30 42 -30
q20 0 33.5 12t13.5 35q0 17 -11 26.5t-28 9.5q-14 0 -24.5 -5t-24.5 -15l-23 26l34 63q-116 13 -181.5 96.5t-65.5 211.5q0 108 50.5 204t142 155t207.5 59q96 0 162 -48t94 -131l-48 -29q-32 83 -86.5 119.5t-134.5 36.5q-93 0 -167.5 -52z" />
    <glyph glyph-name="Egrave" unicode="&#xc8;" horiz-adv-x="574" 
d="M181 700h410l-11 -52h-350l-50 -260h322l-10 -52h-322l-55 -284h353l-11 -52h-413zM304 904h82l42 -138h-52z" />
    <glyph glyph-name="Eacute" unicode="&#xc9;" horiz-adv-x="574" 
d="M181 700h410l-11 -52h-350l-50 -260h322l-10 -52h-322l-55 -284h353l-11 -52h-413zM465 904h89l-124 -138h-52z" />
    <glyph glyph-name="Ecircumflex" unicode="&#xca;" horiz-adv-x="574" 
d="M181 700h410l-11 -52h-350l-50 -260h322l-10 -52h-322l-55 -284h353l-11 -52h-413zM402 904h54l73 -138h-50l-61 78l-86 -78h-56z" />
    <glyph glyph-name="Edieresis" unicode="&#xcb;" horiz-adv-x="574" 
d="M181 700h410l-11 -52h-350l-50 -260h322l-10 -52h-322l-55 -284h353l-11 -52h-413zM310 874h80l-15 -76h-80zM458 874h80l-15 -76h-80z" />
    <glyph glyph-name="Igrave" unicode="&#xcc;" horiz-adv-x="245" 
d="M181 700h60l-137 -700h-60zM125 904h82l42 -138h-52z" />
    <glyph glyph-name="Iacute" unicode="&#xcd;" horiz-adv-x="245" 
d="M181 700h60l-137 -700h-60zM286 904h89l-124 -138h-52z" />
    <glyph glyph-name="Icircumflex" unicode="&#xce;" horiz-adv-x="245" 
d="M181 700h60l-137 -700h-60zM223 904h54l73 -138h-50l-61 78l-86 -78h-56z" />
    <glyph glyph-name="Idieresis" unicode="&#xcf;" horiz-adv-x="245" 
d="M181 700h60l-137 -700h-60zM131 874h80l-15 -76h-80zM279 874h80l-15 -76h-80z" />
    <glyph glyph-name="Eth" unicode="&#xd0;" horiz-adv-x="694" 
d="M128 324h-73l11 52h72l64 324h180q82 0 146.5 -34.5t101 -101t36.5 -159.5q0 -118 -50.5 -210t-144 -143.5t-219.5 -51.5h-187zM250 52q112 0 192.5 45t122 125t41.5 183q0 122 -67.5 182.5t-179.5 60.5h-108l-53 -272h154l-11 -52h-153l-52 -272h114z" />
    <glyph glyph-name="Ntilde" unicode="&#xd1;" horiz-adv-x="693" 
d="M181 700h60l250 -562q17 -41 20 -55l120 617h58l-137 -700h-60l-250 562q-17 41 -20 55l-120 -617h-58zM481.5 780q-18.5 10 -38.5 30q-15 15 -25.5 21.5t-27.5 6.5t-27.5 -11t-10.5 -27q0 -8 2 -16l-51 -10q-4 12 -4 27q0 38 23.5 62.5t69.5 24.5q30 0 48.5 -10.5
t37.5 -29.5q15 -14 26.5 -21t26.5 -7q17 0 27 10.5t10 26.5q0 7 -2 17l51 10q4 -18 4 -31q0 -40 -24 -61.5t-64 -21.5q-33 0 -51.5 10z" />
    <glyph glyph-name="Ograve" unicode="&#xd2;" horiz-adv-x="770" 
d="M211.5 23.5q-67.5 37.5 -106 107.5t-38.5 164q0 106 47 202.5t134 156.5t200 60q90 0 156 -36.5t102 -106t36 -167.5q0 -107 -43.5 -203t-129 -155.5t-204.5 -59.5q-86 0 -153.5 37.5zM533 89q72 51 110.5 134t38.5 176q0 130 -64.5 196.5t-179.5 66.5q-89 0 -160 -52.5
t-111 -136.5t-40 -173q0 -80 31.5 -139.5t86 -91t121.5 -31.5q95 0 167 51zM387 904h82l42 -138h-52z" />
    <glyph glyph-name="Oacute" unicode="&#xd3;" horiz-adv-x="770" 
d="M211.5 23.5q-67.5 37.5 -106 107.5t-38.5 164q0 106 47 202.5t134 156.5t200 60q90 0 156 -36.5t102 -106t36 -167.5q0 -107 -43.5 -203t-129 -155.5t-204.5 -59.5q-86 0 -153.5 37.5zM533 89q72 51 110.5 134t38.5 176q0 130 -64.5 196.5t-179.5 66.5q-89 0 -160 -52.5
t-111 -136.5t-40 -173q0 -80 31.5 -139.5t86 -91t121.5 -31.5q95 0 167 51zM548 904h89l-124 -138h-52z" />
    <glyph glyph-name="Ocircumflex" unicode="&#xd4;" horiz-adv-x="770" 
d="M211.5 23.5q-67.5 37.5 -106 107.5t-38.5 164q0 106 47 202.5t134 156.5t200 60q90 0 156 -36.5t102 -106t36 -167.5q0 -107 -43.5 -203t-129 -155.5t-204.5 -59.5q-86 0 -153.5 37.5zM533 89q72 51 110.5 134t38.5 176q0 130 -64.5 196.5t-179.5 66.5q-89 0 -160 -52.5
t-111 -136.5t-40 -173q0 -80 31.5 -139.5t86 -91t121.5 -31.5q95 0 167 51zM485 904h54l73 -138h-50l-61 78l-86 -78h-56z" />
    <glyph glyph-name="Otilde" unicode="&#xd5;" horiz-adv-x="770" 
d="M211.5 23.5q-67.5 37.5 -106 107.5t-38.5 164q0 106 47 202.5t134 156.5t200 60q90 0 156 -36.5t102 -106t36 -167.5q0 -107 -43.5 -203t-129 -155.5t-204.5 -59.5q-86 0 -153.5 37.5zM533 89q72 51 110.5 134t38.5 176q0 130 -64.5 196.5t-179.5 66.5q-89 0 -160 -52.5
t-111 -136.5t-40 -173q0 -80 31.5 -139.5t86 -91t121.5 -31.5q95 0 167 51zM519.5 780q-18.5 10 -38.5 30q-15 15 -25.5 21.5t-27.5 6.5t-27.5 -11t-10.5 -27q0 -8 2 -16l-51 -10q-4 12 -4 27q0 38 23.5 62.5t69.5 24.5q30 0 48.5 -10.5t37.5 -29.5q15 -14 26.5 -21t26.5 -7
q17 0 27 10.5t10 26.5q0 7 -2 17l51 10q4 -18 4 -31q0 -40 -24 -61.5t-64 -21.5q-33 0 -51.5 10z" />
    <glyph glyph-name="Odieresis" unicode="&#xd6;" horiz-adv-x="770" 
d="M211.5 23.5q-67.5 37.5 -106 107.5t-38.5 164q0 106 47 202.5t134 156.5t200 60q90 0 156 -36.5t102 -106t36 -167.5q0 -107 -43.5 -203t-129 -155.5t-204.5 -59.5q-86 0 -153.5 37.5zM533 89q72 51 110.5 134t38.5 176q0 130 -64.5 196.5t-179.5 66.5q-89 0 -160 -52.5
t-111 -136.5t-40 -173q0 -80 31.5 -139.5t86 -91t121.5 -31.5q95 0 167 51zM393 874h80l-15 -76h-80zM541 874h80l-15 -76h-80z" />
    <glyph glyph-name="multiply" unicode="&#xd7;" horiz-adv-x="481" 
d="M84 243l147 123l-97 122l36 31l98 -122l146 122l29 -35l-147 -123l97 -119l-37 -30l-95 119l-149 -124z" />
    <glyph glyph-name="Oslash" unicode="&#xd8;" horiz-adv-x="770" 
d="M718 545q24 -61 24 -141q0 -107 -43.5 -203t-129 -155.5t-204.5 -59.5q-92 0 -161 42l-37 -52l-43 26l40 55q-47 40 -72 101t-25 137q0 106 47 202.5t134 156.5t200 60q94 0 160 -39l35 49l43 -26l-37 -52q45 -40 69 -101zM145.5 190q18.5 -49 52.5 -84l377 523
q-57 33 -137 33q-89 0 -160 -52.5t-111 -136.5t-40 -173q0 -61 18.5 -110zM533 89q72 51 110.5 134t38.5 176q0 133 -68 199l-377 -524q57 -36 129 -36q95 0 167 51z" />
    <glyph glyph-name="Ugrave" unicode="&#xd9;" horiz-adv-x="652" 
d="M126.5 39q-56.5 53 -56.5 146q0 37 7 72l86 443h60l-91 -468q-4 -23 -4 -47q0 -65 41 -106t115 -41q91 0 150.5 48.5t75.5 130.5l94 483h60l-93 -482q-23 -116 -100 -174t-195 -58q-93 0 -149.5 53zM325 904h82l42 -138h-52z" />
    <glyph glyph-name="Uacute" unicode="&#xda;" horiz-adv-x="652" 
d="M126.5 39q-56.5 53 -56.5 146q0 37 7 72l86 443h60l-91 -468q-4 -23 -4 -47q0 -65 41 -106t115 -41q91 0 150.5 48.5t75.5 130.5l94 483h60l-93 -482q-23 -116 -100 -174t-195 -58q-93 0 -149.5 53zM486 904h89l-124 -138h-52z" />
    <glyph glyph-name="Ucircumflex" unicode="&#xdb;" horiz-adv-x="652" 
d="M126.5 39q-56.5 53 -56.5 146q0 37 7 72l86 443h60l-91 -468q-4 -23 -4 -47q0 -65 41 -106t115 -41q91 0 150.5 48.5t75.5 130.5l94 483h60l-93 -482q-23 -116 -100 -174t-195 -58q-93 0 -149.5 53zM423 904h54l73 -138h-50l-61 78l-86 -78h-56z" />
    <glyph glyph-name="Udieresis" unicode="&#xdc;" horiz-adv-x="652" 
d="M126.5 39q-56.5 53 -56.5 146q0 37 7 72l86 443h60l-91 -468q-4 -23 -4 -47q0 -65 41 -106t115 -41q91 0 150.5 48.5t75.5 130.5l94 483h60l-93 -482q-23 -116 -100 -174t-195 -58q-93 0 -149.5 53zM331 874h80l-15 -76h-80zM479 874h80l-15 -76h-80z" />
    <glyph glyph-name="Yacute" unicode="&#xdd;" horiz-adv-x="526" 
d="M242 292l-151 408h67l106 -313q9 -28 14 -49q8 14 30 44l234 318h69l-309 -408l-57 -292h-60zM422 904h89l-124 -138h-52z" />
    <glyph glyph-name="Thorn" unicode="&#xde;" horiz-adv-x="661" 
d="M181 700h60l-27 -135h196q106 0 161 -51t55 -142q0 -73 -34.5 -126.5t-97 -82t-144.5 -28.5h-219l-27 -135h-60zM352 187q102 0 158 50t56 136q0 68 -41 104t-120 36h-201l-63 -326h211z" />
    <glyph glyph-name="germandbls" unicode="&#xdf;" horiz-adv-x="584" 
d="M220 0q-37 14 -63 40l35 48q19 -23 50 -37.5t68 -14.5q69 0 113.5 46.5t44.5 122.5q0 71 -47.5 111t-129.5 40h-19l10 52h16q84 0 140 40t56 106q0 54 -33 82t-86 28q-54 0 -96 -37t-56 -110l-101 -517h-60l89 452h-84l8 44h84l3 18q17 102 74 151t144 49q75 0 123.5 -40
t48.5 -118q0 -58 -41 -106t-105 -65q55 -22 88.5 -65.5t33.5 -103.5q0 -70 -28.5 -122t-80.5 -80t-120 -28q-42 0 -79 14z" />
    <glyph glyph-name="agrave" unicode="&#xe0;" horiz-adv-x="592" 
d="M138 16q-47 30 -72 82.5t-25 117.5q0 83 35.5 150t98 105.5t140.5 38.5q61 0 105.5 -28t63.5 -81l19 95h60l-97 -496h-60l16 81q-32 -50 -75 -72.5t-99 -22.5q-63 0 -110 30zM362.5 71q47.5 35 74 94t26.5 128q0 77 -40 122t-110 45q-61 0 -109.5 -33t-75.5 -89t-27 -123
q0 -78 41.5 -128.5t112.5 -50.5q60 0 107.5 35zM229 700h82l42 -138h-52z" />
    <glyph glyph-name="aacute" unicode="&#xe1;" horiz-adv-x="592" 
d="M138 16q-47 30 -72 82.5t-25 117.5q0 83 35.5 150t98 105.5t140.5 38.5q61 0 105.5 -28t63.5 -81l19 95h60l-97 -496h-60l16 81q-32 -50 -75 -72.5t-99 -22.5q-63 0 -110 30zM362.5 71q47.5 35 74 94t26.5 128q0 77 -40 122t-110 45q-61 0 -109.5 -33t-75.5 -89t-27 -123
q0 -78 41.5 -128.5t112.5 -50.5q60 0 107.5 35zM390 700h89l-124 -138h-52z" />
    <glyph glyph-name="acircumflex" unicode="&#xe2;" horiz-adv-x="592" 
d="M138 16q-47 30 -72 82.5t-25 117.5q0 83 35.5 150t98 105.5t140.5 38.5q61 0 105.5 -28t63.5 -81l19 95h60l-97 -496h-60l16 81q-32 -50 -75 -72.5t-99 -22.5q-63 0 -110 30zM362.5 71q47.5 35 74 94t26.5 128q0 77 -40 122t-110 45q-61 0 -109.5 -33t-75.5 -89t-27 -123
q0 -78 41.5 -128.5t112.5 -50.5q60 0 107.5 35zM327 700h54l73 -138h-50l-61 78l-86 -78h-56z" />
    <glyph glyph-name="atilde" unicode="&#xe3;" horiz-adv-x="592" 
d="M138 16q-47 30 -72 82.5t-25 117.5q0 83 35.5 150t98 105.5t140.5 38.5q61 0 105.5 -28t63.5 -81l19 95h60l-97 -496h-60l16 81q-32 -50 -75 -72.5t-99 -22.5q-63 0 -110 30zM362.5 71q47.5 35 74 94t26.5 128q0 77 -40 122t-110 45q-61 0 -109.5 -33t-75.5 -89t-27 -123
q0 -78 41.5 -128.5t112.5 -50.5q60 0 107.5 35zM361 576.5q-19 10.5 -38 29.5q-14 15 -25 21.5t-28 6.5t-27.5 -11t-10.5 -27q0 -8 2 -16l-51 -10q-4 12 -4 27q0 38 23.5 62.5t69.5 24.5q30 0 48.5 -10.5t37.5 -29.5q15 -14 26.5 -21t26.5 -7q17 0 27 10.5t10 26.5
q0 7 -2 17l51 10q4 -18 4 -31q0 -40 -24 -61.5t-64 -21.5q-33 0 -52 10.5z" />
    <glyph glyph-name="adieresis" unicode="&#xe4;" horiz-adv-x="592" 
d="M138 16q-47 30 -72 82.5t-25 117.5q0 83 35.5 150t98 105.5t140.5 38.5q61 0 105.5 -28t63.5 -81l19 95h60l-97 -496h-60l16 81q-32 -50 -75 -72.5t-99 -22.5q-63 0 -110 30zM362.5 71q47.5 35 74 94t26.5 128q0 77 -40 122t-110 45q-61 0 -109.5 -33t-75.5 -89t-27 -123
q0 -78 41.5 -128.5t112.5 -50.5q60 0 107.5 35zM235 670h80l-15 -76h-80zM383 670h80l-15 -76h-80z" />
    <glyph glyph-name="aring" unicode="&#xe5;" horiz-adv-x="592" 
d="M138 16q-47 30 -72 82.5t-25 117.5q0 83 35.5 150t98 105.5t140.5 38.5q61 0 105.5 -28t63.5 -81l19 95h60l-97 -496h-60l16 81q-32 -50 -75 -72.5t-99 -22.5q-63 0 -110 30zM362.5 71q47.5 35 74 94t26.5 128q0 77 -40 122t-110 45q-61 0 -109.5 -33t-75.5 -89t-27 -123
q0 -78 41.5 -128.5t112.5 -50.5q60 0 107.5 35zM274 567.5q-28 27.5 -28 67.5t28 67.5t68 27.5t68 -27.5t28 -67.5t-28 -67.5t-68 -27.5t-68 27.5zM379 597.5q15 15.5 15 37.5t-15 37.5t-37 15.5t-37 -15.5t-15 -37.5t15 -37.5t37 -15.5t37 15.5z" />
    <glyph glyph-name="ae" unicode="&#xe6;" horiz-adv-x="986" 
d="M138 16q-47 30 -72 82.5t-25 117.5q0 83 35.5 150t98 105.5t140.5 38.5q61 0 105.5 -28t63.5 -81l19 95h60l-12 -67q33 39 80 60t106 21q67 0 115 -26t73 -71.5t25 -102.5q0 -18 -5 -48l-4 -19h-425q-2 -10 -2 -33q0 -47 21 -87t59.5 -63.5t87.5 -23.5q65 0 108.5 32
t80.5 97l43 -28q-42 -78 -100.5 -114.5t-138.5 -36.5q-63 0 -114.5 28.5t-75.5 84.5l-19 -99h-60l16 81q-32 -50 -75 -72.5t-99 -22.5q-63 0 -110 30zM362.5 71q47.5 35 73.5 94t26 128q0 77 -39.5 122t-109.5 45q-61 0 -109.5 -33t-75.5 -89t-27 -123q0 -78 41.5 -128.5
t112.5 -50.5q60 0 107.5 35zM890 293q2 15 2 30q0 59 -44.5 98t-114.5 39q-74 0 -131 -45t-75 -122h363z" />
    <glyph glyph-name="ccedilla" unicode="&#xe7;" horiz-adv-x="554" 
d="M374.5 69.5q45.5 31.5 83.5 92.5l40 -30q-41 -74 -99.5 -110t-137.5 -36h-6l-30 -45q22 15 47 15q29 0 47 -18t18 -52q0 -41 -26.5 -65.5t-74.5 -24.5q-33 0 -51.5 16.5t-24.5 44.5l40 9q7 -30 42 -30q20 0 33.5 12t13.5 35q0 17 -11 26.5t-28 9.5q-14 0 -24.5 -5
t-24.5 -15l-23 26l35 65q-79 15 -125.5 75.5t-46.5 152.5q0 74 34.5 141t100.5 109t155 42q71 0 122.5 -36.5t75.5 -99.5l-46 -26q-24 57 -64.5 83.5t-98.5 26.5q-63 0 -112 -33.5t-76.5 -88.5t-27.5 -117q0 -85 45.5 -133t114.5 -48q65 0 110.5 31.5z" />
    <glyph glyph-name="egrave" unicode="&#xe8;" horiz-adv-x="574" 
d="M152 12q-50 26 -80 80t-30 134q0 78 37 143t101.5 103t144.5 38q67 0 115 -26t73 -71.5t25 -102.5q0 -21 -5 -48l-4 -19h-427q-2 -10 -2 -33q0 -47 21.5 -87t60.5 -63.5t88 -23.5q65 0 108.5 32t80.5 97l43 -28q-42 -78 -100.5 -114.5t-138.5 -36.5q-61 0 -111 26z
M478 293q2 15 2 30q0 59 -44.5 98t-114.5 39q-74 0 -131 -45t-75 -122h363zM242 700h82l42 -138h-52z" />
    <glyph glyph-name="eacute" unicode="&#xe9;" horiz-adv-x="574" 
d="M152 12q-50 26 -80 80t-30 134q0 78 37 143t101.5 103t144.5 38q67 0 115 -26t73 -71.5t25 -102.5q0 -21 -5 -48l-4 -19h-427q-2 -10 -2 -33q0 -47 21.5 -87t60.5 -63.5t88 -23.5q65 0 108.5 32t80.5 97l43 -28q-42 -78 -100.5 -114.5t-138.5 -36.5q-61 0 -111 26z
M478 293q2 15 2 30q0 59 -44.5 98t-114.5 39q-74 0 -131 -45t-75 -122h363zM403 700h89l-124 -138h-52z" />
    <glyph glyph-name="ecircumflex" unicode="&#xea;" horiz-adv-x="574" 
d="M152 12q-50 26 -80 80t-30 134q0 78 37 143t101.5 103t144.5 38q67 0 115 -26t73 -71.5t25 -102.5q0 -21 -5 -48l-4 -19h-427q-2 -10 -2 -33q0 -47 21.5 -87t60.5 -63.5t88 -23.5q65 0 108.5 32t80.5 97l43 -28q-42 -78 -100.5 -114.5t-138.5 -36.5q-61 0 -111 26z
M478 293q2 15 2 30q0 59 -44.5 98t-114.5 39q-74 0 -131 -45t-75 -122h363zM340 700h54l73 -138h-50l-61 78l-86 -78h-56z" />
    <glyph glyph-name="edieresis" unicode="&#xeb;" horiz-adv-x="574" 
d="M152 12q-50 26 -80 80t-30 134q0 78 37 143t101.5 103t144.5 38q67 0 115 -26t73 -71.5t25 -102.5q0 -21 -5 -48l-4 -19h-427q-2 -10 -2 -33q0 -47 21.5 -87t60.5 -63.5t88 -23.5q65 0 108.5 32t80.5 97l43 -28q-42 -78 -100.5 -114.5t-138.5 -36.5q-61 0 -111 26z
M478 293q2 15 2 30q0 59 -44.5 98t-114.5 39q-74 0 -131 -45t-75 -122h363zM248 670h80l-15 -76h-80zM396 670h80l-15 -76h-80z" />
    <glyph glyph-name="igrave" unicode="&#xec;" horiz-adv-x="212" 
d="M124 496h60l-97 -496h-60zM68 700h82l42 -138h-52z" />
    <glyph glyph-name="iacute" unicode="&#xed;" horiz-adv-x="212" 
d="M124 496h60l-97 -496h-60zM229 700h89l-124 -138h-52z" />
    <glyph glyph-name="icircumflex" unicode="&#xee;" horiz-adv-x="212" 
d="M124 496h60l-97 -496h-60zM166 700h54l73 -138h-50l-61 78l-86 -78h-56z" />
    <glyph glyph-name="idieresis" unicode="&#xef;" horiz-adv-x="212" 
d="M124 496h60l-97 -496h-60zM74 670h80l-15 -76h-80zM222 670h80l-15 -76h-80z" />
    <glyph glyph-name="eth" unicode="&#xf0;" horiz-adv-x="574" 
d="M149 11q-48 25 -78 73t-30 112q0 69 33 130t94.5 98.5t141.5 37.5q58 0 107.5 -31t67.5 -75q-6 128 -71 212l-132 -48l-15 47l112 40q-52 47 -127 88l29 42q96 -48 154 -110l104 38l15 -45l-87 -32q71 -98 71 -235q0 -105 -32 -188t-97 -131t-159 -48q-53 0 -101 25z
M362 65.5q46 29.5 72.5 80.5t26.5 113q0 69 -45 111t-117 42q-55 0 -101 -30t-72 -79.5t-26 -102.5q0 -78 46 -121t113 -43q57 0 103 29.5z" />
    <glyph glyph-name="ntilde" unicode="&#xf1;" horiz-adv-x="558" 
d="M125 496h60l-15 -77q67 91 182 91q64 0 105.5 -35t41.5 -104q0 -21 -4 -45l-63 -326h-60l64 330q3 18 3 35q0 45 -29 70t-78 25q-41 0 -81 -23.5t-68.5 -64.5t-38.5 -91l-55 -281h-60zM378 576.5q-19 10.5 -38 29.5q-14 15 -25 21.5t-28 6.5t-27.5 -11t-10.5 -27
q0 -8 2 -16l-51 -10q-4 12 -4 27q0 38 23.5 62.5t69.5 24.5q30 0 48.5 -10.5t37.5 -29.5q15 -14 26.5 -21t26.5 -7q17 0 27 10.5t10 26.5q0 7 -2 17l51 10q4 -18 4 -31q0 -40 -24 -61.5t-64 -21.5q-33 0 -52 10.5z" />
    <glyph glyph-name="ograve" unicode="&#xf2;" horiz-adv-x="592" 
d="M157.5 11.5q-52.5 25.5 -85 76.5t-32.5 124q0 82 36.5 150.5t101.5 108t149 39.5q61 0 112 -24.5t82 -74t31 -120.5q0 -86 -36.5 -156t-101 -109.5t-144.5 -39.5q-60 0 -112.5 25.5zM383 68.5q50 32.5 79.5 89t29.5 123.5q0 82 -47.5 130.5t-126.5 48.5q-62 0 -112 -35.5
t-78 -92.5t-28 -118q0 -79 48.5 -128.5t126.5 -49.5q58 0 108 32.5zM252 700h82l42 -138h-52z" />
    <glyph glyph-name="oacute" unicode="&#xf3;" horiz-adv-x="592" 
d="M157.5 11.5q-52.5 25.5 -85 76.5t-32.5 124q0 82 36.5 150.5t101.5 108t149 39.5q61 0 112 -24.5t82 -74t31 -120.5q0 -86 -36.5 -156t-101 -109.5t-144.5 -39.5q-60 0 -112.5 25.5zM383 68.5q50 32.5 79.5 89t29.5 123.5q0 82 -47.5 130.5t-126.5 48.5q-62 0 -112 -35.5
t-78 -92.5t-28 -118q0 -79 48.5 -128.5t126.5 -49.5q58 0 108 32.5zM413 700h89l-124 -138h-52z" />
    <glyph glyph-name="ocircumflex" unicode="&#xf4;" horiz-adv-x="592" 
d="M157.5 11.5q-52.5 25.5 -85 76.5t-32.5 124q0 82 36.5 150.5t101.5 108t149 39.5q61 0 112 -24.5t82 -74t31 -120.5q0 -86 -36.5 -156t-101 -109.5t-144.5 -39.5q-60 0 -112.5 25.5zM383 68.5q50 32.5 79.5 89t29.5 123.5q0 82 -47.5 130.5t-126.5 48.5q-62 0 -112 -35.5
t-78 -92.5t-28 -118q0 -79 48.5 -128.5t126.5 -49.5q58 0 108 32.5zM350 700h54l73 -138h-50l-61 78l-86 -78h-56z" />
    <glyph glyph-name="otilde" unicode="&#xf5;" horiz-adv-x="592" 
d="M157.5 11.5q-52.5 25.5 -85 76.5t-32.5 124q0 82 36.5 150.5t101.5 108t149 39.5q61 0 112 -24.5t82 -74t31 -120.5q0 -86 -36.5 -156t-101 -109.5t-144.5 -39.5q-60 0 -112.5 25.5zM383 68.5q50 32.5 79.5 89t29.5 123.5q0 82 -47.5 130.5t-126.5 48.5q-62 0 -112 -35.5
t-78 -92.5t-28 -118q0 -79 48.5 -128.5t126.5 -49.5q58 0 108 32.5zM384 576.5q-19 10.5 -38 29.5q-14 15 -25 21.5t-28 6.5t-27.5 -11t-10.5 -27q0 -8 2 -16l-51 -10q-4 12 -4 27q0 38 23.5 62.5t69.5 24.5q30 0 48.5 -10.5t37.5 -29.5q15 -14 26.5 -21t26.5 -7
q17 0 27 10.5t10 26.5q0 7 -2 17l51 10q4 -18 4 -31q0 -40 -24 -61.5t-64 -21.5q-33 0 -52 10.5z" />
    <glyph glyph-name="odieresis" unicode="&#xf6;" horiz-adv-x="592" 
d="M157.5 11.5q-52.5 25.5 -85 76.5t-32.5 124q0 82 36.5 150.5t101.5 108t149 39.5q61 0 112 -24.5t82 -74t31 -120.5q0 -86 -36.5 -156t-101 -109.5t-144.5 -39.5q-60 0 -112.5 25.5zM383 68.5q50 32.5 79.5 89t29.5 123.5q0 82 -47.5 130.5t-126.5 48.5q-62 0 -112 -35.5
t-78 -92.5t-28 -118q0 -79 48.5 -128.5t126.5 -49.5q58 0 108 32.5zM258 670h80l-15 -76h-80zM406 670h80l-15 -76h-80z" />
    <glyph glyph-name="divide" unicode="&#xf7;" horiz-adv-x="488" 
d="M247 472h80l-16 -82h-80zM172 82h80l-16 -82h-80zM51 261h392l-9 -46h-392z" />
    <glyph glyph-name="oslash" unicode="&#xf8;" horiz-adv-x="592" 
d="M552 291q0 -86 -36.5 -156t-101 -109.5t-144.5 -39.5q-69 0 -124 31l-36 -46l-42 26l39 49q-67 62 -67 166q0 82 36.5 150.5t101.5 108t149 39.5q66 0 121 -29l34 44l42 -26l-36 -46q64 -61 64 -162zM143 92l270 344q-40 24 -95 24q-62 0 -112 -35.5t-78 -92.5t-28 -118
q0 -74 43 -122zM383 68.5q50 32.5 79.5 89t29.5 123.5q0 77 -42 124l-270 -344q42 -25 95 -25q58 0 108 32.5z" />
    <glyph glyph-name="ugrave" unicode="&#xf9;" horiz-adv-x="558" 
d="M103.5 26q-42.5 40 -42.5 109q0 22 4 46l61 315h60l-61 -314q-4 -21 -4 -41q0 -47 29 -76t81 -29q39 0 78 24.5t68 70t41 105.5l51 260h60l-96 -496h-60l15 77q-27 -43 -72.5 -67t-99.5 -24q-70 0 -112.5 40zM241 700h82l42 -138h-52z" />
    <glyph glyph-name="uacute" unicode="&#xfa;" horiz-adv-x="558" 
d="M103.5 26q-42.5 40 -42.5 109q0 22 4 46l61 315h60l-61 -314q-4 -21 -4 -41q0 -47 29 -76t81 -29q39 0 78 24.5t68 70t41 105.5l51 260h60l-96 -496h-60l15 77q-27 -43 -72.5 -67t-99.5 -24q-70 0 -112.5 40zM402 700h89l-124 -138h-52z" />
    <glyph glyph-name="ucircumflex" unicode="&#xfb;" horiz-adv-x="558" 
d="M103.5 26q-42.5 40 -42.5 109q0 22 4 46l61 315h60l-61 -314q-4 -21 -4 -41q0 -47 29 -76t81 -29q39 0 78 24.5t68 70t41 105.5l51 260h60l-96 -496h-60l15 77q-27 -43 -72.5 -67t-99.5 -24q-70 0 -112.5 40zM339 700h54l73 -138h-50l-61 78l-86 -78h-56z" />
    <glyph glyph-name="udieresis" unicode="&#xfc;" horiz-adv-x="558" 
d="M103.5 26q-42.5 40 -42.5 109q0 22 4 46l61 315h60l-61 -314q-4 -21 -4 -41q0 -47 29 -76t81 -29q39 0 78 24.5t68 70t41 105.5l51 260h60l-96 -496h-60l15 77q-27 -43 -72.5 -67t-99.5 -24q-70 0 -112.5 40zM247 670h80l-15 -76h-80zM395 670h80l-15 -76h-80z" />
    <glyph glyph-name="yacute" unicode="&#xfd;" horiz-adv-x="477" 
d="M-33 -202l19 53q18 -8 37 -8q24 0 39.5 11.5t32.5 41.5l65 111l-105 489h60l88 -418l245 418h68l-368 -617q-32 -53 -59.5 -71.5t-73.5 -18.5q-25 0 -48 9zM348 700h89l-124 -138h-52z" />
    <glyph glyph-name="thorn" unicode="&#xfe;" horiz-adv-x="592" 
d="M162 700h60l-53 -279q24 39 73.5 64t105.5 25q59 0 105 -27t72.5 -78t26.5 -122q0 -75 -34.5 -143.5t-99 -111t-149.5 -42.5q-59 0 -104 29t-62 70l-56 -289h-60zM390.5 71q47.5 35 74.5 92t27 122q0 84 -43 129.5t-115 45.5q-55 0 -103.5 -34t-78 -93t-29.5 -129
q0 -76 44 -122t117 -46q59 0 106.5 35z" />
    <glyph glyph-name="ydieresis" unicode="&#xff;" horiz-adv-x="477" 
d="M-33 -202l19 53q18 -8 37 -8q24 0 39.5 11.5t32.5 41.5l65 111l-105 489h60l88 -418l245 418h68l-368 -617q-32 -53 -59.5 -71.5t-73.5 -18.5q-25 0 -48 9zM193 670h80l-15 -76h-80zM341 670h80l-15 -76h-80z" />
    <glyph glyph-name="Amacron" unicode="&#x100;" horiz-adv-x="636" 
d="M373 700h67l141 -700h-60l-43 217h-326l-128 -217h-66zM468 267l-65 329q-4 21 -5 30t-2 12q-11 -22 -23 -42l-193 -329h288zM336 866h206l-11 -54h-206z" />
    <glyph glyph-name="amacron" unicode="&#x101;" horiz-adv-x="592" 
d="M138 16q-47 30 -72 82.5t-25 117.5q0 83 35.5 150t98 105.5t140.5 38.5q61 0 105.5 -28t63.5 -81l19 95h60l-97 -496h-60l16 81q-32 -50 -75 -72.5t-99 -22.5q-63 0 -110 30zM362.5 71q47.5 35 74 94t26.5 128q0 77 -40 122t-110 45q-61 0 -109.5 -33t-75.5 -89t-27 -123
q0 -78 41.5 -128.5t112.5 -50.5q60 0 107.5 35zM245 662h206l-11 -54h-206z" />
    <glyph glyph-name="Abreve" unicode="&#x102;" horiz-adv-x="636" 
d="M373 700h67l141 -700h-60l-43 217h-326l-128 -217h-66zM468 267l-65 329q-4 21 -5 30t-2 12q-11 -22 -23 -42l-193 -329h288zM365 798q-23 24 -23 56q0 11 2 19h57l-1 -11q0 -16 8.5 -25t23.5 -9q19 0 32 12t17 33h57q-16 -99 -113 -99q-37 0 -60 24z" />
    <glyph glyph-name="abreve" unicode="&#x103;" horiz-adv-x="592" 
d="M138 16q-47 30 -72 82.5t-25 117.5q0 83 35.5 150t98 105.5t140.5 38.5q61 0 105.5 -28t63.5 -81l19 95h60l-97 -496h-60l16 81q-32 -50 -75 -72.5t-99 -22.5q-63 0 -110 30zM362.5 71q47.5 35 74 94t26.5 128q0 77 -40 122t-110 45q-61 0 -109.5 -33t-75.5 -89t-27 -123
q0 -78 41.5 -128.5t112.5 -50.5q60 0 107.5 35zM274 594q-23 24 -23 56q0 11 2 19h57l-1 -11q0 -16 8.5 -25t23.5 -9q19 0 32 12t17 33h57q-16 -99 -113 -99q-37 0 -60 24z" />
    <glyph glyph-name="Aogonek" unicode="&#x104;" horiz-adv-x="636" 
d="M503.5 -124.5q13.5 -11.5 33.5 -11.5q6 0 18 2l-3 -58q-19 -6 -39 -6q-37 0 -60 20t-23 60q0 41 25 71.5t65 49.5l-42 214h-326l-128 -217h-66l415 700h67l141 -700q-35 -15 -63 -40t-28 -53q0 -20 13.5 -31.5zM468 267l-65 329q-4 21 -5 30t-2 12q-11 -22 -23 -42
l-193 -329h288z" />
    <glyph glyph-name="aogonek" unicode="&#x105;" horiz-adv-x="592" 
d="M403 -40q-28 -25 -28 -53q0 -20 13.5 -31.5t33.5 -11.5q6 0 18 2l-3 -58q-20 -6 -39 -6q-37 0 -60 20t-23 60q0 42 25.5 72.5t66.5 49.5l15 77q-32 -50 -75 -72.5t-99 -22.5q-63 0 -110 30t-72 82.5t-25 117.5q0 83 35.5 150t98 105.5t140.5 38.5q61 0 105.5 -28
t63.5 -81l19 95h60l-97 -496q-35 -15 -63 -40zM362.5 71q47.5 35 74 94t26.5 128q0 77 -40 122t-110 45q-61 0 -109.5 -33t-75.5 -89t-27 -123q0 -78 41.5 -128.5t112.5 -50.5q60 0 107.5 35z" />
    <glyph glyph-name="Cacute" unicode="&#x106;" horiz-adv-x="729" 
d="M197 25.5q-64 39.5 -97.5 109.5t-33.5 161q0 108 50.5 204t142 155t207.5 59q96 0 162 -48t94 -131l-48 -29q-32 83 -86.5 119.5t-134.5 36.5q-93 0 -167.5 -52t-117 -136.5t-42.5 -175.5q0 -75 29 -134.5t81 -92.5t120 -33q79 0 144 41t114 120l42 -29
q-55 -91 -130 -137.5t-176 -46.5q-89 0 -153 39.5zM538 904h89l-124 -138h-52z" />
    <glyph glyph-name="cacute" unicode="&#x107;" horiz-adv-x="554" 
d="M147 14.5q-50 28.5 -78 81t-28 122.5q0 74 34.5 141t100.5 109t155 42q71 0 122.5 -36.5t75.5 -99.5l-46 -26q-24 57 -64.5 83.5t-98.5 26.5q-63 0 -112 -33.5t-76.5 -88.5t-27.5 -117q0 -85 45.5 -133t114.5 -48q65 0 110.5 31.5t83.5 92.5l40 -30q-41 -74 -99.5 -110
t-137.5 -36q-64 0 -114 28.5zM403 700h89l-124 -138h-52z" />
    <glyph glyph-name="Ccircumflex" unicode="&#x108;" horiz-adv-x="729" 
d="M197 25.5q-64 39.5 -97.5 109.5t-33.5 161q0 108 50.5 204t142 155t207.5 59q96 0 162 -48t94 -131l-48 -29q-32 83 -86.5 119.5t-134.5 36.5q-93 0 -167.5 -52t-117 -136.5t-42.5 -175.5q0 -75 29 -134.5t81 -92.5t120 -33q79 0 144 41t114 120l42 -29
q-55 -91 -130 -137.5t-176 -46.5q-89 0 -153 39.5zM475 904h54l73 -138h-50l-61 78l-86 -78h-56z" />
    <glyph glyph-name="ccircumflex" unicode="&#x109;" horiz-adv-x="554" 
d="M147 14.5q-50 28.5 -78 81t-28 122.5q0 74 34.5 141t100.5 109t155 42q71 0 122.5 -36.5t75.5 -99.5l-46 -26q-24 57 -64.5 83.5t-98.5 26.5q-63 0 -112 -33.5t-76.5 -88.5t-27.5 -117q0 -85 45.5 -133t114.5 -48q65 0 110.5 31.5t83.5 92.5l40 -30q-41 -74 -99.5 -110
t-137.5 -36q-64 0 -114 28.5zM340 700h54l73 -138h-50l-61 78l-86 -78h-56z" />
    <glyph glyph-name="Cdotaccent" unicode="&#x10a;" horiz-adv-x="729" 
d="M197 25.5q-64 39.5 -97.5 109.5t-33.5 161q0 108 50.5 204t142 155t207.5 59q96 0 162 -48t94 -131l-48 -29q-32 83 -86.5 119.5t-134.5 36.5q-93 0 -167.5 -52t-117 -136.5t-42.5 -175.5q0 -75 29 -134.5t81 -92.5t120 -33q79 0 144 41t114 120l42 -29
q-55 -91 -130 -137.5t-176 -46.5q-89 0 -153 39.5zM459 874h76l-16 -80h-76z" />
    <glyph glyph-name="cdotaccent" unicode="&#x10b;" horiz-adv-x="554" 
d="M147 14.5q-50 28.5 -78 81t-28 122.5q0 74 34.5 141t100.5 109t155 42q71 0 122.5 -36.5t75.5 -99.5l-46 -26q-24 57 -64.5 83.5t-98.5 26.5q-63 0 -112 -33.5t-76.5 -88.5t-27.5 -117q0 -85 45.5 -133t114.5 -48q65 0 110.5 31.5t83.5 92.5l40 -30q-41 -74 -99.5 -110
t-137.5 -36q-64 0 -114 28.5zM324 670h76l-16 -80h-76z" />
    <glyph glyph-name="Ccaron" unicode="&#x10c;" horiz-adv-x="729" 
d="M197 25.5q-64 39.5 -97.5 109.5t-33.5 161q0 108 50.5 204t142 155t207.5 59q96 0 162 -48t94 -131l-48 -29q-32 83 -86.5 119.5t-134.5 36.5q-93 0 -167.5 -52t-117 -136.5t-42.5 -175.5q0 -75 29 -134.5t81 -92.5t120 -33q79 0 144 41t114 120l42 -29
q-55 -91 -130 -137.5t-176 -46.5q-89 0 -153 39.5zM376 904h50l61 -78l86 78h56l-126 -138h-54z" />
    <glyph glyph-name="ccaron" unicode="&#x10d;" horiz-adv-x="554" 
d="M147 14.5q-50 28.5 -78 81t-28 122.5q0 74 34.5 141t100.5 109t155 42q71 0 122.5 -36.5t75.5 -99.5l-46 -26q-24 57 -64.5 83.5t-98.5 26.5q-63 0 -112 -33.5t-76.5 -88.5t-27.5 -117q0 -85 45.5 -133t114.5 -48q65 0 110.5 31.5t83.5 92.5l40 -30q-41 -74 -99.5 -110
t-137.5 -36q-64 0 -114 28.5zM241 700h50l61 -78l86 78h56l-126 -138h-54z" />
    <glyph glyph-name="Dcaron" unicode="&#x10e;" horiz-adv-x="670" 
d="M181 700h180q82 0 146 -32.5t100 -97.5t36 -158q0 -118 -50 -211.5t-143.5 -147t-218.5 -53.5h-187zM229 52q112 0 192 46.5t121 128.5t41 185q0 122 -66 179t-179 57h-108l-115 -596h114zM243 904h50l61 -78l86 78h56l-126 -138h-54z" />
    <glyph glyph-name="dcaron" unicode="&#x10f;" horiz-adv-x="662" 
d="M147.5 14q-48.5 28 -76.5 81t-28 124q0 86 34.5 152.5t96 102.5t138.5 36q63 0 109.5 -29t71.5 -80l58 299h60l-136 -700h-60l16 82q-23 -42 -71.5 -69t-101.5 -27q-62 0 -110.5 28zM370 71.5q49 35.5 76.5 94t27.5 123.5q0 50 -22 89t-60 60.5t-84 21.5q-57 0 -103 -31
t-72.5 -86.5t-26.5 -123.5q0 -88 42.5 -135.5t112.5 -47.5q60 0 109 35.5zM644 534l50 90h-33l15 76h74l-15 -76l-77 -98z" />
    <glyph glyph-name="Dcroat" unicode="&#x110;" horiz-adv-x="694" 
d="M128 324h-73l11 52h72l64 324h180q82 0 146.5 -34.5t101 -101t36.5 -159.5q0 -118 -50.5 -210t-144 -143.5t-219.5 -51.5h-187zM250 52q112 0 192.5 45t122 125t41.5 183q0 122 -67.5 182.5t-179.5 60.5h-108l-53 -272h154l-11 -52h-153l-52 -272h114z" />
    <glyph glyph-name="dcroat" unicode="&#x111;" horiz-adv-x="598" 
d="M651 580h-63l-113 -580h-60l16 82q-23 -42 -71.5 -69t-101.5 -27q-62 0 -110.5 28t-76.5 81t-28 124q0 86 34.5 152.5t96 102.5t138.5 36q63 0 109.5 -29t71.5 -80l35 179h-162l10 48h161l14 72h60l-14 -72h64zM370 71.5q49 35.5 76.5 94t27.5 123.5q0 50 -22 89
t-60 60.5t-84 21.5q-57 0 -103 -31t-72.5 -86.5t-26.5 -123.5q0 -88 42.5 -135.5t112.5 -47.5q60 0 109 35.5z" />
    <glyph glyph-name="Emacron" unicode="&#x112;" horiz-adv-x="574" 
d="M181 700h410l-11 -52h-350l-50 -260h322l-10 -52h-322l-55 -284h353l-11 -52h-413zM320 866h206l-11 -54h-206z" />
    <glyph glyph-name="emacron" unicode="&#x113;" horiz-adv-x="574" 
d="M152 12q-50 26 -80 80t-30 134q0 78 37 143t101.5 103t144.5 38q67 0 115 -26t73 -71.5t25 -102.5q0 -21 -5 -48l-4 -19h-427q-2 -10 -2 -33q0 -47 21.5 -87t60.5 -63.5t88 -23.5q65 0 108.5 32t80.5 97l43 -28q-42 -78 -100.5 -114.5t-138.5 -36.5q-61 0 -111 26z
M478 293q2 15 2 30q0 59 -44.5 98t-114.5 39q-74 0 -131 -45t-75 -122h363zM258 662h206l-11 -54h-206z" />
    <glyph glyph-name="Ebreve" unicode="&#x114;" horiz-adv-x="574" 
d="M181 700h410l-11 -52h-350l-50 -260h322l-10 -52h-322l-55 -284h353l-11 -52h-413zM349 798q-23 24 -23 56q0 11 2 19h57l-1 -11q0 -16 8.5 -25t23.5 -9q19 0 32 12t17 33h57q-16 -99 -113 -99q-37 0 -60 24z" />
    <glyph glyph-name="ebreve" unicode="&#x115;" horiz-adv-x="574" 
d="M152 12q-50 26 -80 80t-30 134q0 78 37 143t101.5 103t144.5 38q67 0 115 -26t73 -71.5t25 -102.5q0 -21 -5 -48l-4 -19h-427q-2 -10 -2 -33q0 -47 21.5 -87t60.5 -63.5t88 -23.5q65 0 108.5 32t80.5 97l43 -28q-42 -78 -100.5 -114.5t-138.5 -36.5q-61 0 -111 26z
M478 293q2 15 2 30q0 59 -44.5 98t-114.5 39q-74 0 -131 -45t-75 -122h363zM287 594q-23 24 -23 56q0 11 2 19h57l-1 -11q0 -16 8.5 -25t23.5 -9q19 0 32 12t17 33h57q-16 -99 -113 -99q-37 0 -60 24z" />
    <glyph glyph-name="Edotaccent" unicode="&#x116;" horiz-adv-x="574" 
d="M181 700h410l-11 -52h-350l-50 -260h322l-10 -52h-322l-55 -284h353l-11 -52h-413zM386 874h76l-16 -80h-76z" />
    <glyph glyph-name="edotaccent" unicode="&#x117;" horiz-adv-x="574" 
d="M152 12q-50 26 -80 80t-30 134q0 78 37 143t101.5 103t144.5 38q67 0 115 -26t73 -71.5t25 -102.5q0 -21 -5 -48l-4 -19h-427q-2 -10 -2 -33q0 -47 21.5 -87t60.5 -63.5t88 -23.5q65 0 108.5 32t80.5 97l43 -28q-42 -78 -100.5 -114.5t-138.5 -36.5q-61 0 -111 26z
M478 293q2 15 2 30q0 59 -44.5 98t-114.5 39q-74 0 -131 -45t-75 -122h363zM324 670h76l-16 -80h-76z" />
    <glyph glyph-name="Eogonek" unicode="&#x118;" horiz-adv-x="574" 
d="M230 648l-50 -260h322l-10 -52h-322l-55 -284h353l-11 -52q-35 -15 -63 -40t-28 -53q0 -20 13.5 -31.5t33.5 -11.5q6 0 18 2l-3 -58q-20 -6 -39 -6q-37 0 -60 20t-23 60t23 69.5t60 48.5h-345l137 700h410l-11 -52h-350z" />
    <glyph glyph-name="eogonek" unicode="&#x119;" horiz-adv-x="574" 
d="M440 484q48 -26 73 -71.5t25 -102.5q0 -21 -5 -48l-4 -19h-427q-2 -10 -2 -33q0 -47 21.5 -87t60.5 -63.5t88 -23.5q65 0 108.5 32t80.5 97l43 -28q-58 -108 -152 -138q-35 -16 -61.5 -40t-26.5 -52q0 -20 13.5 -31.5t33.5 -11.5q6 0 18 2l-3 -58q-20 -6 -39 -6
q-37 0 -60 20t-23 60q0 63 60 104q-61 1 -111 27t-79.5 79.5t-29.5 133.5q0 78 37 143t101.5 103t144.5 38q67 0 115 -26zM480 323q0 59 -44.5 98t-114.5 39q-74 0 -131 -45t-75 -122h363q2 15 2 30z" />
    <glyph glyph-name="Ecaron" unicode="&#x11a;" horiz-adv-x="574" 
d="M181 700h410l-11 -52h-350l-50 -260h322l-10 -52h-322l-55 -284h353l-11 -52h-413zM303 904h50l61 -78l86 78h56l-126 -138h-54z" />
    <glyph glyph-name="ecaron" unicode="&#x11b;" horiz-adv-x="574" 
d="M152 12q-50 26 -80 80t-30 134q0 78 37 143t101.5 103t144.5 38q67 0 115 -26t73 -71.5t25 -102.5q0 -21 -5 -48l-4 -19h-427q-2 -10 -2 -33q0 -47 21.5 -87t60.5 -63.5t88 -23.5q65 0 108.5 32t80.5 97l43 -28q-42 -78 -100.5 -114.5t-138.5 -36.5q-61 0 -111 26z
M478 293q2 15 2 30q0 59 -44.5 98t-114.5 39q-74 0 -131 -45t-75 -122h363zM241 700h50l61 -78l86 78h56l-126 -138h-54z" />
    <glyph glyph-name="Gcircumflex" unicode="&#x11c;" horiz-adv-x="750" 
d="M193 25q-61 39 -94 107t-33 152q0 122 51.5 220t142.5 154t205 56q99 0 165 -44.5t98 -124.5l-47 -31q-30 76 -88 112t-138 36q-92 0 -167.5 -51t-118.5 -137.5t-43 -187.5q0 -67 27.5 -124t78 -90.5t115.5 -33.5q67 0 126 37.5t99.5 95.5t54.5 116h-258l10 52h320
l-66 -339h-40v124q-49 -71 -110.5 -104.5t-146.5 -33.5q-82 0 -143 39zM483 904h54l73 -138h-50l-61 78l-86 -78h-56z" />
    <glyph glyph-name="gcircumflex" unicode="&#x11d;" horiz-adv-x="577" 
d="M109.5 -200q-40.5 18 -61.5 48.5t-21 67.5q0 34 17 60l51 -15q-10 -17 -10 -42q0 -39 38 -63t96 -24q82 0 127.5 53t63.5 147l11 58q-27 -41 -70.5 -61.5t-99.5 -20.5t-103 25t-75.5 75t-28.5 120q0 75 31.5 139.5t91.5 103.5t143 39q62 0 110 -26t65 -68l16 80h60
l-92 -471q-24 -122 -87 -182.5t-175 -60.5q-57 0 -97.5 18zM369.5 91.5q46.5 33.5 72 88t25.5 113.5q0 76 -44.5 121.5t-116.5 45.5q-59 0 -105 -33t-71.5 -86.5t-25.5 -113.5q0 -79 44.5 -124t114.5 -45q60 0 106.5 33.5zM330 700h54l73 -138h-50l-61 78l-86 -78h-56z" />
    <glyph glyph-name="Gbreve" unicode="&#x11e;" horiz-adv-x="750" 
d="M193 25q-61 39 -94 107t-33 152q0 122 51.5 220t142.5 154t205 56q99 0 165 -44.5t98 -124.5l-47 -31q-30 76 -88 112t-138 36q-92 0 -167.5 -51t-118.5 -137.5t-43 -187.5q0 -67 27.5 -124t78 -90.5t115.5 -33.5q67 0 126 37.5t99.5 95.5t54.5 116h-258l10 52h320
l-66 -339h-40v124q-49 -71 -110.5 -104.5t-146.5 -33.5q-82 0 -143 39zM430 798q-23 24 -23 56q0 11 2 19h57l-1 -11q0 -16 8.5 -25t23.5 -9q19 0 32 12t17 33h57q-16 -99 -113 -99q-37 0 -60 24z" />
    <glyph glyph-name="gbreve" unicode="&#x11f;" horiz-adv-x="577" 
d="M109.5 -200q-40.5 18 -61.5 48.5t-21 67.5q0 34 17 60l51 -15q-10 -17 -10 -42q0 -39 38 -63t96 -24q82 0 127.5 53t63.5 147l11 58q-27 -41 -70.5 -61.5t-99.5 -20.5t-103 25t-75.5 75t-28.5 120q0 75 31.5 139.5t91.5 103.5t143 39q62 0 110 -26t65 -68l16 80h60
l-92 -471q-24 -122 -87 -182.5t-175 -60.5q-57 0 -97.5 18zM369.5 91.5q46.5 33.5 72 88t25.5 113.5q0 76 -44.5 121.5t-116.5 45.5q-59 0 -105 -33t-71.5 -86.5t-25.5 -113.5q0 -79 44.5 -124t114.5 -45q60 0 106.5 33.5zM277 594q-23 24 -23 56q0 11 2 19h57l-1 -11
q0 -16 8.5 -25t23.5 -9q19 0 32 12t17 33h57q-16 -99 -113 -99q-37 0 -60 24z" />
    <glyph glyph-name="Gdotaccent" unicode="&#x120;" horiz-adv-x="750" 
d="M193 25q-61 39 -94 107t-33 152q0 122 51.5 220t142.5 154t205 56q99 0 165 -44.5t98 -124.5l-47 -31q-30 76 -88 112t-138 36q-92 0 -167.5 -51t-118.5 -137.5t-43 -187.5q0 -67 27.5 -124t78 -90.5t115.5 -33.5q67 0 126 37.5t99.5 95.5t54.5 116h-258l10 52h320
l-66 -339h-40v124q-49 -71 -110.5 -104.5t-146.5 -33.5q-82 0 -143 39zM467 874h76l-16 -80h-76z" />
    <glyph glyph-name="gdotaccent" unicode="&#x121;" horiz-adv-x="577" 
d="M109.5 -200q-40.5 18 -61.5 48.5t-21 67.5q0 34 17 60l51 -15q-10 -17 -10 -42q0 -39 38 -63t96 -24q82 0 127.5 53t63.5 147l11 58q-27 -41 -70.5 -61.5t-99.5 -20.5t-103 25t-75.5 75t-28.5 120q0 75 31.5 139.5t91.5 103.5t143 39q62 0 110 -26t65 -68l16 80h60
l-92 -471q-24 -122 -87 -182.5t-175 -60.5q-57 0 -97.5 18zM369.5 91.5q46.5 33.5 72 88t25.5 113.5q0 76 -44.5 121.5t-116.5 45.5q-59 0 -105 -33t-71.5 -86.5t-25.5 -113.5q0 -79 44.5 -124t114.5 -45q60 0 106.5 33.5zM314 670h76l-16 -80h-76z" />
    <glyph glyph-name="uni0122" unicode="&#x122;" horiz-adv-x="750" 
d="M193 25q-61 39 -94 107t-33 152q0 122 51.5 220t142.5 154t205 56q99 0 165 -44.5t98 -124.5l-47 -31q-30 76 -88 112t-138 36q-92 0 -167.5 -51t-118.5 -137.5t-43 -187.5q0 -67 27.5 -124t78 -90.5t115.5 -33.5q67 0 126 37.5t99.5 95.5t54.5 116h-258l10 52h320
l-66 -339h-40v124q-49 -71 -110.5 -104.5t-146.5 -33.5q-82 0 -143 39zM247 -250l50 108h-30l16 82h80l-16 -82l-85 -114z" />
    <glyph glyph-name="uni0123" unicode="&#x123;" horiz-adv-x="577" 
d="M109.5 -200q-40.5 18 -61.5 48.5t-21 67.5q0 34 17 60l51 -15q-10 -17 -10 -42q0 -39 38 -63t96 -24q82 0 127.5 53t63.5 147l11 58q-27 -41 -70.5 -61.5t-99.5 -20.5t-103 25t-75.5 75t-28.5 120q0 75 31.5 139.5t91.5 103.5t143 39q62 0 110 -26t65 -68l16 80h60
l-92 -471q-24 -122 -87 -182.5t-175 -60.5q-57 0 -97.5 18zM369.5 91.5q46.5 33.5 72 88t25.5 113.5q0 76 -44.5 121.5t-116.5 45.5q-59 0 -105 -33t-71.5 -86.5t-25.5 -113.5q0 -79 44.5 -124t114.5 -45q60 0 106.5 33.5zM295 645l109 115l15 -13l-77 -102h33l-16 -82h-80z
" />
    <glyph glyph-name="Hcircumflex" unicode="&#x124;" horiz-adv-x="676" 
d="M181 700h60l-62 -317h371l62 317h60l-137 -700h-60l65 331h-371l-65 -331h-60zM439 904h54l73 -138h-50l-61 78l-86 -78h-56z" />
    <glyph glyph-name="hcircumflex" unicode="&#x125;" horiz-adv-x="558" 
d="M163 700h60l-56 -283q35 43 83.5 68t102.5 25q67 0 106.5 -34t39.5 -102q0 -25 -6 -57l-62 -317h-60l64 325q4 20 4 36q0 47 -27 73t-78 26q-41 0 -82 -24t-71.5 -66t-40.5 -95l-54 -275h-60zM286 904h54l73 -138h-50l-61 78l-86 -78h-56z" />
    <glyph glyph-name="Hbar" unicode="&#x126;" horiz-adv-x="676" 
d="M738 505h-104l-99 -505h-60l65 331h-371l-65 -331h-60l99 505h-103l10 52h103l28 143h60l-28 -143h371l28 143h60l-28 -143h104zM574 505h-371l-24 -122h371z" />
    <glyph glyph-name="hbar" unicode="&#x127;" horiz-adv-x="558" 
d="M459.5 476q39.5 -34 39.5 -102q0 -25 -6 -57l-62 -317h-60l64 325q4 20 4 36q0 47 -27 73t-78 26q-41 0 -82 -24t-71.5 -66t-40.5 -95l-54 -275h-60l114 580h-65l10 48h64l14 72h60l-14 -72h161l-10 -48h-161l-32 -163q35 43 83.5 68t102.5 25q67 0 106.5 -34z" />
    <glyph glyph-name="Itilde" unicode="&#x128;" horiz-adv-x="245" 
d="M181 700h60l-137 -700h-60zM257.5 780q-18.5 10 -38.5 30q-15 15 -25.5 21.5t-27.5 6.5t-27.5 -11t-10.5 -27q0 -8 2 -16l-51 -10q-4 12 -4 27q0 38 23.5 62.5t69.5 24.5q30 0 48.5 -10.5t37.5 -29.5q15 -14 26.5 -21t26.5 -7q17 0 27 10.5t10 26.5q0 7 -2 17l51 10
q4 -18 4 -31q0 -40 -24 -61.5t-64 -21.5q-33 0 -51.5 10z" />
    <glyph glyph-name="itilde" unicode="&#x129;" horiz-adv-x="212" 
d="M124 496h60l-97 -496h-60zM200 576.5q-19 10.5 -38 29.5q-14 15 -25 21.5t-28 6.5t-27.5 -11t-10.5 -27q0 -8 2 -16l-51 -10q-4 12 -4 27q0 38 23.5 62.5t69.5 24.5q30 0 48.5 -10.5t37.5 -29.5q15 -14 26.5 -21t26.5 -7q17 0 27 10.5t10 26.5q0 7 -2 17l51 10
q4 -18 4 -31q0 -40 -24 -61.5t-64 -21.5q-33 0 -52 10.5z" />
    <glyph glyph-name="Imacron" unicode="&#x12a;" horiz-adv-x="245" 
d="M181 700h60l-137 -700h-60zM141 866h206l-11 -54h-206z" />
    <glyph glyph-name="imacron" unicode="&#x12b;" horiz-adv-x="212" 
d="M124 496h60l-97 -496h-60zM84 662h206l-11 -54h-206z" />
    <glyph glyph-name="Ibreve" unicode="&#x12c;" horiz-adv-x="245" 
d="M181 700h60l-137 -700h-60zM170 798q-23 24 -23 56q0 11 2 19h57l-1 -11q0 -16 8.5 -25t23.5 -9q19 0 32 12t17 33h57q-16 -99 -113 -99q-37 0 -60 24z" />
    <glyph glyph-name="ibreve" unicode="&#x12d;" horiz-adv-x="212" 
d="M124 496h60l-97 -496h-60zM113 594q-23 24 -23 56q0 11 2 19h57l-1 -11q0 -16 8.5 -25t23.5 -9q19 0 32 12t17 33h57q-16 -99 -113 -99q-37 0 -60 24z" />
    <glyph glyph-name="Iogonek" unicode="&#x12e;" horiz-adv-x="245" 
d="M41 -40q-28 -25 -28 -53q0 -20 13.5 -31.5t33.5 -11.5q6 0 18 2l-3 -58q-20 -6 -39 -6q-37 0 -60 20t-23 60q0 42 25.5 72.5t66.5 49.5l136 696h60l-137 -700q-35 -15 -63 -40z" />
    <glyph glyph-name="iogonek" unicode="&#x12f;" horiz-adv-x="212" 
d="M226 670l-16 -80h-76l16 80h76zM124 496h60l-97 -496q-35 -15 -63 -40t-28 -53q0 -20 13.5 -31.5t33.5 -11.5q6 0 18 2l-3 -58q-20 -6 -39 -6q-37 0 -60 20t-23 60q0 42 25.5 72.5t66.5 49.5z" />
    <glyph glyph-name="Idotaccent" unicode="&#x130;" horiz-adv-x="245" 
d="M181 700h60l-137 -700h-60zM207 874h76l-16 -80h-76z" />
    <glyph glyph-name="dotlessi" unicode="&#x131;" horiz-adv-x="212" 
d="M124 496h60l-97 -496h-60z" />
    <glyph glyph-name="IJ" unicode="&#x132;" horiz-adv-x="746" 
d="M181 700h60l-137 -700h-60zM349.5 6.5q-39.5 20.5 -63 56.5t-23.5 79q0 26 5 48l59 -6q-4 -17 -4 -36q0 -49 36.5 -79.5t85.5 -30.5q63 0 106 39t58 114l99 509h60l-98 -505q-41 -209 -234 -209q-47 0 -86.5 20.5z" />
    <glyph glyph-name="ij" unicode="&#x133;" horiz-adv-x="424" 
d="M124 496h60l-97 -496h-60zM150 670h76l-16 -80h-76zM102 -203l15 52q18 -8 37 -8q55 0 68 69l114 586h60l-114 -590q-22 -117 -131 -117q-27 0 -49 8zM364 670h76l-16 -80h-76z" />
    <glyph glyph-name="Jcircumflex" unicode="&#x134;" horiz-adv-x="520" 
d="M123.5 6.5q-39.5 20.5 -63 56.5t-23.5 79q0 26 5 48l59 -6q-4 -17 -4 -36q0 -49 36.5 -79.5t85.5 -30.5q63 0 106 39t58 114l99 509h60l-98 -505q-41 -209 -234 -209q-47 0 -86.5 20.5zM524 904h54l73 -138h-50l-61 78l-86 -78h-56z" />
    <glyph glyph-name="jcircumflex" unicode="&#x135;" horiz-adv-x="212" 
d="M-110 -203l15 52q18 -8 37 -8q55 0 68 69l114 586h60l-114 -590q-22 -117 -131 -117q-27 0 -49 8zM168 700h54l73 -138h-50l-61 78l-86 -78h-56z" />
    <glyph glyph-name="uni0136" unicode="&#x136;" horiz-adv-x="597" 
d="M181 700h60l-65 -339l84 75l303 264h78l-290 -259l176 -441h-68l-158 399l-144 -125l-53 -274h-60zM176 -250l50 108h-30l16 82h80l-16 -82l-85 -114z" />
    <glyph glyph-name="uni0137" unicode="&#x137;" horiz-adv-x="478" 
d="M163 700h60l-78 -400l232 196h80l-199 -170l144 -326h-65l-124 289l-85 -74l-42 -215h-60zM116 -250l50 108h-30l16 82h80l-16 -82l-85 -114z" />
    <glyph glyph-name="kgreenlandic" unicode="&#x138;" horiz-adv-x="472" 
d="M123 496h60l-45 -233l245 233h81l-214 -202l146 -294h-68l-122 250l-87 -79l-33 -171h-60z" />
    <glyph glyph-name="Lacute" unicode="&#x139;" horiz-adv-x="554" 
d="M181 700h60l-126 -648h353l-11 -52h-413zM286 904h89l-124 -138h-52z" />
    <glyph glyph-name="lacute" unicode="&#x13a;" horiz-adv-x="210" 
d="M163 700h60l-137 -700h-60zM268 904h89l-124 -138h-52z" />
    <glyph glyph-name="uni013B" unicode="&#x13b;" horiz-adv-x="554" 
d="M181 700h60l-126 -648h353l-11 -52h-413zM157 -250l50 108h-30l16 82h80l-16 -82l-85 -114z" />
    <glyph glyph-name="uni013C" unicode="&#x13c;" horiz-adv-x="210" 
d="M163 700h60l-137 -700h-60zM-31 -250l50 108h-30l16 82h80l-16 -82l-85 -114z" />
    <glyph glyph-name="Lcaron" unicode="&#x13d;" horiz-adv-x="554" 
d="M181 700h60l-126 -648h353l-11 -52h-413zM454 534l50 90h-33l15 76h74l-15 -76l-77 -98z" />
    <glyph glyph-name="lcaron" unicode="&#x13e;" horiz-adv-x="285" 
d="M163 700h60l-137 -700h-60zM267 534l50 90h-33l15 76h74l-15 -76l-77 -98z" />
    <glyph glyph-name="Ldot" unicode="&#x13f;" horiz-adv-x="554" 
d="M181 700h60l-126 -648h353l-11 -52h-413zM394 391h80l-15 -82h-80z" />
    <glyph glyph-name="ldot" unicode="&#x140;" horiz-adv-x="295" 
d="M163 700h60l-137 -700h-60zM243 392h80l-15 -82h-80z" />
    <glyph glyph-name="Lslash" unicode="&#x141;" horiz-adv-x="554" 
d="M468 52l-11 -52h-413l45 229l-101 -57l12 64l101 58l80 406h60l-72 -368l178 101l-12 -64l-178 -101l-42 -216h353z" />
    <glyph glyph-name="lslash" unicode="&#x142;" horiz-adv-x="210" 
d="M235 384l-83 -46l-66 -338h-60l59 301l-81 -45l11 60l82 45l66 339h60l-59 -301l82 45z" />
    <glyph glyph-name="Nacute" unicode="&#x143;" horiz-adv-x="693" 
d="M181 700h60l250 -562q17 -41 20 -55l120 617h58l-137 -700h-60l-250 562q-17 41 -20 55l-120 -617h-58zM510 904h89l-124 -138h-52z" />
    <glyph glyph-name="nacute" unicode="&#x144;" horiz-adv-x="558" 
d="M125 496h60l-15 -77q67 91 182 91q64 0 105.5 -35t41.5 -104q0 -21 -4 -45l-63 -326h-60l64 330q3 18 3 35q0 45 -29 70t-78 25q-41 0 -81 -23.5t-68.5 -64.5t-38.5 -91l-55 -281h-60zM407 700h89l-124 -138h-52z" />
    <glyph glyph-name="uni0145" unicode="&#x145;" horiz-adv-x="693" 
d="M181 700h60l250 -562q17 -41 20 -55l120 617h58l-137 -700h-60l-250 562q-17 41 -20 55l-120 -617h-58zM211 -250l50 108h-30l16 82h80l-16 -82l-85 -114z" />
    <glyph glyph-name="uni0146" unicode="&#x146;" horiz-adv-x="558" 
d="M125 496h60l-15 -77q67 91 182 91q64 0 105.5 -35t41.5 -104q0 -21 -4 -45l-63 -326h-60l64 330q3 18 3 35q0 45 -29 70t-78 25q-41 0 -81 -23.5t-68.5 -64.5t-38.5 -91l-55 -281h-60zM148 -250l50 108h-30l16 82h80l-16 -82l-85 -114z" />
    <glyph glyph-name="Ncaron" unicode="&#x147;" horiz-adv-x="693" 
d="M181 700h60l250 -562q17 -41 20 -55l120 617h58l-137 -700h-60l-250 562q-17 41 -20 55l-120 -617h-58zM348 904h50l61 -78l86 78h56l-126 -138h-54z" />
    <glyph glyph-name="ncaron" unicode="&#x148;" horiz-adv-x="558" 
d="M125 496h60l-15 -77q67 91 182 91q64 0 105.5 -35t41.5 -104q0 -21 -4 -45l-63 -326h-60l64 330q3 18 3 35q0 45 -29 70t-78 25q-41 0 -81 -23.5t-68.5 -64.5t-38.5 -91l-55 -281h-60zM245 700h50l61 -78l86 78h56l-126 -138h-54z" />
    <glyph glyph-name="Eng" unicode="&#x14a;" horiz-adv-x="693" 
d="M305.5 -214q-17.5 4 -34.5 13l24 51q28 -16 67 -16q96 0 124 132l7 34l-252 562q-10 22 -19 55l-120 -617h-58l136 700h66l246 -557q9 -20 20 -55l119 612h58l-143 -734q-18 -92 -64.5 -138t-132.5 -46q-26 0 -43.5 4z" />
    <glyph glyph-name="eng" unicode="&#x14b;" horiz-adv-x="558" 
d="M234 -203l15 52q18 -8 37 -8q55 0 68 69l82 420q3 18 3 35q0 45 -29 70t-78 25q-41 0 -81 -23.5t-68.5 -64.5t-38.5 -91l-55 -281h-60l96 496h60l-15 -77q67 91 182 91q64 0 105.5 -35t41.5 -104q0 -21 -4 -45l-81 -420q-22 -117 -131 -117q-27 0 -49 8z" />
    <glyph glyph-name="Omacron" unicode="&#x14c;" horiz-adv-x="770" 
d="M211.5 23.5q-67.5 37.5 -106 107.5t-38.5 164q0 106 47 202.5t134 156.5t200 60q90 0 156 -36.5t102 -106t36 -167.5q0 -107 -43.5 -203t-129 -155.5t-204.5 -59.5q-86 0 -153.5 37.5zM533 89q72 51 110.5 134t38.5 176q0 130 -64.5 196.5t-179.5 66.5q-89 0 -160 -52.5
t-111 -136.5t-40 -173q0 -80 31.5 -139.5t86 -91t121.5 -31.5q95 0 167 51zM403 866h206l-11 -54h-206z" />
    <glyph glyph-name="omacron" unicode="&#x14d;" horiz-adv-x="592" 
d="M157.5 11.5q-52.5 25.5 -85 76.5t-32.5 124q0 82 36.5 150.5t101.5 108t149 39.5q61 0 112 -24.5t82 -74t31 -120.5q0 -86 -36.5 -156t-101 -109.5t-144.5 -39.5q-60 0 -112.5 25.5zM383 68.5q50 32.5 79.5 89t29.5 123.5q0 82 -47.5 130.5t-126.5 48.5q-62 0 -112 -35.5
t-78 -92.5t-28 -118q0 -79 48.5 -128.5t126.5 -49.5q58 0 108 32.5zM268 662h206l-11 -54h-206z" />
    <glyph glyph-name="Obreve" unicode="&#x14e;" horiz-adv-x="770" 
d="M211.5 23.5q-67.5 37.5 -106 107.5t-38.5 164q0 106 47 202.5t134 156.5t200 60q90 0 156 -36.5t102 -106t36 -167.5q0 -107 -43.5 -203t-129 -155.5t-204.5 -59.5q-86 0 -153.5 37.5zM533 89q72 51 110.5 134t38.5 176q0 130 -64.5 196.5t-179.5 66.5q-89 0 -160 -52.5
t-111 -136.5t-40 -173q0 -80 31.5 -139.5t86 -91t121.5 -31.5q95 0 167 51zM432 798q-23 24 -23 56q0 11 2 19h57l-1 -11q0 -16 8.5 -25t23.5 -9q19 0 32 12t17 33h57q-16 -99 -113 -99q-37 0 -60 24z" />
    <glyph glyph-name="obreve" unicode="&#x14f;" horiz-adv-x="592" 
d="M157.5 11.5q-52.5 25.5 -85 76.5t-32.5 124q0 82 36.5 150.5t101.5 108t149 39.5q61 0 112 -24.5t82 -74t31 -120.5q0 -86 -36.5 -156t-101 -109.5t-144.5 -39.5q-60 0 -112.5 25.5zM383 68.5q50 32.5 79.5 89t29.5 123.5q0 82 -47.5 130.5t-126.5 48.5q-62 0 -112 -35.5
t-78 -92.5t-28 -118q0 -79 48.5 -128.5t126.5 -49.5q58 0 108 32.5zM297 594q-23 24 -23 56q0 11 2 19h57l-1 -11q0 -16 8.5 -25t23.5 -9q19 0 32 12t17 33h57q-16 -99 -113 -99q-37 0 -60 24z" />
    <glyph glyph-name="Ohungarumlaut" unicode="&#x150;" horiz-adv-x="770" 
d="M211.5 23.5q-67.5 37.5 -106 107.5t-38.5 164q0 106 47 202.5t134 156.5t200 60q90 0 156 -36.5t102 -106t36 -167.5q0 -107 -43.5 -203t-129 -155.5t-204.5 -59.5q-86 0 -153.5 37.5zM533 89q72 51 110.5 134t38.5 176q0 130 -64.5 196.5t-179.5 66.5q-89 0 -160 -52.5
t-111 -136.5t-40 -173q0 -80 31.5 -139.5t86 -91t121.5 -31.5q95 0 167 51zM446 904h92l-127 -138h-54zM589 904h92l-127 -138h-54z" />
    <glyph glyph-name="ohungarumlaut" unicode="&#x151;" horiz-adv-x="592" 
d="M157.5 11.5q-52.5 25.5 -85 76.5t-32.5 124q0 82 36.5 150.5t101.5 108t149 39.5q61 0 112 -24.5t82 -74t31 -120.5q0 -86 -36.5 -156t-101 -109.5t-144.5 -39.5q-60 0 -112.5 25.5zM383 68.5q50 32.5 79.5 89t29.5 123.5q0 82 -47.5 130.5t-126.5 48.5q-62 0 -112 -35.5
t-78 -92.5t-28 -118q0 -79 48.5 -128.5t126.5 -49.5q58 0 108 32.5zM341 700h92l-127 -138h-54zM484 700h92l-127 -138h-54z" />
    <glyph glyph-name="OE" unicode="&#x152;" horiz-adv-x="1138" 
d="M211.5 23.5q-67.5 37.5 -106 107.5t-38.5 164q0 106 47 202.5t134 156.5t200 60q94 0 161 -43t102 -124l30 153h414l-11 -52h-354l-50 -260h326l-10 -52h-326l-55 -284h357l-11 -52h-417l20 108q-47 -55 -112.5 -88.5t-146.5 -33.5q-86 0 -153.5 37.5zM533 89
q72 51 110.5 134t38.5 177q0 129 -64.5 195.5t-177.5 66.5q-90 0 -161.5 -52.5t-111.5 -136t-40 -173.5q0 -80 31.5 -139.5t86 -91t121.5 -31.5q95 0 167 51z" />
    <glyph glyph-name="oe" unicode="&#x153;" horiz-adv-x="1021" 
d="M157.5 11.5q-52.5 25.5 -85 76.5t-32.5 124q0 82 36.5 150.5t101.5 108t149 39.5q70 0 125.5 -33t81.5 -96q37 60 100 94.5t138 34.5q67 0 115 -26t73 -71.5t25 -102.5q0 -18 -5 -48l-4 -19h-427q-2 -10 -2 -33q0 -47 21.5 -87t60.5 -63.5t88 -23.5q65 0 108.5 32
t80.5 97l43 -28q-42 -78 -100.5 -114.5t-138.5 -36.5q-69 0 -124 33.5t-80 99.5q-37 -62 -98.5 -97.5t-137.5 -35.5q-60 0 -112.5 25.5zM383 68.5q50 32.5 79.5 89t29.5 123.5q0 82 -47.5 130.5t-126.5 48.5q-62 0 -112 -35.5t-78 -92.5t-28 -118q0 -79 48.5 -128.5
t126.5 -49.5q58 0 108 32.5zM925 293q2 15 2 30q0 59 -44.5 98t-114.5 39q-74 0 -131 -45t-75 -122h363z" />
    <glyph glyph-name="Racute" unicode="&#x154;" horiz-adv-x="620" 
d="M181 700h250q95 0 147 -46t52 -127q0 -57 -28.5 -103t-78 -74.5t-109.5 -35.5l114 -314h-64l-116 312h-182l-62 -312h-60zM367 364q86 0 144.5 41.5t58.5 115.5q0 66 -38 96.5t-110 30.5h-190l-56 -284h191zM467 904h89l-124 -138h-52z" />
    <glyph glyph-name="racute" unicode="&#x155;" horiz-adv-x="332" 
d="M125 496h60l-15 -81q29 48 66.5 71.5t89.5 23.5q16 0 32 -4l-14 -52q-19 6 -43 6q-34 0 -66.5 -24t-57 -67.5t-35.5 -97.5l-53 -271h-60zM299 700h89l-124 -138h-52z" />
    <glyph glyph-name="uni0156" unicode="&#x156;" horiz-adv-x="620" 
d="M181 700h250q95 0 147 -46t52 -127q0 -57 -28.5 -103t-78 -74.5t-109.5 -35.5l114 -314h-64l-116 312h-182l-62 -312h-60zM367 364q86 0 144.5 41.5t58.5 115.5q0 66 -38 96.5t-110 30.5h-190l-56 -284h191zM168 -250l50 108h-30l16 82h80l-16 -82l-85 -114z" />
    <glyph glyph-name="uni0157" unicode="&#x157;" horiz-adv-x="332" 
d="M125 496h60l-15 -81q29 48 66.5 71.5t89.5 23.5q16 0 32 -4l-14 -52q-19 6 -43 6q-34 0 -66.5 -24t-57 -67.5t-35.5 -97.5l-53 -271h-60zM-29 -250l50 108h-30l16 82h80l-16 -82l-85 -114z" />
    <glyph glyph-name="Rcaron" unicode="&#x158;" horiz-adv-x="620" 
d="M181 700h250q95 0 147 -46t52 -127q0 -57 -28.5 -103t-78 -74.5t-109.5 -35.5l114 -314h-64l-116 312h-182l-62 -312h-60zM367 364q86 0 144.5 41.5t58.5 115.5q0 66 -38 96.5t-110 30.5h-190l-56 -284h191zM305 904h50l61 -78l86 78h56l-126 -138h-54z" />
    <glyph glyph-name="rcaron" unicode="&#x159;" horiz-adv-x="332" 
d="M125 496h60l-15 -81q29 48 66.5 71.5t89.5 23.5q16 0 32 -4l-14 -52q-19 6 -43 6q-34 0 -66.5 -24t-57 -67.5t-35.5 -97.5l-53 -271h-60zM137 700h50l61 -78l86 78h56l-126 -138h-54z" />
    <glyph glyph-name="Sacute" unicode="&#x15a;" horiz-adv-x="618" 
d="M116 47.5q-62 61.5 -73 154.5l58 29q6 -86 55 -139.5t137 -53.5q49 0 93 20t70.5 57t26.5 86q0 41 -18 67t-53 42t-97 31q-95 24 -142 67t-47 112q0 59 32 103t88.5 67.5t128.5 23.5q82 0 140 -42t80 -124l-51 -31q-40 145 -181 145q-45 0 -86 -16t-66 -46.5t-25 -72.5
q0 -55 42.5 -88.5t131.5 -52.5q89 -20 136 -61.5t47 -110.5q0 -67 -32 -118.5t-89.5 -80.5t-131.5 -29q-112 0 -174 61.5zM469 904h89l-124 -138h-52z" />
    <glyph glyph-name="sacute" unicode="&#x15b;" horiz-adv-x="478" 
d="M95 27q-49 41 -62 103l53 29q8 -53 42.5 -88t89.5 -35q59 0 93 29.5t34 78.5q0 28 -10.5 44.5t-34 28t-68.5 23.5q-139 36 -139 131q0 62 48.5 100.5t123.5 38.5q68 0 109.5 -32t57.5 -87l-47 -24q-28 93 -123 93q-41 0 -77 -22.5t-36 -61.5q0 -37 27 -57.5t94 -36.5
q68 -16 101.5 -48.5t33.5 -85.5q0 -73 -52.5 -117.5t-135.5 -44.5q-73 0 -122 41zM349 700h89l-124 -138h-52z" />
    <glyph glyph-name="Scircumflex" unicode="&#x15c;" horiz-adv-x="618" 
d="M116 47.5q-62 61.5 -73 154.5l58 29q6 -86 55 -139.5t137 -53.5q49 0 93 20t70.5 57t26.5 86q0 41 -18 67t-53 42t-97 31q-95 24 -142 67t-47 112q0 59 32 103t88.5 67.5t128.5 23.5q82 0 140 -42t80 -124l-51 -31q-40 145 -181 145q-45 0 -86 -16t-66 -46.5t-25 -72.5
q0 -55 42.5 -88.5t131.5 -52.5q89 -20 136 -61.5t47 -110.5q0 -67 -32 -118.5t-89.5 -80.5t-131.5 -29q-112 0 -174 61.5zM406 904h54l73 -138h-50l-61 78l-86 -78h-56z" />
    <glyph glyph-name="scircumflex" unicode="&#x15d;" horiz-adv-x="478" 
d="M95 27q-49 41 -62 103l53 29q8 -53 42.5 -88t89.5 -35q59 0 93 29.5t34 78.5q0 28 -10.5 44.5t-34 28t-68.5 23.5q-139 36 -139 131q0 62 48.5 100.5t123.5 38.5q68 0 109.5 -32t57.5 -87l-47 -24q-28 93 -123 93q-41 0 -77 -22.5t-36 -61.5q0 -37 27 -57.5t94 -36.5
q68 -16 101.5 -48.5t33.5 -85.5q0 -73 -52.5 -117.5t-135.5 -44.5q-73 0 -122 41zM286 700h54l73 -138h-50l-61 78l-86 -78h-56z" />
    <glyph glyph-name="Scedilla" unicode="&#x15e;" horiz-adv-x="618" 
d="M277 646q-41 -16 -66 -46.5t-25 -72.5q0 -55 42.5 -88.5t131.5 -52.5q89 -20 136 -61.5t47 -110.5q0 -67 -32 -118.5t-89.5 -80.5t-131.5 -29h-3l-30 -45q22 15 47 15q29 0 47 -18t18 -52q0 -41 -26.5 -65.5t-74.5 -24.5q-33 0 -51.5 16.5t-24.5 44.5l40 9q7 -30 42 -30
q20 0 33.5 12t13.5 35q0 17 -11 26.5t-28 9.5q-14 0 -24.5 -5t-24.5 -15l-23 26l34 64q-90 13 -140.5 71.5t-60.5 141.5l58 29q6 -86 55 -139.5t137 -53.5q49 0 93 20t70.5 57t26.5 86q0 41 -18 67t-53 42t-97 31q-95 24 -142 67t-47 112q0 59 32 103t88.5 67.5t128.5 23.5
q82 0 140 -42t80 -124l-51 -31q-40 145 -181 145q-45 0 -86 -16z" />
    <glyph glyph-name="scedilla" unicode="&#x15f;" horiz-adv-x="478" 
d="M371.5 233.5q33.5 -32.5 33.5 -85.5q0 -73 -52.5 -117.5t-135.5 -44.5q-14 0 -20 1l-31 -46q22 15 47 15q29 0 47 -18t18 -52q0 -41 -26.5 -65.5t-74.5 -24.5q-33 0 -51.5 16.5t-24.5 44.5l40 9q7 -30 42 -30q20 0 33.5 12t13.5 35q0 17 -11 26.5t-28 9.5q-14 0 -24.5 -5
t-24.5 -15l-23 26l37 70q-49 15 -81 51.5t-42 83.5l53 29q8 -53 42.5 -88t89.5 -35q59 0 93 29.5t34 78.5q0 28 -10.5 44.5t-34 28t-68.5 23.5q-139 36 -139 131q0 62 48.5 100.5t123.5 38.5q68 0 109.5 -32t57.5 -87l-47 -24q-28 93 -123 93q-41 0 -77 -22.5t-36 -61.5
q0 -37 27 -57.5t94 -36.5q68 -16 101.5 -48.5z" />
    <glyph glyph-name="Scaron" unicode="&#x160;" horiz-adv-x="618" 
d="M116 47.5q-62 61.5 -73 154.5l58 29q6 -86 55 -139.5t137 -53.5q49 0 93 20t70.5 57t26.5 86q0 41 -18 67t-53 42t-97 31q-95 24 -142 67t-47 112q0 59 32 103t88.5 67.5t128.5 23.5q82 0 140 -42t80 -124l-51 -31q-40 145 -181 145q-45 0 -86 -16t-66 -46.5t-25 -72.5
q0 -55 42.5 -88.5t131.5 -52.5q89 -20 136 -61.5t47 -110.5q0 -67 -32 -118.5t-89.5 -80.5t-131.5 -29q-112 0 -174 61.5zM307 904h50l61 -78l86 78h56l-126 -138h-54z" />
    <glyph glyph-name="scaron" unicode="&#x161;" horiz-adv-x="478" 
d="M95 27q-49 41 -62 103l53 29q8 -53 42.5 -88t89.5 -35q59 0 93 29.5t34 78.5q0 28 -10.5 44.5t-34 28t-68.5 23.5q-139 36 -139 131q0 62 48.5 100.5t123.5 38.5q68 0 109.5 -32t57.5 -87l-47 -24q-28 93 -123 93q-41 0 -77 -22.5t-36 -61.5q0 -37 27 -57.5t94 -36.5
q68 -16 101.5 -48.5t33.5 -85.5q0 -73 -52.5 -117.5t-135.5 -44.5q-73 0 -122 41zM187 700h50l61 -78l86 78h56l-126 -138h-54z" />
    <glyph glyph-name="uni0162" unicode="&#x162;" horiz-adv-x="533" 
d="M601 700l-11 -52h-216l-126 -648h-13l-39 -59q22 15 47 15q29 0 47 -18t18 -52q0 -41 -26.5 -65.5t-74.5 -24.5q-33 0 -51.5 16.5t-24.5 44.5l40 9q7 -30 42 -30q20 0 33.5 12t13.5 35q0 17 -11 26.5t-28 9.5q-14 0 -24.5 -5t-24.5 -15l-23 26l40 75h-1l126 648h-216
l11 52h492z" />
    <glyph glyph-name="uni0163" unicode="&#x163;" horiz-adv-x="332" 
d="M151 119q-3 -16 -3 -29q0 -25 15 -39.5t40 -14.5q17 0 38 6l-3 -48q-23 -8 -55 -8q-9 0 -25 2l-32 -47q22 15 47 15q29 0 47 -18t18 -52q0 -41 -26.5 -65.5t-74.5 -24.5q-33 0 -51.5 16.5t-24.5 44.5l40 9q7 -30 42 -30q20 0 33.5 12t13.5 35q0 17 -11 26.5t-28 9.5
q-14 0 -24.5 -5t-24.5 -15l-23 26l42 79q-33 24 -33 79q0 21 3 36l64 333h-86l9 44h86l26 134h60l-26 -134h119l-9 -44h-119z" />
    <glyph glyph-name="Tcaron" unicode="&#x164;" horiz-adv-x="533" 
d="M314 648h-216l11 52h492l-11 -52h-216l-126 -648h-60zM268 904h50l61 -78l86 78h56l-126 -138h-54z" />
    <glyph glyph-name="tcaron" unicode="&#x165;" horiz-adv-x="332" 
d="M113.5 10q-25.5 24 -25.5 73q0 21 3 36l64 333h-86l9 44h86l26 134h60l-26 -134h119l-9 -44h-119l-64 -333q-3 -16 -3 -29q0 -25 15 -39.5t40 -14.5q17 0 38 6l-3 -48q-23 -8 -55 -8q-44 0 -69.5 24zM308 567l50 90h-33l15 76h74l-15 -76l-77 -98z" />
    <glyph glyph-name="Tbar" unicode="&#x166;" horiz-adv-x="533" 
d="M259 365h-152l11 52h152l44 231h-216l11 52h492l-11 -52h-216l-44 -231h152l-11 -52h-152l-71 -365h-60z" />
    <glyph glyph-name="tbar" unicode="&#x167;" horiz-adv-x="332" 
d="M113.5 10q-25.5 24 -25.5 73q0 21 3 36l23 122h-69l9 42h68l33 169h-86l9 44h86l26 134h60l-26 -134h119l-9 -44h-119l-33 -169h110l-9 -42h-109l-23 -122q-3 -16 -3 -29q0 -25 15 -39.5t40 -14.5q17 0 38 6l-3 -48q-23 -8 -55 -8q-44 0 -69.5 24z" />
    <glyph glyph-name="Utilde" unicode="&#x168;" horiz-adv-x="652" 
d="M126.5 39q-56.5 53 -56.5 146q0 37 7 72l86 443h60l-91 -468q-4 -23 -4 -47q0 -65 41 -106t115 -41q91 0 150.5 48.5t75.5 130.5l94 483h60l-93 -482q-23 -116 -100 -174t-195 -58q-93 0 -149.5 53zM457.5 780q-18.5 10 -38.5 30q-15 15 -25.5 21.5t-27.5 6.5t-27.5 -11
t-10.5 -27q0 -8 2 -16l-51 -10q-4 12 -4 27q0 38 23.5 62.5t69.5 24.5q30 0 48.5 -10.5t37.5 -29.5q15 -14 26.5 -21t26.5 -7q17 0 27 10.5t10 26.5q0 7 -2 17l51 10q4 -18 4 -31q0 -40 -24 -61.5t-64 -21.5q-33 0 -51.5 10z" />
    <glyph glyph-name="utilde" unicode="&#x169;" horiz-adv-x="558" 
d="M103.5 26q-42.5 40 -42.5 109q0 22 4 46l61 315h60l-61 -314q-4 -21 -4 -41q0 -47 29 -76t81 -29q39 0 78 24.5t68 70t41 105.5l51 260h60l-96 -496h-60l15 77q-27 -43 -72.5 -67t-99.5 -24q-70 0 -112.5 40zM373 576.5q-19 10.5 -38 29.5q-14 15 -25 21.5t-28 6.5
t-27.5 -11t-10.5 -27q0 -8 2 -16l-51 -10q-4 12 -4 27q0 38 23.5 62.5t69.5 24.5q30 0 48.5 -10.5t37.5 -29.5q15 -14 26.5 -21t26.5 -7q17 0 27 10.5t10 26.5q0 7 -2 17l51 10q4 -18 4 -31q0 -40 -24 -61.5t-64 -21.5q-33 0 -52 10.5z" />
    <glyph glyph-name="Umacron" unicode="&#x16a;" horiz-adv-x="652" 
d="M126.5 39q-56.5 53 -56.5 146q0 37 7 72l86 443h60l-91 -468q-4 -23 -4 -47q0 -65 41 -106t115 -41q91 0 150.5 48.5t75.5 130.5l94 483h60l-93 -482q-23 -116 -100 -174t-195 -58q-93 0 -149.5 53zM341 866h206l-11 -54h-206z" />
    <glyph glyph-name="umacron" unicode="&#x16b;" horiz-adv-x="558" 
d="M103.5 26q-42.5 40 -42.5 109q0 22 4 46l61 315h60l-61 -314q-4 -21 -4 -41q0 -47 29 -76t81 -29q39 0 78 24.5t68 70t41 105.5l51 260h60l-96 -496h-60l15 77q-27 -43 -72.5 -67t-99.5 -24q-70 0 -112.5 40zM257 662h206l-11 -54h-206z" />
    <glyph glyph-name="Ubreve" unicode="&#x16c;" horiz-adv-x="652" 
d="M126.5 39q-56.5 53 -56.5 146q0 37 7 72l86 443h60l-91 -468q-4 -23 -4 -47q0 -65 41 -106t115 -41q91 0 150.5 48.5t75.5 130.5l94 483h60l-93 -482q-23 -116 -100 -174t-195 -58q-93 0 -149.5 53zM370 798q-23 24 -23 56q0 11 2 19h57l-1 -11q0 -16 8.5 -25t23.5 -9
q19 0 32 12t17 33h57q-16 -99 -113 -99q-37 0 -60 24z" />
    <glyph glyph-name="ubreve" unicode="&#x16d;" horiz-adv-x="558" 
d="M103.5 26q-42.5 40 -42.5 109q0 22 4 46l61 315h60l-61 -314q-4 -21 -4 -41q0 -47 29 -76t81 -29q39 0 78 24.5t68 70t41 105.5l51 260h60l-96 -496h-60l15 77q-27 -43 -72.5 -67t-99.5 -24q-70 0 -112.5 40zM286 594q-23 24 -23 56q0 11 2 19h57l-1 -11q0 -16 8.5 -25
t23.5 -9q19 0 32 12t17 33h57q-16 -99 -113 -99q-37 0 -60 24z" />
    <glyph glyph-name="Uring" unicode="&#x16e;" horiz-adv-x="652" 
d="M126.5 39q-56.5 53 -56.5 146q0 37 7 72l86 443h60l-91 -468q-4 -23 -4 -47q0 -65 41 -106t115 -41q91 0 150.5 48.5t75.5 130.5l94 483h60l-93 -482q-23 -116 -100 -174t-195 -58q-93 0 -149.5 53zM370 771.5q-28 27.5 -28 67.5t28 67.5t68 27.5t68 -27.5t28 -67.5
t-28 -67.5t-68 -27.5t-68 27.5zM475 801.5q15 15.5 15 37.5t-15 37.5t-37 15.5t-37 -15.5t-15 -37.5t15 -37.5t37 -15.5t37 15.5z" />
    <glyph glyph-name="uring" unicode="&#x16f;" horiz-adv-x="558" 
d="M103.5 26q-42.5 40 -42.5 109q0 22 4 46l61 315h60l-61 -314q-4 -21 -4 -41q0 -47 29 -76t81 -29q39 0 78 24.5t68 70t41 105.5l51 260h60l-96 -496h-60l15 77q-27 -43 -72.5 -67t-99.5 -24q-70 0 -112.5 40zM286 567.5q-28 27.5 -28 67.5t28 67.5t68 27.5t68 -27.5
t28 -67.5t-28 -67.5t-68 -27.5t-68 27.5zM391 597.5q15 15.5 15 37.5t-15 37.5t-37 15.5t-37 -15.5t-15 -37.5t15 -37.5t37 -15.5t37 15.5z" />
    <glyph glyph-name="Uhungarumlaut" unicode="&#x170;" horiz-adv-x="652" 
d="M126.5 39q-56.5 53 -56.5 146q0 37 7 72l86 443h60l-91 -468q-4 -23 -4 -47q0 -65 41 -106t115 -41q91 0 150.5 48.5t75.5 130.5l94 483h60l-93 -482q-23 -116 -100 -174t-195 -58q-93 0 -149.5 53zM384 904h92l-127 -138h-54zM527 904h92l-127 -138h-54z" />
    <glyph glyph-name="uhungarumlaut" unicode="&#x171;" horiz-adv-x="558" 
d="M103.5 26q-42.5 40 -42.5 109q0 22 4 46l61 315h60l-61 -314q-4 -21 -4 -41q0 -47 29 -76t81 -29q39 0 78 24.5t68 70t41 105.5l51 260h60l-96 -496h-60l15 77q-27 -43 -72.5 -67t-99.5 -24q-70 0 -112.5 40zM330 700h92l-127 -138h-54zM473 700h92l-127 -138h-54z" />
    <glyph glyph-name="Uogonek" unicode="&#x172;" horiz-adv-x="652" 
d="M664 700l-93 -482q-20 -100 -80 -157t-153 -71q-30 -16 -50.5 -37.5t-20.5 -45.5q0 -20 13.5 -31.5t33.5 -11.5q6 0 18 2l-3 -58q-20 -6 -39 -6q-37 0 -60 20t-23 60q0 63 60 104q-90 3 -143.5 56t-53.5 143q0 37 7 72l86 443h60l-91 -468q-4 -23 -4 -47q0 -65 41 -106
t115 -41q91 0 150.5 48.5t75.5 130.5l94 483h60z" />
    <glyph glyph-name="uogonek" unicode="&#x173;" horiz-adv-x="558" 
d="M370 -40q-28 -25 -28 -53q0 -20 13.5 -31.5t33.5 -11.5q6 0 18 2l-3 -58q-19 -6 -39 -6q-37 0 -60 20t-23 60q0 42 25.5 72.5t66.5 49.5l14 73q-27 -43 -72.5 -67t-99.5 -24q-70 0 -112.5 40t-42.5 109q0 22 4 46l61 315h60l-61 -314q-4 -21 -4 -41q0 -47 29 -76t81 -29
q39 0 78 24.5t68 70t41 105.5l51 260h60l-96 -496q-35 -15 -63 -40z" />
    <glyph glyph-name="Wcircumflex" unicode="&#x174;" horiz-adv-x="876" 
d="M96 700h58l41 -561q4 -48 5 -72q9 24 33 73l257 560h73l38 -557l1 -76q13 34 34 75l260 558h60l-331 -700h-68l-43 635l-290 -635h-69zM538 904h54l73 -138h-50l-61 78l-86 -78h-56z" />
    <glyph glyph-name="wcircumflex" unicode="&#x175;" horiz-adv-x="676" 
d="M62 496h60l28 -431l196 431h74l36 -431l193 431h60l-229 -496h-71l-38 432l-195 -432h-72zM396 700h54l73 -138h-50l-61 78l-86 -78h-56z" />
    <glyph glyph-name="Ycircumflex" unicode="&#x176;" horiz-adv-x="526" 
d="M242 292l-151 408h67l106 -313q9 -28 14 -49q8 14 30 44l234 318h69l-309 -408l-57 -292h-60zM359 904h54l73 -138h-50l-61 78l-86 -78h-56z" />
    <glyph glyph-name="ycircumflex" unicode="&#x177;" horiz-adv-x="477" 
d="M-33 -202l19 53q18 -8 37 -8q24 0 39.5 11.5t32.5 41.5l65 111l-105 489h60l88 -418l245 418h68l-368 -617q-32 -53 -59.5 -71.5t-73.5 -18.5q-25 0 -48 9zM285 700h54l73 -138h-50l-61 78l-86 -78h-56z" />
    <glyph glyph-name="Ydieresis" unicode="&#x178;" horiz-adv-x="526" 
d="M242 292l-151 408h67l106 -313q9 -28 14 -49q8 14 30 44l234 318h69l-309 -408l-57 -292h-60zM267 874h80l-15 -76h-80zM415 874h80l-15 -76h-80z" />
    <glyph glyph-name="Zacute" unicode="&#x179;" horiz-adv-x="582" 
d="M5 52l521 594h-394l11 54h465l-11 -54l-513 -592h415l-11 -54h-494zM435 904h89l-124 -138h-52z" />
    <glyph glyph-name="zacute" unicode="&#x17a;" horiz-adv-x="474" 
d="M5 50l382 396h-293l10 50h362l-10 -50l-381 -396h318l-10 -50h-387zM354 700h89l-124 -138h-52z" />
    <glyph glyph-name="Zdotaccent" unicode="&#x17b;" horiz-adv-x="582" 
d="M5 52l521 594h-394l11 54h465l-11 -54l-513 -592h415l-11 -54h-494zM356 874h76l-16 -80h-76z" />
    <glyph glyph-name="zdotaccent" unicode="&#x17c;" horiz-adv-x="474" 
d="M5 50l382 396h-293l10 50h362l-10 -50l-381 -396h318l-10 -50h-387zM275 670h76l-16 -80h-76z" />
    <glyph glyph-name="Zcaron" unicode="&#x17d;" horiz-adv-x="582" 
d="M5 52l521 594h-394l11 54h465l-11 -54l-513 -592h415l-11 -54h-494zM273 904h50l61 -78l86 78h56l-126 -138h-54z" />
    <glyph glyph-name="zcaron" unicode="&#x17e;" horiz-adv-x="474" 
d="M5 50l382 396h-293l10 50h362l-10 -50l-381 -396h318l-10 -50h-387zM192 700h50l61 -78l86 78h56l-126 -138h-54z" />
    <glyph glyph-name="florin" unicode="&#x192;" horiz-adv-x="304" 
d="M-91 -213l16 52q16 -7 33 -7q29 0 51 21.5t29 59.5l104 539h-78l9 44h78l22 113q13 66 53 103.5t111 37.5q20 0 38 -5l-9 -52q-15 7 -39 7q-34 0 -60 -23.5t-35 -72.5l-21 -108h117l-9 -44h-117l-105 -544q-12 -64 -46.5 -95t-99.5 -31q-24 0 -42 5z" />
    <glyph glyph-name="uni01B5" unicode="&#x1b5;" horiz-adv-x="582" 
d="M5 52l242 276h-164l10 52h199l234 266h-394l11 54h465l-11 -54l-231 -266h164l-10 -52h-199l-237 -274h415l-11 -54h-494z" />
    <glyph glyph-name="uni01B6" unicode="&#x1b6;" horiz-adv-x="474" 
d="M5 50l178 185h-106l9 48h144l157 163h-293l10 50h362l-10 -50l-157 -163h106l-9 -48h-143l-178 -185h318l-10 -50h-387z" />
    <glyph glyph-name="AEacute" unicode="&#x1fc;" horiz-adv-x="906" 
d="M404 700h519l-11 -52h-354l-50 -260h326l-10 -52h-326l-55 -284h357l-11 -52h-417l43 217h-250l-139 -217h-68zM424 267l74 381h-59l-243 -381h228zM708 904h89l-124 -138h-52z" />
    <glyph glyph-name="aeacute" unicode="&#x1fd;" horiz-adv-x="986" 
d="M138 16q-47 30 -72 82.5t-25 117.5q0 83 35.5 150t98 105.5t140.5 38.5q61 0 105.5 -28t63.5 -81l19 95h60l-12 -67q33 39 80 60t106 21q67 0 115 -26t73 -71.5t25 -102.5q0 -18 -5 -48l-4 -19h-425q-2 -10 -2 -33q0 -47 21 -87t59.5 -63.5t87.5 -23.5q65 0 108.5 32
t80.5 97l43 -28q-42 -78 -100.5 -114.5t-138.5 -36.5q-63 0 -114.5 28.5t-75.5 84.5l-19 -99h-60l16 81q-32 -50 -75 -72.5t-99 -22.5q-63 0 -110 30zM362.5 71q47.5 35 73.5 94t26 128q0 77 -39.5 122t-109.5 45q-61 0 -109.5 -33t-75.5 -89t-27 -123q0 -78 41.5 -128.5
t112.5 -50.5q60 0 107.5 35zM890 293q2 15 2 30q0 59 -44.5 98t-114.5 39q-74 0 -131 -45t-75 -122h363zM608 700h89l-124 -138h-52z" />
    <glyph glyph-name="uni0218" unicode="&#x218;" horiz-adv-x="618" 
d="M116 47.5q-62 61.5 -73 154.5l58 29q6 -86 55 -139.5t137 -53.5q49 0 93 20t70.5 57t26.5 86q0 41 -18 67t-53 42t-97 31q-95 24 -142 67t-47 112q0 59 32 103t88.5 67.5t128.5 23.5q82 0 140 -42t80 -124l-51 -31q-40 145 -181 145q-45 0 -86 -16t-66 -46.5t-25 -72.5
q0 -55 42.5 -88.5t131.5 -52.5q89 -20 136 -61.5t47 -110.5q0 -67 -32 -118.5t-89.5 -80.5t-131.5 -29q-112 0 -174 61.5zM190 -250l50 108h-30l16 82h80l-16 -82l-85 -114z" />
    <glyph glyph-name="uni0219" unicode="&#x219;" horiz-adv-x="478" 
d="M95 27q-49 41 -62 103l53 29q8 -53 42.5 -88t89.5 -35q59 0 93 29.5t34 78.5q0 28 -10.5 44.5t-34 28t-68.5 23.5q-139 36 -139 131q0 62 48.5 100.5t123.5 38.5q68 0 109.5 -32t57.5 -87l-47 -24q-28 93 -123 93q-41 0 -77 -22.5t-36 -61.5q0 -37 27 -57.5t94 -36.5
q68 -16 101.5 -48.5t33.5 -85.5q0 -73 -52.5 -117.5t-135.5 -44.5q-73 0 -122 41zM107 -250l50 108h-30l16 82h80l-16 -82l-85 -114z" />
    <glyph glyph-name="uni021A" unicode="&#x21a;" horiz-adv-x="533" 
d="M314 648h-216l11 52h492l-11 -52h-216l-126 -648h-60zM129 -250l50 108h-30l16 82h80l-16 -82l-85 -114z" />
    <glyph glyph-name="uni021B" unicode="&#x21b;" horiz-adv-x="332" 
d="M113.5 10q-25.5 24 -25.5 73q0 21 3 36l64 333h-86l9 44h86l26 134h60l-26 -134h119l-9 -44h-119l-64 -333q-3 -16 -3 -29q0 -25 15 -39.5t40 -14.5q17 0 38 6l-3 -48q-23 -8 -55 -8q-44 0 -69.5 24zM67 -250l50 108h-30l16 82h80l-16 -82l-85 -114z" />
    <glyph glyph-name="uni0237" unicode="&#x237;" horiz-adv-x="212" 
d="M-110 -203l15 52q18 -8 37 -8q55 0 68 69l114 586h60l-114 -590q-22 -117 -131 -117q-27 0 -49 8z" />
    <glyph glyph-name="circumflex" unicode="&#x2c6;" horiz-adv-x="354" 
d="M219 700h54l73 -138h-50l-61 78l-86 -78h-56z" />
    <glyph glyph-name="caron" unicode="&#x2c7;" horiz-adv-x="354" 
d="M125 700h50l61 -78l86 78h56l-126 -138h-54z" />
    <glyph glyph-name="uni02C9" unicode="&#x2c9;" horiz-adv-x="302" 
d="M119 662h206l-11 -54h-206z" />
    <glyph glyph-name="breve" unicode="&#x2d8;" horiz-adv-x="274" 
d="M125 594q-23 24 -23 56q0 11 2 19h57l-1 -11q0 -16 8.5 -25t23.5 -9q19 0 32 12t17 33h57q-16 -99 -113 -99q-37 0 -60 24z" />
    <glyph glyph-name="dotaccent" unicode="&#x2d9;" horiz-adv-x="210" 
d="M134 670h76l-16 -80h-76z" />
    <glyph glyph-name="ring" unicode="&#x2da;" horiz-adv-x="292" 
d="M143 567.5q-28 27.5 -28 67.5t28 67.5t68 27.5t68 -27.5t28 -67.5t-28 -67.5t-68 -27.5t-68 27.5zM248 597.5q15 15.5 15 37.5t-15 37.5t-37 15.5t-37 -15.5t-15 -37.5t15 -37.5t37 -15.5t37 15.5z" />
    <glyph glyph-name="ogonek" unicode="&#x2db;" horiz-adv-x="198" 
d="M-17 -178q-23 20 -23 60q0 44 28 76t73 50l50 -8q-35 -15 -63 -40t-28 -53q0 -20 13.5 -31.5t33.5 -11.5q6 0 18 2l-3 -58q-20 -6 -39 -6q-37 0 -60 20z" />
    <glyph glyph-name="tilde" unicode="&#x2dc;" horiz-adv-x="463" 
d="M306 576.5q-19 10.5 -38 29.5q-15 14 -25.5 21t-27.5 7t-27.5 -11t-10.5 -27q0 -8 2 -16l-51 -10q-4 12 -4 27q0 38 23.5 62.5t69.5 24.5q30 0 48.5 -10.5t37.5 -29.5q15 -14 26.5 -21t26.5 -7q17 0 27 10.5t10 26.5q0 7 -2 17l51 10q4 -18 4 -31q0 -40 -24 -61.5
t-64 -21.5q-33 0 -52 10.5z" />
    <glyph glyph-name="hungarumlaut" unicode="&#x2dd;" horiz-adv-x="426" 
d="M208 700h92l-127 -138h-54zM351 700h92l-127 -138h-54z" />
    <glyph glyph-name="gravecomb" unicode="&#x300;" 
d="M-63 700h82l42 -138h-52z" />
    <glyph glyph-name="acutecomb" unicode="&#x301;" 
d="M-1 700h89l-124 -138h-52z" />
    <glyph glyph-name="uni0302" unicode="&#x302;" 
d="M-66 700h54l73 -138h-50l-61 78l-86 -78h-56z" />
    <glyph glyph-name="tildecomb" unicode="&#x303;" 
d="M-64 576.5q-19 10.5 -38 29.5q-14 15 -25 21.5t-28 6.5t-27.5 -11t-10.5 -27q0 -8 2 -16l-51 -10q-4 12 -4 27q0 38 23.5 62.5t69.5 24.5q30 0 48.5 -10.5t37.5 -29.5q15 -14 26.5 -21t26.5 -7q17 0 27 10.5t10 26.5q0 7 -2 17l51 10q4 -18 4 -31q0 -40 -24 -61.5
t-64 -21.5q-33 0 -52 10.5z" />
    <glyph glyph-name="uni0304" unicode="&#x304;" 
d="M-126 662h206l-11 -54h-206z" />
    <glyph glyph-name="uni0306" unicode="&#x306;" 
d="M-91 594q-23 24 -23 56q0 11 2 19h57l-1 -11q0 -16 8.5 -25t23.5 -9q19 0 32 12t17 33h57q-16 -99 -113 -99q-37 0 -60 24z" />
    <glyph glyph-name="uni0307" unicode="&#x307;" 
d="M6 670h76l-16 -80h-76z" />
    <glyph glyph-name="uni0308" unicode="&#x308;" 
d="M-146 670h80l-15 -76h-80zM2 670h80l-15 -76h-80z" />
    <glyph glyph-name="uni030A" unicode="&#x30a;" 
d="M-91 567.5q-28 27.5 -28 67.5t28 67.5t68 27.5t68 -27.5t28 -67.5t-28 -67.5t-68 -27.5t-68 27.5zM14 597.5q15 15.5 15 37.5t-15 37.5t-37 15.5t-37 -15.5t-15 -37.5t15 -37.5t37 -15.5t37 15.5z" />
    <glyph glyph-name="uni030B" unicode="&#x30b;" 
d="M-147 700h92l-127 -138h-54zM-4 700h92l-127 -138h-54z" />
    <glyph glyph-name="uni030C" unicode="&#x30c;" 
d="M-165 700h50l61 -78l86 78h56l-126 -138h-54z" />
    <glyph glyph-name="uni0312" unicode="&#x312;" 
d="M-27 645l109 115l15 -13l-77 -102h33l-16 -82h-80z" />
    <glyph glyph-name="uni0326" unicode="&#x326;" 
d="M-176 -250l50 108h-30l16 82h80l-16 -82l-85 -114z" />
    <glyph glyph-name="uni0327" unicode="&#x327;" 
d="M-224.5 -187.5q-18.5 16.5 -24.5 44.5l40 9q7 -30 42 -30q20 0 33.5 12t13.5 35q0 17 -11 26.5t-28 9.5q-14 0 -24.5 -5t-24.5 -15l-23 26l49 91h48l-50 -75q22 15 47 15q29 0 47 -18t18 -52q0 -41 -26.5 -65.5t-74.5 -24.5q-33 0 -51.5 16.5z" />
    <glyph glyph-name="uni0328" unicode="&#x328;" 
d="M-185 -178q-23 20 -23 60q0 44 28 76t73 50l50 -8q-35 -15 -63 -40t-28 -53q0 -20 13.5 -31.5t33.5 -11.5q6 0 18 2l-3 -58q-19 -6 -39 -6q-37 0 -60 20z" />
    <glyph glyph-name="uni0335" unicode="&#x335;" 
d="M-260 378h285l-10 -48h-285z" />
    <glyph glyph-name="uni0336" unicode="&#x336;" 
d="M-638 557h698l-10 -52h-698z" />
    <glyph glyph-name="uni0337" unicode="&#x337;" 
d="M-208 241l231 128l-11 -60l-231 -128z" />
    <glyph glyph-name="uni0338" unicode="&#x338;" 
d="M-407 -3l414 528l42 -26l-414 -528z" />
    <glyph glyph-name="uni0394" unicode="&#x394;" horiz-adv-x="636" 
d="M373 700h67l141 -700h-623zM511 50l-108 546l-7 41q-9 -19 -23 -41l-320 -546h458z" />
    <glyph glyph-name="uni03A9" unicode="&#x3a9;" horiz-adv-x="780" 
d="M45 58h176q-64 49 -104 120t-40 167q0 99 48.5 183.5t136 135t200.5 50.5q91 0 157.5 -34t102 -98t35.5 -152q0 -119 -71.5 -213t-196.5 -159h172l-11 -58h-242l13 68q74 34 137 87.5t101 123.5t38 148q0 72 -30 125t-85 81.5t-128 28.5q-90 0 -163 -45.5t-114.5 -117.5
t-41.5 -148q0 -108 43 -174t110 -109l-13 -68h-241z" />
    <glyph glyph-name="uni03BC" unicode="&#x3bc;" horiz-adv-x="559" 
d="M127 496h60l-61 -314q-4 -21 -4 -41q0 -47 29 -76t81 -29q39 0 78 24.5t68 70t41 105.5l51 260h60l-96 -496h-60l15 77q-27 -43 -72.5 -67t-99.5 -24q-39 0 -71 12.5t-52 35.5q-8 -58 -11 -71l-33 -167h-60z" />
    <glyph glyph-name="pi" unicode="&#x3c0;" horiz-adv-x="632" 
d="M425 9.5q-26 23.5 -26 67.5q0 11 4 35l66 342h-234l-88 -454h-60l88 454h-105l8 42h562l-8 -42h-103l-68 -348q-2 -14 -2 -20q0 -23 14.5 -36.5t40.5 -13.5q15 0 33 5l-3 -48q-22 -7 -54 -7q-39 0 -65 23.5z" />
    <glyph glyph-name="Wgrave" unicode="&#x1e80;" horiz-adv-x="876" 
d="M96 700h58l41 -561q4 -48 5 -72q9 24 33 73l257 560h73l38 -557l1 -76q13 34 34 75l260 558h60l-331 -700h-68l-43 635l-290 -635h-69zM440 904h82l42 -138h-52z" />
    <glyph glyph-name="wgrave" unicode="&#x1e81;" horiz-adv-x="676" 
d="M62 496h60l28 -431l196 431h74l36 -431l193 431h60l-229 -496h-71l-38 432l-195 -432h-72zM298 700h82l42 -138h-52z" />
    <glyph glyph-name="Wacute" unicode="&#x1e82;" horiz-adv-x="876" 
d="M96 700h58l41 -561q4 -48 5 -72q9 24 33 73l257 560h73l38 -557l1 -76q13 34 34 75l260 558h60l-331 -700h-68l-43 635l-290 -635h-69zM601 904h89l-124 -138h-52z" />
    <glyph glyph-name="wacute" unicode="&#x1e83;" horiz-adv-x="676" 
d="M62 496h60l28 -431l196 431h74l36 -431l193 431h60l-229 -496h-71l-38 432l-195 -432h-72zM459 700h89l-124 -138h-52z" />
    <glyph glyph-name="Wdieresis" unicode="&#x1e84;" horiz-adv-x="876" 
d="M96 700h58l41 -561q4 -48 5 -72q9 24 33 73l257 560h73l38 -557l1 -76q13 34 34 75l260 558h60l-331 -700h-68l-43 635l-290 -635h-69zM446 874h80l-15 -76h-80zM594 874h80l-15 -76h-80z" />
    <glyph glyph-name="wdieresis" unicode="&#x1e85;" horiz-adv-x="676" 
d="M62 496h60l28 -431l196 431h74l36 -431l193 431h60l-229 -496h-71l-38 432l-195 -432h-72zM304 670h80l-15 -76h-80zM452 670h80l-15 -76h-80z" />
    <glyph glyph-name="uni1E9E" unicode="&#x1e9e;" horiz-adv-x="646" 
d="M226 17.5q-43 31.5 -56 75.5l44 31q19 -43 50 -64.5t82 -21.5q53 0 94 26.5t63.5 72t22.5 99.5q0 78 -52.5 116.5t-150.5 38.5l10 50l190 207h-148q-73 0 -116 -38t-58 -115l-97 -495h-60l97 495q19 98 82 151.5t162 53.5h213l-10 -52l-191 -209q84 -6 137 -57t53 -141
q0 -72 -32 -130t-90 -91.5t-132 -33.5q-64 0 -107 31.5z" />
    <glyph glyph-name="Ygrave" unicode="&#x1ef2;" horiz-adv-x="526" 
d="M242 292l-151 408h67l106 -313q9 -28 14 -49q8 14 30 44l234 318h69l-309 -408l-57 -292h-60zM261 904h82l42 -138h-52z" />
    <glyph glyph-name="ygrave" unicode="&#x1ef3;" horiz-adv-x="477" 
d="M-33 -202l19 53q18 -8 37 -8q24 0 39.5 11.5t32.5 41.5l65 111l-105 489h60l88 -418l245 418h68l-368 -617q-32 -53 -59.5 -71.5t-73.5 -18.5q-25 0 -48 9zM187 700h82l42 -138h-52z" />
    <glyph glyph-name="endash" unicode="&#x2013;" horiz-adv-x="502" 
d="M65 334h406l-9 -46h-406z" />
    <glyph glyph-name="emdash" unicode="&#x2014;" horiz-adv-x="770" 
d="M65 334h674l-9 -46h-674z" />
    <glyph glyph-name="quoteleft" unicode="&#x2018;" horiz-adv-x="189" 
d="M117 592l110 115l14 -15l-75 -100h31l-16 -82h-80z" />
    <glyph glyph-name="quoteright" unicode="&#x2019;" horiz-adv-x="189" 
d="M86 518l75 100h-31l16 82h80l-16 -82l-110 -115z" />
    <glyph glyph-name="quotesinglbase" unicode="&#x201a;" horiz-adv-x="185" 
d="M-34 -100l75 100h-31l16 82h80l-16 -82l-110 -115z" />
    <glyph glyph-name="quotedblleft" unicode="&#x201c;" horiz-adv-x="303" 
d="M117 592l110 115l14 -15l-75 -100h31l-16 -82h-80zM231 592l110 115l14 -15l-75 -100h31l-16 -82h-80z" />
    <glyph glyph-name="quotedblright" unicode="&#x201d;" horiz-adv-x="302" 
d="M86 518l75 100h-31l16 82h80l-16 -82l-110 -115zM200 518l75 100h-31l16 82h80l-16 -82l-110 -115z" />
    <glyph glyph-name="quotedblbase" unicode="&#x201e;" horiz-adv-x="299" 
d="M-34 -100l75 100h-31l16 82h80l-16 -82l-110 -115zM80 -100l75 100h-31l16 82h80l-16 -82l-110 -115z" />
    <glyph glyph-name="dagger" unicode="&#x2020;" horiz-adv-x="442" 
d="M230 444h-144l10 52h144l47 244h58l-47 -244h144l-10 -52h-144l-108 -554h-58z" />
    <glyph glyph-name="daggerdbl" unicode="&#x2021;" horiz-adv-x="443" 
d="M170 134h-144l10 52h144l51 258h-144l10 52h144l47 244h58l-47 -244h144l-10 -52h-144l-51 -258h144l-10 -52h-144l-47 -244h-58z" />
    <glyph glyph-name="bullet" unicode="&#x2022;" horiz-adv-x="262" 
d="M80.5 219.5q-23.5 23.5 -23.5 55.5t23.5 55.5t55.5 23.5t55.5 -23.5t23.5 -55.5t-23.5 -55.5t-55.5 -23.5t-55.5 23.5z" />
    <glyph glyph-name="ellipsis" unicode="&#x2026;" horiz-adv-x="536" 
d="M15 82h80l-15 -82h-80zM195 82h80l-15 -82h-80zM375 82h80l-15 -82h-80z" />
    <glyph glyph-name="perthousand" unicode="&#x2030;" horiz-adv-x="1172" 
d="M180.5 384.5q-34.5 20.5 -54.5 56t-20 78.5q0 54 25 98.5t69 70.5t99 26q72 0 111.5 -42t39.5 -111q0 -52 -24.5 -97.5t-69 -72.5t-100.5 -27q-41 0 -75.5 20.5zM162 37l564 661l36 -33l-564 -661zM331 433.5q30 19.5 47.5 52t17.5 69.5q0 52 -27.5 80.5t-75.5 28.5
q-36 0 -66.5 -19t-48.5 -52t-18 -72q0 -49 29 -78t75 -29q37 0 67 19.5zM548.5 6.5q-34.5 20.5 -54.5 56t-20 78.5q0 54 25 98.5t69 70.5t99 26q49 0 83 -19t51 -54q27 35 66 54t87 19q72 0 111.5 -42t39.5 -111q0 -52 -24.5 -97.5t-69 -72.5t-100.5 -27q-42 0 -76.5 21
t-52.5 55q-24 -35 -65 -55.5t-93 -20.5q-41 0 -75.5 20.5zM699 55.5q30 19.5 47.5 52t17.5 69.5q0 52 -27.5 80.5t-75.5 28.5q-36 0 -66.5 -19t-48.5 -52t-18 -72q0 -49 29 -78t75 -29q37 0 67 19.5zM986 55.5q30 19.5 47.5 52t17.5 69.5q0 52 -27.5 80.5t-75.5 28.5
q-36 0 -66.5 -19t-48 -52t-17.5 -72q0 -49 28.5 -78t74.5 -29q37 0 67 19.5z" />
    <glyph glyph-name="guilsinglleft" unicode="&#x2039;" horiz-adv-x="305" 
d="M53 275l188 194h76l-196 -199l110 -189h-64z" />
    <glyph glyph-name="guilsinglright" unicode="&#x203a;" horiz-adv-x="305" 
d="M194 280l-110 189h64l114 -194l-187 -194h-76z" />
    <glyph glyph-name="fraction" unicode="&#x2044;" horiz-adv-x="176" 
d="M-192 37l564 661l36 -33l-564 -661z" />
    <glyph glyph-name="uni2070" unicode="&#x2070;" horiz-adv-x="380" 
d="M144 464q-38 41 -38 117q0 50 20.5 97.5t60.5 78t94 30.5q59 0 95.5 -39.5t36.5 -114.5q0 -56 -21.5 -104t-61.5 -77t-92 -29q-56 0 -94 41zM327.5 515q33.5 46 33.5 110q0 57 -22 86.5t-61 29.5q-38 0 -65 -23.5t-41 -60t-14 -76.5q0 -54 22 -83t62 -29q52 0 85.5 46z
" />
    <glyph glyph-name="uni2074" unicode="&#x2074;" horiz-adv-x="372" 
d="M275 500h-170l9 44l214 236h52l-46 -236h40l-9 -44h-40l-14 -70h-50zM284 544l30 157l-143 -157h113z" />
    <glyph glyph-name="uni2075" unicode="&#x2075;" horiz-adv-x="348" 
d="M142.5 449.5q-29.5 26.5 -29.5 68.5q0 15 6 27l45 -8q-3 -7 -3 -19q0 -24 17 -38.5t47 -14.5q39 0 64.5 25.5t25.5 64.5q0 34 -18 53t-46 19q-29 0 -52.5 -15.5t-33.5 -34.5l-43 13l51 190h215l-8 -42h-173l-31 -110q14 18 39 29.5t49 11.5q47 0 73 -28t26 -80
q0 -59 -39 -98.5t-103 -39.5q-49 0 -78.5 26.5z" />
    <glyph glyph-name="uni2076" unicode="&#x2076;" horiz-adv-x="350" 
d="M150.5 459.5q-32.5 36.5 -32.5 102.5q0 55 18.5 107t56 85t90.5 33q45 0 69 -21.5t24 -55.5q0 -13 -5 -31l-42 8q4 8 4 20q0 18 -15 28t-40 10q-42 0 -70.5 -38.5t-37.5 -94.5q15 19 41 32.5t56 13.5q50 0 77 -27t27 -74q0 -58 -37.5 -96t-98.5 -38q-52 0 -84.5 36.5z
M299 489q24 24 24 62q0 31 -20 48t-51 17q-35 0 -60.5 -23.5t-25.5 -59.5q0 -32 21.5 -50t51.5 -18q36 0 60 24z" />
    <glyph glyph-name="uni2077" unicode="&#x2077;" horiz-adv-x="306" 
d="M312 737h-167l9 43h221l-8 -41l-204 -309h-54z" />
    <glyph glyph-name="uni2078" unicode="&#x2078;" horiz-adv-x="334" 
d="M134.5 450.5q-33.5 27.5 -33.5 70.5q0 33 17.5 58.5t53.5 40.5q-14 8 -24 26t-10 38q0 44 30.5 73.5t88.5 29.5q47 0 74 -25t27 -59q0 -29 -18 -54t-46 -35q19 -11 33 -30t14 -45q0 -54 -36 -85t-88 -31q-49 0 -82.5 27.5zM287 651q19 16 19 46q0 22 -15.5 35t-37.5 13
q-27 0 -47 -16.5t-20 -44.5q0 -22 16.5 -35.5t38.5 -13.5q27 0 46 16zM267 485.5q20 20.5 20 53.5q0 25 -18 41.5t-44 16.5q-32 0 -51 -20t-19 -49t18 -46t44 -17q30 0 50 20.5z" />
    <glyph glyph-name="uni2079" unicode="&#x2079;" horiz-adv-x="334" 
d="M146 445q-28 22 -28 56q0 17 6 29l41 -8q-4 -8 -4 -19q0 -17 15 -27.5t41 -10.5q45 0 73 36.5t37 99.5q-35 -49 -94 -49q-46 0 -78.5 29.5t-32.5 78.5q0 54 37 90.5t99 36.5q54 0 84.5 -36t30.5 -100q0 -96 -40.5 -162t-116.5 -66q-42 0 -70 22zM300.5 617
q24.5 25 24.5 62q0 29 -21 47.5t-50 18.5q-37 0 -60.5 -24.5t-23.5 -59.5q0 -34 19 -51.5t50 -17.5q37 0 61.5 25z" />
    <glyph glyph-name="uni2080" unicode="&#x2080;" horiz-adv-x="380" 
d="M21 -170q-38 41 -38 117q0 50 20.5 97.5t60.5 78t94 30.5q59 0 95.5 -39.5t36.5 -114.5q0 -56 -21.5 -104t-61.5 -77t-92 -29q-56 0 -94 41zM204.5 -119q33.5 46 33.5 110q0 57 -22 86.5t-61 29.5q-38 0 -65 -23.5t-41 -60t-14 -76.5q0 -54 22 -83t62 -29q52 0 85.5 46z
" />
    <glyph glyph-name="uni2081" unicode="&#x2081;" horiz-adv-x="239" 
d="M88 78q-26 -23 -79 -23l9 48q33 0 52.5 10t35.5 33h44l-69 -350h-48z" />
    <glyph glyph-name="uni2082" unicode="&#x2082;" horiz-adv-x="334" 
d="M-26 -166l166 134q50 40 50 88q0 25 -17 40t-47 15q-34 0 -53.5 -19.5t-19.5 -49.5q0 -7 2 -17l-44 -6q-3 11 -3 24q0 47 35 78.5t89 31.5q47 0 76.5 -26.5t29.5 -67.5q0 -36 -18 -65t-54 -58l-114 -94h154l-8 -46h-231z" />
    <glyph glyph-name="uni2083" unicode="&#x2083;" horiz-adv-x="334" 
d="M15 -185q-32 26 -32 64q0 24 8 39l40 -9q-4 -11 -4 -24q0 -23 19 -37.5t48 -14.5q34 0 55 18.5t21 50.5q0 63 -85 63l7 39q38 0 62.5 15t24.5 45q0 24 -15.5 35.5t-41.5 11.5t-45 -13.5t-19 -34.5q0 -9 2 -16l-41 -4q-2 8 -2 18q0 37 30 64.5t78 27.5q47 0 73 -22t26 -56
q0 -30 -17 -53t-48 -34q25 -8 42 -27.5t17 -48.5q0 -52 -35 -87.5t-91 -35.5q-45 0 -77 26z" />
    <glyph glyph-name="uni2084" unicode="&#x2084;" horiz-adv-x="372" 
d="M152 -134h-170l9 44l214 236h52l-46 -236h40l-9 -44h-40l-14 -70h-50zM161 -90l30 157l-143 -157h113z" />
    <glyph glyph-name="uni2085" unicode="&#x2085;" horiz-adv-x="348" 
d="M19.5 -184.5q-29.5 26.5 -29.5 68.5q0 15 6 27l45 -8q-3 -7 -3 -19q0 -24 17 -38.5t47 -14.5q39 0 64.5 25.5t25.5 64.5q0 34 -18 53t-46 19q-29 0 -52.5 -15.5t-33.5 -34.5l-43 13l51 190h215l-8 -42h-173l-31 -110q14 18 39 29.5t49 11.5q47 0 73 -28t26 -80
q0 -59 -39 -98.5t-103 -39.5q-49 0 -78.5 26.5z" />
    <glyph glyph-name="uni2086" unicode="&#x2086;" horiz-adv-x="350" 
d="M27.5 -174.5q-32.5 36.5 -32.5 102.5q0 55 18.5 107t56 85t90.5 33q45 0 69 -21.5t24 -55.5q0 -13 -5 -31l-42 8q4 8 4 20q0 18 -15 28t-40 10q-42 0 -70.5 -38.5t-37.5 -94.5q15 19 41 32.5t56 13.5q50 0 77 -27t27 -74q0 -58 -37.5 -96t-98.5 -38q-52 0 -84.5 36.5z
M176 -145q24 24 24 62q0 31 -20 48t-51 17q-35 0 -60.5 -23.5t-25.5 -59.5q0 -32 21.5 -50t51.5 -18q36 0 60 24z" />
    <glyph glyph-name="uni2087" unicode="&#x2087;" horiz-adv-x="306" 
d="M189 103h-167l9 43h221l-8 -41l-204 -309h-54z" />
    <glyph glyph-name="uni2088" unicode="&#x2088;" horiz-adv-x="334" 
d="M11.5 -183.5q-33.5 27.5 -33.5 70.5q0 33 17.5 58.5t53.5 40.5q-14 8 -24 26t-10 38q0 44 30.5 73.5t88.5 29.5q47 0 74 -25t27 -59q0 -29 -18 -54t-46 -35q19 -11 33 -30t14 -45q0 -54 -36 -85t-88 -31q-49 0 -82.5 27.5zM164 17q19 16 19 46q0 22 -15.5 35t-37.5 13
q-27 0 -47 -16.5t-20 -44.5q0 -22 16.5 -35.5t38.5 -13.5q27 0 46 16zM144 -148.5q20 20.5 20 53.5q0 25 -18 41.5t-44 16.5q-32 0 -51 -20t-19 -49t18 -46t44 -17q30 0 50 20.5z" />
    <glyph glyph-name="uni2089" unicode="&#x2089;" horiz-adv-x="334" 
d="M23 -189q-28 22 -28 56q0 17 6 29l41 -8q-4 -8 -4 -19q0 -17 15 -27.5t41 -10.5q45 0 73 36.5t37 99.5q-35 -49 -94 -49q-46 0 -78.5 29.5t-32.5 78.5q0 54 37 90.5t99 36.5q54 0 84.5 -36t30.5 -100q0 -96 -40.5 -162t-116.5 -66q-42 0 -70 22zM177.5 -17
q24.5 25 24.5 62q0 29 -21 47.5t-50 18.5q-37 0 -60.5 -24.5t-23.5 -59.5q0 -34 19 -51.5t50 -17.5q37 0 61.5 25z" />
    <glyph glyph-name="Euro" unicode="&#x20ac;" horiz-adv-x="735" 
d="M199 56q-68 70 -76 195h-82l31 48h50q1 49 14 102h-66l31 48h49q41 117 131.5 191t219.5 74q94 0 153.5 -47.5t78.5 -138.5l-53 -20q-17 81 -64 117.5t-129 36.5q-95 0 -165.5 -58.5t-111.5 -154.5h301l-31 -48h-284q-12 -45 -14 -102h300l-31 -48h-268q8 -98 58 -155.5
t141 -57.5q85 0 137.5 40.5t98.5 130.5l46 -18q-93 -205 -285 -205q-112 0 -180 70z" />
    <glyph glyph-name="uni20BA" unicode="&#x20ba;" horiz-adv-x="516" 
d="M475 284l-4 -19q-26 -120 -113.5 -192.5t-237.5 -72.5h-60l48 246l-90 -39l12 60l90 39l19 100l-90 -39l12 60l90 39l45 234h60l-40 -205l139 61l-12 -60l-138 -61l-20 -100l139 61l-12 -60l-139 -61l-43 -223q77 0 136.5 28.5t96.5 77t48 107.5l4 19h60z" />
    <glyph glyph-name="uni2113" unicode="&#x2113;" horiz-adv-x="473" 
d="M302.5 73.5q36.5 35.5 76.5 110.5l41 -28q-45 -83 -93 -126.5t-114 -43.5q-55 0 -88 45t-37 136q-38 -10 -70 -17v60q25 5 71 17q5 154 47 264t105.5 166.5t131.5 56.5q64 0 94.5 -40.5t30.5 -110.5q0 -124 -92 -222t-260 -155q2 -76 21 -112t58 -36q41 0 77.5 35.5z
M265 605.5q-48 -56.5 -80 -152.5t-38 -208q142 48 217.5 128.5t75.5 185.5q0 103 -75 103q-52 0 -100 -56.5z" />
    <glyph glyph-name="uni2117" unicode="&#x2117;" horiz-adv-x="862" 
d="M268.5 35q-83.5 49 -132.5 132.5t-49 182.5t49 182.5t132.5 132.5t182.5 49t182.5 -49t132.5 -132.5t49 -182.5t-49 -182.5t-132.5 -132.5t-182.5 -49t-182.5 49zM610.5 74.5q72.5 42.5 114.5 115.5t42 160t-42 160t-114.5 115.5t-159.5 42.5t-159.5 -42.5t-114.5 -115.5
t-42 -160t42 -160t114.5 -115.5t159.5 -42.5t159.5 42.5zM316 549h171q58 0 91 -32.5t33 -82.5t-33 -82t-91 -32h-125v-169h-46v398zM485 359q38 0 59.5 20.5t21.5 54.5t-21 54t-60 20h-123v-149h123z" />
    <glyph glyph-name="uni2120" unicode="&#x2120;" horiz-adv-x="865" 
d="M149.5 309.5q-31.5 16.5 -51 44.5t-20.5 62l40 18q21 -101 106 -101q51 0 82 22t31 58q0 30 -23 47t-73 30q-111 28 -111 106q0 50 39 81t107 31q54 0 88.5 -26t44.5 -72l-38 -20q-10 40 -34 59t-65 19q-44 0 -72 -17.5t-28 -45.5q0 -32 24.5 -49t76.5 -31q58 -16 83 -40
t25 -65q0 -58 -43.5 -92.5t-120.5 -34.5q-36 0 -67.5 16.5zM504 700h48l80 -356l218 356h48l-77 -400h-42l60 306l-190 -306h-48l-71 314l-61 -314h-42z" />
    <glyph glyph-name="trademark" unicode="&#x2122;" horiz-adv-x="840" 
d="M242 660h-123l7 40h294l-7 -40h-123l-70 -360h-48zM479 700h48l80 -356l218 356h48l-77 -400h-42l60 306l-190 -306h-48l-71 314l-61 -314h-42z" />
    <glyph glyph-name="uni2126" unicode="&#x2126;" horiz-adv-x="780" 
d="M45 58h176q-64 49 -104 120t-40 167q0 99 48.5 183.5t136 135t200.5 50.5q91 0 157.5 -34t102 -98t35.5 -152q0 -119 -71.5 -213t-196.5 -159h172l-11 -58h-242l13 68q74 34 137 87.5t101 123.5t38 148q0 72 -30 125t-85 81.5t-128 28.5q-90 0 -163 -45.5t-114.5 -117.5
t-41.5 -148q0 -108 43 -174t110 -109l-13 -68h-241z" />
    <glyph glyph-name="estimated" unicode="&#x212e;" horiz-adv-x="856" 
d="M623.5 83q77.5 51 115.5 135h51q-26 -68 -77 -120.5t-118.5 -82t-143.5 -29.5q-99 0 -182.5 49t-132.5 132.5t-49 182.5t49 182.5t132.5 132.5t182.5 49t182.5 -49t132.5 -132.5t49 -182.5h-596v-217q44 -47 104 -74t128 -27q95 0 172.5 51zM323 641q-60 -27 -104 -74
v-171h464v171q-44 47 -104 74t-128 27t-128 -27z" />
    <glyph glyph-name="uni2153" unicode="&#x2153;" horiz-adv-x="748" 
d="M195 632q-26 -23 -79 -23l9 48q33 0 52.5 10t35.5 33h44l-69 -350h-48zM46 37l564 661l36 -33l-564 -661zM469 19q-32 26 -32 64q0 24 8 39l40 -9q-4 -11 -4 -24q0 -23 19 -37.5t48 -14.5q34 0 55 18.5t21 50.5q0 63 -85 63l7 39q38 0 62.5 15t24.5 45q0 24 -15.5 35.5
t-41.5 11.5t-45 -13.5t-19 -34.5q0 -9 2 -16l-41 -4q-2 8 -2 18q0 37 30 64.5t78 27.5q47 0 73 -22t26 -56q0 -30 -17 -53t-48 -34q25 -8 42 -27.5t17 -48.5q0 -52 -35 -87.5t-91 -35.5q-45 0 -77 26z" />
    <glyph glyph-name="uni2154" unicode="&#x2154;" horiz-adv-x="843" 
d="M81 388l166 134q50 40 50 88q0 25 -17 40t-47 15q-34 0 -53.5 -19.5t-19.5 -49.5q0 -7 2 -17l-44 -6q-3 11 -3 24q0 47 35 78.5t89 31.5q47 0 76.5 -26.5t29.5 -67.5q0 -36 -18 -65t-54 -58l-114 -94h154l-8 -46h-231zM141 37l564 661l36 -33l-564 -661zM564 19
q-32 26 -32 64q0 24 8 39l40 -9q-4 -11 -4 -24q0 -23 19 -37.5t48 -14.5q34 0 55 18.5t21 50.5q0 63 -85 63l7 39q38 0 62.5 15t24.5 45q0 24 -15.5 35.5t-41.5 11.5t-45 -13.5t-19 -34.5q0 -9 2 -16l-41 -4q-2 8 -2 18q0 37 30 64.5t78 27.5q47 0 73 -22t26 -56
q0 -30 -17 -53t-48 -34q25 -8 42 -27.5t17 -48.5q0 -52 -35 -87.5t-91 -35.5q-45 0 -77 26z" />
    <glyph glyph-name="oneeighth" unicode="&#x215b;" horiz-adv-x="748" 
d="M195 632q-26 -23 -79 -23l9 48q33 0 52.5 10t35.5 33h44l-69 -350h-48zM46 37l564 661l36 -33l-564 -661zM465.5 20.5q-33.5 27.5 -33.5 70.5q0 33 17.5 58.5t53.5 40.5q-14 8 -24 26t-10 38q0 44 30.5 73.5t88.5 29.5q47 0 74 -25t27 -59q0 -29 -18 -54t-46 -35
q19 -11 33 -30t14 -45q0 -54 -36 -85t-88 -31q-49 0 -82.5 27.5zM618 221q19 16 19 46q0 22 -15.5 35t-37.5 13q-27 0 -47 -16.5t-20 -44.5q0 -22 16.5 -35.5t38.5 -13.5q27 0 46 16zM598 55.5q20 20.5 20 53.5q0 25 -18 41.5t-44 16.5q-32 0 -51 -20t-19 -49t18 -46t44 -17
q30 0 50 20.5z" />
    <glyph glyph-name="threeeighths" unicode="&#x215c;" horiz-adv-x="844" 
d="M123 369q-32 26 -32 64q0 24 8 39l40 -9q-4 -11 -4 -24q0 -23 19 -37.5t48 -14.5q34 0 55 18.5t21 50.5q0 63 -85 63l7 39q38 0 62.5 15t24.5 45q0 24 -15.5 35.5t-41.5 11.5t-45 -13.5t-19 -34.5q0 -9 2 -16l-41 -4q-2 8 -2 18q0 37 30 64.5t78 27.5q47 0 73 -22t26 -56
q0 -30 -17 -53t-48 -34q25 -8 42 -27.5t17 -48.5q0 -52 -35 -87.5t-91 -35.5q-45 0 -77 26zM142 37l564 661l36 -33l-564 -661zM561.5 20.5q-33.5 27.5 -33.5 70.5q0 33 17.5 58.5t53.5 40.5q-14 8 -24 26t-10 38q0 44 30.5 73.5t88.5 29.5q47 0 74 -25t27 -59
q0 -29 -18 -54t-46 -35q19 -11 33 -30t14 -45q0 -54 -36 -85t-88 -31q-49 0 -82.5 27.5zM714 221q19 16 19 46q0 22 -15.5 35t-37.5 13q-27 0 -47 -16.5t-20 -44.5q0 -22 16.5 -35.5t38.5 -13.5q27 0 46 16zM694 55.5q20 20.5 20 53.5q0 25 -18 41.5t-44 16.5q-32 0 -51 -20
t-19 -49t18 -46t44 -17q30 0 50 20.5z" />
    <glyph glyph-name="fiveeighths" unicode="&#x215d;" horiz-adv-x="858" 
d="M126.5 369.5q-29.5 26.5 -29.5 68.5q0 15 6 27l45 -8q-3 -7 -3 -19q0 -24 17 -38.5t47 -14.5q39 0 64.5 25.5t25.5 64.5q0 34 -18 53t-46 19q-29 0 -52.5 -15.5t-33.5 -34.5l-43 13l51 190h215l-8 -42h-173l-31 -110q14 18 39 29.5t49 11.5q47 0 73 -28t26 -80
q0 -59 -39 -98.5t-103 -39.5q-49 0 -78.5 26.5zM156 37l564 661l36 -33l-564 -661zM575.5 20.5q-33.5 27.5 -33.5 70.5q0 33 17.5 58.5t53.5 40.5q-14 8 -24 26t-10 38q0 44 30.5 73.5t88.5 29.5q47 0 74 -25t27 -59q0 -29 -18 -54t-46 -35q19 -11 33 -30t14 -45
q0 -54 -36 -85t-88 -31q-49 0 -82.5 27.5zM728 221q19 16 19 46q0 22 -15.5 35t-37.5 13q-27 0 -47 -16.5t-20 -44.5q0 -22 16.5 -35.5t38.5 -13.5q27 0 46 16zM708 55.5q20 20.5 20 53.5q0 25 -18 41.5t-44 16.5q-32 0 -51 -20t-19 -49t18 -46t44 -17q30 0 50 20.5z" />
    <glyph glyph-name="seveneighths" unicode="&#x215e;" horiz-adv-x="816" 
d="M296 657h-167l9 43h221l-8 -41l-204 -309h-54zM114 37l564 661l36 -33l-564 -661zM533.5 20.5q-33.5 27.5 -33.5 70.5q0 33 17.5 58.5t53.5 40.5q-14 8 -24 26t-10 38q0 44 30.5 73.5t88.5 29.5q47 0 74 -25t27 -59q0 -29 -18 -54t-46 -35q19 -11 33 -30t14 -45
q0 -54 -36 -85t-88 -31q-49 0 -82.5 27.5zM686 221q19 16 19 46q0 22 -15.5 35t-37.5 13q-27 0 -47 -16.5t-20 -44.5q0 -22 16.5 -35.5t38.5 -13.5q27 0 46 16zM666 55.5q20 20.5 20 53.5q0 25 -18 41.5t-44 16.5q-32 0 -51 -20t-19 -49t18 -46t44 -17q30 0 50 20.5z" />
    <glyph glyph-name="arrowleft" unicode="&#x2190;" horiz-adv-x="541" 
d="M68 311l229 191l30 -37l-157 -131h338l-9 -46h-346l109 -135l-40 -33z" />
    <glyph glyph-name="arrowup" unicode="&#x2191;" horiz-adv-x="473" 
d="M264 495l-158 -133l-29 37l222 187l154 -192l-40 -32l-102 134l-66 -341h-48z" />
    <glyph glyph-name="arrowright" unicode="&#x2192;" horiz-adv-x="542" 
d="M239 157l157 131h-338l9 46h346l-109 135l40 33l154 -191l-229 -191z" />
    <glyph glyph-name="arrowdown" unicode="&#x2193;" horiz-adv-x="473" 
d="M67 347l40 32l102 -134l66 341h48l-67 -340l158 133l29 -37l-222 -187z" />
    <glyph glyph-name="arrowboth" unicode="&#x2194;" horiz-adv-x="746" 
d="M68 311l229 191l30 -37l-157 -131h447l-109 135l40 33l154 -191l-229 -191l-30 37l157 131h-447l109 -135l-40 -33z" />
    <glyph glyph-name="arrowupdn" unicode="&#x2195;" horiz-adv-x="480" 
d="M49 224l40 32l102 -134l89 455l-158 -133l-29 37l222 187l154 -192l-40 -32l-102 134l-89 -455l158 133l29 -37l-222 -187z" />
    <glyph glyph-name="uni2196" unicode="&#x2196;" horiz-adv-x="498" 
d="M169 383l-37 -189h-51l53 271h271l-9 -48h-189l194 -244l-38 -32z" />
    <glyph glyph-name="uni2197" unicode="&#x2197;" horiz-adv-x="499" 
d="M68 174l289 243h-187l9 48h271l-53 -271h-50l35 183l-284 -240z" />
    <glyph glyph-name="uni2198" unicode="&#x2198;" horiz-adv-x="497" 
d="M123 189h189l-194 244l38 32l194 -242l37 189h51l-53 -271h-271z" />
    <glyph glyph-name="uni2199" unicode="&#x2199;" horiz-adv-x="498" 
d="M123 412h50l-35 -183l284 240l30 -37l-289 -243h187l-9 -48h-271z" />
    <glyph glyph-name="partialdiff" unicode="&#x2202;" horiz-adv-x="574" 
d="M154 10.5q-50 24.5 -80 71.5t-30 113q0 72 34 133.5t96 97.5t142 36q58 0 105.5 -27t72.5 -72q3 35 3 66q0 106 -39.5 168.5t-126.5 62.5q-49 0 -87 -23.5t-38 -62.5q0 -14 3 -23l-54 -21q-7 18 -7 38q0 42 25 75.5t68.5 52t98.5 18.5q217 0 217 -296q0 -114 -30.5 -212
t-96.5 -159t-168 -61q-58 0 -108 24.5zM366 68.5q47 30.5 73.5 80t26.5 105.5q0 75 -44 115.5t-112 40.5q-58 0 -105 -28.5t-74 -77t-27 -105.5q0 -50 22.5 -86.5t58.5 -55.5t76 -19q58 0 105 30.5z" />
    <glyph glyph-name="uni2206" unicode="&#x2206;" horiz-adv-x="636" 
d="M373 700h67l141 -700h-623zM511 50l-108 546l-7 41q-9 -19 -23 -41l-320 -546h458z" />
    <glyph glyph-name="product" unicode="&#x220f;" horiz-adv-x="665" 
d="M180 700h480l-175 -904h-60l165 852h-360l-165 -852h-60z" />
    <glyph glyph-name="summation" unicode="&#x2211;" horiz-adv-x="562" 
d="M-24 -61l302 351l-158 354l11 56h461l-11 -56h-396l159 -364l-299 -348h410l-10 -52h-480z" />
    <glyph glyph-name="minus" unicode="&#x2212;" horiz-adv-x="488" 
d="M75 388h392l-9 -46h-392z" />
    <glyph glyph-name="uni2215" unicode="&#x2215;" horiz-adv-x="474" 
d="M497 730h65l-545 -760h-65z" />
    <glyph glyph-name="uni2219" unicode="&#x2219;" horiz-adv-x="262" 
d="M80.5 219.5q-23.5 23.5 -23.5 55.5t23.5 55.5t55.5 23.5t55.5 -23.5t23.5 -55.5t-23.5 -55.5t-55.5 -23.5t-55.5 23.5z" />
    <glyph glyph-name="radical" unicode="&#x221a;" horiz-adv-x="578" 
d="M144 304h-101l10 52h143l38 -269l348 613h58l-394 -700h-53z" />
    <glyph glyph-name="infinity" unicode="&#x221e;" horiz-adv-x="774" 
d="M107 188q-36 36 -36 91q0 45 20.5 84t59.5 62t92 23q56 0 92.5 -28t69.5 -78q44 50 86 78t98 28q65 0 100.5 -35.5t35.5 -89.5q0 -51 -23 -90t-61.5 -60t-84.5 -21q-57 0 -93 27t-66 76q-41 -49 -84.5 -76t-103.5 -27q-66 0 -102 36zM295 224.5q37 26.5 75 75.5
q-29 49 -59 75.5t-76 26.5t-78 -34.5t-32 -82.5q0 -40 23 -63.5t67 -23.5q43 0 80 26.5zM612.5 212.5q25.5 14.5 42 42.5t16.5 66q0 36 -23 58.5t-64 22.5q-45 0 -79 -26t-75 -78q31 -49 59 -74.5t71 -25.5q27 0 52.5 14.5z" />
    <glyph glyph-name="integral" unicode="&#x222b;" horiz-adv-x="304" 
d="M-91 -213l16 52q16 -7 33 -7q29 0 51 21.5t29 59.5l135 696q13 66 53 103.5t111 37.5q20 0 38 -5l-9 -52q-15 7 -39 7q-34 0 -60 -23.5t-35 -72.5l-135 -696q-12 -64 -46.5 -95t-99.5 -31q-24 0 -42 5z" />
    <glyph glyph-name="approxequal" unicode="&#x2248;" horiz-adv-x="435" 
d="M49 241q0 38 25 64t73 26q32 0 53 -10t44 -28q17 -14 30 -21t29 -7q17 0 25.5 11t8.5 30q0 5 -2 13l55 11q4 -10 4 -29q0 -41 -25.5 -64t-71.5 -23q-32 0 -52 10t-45 30q-16 13 -27.5 19.5t-24.5 6.5q-19 0 -30.5 -12.5t-11.5 -32.5q0 -5 2 -13l-55 -9q-4 10 -4 28z
M79 393q0 38 25 64t73 26q32 0 53 -10t44 -28q17 -14 30 -21t29 -7q17 0 25.5 11t8.5 30q0 5 -2 13l55 11q4 -10 4 -29q0 -41 -25.5 -64t-71.5 -23q-32 0 -52 10t-45 30q-16 13 -27.5 19.5t-24.5 6.5q-19 0 -30.5 -12.5t-11.5 -32.5q0 -5 2 -13l-55 -9q-4 10 -4 28z" />
    <glyph glyph-name="notequal" unicode="&#x2260;" horiz-adv-x="488" 
d="M53 128l82 104h-89l9 46h116l113 144h-202l9 46h229l106 134l37 -30l-82 -104h101l-9 -46h-128l-114 -144h215l-9 -46h-242l-105 -134z" />
    <glyph glyph-name="lessequal" unicode="&#x2264;" horiz-adv-x="493" 
d="M71 358l13 64l428 194l-10 -61l-375 -168l308 -168l-10 -55zM11 46h392l-9 -46h-392z" />
    <glyph glyph-name="greaterequal" unicode="&#x2265;" horiz-adv-x="493" 
d="M53 225l375 168l-308 168l10 55l354 -194l-13 -64l-428 -194zM12 46h392l-9 -46h-392z" />
    <glyph glyph-name="lozenge" unicode="&#x25ca;" horiz-adv-x="560" 
d="M48 350l286 350h68l150 -350l-287 -350h-68zM487 358l-124 292l-249 -307l123 -293z" />
    <glyph glyph-name="uniF8FF" unicode="&#xf8ff;" horiz-adv-x="780" 
d="M110.5 6.5q-6.5 6.5 -6.5 15.5v595q0 7 4.5 13.5t11.5 8.5l270 78l10 2l10 -2l270 -78q7 -2 11.5 -8.5t4.5 -13.5v-595q0 -9 -6.5 -15.5t-15.5 -6.5l-7 1l-267 77l-267 -77l-7 -1q-9 0 -15.5 6.5zM378 669l-230 -67q4 -62 35 -114t82.5 -84.5t112.5 -37.5v303z
M534.5 403.5q51.5 32.5 82.5 84.5t35 114l-230 67v-303q61 5 112.5 37.5zM378 118v204q-73 6 -134 43.5t-97 97.5v-412zM653 463q-37 -60 -97.5 -97.5t-133.5 -43.5v-204l231 -67v412z" />
    <glyph glyph-name="fi" unicode="&#xfb01;" horiz-adv-x="494" 
d="M141 452h-78l9 44h78l22 113q13 66 53 103.5t111 37.5q22 0 38 -6l-9 -50q-17 6 -39 6q-34 0 -60 -23.5t-35 -72.5l-21 -108h255l-97 -496h-60l88 452h-195l-87 -452h-60zM431 670h76l-16 -80h-76z" />
    <glyph glyph-name="fl" unicode="&#xfb02;" horiz-adv-x="492" 
d="M141 452h-78l9 44h78l22 113q13 66 53 103.5t111 37.5q22 0 38 -6l-9 -50q-17 6 -39 6q-34 0 -60 -23.5t-35 -72.5l-21 -108h117l-9 -44h-117l-87 -452h-60zM445 700h60l-137 -700h-60z" />
    <glyph glyph-name="i.loclTRK" horiz-adv-x="212" 
d="M124 496h60l-97 -496h-60zM150 670h76l-16 -80h-76z" />
    <glyph glyph-name="uni030C.alt" 
d="M-18 534l50 90h-33l15 76h74l-15 -76l-77 -98z" />
    <glyph glyph-name="uni0308.cap" 
d="M-106 874h80l-15 -76h-80zM42 874h80l-15 -76h-80z" />
    <glyph glyph-name="uni0307.cap" 
d="M46 874h76l-16 -80h-76z" />
    <glyph glyph-name="gravecomb.cap" 
d="M-23 904h82l42 -138h-52z" />
    <glyph glyph-name="acutecomb.cap" 
d="M39 904h89l-124 -138h-52z" />
    <glyph glyph-name="uni030B.cap" 
d="M-107 904h92l-127 -138h-54zM36 904h92l-127 -138h-54z" />
    <glyph glyph-name="uni0302.cap" 
d="M-26 904h54l73 -138h-50l-61 78l-86 -78h-56z" />
    <glyph glyph-name="uni030C.cap" 
d="M-125 904h50l61 -78l86 78h56l-126 -138h-54z" />
    <glyph glyph-name="uni0306.cap" 
d="M-52 798q-23 24 -23 56q0 11 2 19h57l-1 -11q0 -16 8.5 -25t23.5 -9q19 0 32 12t17 33h57q-16 -99 -113 -99q-37 0 -60 24z" />
    <glyph glyph-name="uni030A.cap" 
d="M-51 771.5q-28 27.5 -28 67.5t28 67.5t68 27.5t68 -27.5t28 -67.5t-28 -67.5t-68 -27.5t-68 27.5zM54 801.5q15 15.5 15 37.5t-15 37.5t-37 15.5t-37 -15.5t-15 -37.5t15 -37.5t37 -15.5t37 15.5z" />
    <glyph glyph-name="tildecomb.cap" 
d="M-23.5 780q-18.5 10 -38.5 30q-15 15 -25.5 21.5t-27.5 6.5t-27.5 -11t-10.5 -27q0 -8 2 -16l-51 -10q-4 12 -4 27q0 38 23.5 62.5t69.5 24.5q30 0 48.5 -10.5t37.5 -29.5q15 -14 26.5 -21t26.5 -7q17 0 27 10.5t10 26.5q0 7 -2 17l51 10q4 -18 4 -31q0 -40 -24 -61.5
t-64 -21.5q-33 0 -51.5 10z" />
    <glyph glyph-name="uni0304.cap" 
d="M-86 866h206l-11 -54h-206z" />
    <glyph glyph-name="uni0328.cap" 
d="M-185 -178q-23 20 -23 60q0 44 28 76t73 50l50 -8q-35 -15 -63 -40t-28 -53q0 -20 13.5 -31.5t33.5 -11.5q6 0 18 2l-3 -58q-19 -6 -39 -6q-37 0 -60 20z" />
    <glyph glyph-name="uni0337.cap" 
d="M-311 239l347 197l-12 -64l-347 -197z" />
    <glyph glyph-name="uni0338.cap" 
d="M-475 2l519 722l43 -26l-519 -722z" />
    </font>
</defs>
</svg>
