<?xml version="1.0" standalone="no"?>
<!DOCTYPE svg PUBLIC "-//W3C//DTD SVG 1.1//EN" "http://www.w3.org/Graphics/SVG/1.1/DTD/svg11.dtd" >
<svg xmlns="http://www.w3.org/2000/svg" xmlns:xlink="http://www.w3.org/1999/xlink" version="1.1">
<metadata>
Created by FontForge 20170731 at Thu Mar  5 18:53:57 2020
 By Aleksey,,,
Copyright (c) 2015 by Colophon Foundry. All rights reserved.
</metadata>
<defs>
<font id="BasisGrotesque-BoldItalic" horiz-adv-x="0" >
  <font-face 
    font-family="Basis Grotesque"
    font-weight="700"
    font-style="italic"
    font-stretch="normal"
    units-per-em="1000"
    panose-1="2 11 8 3 3 6 4 4 1 3"
    ascent="800"
    descent="-200"
    x-height="496"
    cap-height="700"
    bbox="-696 -314 1204 934"
    underline-thickness="50"
    underline-position="-150"
    slope="-11"
    unicode-range="U+000D-FB02"
  />
<missing-glyph horiz-adv-x="586" 
d="M60 700h466v-700h-466v700zM464 664h-342l171 -280zM272 350l-176 288v-576zM490 638l-176 -288l176 -288v576zM464 36l-171 280l-171 -280h342z" />
    <glyph glyph-name="f_i" unicode="fi" horiz-adv-x="589" 
d="M118 394h-71l20 102h71l16 78q36 176 202 176q36 0 66 -9l-25 -114q-25 9 -42 9q-30 0 -49 -17t-25 -48l-15 -75h311l-97 -496h-127l76 394h-183l-76 -394h-128zM483 700h140l-26 -132h-140z" />
    <glyph glyph-name="f_l" unicode="fl" horiz-adv-x="590" 
d="M118 394h-71l20 102h71l16 78q36 176 202 176q36 0 66 -9l-25 -116q-25 9 -42 9q-30 0 -49 -16.5t-25 -46.5l-15 -75h107l-20 -102h-107l-76 -394h-128zM488 700h128l-137 -700h-127z" />
    <glyph glyph-name=".notdef" horiz-adv-x="586" 
d="M60 700h466v-700h-466v700zM464 664h-342l171 -280zM272 350l-176 288v-576zM490 638l-176 -288l176 -288v576zM464 36l-171 280l-171 -280h342z" />
    <glyph glyph-name=".null" 
 />
    <glyph glyph-name="nonmarkingreturn" unicode="&#xd;" horiz-adv-x="289" 
 />
    <glyph glyph-name="space" unicode=" " horiz-adv-x="276" 
 />
    <glyph glyph-name="exclam" unicode="!" horiz-adv-x="281" 
d="M115 457l48 243h132l-48 -243l-64 -249h-100zM53 138h132l-27 -138h-132z" />
    <glyph glyph-name="quotedbl" unicode="&#x22;" horiz-adv-x="394" 
d="M124 621l15 79h120l-15 -79l-45 -167h-94zM296 621l15 79h120l-15 -79l-45 -167h-94z" />
    <glyph glyph-name="numbersign" unicode="#" horiz-adv-x="666" 
d="M152 204h-89v94h106l19 104h-105v94h122l37 204h110l-37 -204h129l38 204h110l-38 -204h89v-94h-106l-19 -104h105v-94h-122l-37 -204h-110l37 204h-129l-38 -204h-110zM408 298l19 104h-129l-19 -104h129z" />
    <glyph glyph-name="dollar" unicode="$" horiz-adv-x="646" 
d="M228 -6q-81 19 -131 78.5t-61 135.5l121 61q6 -58 29.5 -99t64.5 -58l40 205q-72 21 -120 69t-48 120q0 57 29 102.5t84.5 73t131.5 31.5l17 87h104l-19 -96q63 -17 104.5 -61.5t57.5 -105.5l-110 -59q-10 35 -29 63t-46 43l-34 -173q83 -25 127 -68.5t44 -114.5
q0 -103 -68.5 -167.5t-184.5 -73.5l-17 -87h-104zM346 600q-46 -6 -71 -27t-25 -56q0 -26 15.5 -44t49.5 -32zM423 143q27 27 27 66q0 26 -15.5 44.5t-45.5 32.5l-35 -179q42 9 69 36z" />
    <glyph glyph-name="percent" unicode="%" horiz-adv-x="875" 
d="M166 384q-36 20 -57 55.5t-21 80.5q0 52 25 96.5t69.5 71t101.5 26.5q74 0 117 -41.5t43 -111.5q0 -53 -25.5 -98.5t-70.5 -72t-102 -26.5q-44 0 -80 20zM138 49l566 658l63 -56l-566 -658zM323 479q27 29 27 74q0 32 -19.5 53.5t-51.5 21.5q-42 0 -69.5 -29.5
t-27.5 -74.5q0 -33 20.5 -53.5t53.5 -20.5q40 0 67 29zM537 6q-36 20 -57 55.5t-21 80.5q0 52 25 96.5t69.5 71t101.5 26.5q74 0 117 -41.5t43 -111.5q0 -53 -25.5 -98.5t-70.5 -72t-102 -26.5q-44 0 -80 20zM694 101q27 29 27 74q0 32 -19.5 53.5t-51.5 21.5
q-42 0 -69.5 -29.5t-27.5 -74.5q0 -33 20.5 -53.5t53.5 -20.5q40 0 67 29z" />
    <glyph glyph-name="ampersand" unicode="&#x26;" horiz-adv-x="683" 
d="M147 12.5q-50 26.5 -77.5 72.5t-27.5 103q0 68 41.5 125.5t126.5 99.5q-21 50 -21 105q0 52 21.5 97t65 72t105.5 27q76 0 121.5 -37.5t45.5 -102.5q0 -64 -44.5 -113t-131.5 -88l90 -147q35 58 61 133l96 -58q-44 -117 -92 -183l72 -118h-145l-20 33q-74 -47 -172 -47
q-65 0 -115 26.5zM409.5 504.5q28.5 24.5 28.5 58.5q0 25 -17.5 40t-41.5 15q-34 0 -55.5 -26t-21.5 -61q0 -36 19 -74q60 23 88.5 47.5zM376 129l-118 195q-86 -48 -86 -121q0 -51 31 -79t79 -28t94 33z" />
    <glyph glyph-name="quotesingle" unicode="'" horiz-adv-x="222" 
d="M124 621l15 79h120l-15 -79l-45 -167h-94z" />
    <glyph glyph-name="parenleft" unicode="(" horiz-adv-x="358" 
d="M67 -21q-12 72 -12 153q0 150 56 304t152 264h113q-90 -124 -144 -273.5t-54 -300.5q0 -87 8 -152t25 -122h-112q-20 55 -32 127z" />
    <glyph glyph-name="parenright" unicode=")" horiz-adv-x="358" 
d="M137 125.5q54 149.5 54 300.5q0 87 -8 152t-25 122h112q20 -55 32 -127t12 -153q0 -150 -56 -304t-152 -264h-113q90 124 144 273.5z" />
    <glyph glyph-name="asterisk" unicode="*" horiz-adv-x="438" 
d="M228 474l-88 -63l-47 83l105 38l-86 36l56 94l83 -72l4 110h105l-41 -110l101 67l35 -89l-108 -36l86 -35l-56 -94l-80 71l-5 -110h-103z" />
    <glyph glyph-name="plus" unicode="+" horiz-adv-x="565" 
d="M244 314h-190l19 102h190l38 191h104l-38 -191h190l-19 -102h-190l-38 -191h-104z" />
    <glyph glyph-name="comma" unicode="," horiz-adv-x="214" 
d="M-25 -134l63 134h-46l26 134h134l-26 -134l-127 -151z" />
    <glyph glyph-name="hyphen" unicode="-" horiz-adv-x="469" 
d="M62 362h388l-19 -102h-388z" />
    <glyph glyph-name="period" unicode="." horiz-adv-x="214" 
d="M19 134h134l-27 -134h-134z" />
    <glyph glyph-name="slash" unicode="/" horiz-adv-x="540" 
d="M495 730h135l-546 -760h-134z" />
    <glyph glyph-name="zero" unicode="0" horiz-adv-x="736" 
d="M194.5 23q-62.5 37 -97.5 106t-35 162q0 103 43.5 200.5t128.5 160t201 62.5q82 0 145 -35t98 -102.5t35 -161.5q0 -114 -44.5 -212t-130 -157.5t-202.5 -59.5q-79 0 -141.5 37zM472.5 147q50.5 39 78.5 106t28 148q0 91 -41 141t-112 50q-70 0 -122 -45t-80 -113.5
t-28 -136.5q0 -90 43 -139.5t117 -49.5q66 0 116.5 39z" />
    <glyph glyph-name="one" unicode="1" horiz-adv-x="394" 
d="M249 538q-30 -27 -65.5 -37.5t-90.5 -10.5l23 122q117 0 173 88h124l-137 -700h-132z" />
    <glyph glyph-name="two" unicode="2" horiz-adv-x="601" 
d="M37 94l316 257q48 40 70 75.5t22 78.5q0 44 -27 68.5t-75 24.5q-47 0 -79.5 -31t-32.5 -73q0 -21 6 -38l-131 -24q-9 23 -9 50q0 65 30.5 118t87 83.5t132.5 30.5q105 0 168.5 -52.5t63.5 -144.5q0 -126 -141 -242l-187 -153h264l-24 -122h-472z" />
    <glyph glyph-name="three" unicode="3" horiz-adv-x="601" 
d="M147.5 12q-52.5 26 -80 69.5t-27.5 94.5t22 86l118 -30q-12 -18 -12 -47q0 -39 31 -63t83 -24q55 0 92.5 35t37.5 88q0 55 -42.5 79.5t-115.5 24.5l19 98q74 1 120 26.5t46 76.5q0 38 -27.5 59t-69.5 21q-45 0 -74 -25t-29 -74q0 -7 1 -13l-125 -21q-3 15 -3 29
q0 60 29 108t84.5 76t130.5 28q67 0 115.5 -22.5t73 -61t24.5 -86.5q0 -56 -32.5 -100t-87.5 -62q44 -23 70.5 -62.5t26.5 -92.5q0 -68 -32 -122.5t-94 -86.5t-148 -32q-72 0 -124.5 26z" />
    <glyph glyph-name="four" unicode="4" horiz-adv-x="609" 
d="M350 116h-335l23 122l418 462h140l-90 -462h71l-24 -122h-71l-23 -116h-132zM374 238l53 276l-244 -276h191z" />
    <glyph glyph-name="five" unicode="5" horiz-adv-x="609" 
d="M148 11q-53 25 -82 67t-29 92q0 42 17 78l118 -30q-8 -16 -8 -41q0 -32 32.5 -55.5t80.5 -23.5q70 0 112 43t42 115q0 59 -32.5 89.5t-85.5 30.5q-45 0 -85.5 -23.5t-64.5 -61.5l-99 27l107 382h431l-24 -122h-336l-47 -159q62 59 156 59q100 0 156 -55t56 -156
q0 -82 -36.5 -146t-103.5 -99.5t-154 -35.5q-68 0 -121 25z" />
    <glyph glyph-name="six" unicode="6" horiz-adv-x="633" 
d="M176 20.5q-56 34.5 -86.5 98t-30.5 149.5q0 102 39.5 205.5t119 172t192.5 68.5q59 0 105 -20t72 -54.5t26 -77.5q0 -23 -4.5 -40.5t-13.5 -37.5l-112 26q8 19 8 41q0 27 -25.5 44t-67.5 17q-69 0 -121.5 -61t-73.5 -161q30 33 72.5 50.5t89.5 17.5q63 0 113.5 -24.5
t80 -70.5t29.5 -108q0 -78 -36 -139.5t-100 -95.5t-146 -34q-74 0 -130 34.5zM417.5 133.5q40.5 39.5 40.5 101.5q0 56 -34 85.5t-90 29.5q-62 0 -101.5 -40t-39.5 -101q0 -51 34.5 -83t88.5 -32q61 0 101.5 39.5z" />
    <glyph glyph-name="seven" unicode="7" horiz-adv-x="545" 
d="M429 578h-329l24 122h472l-23 -116l-376 -584h-141z" />
    <glyph glyph-name="eight" unicode="8" horiz-adv-x="599" 
d="M148.5 11.5q-53.5 25.5 -83 69.5t-29.5 98q0 69 41 122.5t109 81.5q-29 19 -49.5 54.5t-20.5 77.5q0 56 31 101.5t86.5 71.5t127.5 26q66 0 115 -22t74.5 -59.5t25.5 -83.5q0 -63 -34 -109.5t-91 -70.5q39 -22 65.5 -62t26.5 -86q0 -73 -35.5 -126t-97 -81t-138.5 -28
q-70 0 -123.5 25.5zM415 452.5q34 28.5 34 78.5q0 40 -25.5 62.5t-69.5 22.5q-50 0 -83 -30t-33 -76q0 -41 27 -63.5t65 -22.5q51 0 85 28.5zM377 127.5q39 33.5 39 89.5q0 46 -32 72.5t-80 26.5q-61 0 -97.5 -33.5t-36.5 -88.5q0 -46 32.5 -73t79.5 -27q56 0 95 33.5z" />
    <glyph glyph-name="nine" unicode="9" horiz-adv-x="632" 
d="M163.5 5.5q-47.5 19.5 -73.5 55t-26 80.5q0 41 16 76l119 -28q-8 -19 -8 -36q0 -28 22 -46.5t63 -18.5q74 0 124.5 58.5t67.5 164.5q-26 -32 -67 -50.5t-88 -18.5q-66 0 -117.5 28.5t-80 77t-28.5 107.5q0 77 35.5 136t99 91t145.5 32q120 0 184 -69.5t64 -191.5
q0 -107 -35.5 -214.5t-112.5 -180t-194 -72.5q-62 0 -109.5 19.5zM443 388.5q42 38.5 42 100.5q0 51 -33.5 84t-88.5 33q-64 0 -105 -39.5t-41 -104.5q0 -51 33.5 -81.5t86.5 -30.5q64 0 106 38.5z" />
    <glyph glyph-name="colon" unicode=":" horiz-adv-x="214" 
d="M87 484h134l-27 -134h-134zM19 134h134l-27 -134h-133z" />
    <glyph glyph-name="semicolon" unicode=";" horiz-adv-x="214" 
d="M86 484h134l-26 -134h-134zM-25 -134l63 134h-46l26 134h134l-26 -134l-127 -151z" />
    <glyph glyph-name="less" unicode="&#x3c;" horiz-adv-x="526" 
d="M42 258l20 104l480 217l-28 -139l-315 -135l263 -134l-26 -128z" />
    <glyph glyph-name="equal" unicode="=" horiz-adv-x="565" 
d="M89 496h484l-20 -102h-484zM50 296h484l-20 -102h-484z" />
    <glyph glyph-name="greater" unicode="&#x3e;" horiz-adv-x="526" 
d="M36 182l315 135l-263 134l26 128l394 -215l-20 -104l-480 -217z" />
    <glyph glyph-name="question" unicode="?" horiz-adv-x="552" 
d="M198 224q9 48 35.5 82t86.5 75q58 40 84 69t26 71q0 33 -26.5 56t-70.5 23q-50 0 -82.5 -31t-32.5 -79q0 -12 3 -24l-125 -26q-5 22 -5 43q0 64 30 116.5t87 83.5t135 31q99 0 158 -47t59 -125q0 -63 -38 -116t-111 -102q-46 -31 -64.5 -55.5t-24.5 -60.5h-127zM178 138
h132l-27 -138h-132z" />
    <glyph glyph-name="at" unicode="@" horiz-adv-x="953" 
d="M236.5 -109.5q-83.5 42.5 -134.5 128.5t-51 210q0 129 61 240.5t172 178t254 66.5q115 0 200.5 -41t132.5 -118.5t47 -182.5q0 -95 -33.5 -173.5t-94 -125t-138.5 -46.5q-42 0 -66.5 23.5t-24.5 64.5q-23 -37 -66 -62.5t-93 -25.5q-80 0 -126 55.5t-46 152.5
q0 73 32 143.5t93.5 116t144.5 45.5q40 0 69.5 -16t44.5 -45l9 45h101l-75 -360q-2 -10 -2 -20q0 -32 32 -32q39 0 69 34t46.5 92t16.5 128q0 122 -70 189t-212 67q-107 0 -191.5 -53t-132 -142t-47.5 -193q0 -94 35 -160t97.5 -100t143.5 -34q60 0 105.5 13t97.5 42l41 -83
q-56 -33 -119 -48.5t-141 -15.5q-98 0 -181.5 42.5zM508 145q37 33 57.5 85t20.5 106q0 117 -92 117q-47 0 -82.5 -32t-55 -82.5t-19.5 -103.5q0 -59 23.5 -91t63.5 -32q47 0 84 33z" />
    <glyph glyph-name="A" unicode="A" horiz-adv-x="704" 
d="M373 700h132l146 -700h-139l-35 183h-265l-105 -183h-150zM456 301l-29 168l-12 76q-19 -40 -40 -76l-97 -168h178z" />
    <glyph glyph-name="B" unicode="B" horiz-adv-x="664" 
d="M163 700h275q62 0 109 -20t72.5 -55.5t25.5 -80.5q0 -61 -33.5 -103.5t-92.5 -63.5q93 -49 93 -146q0 -68 -39 -120.5t-106 -81.5t-147 -29h-294zM388 428q54 0 88.5 24t34.5 68q0 34 -23.5 49t-69.5 15h-146l-30 -156h146zM334 118q67 0 105.5 28t38.5 82q0 84 -109 84
h-150l-38 -194h153z" />
    <glyph glyph-name="C" unicode="C" horiz-adv-x="767" 
d="M212 24.5q-70 38.5 -109.5 110t-39.5 165.5q0 110 50.5 205t144.5 152t218 57q109 0 180 -50t106 -135l-116 -72q-26 66 -75 100.5t-114 34.5q-74 0 -133 -40t-92 -104.5t-33 -136.5q0 -59 23 -105t65.5 -72t97.5 -26q67 0 122 39t91 102l109 -76q-66 -97 -146.5 -142
t-189.5 -45q-89 0 -159 38.5z" />
    <glyph glyph-name="D" unicode="D" horiz-adv-x="717" 
d="M163 700h211q150 0 235.5 -75.5t85.5 -218.5q0 -117 -52 -209t-152.5 -144.5t-242.5 -52.5h-222zM273 122q88 0 152.5 35t99 96.5t34.5 139.5q0 91 -53 138t-147 47h-88l-89 -456h91z" />
    <glyph glyph-name="E" unicode="E" horiz-adv-x="612" 
d="M163 700h479l-23 -118h-347l-32 -161h319l-23 -118h-319l-36 -185h350l-23 -118h-482z" />
    <glyph glyph-name="F" unicode="F" horiz-adv-x="618" 
d="M163 700h493l-23 -118h-361l-36 -181h331l-23 -118h-331l-55 -283h-132z" />
    <glyph glyph-name="G" unicode="G" horiz-adv-x="780" 
d="M202.5 24q-65.5 38 -103.5 107.5t-38 159.5q0 115 50.5 211.5t146 154t222.5 57.5q106 0 178 -47.5t103 -126.5l-111 -71q-21 60 -68.5 94.5t-117.5 34.5q-75 0 -136 -38.5t-96 -105.5t-35 -151q0 -58 23 -102t63.5 -68.5t91.5 -24.5q82 0 139 45.5t82 112.5h-227l21 108
h356l-73 -374h-88l-11 91q-41 -50 -95.5 -77.5t-130.5 -27.5q-80 0 -145.5 38z" />
    <glyph glyph-name="H" unicode="H" horiz-adv-x="715" 
d="M163 700h132l-55 -282h302l55 282h132l-137 -700h-132l58 296h-302l-58 -296h-132z" />
    <glyph glyph-name="I" unicode="I" horiz-adv-x="281" 
d="M163 700h132l-137 -700h-132z" />
    <glyph glyph-name="J" unicode="J" horiz-adv-x="555" 
d="M125.5 8q-44.5 22 -70 62.5t-25.5 95.5q0 31 7 59l130 -15q-3 -18 -3 -32q0 -28 23 -49t61 -21q45 0 74.5 27t39.5 81l94 484h132l-95 -486q-23 -118 -86 -173t-183 -55q-54 0 -98.5 22z" />
    <glyph glyph-name="K" unicode="K" horiz-adv-x="660" 
d="M163 700h132l-50 -260l66 60l228 200h174l-297 -260l176 -440h-148l-136 349l-98 -86l-52 -263h-132z" />
    <glyph glyph-name="L" unicode="L" horiz-adv-x="596" 
d="M163 700h132l-113 -578h348l-24 -122h-480z" />
    <glyph glyph-name="M" unicode="M" horiz-adv-x="873" 
d="M163 700h136l116 -550l327 550h145l-137 -700h-128l84 428l-60 -107l-192 -321h-127l-72 312l-17 116l-84 -428h-128z" />
    <glyph glyph-name="N" unicode="N" horiz-adv-x="729" 
d="M163 700h136l197 -453q12 -30 19 -55l100 508h128l-137 -700h-137l-196 454q-14 35 -20 55l-99 -509h-128z" />
    <glyph glyph-name="O" unicode="O" horiz-adv-x="812" 
d="M217.5 27q-72.5 41 -113.5 113.5t-41 164.5q0 106 48.5 200t140 151.5t214.5 57.5q99 0 172 -39.5t112 -111t39 -164.5q0 -112 -50 -206.5t-143 -150.5t-214 -56q-92 0 -164.5 41zM530 146q58 38 90.5 102.5t32.5 141.5q0 95 -55.5 148.5t-146.5 53.5q-72 0 -129.5 -39
t-90 -104t-32.5 -140q0 -63 26.5 -108.5t72 -69t101.5 -23.5q73 0 131 38z" />
    <glyph glyph-name="P" unicode="P" horiz-adv-x="700" 
d="M163 700h298q112 0 176 -53t64 -153q0 -78 -40.5 -134.5t-111 -86t-159.5 -29.5h-184l-48 -244h-132zM407 362q72 0 115 32.5t43 90.5q0 49 -31 73t-89 24h-173l-43 -220h178z" />
    <glyph glyph-name="Q" unicode="Q" horiz-adv-x="812" 
d="M421.5 -93.5q-23.5 40.5 -35.5 79.5h-4q-92 0 -164.5 41t-113.5 113.5t-41 164.5q0 106 48.5 200t140 151.5t214.5 57.5q99 0 172 -39.5t112 -111t39 -164.5q0 -89 -32.5 -168.5t-93 -137.5t-143.5 -86q16 -38 65 -89l-111 -85q-29 33 -52.5 73.5zM530 146
q58 38 90.5 102.5t32.5 141.5q0 95 -55.5 148.5t-146.5 53.5q-72 0 -129.5 -39t-90 -104t-32.5 -140q0 -63 26.5 -108.5t72 -69t101.5 -23.5q73 0 131 38z" />
    <glyph glyph-name="R" unicode="R" horiz-adv-x="664" 
d="M163 700h287q105 0 164.5 -47t59.5 -131q0 -88 -55.5 -147t-146.5 -79l111 -296h-141l-105 284h-123l-56 -284h-132zM403 400q60 0 97.5 26.5t37.5 76.5q0 81 -99 81h-167l-36 -184h167z" />
    <glyph glyph-name="S" unicode="S" horiz-adv-x="651" 
d="M170 16q-57 30 -91 80.5t-43 111.5l121 61q9 -76 48.5 -121.5t109.5 -45.5q58 0 99 29t41 78q0 40 -33.5 62t-110.5 42q-78 20 -132.5 69t-54.5 124q0 60 32 107.5t91.5 74t137.5 26.5q99 0 159 -45.5t84 -126.5l-101 -64q-16 57 -54.5 88.5t-97.5 31.5
q-53 0 -88.5 -20.5t-35.5 -58.5q0 -37 34 -59.5t110 -42.5q94 -24 144 -69t50 -120q0 -73 -35.5 -127.5t-100 -84.5t-150.5 -30q-76 0 -133 30z" />
    <glyph glyph-name="T" unicode="T" horiz-adv-x="592" 
d="M294 578h-212l24 122h556l-24 -122h-212l-113 -578h-132z" />
    <glyph glyph-name="U" unicode="U" horiz-adv-x="700" 
d="M185 12.5q-54 26.5 -86.5 78t-32.5 121.5q0 37 7 75l81 413h132l-81 -417q-5 -29 -5 -51q0 -59 34 -91.5t92 -32.5q150 0 184 176l80 416h132l-85 -435q-28 -145 -109 -212t-225 -67q-64 0 -118 26.5z" />
    <glyph glyph-name="V" unicode="V" horiz-adv-x="658" 
d="M90 700h140l70 -448q6 -39 9 -78l15 31q4 8 23 47l246 448h151l-396 -700h-136z" />
    <glyph glyph-name="W" unicode="W" horiz-adv-x="942" 
d="M94 700h136l24 -442q2 -50 2 -76q14 39 32 77l199 441h141l26 -441q2 -26 2 -77l32 76l195 442h141l-328 -700h-142l-34 508l-229 -508h-141z" />
    <glyph glyph-name="X" unicode="X" horiz-adv-x="622" 
d="M266 383l-142 317h144l92 -218l170 218h151l-272 -330l159 -370h-145l-105 262l-205 -262h-155z" />
    <glyph glyph-name="Y" unicode="Y" horiz-adv-x="600" 
d="M239 274l-149 426h147l77 -251q8 -26 12 -51q15 27 32 51l177 251h151l-315 -426l-54 -274h-132z" />
    <glyph glyph-name="Z" unicode="Z" horiz-adv-x="614" 
d="M11 120l445 458h-344l24 122h512l-24 -122l-443 -456h371l-24 -122h-541z" />
    <glyph glyph-name="bracketleft" unicode="[" horiz-adv-x="348" 
d="M162 700h229l-23 -118h-103l-119 -614h103l-23 -118h-228z" />
    <glyph glyph-name="backslash" unicode="\" horiz-adv-x="533" 
d="M98 730h124l253 -760h-124z" />
    <glyph glyph-name="bracketright" unicode="]" horiz-adv-x="348" 
d="M-8 -32h102l119 614h-103l23 118h229l-165 -850h-228z" />
    <glyph glyph-name="asciicircum" unicode="^" horiz-adv-x="498" 
d="M279 700h113l124 -270h-122l-74 168l-140 -168h-128z" />
    <glyph glyph-name="underscore" unicode="_" horiz-adv-x="514" 
d="M-42 -7h498l-19 -102h-497z" />
    <glyph glyph-name="grave" unicode="`" horiz-adv-x="325" 
d="M121 708h152l37 -158h-97z" />
    <glyph glyph-name="a" unicode="a" horiz-adv-x="621" 
d="M132.5 15.5q-47.5 29.5 -73.5 81.5t-26 117q0 79 33.5 147t97 108.5t148.5 40.5q55 0 94 -20t60 -55l13 61h128l-97 -496h-128l12 61q-55 -75 -152 -75q-62 0 -109.5 29.5zM367 125.5q35 21.5 56 59.5t21 86q0 57 -34 89t-89 32q-46 0 -82 -21.5t-56 -59.5t-20 -84
q0 -57 36 -90t91 -33q42 0 77 21.5z" />
    <glyph glyph-name="b" unicode="b" horiz-adv-x="627" 
d="M214 7q-39 21 -60 54l-12 -61h-127l135 700h128l-52 -265q29 36 70 55.5t92 19.5q57 0 104 -27.5t75 -78t28 -116.5q0 -86 -36.5 -155t-102 -108t-149.5 -39q-54 0 -93 21zM385.5 126q36.5 22 57 60t20.5 84q0 57 -34 89.5t-91 32.5q-48 0 -84.5 -23.5t-56 -62
t-19.5 -81.5q0 -58 34.5 -89.5t91.5 -31.5q45 0 81.5 22z" />
    <glyph glyph-name="c" unicode="c" horiz-adv-x="565" 
d="M151 15q-54 29 -85.5 82.5t-31.5 123.5q0 76 33 142t99.5 106.5t161.5 40.5q80 0 135 -36t81 -99l-109 -64q-15 39 -45.5 60t-72.5 21q-44 0 -79 -23t-54.5 -60.5t-19.5 -78.5q0 -59 33 -92.5t86 -33.5q46 0 79.5 22.5t60.5 66.5l97 -67q-46 -75 -106 -107.5t-143 -32.5
q-66 0 -120 29z" />
    <glyph glyph-name="d" unicode="d" horiz-adv-x="627" 
d="M140 15.5q-50 29.5 -78.5 82t-28.5 118.5q0 79 34.5 146.5t99 107.5t149.5 40q54 0 95.5 -21t61.5 -54l52 265h128l-136 -700h-128l10 58q-53 -72 -147 -72q-62 0 -112 29.5zM370.5 125.5q36.5 21.5 58 59.5t21.5 86q0 57 -35 89t-93 32q-47 0 -83 -22t-56 -59t-20 -80
q0 -60 36.5 -93.5t92.5 -33.5q42 0 78.5 21.5z" />
    <glyph glyph-name="e" unicode="e" horiz-adv-x="579" 
d="M144.5 14.5q-51.5 28.5 -81 82t-29.5 125.5q0 77 37 143.5t103.5 105.5t150.5 39q70 0 120.5 -25t76.5 -69.5t26 -101.5q0 -36 -6 -68l-5 -28h-385q0 -58 32.5 -91t85.5 -33q51 0 86.5 21.5t61.5 67.5l91 -58q-43 -71 -101.5 -105t-144.5 -34q-67 0 -118.5 28.5zM436 310
q0 48 -31.5 76t-84.5 28q-49 0 -89 -29t-57 -75h262z" />
    <glyph glyph-name="f" unicode="f" horiz-adv-x="338" 
d="M118 394h-71l20 102h71l16 78q36 176 202 176q36 0 66 -9l-25 -116q-25 9 -42 9q-30 0 -49 -16.5t-25 -46.5l-15 -75h107l-20 -102h-107l-76 -394h-128z" />
    <glyph glyph-name="g" unicode="g" horiz-adv-x="604" 
d="M105.5 -198q-48.5 20 -74 53.5t-25.5 72.5q0 43 24 77l115 -37q-9 -18 -9 -35q0 -22 25 -36.5t69 -14.5q119 0 145 136l11 59q-23 -34 -56 -51.5t-84 -17.5q-55 0 -103 25.5t-77 74.5t-29 118q0 76 33 141t95.5 104t146.5 39q50 0 88.5 -19t56.5 -49l11 54h128l-92 -473
q-24 -126 -94 -183.5t-190 -57.5q-66 0 -114.5 20zM357.5 142q33.5 24 52 63t18.5 84q0 49 -32.5 80t-81.5 31q-42 0 -76 -23t-52.5 -61t-18.5 -79q0 -57 32 -88t81 -31q44 0 77.5 24z" />
    <glyph glyph-name="h" unicode="h" horiz-adv-x="600" 
d="M150 700h128l-53 -275q26 38 72.5 61.5t99.5 23.5q74 0 117.5 -38t43.5 -103q0 -18 -4 -41l-65 -328h-128l56 283q2 12 2 24q0 39 -21 62t-61 23q-55 0 -94.5 -37t-53.5 -108l-48 -247h-127z" />
    <glyph glyph-name="i" unicode="i" horiz-adv-x="250" 
d="M109 496h128l-97 -496h-127zM144 700h140l-26 -132h-140z" />
    <glyph glyph-name="j" unicode="j" horiz-adv-x="250" 
d="M-131 -201l33 114q18 -8 37 -8q30 0 45.5 17t22.5 54l101 520h128l-104 -540q-32 -167 -190 -167q-43 0 -73 10zM142 700h140l-26 -132h-140z" />
    <glyph glyph-name="k" unicode="k" horiz-adv-x="540" 
d="M150 700h128l-67 -344l163 140h167l-209 -174l138 -322h-134l-106 239l-51 -44l-38 -195h-127z" />
    <glyph glyph-name="l" unicode="l" horiz-adv-x="252" 
d="M150 700h128l-137 -700h-127z" />
    <glyph glyph-name="m" unicode="m" horiz-adv-x="852" 
d="M110 496h128l-11 -61q28 37 68 56t86 19q45 0 78 -20.5t48 -57.5q61 78 161 78q64 0 103.5 -36.5t39.5 -95.5q0 -20 -5 -48l-64 -330h-128l60 307q3 15 3 27q0 30 -18 48t-51 18q-42 0 -71 -32t-41 -92l-54 -276h-128l60 310q3 18 3 29q0 28 -16.5 44.5t-47.5 16.5
q-40 0 -73 -31.5t-44 -90.5l-54 -278h-128z" />
    <glyph glyph-name="n" unicode="n" horiz-adv-x="594" 
d="M110 496h128l-12 -67q62 81 165 81q77 0 118.5 -39t41.5 -101q0 -15 -4 -45l-63 -325h-128l56 288q5 25 5 37q0 30 -22.5 48.5t-61.5 18.5q-51 0 -90.5 -39t-51.5 -101l-49 -252h-128z" />
    <glyph glyph-name="o" unicode="o" horiz-adv-x="612" 
d="M153.5 14q-55.5 28 -88.5 79.5t-33 117.5q0 84 38 152t106.5 107.5t158.5 39.5q69 0 124.5 -26.5t87.5 -78.5t32 -125q0 -84 -39 -151t-108 -105t-158 -38q-65 0 -120.5 28zM369.5 125.5q35.5 21.5 56.5 59t21 84.5q0 57 -35 90t-93 33q-45 0 -81 -23.5t-56 -61
t-20 -79.5q0 -59 36.5 -91.5t91.5 -32.5q44 0 79.5 21.5z" />
    <glyph glyph-name="p" unicode="p" horiz-adv-x="625" 
d="M110 496h128l-12 -61q24 32 66.5 53.5t94.5 21.5q59 0 105.5 -25.5t73.5 -76t27 -121.5q0 -82 -36 -151t-100 -109.5t-145 -40.5q-52 0 -95 21.5t-63 53.5l-52 -265h-127zM382 125.5q36 21.5 57.5 59.5t21.5 85q0 56 -34.5 89t-89.5 33q-45 0 -80.5 -22t-56 -60.5
t-20.5 -84.5q0 -54 35 -87.5t88 -33.5q43 0 79 21.5z" />
    <glyph glyph-name="q" unicode="q" horiz-adv-x="625" 
d="M399 61q-54 -75 -153 -75q-59 0 -108 27.5t-77.5 79t-28.5 120.5q0 77 34 145.5t98 110t150 41.5q57 0 97.5 -22t58.5 -58l13 66h128l-136 -700h-128zM368.5 126q36.5 22 57.5 60t21 85q0 57 -35 89t-89 32q-46 0 -82.5 -22t-57.5 -60t-21 -84q0 -57 35 -89.5t90 -32.5
q45 0 81.5 22z" />
    <glyph glyph-name="r" unicode="r" horiz-adv-x="379" 
d="M110 496h128l-13 -68q46 82 148 82q21 0 42 -6l-43 -119q-17 7 -40 7q-56 0 -92.5 -40t-50.5 -114l-47 -238h-128z" />
    <glyph glyph-name="s" unicode="s" horiz-adv-x="500" 
d="M84 29.5q-56 43.5 -72 107.5l100 58q10 -47 39.5 -75t81.5 -28q36 0 60 15t24 42q0 25 -23.5 38.5t-76.5 27.5q-141 37 -141 147q0 42 23.5 75.5t68 53t103.5 19.5q149 0 191 -123l-91 -49q-33 80 -107 80q-31 0 -52.5 -12.5t-21.5 -36.5q0 -21 25.5 -37.5t71.5 -27.5
q76 -18 112.5 -52t36.5 -92q0 -78 -58.5 -126t-159.5 -48q-78 0 -134 43.5z" />
    <glyph glyph-name="t" unicode="t" horiz-adv-x="368" 
d="M114.5 18.5q-36.5 32.5 -36.5 85.5q0 25 6 58l45 232h-77l20 102h77l26 134h128l-26 -134h106l-20 -102h-106l-44 -226q-3 -16 -3 -28q0 -20 14 -31t37 -11q21 0 43 6l-8 -104q-47 -14 -90 -14q-55 0 -91.5 32.5z" />
    <glyph glyph-name="u" unicode="u" horiz-adv-x="594" 
d="M121 6.5q-38 20.5 -57.5 54.5t-19.5 75q0 18 6 52l60 308h128l-55 -282q-5 -25 -5 -42q0 -34 24 -51t64 -17q49 0 87 39t51 106l48 247h128l-96 -496h-128l12 67q-24 -37 -65.5 -59t-90.5 -22q-53 0 -91 20.5z" />
    <glyph glyph-name="v" unicode="v" horiz-adv-x="534" 
d="M53 496h132l60 -336l190 336h142l-298 -496h-124z" />
    <glyph glyph-name="w" unicode="w" horiz-adv-x="714" 
d="M53 496h121l16 -323l147 323h128l23 -322l141 322h128l-229 -496h-127l-27 337l-157 -337h-122z" />
    <glyph glyph-name="x" unicode="x" horiz-adv-x="480" 
d="M177 274l-102 222h134l53 -130l102 130h149l-197 -229l116 -267h-136l-67 167l-126 -167h-151z" />
    <glyph glyph-name="y" unicode="y" horiz-adv-x="546" 
d="M-16 -200l42 117q21 -12 43 -12q21 0 37 10.5t30 36.5l25 48l-107 496h136l67 -328l188 328h142l-352 -588q-41 -68 -80 -93.5t-102 -25.5q-42 0 -69 11z" />
    <glyph glyph-name="z" unicode="z" horiz-adv-x="496" 
d="M8 102l316 292h-248l20 102h396l-20 -102l-313 -292h273l-20 -102h-423z" />
    <glyph glyph-name="braceleft" unicode="{" horiz-adv-x="395" 
d="M116.5 -117q-40.5 33 -40.5 96q0 23 5 53l22 113q3 17 3 29q0 50 -62 50l19 102q39 0 60.5 17t30.5 62l23 120q18 95 66 135t137 40h58l-23 -118h-25q-38 0 -61 -20.5t-32 -66.5l-22 -112q-9 -47 -29 -70.5t-57 -37.5q24 -10 35.5 -26.5t11.5 -45.5q0 -22 -4 -43
l-20 -105q-4 -22 -4 -33q0 -28 15.5 -41t47.5 -13h25l-23 -118h-56q-60 0 -100.5 33z" />
    <glyph glyph-name="bar" unicode="|" horiz-adv-x="268" 
d="M168 740h122l-165 -850h-121z" />
    <glyph glyph-name="braceright" unicode="}" horiz-adv-x="396" 
d="M-9 -32h25q38 0 61 20.5t32 66.5l22 112q9 47 29 70.5t57 37.5q-24 10 -35.5 26.5t-11.5 45.5q0 22 4 43l20 105q4 22 4 33q0 28 -15.5 41t-47.5 13h-25l23 118h56q60 0 100.5 -33t40.5 -96q0 -23 -5 -53l-22 -113q-3 -16 -3 -29q0 -50 62 -50l-19 -102q-39 0 -60.5 -17
t-30.5 -62l-23 -120q-18 -95 -66 -135t-137 -40h-58z" />
    <glyph glyph-name="asciitilde" unicode="~" horiz-adv-x="468" 
d="M52 294q0 50 32 83t92 33q35 0 56.5 -10.5t45.5 -30.5q15 -12 23.5 -17t19.5 -5q15 0 24 8.5t9 23.5q0 10 -3 16l91 16q7 -14 7 -40q0 -58 -32.5 -87.5t-91.5 -29.5q-36 0 -57.5 10.5t-45.5 30.5q-13 11 -22.5 16.5t-20.5 5.5q-14 0 -22.5 -9t-8.5 -24q0 -7 2 -15
l-91 -16q-7 21 -7 41z" />
    <glyph glyph-name="uni00A0" unicode="&#xa0;" horiz-adv-x="276" 
 />
    <glyph glyph-name="exclamdown" unicode="&#xa1;" horiz-adv-x="281" 
d="M123 496h132l-27 -138h-132zM34 39l64 249h100l-32 -249l-48 -243h-132z" />
    <glyph glyph-name="cent" unicode="&#xa2;" horiz-adv-x="565" 
d="M193 -3q-74 23 -116.5 84.5t-42.5 139.5q0 70 29 131.5t87.5 103.5t141.5 51l22 113h100l-23 -116q56 -11 95 -44.5t58 -84.5l-109 -64q-18 51 -67 71l-53 -275q33 7 59 28t49 58l97 -67q-43 -71 -98.5 -103.5t-130.5 -35.5l-18 -97h-100zM268 384q-47 -16 -75.5 -58.5
t-28.5 -95.5q0 -38 14 -66t39 -43z" />
    <glyph glyph-name="sterling" unicode="&#xa3;" horiz-adv-x="579" 
d="M35 94q46 47 68.5 93t23.5 112h-89l19 98h65q-2 36 -2 60q0 71 29 129t88 93t145 35q65 0 114 -21t75.5 -59t26.5 -87q0 -44 -23 -92l-118 25q11 24 11 48q0 37 -26 58.5t-70 21.5q-59 0 -92 -46t-33 -115q0 -16 2 -50h189l-19 -98h-165q-3 -56 -19.5 -101t-53.5 -88h327
l-21 -110h-469z" />
    <glyph glyph-name="currency" unicode="&#xa4;" horiz-adv-x="652" 
d="M78 154l78 77q-32 53 -32 119t32 119l-78 77l72 72l78 -78q54 33 118 33t118 -33l78 78l72 -72l-78 -77q32 -53 32 -119t-32 -119l78 -77l-72 -72l-78 78q-54 -33 -118 -33t-118 33l-78 -78zM432.5 259q33.5 35 33.5 91t-33.5 91t-86.5 35t-86.5 -35t-33.5 -91t33.5 -91
t86.5 -35t86.5 35z" />
    <glyph glyph-name="yen" unicode="&#xa5;" horiz-adv-x="613" 
d="M213 112h-146l20 102h146l12 60h-146l20 102h90l-107 324h144l69 -245l14 -54q22 36 34 53l171 246h153l-234 -324h90l-20 -102h-146l-12 -60h146l-20 -102h-146l-22 -112h-132z" />
    <glyph glyph-name="brokenbar" unicode="&#xa6;" horiz-adv-x="268" 
d="M168 740h122l-69 -354h-122zM72 244h122l-69 -354h-121z" />
    <glyph glyph-name="section" unicode="&#xa7;" horiz-adv-x="525" 
d="M80 -54.5q-53 38.5 -71 100.5l92 61q12 -52 43.5 -78t79.5 -26q41 0 71 21.5t30 56.5q0 32 -27 53t-89 37q-64 16 -102 54.5t-38 92.5q0 79 68 127q-23 35 -23 83q0 52 26 94.5t75.5 67t117.5 24.5q78 0 133 -38.5t75 -100.5l-94 -61q-12 51 -45 77.5t-79 26.5
q-41 0 -69 -21t-28 -57q0 -32 26 -54t89 -37q141 -33 141 -142q0 -83 -71 -131q23 -38 23 -81q0 -53 -26 -95.5t-75.5 -67.5t-118.5 -25q-81 0 -134 38.5zM375 288q0 25 -23.5 42t-85.5 33q-30 8 -62 23q-29 -20 -29 -50q0 -19 9 -31t31.5 -22.5t66.5 -24.5q39 -12 61 -24
q32 23 32 54z" />
    <glyph glyph-name="dieresis" unicode="&#xa8;" horiz-adv-x="414" 
d="M132 700h118l-25 -124h-118zM312 700h118l-25 -124h-118z" />
    <glyph glyph-name="copyright" unicode="&#xa9;" horiz-adv-x="842" 
d="M258.5 35q-83.5 49 -132.5 132.5t-49 182.5t49 182.5t132.5 132.5t182.5 49t182.5 -49t132.5 -132.5t49 -182.5t-49 -182.5t-132.5 -132.5t-182.5 -49t-182.5 49zM580 109.5q63 37.5 100 101t37 139.5t-37 139.5t-100 101t-139 37.5t-139 -37.5t-100 -101t-37 -139.5
t37 -139.5t100 -101t139 -37.5t139 37.5zM339.5 171.5q-46.5 25.5 -73.5 72t-27 106.5t27.5 106.5t74.5 72t102 25.5q64 0 110 -27.5t66 -77.5l-80 -53q-30 66 -97 66q-44 0 -73.5 -30.5t-29.5 -81.5t29 -81.5t74 -30.5q37 0 61 17.5t41 53.5l79 -52q-27 -55 -73 -83
t-107 -28q-57 0 -103.5 25.5z" />
    <glyph glyph-name="ordfeminine" unicode="&#xaa;" horiz-adv-x="456" 
d="M125.5 336q-41.5 43 -41.5 117q0 59 23 105t66 72.5t100 26.5q38 0 69.5 -15t40.5 -36l9 44h99l-68 -350h-99l9 48q-14 -25 -39.5 -40t-62.5 -15q-64 0 -105.5 43zM336 411q28 31 28 78q0 37 -21.5 59t-56.5 22q-46 0 -75.5 -30.5t-29.5 -80.5q0 -35 23 -57t58 -22
q46 0 74 31z" />
    <glyph glyph-name="guillemotleft" unicode="&#xab;" horiz-adv-x="597" 
d="M45 274l209 214h148l-213 -218l121 -208h-139zM257 274l209 214h148l-213 -218l121 -208h-139z" />
    <glyph glyph-name="logicalnot" unicode="&#xac;" horiz-adv-x="548" 
d="M380 314h-327l20 102h447l-47 -242h-120z" />
    <glyph glyph-name="uni00AD" unicode="&#xad;" horiz-adv-x="469" 
d="M62 362h388l-19 -102h-388z" />
    <glyph glyph-name="registered" unicode="&#xae;" horiz-adv-x="842" 
d="M258.5 35q-83.5 49 -132.5 132.5t-49 182.5t49 182.5t132.5 132.5t182.5 49t182.5 -49t132.5 -132.5t49 -182.5t-49 -182.5t-132.5 -132.5t-182.5 -49t-182.5 49zM580 109.5q63 37.5 100 101t37 139.5t-37 139.5t-100 101t-139 37.5t-139 -37.5t-100 -101t-37 -139.5
t37 -139.5t100 -101t139 -37.5t139 37.5zM294 549h163q71 0 107.5 -33.5t36.5 -89.5q0 -44 -27 -76t-72 -43l95 -156h-97l-91 153h-27v-153h-88v398zM454 376q62 0 62 50q0 49 -62 49h-72v-99h72z" />
    <glyph glyph-name="macron" unicode="&#xaf;" horiz-adv-x="328" 
d="M116 682h248l-19 -94h-248z" />
    <glyph glyph-name="degree" unicode="&#xb0;" horiz-adv-x="354" 
d="M169 454.5q-32 18.5 -50.5 50.5t-18.5 70t18.5 70t50.5 50.5t71 18.5t71 -18.5t50.5 -50.5t18.5 -70t-18.5 -70t-50.5 -50.5t-71 -18.5t-71 18.5zM283.5 531q16.5 17 16.5 44t-16.5 44t-43.5 17t-43.5 -17t-16.5 -44t16.5 -44t43.5 -17t43.5 17z" />
    <glyph glyph-name="plusminus" unicode="&#xb1;" horiz-adv-x="574" 
d="M260 374h-190l19 102h190l38 191h104l-38 -191h190l-19 -102h-190l-38 -191h-104zM16 102h484l-19 -102h-484z" />
    <glyph glyph-name="uni00B2" unicode="&#xb2;" horiz-adv-x="348" 
d="M100 479l157 129q23 19 33 34t10 36q0 18 -11 28t-32 10q-22 0 -35 -15t-13 -35q0 -7 1 -12l-82 -11q-2 10 -2 24q0 49 35.5 84.5t101.5 35.5q54 0 89 -26.5t35 -71.5q0 -35 -17.5 -64t-56.5 -61l-79 -65h122l-13 -69h-252z" />
    <glyph glyph-name="uni00B3" unicode="&#xb3;" horiz-adv-x="352" 
d="M133.5 451.5q-35.5 28.5 -35.5 68.5q0 25 12 46l79 -18q-5 -12 -5 -21q0 -15 12.5 -25t32.5 -10q24 0 39 14.5t15 37.5q0 41 -73 41l11 60q34 0 55 11t21 34q0 15 -10.5 23t-29.5 8q-18 0 -30.5 -11t-12.5 -28q0 -6 1 -11l-79 -10q-2 9 -2 19q0 49 37 78t94 29
q52 0 84 -23t32 -56q0 -30 -15 -51.5t-40 -33.5q19 -10 31.5 -29t12.5 -45q0 -57 -40 -91.5t-107 -34.5q-54 0 -89.5 28.5z" />
    <glyph glyph-name="acute" unicode="&#xb4;" horiz-adv-x="325" 
d="M205 708h155l-149 -158h-101z" />
    <glyph glyph-name="uni00B5" unicode="&#xb5;" horiz-adv-x="594" 
d="M110 496h128l-55 -282q-5 -25 -5 -42q0 -34 24 -51t64 -17q49 0 87 39t51 106l48 247h128l-96 -496h-128l12 67q-51 -81 -155 -81q-40 0 -76 13q-5 -46 -10 -72l-26 -131h-127z" />
    <glyph glyph-name="paragraph" unicode="&#xb6;" horiz-adv-x="671" 
d="M289 304h-17q-53 0 -95.5 21.5t-67 61t-24.5 91.5q0 64 31.5 114.5t91 79t141.5 28.5h378l-20 -102h-65l-139 -718h-112l139 718h-72l-139 -718h-112z" />
    <glyph glyph-name="periodcentered" unicode="&#xb7;" horiz-adv-x="214" 
d="M75 424h134l-27 -134h-134z" />
    <glyph glyph-name="cedilla" unicode="&#xb8;" horiz-adv-x="295" 
d="M22 -188q-23 16 -30 45l70 17q2 -10 8.5 -16t16.5 -6q12 0 20 8t8 22q0 12 -7.5 18t-18.5 6q-22 0 -43 -18l-34 33l51 95h72l-53 -68q16 8 38 8q30 0 48.5 -18t18.5 -48q0 -44 -29 -69t-76 -25q-37 0 -60 16z" />
    <glyph glyph-name="uni00B9" unicode="&#xb9;" horiz-adv-x="256" 
d="M195 681q-17 -13 -34 -17t-44 -4l15 77q31 0 51.5 10.5t35.5 32.5h82l-69 -350h-86z" />
    <glyph glyph-name="ordmasculine" unicode="&#xba;" horiz-adv-x="458" 
d="M166.5 311q-38.5 18 -61.5 54t-23 87q0 53 25.5 100t74 76t116.5 29q69 0 118 -40t49 -116q0 -56 -27 -104t-76 -76t-113 -28q-44 0 -82.5 18zM339 412.5q32 32.5 32 79.5q0 38 -24.5 58t-61.5 20q-47 0 -78 -32.5t-31 -76.5q0 -39 24 -60t61 -21q46 0 78 32.5z" />
    <glyph glyph-name="guillemotright" unicode="&#xbb;" horiz-adv-x="598" 
d="M207 280l-121 208h139l126 -212l-209 -214h-148zM419 280l-121 208h139l126 -212l-209 -214h-148z" />
    <glyph glyph-name="onequarter" unicode="&#xbc;" horiz-adv-x="784" 
d="M179 601q-17 -13 -34 -17t-44 -4l15 77q31 0 51.5 10.5t35.5 32.5h82l-69 -350h-86zM67 49l566 658l63 -56l-566 -658zM581 58h-162l13 66l206 226h84l-44 -226h36l-13 -66h-36l-12 -58h-84zM594 124l21 107l-98 -107h77z" />
    <glyph glyph-name="onehalf" unicode="&#xbd;" horiz-adv-x="816" 
d="M179 601q-17 -13 -34 -17t-44 -4l15 77q31 0 51.5 10.5t35.5 32.5h82l-69 -350h-86zM67 49l566 658l63 -56l-566 -658zM485 49l157 129q23 19 33 34t10 36q0 18 -11 28t-32 10q-22 0 -35 -15t-13 -35q0 -7 1 -12l-82 -11q-2 10 -2 24q0 49 35.5 84.5t101.5 35.5
q54 0 89 -26.5t35 -71.5q0 -35 -17.5 -64t-56.5 -61l-79 -65h122l-13 -69h-252z" />
    <glyph glyph-name="threequarters" unicode="&#xbe;" horiz-adv-x="880" 
d="M117.5 371.5q-35.5 28.5 -35.5 68.5q0 25 12 46l79 -18q-5 -12 -5 -21q0 -15 12.5 -25t32.5 -10q24 0 39 14.5t15 37.5q0 41 -73 41l11 60q34 0 55 11t21 34q0 15 -10.5 23t-29.5 8q-18 0 -30.5 -11t-12.5 -28q0 -6 1 -11l-79 -10q-2 9 -2 19q0 49 37 78t94 29
q52 0 84 -23t32 -56q0 -30 -15 -51.5t-40 -33.5q19 -10 31.5 -29t12.5 -45q0 -57 -40 -91.5t-107 -34.5q-54 0 -89.5 28.5zM163 49l566 658l63 -56l-566 -658zM677 58h-162l13 66l206 226h84l-44 -226h36l-13 -66h-36l-12 -58h-84zM690 124l21 107l-98 -107h77z" />
    <glyph glyph-name="questiondown" unicode="&#xbf;" horiz-adv-x="552" 
d="M374 358h-132l27 138h132zM354 272q-9 -48 -35.5 -82t-86.5 -75q-58 -40 -84 -69t-26 -71q0 -33 26.5 -56t70.5 -23q50 0 82.5 31t32.5 79q0 12 -3 24l125 26q5 -22 5 -43q0 -64 -30 -116.5t-87 -83.5t-135 -31q-99 0 -158 47t-59 125q0 63 38 116t111 102
q46 31 64.5 55.5t24.5 60.5h127z" />
    <glyph glyph-name="Agrave" unicode="&#xc0;" horiz-adv-x="704" 
d="M373 700h132l146 -700h-139l-35 183h-265l-105 -183h-150zM456 301l-29 168l-12 76q-19 -40 -40 -76l-97 -168h178zM311 912h152l37 -158h-97z" />
    <glyph glyph-name="Aacute" unicode="&#xc1;" horiz-adv-x="704" 
d="M373 700h132l146 -700h-139l-35 183h-265l-105 -183h-150zM456 301l-29 168l-12 76q-19 -40 -40 -76l-97 -168h178zM492 912h155l-149 -158h-101z" />
    <glyph glyph-name="Acircumflex" unicode="&#xc2;" horiz-adv-x="704" 
d="M373 700h132l146 -700h-139l-35 183h-265l-105 -183h-150zM456 301l-29 168l-12 76q-19 -40 -40 -76l-97 -168h178zM434 911h92l82 -157h-93l-52 60l-73 -60h-99z" />
    <glyph glyph-name="Atilde" unicode="&#xc3;" horiz-adv-x="704" 
d="M373 700h132l146 -700h-139l-35 183h-265l-105 -183h-150zM456 301l-29 168l-12 76q-19 -40 -40 -76l-97 -168h178zM481 765q-20 11 -41 31q-14 13 -22.5 18.5t-20.5 5.5q-13 0 -20.5 -9t-7.5 -21q0 -6 4 -16l-85 -16q-6 12 -6 34q0 47 30 78t85 31q34 0 54.5 -11
t42.5 -31q13 -12 22.5 -18t20.5 -6q12 0 19 8t7 21q0 8 -3 17l83 17q6 -16 6 -42q0 -44 -30.5 -73t-82.5 -29q-35 0 -55 11z" />
    <glyph glyph-name="Adieresis" unicode="&#xc4;" horiz-adv-x="704" 
d="M373 700h132l146 -700h-139l-35 183h-265l-105 -183h-150zM456 301l-29 168l-12 76q-19 -40 -40 -76l-97 -168h178zM332 904h118l-25 -124h-118zM512 904h118l-25 -124h-118z" />
    <glyph glyph-name="Aring" unicode="&#xc5;" horiz-adv-x="704" 
d="M373 700h132l146 -700h-139l-35 183h-265l-105 -183h-150zM456 301l-29 168l-12 76q-19 -40 -40 -76l-97 -168h178zM400 771.5q-28 27.5 -28 67.5t28 67.5t68 27.5t68 -27.5t28 -67.5t-28 -67.5t-68 -27.5t-68 27.5zM492 814q9 9 9 25t-9 25t-24 9t-24 -9t-9 -25t9 -25
t24 -9t24 9z" />
    <glyph glyph-name="AE" unicode="&#xc6;" horiz-adv-x="986" 
d="M411 700h605l-23 -118h-351l-32 -161h323l-23 -118h-323l-36 -185h354l-23 -118h-486l36 183h-210l-117 -183h-148zM455 301l55 281h-33l-180 -281h158z" />
    <glyph glyph-name="Ccedilla" unicode="&#xc7;" horiz-adv-x="767" 
d="M507 147q55 39 91 102l109 -76q-63 -93 -139.5 -138t-178.5 -49l-30 -38q16 8 38 8q30 0 48.5 -18t18.5 -48q0 -44 -29 -69t-76 -25q-37 0 -60 16t-30 45l70 17q2 -10 8.5 -16t16.5 -6q12 0 20 8t8 22q0 12 -7.5 18t-18.5 6q-22 0 -43 -18l-34 33l36 68
q-77 10 -136.5 50.5t-92.5 107.5t-33 153q0 110 50.5 205t144.5 152t218 57q109 0 180 -50t106 -135l-116 -72q-26 66 -75 100.5t-114 34.5q-74 0 -133 -40t-92 -104.5t-33 -136.5q0 -59 23 -105t65.5 -72t97.5 -26q67 0 122 39z" />
    <glyph glyph-name="Egrave" unicode="&#xc8;" horiz-adv-x="612" 
d="M163 700h479l-23 -118h-347l-32 -161h319l-23 -118h-319l-36 -185h350l-23 -118h-482zM277 912h152l37 -158h-97z" />
    <glyph glyph-name="Eacute" unicode="&#xc9;" horiz-adv-x="612" 
d="M163 700h479l-23 -118h-347l-32 -161h319l-23 -118h-319l-36 -185h350l-23 -118h-482zM458 912h155l-149 -158h-101z" />
    <glyph glyph-name="Ecircumflex" unicode="&#xca;" horiz-adv-x="612" 
d="M163 700h479l-23 -118h-347l-32 -161h319l-23 -118h-319l-36 -185h350l-23 -118h-482zM400 911h92l82 -157h-93l-52 60l-73 -60h-99z" />
    <glyph glyph-name="Edieresis" unicode="&#xcb;" horiz-adv-x="612" 
d="M163 700h479l-23 -118h-347l-32 -161h319l-23 -118h-319l-36 -185h350l-23 -118h-482zM298 904h118l-25 -124h-118zM478 904h118l-25 -124h-118z" />
    <glyph glyph-name="Igrave" unicode="&#xcc;" horiz-adv-x="281" 
d="M163 700h132l-137 -700h-132zM98 912h152l37 -158h-97z" />
    <glyph glyph-name="Iacute" unicode="&#xcd;" horiz-adv-x="281" 
d="M163 700h132l-137 -700h-132zM279 912h155l-149 -158h-101z" />
    <glyph glyph-name="Icircumflex" unicode="&#xce;" horiz-adv-x="281" 
d="M163 700h132l-137 -700h-132zM221 911h92l82 -157h-93l-52 60l-73 -60h-99z" />
    <glyph glyph-name="Idieresis" unicode="&#xcf;" horiz-adv-x="281" 
d="M163 700h132l-137 -700h-132zM119 904h118l-25 -124h-118zM299 904h118l-25 -124h-118z" />
    <glyph glyph-name="Eth" unicode="&#xd0;" horiz-adv-x="753" 
d="M119 295h-77l21 110h78l58 295h211q150 0 235.5 -75.5t85.5 -218.5q0 -117 -52 -209t-152.5 -144.5t-242.5 -52.5h-222zM309 122q88 0 152.5 35t99 96.5t34.5 139.5q0 91 -53 138t-147 47h-88l-34 -173h155l-21 -110h-155l-34 -173h91z" />
    <glyph glyph-name="Ntilde" unicode="&#xd1;" horiz-adv-x="729" 
d="M163 700h136l197 -453q12 -30 19 -55l100 508h128l-137 -700h-137l-196 454q-14 35 -20 55l-99 -509h-128zM492 765q-20 11 -41 31q-14 13 -22.5 18.5t-20.5 5.5q-13 0 -20.5 -9t-7.5 -21q0 -6 4 -16l-85 -16q-6 12 -6 34q0 47 30 78t85 31q34 0 54.5 -11t42.5 -31
q13 -12 22.5 -18t20.5 -6q12 0 19 8t7 21q0 8 -3 17l83 17q6 -16 6 -42q0 -44 -30.5 -73t-82.5 -29q-35 0 -55 11z" />
    <glyph glyph-name="Ograve" unicode="&#xd2;" horiz-adv-x="812" 
d="M217.5 27q-72.5 41 -113.5 113.5t-41 164.5q0 106 48.5 200t140 151.5t214.5 57.5q99 0 172 -39.5t112 -111t39 -164.5q0 -112 -50 -206.5t-143 -150.5t-214 -56q-92 0 -164.5 41zM530 146q58 38 90.5 102.5t32.5 141.5q0 95 -55.5 148.5t-146.5 53.5q-72 0 -129.5 -39
t-90 -104t-32.5 -140q0 -63 26.5 -108.5t72 -69t101.5 -23.5q73 0 131 38zM345 912h152l37 -158h-97z" />
    <glyph glyph-name="Oacute" unicode="&#xd3;" horiz-adv-x="812" 
d="M217.5 27q-72.5 41 -113.5 113.5t-41 164.5q0 106 48.5 200t140 151.5t214.5 57.5q99 0 172 -39.5t112 -111t39 -164.5q0 -112 -50 -206.5t-143 -150.5t-214 -56q-92 0 -164.5 41zM530 146q58 38 90.5 102.5t32.5 141.5q0 95 -55.5 148.5t-146.5 53.5q-72 0 -129.5 -39
t-90 -104t-32.5 -140q0 -63 26.5 -108.5t72 -69t101.5 -23.5q73 0 131 38zM526 912h155l-149 -158h-101z" />
    <glyph glyph-name="Ocircumflex" unicode="&#xd4;" horiz-adv-x="812" 
d="M217.5 27q-72.5 41 -113.5 113.5t-41 164.5q0 106 48.5 200t140 151.5t214.5 57.5q99 0 172 -39.5t112 -111t39 -164.5q0 -112 -50 -206.5t-143 -150.5t-214 -56q-92 0 -164.5 41zM530 146q58 38 90.5 102.5t32.5 141.5q0 95 -55.5 148.5t-146.5 53.5q-72 0 -129.5 -39
t-90 -104t-32.5 -140q0 -63 26.5 -108.5t72 -69t101.5 -23.5q73 0 131 38zM468 911h92l82 -157h-93l-52 60l-73 -60h-99z" />
    <glyph glyph-name="Otilde" unicode="&#xd5;" horiz-adv-x="812" 
d="M217.5 27q-72.5 41 -113.5 113.5t-41 164.5q0 106 48.5 200t140 151.5t214.5 57.5q99 0 172 -39.5t112 -111t39 -164.5q0 -112 -50 -206.5t-143 -150.5t-214 -56q-92 0 -164.5 41zM530 146q58 38 90.5 102.5t32.5 141.5q0 95 -55.5 148.5t-146.5 53.5q-72 0 -129.5 -39
t-90 -104t-32.5 -140q0 -63 26.5 -108.5t72 -69t101.5 -23.5q73 0 131 38zM515 765q-20 11 -41 31q-14 13 -22.5 18.5t-20.5 5.5q-13 0 -20.5 -9t-7.5 -21q0 -6 4 -16l-85 -16q-6 12 -6 34q0 47 30 78t85 31q34 0 54.5 -11t42.5 -31q13 -12 22.5 -18t20.5 -6q12 0 19 8t7 21
q0 8 -3 17l83 17q6 -16 6 -42q0 -44 -30.5 -73t-82.5 -29q-35 0 -55 11z" />
    <glyph glyph-name="Odieresis" unicode="&#xd6;" horiz-adv-x="812" 
d="M217.5 27q-72.5 41 -113.5 113.5t-41 164.5q0 106 48.5 200t140 151.5t214.5 57.5q99 0 172 -39.5t112 -111t39 -164.5q0 -112 -50 -206.5t-143 -150.5t-214 -56q-92 0 -164.5 41zM530 146q58 38 90.5 102.5t32.5 141.5q0 95 -55.5 148.5t-146.5 53.5q-72 0 -129.5 -39
t-90 -104t-32.5 -140q0 -63 26.5 -108.5t72 -69t101.5 -23.5q73 0 131 38zM366 904h118l-25 -124h-118zM546 904h118l-25 -124h-118z" />
    <glyph glyph-name="multiply" unicode="&#xd7;" horiz-adv-x="556" 
d="M65 234l162 135l-106 131l83 70l105 -131l165 137l62 -77l-164 -137l107 -134l-83 -70l-107 134l-162 -135z" />
    <glyph glyph-name="Oslash" unicode="&#xd8;" horiz-adv-x="812" 
d="M765 532.5q24 -60.5 24 -133.5q0 -112 -50 -206.5t-143 -150.5t-214 -56q-75 0 -135 27l-54 -75l-87 56l54 75q-46 43 -71.5 103.5t-25.5 132.5q0 106 48.5 200t140 151.5t214.5 57.5q77 0 141 -25l52 73l87 -56l-51 -71q46 -42 70 -102.5zM240 180l288 400
q-34 12 -77 12q-72 0 -129.5 -39t-90 -104t-32.5 -140q0 -79 41 -129zM530 146q58 38 90.5 102.5t32.5 141.5q0 78 -40 131l-289 -401q35 -12 75 -12q73 0 131 38z" />
    <glyph glyph-name="Ugrave" unicode="&#xd9;" horiz-adv-x="700" 
d="M185 12.5q-54 26.5 -86.5 78t-32.5 121.5q0 37 7 75l81 413h132l-81 -417q-5 -29 -5 -51q0 -59 34 -91.5t92 -32.5q150 0 184 176l80 416h132l-85 -435q-28 -145 -109 -212t-225 -67q-64 0 -118 26.5zM295 912h152l37 -158h-97z" />
    <glyph glyph-name="Uacute" unicode="&#xda;" horiz-adv-x="700" 
d="M185 12.5q-54 26.5 -86.5 78t-32.5 121.5q0 37 7 75l81 413h132l-81 -417q-5 -29 -5 -51q0 -59 34 -91.5t92 -32.5q150 0 184 176l80 416h132l-85 -435q-28 -145 -109 -212t-225 -67q-64 0 -118 26.5zM476 912h155l-149 -158h-101z" />
    <glyph glyph-name="Ucircumflex" unicode="&#xdb;" horiz-adv-x="700" 
d="M185 12.5q-54 26.5 -86.5 78t-32.5 121.5q0 37 7 75l81 413h132l-81 -417q-5 -29 -5 -51q0 -59 34 -91.5t92 -32.5q150 0 184 176l80 416h132l-85 -435q-28 -145 -109 -212t-225 -67q-64 0 -118 26.5zM418 911h92l82 -157h-93l-52 60l-73 -60h-99z" />
    <glyph glyph-name="Udieresis" unicode="&#xdc;" horiz-adv-x="700" 
d="M185 12.5q-54 26.5 -86.5 78t-32.5 121.5q0 37 7 75l81 413h132l-81 -417q-5 -29 -5 -51q0 -59 34 -91.5t92 -32.5q150 0 184 176l80 416h132l-85 -435q-28 -145 -109 -212t-225 -67q-64 0 -118 26.5zM316 904h118l-25 -124h-118zM496 904h118l-25 -124h-118z" />
    <glyph glyph-name="Yacute" unicode="&#xdd;" horiz-adv-x="600" 
d="M239 274l-149 426h147l77 -251q8 -26 12 -51q15 27 32 51l177 251h151l-315 -426l-54 -274h-132zM436 912h155l-149 -158h-101z" />
    <glyph glyph-name="Thorn" unicode="&#xde;" horiz-adv-x="700" 
d="M163 700h132l-24 -122h166q112 0 176 -53t64 -153q0 -78 -40.5 -134.5t-111 -86t-159.5 -29.5h-184l-24 -122h-132zM383 240q72 0 115 32.5t43 90.5q0 49 -31 73t-89 24h-173l-43 -220h178z" />
    <glyph glyph-name="germandbls" unicode="&#xdf;" horiz-adv-x="609" 
d="M241 -1.5q-36 12.5 -59 31.5l68 99q31 -33 77 -33q45 0 74.5 31.5t29.5 84.5q0 51 -40.5 82.5t-98.5 31.5h-30l21 110h34q53 0 90.5 26.5t37.5 71.5q0 34 -21 52t-59 18q-43 0 -72.5 -26t-40.5 -81l-97 -497h-127l77 394h-56l20 102h56q19 106 87 162t170 56
q59 0 103 -20.5t67 -56.5t23 -81q0 -58 -34 -102.5t-89 -64.5q46 -23 76.5 -67t30.5 -108q0 -63 -29.5 -115t-84 -82.5t-126.5 -30.5q-42 0 -78 12.5z" />
    <glyph glyph-name="agrave" unicode="&#xe0;" horiz-adv-x="621" 
d="M132.5 15.5q-47.5 29.5 -73.5 81.5t-26 117q0 79 33.5 147t97 108.5t148.5 40.5q55 0 94 -20t60 -55l13 61h128l-97 -496h-128l12 61q-55 -75 -152 -75q-62 0 -109.5 29.5zM367 125.5q35 21.5 56 59.5t21 86q0 57 -34 89t-89 32q-46 0 -82 -21.5t-56 -59.5t-20 -84
q0 -57 36 -90t91 -33q42 0 77 21.5zM213 708h152l37 -158h-97z" />
    <glyph glyph-name="aacute" unicode="&#xe1;" horiz-adv-x="621" 
d="M132.5 15.5q-47.5 29.5 -73.5 81.5t-26 117q0 79 33.5 147t97 108.5t148.5 40.5q55 0 94 -20t60 -55l13 61h128l-97 -496h-128l12 61q-55 -75 -152 -75q-62 0 -109.5 29.5zM367 125.5q35 21.5 56 59.5t21 86q0 57 -34 89t-89 32q-46 0 -82 -21.5t-56 -59.5t-20 -84
q0 -57 36 -90t91 -33q42 0 77 21.5zM378 708h155l-149 -158h-101z" />
    <glyph glyph-name="acircumflex" unicode="&#xe2;" horiz-adv-x="621" 
d="M132.5 15.5q-47.5 29.5 -73.5 81.5t-26 117q0 79 33.5 147t97 108.5t148.5 40.5q55 0 94 -20t60 -55l13 61h128l-97 -496h-128l12 61q-55 -75 -152 -75q-62 0 -109.5 29.5zM367 125.5q35 21.5 56 59.5t21 86q0 57 -34 89t-89 32q-46 0 -82 -21.5t-56 -59.5t-20 -84
q0 -57 36 -90t91 -33q42 0 77 21.5zM325 707h92l82 -157h-93l-52 60l-73 -60h-99z" />
    <glyph glyph-name="atilde" unicode="&#xe3;" horiz-adv-x="621" 
d="M132.5 15.5q-47.5 29.5 -73.5 81.5t-26 117q0 79 33.5 147t97 108.5t148.5 40.5q55 0 94 -20t60 -55l13 61h128l-97 -496h-128l12 61q-55 -75 -152 -75q-62 0 -109.5 29.5zM367 125.5q35 21.5 56 59.5t21 86q0 57 -34 89t-89 32q-46 0 -82 -21.5t-56 -59.5t-20 -84
q0 -57 36 -90t91 -33q42 0 77 21.5zM372 561q-20 11 -41 31q-14 13 -22.5 18.5t-20.5 5.5q-13 0 -20.5 -9t-7.5 -21q0 -6 4 -16l-85 -16q-6 12 -6 34q0 47 30 78t85 31q34 0 54.5 -11t42.5 -31q13 -12 22.5 -18t20.5 -6q12 0 19 8t7 21q0 8 -3 17l83 17q6 -16 6 -42
q0 -44 -30.5 -73t-82.5 -29q-35 0 -55 11z" />
    <glyph glyph-name="adieresis" unicode="&#xe4;" horiz-adv-x="621" 
d="M132.5 15.5q-47.5 29.5 -73.5 81.5t-26 117q0 79 33.5 147t97 108.5t148.5 40.5q55 0 94 -20t60 -55l13 61h128l-97 -496h-128l12 61q-55 -75 -152 -75q-62 0 -109.5 29.5zM367 125.5q35 21.5 56 59.5t21 86q0 57 -34 89t-89 32q-46 0 -82 -21.5t-56 -59.5t-20 -84
q0 -57 36 -90t91 -33q42 0 77 21.5zM223 700h118l-25 -124h-118zM403 700h118l-25 -124h-118z" />
    <glyph glyph-name="aring" unicode="&#xe5;" horiz-adv-x="621" 
d="M132.5 15.5q-47.5 29.5 -73.5 81.5t-26 117q0 79 33.5 147t97 108.5t148.5 40.5q55 0 94 -20t60 -55l13 61h128l-97 -496h-128l12 61q-55 -75 -152 -75q-62 0 -109.5 29.5zM367 125.5q35 21.5 56 59.5t21 86q0 57 -34 89t-89 32q-46 0 -82 -21.5t-56 -59.5t-20 -84
q0 -57 36 -90t91 -33q42 0 77 21.5zM291 567.5q-28 27.5 -28 67.5t28 67.5t68 27.5t68 -27.5t28 -67.5t-28 -67.5t-68 -27.5t-68 27.5zM383 610q9 9 9 25t-9 25t-24 9t-24 -9t-9 -25t9 -25t24 -9t24 9z" />
    <glyph glyph-name="ae" unicode="&#xe6;" horiz-adv-x="982" 
d="M133.5 15.5q-47.5 29.5 -74 81.5t-26.5 117q0 79 33.5 147t97 108.5t148.5 40.5q104 0 154 -72l13 58h126l-9 -46q26 26 63.5 43t86.5 17q60 0 106.5 -26.5t72.5 -71.5t26 -98q0 -36 -6 -68l-5 -28h-385q0 -58 32.5 -91t85.5 -33q51 0 86.5 21.5t61.5 67.5l91 -58
q-43 -71 -101 -105t-143 -34q-52 0 -89 18.5t-58 46.5l-11 -51h-128l12 61q-55 -75 -152 -75q-61 0 -108.5 29.5zM839 310q0 48 -31.5 76t-84.5 28q-50 0 -89.5 -29t-56.5 -75h262zM367 125.5q35 21.5 56 59.5t21 86q0 57 -34 89t-89 32q-46 0 -82 -21.5t-56 -59.5t-20 -84
q0 -57 36 -90t91 -33q42 0 77 21.5z" />
    <glyph glyph-name="ccedilla" unicode="&#xe7;" horiz-adv-x="565" 
d="M362.5 126.5q33.5 22.5 60.5 66.5l97 -67q-46 -75 -106 -107.5t-143 -32.5h-1l-30 -38q16 8 38 8q30 0 48.5 -18t18.5 -48q0 -44 -29 -69t-76 -25q-37 0 -60 16t-30 45l70 17q2 -10 8.5 -16t16.5 -6q12 0 20 8t8 22q0 12 -7.5 18t-18.5 6q-22 0 -43 -18l-34 33l39 72
q-78 18 -126.5 79t-48.5 149q0 76 33 142t99.5 106.5t161.5 40.5q80 0 135 -36t81 -99l-109 -64q-15 39 -45.5 60t-72.5 21q-44 0 -79 -23t-54.5 -60.5t-19.5 -78.5q0 -59 33 -92.5t86 -33.5q46 0 79.5 22.5z" />
    <glyph glyph-name="egrave" unicode="&#xe8;" horiz-adv-x="579" 
d="M144.5 14.5q-51.5 28.5 -81 82t-29.5 125.5q0 77 37 143.5t103.5 105.5t150.5 39q70 0 120.5 -25t76.5 -69.5t26 -101.5q0 -36 -6 -68l-5 -28h-385q0 -58 32.5 -91t85.5 -33q51 0 86.5 21.5t61.5 67.5l91 -58q-43 -71 -101.5 -105t-144.5 -34q-67 0 -118.5 28.5zM436 310
q0 48 -31.5 76t-84.5 28q-49 0 -89 -29t-57 -75h262zM210 708h152l37 -158h-97z" />
    <glyph glyph-name="eacute" unicode="&#xe9;" horiz-adv-x="579" 
d="M144.5 14.5q-51.5 28.5 -81 82t-29.5 125.5q0 77 37 143.5t103.5 105.5t150.5 39q70 0 120.5 -25t76.5 -69.5t26 -101.5q0 -36 -6 -68l-5 -28h-385q0 -58 32.5 -91t85.5 -33q51 0 86.5 21.5t61.5 67.5l91 -58q-43 -71 -101.5 -105t-144.5 -34q-67 0 -118.5 28.5zM436 310
q0 48 -31.5 76t-84.5 28q-49 0 -89 -29t-57 -75h262zM375 708h155l-149 -158h-101z" />
    <glyph glyph-name="ecircumflex" unicode="&#xea;" horiz-adv-x="579" 
d="M144.5 14.5q-51.5 28.5 -81 82t-29.5 125.5q0 77 37 143.5t103.5 105.5t150.5 39q70 0 120.5 -25t76.5 -69.5t26 -101.5q0 -36 -6 -68l-5 -28h-385q0 -58 32.5 -91t85.5 -33q51 0 86.5 21.5t61.5 67.5l91 -58q-43 -71 -101.5 -105t-144.5 -34q-67 0 -118.5 28.5zM436 310
q0 48 -31.5 76t-84.5 28q-49 0 -89 -29t-57 -75h262zM322 707h92l82 -157h-93l-52 60l-73 -60h-99z" />
    <glyph glyph-name="edieresis" unicode="&#xeb;" horiz-adv-x="579" 
d="M144.5 14.5q-51.5 28.5 -81 82t-29.5 125.5q0 77 37 143.5t103.5 105.5t150.5 39q70 0 120.5 -25t76.5 -69.5t26 -101.5q0 -36 -6 -68l-5 -28h-385q0 -58 32.5 -91t85.5 -33q51 0 86.5 21.5t61.5 67.5l91 -58q-43 -71 -101.5 -105t-144.5 -34q-67 0 -118.5 28.5zM436 310
q0 48 -31.5 76t-84.5 28q-49 0 -89 -29t-57 -75h262zM220 700h118l-25 -124h-118zM400 700h118l-25 -124h-118z" />
    <glyph glyph-name="igrave" unicode="&#xec;" horiz-adv-x="250" 
d="M109 496h128l-97 -496h-127zM55 708h152l37 -158h-97z" />
    <glyph glyph-name="iacute" unicode="&#xed;" horiz-adv-x="250" 
d="M109 496h128l-97 -496h-127zM220 708h155l-149 -158h-101z" />
    <glyph glyph-name="icircumflex" unicode="&#xee;" horiz-adv-x="250" 
d="M109 496h128l-97 -496h-127zM167 707h92l82 -157h-93l-52 60l-73 -60h-99z" />
    <glyph glyph-name="idieresis" unicode="&#xef;" horiz-adv-x="250" 
d="M109 496h128l-97 -496h-127zM65 700h118l-25 -124h-118zM245 700h118l-25 -124h-118z" />
    <glyph glyph-name="eth" unicode="&#xf0;" horiz-adv-x="600" 
d="M145 12.5q-51 26.5 -79.5 74.5t-28.5 110q0 72 36 132.5t100.5 96.5t145.5 36q43 0 78.5 -14.5t55.5 -38.5q-13 71 -58 129l-110 -39l-25 78l69 25q-44 33 -102 58l62 90q94 -45 157 -106l118 43l27 -78l-89 -32q67 -103 67 -239q0 -103 -35 -182.5t-104.5 -124.5
t-169.5 -45q-64 0 -115 26.5zM386.5 136q42.5 44 42.5 110q0 50 -33.5 80t-84.5 30q-43 0 -76.5 -20.5t-52.5 -56t-19 -76.5q0 -53 34 -82t82 -29q65 0 107.5 44z" />
    <glyph glyph-name="ntilde" unicode="&#xf1;" horiz-adv-x="594" 
d="M110 496h128l-12 -67q62 81 165 81q77 0 118.5 -39t41.5 -101q0 -15 -4 -45l-63 -325h-128l56 288q5 25 5 37q0 30 -22.5 48.5t-61.5 18.5q-51 0 -90.5 -39t-51.5 -101l-49 -252h-128zM388 561q-20 11 -41 31q-14 13 -22.5 18.5t-20.5 5.5q-13 0 -20.5 -9t-7.5 -21
q0 -6 4 -16l-85 -16q-6 12 -6 34q0 47 30 78t85 31q34 0 54.5 -11t42.5 -31q13 -12 22.5 -18t20.5 -6q12 0 19 8t7 21q0 8 -3 17l83 17q6 -16 6 -42q0 -44 -30.5 -73t-82.5 -29q-35 0 -55 11z" />
    <glyph glyph-name="ograve" unicode="&#xf2;" horiz-adv-x="612" 
d="M153.5 14q-55.5 28 -88.5 79.5t-33 117.5q0 84 38 152t106.5 107.5t158.5 39.5q69 0 124.5 -26.5t87.5 -78.5t32 -125q0 -84 -39 -151t-108 -105t-158 -38q-65 0 -120.5 28zM369.5 125.5q35.5 21.5 56.5 59t21 84.5q0 57 -35 90t-93 33q-45 0 -81 -23.5t-56 -61
t-20 -79.5q0 -59 36.5 -91.5t91.5 -32.5q44 0 79.5 21.5zM225 708h152l37 -158h-97z" />
    <glyph glyph-name="oacute" unicode="&#xf3;" horiz-adv-x="612" 
d="M153.5 14q-55.5 28 -88.5 79.5t-33 117.5q0 84 38 152t106.5 107.5t158.5 39.5q69 0 124.5 -26.5t87.5 -78.5t32 -125q0 -84 -39 -151t-108 -105t-158 -38q-65 0 -120.5 28zM369.5 125.5q35.5 21.5 56.5 59t21 84.5q0 57 -35 90t-93 33q-45 0 -81 -23.5t-56 -61
t-20 -79.5q0 -59 36.5 -91.5t91.5 -32.5q44 0 79.5 21.5zM390 708h155l-149 -158h-101z" />
    <glyph glyph-name="ocircumflex" unicode="&#xf4;" horiz-adv-x="612" 
d="M153.5 14q-55.5 28 -88.5 79.5t-33 117.5q0 84 38 152t106.5 107.5t158.5 39.5q69 0 124.5 -26.5t87.5 -78.5t32 -125q0 -84 -39 -151t-108 -105t-158 -38q-65 0 -120.5 28zM369.5 125.5q35.5 21.5 56.5 59t21 84.5q0 57 -35 90t-93 33q-45 0 -81 -23.5t-56 -61
t-20 -79.5q0 -59 36.5 -91.5t91.5 -32.5q44 0 79.5 21.5zM337 707h92l82 -157h-93l-52 60l-73 -60h-99z" />
    <glyph glyph-name="otilde" unicode="&#xf5;" horiz-adv-x="612" 
d="M153.5 14q-55.5 28 -88.5 79.5t-33 117.5q0 84 38 152t106.5 107.5t158.5 39.5q69 0 124.5 -26.5t87.5 -78.5t32 -125q0 -84 -39 -151t-108 -105t-158 -38q-65 0 -120.5 28zM369.5 125.5q35.5 21.5 56.5 59t21 84.5q0 57 -35 90t-93 33q-45 0 -81 -23.5t-56 -61
t-20 -79.5q0 -59 36.5 -91.5t91.5 -32.5q44 0 79.5 21.5zM384 561q-20 11 -41 31q-14 13 -22.5 18.5t-20.5 5.5q-13 0 -20.5 -9t-7.5 -21q0 -6 4 -16l-85 -16q-6 12 -6 34q0 47 30 78t85 31q34 0 54.5 -11t42.5 -31q13 -12 22.5 -18t20.5 -6q12 0 19 8t7 21q0 8 -3 17l83 17
q6 -16 6 -42q0 -44 -30.5 -73t-82.5 -29q-35 0 -55 11z" />
    <glyph glyph-name="odieresis" unicode="&#xf6;" horiz-adv-x="612" 
d="M153.5 14q-55.5 28 -88.5 79.5t-33 117.5q0 84 38 152t106.5 107.5t158.5 39.5q69 0 124.5 -26.5t87.5 -78.5t32 -125q0 -84 -39 -151t-108 -105t-158 -38q-65 0 -120.5 28zM369.5 125.5q35.5 21.5 56.5 59t21 84.5q0 57 -35 90t-93 33q-45 0 -81 -23.5t-56 -61
t-20 -79.5q0 -59 36.5 -91.5t91.5 -32.5q44 0 79.5 21.5zM235 700h118l-25 -124h-118zM415 700h118l-25 -124h-118z" />
    <glyph glyph-name="divide" unicode="&#xf7;" horiz-adv-x="565" 
d="M261 484h134l-27 -134h-134zM193 134h134l-27 -134h-133zM49 293h484l-19 -102h-484z" />
    <glyph glyph-name="oslash" unicode="&#xf8;" horiz-adv-x="612" 
d="M579 280q0 -84 -39 -151t-108 -105t-158 -38q-52 0 -101 19l-37 -47l-73 51l35 45q-31 29 -48.5 69t-17.5 88q0 84 38 152t106.5 107.5t158.5 39.5q57 0 105 -18l36 46l73 -51l-33 -43q63 -61 63 -164zM180 159l178 228q-20 5 -39 5q-45 0 -81 -23.5t-56 -61t-20 -79.5
q0 -40 18 -69zM369.5 125.5q35.5 21.5 56.5 59t21 84.5q0 37 -16 66l-178 -227q16 -4 37 -4q44 0 79.5 21.5z" />
    <glyph glyph-name="ugrave" unicode="&#xf9;" horiz-adv-x="594" 
d="M121 6.5q-38 20.5 -57.5 54.5t-19.5 75q0 18 6 52l60 308h128l-55 -282q-5 -25 -5 -42q0 -34 24 -51t64 -17q49 0 87 39t51 106l48 247h128l-96 -496h-128l12 67q-24 -37 -65.5 -59t-90.5 -22q-53 0 -91 20.5zM224 708h152l37 -158h-97z" />
    <glyph glyph-name="uacute" unicode="&#xfa;" horiz-adv-x="594" 
d="M121 6.5q-38 20.5 -57.5 54.5t-19.5 75q0 18 6 52l60 308h128l-55 -282q-5 -25 -5 -42q0 -34 24 -51t64 -17q49 0 87 39t51 106l48 247h128l-96 -496h-128l12 67q-24 -37 -65.5 -59t-90.5 -22q-53 0 -91 20.5zM389 708h155l-149 -158h-101z" />
    <glyph glyph-name="ucircumflex" unicode="&#xfb;" horiz-adv-x="594" 
d="M121 6.5q-38 20.5 -57.5 54.5t-19.5 75q0 18 6 52l60 308h128l-55 -282q-5 -25 -5 -42q0 -34 24 -51t64 -17q49 0 87 39t51 106l48 247h128l-96 -496h-128l12 67q-24 -37 -65.5 -59t-90.5 -22q-53 0 -91 20.5zM336 707h92l82 -157h-93l-52 60l-73 -60h-99z" />
    <glyph glyph-name="udieresis" unicode="&#xfc;" horiz-adv-x="594" 
d="M121 6.5q-38 20.5 -57.5 54.5t-19.5 75q0 18 6 52l60 308h128l-55 -282q-5 -25 -5 -42q0 -34 24 -51t64 -17q49 0 87 39t51 106l48 247h128l-96 -496h-128l12 67q-24 -37 -65.5 -59t-90.5 -22q-53 0 -91 20.5zM234 700h118l-25 -124h-118zM414 700h118l-25 -124h-118z
" />
    <glyph glyph-name="yacute" unicode="&#xfd;" horiz-adv-x="546" 
d="M-16 -200l42 117q21 -12 43 -12q21 0 37 10.5t30 36.5l25 48l-107 496h136l67 -328l188 328h142l-352 -588q-41 -68 -80 -93.5t-102 -25.5q-42 0 -69 11zM365 708h155l-149 -158h-101z" />
    <glyph glyph-name="thorn" unicode="&#xfe;" horiz-adv-x="625" 
d="M150 700h128l-52 -265q24 32 66 53.5t94 21.5q57 0 104 -26t75 -76t28 -121q0 -82 -36 -151t-100 -109.5t-145 -40.5q-52 0 -95 21.5t-63 53.5l-52 -265h-127zM382 125.5q36 21.5 57.5 59.5t21.5 85q0 56 -34.5 89t-89.5 33q-46 0 -83 -22.5t-58 -60.5t-21 -85
q0 -56 37 -88t91 -32q43 0 79 21.5z" />
    <glyph glyph-name="ydieresis" unicode="&#xff;" horiz-adv-x="546" 
d="M-16 -200l42 117q21 -12 43 -12q21 0 37 10.5t30 36.5l25 48l-107 496h136l67 -328l188 328h142l-352 -588q-41 -68 -80 -93.5t-102 -25.5q-42 0 -69 11zM210 700h118l-25 -124h-118zM390 700h118l-25 -124h-118z" />
    <glyph glyph-name="Amacron" unicode="&#x100;" horiz-adv-x="704" 
d="M373 700h132l146 -700h-139l-35 183h-265l-105 -183h-150zM456 301l-29 168l-12 76q-19 -40 -40 -76l-97 -168h178zM354 886h248l-19 -94h-248z" />
    <glyph glyph-name="amacron" unicode="&#x101;" horiz-adv-x="621" 
d="M132.5 15.5q-47.5 29.5 -73.5 81.5t-26 117q0 79 33.5 147t97 108.5t148.5 40.5q55 0 94 -20t60 -55l13 61h128l-97 -496h-128l12 61q-55 -75 -152 -75q-62 0 -109.5 29.5zM367 125.5q35 21.5 56 59.5t21 86q0 57 -34 89t-89 32q-46 0 -82 -21.5t-56 -59.5t-20 -84
q0 -57 36 -90t91 -33q42 0 77 21.5zM245 682h248l-19 -94h-248z" />
    <glyph glyph-name="Abreve" unicode="&#x102;" horiz-adv-x="704" 
d="M373 700h132l146 -700h-139l-35 183h-265l-105 -183h-150zM456 301l-29 168l-12 76q-19 -40 -40 -76l-97 -168h178zM387.5 794q-27.5 26 -27.5 66q0 9 2 21h77q-1 -3 -1 -10q0 -15 7.5 -24t22.5 -9q34 0 46 43h76q-8 -58 -40 -85.5t-91 -27.5q-44 0 -71.5 26z" />
    <glyph glyph-name="abreve" unicode="&#x103;" horiz-adv-x="621" 
d="M132.5 15.5q-47.5 29.5 -73.5 81.5t-26 117q0 79 33.5 147t97 108.5t148.5 40.5q55 0 94 -20t60 -55l13 61h128l-97 -496h-128l12 61q-55 -75 -152 -75q-62 0 -109.5 29.5zM367 125.5q35 21.5 56 59.5t21 86q0 57 -34 89t-89 32q-46 0 -82 -21.5t-56 -59.5t-20 -84
q0 -57 36 -90t91 -33q42 0 77 21.5zM277.5 590q-27.5 26 -27.5 66q0 9 2 21h77q-1 -3 -1 -10q0 -15 7.5 -24t22.5 -9q34 0 46 43h76q-8 -58 -40 -85.5t-91 -27.5q-44 0 -71.5 26z" />
    <glyph glyph-name="Aogonek" unicode="&#x104;" horiz-adv-x="704" 
d="M573.5 -107.5q9.5 -8.5 23.5 -8.5q9 0 22 2l-4 -77q-26 -7 -56 -7q-45 0 -74 22.5t-29 61.5q0 35 20 64t57 50h-21l-35 183h-265l-105 -183h-150l416 700h132l146 -700q-32 -14 -59.5 -36t-27.5 -47q0 -16 9.5 -24.5zM456 301l-29 168l-12 76q-19 -40 -40 -76l-97 -168
h178z" />
    <glyph glyph-name="aogonek" unicode="&#x105;" horiz-adv-x="621" 
d="M450.5 -36q-27.5 -22 -27.5 -47q0 -16 9.5 -24.5t23.5 -8.5q9 0 22 2l-4 -77q-26 -7 -56 -7q-45 0 -74 22.5t-29 61.5q0 35 20 64t57 50h-10l12 61q-55 -75 -152 -75q-62 0 -109.5 29.5t-73.5 81.5t-26 117q0 79 33.5 147t97 108.5t148.5 40.5q55 0 94 -20t60 -55l13 61
h128l-97 -496q-32 -14 -59.5 -36zM367 125.5q35 21.5 56 59.5t21 86q0 57 -34 89t-89 32q-46 0 -82 -21.5t-56 -59.5t-20 -84q0 -57 36 -90t91 -33q42 0 77 21.5z" />
    <glyph glyph-name="Cacute" unicode="&#x106;" horiz-adv-x="767" 
d="M212 24.5q-70 38.5 -109.5 110t-39.5 165.5q0 110 50.5 205t144.5 152t218 57q109 0 180 -50t106 -135l-116 -72q-26 66 -75 100.5t-114 34.5q-74 0 -133 -40t-92 -104.5t-33 -136.5q0 -59 23 -105t65.5 -72t97.5 -26q67 0 122 39t91 102l109 -76q-66 -97 -146.5 -142
t-189.5 -45q-89 0 -159 38.5zM536 912h155l-149 -158h-101z" />
    <glyph glyph-name="cacute" unicode="&#x107;" horiz-adv-x="565" 
d="M151 15q-54 29 -85.5 82.5t-31.5 123.5q0 76 33 142t99.5 106.5t161.5 40.5q80 0 135 -36t81 -99l-109 -64q-15 39 -45.5 60t-72.5 21q-44 0 -79 -23t-54.5 -60.5t-19.5 -78.5q0 -59 33 -92.5t86 -33.5q46 0 79.5 22.5t60.5 66.5l97 -67q-46 -75 -106 -107.5t-143 -32.5
q-66 0 -120 29zM382 708h155l-149 -158h-101z" />
    <glyph glyph-name="Ccircumflex" unicode="&#x108;" horiz-adv-x="767" 
d="M212 24.5q-70 38.5 -109.5 110t-39.5 165.5q0 110 50.5 205t144.5 152t218 57q109 0 180 -50t106 -135l-116 -72q-26 66 -75 100.5t-114 34.5q-74 0 -133 -40t-92 -104.5t-33 -136.5q0 -59 23 -105t65.5 -72t97.5 -26q67 0 122 39t91 102l109 -76q-66 -97 -146.5 -142
t-189.5 -45q-89 0 -159 38.5zM478 911h92l82 -157h-93l-52 60l-73 -60h-99z" />
    <glyph glyph-name="ccircumflex" unicode="&#x109;" horiz-adv-x="565" 
d="M151 15q-54 29 -85.5 82.5t-31.5 123.5q0 76 33 142t99.5 106.5t161.5 40.5q80 0 135 -36t81 -99l-109 -64q-15 39 -45.5 60t-72.5 21q-44 0 -79 -23t-54.5 -60.5t-19.5 -78.5q0 -59 33 -92.5t86 -33.5q46 0 79.5 22.5t60.5 66.5l97 -67q-46 -75 -106 -107.5t-143 -32.5
q-66 0 -120 29zM329 707h92l82 -157h-93l-52 60l-73 -60h-99z" />
    <glyph glyph-name="Cdotaccent" unicode="&#x10a;" horiz-adv-x="767" 
d="M212 24.5q-70 38.5 -109.5 110t-39.5 165.5q0 110 50.5 205t144.5 152t218 57q109 0 180 -50t106 -135l-116 -72q-26 66 -75 100.5t-114 34.5q-74 0 -133 -40t-92 -104.5t-33 -136.5q0 -59 23 -105t65.5 -72t97.5 -26q67 0 122 39t91 102l109 -76q-66 -97 -146.5 -142
t-189.5 -45q-89 0 -159 38.5zM455 904h140l-26 -132h-140z" />
    <glyph glyph-name="cdotaccent" unicode="&#x10b;" horiz-adv-x="565" 
d="M151 15q-54 29 -85.5 82.5t-31.5 123.5q0 76 33 142t99.5 106.5t161.5 40.5q80 0 135 -36t81 -99l-109 -64q-15 39 -45.5 60t-72.5 21q-44 0 -79 -23t-54.5 -60.5t-19.5 -78.5q0 -59 33 -92.5t86 -33.5q46 0 79.5 22.5t60.5 66.5l97 -67q-46 -75 -106 -107.5t-143 -32.5
q-66 0 -120 29zM306 700h140l-26 -132h-140z" />
    <glyph glyph-name="Ccaron" unicode="&#x10c;" horiz-adv-x="767" 
d="M212 24.5q-70 38.5 -109.5 110t-39.5 165.5q0 110 50.5 205t144.5 152t218 57q109 0 180 -50t106 -135l-116 -72q-26 66 -75 100.5t-114 34.5q-74 0 -133 -40t-92 -104.5t-33 -136.5q0 -59 23 -105t65.5 -72t97.5 -26q67 0 122 39t91 102l109 -76q-66 -97 -146.5 -142
t-189.5 -45q-89 0 -159 38.5zM368 911h93l52 -60l73 60h99l-143 -157h-92z" />
    <glyph glyph-name="ccaron" unicode="&#x10d;" horiz-adv-x="565" 
d="M151 15q-54 29 -85.5 82.5t-31.5 123.5q0 76 33 142t99.5 106.5t161.5 40.5q80 0 135 -36t81 -99l-109 -64q-15 39 -45.5 60t-72.5 21q-44 0 -79 -23t-54.5 -60.5t-19.5 -78.5q0 -59 33 -92.5t86 -33.5q46 0 79.5 22.5t60.5 66.5l97 -67q-46 -75 -106 -107.5t-143 -32.5
q-66 0 -120 29zM219 707h93l52 -60l73 60h99l-143 -157h-92z" />
    <glyph glyph-name="Dcaron" unicode="&#x10e;" horiz-adv-x="717" 
d="M163 700h211q150 0 235.5 -75.5t85.5 -218.5q0 -117 -52 -209t-152.5 -144.5t-242.5 -52.5h-222zM273 122q88 0 152.5 35t99 96.5t34.5 139.5q0 91 -53 138t-147 47h-88l-89 -456h91zM210 911h93l52 -60l73 60h99l-143 -157h-92z" />
    <glyph glyph-name="dcaron" unicode="&#x10f;" horiz-adv-x="733" 
d="M140 15.5q-50 29.5 -78.5 82t-28.5 118.5q0 79 34.5 146.5t99 107.5t149.5 40q54 0 95.5 -21t61.5 -54l52 265h128l-136 -700h-128l10 58q-53 -72 -147 -72q-62 0 -112 29.5zM370.5 125.5q36.5 21.5 58 59.5t21.5 86q0 57 -35 89t-93 32q-47 0 -83 -22t-56 -59t-20 -80
q0 -60 36.5 -93.5t92.5 -33.5q42 0 78.5 21.5zM682 499l57 95h-45l21 106h106l-21 -108l-95 -108z" />
    <glyph glyph-name="Dcroat" unicode="&#x110;" horiz-adv-x="753" 
d="M119 295h-77l21 110h78l58 295h211q150 0 235.5 -75.5t85.5 -218.5q0 -117 -52 -209t-152.5 -144.5t-242.5 -52.5h-222zM309 122q88 0 152.5 35t99 96.5t34.5 139.5q0 91 -53 138t-147 47h-88l-34 -173h155l-21 -110h-155l-34 -173h91z" />
    <glyph glyph-name="dcroat" unicode="&#x111;" horiz-adv-x="627" 
d="M678 552h-54l-107 -552h-128l10 58q-53 -72 -147 -72q-62 0 -112 29.5t-78.5 82t-28.5 118.5q0 79 34.5 146.5t99 107.5t149.5 40q54 0 95.5 -21t61.5 -54l23 117h-166l18 96h167l10 52h128l-10 -52h53zM370.5 125.5q36.5 21.5 58 59.5t21.5 86q0 57 -35 89t-93 32
q-47 0 -83 -22t-56 -59t-20 -80q0 -60 36.5 -93.5t92.5 -33.5q42 0 78.5 21.5z" />
    <glyph glyph-name="Emacron" unicode="&#x112;" horiz-adv-x="612" 
d="M163 700h479l-23 -118h-347l-32 -161h319l-23 -118h-319l-36 -185h350l-23 -118h-482zM320 886h248l-19 -94h-248z" />
    <glyph glyph-name="emacron" unicode="&#x113;" horiz-adv-x="579" 
d="M144.5 14.5q-51.5 28.5 -81 82t-29.5 125.5q0 77 37 143.5t103.5 105.5t150.5 39q70 0 120.5 -25t76.5 -69.5t26 -101.5q0 -36 -6 -68l-5 -28h-385q0 -58 32.5 -91t85.5 -33q51 0 86.5 21.5t61.5 67.5l91 -58q-43 -71 -101.5 -105t-144.5 -34q-67 0 -118.5 28.5zM436 310
q0 48 -31.5 76t-84.5 28q-49 0 -89 -29t-57 -75h262zM242 682h248l-19 -94h-248z" />
    <glyph glyph-name="Ebreve" unicode="&#x114;" horiz-adv-x="612" 
d="M163 700h479l-23 -118h-347l-32 -161h319l-23 -118h-319l-36 -185h350l-23 -118h-482zM353.5 794q-27.5 26 -27.5 66q0 9 2 21h77q-1 -3 -1 -10q0 -15 7.5 -24t22.5 -9q34 0 46 43h76q-8 -58 -40 -85.5t-91 -27.5q-44 0 -71.5 26z" />
    <glyph glyph-name="ebreve" unicode="&#x115;" horiz-adv-x="579" 
d="M144.5 14.5q-51.5 28.5 -81 82t-29.5 125.5q0 77 37 143.5t103.5 105.5t150.5 39q70 0 120.5 -25t76.5 -69.5t26 -101.5q0 -36 -6 -68l-5 -28h-385q0 -58 32.5 -91t85.5 -33q51 0 86.5 21.5t61.5 67.5l91 -58q-43 -71 -101.5 -105t-144.5 -34q-67 0 -118.5 28.5zM436 310
q0 48 -31.5 76t-84.5 28q-49 0 -89 -29t-57 -75h262zM274.5 590q-27.5 26 -27.5 66q0 9 2 21h77q-1 -3 -1 -10q0 -15 7.5 -24t22.5 -9q34 0 46 43h76q-8 -58 -40 -85.5t-91 -27.5q-44 0 -71.5 26z" />
    <glyph glyph-name="Edotaccent" unicode="&#x116;" horiz-adv-x="612" 
d="M163 700h479l-23 -118h-347l-32 -161h319l-23 -118h-319l-36 -185h350l-23 -118h-482zM377 904h140l-26 -132h-140z" />
    <glyph glyph-name="edotaccent" unicode="&#x117;" horiz-adv-x="579" 
d="M144.5 14.5q-51.5 28.5 -81 82t-29.5 125.5q0 77 37 143.5t103.5 105.5t150.5 39q70 0 120.5 -25t76.5 -69.5t26 -101.5q0 -36 -6 -68l-5 -28h-385q0 -58 32.5 -91t85.5 -33q51 0 86.5 21.5t61.5 67.5l91 -58q-43 -71 -101.5 -105t-144.5 -34q-67 0 -118.5 28.5zM436 310
q0 48 -31.5 76t-84.5 28q-49 0 -89 -29t-57 -75h262zM299 700h140l-26 -132h-140z" />
    <glyph glyph-name="Eogonek" unicode="&#x118;" horiz-adv-x="612" 
d="M272 582l-32 -161h319l-23 -118h-319l-36 -185h350l-23 -118q-32 -14 -59.5 -36t-27.5 -47q0 -16 9.5 -24.5t23.5 -8.5q9 0 22 2l-4 -77q-26 -7 -56 -7q-45 0 -74 22.5t-29 61.5q0 35 20 64t57 50h-364l137 700h479l-23 -118h-347z" />
    <glyph glyph-name="eogonek" unicode="&#x119;" horiz-adv-x="579" 
d="M445.5 485q50.5 -25 76.5 -69.5t26 -101.5q0 -36 -6 -68l-5 -28h-385q0 -58 32.5 -91t85.5 -33q51 0 86.5 21.5t61.5 67.5l91 -58q-30 -49 -66.5 -80t-83.5 -46q-32 -13 -58.5 -35.5t-26.5 -46.5q0 -16 9.5 -24.5t23.5 -8.5q9 0 22 2l-4 -77q-26 -7 -56 -7
q-45 0 -74 22.5t-29 61.5q0 60 59 103q-86 11 -138.5 73t-52.5 160q0 77 37 143.5t103.5 105.5t150.5 39q70 0 120.5 -25zM436 310q0 48 -31.5 76t-84.5 28q-49 0 -89 -29t-57 -75h262z" />
    <glyph glyph-name="Ecaron" unicode="&#x11a;" horiz-adv-x="612" 
d="M163 700h479l-23 -118h-347l-32 -161h319l-23 -118h-319l-36 -185h350l-23 -118h-482zM290 911h93l52 -60l73 60h99l-143 -157h-92z" />
    <glyph glyph-name="ecaron" unicode="&#x11b;" horiz-adv-x="579" 
d="M144.5 14.5q-51.5 28.5 -81 82t-29.5 125.5q0 77 37 143.5t103.5 105.5t150.5 39q70 0 120.5 -25t76.5 -69.5t26 -101.5q0 -36 -6 -68l-5 -28h-385q0 -58 32.5 -91t85.5 -33q51 0 86.5 21.5t61.5 67.5l91 -58q-43 -71 -101.5 -105t-144.5 -34q-67 0 -118.5 28.5zM436 310
q0 48 -31.5 76t-84.5 28q-49 0 -89 -29t-57 -75h262zM212 707h93l52 -60l73 60h99l-143 -157h-92z" />
    <glyph glyph-name="Gcircumflex" unicode="&#x11c;" horiz-adv-x="780" 
d="M202.5 24q-65.5 38 -103.5 107.5t-38 159.5q0 115 50.5 211.5t146 154t222.5 57.5q106 0 178 -47.5t103 -126.5l-111 -71q-21 60 -68.5 94.5t-117.5 34.5q-75 0 -136 -38.5t-96 -105.5t-35 -151q0 -58 23 -102t63.5 -68.5t91.5 -24.5q82 0 139 45.5t82 112.5h-227l21 108
h356l-73 -374h-88l-11 91q-41 -50 -95.5 -77.5t-130.5 -27.5q-80 0 -145.5 38zM483 911h92l82 -157h-93l-52 60l-73 -60h-99z" />
    <glyph glyph-name="gcircumflex" unicode="&#x11d;" horiz-adv-x="604" 
d="M105.5 -198q-48.5 20 -74 53.5t-25.5 72.5q0 43 24 77l115 -37q-9 -18 -9 -35q0 -22 25 -36.5t69 -14.5q119 0 145 136l11 59q-23 -34 -56 -51.5t-84 -17.5q-55 0 -103 25.5t-77 74.5t-29 118q0 76 33 141t95.5 104t146.5 39q50 0 88.5 -19t56.5 -49l11 54h128l-92 -473
q-24 -126 -94 -183.5t-190 -57.5q-66 0 -114.5 20zM357.5 142q33.5 24 52 63t18.5 84q0 49 -32.5 80t-81.5 31q-42 0 -76 -23t-52.5 -61t-18.5 -79q0 -57 32 -88t81 -31q44 0 77.5 24zM336 707h92l82 -157h-93l-52 60l-73 -60h-99z" />
    <glyph glyph-name="Gbreve" unicode="&#x11e;" horiz-adv-x="780" 
d="M202.5 24q-65.5 38 -103.5 107.5t-38 159.5q0 115 50.5 211.5t146 154t222.5 57.5q106 0 178 -47.5t103 -126.5l-111 -71q-21 60 -68.5 94.5t-117.5 34.5q-75 0 -136 -38.5t-96 -105.5t-35 -151q0 -58 23 -102t63.5 -68.5t91.5 -24.5q82 0 139 45.5t82 112.5h-227l21 108
h356l-73 -374h-88l-11 91q-41 -50 -95.5 -77.5t-130.5 -27.5q-80 0 -145.5 38zM436.5 794q-27.5 26 -27.5 66q0 9 2 21h77q-1 -3 -1 -10q0 -15 7.5 -24t22.5 -9q34 0 46 43h76q-8 -58 -40 -85.5t-91 -27.5q-44 0 -71.5 26z" />
    <glyph glyph-name="gbreve" unicode="&#x11f;" horiz-adv-x="604" 
d="M105.5 -198q-48.5 20 -74 53.5t-25.5 72.5q0 43 24 77l115 -37q-9 -18 -9 -35q0 -22 25 -36.5t69 -14.5q119 0 145 136l11 59q-23 -34 -56 -51.5t-84 -17.5q-55 0 -103 25.5t-77 74.5t-29 118q0 76 33 141t95.5 104t146.5 39q50 0 88.5 -19t56.5 -49l11 54h128l-92 -473
q-24 -126 -94 -183.5t-190 -57.5q-66 0 -114.5 20zM357.5 142q33.5 24 52 63t18.5 84q0 49 -32.5 80t-81.5 31q-42 0 -76 -23t-52.5 -61t-18.5 -79q0 -57 32 -88t81 -31q44 0 77.5 24zM288.5 590q-27.5 26 -27.5 66q0 9 2 21h77q-1 -3 -1 -10q0 -15 7.5 -24t22.5 -9
q34 0 46 43h76q-8 -58 -40 -85.5t-91 -27.5q-44 0 -71.5 26z" />
    <glyph glyph-name="Gdotaccent" unicode="&#x120;" horiz-adv-x="780" 
d="M202.5 24q-65.5 38 -103.5 107.5t-38 159.5q0 115 50.5 211.5t146 154t222.5 57.5q106 0 178 -47.5t103 -126.5l-111 -71q-21 60 -68.5 94.5t-117.5 34.5q-75 0 -136 -38.5t-96 -105.5t-35 -151q0 -58 23 -102t63.5 -68.5t91.5 -24.5q82 0 139 45.5t82 112.5h-227l21 108
h356l-73 -374h-88l-11 91q-41 -50 -95.5 -77.5t-130.5 -27.5q-80 0 -145.5 38zM460 904h140l-26 -132h-140z" />
    <glyph glyph-name="gdotaccent" unicode="&#x121;" horiz-adv-x="604" 
d="M105.5 -198q-48.5 20 -74 53.5t-25.5 72.5q0 43 24 77l115 -37q-9 -18 -9 -35q0 -22 25 -36.5t69 -14.5q119 0 145 136l11 59q-23 -34 -56 -51.5t-84 -17.5q-55 0 -103 25.5t-77 74.5t-29 118q0 76 33 141t95.5 104t146.5 39q50 0 88.5 -19t56.5 -49l11 54h128l-92 -473
q-24 -126 -94 -183.5t-190 -57.5q-66 0 -114.5 20zM357.5 142q33.5 24 52 63t18.5 84q0 49 -32.5 80t-81.5 31q-42 0 -76 -23t-52.5 -61t-18.5 -79q0 -57 32 -88t81 -31q44 0 77.5 24zM313 700h140l-26 -132h-140z" />
    <glyph glyph-name="uni0122" unicode="&#x122;" horiz-adv-x="780" 
d="M202.5 24q-65.5 38 -103.5 107.5t-38 159.5q0 115 50.5 211.5t146 154t222.5 57.5q106 0 178 -47.5t103 -126.5l-111 -71q-21 60 -68.5 94.5t-117.5 34.5q-75 0 -136 -38.5t-96 -105.5t-35 -151q0 -58 23 -102t63.5 -68.5t91.5 -24.5q82 0 139 45.5t82 112.5h-227l21 108
h356l-73 -374h-88l-11 91q-41 -50 -95.5 -77.5t-130.5 -27.5q-80 0 -145.5 38zM239 -303l61 121h-44l24 122h126l-24 -122l-116 -132z" />
    <glyph glyph-name="uni0123" unicode="&#x123;" horiz-adv-x="604" 
d="M105.5 -198q-48.5 20 -74 53.5t-25.5 72.5q0 43 24 77l115 -37q-9 -18 -9 -35q0 -22 25 -36.5t69 -14.5q119 0 145 136l11 59q-23 -34 -56 -51.5t-84 -17.5q-55 0 -103 25.5t-77 74.5t-29 118q0 76 33 141t95.5 104t146.5 39q50 0 88.5 -19t56.5 -49l11 54h128l-92 -473
q-24 -126 -94 -183.5t-190 -57.5q-66 0 -114.5 20zM357.5 142q33.5 24 52 63t18.5 84q0 49 -32.5 80t-81.5 31q-42 0 -76 -23t-52.5 -61t-18.5 -79q0 -57 32 -88t81 -31q44 0 77.5 24zM312 686l137 136l22 -18l-84 -118h51l-24 -123h-126z" />
    <glyph glyph-name="Hcircumflex" unicode="&#x124;" horiz-adv-x="715" 
d="M163 700h132l-55 -282h302l55 282h132l-137 -700h-132l58 296h-302l-58 -296h-132zM438 911h92l82 -157h-93l-52 60l-73 -60h-99z" />
    <glyph glyph-name="hcircumflex" unicode="&#x125;" horiz-adv-x="600" 
d="M150 700h128l-53 -275q26 38 72.5 61.5t99.5 23.5q74 0 117.5 -38t43.5 -103q0 -18 -4 -41l-65 -328h-128l56 283q2 12 2 24q0 39 -21 62t-61 23q-55 0 -94.5 -37t-53.5 -108l-48 -247h-127zM293 911h92l82 -157h-93l-52 60l-73 -60h-99z" />
    <glyph glyph-name="Hbar" unicode="&#x126;" horiz-adv-x="715" 
d="M775 484h-88l-95 -484h-132l58 296h-302l-58 -296h-132l95 484h-88l18 94h88l24 122h132l-24 -122h302l24 122h132l-24 -122h88zM555 484h-302l-13 -66h302z" />
    <glyph glyph-name="hbar" unicode="&#x127;" horiz-adv-x="600" 
d="M514.5 472q43.5 -38 43.5 -103q0 -18 -4 -41l-65 -328h-128l56 283q2 12 2 24q0 39 -21 62t-61 23q-55 0 -94.5 -37t-53.5 -108l-48 -247h-127l107 552h-54l18 96h55l10 52h128l-10 -52h165l-18 -96h-166l-24 -127q26 38 72.5 61.5t99.5 23.5q74 0 117.5 -38z" />
    <glyph glyph-name="Itilde" unicode="&#x128;" horiz-adv-x="281" 
d="M163 700h132l-137 -700h-132zM268 765q-20 11 -41 31q-14 13 -22.5 18.5t-20.5 5.5q-13 0 -20.5 -9t-7.5 -21q0 -6 4 -16l-85 -16q-6 12 -6 34q0 47 30 78t85 31q34 0 54.5 -11t42.5 -31q13 -12 22.5 -18t20.5 -6q12 0 19 8t7 21q0 8 -3 17l83 17q6 -16 6 -42
q0 -44 -30.5 -73t-82.5 -29q-35 0 -55 11z" />
    <glyph glyph-name="itilde" unicode="&#x129;" horiz-adv-x="250" 
d="M109 496h128l-97 -496h-127zM214 561q-20 11 -41 31q-14 13 -22.5 18.5t-20.5 5.5q-13 0 -20.5 -9t-7.5 -21q0 -6 4 -16l-85 -16q-6 12 -6 34q0 47 30 78t85 31q34 0 54.5 -11t42.5 -31q13 -12 22.5 -18t20.5 -6q12 0 19 8t7 21q0 8 -3 17l83 17q6 -16 6 -42
q0 -44 -30.5 -73t-82.5 -29q-35 0 -55 11z" />
    <glyph glyph-name="Imacron" unicode="&#x12a;" horiz-adv-x="281" 
d="M163 700h132l-137 -700h-132zM141 886h248l-19 -94h-248z" />
    <glyph glyph-name="imacron" unicode="&#x12b;" horiz-adv-x="250" 
d="M109 496h128l-97 -496h-127zM87 682h248l-19 -94h-248z" />
    <glyph glyph-name="Ibreve" unicode="&#x12c;" horiz-adv-x="281" 
d="M163 700h132l-137 -700h-132zM174.5 794q-27.5 26 -27.5 66q0 9 2 21h77q-1 -3 -1 -10q0 -15 7.5 -24t22.5 -9q34 0 46 43h76q-8 -58 -40 -85.5t-91 -27.5q-44 0 -71.5 26z" />
    <glyph glyph-name="ibreve" unicode="&#x12d;" horiz-adv-x="250" 
d="M109 496h128l-97 -496h-127zM119.5 590q-27.5 26 -27.5 66q0 9 2 21h77q-1 -3 -1 -10q0 -15 7.5 -24t22.5 -9q34 0 46 43h76q-8 -58 -40 -85.5t-91 -27.5q-44 0 -71.5 26z" />
    <glyph glyph-name="Iogonek" unicode="&#x12e;" horiz-adv-x="281" 
d="M98.5 -36q-27.5 -22 -27.5 -47q0 -16 9.5 -24.5t23.5 -8.5q9 0 22 2l-4 -77q-26 -7 -56 -7q-45 0 -74 22.5t-29 61.5q0 35 20 64t57 50h-14l137 700h132l-137 -700q-32 -14 -59.5 -36z" />
    <glyph glyph-name="iogonek" unicode="&#x12f;" horiz-adv-x="250" 
d="M284 700l-26 -132h-140l26 132h140zM109 496h128l-97 -496q-32 -14 -59.5 -36t-27.5 -47q0 -16 9.5 -24.5t23.5 -8.5q9 0 22 2l-4 -77q-26 -7 -56 -7q-45 0 -74 22.5t-29 61.5q0 35 20 64t57 50h-9z" />
    <glyph glyph-name="Idotaccent" unicode="&#x130;" horiz-adv-x="281" 
d="M163 700h132l-137 -700h-132zM198 904h140l-26 -132h-140z" />
    <glyph glyph-name="dotlessi" unicode="&#x131;" horiz-adv-x="250" 
d="M109 496h128l-97 -496h-127z" />
    <glyph glyph-name="IJ" unicode="&#x132;" horiz-adv-x="815" 
d="M163 700h132l-137 -700h-132zM385.5 8q-44.5 22 -70 62.5t-25.5 95.5q0 31 7 59l130 -15q-3 -18 -3 -32q0 -28 23 -49t61 -21q45 0 74.5 27t39.5 81l94 484h132l-95 -486q-23 -118 -86 -173t-183 -55q-54 0 -98.5 22z" />
    <glyph glyph-name="ij" unicode="&#x133;" horiz-adv-x="500" 
d="M109 496h128l-97 -496h-127zM144 700h140l-26 -132h-140zM119 -201l33 114q18 -8 37 -8q30 0 45.5 17t22.5 54l101 520h128l-104 -540q-32 -167 -190 -167q-43 0 -73 10zM392 700h140l-26 -132h-140z" />
    <glyph glyph-name="Jcircumflex" unicode="&#x134;" horiz-adv-x="555" 
d="M125.5 8q-44.5 22 -70 62.5t-25.5 95.5q0 31 7 59l130 -15q-3 -18 -3 -32q0 -28 23 -49t61 -21q45 0 74.5 27t39.5 81l94 484h132l-95 -486q-23 -118 -86 -173t-183 -55q-54 0 -98.5 22zM515 911h92l82 -157h-93l-52 60l-73 -60h-99z" />
    <glyph glyph-name="jcircumflex" unicode="&#x135;" horiz-adv-x="250" 
d="M-131 -201l33 114q18 -8 37 -8q30 0 45.5 17t22.5 54l101 520h128l-104 -540q-32 -167 -190 -167q-43 0 -73 10zM165 707h92l82 -157h-93l-52 60l-73 -60h-99z" />
    <glyph glyph-name="uni0136" unicode="&#x136;" horiz-adv-x="660" 
d="M163 700h132l-50 -260l66 60l228 200h174l-297 -260l176 -440h-148l-136 349l-98 -86l-52 -263h-132zM178 -303l61 121h-44l24 122h126l-24 -122l-116 -132z" />
    <glyph glyph-name="uni0137" unicode="&#x137;" horiz-adv-x="540" 
d="M150 700h128l-67 -344l163 140h167l-209 -174l138 -322h-134l-106 239l-51 -44l-38 -195h-127zM120 -303l61 121h-44l24 122h126l-24 -122l-116 -132z" />
    <glyph glyph-name="kgreenlandic" unicode="&#x138;" horiz-adv-x="537" 
d="M110 496h128l-28 -149l167 149h163l-212 -185l139 -311h-134l-106 229l-49 -43l-37 -186h-127z" />
    <glyph glyph-name="Lacute" unicode="&#x139;" horiz-adv-x="596" 
d="M163 700h132l-113 -578h348l-24 -122h-480zM279 912h155l-149 -158h-101z" />
    <glyph glyph-name="lacute" unicode="&#x13a;" horiz-adv-x="252" 
d="M150 700h128l-137 -700h-127zM261 912h155l-149 -158h-101z" />
    <glyph glyph-name="uni013B" unicode="&#x13b;" horiz-adv-x="596" 
d="M163 700h132l-113 -578h348l-24 -122h-480zM148 -303l61 121h-44l24 122h126l-24 -122l-116 -132z" />
    <glyph glyph-name="uni013C" unicode="&#x13c;" horiz-adv-x="252" 
d="M150 700h128l-137 -700h-127zM-37 -303l61 121h-44l24 122h126l-24 -122l-116 -132z" />
    <glyph glyph-name="Lcaron" unicode="&#x13d;" horiz-adv-x="596" 
d="M163 700h132l-113 -578h348l-24 -122h-480zM450 499l57 95h-45l21 106h106l-21 -108l-95 -108z" />
    <glyph glyph-name="lcaron" unicode="&#x13e;" horiz-adv-x="358" 
d="M150 700h128l-137 -700h-127zM307 499l57 95h-45l21 106h106l-21 -108l-95 -108z" />
    <glyph glyph-name="Ldot" unicode="&#x13f;" horiz-adv-x="596" 
d="M163 700h132l-113 -578h348l-24 -122h-480zM393 417h134l-27 -134h-134z" />
    <glyph glyph-name="ldot" unicode="&#x140;" horiz-adv-x="386" 
d="M150 700h128l-137 -700h-127zM286 417h134l-27 -134h-134z" />
    <glyph glyph-name="Lslash" unicode="&#x141;" horiz-adv-x="596" 
d="M530 122l-24 -122h-480l34 173l-81 -46l23 122l82 46l79 405h132l-63 -321l178 101l-23 -122l-179 -101l-26 -135h348z" />
    <glyph glyph-name="lslash" unicode="&#x142;" horiz-adv-x="252" 
d="M279 376l-72 -41l-66 -335h-127l49 254l-72 -41l22 110l72 41l65 336h128l-50 -255l73 41z" />
    <glyph glyph-name="Nacute" unicode="&#x143;" horiz-adv-x="729" 
d="M163 700h136l197 -453q12 -30 19 -55l100 508h128l-137 -700h-137l-196 454q-14 35 -20 55l-99 -509h-128zM503 912h155l-149 -158h-101z" />
    <glyph glyph-name="nacute" unicode="&#x144;" horiz-adv-x="594" 
d="M110 496h128l-12 -67q62 81 165 81q77 0 118.5 -39t41.5 -101q0 -15 -4 -45l-63 -325h-128l56 288q5 25 5 37q0 30 -22.5 48.5t-61.5 18.5q-51 0 -90.5 -39t-51.5 -101l-49 -252h-128zM394 708h155l-149 -158h-101z" />
    <glyph glyph-name="uni0145" unicode="&#x145;" horiz-adv-x="729" 
d="M163 700h136l197 -453q12 -30 19 -55l100 508h128l-137 -700h-137l-196 454q-14 35 -20 55l-99 -509h-128zM204 -303l61 121h-44l24 122h126l-24 -122l-116 -132z" />
    <glyph glyph-name="uni0146" unicode="&#x146;" horiz-adv-x="594" 
d="M110 496h128l-12 -67q62 81 165 81q77 0 118.5 -39t41.5 -101q0 -15 -4 -45l-63 -325h-128l56 288q5 25 5 37q0 30 -22.5 48.5t-61.5 18.5q-51 0 -90.5 -39t-51.5 -101l-49 -252h-128zM137 -303l61 121h-44l24 122h126l-24 -122l-116 -132z" />
    <glyph glyph-name="Ncaron" unicode="&#x147;" horiz-adv-x="729" 
d="M163 700h136l197 -453q12 -30 19 -55l100 508h128l-137 -700h-137l-196 454q-14 35 -20 55l-99 -509h-128zM335 911h93l52 -60l73 60h99l-143 -157h-92z" />
    <glyph glyph-name="ncaron" unicode="&#x148;" horiz-adv-x="594" 
d="M110 496h128l-12 -67q62 81 165 81q77 0 118.5 -39t41.5 -101q0 -15 -4 -45l-63 -325h-128l56 288q5 25 5 37q0 30 -22.5 48.5t-61.5 18.5q-51 0 -90.5 -39t-51.5 -101l-49 -252h-128zM231 707h93l52 -60l73 60h99l-143 -157h-92z" />
    <glyph glyph-name="Eng" unicode="&#x14a;" horiz-adv-x="732" 
d="M276 -198l54 117q24 -15 50 -15q72 0 92 96l-201 452q-11 24 -20 55l-97 -507h-128l137 700h136l201 -451q9 -20 20 -55l98 506h128l-137 -706q-20 -102 -80 -157t-157 -55q-54 0 -96 20z" />
    <glyph glyph-name="eng" unicode="&#x14b;" horiz-adv-x="594" 
d="M213 -201l33 114q18 -8 37 -8q30 0 45.5 17t22.5 54l61 312q5 25 5 37q0 30 -22.5 48.5t-61.5 18.5q-51 0 -90.5 -39t-51.5 -101l-49 -252h-128l96 496h128l-12 -67q62 81 165 81q77 0 118.5 -39t41.5 -101q0 -15 -4 -45l-71 -369q-32 -167 -190 -167q-43 0 -73 10z" />
    <glyph glyph-name="Omacron" unicode="&#x14c;" horiz-adv-x="812" 
d="M217.5 27q-72.5 41 -113.5 113.5t-41 164.5q0 106 48.5 200t140 151.5t214.5 57.5q99 0 172 -39.5t112 -111t39 -164.5q0 -112 -50 -206.5t-143 -150.5t-214 -56q-92 0 -164.5 41zM530 146q58 38 90.5 102.5t32.5 141.5q0 95 -55.5 148.5t-146.5 53.5q-72 0 -129.5 -39
t-90 -104t-32.5 -140q0 -63 26.5 -108.5t72 -69t101.5 -23.5q73 0 131 38zM388 886h248l-19 -94h-248z" />
    <glyph glyph-name="omacron" unicode="&#x14d;" horiz-adv-x="612" 
d="M153.5 14q-55.5 28 -88.5 79.5t-33 117.5q0 84 38 152t106.5 107.5t158.5 39.5q69 0 124.5 -26.5t87.5 -78.5t32 -125q0 -84 -39 -151t-108 -105t-158 -38q-65 0 -120.5 28zM369.5 125.5q35.5 21.5 56.5 59t21 84.5q0 57 -35 90t-93 33q-45 0 -81 -23.5t-56 -61
t-20 -79.5q0 -59 36.5 -91.5t91.5 -32.5q44 0 79.5 21.5zM257 682h248l-19 -94h-248z" />
    <glyph glyph-name="Obreve" unicode="&#x14e;" horiz-adv-x="812" 
d="M217.5 27q-72.5 41 -113.5 113.5t-41 164.5q0 106 48.5 200t140 151.5t214.5 57.5q99 0 172 -39.5t112 -111t39 -164.5q0 -112 -50 -206.5t-143 -150.5t-214 -56q-92 0 -164.5 41zM530 146q58 38 90.5 102.5t32.5 141.5q0 95 -55.5 148.5t-146.5 53.5q-72 0 -129.5 -39
t-90 -104t-32.5 -140q0 -63 26.5 -108.5t72 -69t101.5 -23.5q73 0 131 38zM421.5 794q-27.5 26 -27.5 66q0 9 2 21h77q-1 -3 -1 -10q0 -15 7.5 -24t22.5 -9q34 0 46 43h76q-8 -58 -40 -85.5t-91 -27.5q-44 0 -71.5 26z" />
    <glyph glyph-name="obreve" unicode="&#x14f;" horiz-adv-x="612" 
d="M153.5 14q-55.5 28 -88.5 79.5t-33 117.5q0 84 38 152t106.5 107.5t158.5 39.5q69 0 124.5 -26.5t87.5 -78.5t32 -125q0 -84 -39 -151t-108 -105t-158 -38q-65 0 -120.5 28zM369.5 125.5q35.5 21.5 56.5 59t21 84.5q0 57 -35 90t-93 33q-45 0 -81 -23.5t-56 -61
t-20 -79.5q0 -59 36.5 -91.5t91.5 -32.5q44 0 79.5 21.5zM289.5 590q-27.5 26 -27.5 66q0 9 2 21h77q-1 -3 -1 -10q0 -15 7.5 -24t22.5 -9q34 0 46 43h76q-8 -58 -40 -85.5t-91 -27.5q-44 0 -71.5 26z" />
    <glyph glyph-name="Ohungarumlaut" unicode="&#x150;" horiz-adv-x="812" 
d="M217.5 27q-72.5 41 -113.5 113.5t-41 164.5q0 106 48.5 200t140 151.5t214.5 57.5q99 0 172 -39.5t112 -111t39 -164.5q0 -112 -50 -206.5t-143 -150.5t-214 -56q-92 0 -164.5 41zM530 146q58 38 90.5 102.5t32.5 141.5q0 95 -55.5 148.5t-146.5 53.5q-72 0 -129.5 -39
t-90 -104t-32.5 -140q0 -63 26.5 -108.5t72 -69t101.5 -23.5q73 0 131 38zM407 912h153l-149 -158h-98zM598 912h151l-149 -158h-97z" />
    <glyph glyph-name="ohungarumlaut" unicode="&#x151;" horiz-adv-x="612" 
d="M153.5 14q-55.5 28 -88.5 79.5t-33 117.5q0 84 38 152t106.5 107.5t158.5 39.5q69 0 124.5 -26.5t87.5 -78.5t32 -125q0 -84 -39 -151t-108 -105t-158 -38q-65 0 -120.5 28zM369.5 125.5q35.5 21.5 56.5 59t21 84.5q0 57 -35 90t-93 33q-45 0 -81 -23.5t-56 -61
t-20 -79.5q0 -59 36.5 -91.5t91.5 -32.5q44 0 79.5 21.5zM272 708h153l-149 -158h-98zM463 708h151l-149 -158h-97z" />
    <glyph glyph-name="OE" unicode="&#x152;" horiz-adv-x="1174" 
d="M217.5 27q-72.5 41 -113.5 113.5t-41 164.5q0 106 48.5 200t140 151.5t214.5 57.5q77 0 138 -30.5t96 -82.5l21 99h483l-23 -118h-351l-32 -161h323l-23 -118h-323l-36 -185h354l-23 -118h-486l16 81q-85 -95 -218 -95q-92 0 -164.5 41zM530 146q58 38 90.5 102.5
t32.5 141.5q0 95 -55.5 148.5t-146.5 53.5q-72 0 -129.5 -39t-90 -104t-32.5 -140q0 -63 26.5 -108.5t72 -69t101.5 -23.5q73 0 131 38z" />
    <glyph glyph-name="oe" unicode="&#x153;" horiz-adv-x="1001" 
d="M153.5 14q-55.5 28 -88.5 79.5t-33 117.5q0 84 38 152t106.5 107.5t158.5 39.5q64 0 115.5 -26t85.5 -73q36 46 90.5 72.5t120.5 26.5q70 0 120.5 -25t76.5 -69.5t26 -101.5q0 -36 -6 -68l-5 -28h-385q0 -58 32.5 -91t85.5 -33q51 0 86.5 21.5t61.5 67.5l91 -58
q-43 -71 -101.5 -105t-144.5 -34q-57 0 -106.5 27.5t-79.5 75.5q-45 -52 -99 -77.5t-126 -25.5q-65 0 -120.5 28zM858 310q0 48 -31.5 76t-84.5 28q-49 0 -89 -29t-57 -75h262zM369.5 125.5q35.5 21.5 56.5 59t21 84.5q0 57 -35 90t-93 33q-45 0 -81 -23.5t-56 -61
t-20 -79.5q0 -59 36.5 -91.5t91.5 -32.5q44 0 79.5 21.5z" />
    <glyph glyph-name="Racute" unicode="&#x154;" horiz-adv-x="664" 
d="M163 700h287q105 0 164.5 -47t59.5 -131q0 -88 -55.5 -147t-146.5 -79l111 -296h-141l-105 284h-123l-56 -284h-132zM403 400q60 0 97.5 26.5t37.5 76.5q0 81 -99 81h-167l-36 -184h167zM465 912h155l-149 -158h-101z" />
    <glyph glyph-name="racute" unicode="&#x155;" horiz-adv-x="379" 
d="M110 496h128l-13 -68q46 82 148 82q21 0 42 -6l-43 -119q-17 7 -40 7q-56 0 -92.5 -40t-50.5 -114l-47 -238h-128zM307 708h155l-149 -158h-101z" />
    <glyph glyph-name="uni0156" unicode="&#x156;" horiz-adv-x="664" 
d="M163 700h287q105 0 164.5 -47t59.5 -131q0 -88 -55.5 -147t-146.5 -79l111 -296h-141l-105 284h-123l-56 -284h-132zM403 400q60 0 97.5 26.5t37.5 76.5q0 81 -99 81h-167l-36 -184h167zM178 -303l61 121h-44l24 122h126l-24 -122l-116 -132z" />
    <glyph glyph-name="uni0157" unicode="&#x157;" horiz-adv-x="379" 
d="M110 496h128l-13 -68q46 82 148 82q21 0 42 -6l-43 -119q-17 7 -40 7q-56 0 -92.5 -40t-50.5 -114l-47 -238h-128zM-37 -303l61 121h-44l24 122h126l-24 -122l-116 -132z" />
    <glyph glyph-name="Rcaron" unicode="&#x158;" horiz-adv-x="664" 
d="M163 700h287q105 0 164.5 -47t59.5 -131q0 -88 -55.5 -147t-146.5 -79l111 -296h-141l-105 284h-123l-56 -284h-132zM403 400q60 0 97.5 26.5t37.5 76.5q0 81 -99 81h-167l-36 -184h167zM297 911h93l52 -60l73 60h99l-143 -157h-92z" />
    <glyph glyph-name="rcaron" unicode="&#x159;" horiz-adv-x="379" 
d="M110 496h128l-13 -68q46 82 148 82q21 0 42 -6l-43 -119q-17 7 -40 7q-56 0 -92.5 -40t-50.5 -114l-47 -238h-128zM144 707h93l52 -60l73 60h99l-143 -157h-92z" />
    <glyph glyph-name="Sacute" unicode="&#x15a;" horiz-adv-x="651" 
d="M170 16q-57 30 -91 80.5t-43 111.5l121 61q9 -76 48.5 -121.5t109.5 -45.5q58 0 99 29t41 78q0 40 -33.5 62t-110.5 42q-78 20 -132.5 69t-54.5 124q0 60 32 107.5t91.5 74t137.5 26.5q99 0 159 -45.5t84 -126.5l-101 -64q-16 57 -54.5 88.5t-97.5 31.5
q-53 0 -88.5 -20.5t-35.5 -58.5q0 -37 34 -59.5t110 -42.5q94 -24 144 -69t50 -120q0 -73 -35.5 -127.5t-100 -84.5t-150.5 -30q-76 0 -133 30zM456 912h155l-149 -158h-101z" />
    <glyph glyph-name="sacute" unicode="&#x15b;" horiz-adv-x="500" 
d="M84 29.5q-56 43.5 -72 107.5l100 58q10 -47 39.5 -75t81.5 -28q36 0 60 15t24 42q0 25 -23.5 38.5t-76.5 27.5q-141 37 -141 147q0 42 23.5 75.5t68 53t103.5 19.5q149 0 191 -123l-91 -49q-33 80 -107 80q-31 0 -52.5 -12.5t-21.5 -36.5q0 -21 25.5 -37.5t71.5 -27.5
q76 -18 112.5 -52t36.5 -92q0 -78 -58.5 -126t-159.5 -48q-78 0 -134 43.5zM331 708h155l-149 -158h-101z" />
    <glyph glyph-name="Scircumflex" unicode="&#x15c;" horiz-adv-x="651" 
d="M170 16q-57 30 -91 80.5t-43 111.5l121 61q9 -76 48.5 -121.5t109.5 -45.5q58 0 99 29t41 78q0 40 -33.5 62t-110.5 42q-78 20 -132.5 69t-54.5 124q0 60 32 107.5t91.5 74t137.5 26.5q99 0 159 -45.5t84 -126.5l-101 -64q-16 57 -54.5 88.5t-97.5 31.5
q-53 0 -88.5 -20.5t-35.5 -58.5q0 -37 34 -59.5t110 -42.5q94 -24 144 -69t50 -120q0 -73 -35.5 -127.5t-100 -84.5t-150.5 -30q-76 0 -133 30zM398 911h92l82 -157h-93l-52 60l-73 -60h-99z" />
    <glyph glyph-name="scircumflex" unicode="&#x15d;" horiz-adv-x="500" 
d="M84 29.5q-56 43.5 -72 107.5l100 58q10 -47 39.5 -75t81.5 -28q36 0 60 15t24 42q0 25 -23.5 38.5t-76.5 27.5q-141 37 -141 147q0 42 23.5 75.5t68 53t103.5 19.5q149 0 191 -123l-91 -49q-33 80 -107 80q-31 0 -52.5 -12.5t-21.5 -36.5q0 -21 25.5 -37.5t71.5 -27.5
q76 -18 112.5 -52t36.5 -92q0 -78 -58.5 -126t-159.5 -48q-78 0 -134 43.5zM278 707h92l82 -157h-93l-52 60l-73 -60h-99z" />
    <glyph glyph-name="Scedilla" unicode="&#x15e;" horiz-adv-x="651" 
d="M539 348q50 -45 50 -120q0 -72 -35 -127t-98.5 -85t-148.5 -30l-30 -38q16 8 38 8q30 0 48.5 -18t18.5 -48q0 -44 -29 -69t-76 -25q-37 0 -60 16t-30 45l70 17q2 -10 8.5 -16t16.5 -6q12 0 20 8t8 22q0 12 -7.5 18t-18.5 6q-22 0 -43 -18l-34 33l38 70q-88 16 -142 76
t-67 141l121 61q9 -76 48.5 -121.5t109.5 -45.5q58 0 99 29t41 78q0 40 -33.5 62t-110.5 42q-78 20 -132.5 69t-54.5 124q0 60 32 107.5t91.5 74t137.5 26.5q99 0 159 -45.5t84 -126.5l-101 -64q-16 57 -54.5 88.5t-97.5 31.5q-53 0 -88.5 -20.5t-35.5 -58.5q0 -37 34 -59.5
t110 -42.5q94 -24 144 -69z" />
    <glyph glyph-name="scedilla" unicode="&#x15f;" horiz-adv-x="500" 
d="M399.5 252q36.5 -34 36.5 -92q0 -75 -54 -122.5t-148 -51.5l-30 -38q16 8 38 8q30 0 48.5 -18t18.5 -48q0 -44 -29 -69t-76 -25q-37 0 -60 16t-30 45l70 17q2 -10 8.5 -16t16.5 -6q12 0 20 8t8 22q0 12 -7.5 18t-18.5 6q-22 0 -43 -18l-34 33l37 70q-61 12 -103.5 52
t-55.5 94l100 58q10 -47 39.5 -75t81.5 -28q36 0 60 15t24 42q0 25 -23.5 38.5t-76.5 27.5q-141 37 -141 147q0 42 23.5 75.5t68 53t103.5 19.5q149 0 191 -123l-91 -49q-33 80 -107 80q-31 0 -52.5 -12.5t-21.5 -36.5q0 -21 25.5 -37.5t71.5 -27.5q76 -18 112.5 -52z" />
    <glyph glyph-name="Scaron" unicode="&#x160;" horiz-adv-x="651" 
d="M170 16q-57 30 -91 80.5t-43 111.5l121 61q9 -76 48.5 -121.5t109.5 -45.5q58 0 99 29t41 78q0 40 -33.5 62t-110.5 42q-78 20 -132.5 69t-54.5 124q0 60 32 107.5t91.5 74t137.5 26.5q99 0 159 -45.5t84 -126.5l-101 -64q-16 57 -54.5 88.5t-97.5 31.5
q-53 0 -88.5 -20.5t-35.5 -58.5q0 -37 34 -59.5t110 -42.5q94 -24 144 -69t50 -120q0 -73 -35.5 -127.5t-100 -84.5t-150.5 -30q-76 0 -133 30zM288 911h93l52 -60l73 60h99l-143 -157h-92z" />
    <glyph glyph-name="scaron" unicode="&#x161;" horiz-adv-x="500" 
d="M84 29.5q-56 43.5 -72 107.5l100 58q10 -47 39.5 -75t81.5 -28q36 0 60 15t24 42q0 25 -23.5 38.5t-76.5 27.5q-141 37 -141 147q0 42 23.5 75.5t68 53t103.5 19.5q149 0 191 -123l-91 -49q-33 80 -107 80q-31 0 -52.5 -12.5t-21.5 -36.5q0 -21 25.5 -37.5t71.5 -27.5
q76 -18 112.5 -52t36.5 -92q0 -78 -58.5 -126t-159.5 -48q-78 0 -134 43.5zM168 707h93l52 -60l73 60h99l-143 -157h-92z" />
    <glyph glyph-name="uni0162" unicode="&#x162;" horiz-adv-x="592" 
d="M662 700l-24 -122h-212l-113 -578h-34l-41 -52q16 8 38 8q30 0 48.5 -18t18.5 -48q0 -44 -29 -69t-76 -25q-37 0 -60 16t-30 45l70 17q2 -10 8.5 -16t16.5 -6q12 0 20 8t8 22q0 12 -7.5 18t-18.5 6q-22 0 -43 -18l-34 33l42 79h-29l113 578h-212l24 122h556z" />
    <glyph glyph-name="uni0163" unicode="&#x163;" horiz-adv-x="368" 
d="M213 168q-3 -16 -3 -28q0 -20 14 -31t37 -11q21 0 43 6l-8 -104q-47 -14 -90 -14q-14 0 -21 1l-31 -39q16 8 38 8q30 0 48.5 -18t18.5 -48q0 -44 -29 -69t-76 -25q-37 0 -60 16t-30 45l70 17q2 -10 8.5 -16t16.5 -6q12 0 20 8t8 22q0 12 -7.5 18t-18.5 6q-22 0 -43 -18
l-34 33l46 86q-24 15 -38 40t-14 57q0 25 6 58l45 232h-77l20 102h77l26 134h128l-26 -134h106l-20 -102h-106z" />
    <glyph glyph-name="Tcaron" unicode="&#x164;" horiz-adv-x="592" 
d="M294 578h-212l24 122h556l-24 -122h-212l-113 -578h-132zM266 911h93l52 -60l73 60h99l-143 -157h-92z" />
    <glyph glyph-name="tcaron" unicode="&#x165;" horiz-adv-x="368" 
d="M114.5 18.5q-36.5 32.5 -36.5 85.5q0 25 6 58l45 232h-77l20 102h77l26 134h128l-26 -134h106l-20 -102h-106l-44 -226q-3 -16 -3 -28q0 -20 14 -31t37 -11q21 0 43 6l-8 -104q-47 -14 -90 -14q-55 0 -91.5 32.5zM347 532l57 95h-45l21 106h106l-21 -108l-95 -108z" />
    <glyph glyph-name="Tbar" unicode="&#x166;" horiz-adv-x="592" 
d="M248 344h-138l19 94h138l27 140h-212l24 122h556l-24 -122h-212l-27 -140h138l-19 -94h-138l-67 -344h-132z" />
    <glyph glyph-name="tbar" unicode="&#x167;" horiz-adv-x="368" 
d="M114.5 18.5q-36.5 32.5 -36.5 85.5q0 25 6 58l9 50h-64l19 96h64l17 86h-77l20 102h77l26 134h128l-26 -134h106l-20 -102h-106l-17 -86h94l-19 -96h-94l-8 -44q-3 -16 -3 -28q0 -20 14 -31t37 -11q21 0 43 6l-8 -104q-47 -14 -90 -14q-55 0 -91.5 32.5z" />
    <glyph glyph-name="Utilde" unicode="&#x168;" horiz-adv-x="700" 
d="M185 12.5q-54 26.5 -86.5 78t-32.5 121.5q0 37 7 75l81 413h132l-81 -417q-5 -29 -5 -51q0 -59 34 -91.5t92 -32.5q150 0 184 176l80 416h132l-85 -435q-28 -145 -109 -212t-225 -67q-64 0 -118 26.5zM465 765q-20 11 -41 31q-14 13 -22.5 18.5t-20.5 5.5q-13 0 -20.5 -9
t-7.5 -21q0 -6 4 -16l-85 -16q-6 12 -6 34q0 47 30 78t85 31q34 0 54.5 -11t42.5 -31q13 -12 22.5 -18t20.5 -6q12 0 19 8t7 21q0 8 -3 17l83 17q6 -16 6 -42q0 -44 -30.5 -73t-82.5 -29q-35 0 -55 11z" />
    <glyph glyph-name="utilde" unicode="&#x169;" horiz-adv-x="594" 
d="M121 6.5q-38 20.5 -57.5 54.5t-19.5 75q0 18 6 52l60 308h128l-55 -282q-5 -25 -5 -42q0 -34 24 -51t64 -17q49 0 87 39t51 106l48 247h128l-96 -496h-128l12 67q-24 -37 -65.5 -59t-90.5 -22q-53 0 -91 20.5zM383 561q-20 11 -41 31q-14 13 -22.5 18.5t-20.5 5.5
q-13 0 -20.5 -9t-7.5 -21q0 -6 4 -16l-85 -16q-6 12 -6 34q0 47 30 78t85 31q34 0 54.5 -11t42.5 -31q13 -12 22.5 -18t20.5 -6q12 0 19 8t7 21q0 8 -3 17l83 17q6 -16 6 -42q0 -44 -30.5 -73t-82.5 -29q-35 0 -55 11z" />
    <glyph glyph-name="Umacron" unicode="&#x16a;" horiz-adv-x="700" 
d="M185 12.5q-54 26.5 -86.5 78t-32.5 121.5q0 37 7 75l81 413h132l-81 -417q-5 -29 -5 -51q0 -59 34 -91.5t92 -32.5q150 0 184 176l80 416h132l-85 -435q-28 -145 -109 -212t-225 -67q-64 0 -118 26.5zM338 886h248l-19 -94h-248z" />
    <glyph glyph-name="umacron" unicode="&#x16b;" horiz-adv-x="594" 
d="M121 6.5q-38 20.5 -57.5 54.5t-19.5 75q0 18 6 52l60 308h128l-55 -282q-5 -25 -5 -42q0 -34 24 -51t64 -17q49 0 87 39t51 106l48 247h128l-96 -496h-128l12 67q-24 -37 -65.5 -59t-90.5 -22q-53 0 -91 20.5zM256 682h248l-19 -94h-248z" />
    <glyph glyph-name="Ubreve" unicode="&#x16c;" horiz-adv-x="700" 
d="M185 12.5q-54 26.5 -86.5 78t-32.5 121.5q0 37 7 75l81 413h132l-81 -417q-5 -29 -5 -51q0 -59 34 -91.5t92 -32.5q150 0 184 176l80 416h132l-85 -435q-28 -145 -109 -212t-225 -67q-64 0 -118 26.5zM371.5 794q-27.5 26 -27.5 66q0 9 2 21h77q-1 -3 -1 -10
q0 -15 7.5 -24t22.5 -9q34 0 46 43h76q-8 -58 -40 -85.5t-91 -27.5q-44 0 -71.5 26z" />
    <glyph glyph-name="ubreve" unicode="&#x16d;" horiz-adv-x="594" 
d="M121 6.5q-38 20.5 -57.5 54.5t-19.5 75q0 18 6 52l60 308h128l-55 -282q-5 -25 -5 -42q0 -34 24 -51t64 -17q49 0 87 39t51 106l48 247h128l-96 -496h-128l12 67q-24 -37 -65.5 -59t-90.5 -22q-53 0 -91 20.5zM288.5 590q-27.5 26 -27.5 66q0 9 2 21h77q-1 -3 -1 -10
q0 -15 7.5 -24t22.5 -9q34 0 46 43h76q-8 -58 -40 -85.5t-91 -27.5q-44 0 -71.5 26z" />
    <glyph glyph-name="Uring" unicode="&#x16e;" horiz-adv-x="700" 
d="M185 12.5q-54 26.5 -86.5 78t-32.5 121.5q0 37 7 75l81 413h132l-81 -417q-5 -29 -5 -51q0 -59 34 -91.5t92 -32.5q150 0 184 176l80 416h132l-85 -435q-28 -145 -109 -212t-225 -67q-64 0 -118 26.5zM384 771.5q-28 27.5 -28 67.5t28 67.5t68 27.5t68 -27.5t28 -67.5
t-28 -67.5t-68 -27.5t-68 27.5zM476 814q9 9 9 25t-9 25t-24 9t-24 -9t-9 -25t9 -25t24 -9t24 9z" />
    <glyph glyph-name="uring" unicode="&#x16f;" horiz-adv-x="594" 
d="M121 6.5q-38 20.5 -57.5 54.5t-19.5 75q0 18 6 52l60 308h128l-55 -282q-5 -25 -5 -42q0 -34 24 -51t64 -17q49 0 87 39t51 106l48 247h128l-96 -496h-128l12 67q-24 -37 -65.5 -59t-90.5 -22q-53 0 -91 20.5zM302 567.5q-28 27.5 -28 67.5t28 67.5t68 27.5t68 -27.5
t28 -67.5t-28 -67.5t-68 -27.5t-68 27.5zM394 610q9 9 9 25t-9 25t-24 9t-24 -9t-9 -25t9 -25t24 -9t24 9z" />
    <glyph glyph-name="Uhungarumlaut" unicode="&#x170;" horiz-adv-x="700" 
d="M185 12.5q-54 26.5 -86.5 78t-32.5 121.5q0 37 7 75l81 413h132l-81 -417q-5 -29 -5 -51q0 -59 34 -91.5t92 -32.5q150 0 184 176l80 416h132l-85 -435q-28 -145 -109 -212t-225 -67q-64 0 -118 26.5zM357 912h153l-149 -158h-98zM548 912h151l-149 -158h-97z" />
    <glyph glyph-name="uhungarumlaut" unicode="&#x171;" horiz-adv-x="594" 
d="M121 6.5q-38 20.5 -57.5 54.5t-19.5 75q0 18 6 52l60 308h128l-55 -282q-5 -25 -5 -42q0 -34 24 -51t64 -17q49 0 87 39t51 106l48 247h128l-96 -496h-128l12 67q-24 -37 -65.5 -59t-90.5 -22q-53 0 -91 20.5zM271 708h153l-149 -158h-98zM462 708h151l-149 -158h-97z
" />
    <glyph glyph-name="Uogonek" unicode="&#x172;" horiz-adv-x="700" 
d="M722 700l-85 -435q-22 -113 -75 -178t-141 -87q-33 -15 -59.5 -36.5t-26.5 -46.5q0 -16 9.5 -24.5t23.5 -8.5q9 0 22 2l-4 -77q-26 -7 -56 -7q-45 0 -74 22.5t-29 61.5q0 59 56 101q-60 4 -109.5 31.5t-78.5 77t-29 116.5q0 37 7 75l81 413h132l-81 -417q-5 -29 -5 -51
q0 -59 34 -91.5t92 -32.5q150 0 184 176l80 416h132z" />
    <glyph glyph-name="uogonek" unicode="&#x173;" horiz-adv-x="594" 
d="M424.5 -36q-27.5 -22 -27.5 -47q0 -16 9.5 -24.5t23.5 -8.5q9 0 22 2l-4 -77q-26 -7 -56 -7q-45 0 -74 22.5t-29 61.5q0 35 20 64t57 50h-10l12 67q-24 -37 -65.5 -59t-90.5 -22q-53 0 -91 20.5t-57.5 54.5t-19.5 75q0 18 6 52l60 308h128l-55 -282q-5 -25 -5 -42
q0 -34 24 -51t64 -17q49 0 87 39t51 106l48 247h128l-96 -496q-32 -14 -59.5 -36z" />
    <glyph glyph-name="Wcircumflex" unicode="&#x174;" horiz-adv-x="942" 
d="M94 700h136l24 -442q2 -50 2 -76q14 39 32 77l199 441h141l26 -441q2 -26 2 -77l32 76l195 442h141l-328 -700h-142l-34 508l-229 -508h-141zM550 911h92l82 -157h-93l-52 60l-73 -60h-99z" />
    <glyph glyph-name="wcircumflex" unicode="&#x175;" horiz-adv-x="714" 
d="M53 496h121l16 -323l147 323h128l23 -322l141 322h128l-229 -496h-127l-27 337l-157 -337h-122zM397 707h92l82 -157h-93l-52 60l-73 -60h-99z" />
    <glyph glyph-name="Ycircumflex" unicode="&#x176;" horiz-adv-x="600" 
d="M239 274l-149 426h147l77 -251q8 -26 12 -51q15 27 32 51l177 251h151l-315 -426l-54 -274h-132zM378 911h92l82 -157h-93l-52 60l-73 -60h-99z" />
    <glyph glyph-name="ycircumflex" unicode="&#x177;" horiz-adv-x="546" 
d="M-16 -200l42 117q21 -12 43 -12q21 0 37 10.5t30 36.5l25 48l-107 496h136l67 -328l188 328h142l-352 -588q-41 -68 -80 -93.5t-102 -25.5q-42 0 -69 11zM312 707h92l82 -157h-93l-52 60l-73 -60h-99z" />
    <glyph glyph-name="Ydieresis" unicode="&#x178;" horiz-adv-x="600" 
d="M239 274l-149 426h147l77 -251q8 -26 12 -51q15 27 32 51l177 251h151l-315 -426l-54 -274h-132zM276 904h118l-25 -124h-118zM456 904h118l-25 -124h-118z" />
    <glyph glyph-name="Zacute" unicode="&#x179;" horiz-adv-x="614" 
d="M11 120l445 458h-344l24 122h512l-24 -122l-443 -456h371l-24 -122h-541zM435 912h155l-149 -158h-101z" />
    <glyph glyph-name="zacute" unicode="&#x17a;" horiz-adv-x="496" 
d="M8 102l316 292h-248l20 102h396l-20 -102l-313 -292h273l-20 -102h-423zM336 708h155l-149 -158h-101z" />
    <glyph glyph-name="Zdotaccent" unicode="&#x17b;" horiz-adv-x="614" 
d="M11 120l445 458h-344l24 122h512l-24 -122l-443 -456h371l-24 -122h-541zM354 904h140l-26 -132h-140z" />
    <glyph glyph-name="zdotaccent" unicode="&#x17c;" horiz-adv-x="496" 
d="M8 102l316 292h-248l20 102h396l-20 -102l-313 -292h273l-20 -102h-423zM260 700h140l-26 -132h-140z" />
    <glyph glyph-name="Zcaron" unicode="&#x17d;" horiz-adv-x="614" 
d="M11 120l445 458h-344l24 122h512l-24 -122l-443 -456h371l-24 -122h-541zM267 911h93l52 -60l73 60h99l-143 -157h-92z" />
    <glyph glyph-name="zcaron" unicode="&#x17e;" horiz-adv-x="496" 
d="M8 102l316 292h-248l20 102h396l-20 -102l-313 -292h273l-20 -102h-423zM173 707h93l52 -60l73 60h99l-143 -157h-92z" />
    <glyph glyph-name="florin" unicode="&#x192;" horiz-adv-x="343" 
d="M-97 -207l38 113q16 -8 34 -8q26 0 40.5 15.5t20.5 46.5l84 434h-72l20 102h72l14 73q17 89 70.5 135t135.5 46q16 0 34 -3t30 -8l-33 -112q-20 7 -42 7q-26 0 -44.5 -17.5t-24.5 -49.5l-13 -71h107l-20 -102h-107l-86 -439q-34 -173 -192 -173q-38 0 -66 11z" />
    <glyph glyph-name="uni01B5" unicode="&#x1b5;" horiz-adv-x="614" 
d="M11 120l181 187h-118l18 94h192l172 177h-344l24 122h512l-24 -122l-172 -177h122l-18 -94h-196l-179 -185h371l-24 -122h-541z" />
    <glyph glyph-name="uni01B6" unicode="&#x1b6;" horiz-adv-x="496" 
d="M8 102l117 108h-68l19 96h153l95 88h-248l20 102h396l-20 -102l-94 -88h66l-19 -96h-150l-116 -108h273l-20 -102h-423z" />
    <glyph glyph-name="AEacute" unicode="&#x1fc;" horiz-adv-x="986" 
d="M411 700h605l-23 -118h-351l-32 -161h323l-23 -118h-323l-36 -185h354l-23 -118h-486l36 183h-210l-117 -183h-148zM455 301l55 281h-33l-180 -281h158zM685 912h155l-149 -158h-101z" />
    <glyph glyph-name="aeacute" unicode="&#x1fd;" horiz-adv-x="982" 
d="M133.5 15.5q-47.5 29.5 -74 81.5t-26.5 117q0 79 33.5 147t97 108.5t148.5 40.5q104 0 154 -72l13 58h126l-9 -46q26 26 63.5 43t86.5 17q60 0 106.5 -26.5t72.5 -71.5t26 -98q0 -36 -6 -68l-5 -28h-385q0 -58 32.5 -91t85.5 -33q51 0 86.5 21.5t61.5 67.5l91 -58
q-43 -71 -101 -105t-143 -34q-52 0 -89 18.5t-58 46.5l-11 -51h-128l12 61q-55 -75 -152 -75q-61 0 -108.5 29.5zM839 310q0 48 -31.5 76t-84.5 28q-50 0 -89.5 -29t-56.5 -75h262zM367 125.5q35 21.5 56 59.5t21 86q0 57 -34 89t-89 32q-46 0 -82 -21.5t-56 -59.5t-20 -84
q0 -57 36 -90t91 -33q42 0 77 21.5zM585 708h155l-149 -158h-101z" />
    <glyph glyph-name="uni0218" unicode="&#x218;" horiz-adv-x="651" 
d="M170 16q-57 30 -91 80.5t-43 111.5l121 61q9 -76 48.5 -121.5t109.5 -45.5q58 0 99 29t41 78q0 40 -33.5 62t-110.5 42q-78 20 -132.5 69t-54.5 124q0 60 32 107.5t91.5 74t137.5 26.5q99 0 159 -45.5t84 -126.5l-101 -64q-16 57 -54.5 88.5t-97.5 31.5
q-53 0 -88.5 -20.5t-35.5 -58.5q0 -37 34 -59.5t110 -42.5q94 -24 144 -69t50 -120q0 -73 -35.5 -127.5t-100 -84.5t-150.5 -30q-76 0 -133 30zM174 -303l61 121h-44l24 122h126l-24 -122l-116 -132z" />
    <glyph glyph-name="uni0219" unicode="&#x219;" horiz-adv-x="500" 
d="M84 29.5q-56 43.5 -72 107.5l100 58q10 -47 39.5 -75t81.5 -28q36 0 60 15t24 42q0 25 -23.5 38.5t-76.5 27.5q-141 37 -141 147q0 42 23.5 75.5t68 53t103.5 19.5q149 0 191 -123l-91 -49q-33 80 -107 80q-31 0 -52.5 -12.5t-21.5 -36.5q0 -21 25.5 -37.5t71.5 -27.5
q76 -18 112.5 -52t36.5 -92q0 -78 -58.5 -126t-159.5 -48q-78 0 -134 43.5zM101 -303l61 121h-44l24 122h126l-24 -122l-116 -132z" />
    <glyph glyph-name="uni021A" unicode="&#x21a;" horiz-adv-x="592" 
d="M294 578h-212l24 122h556l-24 -122h-212l-113 -578h-132zM135 -303l61 121h-44l24 122h126l-24 -122l-116 -132z" />
    <glyph glyph-name="uni021B" unicode="&#x21b;" horiz-adv-x="368" 
d="M114.5 18.5q-36.5 32.5 -36.5 85.5q0 25 6 58l45 232h-77l20 102h77l26 134h128l-26 -134h106l-20 -102h-106l-44 -226q-3 -16 -3 -28q0 -20 14 -31t37 -11q21 0 43 6l-8 -104q-47 -14 -90 -14q-55 0 -91.5 32.5zM51 -303l61 121h-44l24 122h126l-24 -122l-116 -132z" />
    <glyph glyph-name="uni0237" unicode="&#x237;" horiz-adv-x="250" 
d="M-131 -201l33 114q18 -8 37 -8q30 0 45.5 17t22.5 54l101 520h128l-104 -540q-32 -167 -190 -167q-43 0 -73 10z" />
    <glyph glyph-name="circumflex" unicode="&#x2c6;" horiz-adv-x="408" 
d="M227 707h92l82 -157h-93l-52 60l-73 -60h-99z" />
    <glyph glyph-name="caron" unicode="&#x2c7;" horiz-adv-x="408" 
d="M118 707h93l52 -60l73 60h99l-143 -157h-92z" />
    <glyph glyph-name="uni02C9" unicode="&#x2c9;" horiz-adv-x="328" 
d="M116 682h248l-19 -94h-248z" />
    <glyph glyph-name="breve" unicode="&#x2d8;" horiz-adv-x="294" 
d="M125.5 590q-27.5 26 -27.5 66q0 9 2 21h77q-1 -3 -1 -10q0 -15 7.5 -24t22.5 -9q34 0 46 43h76q-8 -58 -40 -85.5t-91 -27.5q-44 0 -71.5 26z" />
    <glyph glyph-name="dotaccent" unicode="&#x2d9;" horiz-adv-x="250" 
d="M131 700h140l-26 -132h-140z" />
    <glyph glyph-name="ring" unicode="&#x2da;" horiz-adv-x="274" 
d="M134 567.5q-28 27.5 -28 67.5t28 67.5t68 27.5t68 -27.5t28 -67.5t-28 -67.5t-68 -27.5t-68 27.5zM226 610q9 9 9 25t-9 25t-24 9t-24 -9t-9 -25t9 -25t24 -9t24 9z" />
    <glyph glyph-name="ogonek" unicode="&#x2db;" horiz-adv-x="224" 
d="M-28 -175.5q-29 22.5 -29 61.5q0 41 27 73t75 53l93 -12q-32 -14 -59.5 -36t-27.5 -47q0 -16 9.5 -24.5t23.5 -8.5q9 0 22 2l-4 -77q-26 -7 -56 -7q-45 0 -74 22.5z" />
    <glyph glyph-name="tilde" unicode="&#x2dc;" horiz-adv-x="470" 
d="M302 561q-20 11 -41 31q-14 13 -22.5 18.5t-20.5 5.5q-13 0 -20.5 -9t-7.5 -21q0 -6 4 -16l-85 -16q-6 12 -6 34q0 47 30 78t85 31q34 0 54.5 -11t42.5 -31q13 -12 22.5 -18t20.5 -6q12 0 19 8t7 21q0 8 -3 17l83 17q6 -16 6 -42q0 -44 -30.5 -73t-82.5 -29q-35 0 -55 11
z" />
    <glyph glyph-name="hungarumlaut" unicode="&#x2dd;" horiz-adv-x="516" 
d="M202 708h153l-149 -158h-98zM393 708h151l-149 -158h-97z" />
    <glyph glyph-name="gravecomb" unicode="&#x300;" 
d="M-130 708h152l37 -158h-97z" />
    <glyph glyph-name="acutecomb" unicode="&#x301;" 
d="M-66 708h155l-149 -158h-101z" />
    <glyph glyph-name="uni0302" unicode="&#x302;" 
d="M-115 707h92l82 -157h-93l-52 60l-73 -60h-99z" />
    <glyph glyph-name="tildecomb" unicode="&#x303;" 
d="M-92 561q-20 11 -41 31q-14 13 -22.5 18.5t-20.5 5.5q-13 0 -20.5 -9t-7.5 -21q0 -6 4 -16l-85 -16q-6 12 -6 34q0 47 30 78t85 31q34 0 54.5 -11t42.5 -31q13 -12 22.5 -18t20.5 -6q12 0 19 8t7 21q0 8 -3 17l83 17q6 -16 6 -42q0 -44 -30.5 -73t-82.5 -29q-35 0 -55 11
z" />
    <glyph glyph-name="uni0304" unicode="&#x304;" 
d="M-164 682h248l-19 -94h-248z" />
    <glyph glyph-name="uni0306" unicode="&#x306;" 
d="M-119.5 590q-27.5 26 -27.5 66q0 9 2 21h77q-1 -3 -1 -10q0 -15 7.5 -24t22.5 -9q34 0 46 43h76q-8 -58 -40 -85.5t-91 -27.5q-44 0 -71.5 26z" />
    <glyph glyph-name="uni0307" unicode="&#x307;" 
d="M-52 700h140l-26 -132h-140z" />
    <glyph glyph-name="uni0308" unicode="&#x308;" 
d="M-210 700h118l-25 -124h-118zM-30 700h118l-25 -124h-118z" />
    <glyph glyph-name="uni030A" unicode="&#x30a;" 
d="M-91 567.5q-28 27.5 -28 67.5t28 67.5t68 27.5t68 -27.5t28 -67.5t-28 -67.5t-68 -27.5t-68 27.5zM1 610q9 9 9 25t-9 25t-24 9t-24 -9t-9 -25t9 -25t24 -9t24 9z" />
    <glyph glyph-name="uni030B" unicode="&#x30b;" 
d="M-253 708h153l-149 -158h-98zM-62 708h151l-149 -158h-97z" />
    <glyph glyph-name="uni030C" unicode="&#x30c;" 
d="M-228 707h93l52 -60l73 60h99l-143 -157h-92z" />
    <glyph glyph-name="uni0312" unicode="&#x312;" 
d="M-51 686l137 136l22 -18l-84 -118h51l-24 -123h-126z" />
    <glyph glyph-name="uni0326" unicode="&#x326;" 
d="M-227 -303l61 121h-44l24 122h126l-24 -122l-116 -132z" />
    <glyph glyph-name="uni0327" unicode="&#x327;" 
d="M-237 -188q-23 16 -30 45l70 17q2 -10 8.5 -16t16.5 -6q12 0 20 8t8 22q0 12 -7.5 18t-18.5 6q-22 0 -43 -18l-34 33l51 95h72l-53 -68q16 8 38 8q30 0 48.5 -18t18.5 -48q0 -44 -29 -69t-76 -25q-37 0 -60 16z" />
    <glyph glyph-name="uni0328" unicode="&#x328;" 
d="M-215 -175.5q-29 22.5 -29 61.5q0 41 27 73t75 53l93 -12q-32 -14 -59.5 -36t-27.5 -47q0 -16 9.5 -24.5t23.5 -8.5q9 0 22 2l-4 -77q-26 -7 -56 -7q-45 0 -74 22.5z" />
    <glyph glyph-name="uni0335" unicode="&#x335;" 
d="M-319 400h348l-18 -96h-348z" />
    <glyph glyph-name="uni0336" unicode="&#x336;" 
d="M-678 578h742l-18 -94h-742z" />
    <glyph glyph-name="uni0337" unicode="&#x337;" 
d="M-256 248l288 163l-22 -110l-288 -163z" />
    <glyph glyph-name="uni0338" unicode="&#x338;" 
d="M-440 9l413 529l73 -51l-413 -529z" />
    <glyph glyph-name="uni0394" unicode="&#x394;" horiz-adv-x="704" 
d="M373 700h132l146 -700h-694zM490 118l-63 351q-8 41 -12 76q-20 -42 -40 -76l-201 -351h316z" />
    <glyph glyph-name="uni03A9" unicode="&#x3a9;" horiz-adv-x="795" 
d="M34 96h146q-44 44 -76 109t-32 143q0 96 47 180t136.5 135t209.5 51q93 0 164.5 -35.5t110.5 -99.5t39 -147q0 -102 -58 -189.5t-150 -146.5h131l-19 -96h-286l21 110q101 45 164 123.5t63 174.5q0 83 -54 133.5t-140 50.5q-72 0 -128 -33t-87.5 -89t-31.5 -123
q0 -79 32.5 -138t87.5 -99l-21 -110h-287z" />
    <glyph glyph-name="uni03BC" unicode="&#x3bc;" horiz-adv-x="594" 
d="M110 496h128l-55 -282q-5 -25 -5 -42q0 -34 24 -51t64 -17q49 0 87 39t51 106l48 247h128l-96 -496h-128l12 67q-51 -81 -155 -81q-40 0 -76 13q-5 -46 -10 -72l-26 -131h-127z" />
    <glyph glyph-name="pi" unicode="&#x3c0;" horiz-adv-x="682" 
d="M432 17q-35 31 -35 84q0 28 5 50l47 243h-165l-76 -394h-128l76 394h-103l20 102h627l-20 -102h-103l-43 -224q-3 -19 -3 -29q0 -43 43 -43q18 0 37 6l-8 -104q-42 -14 -84 -14q-52 0 -87 31z" />
    <glyph glyph-name="Wgrave" unicode="&#x1e80;" horiz-adv-x="942" 
d="M94 700h136l24 -442q2 -50 2 -76q14 39 32 77l199 441h141l26 -441q2 -26 2 -77l32 76l195 442h141l-328 -700h-142l-34 508l-229 -508h-141zM427 912h152l37 -158h-97z" />
    <glyph glyph-name="wgrave" unicode="&#x1e81;" horiz-adv-x="714" 
d="M53 496h121l16 -323l147 323h128l23 -322l141 322h128l-229 -496h-127l-27 337l-157 -337h-122zM285 708h152l37 -158h-97z" />
    <glyph glyph-name="Wacute" unicode="&#x1e82;" horiz-adv-x="942" 
d="M94 700h136l24 -442q2 -50 2 -76q14 39 32 77l199 441h141l26 -441q2 -26 2 -77l32 76l195 442h141l-328 -700h-142l-34 508l-229 -508h-141zM608 912h155l-149 -158h-101z" />
    <glyph glyph-name="wacute" unicode="&#x1e83;" horiz-adv-x="714" 
d="M53 496h121l16 -323l147 323h128l23 -322l141 322h128l-229 -496h-127l-27 337l-157 -337h-122zM450 708h155l-149 -158h-101z" />
    <glyph glyph-name="Wdieresis" unicode="&#x1e84;" horiz-adv-x="942" 
d="M94 700h136l24 -442q2 -50 2 -76q14 39 32 77l199 441h141l26 -441q2 -26 2 -77l32 76l195 442h141l-328 -700h-142l-34 508l-229 -508h-141zM448 904h118l-25 -124h-118zM628 904h118l-25 -124h-118z" />
    <glyph glyph-name="wdieresis" unicode="&#x1e85;" horiz-adv-x="714" 
d="M53 496h121l16 -323l147 323h128l23 -322l141 322h128l-229 -496h-127l-27 337l-157 -337h-122zM295 700h118l-25 -124h-118zM475 700h118l-25 -124h-118z" />
    <glyph glyph-name="uni1E9E" unicode="&#x1e9e;" horiz-adv-x="697" 
d="M286.5 9q-46.5 23 -67.5 58l95 90q18 -24 40.5 -36.5t52.5 -12.5q49 0 76 29.5t27 78.5q0 62 -42.5 87t-122.5 25l20 102l142 152h-133q-49 0 -81 -26.5t-42 -78.5l-93 -477h-132l93 477q44 223 278 223h260l-23 -118l-149 -158q75 -13 116.5 -61t41.5 -131
q0 -77 -35 -133t-91 -84.5t-119 -28.5q-65 0 -111.5 23z" />
    <glyph glyph-name="Ygrave" unicode="&#x1ef2;" horiz-adv-x="600" 
d="M239 274l-149 426h147l77 -251q8 -26 12 -51q15 27 32 51l177 251h151l-315 -426l-54 -274h-132zM255 912h152l37 -158h-97z" />
    <glyph glyph-name="ygrave" unicode="&#x1ef3;" horiz-adv-x="546" 
d="M-16 -200l42 117q21 -12 43 -12q21 0 37 10.5t30 36.5l25 48l-107 496h136l67 -328l188 328h142l-352 -588q-41 -68 -80 -93.5t-102 -25.5q-42 0 -69 11zM200 708h152l37 -158h-97z" />
    <glyph glyph-name="endash" unicode="&#x2013;" horiz-adv-x="579" 
d="M62 362h498l-19 -102h-498z" />
    <glyph glyph-name="emdash" unicode="&#x2014;" horiz-adv-x="850" 
d="M62 362h769l-19 -102h-769z" />
    <glyph glyph-name="quoteleft" unicode="&#x2018;" horiz-adv-x="214" 
d="M96 553l152 154l22 -21l-92 -133h52l-26 -134h-134z" />
    <glyph glyph-name="quoteright" unicode="&#x2019;" horiz-adv-x="214" 
d="M64 433l92 133h-52l26 134h134l-26 -134l-152 -154z" />
    <glyph glyph-name="quotesinglbase" unicode="&#x201a;" horiz-adv-x="214" 
d="M-46 -133l92 133h-52l26 134h134l-26 -134l-152 -154z" />
    <glyph glyph-name="quotedblleft" unicode="&#x201c;" horiz-adv-x="383" 
d="M96 553l152 154l22 -21l-92 -133h52l-26 -134h-134zM264 553l152 154l22 -21l-92 -133h52l-26 -134h-134z" />
    <glyph glyph-name="quotedblright" unicode="&#x201d;" horiz-adv-x="383" 
d="M66 433l92 133h-52l26 134h134l-26 -134l-152 -154zM234 433l92 133h-52l26 134h134l-26 -134l-152 -154z" />
    <glyph glyph-name="quotedblbase" unicode="&#x201e;" horiz-adv-x="382" 
d="M-46 -133l92 133h-52l26 134h134l-26 -134l-152 -154zM122 -133l92 133h-52l26 134h134l-26 -134l-152 -154z" />
    <glyph glyph-name="dagger" unicode="&#x2020;" horiz-adv-x="468" 
d="M200 394h-132l20 102h132l47 244h122l-47 -244h134l-20 -102h-134l-98 -504h-122z" />
    <glyph glyph-name="daggerdbl" unicode="&#x2021;" horiz-adv-x="469" 
d="M150 134h-132l20 102h132l31 158h-132l20 102h132l47 244h122l-47 -244h134l-20 -102h-134l-31 -158h134l-20 -102h-134l-47 -244h-122z" />
    <glyph glyph-name="bullet" unicode="&#x2022;" horiz-adv-x="331" 
d="M86 190q-35 35 -35 85t35 85t85 35t85 -35t35 -85t-35 -85t-85 -35t-85 35z" />
    <glyph glyph-name="ellipsis" unicode="&#x2026;" horiz-adv-x="595" 
d="M19 134h134l-27 -134h-134zM209 134h134l-27 -134h-134zM399 134h134l-27 -134h-134z" />
    <glyph glyph-name="perthousand" unicode="&#x2030;" horiz-adv-x="1136" 
d="M166 384q-36 20 -57 55.5t-21 80.5q0 52 25 96.5t69.5 71t101.5 26.5q74 0 117 -41.5t43 -111.5q0 -53 -25.5 -98.5t-70.5 -72t-102 -26.5q-44 0 -80 20zM138 49l566 658l63 -56l-566 -658zM323 479q27 29 27 74q0 32 -19.5 53.5t-51.5 21.5q-42 0 -69.5 -29.5
t-27.5 -74.5q0 -33 20.5 -53.5t53.5 -20.5q40 0 67 29zM537 6q-36 20 -57 55.5t-21 80.5q0 52 25 96.5t69.5 71t101.5 26.5q82 0 126 -52q55 52 135 52q74 0 117 -41.5t43 -111.5q0 -53 -25.5 -98.5t-70.5 -72t-102 -26.5q-37 0 -69 14t-54 40q-26 -25 -61.5 -39.5
t-76.5 -14.5q-44 0 -80 20zM694 101q27 29 27 74q0 32 -19.5 53.5t-51.5 21.5q-42 0 -69.5 -29.5t-27.5 -74.5q0 -33 20.5 -53.5t53.5 -20.5q40 0 67 29zM955 101q27 29 27 74q0 32 -19.5 53.5t-51.5 21.5q-42 0 -69.5 -29.5t-27.5 -74.5q0 -33 20.5 -53.5t53.5 -20.5
q40 0 67 29z" />
    <glyph glyph-name="guilsinglleft" unicode="&#x2039;" horiz-adv-x="385" 
d="M45 275l209 214h148l-213 -218l121 -208h-139z" />
    <glyph glyph-name="guilsinglright" unicode="&#x203a;" horiz-adv-x="385" 
d="M207 281l-121 208h139l126 -212l-209 -214h-148z" />
    <glyph glyph-name="fraction" unicode="&#x2044;" horiz-adv-x="212" 
d="M-189 49l566 658l63 -56l-566 -658z" />
    <glyph glyph-name="uni2070" unicode="&#x2070;" horiz-adv-x="396" 
d="M174.5 441q-32.5 18 -52.5 53t-20 83q0 54 22.5 102t65.5 78t103 30q64 0 102 -39.5t38 -114.5q0 -60 -23 -107.5t-66 -75t-100 -27.5q-37 0 -69.5 18zM323 534.5q26 35.5 26 90.5q0 40 -17.5 63t-47.5 23q-43 0 -70 -39.5t-27 -88.5q0 -40 18 -62t49 -22q43 0 69 35.5z
" />
    <glyph glyph-name="uni2074" unicode="&#x2074;" horiz-adv-x="376" 
d="M256 488h-162l13 66l206 226h84l-44 -226h36l-13 -66h-36l-12 -58h-84zM269 554l21 107l-98 -107h77z" />
    <glyph glyph-name="uni2075" unicode="&#x2075;" horiz-adv-x="354" 
d="M135 450.5q-34 27.5 -34 67.5q0 21 9 39l80 -15q-4 -7 -4 -17q0 -16 12 -25.5t33 -9.5q28 0 46.5 19t18.5 46q0 24 -15 38.5t-36 14.5q-39 0 -68 -35l-61 19l50 188h237l-13 -66h-169l-22 -69q12 11 32 17.5t44 6.5q48 0 76 -29t28 -76q0 -66 -42.5 -103.5t-112.5 -37.5
q-55 0 -89 27.5z" />
    <glyph glyph-name="uni2076" unicode="&#x2076;" horiz-adv-x="362" 
d="M148 463.5q-34 40.5 -34 108.5q0 51 19.5 100.5t60 82t97.5 32.5q50 0 77.5 -23t27.5 -56q0 -18 -10 -41l-72 15q5 10 5 18q0 12 -9 19t-27 7q-32 0 -54.5 -28.5t-29.5 -72.5q13 15 34 24t46 9q45 0 75.5 -26.5t30.5 -69.5q0 -61 -39 -100t-102 -39q-62 0 -96 40.5z
M290.5 503.5q17.5 17.5 17.5 46.5q0 20 -14.5 33t-37.5 13q-27 0 -44.5 -18t-17.5 -44q0 -22 15 -35t36 -13q28 0 45.5 17.5z" />
    <glyph glyph-name="uni2077" unicode="&#x2077;" horiz-adv-x="312" 
d="M288 714h-154l13 66h240l-13 -63l-191 -287h-85z" />
    <glyph glyph-name="uni2078" unicode="&#x2078;" horiz-adv-x="338" 
d="M127 453q-34 30 -34 72q0 66 71 98q-12 11 -20.5 27t-8.5 35q0 44 35.5 73t92.5 29q51 0 81.5 -24t30.5 -63q0 -28 -15.5 -50.5t-40.5 -34.5q37 -25 37 -70q0 -57 -38.5 -89.5t-103.5 -32.5q-53 0 -87 30zM285 659q15 14 15 36q0 18 -11.5 28t-28.5 10q-22 0 -36.5 -13.5
t-14.5 -34.5q0 -18 11 -29t28 -11q22 0 37 14zM259.5 499q15.5 16 15.5 41q0 20 -11.5 32.5t-33.5 12.5q-23 0 -38.5 -16.5t-15.5 -40.5q0 -20 13.5 -32.5t32.5 -12.5q22 0 37.5 16z" />
    <glyph glyph-name="uni2079" unicode="&#x2079;" horiz-adv-x="358" 
d="M143 446q-30 23 -30 56q0 21 10 41l72 -15q-5 -8 -5 -18q0 -11 10 -18.5t27 -7.5q33 0 55 28.5t28 73.5q-29 -34 -75 -34t-79 28t-33 77q0 56 38.5 93t103.5 37q62 0 95.5 -39t33.5 -109q0 -55 -19.5 -104.5t-59 -80.5t-96.5 -31q-46 0 -76 23zM296.5 631.5
q17.5 17.5 17.5 45.5q0 21 -15 34t-37 13q-27 0 -45 -17t-18 -46q0 -21 15 -34t37 -13q28 0 45.5 17.5z" />
    <glyph glyph-name="uni2080" unicode="&#x2080;" horiz-adv-x="396" 
d="M51.5 -193q-32.5 18 -52.5 53t-20 83q0 54 22.5 102t65.5 78t103 30q64 0 102 -39.5t38 -114.5q0 -60 -23 -107.5t-66 -75t-100 -27.5q-37 0 -69.5 18zM200 -99.5q26 35.5 26 90.5q0 40 -17.5 63t-47.5 23q-43 0 -70 -39.5t-27 -88.5q0 -40 18 -62t49 -22q43 0 69 35.5z
" />
    <glyph glyph-name="uni2081" unicode="&#x2081;" horiz-adv-x="256" 
d="M72 47q-17 -13 -34 -17t-44 -4l15 77q31 0 51.5 10.5t35.5 32.5h82l-69 -350h-86z" />
    <glyph glyph-name="uni2082" unicode="&#x2082;" horiz-adv-x="348" 
d="M-23 -155l157 129q23 19 33 34t10 36q0 18 -11 28t-32 10q-22 0 -35 -15t-13 -35q0 -7 1 -12l-82 -11q-2 10 -2 24q0 49 35.5 84.5t101.5 35.5q54 0 89 -26.5t35 -71.5q0 -35 -17.5 -64t-56.5 -61l-79 -65h122l-13 -69h-252z" />
    <glyph glyph-name="uni2083" unicode="&#x2083;" horiz-adv-x="352" 
d="M10.5 -182.5q-35.5 28.5 -35.5 68.5q0 25 12 46l79 -18q-5 -12 -5 -21q0 -15 12.5 -25t32.5 -10q24 0 39 14.5t15 37.5q0 41 -73 41l11 60q34 0 55 11t21 34q0 15 -10.5 23t-29.5 8q-18 0 -30.5 -11t-12.5 -28q0 -6 1 -11l-79 -10q-2 9 -2 19q0 49 37 78t94 29
q52 0 84 -23t32 -56q0 -30 -15 -51.5t-40 -33.5q19 -10 31.5 -29t12.5 -45q0 -57 -40 -91.5t-107 -34.5q-54 0 -89.5 28.5z" />
    <glyph glyph-name="uni2084" unicode="&#x2084;" horiz-adv-x="376" 
d="M133 -146h-162l13 66l206 226h84l-44 -226h36l-13 -66h-36l-12 -58h-84zM146 -80l21 107l-98 -107h77z" />
    <glyph glyph-name="uni2085" unicode="&#x2085;" horiz-adv-x="354" 
d="M12 -183.5q-34 27.5 -34 67.5q0 21 9 39l80 -15q-4 -7 -4 -17q0 -16 12 -25.5t33 -9.5q28 0 46.5 19t18.5 46q0 24 -15 38.5t-36 14.5q-39 0 -68 -35l-61 19l50 188h237l-13 -66h-169l-22 -69q12 11 32 17.5t44 6.5q48 0 76 -29t28 -76q0 -66 -42.5 -103.5t-112.5 -37.5
q-55 0 -89 27.5z" />
    <glyph glyph-name="uni2086" unicode="&#x2086;" horiz-adv-x="362" 
d="M25 -170.5q-34 40.5 -34 108.5q0 51 19.5 100.5t60 82t97.5 32.5q50 0 77.5 -23t27.5 -56q0 -18 -10 -41l-72 15q5 10 5 18q0 12 -9 19t-27 7q-32 0 -54.5 -28.5t-29.5 -72.5q13 15 34 24t46 9q45 0 75.5 -26.5t30.5 -69.5q0 -61 -39 -100t-102 -39q-62 0 -96 40.5z
M167.5 -130.5q17.5 17.5 17.5 46.5q0 20 -14.5 33t-37.5 13q-27 0 -44.5 -18t-17.5 -44q0 -22 15 -35t36 -13q28 0 45.5 17.5z" />
    <glyph glyph-name="uni2087" unicode="&#x2087;" horiz-adv-x="312" 
d="M165 80h-154l13 66h240l-13 -63l-191 -287h-85z" />
    <glyph glyph-name="uni2088" unicode="&#x2088;" horiz-adv-x="338" 
d="M4 -181q-34 30 -34 72q0 66 71 98q-12 11 -20.5 27t-8.5 35q0 44 35.5 73t92.5 29q51 0 81.5 -24t30.5 -63q0 -28 -15.5 -50.5t-40.5 -34.5q37 -25 37 -70q0 -57 -38.5 -89.5t-103.5 -32.5q-53 0 -87 30zM162 25q15 14 15 36q0 18 -11.5 28t-28.5 10q-22 0 -36.5 -13.5
t-14.5 -34.5q0 -18 11 -29t28 -11q22 0 37 14zM136.5 -135q15.5 16 15.5 41q0 20 -11.5 32.5t-33.5 12.5q-23 0 -38.5 -16.5t-15.5 -40.5q0 -20 13.5 -32.5t32.5 -12.5q22 0 37.5 16z" />
    <glyph glyph-name="uni2089" unicode="&#x2089;" horiz-adv-x="358" 
d="M20 -188q-30 23 -30 56q0 21 10 41l72 -15q-5 -8 -5 -18q0 -11 10 -18.5t27 -7.5q33 0 55 28.5t28 73.5q-29 -34 -75 -34t-79 28t-33 77q0 56 38.5 93t103.5 37q62 0 95.5 -39t33.5 -109q0 -55 -19.5 -104.5t-59 -80.5t-96.5 -31q-46 0 -76 23zM173.5 -2.5
q17.5 17.5 17.5 45.5q0 21 -15 34t-37 13q-27 0 -45 -17t-18 -46q0 -21 15 -34t37 -13q28 0 45.5 17.5z" />
    <glyph glyph-name="Euro" unicode="&#x20ac;" horiz-adv-x="782" 
d="M216.5 50.5q-72.5 64.5 -92.5 178.5h-93l60 92h27q1 28 6 58h-64l60 92h32q46 106 138.5 174.5t219.5 68.5q110 0 179 -51.5t93 -147.5l-121 -51q-17 66 -58 97t-110 31q-68 0 -121.5 -32t-85.5 -89h290l-60 -92h-262q-6 -30 -6 -58h299l-60 -92h-227q18 -59 58 -90
t96 -31q72 0 122.5 38.5t81.5 107.5l111 -42q-53 -116 -132.5 -171t-195.5 -55q-112 0 -184.5 64.5z" />
    <glyph glyph-name="uni20BA" unicode="&#x20ba;" horiz-adv-x="558" 
d="M528 312l-4 -20q-20 -100 -76 -165.5t-132.5 -96t-160.5 -30.5h-130l31 159l-70 -30l22 115l70 30l15 76l-70 -30l23 115l69 30l46 235h132l-33 -172l132 57l-23 -115l-132 -57l-14 -76l132 57l-23 -115l-132 -57l-19 -100q195 0 229 170l4 20h114z" />
    <glyph glyph-name="uni2113" unicode="&#x2113;" horiz-adv-x="521" 
d="M374 184l85 -52q-66 -146 -211 -146q-70 0 -114 38.5t-54 114.5q-19 -5 -57 -13v110q22 4 56 11q9 141 56.5 247t119 163t151.5 57q69 0 105 -40t36 -112q0 -122 -96 -225t-265 -165q6 -42 26.5 -62t49.5 -20q64 0 112 94zM311 571.5q-42 -42.5 -76 -118.5t-45 -171
q117 47 181 120t64 150q0 62 -48 62q-34 0 -76 -42.5z" />
    <glyph glyph-name="uni2117" unicode="&#x2117;" horiz-adv-x="842" 
d="M258.5 35q-83.5 49 -132.5 132.5t-49 182.5t49 182.5t132.5 132.5t182.5 49t182.5 -49t132.5 -132.5t49 -182.5t-49 -182.5t-132.5 -132.5t-182.5 -49t-182.5 49zM580 109.5q63 37.5 100 101t37 139.5t-37 139.5t-100 101t-139 37.5t-139 -37.5t-100 -101t-37 -139.5
t37 -139.5t100 -101t139 -37.5t139 37.5zM294 549h187q71 0 107.5 -33.5t36.5 -89.5t-36.5 -89t-107.5 -33h-99v-153h-88v398zM478 376q62 0 62 50q0 49 -62 49h-96v-99h96z" />
    <glyph glyph-name="uni2120" unicode="&#x2120;" horiz-adv-x="882" 
d="M115.5 327q-42.5 34 -48.5 90l75 32q5 -38 29.5 -60t56.5 -22q36 0 57 13t21 38q0 24 -17 37.5t-58 20.5q-53 9 -81.5 40t-28.5 70q0 61 44 91.5t112 30.5q58 0 94.5 -26.5t48.5 -75.5l-72 -37q-19 71 -79 71q-34 0 -54 -13t-20 -35q0 -18 21.5 -32.5t67.5 -22.5
q50 -9 78.5 -38.5t28.5 -68.5q0 -64 -45.5 -100.5t-120.5 -36.5q-67 0 -109.5 34zM500 700h89l65 -301l175 301h95l-77 -400h-82l43 224l-129 -224h-81l-50 224l-43 -224h-82z" />
    <glyph glyph-name="trademark" unicode="&#x2122;" horiz-adv-x="859" 
d="M223 626h-119l14 74h320l-14 -74h-119l-63 -326h-82zM477 700h89l65 -301l175 301h95l-77 -400h-82l43 224l-129 -224h-81l-50 224l-43 -224h-82z" />
    <glyph glyph-name="uni2126" unicode="&#x2126;" horiz-adv-x="795" 
d="M34 96h146q-44 44 -76 109t-32 143q0 96 47 180t136.5 135t209.5 51q93 0 164.5 -35.5t110.5 -99.5t39 -147q0 -102 -58 -189.5t-150 -146.5h131l-19 -96h-286l21 110q101 45 164 123.5t63 174.5q0 83 -54 133.5t-140 50.5q-72 0 -128 -33t-87.5 -89t-31.5 -123
q0 -79 32.5 -138t87.5 -99l-21 -110h-287z" />
    <glyph glyph-name="estimated" unicode="&#x212e;" horiz-adv-x="856" 
d="M623.5 83q77.5 51 115.5 135h51q-26 -68 -77 -120.5t-118.5 -82t-143.5 -29.5q-99 0 -182.5 49t-132.5 132.5t-49 182.5t49 182.5t132.5 132.5t182.5 49t182.5 -49t132.5 -132.5t49 -182.5h-596v-217q44 -47 104 -74t128 -27q95 0 172.5 51zM323 641q-60 -27 -104 -74
v-171h464v171q-44 47 -104 74t-128 27t-128 -27z" />
    <glyph glyph-name="uni2153" unicode="&#x2153;" horiz-adv-x="820" 
d="M179 601q-17 -13 -34 -17t-44 -4l15 77q31 0 51.5 10.5t35.5 32.5h82l-69 -350h-86zM67 49l566 658l63 -56l-566 -658zM518.5 21.5q-35.5 28.5 -35.5 68.5q0 25 12 46l79 -18q-5 -12 -5 -21q0 -15 12.5 -25t32.5 -10q24 0 39 14.5t15 37.5q0 41 -73 41l11 60q34 0 55 11
t21 34q0 15 -10.5 23t-29.5 8q-18 0 -30.5 -11t-12.5 -28q0 -6 1 -11l-79 -10q-2 9 -2 19q0 49 37 78t94 29q52 0 84 -23t32 -56q0 -30 -15 -51.5t-40 -33.5q19 -10 31.5 -29t12.5 -45q0 -57 -40 -91.5t-107 -34.5q-54 0 -89.5 28.5z" />
    <glyph glyph-name="uni2154" unicode="&#x2154;" horiz-adv-x="912" 
d="M84 399l157 129q23 19 33 34t10 36q0 18 -11 28t-32 10q-22 0 -35 -15t-13 -35q0 -7 1 -12l-82 -11q-2 10 -2 24q0 49 35.5 84.5t101.5 35.5q54 0 89 -26.5t35 -71.5q0 -35 -17.5 -64t-56.5 -61l-79 -65h122l-13 -69h-252zM159 49l566 658l63 -56l-566 -658zM610.5 21.5
q-35.5 28.5 -35.5 68.5q0 25 12 46l79 -18q-5 -12 -5 -21q0 -15 12.5 -25t32.5 -10q24 0 39 14.5t15 37.5q0 41 -73 41l11 60q34 0 55 11t21 34q0 15 -10.5 23t-29.5 8q-18 0 -30.5 -11t-12.5 -28q0 -6 1 -11l-79 -10q-2 9 -2 19q0 49 37 78t94 29q52 0 84 -23t32 -56
q0 -30 -15 -51.5t-40 -33.5q19 -10 31.5 -29t12.5 -45q0 -57 -40 -91.5t-107 -34.5q-54 0 -89.5 28.5z" />
    <glyph glyph-name="oneeighth" unicode="&#x215b;" horiz-adv-x="806" 
d="M179 601q-17 -13 -34 -17t-44 -4l15 77q31 0 51.5 10.5t35.5 32.5h82l-69 -350h-86zM67 49l566 658l63 -56l-566 -658zM512 23q-34 30 -34 72q0 66 71 98q-12 11 -20.5 27t-8.5 35q0 44 35.5 73t92.5 29q51 0 81.5 -24t30.5 -63q0 -28 -15.5 -50.5t-40.5 -34.5
q37 -25 37 -70q0 -57 -38.5 -89.5t-103.5 -32.5q-53 0 -87 30zM670 229q15 14 15 36q0 18 -11.5 28t-28.5 10q-22 0 -36.5 -13.5t-14.5 -34.5q0 -18 11 -29t28 -11q22 0 37 14zM644.5 69q15.5 16 15.5 41q0 20 -11.5 32.5t-33.5 12.5q-23 0 -38.5 -16.5t-15.5 -40.5
q0 -20 13.5 -32.5t32.5 -12.5q22 0 37.5 16z" />
    <glyph glyph-name="threeeighths" unicode="&#x215c;" horiz-adv-x="902" 
d="M117.5 371.5q-35.5 28.5 -35.5 68.5q0 25 12 46l79 -18q-5 -12 -5 -21q0 -15 12.5 -25t32.5 -10q24 0 39 14.5t15 37.5q0 41 -73 41l11 60q34 0 55 11t21 34q0 15 -10.5 23t-29.5 8q-18 0 -30.5 -11t-12.5 -28q0 -6 1 -11l-79 -10q-2 9 -2 19q0 49 37 78t94 29
q52 0 84 -23t32 -56q0 -30 -15 -51.5t-40 -33.5q19 -10 31.5 -29t12.5 -45q0 -57 -40 -91.5t-107 -34.5q-54 0 -89.5 28.5zM163 49l566 658l63 -56l-566 -658zM608 23q-34 30 -34 72q0 66 71 98q-12 11 -20.5 27t-8.5 35q0 44 35.5 73t92.5 29q51 0 81.5 -24t30.5 -63
q0 -28 -15.5 -50.5t-40.5 -34.5q37 -25 37 -70q0 -57 -38.5 -89.5t-103.5 -32.5q-53 0 -87 30zM766 229q15 14 15 36q0 18 -11.5 28t-28.5 10q-22 0 -36.5 -13.5t-14.5 -34.5q0 -18 11 -29t28 -11q22 0 37 14zM740.5 69q15.5 16 15.5 41q0 20 -11.5 32.5t-33.5 12.5
q-23 0 -38.5 -16.5t-15.5 -40.5q0 -20 13.5 -32.5t32.5 -12.5q22 0 37.5 16z" />
    <glyph glyph-name="fiveeighths" unicode="&#x215d;" horiz-adv-x="904" 
d="M119 370.5q-34 27.5 -34 67.5q0 21 9 39l80 -15q-4 -7 -4 -17q0 -16 12 -25.5t33 -9.5q28 0 46.5 19t18.5 46q0 24 -15 38.5t-36 14.5q-39 0 -68 -35l-61 19l50 188h237l-13 -66h-169l-22 -69q12 11 32 17.5t44 6.5q48 0 76 -29t28 -76q0 -66 -42.5 -103.5t-112.5 -37.5
q-55 0 -89 27.5zM165 49l566 658l63 -56l-566 -658zM610 23q-34 30 -34 72q0 66 71 98q-12 11 -20.5 27t-8.5 35q0 44 35.5 73t92.5 29q51 0 81.5 -24t30.5 -63q0 -28 -15.5 -50.5t-40.5 -34.5q37 -25 37 -70q0 -57 -38.5 -89.5t-103.5 -32.5q-53 0 -87 30zM768 229
q15 14 15 36q0 18 -11.5 28t-28.5 10q-22 0 -36.5 -13.5t-14.5 -34.5q0 -18 11 -29t28 -11q22 0 37 14zM742.5 69q15.5 16 15.5 41q0 20 -11.5 32.5t-33.5 12.5q-23 0 -38.5 -16.5t-15.5 -40.5q0 -20 13.5 -32.5t32.5 -12.5q22 0 37.5 16z" />
    <glyph glyph-name="seveneighths" unicode="&#x215e;" horiz-adv-x="862" 
d="M272 634h-154l13 66h240l-13 -63l-191 -287h-85zM123 49l566 658l63 -56l-566 -658zM568 23q-34 30 -34 72q0 66 71 98q-12 11 -20.5 27t-8.5 35q0 44 35.5 73t92.5 29q51 0 81.5 -24t30.5 -63q0 -28 -15.5 -50.5t-40.5 -34.5q37 -25 37 -70q0 -57 -38.5 -89.5
t-103.5 -32.5q-53 0 -87 30zM726 229q15 14 15 36q0 18 -11.5 28t-28.5 10q-22 0 -36.5 -13.5t-14.5 -34.5q0 -18 11 -29t28 -11q22 0 37 14zM700.5 69q15.5 16 15.5 41q0 20 -11.5 32.5t-33.5 12.5q-23 0 -38.5 -16.5t-15.5 -40.5q0 -20 13.5 -32.5t32.5 -12.5
q22 0 37.5 16z" />
    <glyph glyph-name="arrowleft" unicode="&#x2190;" horiz-adv-x="595" 
d="M57 312l275 231l62 -76l-126 -105h307l-19 -102h-320l88 -110l-80 -70z" />
    <glyph glyph-name="arrowup" unicode="&#x2191;" horiz-adv-x="538" 
d="M253 423l-126 -104l-59 73l276 229l181 -230l-83 -70l-86 107l-61 -312h-102z" />
    <glyph glyph-name="arrowright" unicode="&#x2192;" horiz-adv-x="595" 
d="M225 155l126 105h-307l19 102h320l-88 110l80 70l187 -232l-275 -231z" />
    <glyph glyph-name="arrowdown" unicode="&#x2193;" horiz-adv-x="538" 
d="M59 346l83 70l86 -107l61 312h102l-60 -307l126 104l59 -73l-276 -229z" />
    <glyph glyph-name="arrowboth" unicode="&#x2194;" horiz-adv-x="798" 
d="M57 312l275 231l62 -76l-126 -105h318l-88 110l80 70l187 -232l-275 -231l-62 76l126 105h-318l88 -110l-80 -71z" />
    <glyph glyph-name="arrowupdn" unicode="&#x2195;" horiz-adv-x="540" 
d="M38 226l83 70l86 -107l62 317l-126 -104l-59 73l276 229l181 -230l-83 -70l-86 107l-62 -317l126 104l59 -73l-276 -229z" />
    <glyph glyph-name="uni2196" unicode="&#x2196;" horiz-adv-x="535" 
d="M195 316l-30 -154h-100l64 327h327l-21 -106h-155l176 -218l-81 -70z" />
    <glyph glyph-name="uni2197" unicode="&#x2197;" horiz-adv-x="541" 
d="M47 165l257 218h-146l21 106h327l-64 -327h-106l30 152l-261 -221z" />
    <glyph glyph-name="uni2198" unicode="&#x2198;" horiz-adv-x="536" 
d="M120 214h155l-176 218l81 70l180 -221l30 154h100l-64 -327h-327z" />
    <glyph glyph-name="uni2199" unicode="&#x2199;" horiz-adv-x="540" 
d="M119 435h106l-30 -152l260 221l58 -72l-256 -218h146l-21 -106h-327z" />
    <glyph glyph-name="partialdiff" unicode="&#x2202;" horiz-adv-x="591" 
d="M144.5 13q-50.5 27 -80 75.5t-29.5 111.5q0 71 34.5 131t96.5 95.5t141 35.5q47 0 85.5 -16t59.5 -45q0 99 -32.5 156t-94.5 57q-35 0 -61 -16t-26 -42l1 -12l-116 -48q-9 22 -9 49q0 50 29 88.5t79.5 59.5t112.5 21q123 0 176.5 -82t53.5 -248q0 -112 -33 -202
t-102 -143t-174 -53q-61 0 -111.5 27zM351.5 112q34.5 20 54.5 54.5t20 76.5q0 52 -33 82.5t-82 30.5q-42 0 -76 -21t-53 -55.5t-19 -74.5q0 -51 32 -82t80 -31q42 0 76.5 20z" />
    <glyph glyph-name="uni2206" unicode="&#x2206;" horiz-adv-x="704" 
d="M373 700h132l146 -700h-694zM490 118l-63 351q-8 41 -12 76q-20 -42 -40 -76l-201 -351h316z" />
    <glyph glyph-name="product" unicode="&#x220f;" horiz-adv-x="689" 
d="M162 700h540l-175 -904h-130l152 782h-278l-153 -782h-130z" />
    <glyph glyph-name="summation" unicode="&#x2211;" horiz-adv-x="581" 
d="M-18 2l250 288l-130 288l24 122h501l-24 -122h-346l128 -299l-244 -277h357l-24 -122h-516z" />
    <glyph glyph-name="minus" unicode="&#x2212;" horiz-adv-x="565" 
d="M73 416h484l-19 -102h-484z" />
    <glyph glyph-name="uni2215" unicode="&#x2215;" horiz-adv-x="540" 
d="M495 730h135l-546 -760h-134z" />
    <glyph glyph-name="uni2219" unicode="&#x2219;" horiz-adv-x="331" 
d="M86 190q-35 35 -35 85t35 85t85 35t85 -35t35 -85t-35 -85t-85 -35t-85 35z" />
    <glyph glyph-name="radical" unicode="&#x221a;" horiz-adv-x="628" 
d="M132 256h-104l20 100h202l25 -176l294 520h130l-397 -700h-126z" />
    <glyph glyph-name="infinity" unicode="&#x221e;" horiz-adv-x="774" 
d="M88 172q-41 41 -41 110q0 49 24.5 92t70 69t105.5 26q97 0 157 -94q44 44 88 69t98 25q76 0 116.5 -41t40.5 -108q0 -55 -24.5 -97.5t-71 -67t-109.5 -24.5q-50 0 -84.5 24t-63.5 66q-37 -40 -85.5 -65t-101.5 -25q-78 0 -119 41zM277.5 242.5q30.5 23.5 65.5 65.5
q-22 35 -45 54t-54 19q-39 0 -68 -29t-29 -68q0 -29 18.5 -47t50.5 -18q31 0 61.5 23.5zM597.5 230.5q20.5 11.5 34.5 33.5t14 52q0 28 -18 46.5t-49 18.5q-29 0 -55.5 -22t-66.5 -69q23 -35 46 -53t53 -18q21 0 41.5 11.5z" />
    <glyph glyph-name="integral" unicode="&#x222b;" horiz-adv-x="343" 
d="M-97 -207l38 113q16 -8 34 -8q26 0 40.5 15.5t20.5 46.5l118 609q17 89 70.5 135t135.5 46q16 0 34 -3t30 -8l-33 -112q-20 7 -42 7q-26 0 -44 -17.5t-25 -49.5l-119 -612q-17 -90 -67 -131.5t-125 -41.5q-38 0 -66 11z" />
    <glyph glyph-name="approxequal" unicode="&#x2248;" horiz-adv-x="468" 
d="M38 222q0 50 32 83t92 33q35 0 56.5 -10.5t45.5 -30.5q15 -12 23.5 -17t19.5 -5q15 0 24 8.5t9 23.5q0 10 -3 16l91 16q7 -14 7 -40q0 -58 -32.5 -87.5t-91.5 -29.5q-36 0 -57.5 10.5t-45.5 30.5q-13 11 -22.5 16.5t-20.5 5.5q-14 0 -22.5 -9t-8.5 -24q0 -7 2 -15
l-91 -16q-7 21 -7 41zM73 402q0 50 32 83t92 33q35 0 56.5 -10.5t45.5 -30.5q15 -12 23.5 -17t19.5 -5q15 0 24 8.5t9 23.5q0 10 -3 16l91 16q7 -14 7 -40q0 -58 -32.5 -87.5t-91.5 -29.5q-36 0 -57.5 10.5t-45.5 30.5q-13 11 -22.5 16.5t-20.5 5.5q-14 0 -22.5 -9t-8.5 -24
q0 -7 2 -15l-91 -16q-7 21 -7 41z" />
    <glyph glyph-name="notequal" unicode="&#x2260;" horiz-adv-x="565" 
d="M48 107l69 87h-87l20 102h148l78 98h-207l20 102h268l119 149l80 -67l-66 -82h83l-20 -102h-145l-79 -98h205l-20 -102h-267l-122 -152z" />
    <glyph glyph-name="lessequal" unicode="&#x2264;" horiz-adv-x="564" 
d="M81 358l20 104l480 217l-28 -139l-315 -135l263 -134l-26 -128zM13 102h484l-19 -102h-484z" />
    <glyph glyph-name="greaterequal" unicode="&#x2265;" horiz-adv-x="564" 
d="M72 282l315 135l-263 134l26 128l394 -215l-20 -104l-480 -217zM12 102h484l-19 -102h-484z" />
    <glyph glyph-name="lozenge" unicode="&#x25ca;" horiz-adv-x="608" 
d="M44 350l284 350h128l148 -350l-285 -350h-128zM472 359l-97 231l-200 -245l97 -235z" />
    <glyph glyph-name="uniF8FF" unicode="&#xf8ff;" horiz-adv-x="780" 
d="M104.5 6.5q-6.5 6.5 -6.5 15.5v595q0 7 4.5 13.5t11.5 8.5l270 78l10 2l10 -2l270 -78q7 -2 11.5 -8.5t4.5 -13.5v-595q0 -9 -6.5 -15.5t-15.5 -6.5l-7 1l-267 77l-267 -77l-7 -1q-9 0 -15.5 6.5zM372 669l-230 -67q4 -62 35 -114t82.5 -84.5t112.5 -37.5v303z
M528.5 403.5q51.5 32.5 82.5 84.5t35 114l-230 67v-303q61 5 112.5 37.5zM372 118v204q-73 6 -134 43.5t-97 97.5v-412zM647 463q-37 -60 -97.5 -97.5t-133.5 -43.5v-204l231 -67v412z" />
    <glyph glyph-name="fi" unicode="&#xfb01;" horiz-adv-x="589" 
d="M118 394h-71l20 102h71l16 78q36 176 202 176q36 0 66 -9l-25 -114q-25 9 -42 9q-30 0 -49 -17t-25 -48l-15 -75h311l-97 -496h-127l76 394h-183l-76 -394h-128zM483 700h140l-26 -132h-140z" />
    <glyph glyph-name="fl" unicode="&#xfb02;" horiz-adv-x="590" 
d="M118 394h-71l20 102h71l16 78q36 176 202 176q36 0 66 -9l-25 -116q-25 9 -42 9q-30 0 -49 -16.5t-25 -46.5l-15 -75h107l-20 -102h-107l-76 -394h-128zM488 700h128l-137 -700h-127z" />
    <glyph glyph-name="i.loclTRK" horiz-adv-x="250" 
d="M109 496h128l-97 -496h-127zM144 700h140l-26 -132h-140z" />
    <glyph glyph-name="uni030C.alt" 
d="M-51 499l57 95h-45l21 106h106l-21 -108l-95 -108z" />
    <glyph glyph-name="uni0308.cap" 
d="M-170 904h118l-25 -124h-118zM10 904h118l-25 -124h-118z" />
    <glyph glyph-name="uni0307.cap" 
d="M-12 904h140l-26 -132h-140z" />
    <glyph glyph-name="gravecomb.cap" 
d="M-91 912h152l37 -158h-97z" />
    <glyph glyph-name="acutecomb.cap" 
d="M-26 912h155l-149 -158h-101z" />
    <glyph glyph-name="uni030B.cap" 
d="M-213 912h153l-149 -158h-98zM-22 912h151l-149 -158h-97z" />
    <glyph glyph-name="uni0302.cap" 
d="M-76 911h92l82 -157h-93l-52 60l-73 -60h-99z" />
    <glyph glyph-name="uni030C.cap" 
d="M-188 911h93l52 -60l73 60h99l-143 -157h-92z" />
    <glyph glyph-name="uni0306.cap" 
d="M-79.5 794q-27.5 26 -27.5 66q0 9 2 21h77q-1 -3 -1 -10q0 -15 7.5 -24t22.5 -9q34 0 46 43h76q-8 -58 -40 -85.5t-91 -27.5q-44 0 -71.5 26z" />
    <glyph glyph-name="uni030A.cap" 
d="M-51 771.5q-28 27.5 -28 67.5t28 67.5t68 27.5t68 -27.5t28 -67.5t-28 -67.5t-68 -27.5t-68 27.5zM41 814q9 9 9 25t-9 25t-24 9t-24 -9t-9 -25t9 -25t24 -9t24 9z" />
    <glyph glyph-name="tildecomb.cap" 
d="M-52 765q-20 11 -41 31q-14 13 -22.5 18.5t-20.5 5.5q-13 0 -20.5 -9t-7.5 -21q0 -6 4 -16l-85 -16q-6 12 -6 34q0 47 30 78t85 31q34 0 54.5 -11t42.5 -31q13 -12 22.5 -18t20.5 -6q12 0 19 8t7 21q0 8 -3 17l83 17q6 -16 6 -42q0 -44 -30.5 -73t-82.5 -29q-35 0 -55 11
z" />
    <glyph glyph-name="uni0304.cap" 
d="M-124 886h248l-19 -94h-248z" />
    <glyph glyph-name="uni0328.cap" 
d="M-215 -175.5q-29 22.5 -29 61.5q0 41 27 73t75 53l93 -12q-32 -14 -59.5 -36t-27.5 -47q0 -16 9.5 -24.5t23.5 -8.5q9 0 22 2l-4 -77q-26 -7 -56 -7q-45 0 -74 22.5z" />
    <glyph glyph-name="uni0337.cap" 
d="M-363 250l408 231l-23 -122l-408 -231z" />
    <glyph glyph-name="uni0338.cap" 
d="M-551 -6l553 768l87 -56l-553 -768z" />
    </font>
</defs>
</svg>
