<?xml version="1.0" standalone="no"?>
<!DOCTYPE svg PUBLIC "-//W3C//DTD SVG 1.1//EN" "http://www.w3.org/Graphics/SVG/1.1/DTD/svg11.dtd" >
<svg xmlns="http://www.w3.org/2000/svg" xmlns:xlink="http://www.w3.org/1999/xlink" version="1.1">
<metadata>
Created by FontForge 20170731 at Fri Mar  6 15:30:06 2020
 By Aleksey,,,
Copyright (c) 2015 by Colophon Foundry. All rights reserved.
</metadata>
<defs>
<font id="BasisGrotesqueMono-Bold" horiz-adv-x="602" >
  <font-face 
    font-family="Basis Grotesque Mono"
    font-weight="700"
    font-stretch="normal"
    units-per-em="1000"
    panose-1="2 11 8 9 5 3 1 4 2 3"
    ascent="800"
    descent="-200"
    x-height="496"
    cap-height="700"
    bbox="-512 -297 680 934"
    underline-thickness="50"
    underline-position="-150"
    unicode-range="U+000D-FB02"
  />
<missing-glyph 
d="M68 700h466v-700h-466v700zM472 664h-342l171 -280zM280 350l-176 288v-576zM498 638l-176 -288l176 -288v576zM472 36l-171 280l-171 -280h342z" />
    <glyph glyph-name="f_i" unicode="fi" 
d="M96 394h-59v102h59v70q0 62 25 103.5t65 61t85 19.5q36 0 61.5 -7t54.5 -24l-47 -106q-11 9 -25.5 15t-30.5 6q-30 0 -46 -18.5t-16 -51.5v-68h321v-496h-126v394h-195v-394h-126v394zM411 700h138v-132h-138v132z" />
    <glyph glyph-name="f_l" unicode="fl" 
d="M96 394h-59v102h59v70q0 62 25 103.5t65 61t85 19.5q36 0 62 -7t54 -24l-47 -106q-11 9 -25.5 15t-30.5 6q-30 0 -46 -18.5t-16 -51.5v-68h139v-102h-139v-394h-126v394zM417 700h126v-700h-126v700z" />
    <glyph glyph-name=".notdef" 
d="M68 700h466v-700h-466v700zM472 664h-342l171 -280zM280 350l-176 288v-576zM498 638l-176 -288l176 -288v576zM472 36l-171 280l-171 -280h342z" />
    <glyph glyph-name=".null" horiz-adv-x="0" 
 />
    <glyph glyph-name="nonmarkingreturn" unicode="&#xd;" 
 />
    <glyph glyph-name="space" unicode=" " 
 />
    <glyph glyph-name="exclam" unicode="!" 
d="M235 457v243h132v-243l-16 -249h-100zM235 138h132v-138h-132v138z" />
    <glyph glyph-name="quotedbl" unicode="&#x22;" 
d="M137 621v79h120v-79l-13 -167h-94zM307 621v79h120v-79l-13 -167h-94z" />
    <glyph glyph-name="numbersign" unicode="#" 
d="M121 204h-95v94h109l16 104h-105v94h119l30 204h110l-30 -204h106l30 204h110l-30 -204h95v-94h-109l-16 -104h105v-94h-119l-30 -204h-110l30 204h-106l-30 -204h-110zM351 298l16 104h-106l-16 -104h106z" />
    <glyph glyph-name="dollar" unicode="$" 
d="M253 -8q-90 16 -144 74t-75 144l116 59q12 -61 36.5 -99.5t66.5 -55.5v203q-87 21 -140 71.5t-53 128.5q0 77 52.5 130t140.5 65v88h104v-91q78 -13 130.5 -59.5t73.5 -114.5l-104 -63q-32 98 -100 121v-177q112 -22 163 -73.5t51 -139.5q0 -54 -25.5 -100.5t-74.5 -77.5
t-114 -37v-88h-104v92zM253 596q-30 -7 -48.5 -25t-18.5 -46q0 -26 16 -45.5t51 -34.5v151zM417 138.5q22 25.5 22 61.5q0 34 -19.5 56.5t-62.5 37.5v-189q38 8 60 33.5z" />
    <glyph glyph-name="percent" unicode="%" 
d="M122.5 443.5q-33.5 19.5 -53 52.5t-19.5 73t19.5 73t53 52.5t74.5 19.5t74.5 -19.5t53 -52.5t19.5 -73t-19.5 -73t-53 -52.5t-74.5 -19.5t-74.5 19.5zM245 519q19 19 19 50t-19 50t-48 19t-48 -19t-19 -50t19 -50t48 -19t48 19zM53 220l450 326l46 -66l-450 -326z
M330.5 5.5q-33.5 19.5 -53 52.5t-19.5 73t19.5 73t53 52.5t74.5 19.5t74.5 -19.5t53 -52.5t19.5 -73t-19.5 -73t-53 -52.5t-74.5 -19.5t-74.5 19.5zM453 81q19 19 19 50t-19 50t-48 19t-48 -19t-19 -50t19 -50t48 -19t48 19z" />
    <glyph glyph-name="ampersand" unicode="&#x26;" 
d="M136 13q-51 27 -78.5 76t-27.5 112q0 121 121 202q-43 71 -43 140q0 50 23.5 89t63 60.5t86.5 21.5q76 0 120.5 -39t44.5 -106q0 -63 -34 -109.5t-107 -80.5l121 -160q21 53 34 144l98 -56q-16 -113 -58 -185l93 -122h-144l-26 35q-70 -49 -168 -49q-68 0 -119 27z
M319.5 503.5q20.5 25.5 20.5 58.5q0 25 -16.5 40.5t-42.5 15.5q-27 0 -45 -18.5t-18 -52.5q0 -25 7 -47t24 -47q50 25 70.5 50.5zM358 122l-148 200q-28 -23 -41 -50.5t-13 -61.5q0 -51 32.5 -82.5t85.5 -31.5q49 0 84 26z" />
    <glyph glyph-name="quotesingle" unicode="'" 
d="M227 621v79h120v-79l-13 -167h-94z" />
    <glyph glyph-name="parenleft" unicode="(" 
d="M169 276q0 238 120 424h113q-48 -95 -76.5 -209t-28.5 -215t28.5 -215t76.5 -209h-113q-120 186 -120 424z" />
    <glyph glyph-name="parenright" unicode=")" 
d="M276.5 61q28.5 114 28.5 215t-28.5 215t-76.5 209h113q120 -186 120 -424t-120 -424h-113q48 95 76.5 209z" />
    <glyph glyph-name="asterisk" unicode="*" 
d="M267 474l-85 -73l-54 94l106 37l-106 37l54 94l85 -73l-20 110h108l-20 -110l85 73l54 -94l-106 -37l106 -37l-54 -94l-85 73l20 -110h-108z" />
    <glyph glyph-name="plus" unicode="+" 
d="M250 314h-191v102h191v191h102v-191h191v-102h-191v-191h-102v191z" />
    <glyph glyph-name="comma" unicode="," 
d="M216 -140l66 140h-59v156h156v-156l-128 -162z" />
    <glyph glyph-name="hyphen" unicode="-" 
d="M104 362h394v-102h-394v102z" />
    <glyph glyph-name="period" unicode="." 
d="M223 156h156v-156h-156v156z" />
    <glyph glyph-name="slash" unicode="/" 
d="M427 730h128l-380 -760h-128z" />
    <glyph glyph-name="zero" unicode="0" 
d="M152 31q-62 45 -94.5 127t-32.5 192t32.5 192t94.5 127t149 45t149 -45t94.5 -127t32.5 -192t-32.5 -192t-94.5 -127t-149 -45t-149 45zM369 573q-28 19 -68 19q-72 0 -108 -61.5t-36 -180.5q0 -67 12 -117zM409 169.5q36 61.5 36 180.5q0 68 -12 117l-200 -340
q28 -19 68 -19q72 0 108 61.5z" />
    <glyph glyph-name="one" unicode="1" 
d="M91 116h162v422q-28 -27 -62 -37.5t-85 -10.5v122q59 0 94.5 21.5t58.5 66.5h126v-584h162v-116h-456v116z" />
    <glyph glyph-name="two" unicode="2" 
d="M60 94l266 261q43 43 60.5 74t17.5 69q0 45 -27 72.5t-76 27.5q-48 0 -77 -26.5t-29 -72.5q0 -25 9 -48l-128 -24q-13 33 -13 79q0 55 28.5 103t83 76.5t126.5 28.5q75 0 128 -26t80 -71.5t27 -103.5q0 -69 -26.5 -120.5t-95.5 -117.5l-157 -153h278v-122h-475v94z" />
    <glyph glyph-name="three" unicode="3" 
d="M162.5 15q-56.5 29 -84.5 78t-28 107q0 15 3 32.5t8 29.5l125 -30q-4 -12 -4 -29q0 -48 32.5 -76.5t85.5 -28.5q54 0 84.5 29.5t30.5 81.5q0 116 -172 116v98q71 0 105.5 26t34.5 75q0 37 -25.5 59.5t-69.5 22.5q-43 0 -68 -21.5t-25 -59.5q0 -20 6 -34l-122 -27
q-10 30 -10 55q0 52 25.5 96.5t75.5 71.5t119 27q70 0 120 -22t76 -61t26 -89q0 -55 -27.5 -96.5t-72.5 -60.5q61 -21 98.5 -65t37.5 -111q0 -68 -30.5 -118.5t-86.5 -77.5t-130 -27q-81 0 -137.5 29z" />
    <glyph glyph-name="four" unicode="4" 
d="M347 116h-300v122l300 462h132v-462h71v-122h-71v-116h-132v116zM347 238v258l-166 -258h166z" />
    <glyph glyph-name="five" unicode="5" 
d="M162 14q-56 28 -86 74.5t-30 100.5q0 14 3 28.5t7 23.5l126 -27q-4 -14 -4 -26q0 -42 32.5 -66t83.5 -24q60 0 94.5 37t34.5 105q0 63 -35 99.5t-94 36.5q-45 0 -82.5 -22t-61.5 -61l-98 25l33 382h424v-122h-332l-17 -161q29 30 69 45.5t81 15.5q115 0 180 -64.5
t65 -173.5q0 -72 -32 -129.5t-91.5 -91t-138.5 -33.5q-75 0 -131 28z" />
    <glyph glyph-name="six" unicode="6" 
d="M164.5 24q-60.5 38 -93 111t-32.5 174q0 130 41 230q36 85 98.5 130t148.5 45q97 0 152.5 -46.5t55.5 -124.5q0 -31 -11 -56l-122 26q7 18 7 33q0 30 -24.5 48t-63.5 18q-69 0 -109 -64.5t-48 -162.5q31 35 72.5 54t91.5 19q69 0 122 -30t82.5 -83t29.5 -120t-32.5 -122
t-91 -86t-131.5 -31q-82 0 -142.5 38zM397.5 128.5q36.5 34.5 36.5 93.5q0 60 -36 94t-93 34q-56 0 -92 -34t-36 -94q0 -59 36 -93.5t92 -34.5t92.5 34.5z" />
    <glyph glyph-name="seven" unicode="7" 
d="M395 578h-325v122h459v-116l-245 -584h-132z" />
    <glyph glyph-name="eight" unicode="8" 
d="M172.5 12q-56.5 26 -87.5 73t-31 109t31.5 109.5t84.5 71.5q-44 25 -69.5 65.5t-25.5 89.5q0 53 28 95t79.5 65.5t118.5 23.5t118.5 -23.5t79.5 -65.5t28 -95q0 -49 -25.5 -89.5t-69.5 -65.5q53 -24 84.5 -71.5t31.5 -109.5t-31 -109t-87.5 -73t-128.5 -26t-128.5 26z
M372.5 450q28.5 26 28.5 71t-28.5 70t-71.5 25t-71.5 -25t-28.5 -70t28.5 -71t71.5 -26t71.5 26zM388 125q34 31 34 80t-34 80t-87 31t-87 -31t-34 -80t34 -80t87 -31t87 31z" />
    <glyph glyph-name="nine" unicode="9" 
d="M165 8q-49 22 -74.5 61t-25.5 88q0 31 11 56l122 -26q-7 -17 -7 -33q0 -30 24.5 -48t64.5 -18q70 0 109.5 63t47.5 164q-26 -34 -66.5 -53.5t-86.5 -19.5q-71 0 -126.5 30t-87 83t-31.5 120t32.5 122t91 86t131.5 31q127 0 197.5 -84.5t70.5 -238.5q0 -130 -41 -230
q-74 -175 -240 -175q-67 0 -116 22zM388 384q36 34 36 94q0 59 -36 93.5t-92 34.5t-92.5 -34.5t-36.5 -93.5q0 -60 36 -94t93 -34q56 0 92 34z" />
    <glyph glyph-name="colon" unicode=":" 
d="M223 496h156v-156h-156v156zM223 156h156v-156h-156v156z" />
    <glyph glyph-name="semicolon" unicode=";" 
d="M223 496h156v-156h-156v156zM216 -140l66 140h-59v156h156v-156l-128 -162z" />
    <glyph glyph-name="less" unicode="&#x3c;" 
d="M76 261v98l434 222v-124l-296 -147l296 -147v-125z" />
    <glyph glyph-name="equal" unicode="=" 
d="M59 503h484v-102h-484v102zM59 299h484v-102h-484v102z" />
    <glyph glyph-name="greater" unicode="&#x3e;" 
d="M92 163l296 147l-296 147v124l434 -222v-98l-434 -223v125z" />
    <glyph glyph-name="question" unicode="?" 
d="M218 224q0 46 18.5 79.5t67.5 72.5q51 41 71.5 71.5t20.5 67.5q0 39 -29 62t-75 23q-51 0 -83.5 -26.5t-32.5 -72.5q0 -19 7 -37l-115 -24q-14 30 -14 72q0 51 29 97.5t82.5 75.5t123.5 29q110 0 171.5 -52.5t61.5 -140.5q0 -58 -28 -102.5t-103 -109.5
q-27 -23 -37 -45.5t-10 -55.5h-126v16zM215 138h132v-138h-132v138z" />
    <glyph glyph-name="at" unicode="@" 
d="M99 -35.5q-82 106.5 -82 319.5q0 141 40 238t110 144.5t159 47.5q70 0 126 -25.5t88.5 -77t32.5 -126.5v-443h-94v51q-18 -29 -51.5 -47t-71.5 -18q-62 0 -108 32t-71 90t-25 134q0 75 26 133.5t72.5 90.5t105.5 32q42 0 74.5 -17t48.5 -44v20q0 58 -40.5 93.5
t-110.5 35.5q-54 0 -102.5 -31.5t-80.5 -108.5t-32 -204q0 -187 63 -262.5t161 -75.5q40 0 71.5 8t78.5 30l30 -80q-51 -24 -96 -35t-95 -11q-145 0 -227 106.5zM454 161.5q31 43.5 31 122.5t-31 122.5t-87 43.5t-87.5 -43.5t-31.5 -122.5t31.5 -122.5t87.5 -43.5t87 43.5z
" />
    <glyph glyph-name="A" unicode="A" 
d="M237 700h128l237 -700h-142l-57 183h-204l-57 -183h-142zM366 301l-46 147q-8 28 -19 77q-11 -49 -19 -77l-46 -147h130z" />
    <glyph glyph-name="B" unicode="B" 
d="M61 700h233q107 0 165.5 -45t58.5 -126q0 -51 -27 -90t-70 -64q59 -25 91.5 -65t32.5 -100q0 -66 -33 -113.5t-89.5 -72t-125.5 -24.5h-236v700zM290 428q53 0 76.5 20t23.5 58t-23.5 58t-76.5 20h-97v-156h97zM289 118q62 0 93 25.5t31 71.5t-31 71.5t-93 25.5h-96v-194
h96z" />
    <glyph glyph-name="C" unicode="C" 
d="M156.5 32.5q-66.5 46.5 -100 128.5t-33.5 189q0 105 37 188t106 129.5t160 46.5q99 0 161 -51t83 -140l-115 -55q-33 124 -138 124q-46 0 -82.5 -29t-57 -84t-20.5 -129q0 -115 42 -178.5t123 -63.5q51 0 86 37t52 101l116 -51q-29 -93 -91.5 -151t-165.5 -58
q-96 0 -162.5 46.5z" />
    <glyph glyph-name="D" unicode="D" 
d="M55 700h170q158 0 244 -93t86 -257t-86 -257t-244 -93h-170v700zM217 122q204 0 204 228t-204 228h-30v-456h30z" />
    <glyph glyph-name="E" unicode="E" 
d="M72 700h454v-118h-322v-161h294v-118h-294v-185h325v-118h-457v700z" />
    <glyph glyph-name="F" unicode="F" 
d="M71 700h473v-118h-341v-181h311v-118h-311v-283h-132v700z" />
    <glyph glyph-name="G" unicode="G" 
d="M97 85.5q-72 99.5 -72 264.5q0 107 35.5 189.5t101.5 128.5t156 46q103 0 165.5 -50t88.5 -133l-109 -58q-17 62 -54.5 93.5t-92.5 31.5q-76 0 -116.5 -66t-40.5 -182t37.5 -179t115.5 -63q57 0 89.5 43t39.5 115h-161v108h293v-374h-74l-22 118q-20 -60 -65 -96
t-107 -36q-136 0 -208 99.5z" />
    <glyph glyph-name="H" unicode="H" 
d="M47 700h132v-282h244v282h132v-700h-132v296h-244v-296h-132v700z" />
    <glyph glyph-name="I" unicode="I" 
d="M81 116h154v468h-148v116h428v-116h-148v-468h154v-116h-440v116z" />
    <glyph glyph-name="J" unicode="J" 
d="M128 54q-64 68 -64 183l135 -16q1 -55 29.5 -84t78.5 -29q48 0 75.5 28.5t27.5 79.5v484h132v-486q0 -66 -28.5 -118t-81.5 -81t-125 -29q-115 0 -179 68z" />
    <glyph glyph-name="K" unicode="K" 
d="M62 700h132v-255l37 42l188 213h165l-251 -272l253 -428h-151l-194 328l-47 -52v-276h-132v700z" />
    <glyph glyph-name="L" unicode="L" 
d="M77 700h132v-578h335v-122h-467v700z" />
    <glyph glyph-name="M" unicode="M" 
d="M23 700h140l138 -542l138 542h140v-700h-122v375q-14 -67 -26 -113l-71 -262h-118l-71 262q-12 46 -26 113v-375h-122v700z" />
    <glyph glyph-name="N" unicode="N" 
d="M57 700h134l202 -408q21 -42 30 -64v472h122v-700h-134l-202 408q-18 36 -30 64v-472h-122v700z" />
    <glyph glyph-name="O" unicode="O" 
d="M94.5 80q-73.5 94 -73.5 270t73.5 270t206.5 94t206.5 -94t73.5 -270t-73.5 -270t-206.5 -94t-206.5 94zM447 350q0 242 -146 242t-146 -242t146 -242t146 242z" />
    <glyph glyph-name="P" unicode="P" 
d="M47 700h244q121 0 191.5 -59.5t70.5 -168.5t-70.5 -168.5t-191.5 -59.5h-112v-244h-132v700zM295 362q126 0 126 110t-126 110h-116v-220h116z" />
    <glyph glyph-name="Q" unicode="Q" 
d="M363.5 -87q-35.5 45 -47.5 73h-15q-133 0 -206.5 94t-73.5 270t73.5 270t206.5 94t206.5 -94t73.5 -270q0 -123 -36.5 -206.5t-105.5 -123.5q22 -37 86 -98l-92 -87q-34 33 -69.5 78zM447 350q0 242 -146 242t-146 -242t146 -242t146 242z" />
    <glyph glyph-name="R" unicode="R" 
d="M57 700h252q115 0 182 -53.5t67 -144.5q0 -81 -38 -129t-110 -77l167 -296h-151l-159 284h-78v-284h-132v700zM316 400q110 0 110 92t-110 92h-127v-184h127z" />
    <glyph glyph-name="S" unicode="S" 
d="M130.5 47q-71.5 61 -96.5 163l116 59q17 -82 57 -124.5t115 -42.5q52 0 84.5 27t32.5 71q0 46 -36.5 71.5t-121.5 40.5q-98 17 -159.5 69t-61.5 136q0 57 30 102t84.5 70t124.5 25q102 0 170 -49.5t92 -129.5l-104 -63q-22 68 -60 97t-98 29q-47 0 -80 -17.5t-33 -55.5
q0 -40 40.5 -66t129.5 -43q113 -22 164 -73t51 -140q0 -58 -30 -108t-87 -79.5t-132 -29.5q-120 0 -191.5 61z" />
    <glyph glyph-name="T" unicode="T" 
d="M235 578h-188v122h508v-122h-188v-578h-132v578z" />
    <glyph glyph-name="U" unicode="U" 
d="M112.5 55.5q-68.5 69.5 -68.5 197.5v447h132v-452q0 -69 33.5 -104.5t91.5 -35.5t91.5 35.5t33.5 104.5v452h132v-447q0 -128 -68.5 -197.5t-188.5 -69.5t-188.5 69.5z" />
    <glyph glyph-name="V" unicode="V" 
d="M2 700h141l135 -437q11 -34 23 -81q13 47 23 81l135 437h141l-232 -700h-134z" />
    <glyph glyph-name="W" unicode="W" 
d="M1 700h128l36 -394l6 -69l10 70l59 393h122l59 -393l10 -70l6 69l36 394h128l-97 -700h-134l-69 474l-69 -474h-134z" />
    <glyph glyph-name="X" unicode="X" 
d="M228 376l-199 324h147l125 -221l125 221h147l-196 -319l219 -381h-145l-150 263l-149 -263h-146z" />
    <glyph glyph-name="Y" unicode="Y" 
d="M235 274l-219 426h145l118 -235q11 -23 22 -50q11 27 22 50l118 235h145l-219 -426v-274h-132v274z" />
    <glyph glyph-name="Z" unicode="Z" 
d="M35 120l343 458h-330v122h483v-122l-341 -456h358v-122h-513v120z" />
    <glyph glyph-name="bracketleft" unicode="[" 
d="M171 700h282v-118h-156v-614h156v-118h-282v850z" />
    <glyph glyph-name="backslash" unicode="\" 
d="M47 730h128l380 -760h-128z" />
    <glyph glyph-name="bracketright" unicode="]" 
d="M149 -32h156v614h-156v118h282v-850h-282v118z" />
    <glyph glyph-name="asciicircum" unicode="^" 
d="M244 700h114l197 -270h-128l-126 172l-126 -172h-128z" />
    <glyph glyph-name="underscore" unicode="_" 
d="M72 -7h458v-102h-458v102z" />
    <glyph glyph-name="grave" unicode="`" 
d="M181 708h159l73 -158h-103z" />
    <glyph glyph-name="a" unicode="a" 
d="M109 28.5q-48 42.5 -48 112.5q0 72 48.5 112t128.5 52l156 23v19q0 36 -24.5 55.5t-70.5 19.5q-42 0 -67 -16t-25 -40q0 -6 2 -12l-113 -38q-9 20 -9 42q0 39 25 74t73.5 56.5t113.5 21.5q106 0 163.5 -45.5t57.5 -134.5v-207q0 -42 7.5 -69t25.5 -54h-128
q-9 11 -16.5 31t-7.5 48q-55 -93 -169 -93q-75 0 -123 42.5zM355 126q39 38 39 106v9l-124 -20q-41 -7 -63.5 -25.5t-22.5 -47.5t21.5 -44.5t55.5 -15.5q55 0 94 38z" />
    <glyph glyph-name="b" unicode="b" 
d="M234 6.5q-39 20.5 -60 54.5v-61h-126v700h126v-265q63 75 157 75q67 0 119.5 -31.5t82 -90.5t29.5 -140q0 -80 -30.5 -139.5t-83.5 -91t-119 -31.5q-56 0 -95 20.5zM397 144q37 40 37 104t-37 104t-97 40t-97 -40t-37 -104t37 -104t97 -40t97 40z" />
    <glyph glyph-name="c" unicode="c" 
d="M185.5 19q-60.5 33 -95.5 92.5t-35 136.5t36 136.5t96.5 92.5t131.5 33q83 0 140.5 -34.5t92.5 -105.5l-107 -63q-39 85 -127 85q-57 0 -96 -40t-39 -104q0 -65 38.5 -104.5t96.5 -39.5q48 0 79 22t54 69l104 -62q-38 -71 -97 -109t-139 -38q-73 0 -133.5 33z" />
    <glyph glyph-name="d" unicode="d" 
d="M155 17.5q-53 31.5 -83 91t-30 139.5q0 81 30.5 140t83.5 90.5t120 31.5q50 0 86.5 -17t63.5 -52v259h126v-700h-126v61q-28 -37 -63 -56t-90 -19q-65 0 -118 31.5zM398 144q36 40 36 104t-36 104t-96 40t-96 -40t-36 -104t36 -104t96 -40t96 40z" />
    <glyph glyph-name="e" unicode="e" 
d="M175.5 19q-58.5 33 -93 93t-34.5 136q0 77 35 136.5t94.5 92.5t131.5 33q70 0 125 -31.5t86 -88t31 -128.5v-44h-382q6 -57 43 -90.5t93 -33.5q94 0 137 91l94 -54q-39 -76 -94.5 -110.5t-138.5 -34.5q-69 0 -127.5 33zM435 310q-9 49 -43 76.5t-87 27.5
q-49 0 -85.5 -29.5t-50.5 -74.5h266z" />
    <glyph glyph-name="f" unicode="f" 
d="M204 394h-131v102h131v48q0 69 27 115t71 68.5t96 22.5q40 0 69.5 -9.5t58.5 -26.5l-41 -111q-40 31 -78 31q-35 0 -56 -22t-21 -66v-50h184v-102h-184v-394h-126v394z" />
    <glyph glyph-name="g" unicode="g" 
d="M133.5 -175.5q-61.5 42.5 -61.5 119.5q0 17 4 33t10 26l122 -37q-6 -17 -6 -30q0 -24 27.5 -39t78.5 -15q57 0 89.5 34.5t32.5 101.5v64q-20 -33 -55.5 -53.5t-85.5 -20.5q-65 0 -120 32t-87 89.5t-32 129.5t33 129.5t88 89.5t119 32q46 0 81.5 -17.5t58.5 -50.5v54h126
v-462q0 -124 -67.5 -188t-184.5 -64q-109 0 -170.5 42.5zM398 156q39 38 39 103t-39 103t-95 38q-55 0 -93 -37.5t-38 -103.5t38 -103.5t93 -37.5q56 0 95 38z" />
    <glyph glyph-name="h" unicode="h" 
d="M64 700h126v-282q60 92 165 92q80 0 128.5 -46.5t48.5 -121.5v-342h-126v286q0 50 -25 78t-73 28q-52 0 -85 -39t-33 -101v-252h-126v700z" />
    <glyph glyph-name="i" unicode="i" 
d="M79 104h159v290h-134v102h260v-392h159v-104h-444v104zM232 700h138v-132h-138v132z" />
    <glyph glyph-name="j" unicode="j" 
d="M161.5 -193q-41.5 18 -64 49t-22.5 69q0 32 12 56l118 -39q-2 -6 -2 -12q0 -15 14.5 -23t38.5 -8q32 0 45.5 19.5t13.5 58.5v417h-151v102h277v-523q0 -90 -48 -137t-134 -47q-56 0 -97.5 18zM309 700h138v-132h-138v132z" />
    <glyph glyph-name="k" unicode="k" 
d="M78 700h126v-357l173 153h172l-211 -186l228 -310h-159l-166 224l-37 -32v-192h-126v700z" />
    <glyph glyph-name="l" unicode="l" 
d="M68 104h170v492h-150v104h276v-596h170v-104h-466v104z" />
    <glyph glyph-name="m" unicode="m" 
d="M20 496h123v-43q16 26 44.5 41.5t61.5 15.5q37 0 61.5 -16.5t36.5 -45.5q35 62 116 62q58 0 90 -36.5t32 -95.5v-378h-123v352q0 24 -12 36t-31 12q-55 0 -55 -73v-327h-123v352q0 23 -12.5 35.5t-35.5 12.5q-24 0 -37 -19t-13 -52v-329h-123v496z" />
    <glyph glyph-name="n" unicode="n" 
d="M78 496h126v-80q61 94 161 94q79 0 125 -47t46 -125v-338h-126v286q0 106 -95 106q-49 0 -80 -39t-31 -101v-252h-126v496z" />
    <glyph glyph-name="o" unicode="o" 
d="M170.5 16q-60.5 30 -97.5 89.5t-37 142.5t37 142.5t97.5 89.5t130.5 30t130.5 -30t97.5 -89.5t37 -142.5t-37 -142.5t-97.5 -89.5t-130.5 -30t-130.5 30zM400 141q38 37 38 107t-38 107t-99 37t-99 -37t-38 -107t38 -107t99 -37t99 37z" />
    <glyph glyph-name="p" unicode="p" 
d="M48 496h126v-61q26 32 67 53.5t96 21.5q65 0 116 -31.5t80 -90.5t29 -140q0 -80 -31 -139.5t-83.5 -91t-116.5 -31.5q-104 0 -157 69v-259h-126v700zM397 144q37 40 37 104t-37 104t-97 40t-97 -40t-37 -104t37 -104t97 -40t97 40z" />
    <glyph glyph-name="q" unicode="q" 
d="M430 55q-28 -34 -64.5 -51.5t-87.5 -17.5q-67 0 -120.5 31.5t-84.5 91t-31 139.5t32 139.5t86.5 91t120.5 31.5q104 0 149 -72v58h126v-700h-126v259zM401 144q37 40 37 104t-37 104t-97 40t-97 -40t-37 -104t37 -104t97 -40t97 40z" />
    <glyph glyph-name="r" unicode="r" 
d="M93 496h126v-68q24 38 63.5 60t88.5 22q82 0 121.5 -42.5t39.5 -105.5q0 -44 -17 -80l-112 41l1 14q0 28 -20.5 45.5t-52.5 17.5q-54 0 -83 -38.5t-29 -105.5v-256h-126v496z" />
    <glyph glyph-name="s" unicode="s" 
d="M152 29q-60 43 -88 108l101 64q17 -51 50 -80t91 -29q39 0 66.5 14.5t27.5 40.5q0 28 -29.5 42t-94.5 22q-83 11 -131.5 50.5t-48.5 99.5q0 71 54 110t140 39q83 0 135 -31.5t81 -97.5l-90 -50q-17 40 -50 63.5t-77 23.5q-34 0 -57.5 -13t-23.5 -38q0 -51 123 -65
q92 -10 138.5 -48.5t46.5 -102.5q0 -77 -58 -121t-154 -44q-92 0 -152 43z" />
    <glyph glyph-name="t" unicode="t" 
d="M233 35.5q-49 49.5 -49 143.5v215h-118v102h118v134h126v-134h161v-102h-161v-207q0 -51 20 -70t54 -19q39 0 74 33l48 -93q-58 -52 -143 -52q-81 0 -130 49.5z" />
    <glyph glyph-name="u" unicode="u" 
d="M120 33.5q-48 47.5 -48 124.5v338h126v-286q0 -106 95 -106q49 0 80 39t31 101v252h126v-496h-126v74q-28 -44 -65 -66t-92 -22q-79 0 -127 47.5z" />
    <glyph glyph-name="v" unicode="v" 
d="M19 496h134l148 -349l148 349h134l-221 -496h-122z" />
    <glyph glyph-name="w" unicode="w" 
d="M10 496h120l46 -322l66 322h118l66 -322l46 322h120l-99 -496h-126l-66 337l-66 -337h-126z" />
    <glyph glyph-name="x" unicode="x" 
d="M234 262l-167 234h147l87 -134l88 134h149l-162 -231l178 -265h-147l-106 164l-108 -164h-145z" />
    <glyph glyph-name="y" unicode="y" 
d="M116.5 -206.5q-19.5 4.5 -42.5 16.5l38 107q22 -12 47 -12q22 0 37 10.5t25 36.5l21 54l-214 490h140l137 -331l133 331h137l-248 -586q-27 -64 -66.5 -92.5t-97.5 -28.5q-27 0 -46.5 4.5z" />
    <glyph glyph-name="z" unicode="z" 
d="M83 102l276 292h-265v102h411v-102l-277 -292h294v-102h-439v102z" />
    <glyph glyph-name="braceleft" unicode="{" 
d="M239 -106q-45 44 -45 143v108q0 45 -18.5 62t-56.5 17h-28v102h28q38 0 56.5 17t18.5 62v108q0 99 45 143t134 44h83v-118h-60q-38 0 -57 -20.5t-19 -66.5v-107q0 -49 -16.5 -74t-51.5 -39q35 -14 51.5 -39t16.5 -74v-107q0 -46 19 -66.5t57 -20.5h60v-118h-83
q-89 0 -134 44z" />
    <glyph glyph-name="bar" unicode="|" 
d="M240 740h122v-850h-122v850z" />
    <glyph glyph-name="braceright" unicode="}" 
d="M146 -32h60q38 0 57 20.5t19 66.5v107q0 49 16.5 74t51.5 39q-35 14 -51.5 39t-16.5 74v107q0 46 -19 66.5t-57 20.5h-60v118h83q89 0 134 -44t45 -143v-108q0 -45 18.5 -62t56.5 -17h28v-102h-28q-38 0 -56.5 -17t-18.5 -62v-108q0 -99 -45 -143t-134 -44h-83v118z" />
    <glyph glyph-name="asciitilde" unicode="~" 
d="M106 306q0 48 30 76t76 28q39 0 64.5 -11t51.5 -31q3 -2 13 -8.5t17.5 -9.5t14.5 -3q11 0 19 6.5t8 18.5q0 11 -7 23l88 16q15 -22 15 -55q0 -47 -30 -74.5t-76 -27.5q-39 0 -63.5 10.5t-51.5 30.5q-16 12 -25.5 17t-20.5 5t-19 -6.5t-8 -18.5q0 -11 7 -23l-88 -16
q-15 23 -15 53z" />
    <glyph glyph-name="uni00A0" unicode="&#xa0;" 
 />
    <glyph glyph-name="exclamdown" unicode="&#xa1;" 
d="M235 496h132v-138h-132v138zM235 39l16 249h100l16 -249v-243h-132v243z" />
    <glyph glyph-name="cent" unicode="&#xa2;" 
d="M268 -9q-61 10 -109.5 44.5t-76 89.5t-27.5 123q0 67 28 121.5t76.5 89.5t108.5 46v115h100v-114q125 -18 184 -136l-107 -63q-28 60 -77 77v-272q26 10 46 30t37 53l104 -62q-66 -123 -187 -143v-100h-100v101zM268 383q-39 -15 -62 -50.5t-23 -84.5q0 -50 23 -85
t62 -50v270z" />
    <glyph glyph-name="sterling" unicode="&#xa3;" 
d="M70 94q29 33 43 67.5t14 81.5q0 34 -6 56h-88v98h63q-8 34 -12 57t-4 47q0 65 31 113.5t84.5 74t120.5 25.5q74 0 124.5 -24.5t75 -66t24.5 -92.5q0 -20 -3.5 -36t-11.5 -35l-116 20q9 24 9 48q0 35 -26.5 57.5t-75.5 22.5t-79.5 -28t-30.5 -81q0 -45 16 -102h189v-98
h-168q3 -24 3 -51q0 -45 -8.5 -74.5t-27.5 -63.5h325v-110h-465v94z" />
    <glyph glyph-name="currency" unicode="&#xa4;" 
d="M33 154l78 77q-32 53 -32 119t32 119l-78 77l72 72l78 -78q54 33 118 33t118 -33l78 78l72 -72l-78 -77q32 -53 32 -119t-32 -119l78 -77l-72 -72l-78 78q-54 -33 -118 -33t-118 33l-78 -78zM387.5 259q33.5 35 33.5 91t-33.5 91t-86.5 35t-86.5 -35t-33.5 -91t33.5 -91
t86.5 -35t86.5 35z" />
    <glyph glyph-name="yen" unicode="&#xa5;" 
d="M235 112h-150v102h150v60h-150v102h97l-166 324h142l119 -245q11 -23 24 -64q13 41 24 64l119 245h142l-166 -324h97v-102h-150v-60h150v-102h-150v-112h-132v112z" />
    <glyph glyph-name="brokenbar" unicode="&#xa6;" 
d="M240 740h122v-354h-122v354zM240 244h122v-354h-122v354z" />
    <glyph glyph-name="section" unicode="&#xa7;" 
d="M171 -57.5q-54 35.5 -91 105.5l85 62q22 -53 58 -80t84 -27q40 0 65.5 19t25.5 52q0 70 -136 98q-79 16 -123 58t-44 105q0 57 46 98q-42 42 -42 110q0 52 26.5 91t71.5 59.5t100 20.5q81 0 133.5 -35.5t86.5 -103.5l-85 -62q-22 53 -55 79t-81 26q-40 0 -65.5 -19
t-25.5 -52t31.5 -57.5t104.5 -40.5q88 -19 127.5 -54.5t39.5 -99.5q0 -63 -45 -105q41 -42 41 -112q0 -52 -26.5 -91t-71.5 -59.5t-100 -20.5q-81 0 -135 35.5zM408 277q0 29 -29 50t-98 38q-36 9 -66 21q-20 -18 -20 -42q0 -29 29 -50t98 -38q38 -9 66 -21q20 18 20 42z
" />
    <glyph glyph-name="dieresis" unicode="&#xa8;" 
d="M148 700h122v-126h-122v126zM332 700h122v-126h-122v126z" />
    <glyph glyph-name="copyright" unicode="&#xa9;" 
d="M160.5 108q-64.5 38 -102.5 102.5t-38 140.5t38 140.5t102.5 102.5t140.5 38t140.5 -38t102.5 -102.5t38 -140.5t-38 -140.5t-102.5 -102.5t-140.5 -38t-140.5 38zM414 154.5q52 30.5 82.5 82.5t30.5 114t-30.5 114t-82.5 82.5t-113 30.5t-113 -30.5t-82.5 -82.5
t-30.5 -114t30.5 -114t82.5 -82.5t113 -30.5t113 30.5zM219 199q-38 22 -59.5 61.5t-21.5 90.5q0 49 22.5 89t61 62.5t84.5 22.5q55 0 92 -25.5t55 -70.5l-42 -25q-14 36 -42 55t-62 19q-51 0 -84 -35t-33 -92q0 -58 32.5 -93t84.5 -35q39 0 64.5 19t44.5 58l38 -24
q-20 -46 -57.5 -72.5t-90.5 -26.5q-49 0 -87 22z" />
    <glyph glyph-name="ordfeminine" unicode="&#xaa;" 
d="M151 323q-33 30 -33 78q0 51 37.5 79t98.5 38l92 15v9q0 25 -16 38.5t-48 13.5q-30 0 -47.5 -10.5t-17.5 -26.5q0 -5 1 -9l-80 -29q-6 14 -6 29q0 28 17.5 53t51.5 40.5t81 15.5q77 0 114 -31t37 -94v-144q0 -56 22 -88h-90q-6 7 -10.5 21t-4.5 34q-19 -30 -48.5 -46
t-66.5 -16q-51 0 -84 30zM321.5 391q24.5 26 24.5 70v9l-84 -13q-27 -4 -42.5 -16.5t-15.5 -32.5t14.5 -31.5t38.5 -11.5q40 0 64.5 26z" />
    <glyph glyph-name="guillemotleft" unicode="&#xab;" 
d="M36 275l175 214h142l-175 -214l175 -212h-142zM236 275l175 214h142l-175 -214l175 -212h-142z" />
    <glyph glyph-name="logicalnot" unicode="&#xac;" 
d="M393 314h-320v102h438v-242h-118v140z" />
    <glyph glyph-name="uni00AD" unicode="&#xad;" 
d="M104 362h394v-102h-394v102z" />
    <glyph glyph-name="registered" unicode="&#xae;" 
d="M160.5 108q-64.5 38 -102.5 102.5t-38 140.5t38 140.5t102.5 102.5t140.5 38t140.5 -38t102.5 -102.5t38 -140.5t-38 -140.5t-102.5 -102.5t-140.5 -38t-140.5 38zM414 154.5q52 30.5 82.5 82.5t30.5 114t-30.5 114t-82.5 82.5t-113 30.5t-113 -30.5t-82.5 -82.5
t-30.5 -114t30.5 -114t82.5 -82.5t113 -30.5t113 30.5zM188 520h138q51 0 79.5 -26.5t28.5 -69.5q0 -36 -23 -60.5t-59 -32.5l84 -149h-59l-83 147h-54v-147h-52v338zM318 374q65 0 65 50q0 49 -65 49h-78v-99h78z" />
    <glyph glyph-name="macron" unicode="&#xaf;" 
d="M177 682h248v-94h-248v94z" />
    <glyph glyph-name="degree" unicode="&#xb0;" 
d="M230 454.5q-32 18.5 -50.5 50.5t-18.5 70t18.5 70t50.5 50.5t71 18.5t71 -18.5t50.5 -50.5t18.5 -70t-18.5 -70t-50.5 -50.5t-71 -18.5t-71 18.5zM344.5 531q16.5 17 16.5 44t-16.5 44t-43.5 17t-43.5 -17t-16.5 -44t16.5 -44t43.5 -17t43.5 17z" />
    <glyph glyph-name="plusminus" unicode="&#xb1;" 
d="M250 334h-191v102h191v191h102v-191h191v-102h-191v-191h-102v191zM59 102h484v-102h-484v102z" />
    <glyph glyph-name="uni00B2" unicode="&#xb2;" 
d="M157 483l132 127q18 18 26.5 33.5t8.5 31.5q0 20 -11.5 30.5t-31.5 10.5t-33.5 -11t-13.5 -31q0 -10 4 -24l-76 -11q-7 17 -7 40q0 27 15.5 52t44.5 40.5t66 15.5q58 0 91.5 -27.5t33.5 -75.5q0 -36 -13.5 -63t-47.5 -59l-65 -63h129v-69h-252v53z" />
    <glyph glyph-name="uni00B3" unicode="&#xb3;" 
d="M200.5 452.5q-35.5 29.5 -35.5 75.5q0 22 7 36l79 -17q-2 -6 -2 -15q0 -20 14 -30t34 -10q22 0 36.5 11.5t14.5 32.5q0 27 -21 38t-61 11v60q32 0 50.5 11t18.5 30q0 35 -41 35q-18 0 -31 -8.5t-13 -24.5q0 -11 3 -17l-73 -10q-5 12 -5 27q0 40 32 69.5t87 29.5
q59 0 89.5 -23.5t30.5 -63.5q0 -24 -11 -41.5t-34 -33.5q28 -11 45.5 -34t17.5 -57q0 -51 -37.5 -81t-99.5 -30q-59 0 -94.5 29.5z" />
    <glyph glyph-name="acute" unicode="&#xb4;" 
d="M262 708h159l-129 -158h-103z" />
    <glyph glyph-name="uni00B5" unicode="&#xb5;" 
d="M75 496h126v-286q0 -106 95 -106q49 0 80 39t31 101v252h126v-496h-126v74q-28 -44 -65 -66t-92 -22q-29 0 -53 6q4 -44 4 -63v-133h-126v700z" />
    <glyph glyph-name="paragraph" unicode="&#xb6;" 
d="M236 332h-9q-58 0 -104.5 22.5t-73.5 64.5t-27 97t27 97t73.5 64.5t104.5 22.5h336v-102h-51v-718h-112v718h-52v-718h-112v452z" />
    <glyph glyph-name="periodcentered" unicode="&#xb7;" 
d="M223 428h156v-156h-156v156z" />
    <glyph glyph-name="cedilla" unicode="&#xb8;" 
d="M235.5 -188q-24.5 16 -31.5 45l66 17q4 -22 28 -22q11 0 18 6.5t7 18.5q0 14 -7.5 21.5t-20.5 7.5q-14 0 -24 -4.5t-21 -13.5l-37 33l33 95h70l-41 -69q17 9 40 9q35 0 56.5 -22t21.5 -56q0 -38 -27.5 -60t-67.5 -22q-38 0 -62.5 16z" />
    <glyph glyph-name="uni00B9" unicode="&#xb9;" 
d="M187 502h94v182q-17 -14 -36 -19t-48 -5v77q34 0 54.5 10t33.5 33h80v-278h94v-72h-272v72z" />
    <glyph glyph-name="ordmasculine" unicode="&#xba;" 
d="M208 314q-44 21 -71.5 62t-27.5 99t27.5 99t71.5 62t93 21t93 -21t71.5 -62t27.5 -99t-27.5 -99t-71.5 -62t-93 -21t-93 21zM370 406.5q28 26.5 28 68.5q0 43 -28 69t-69 26t-69.5 -26t-28.5 -69t28.5 -69t69.5 -26t69 26.5z" />
    <glyph glyph-name="guillemotright" unicode="&#xbb;" 
d="M224 275l-175 214h142l175 -214l-175 -212h-142zM424 275l-175 214h142l175 -214l-175 -212h-142z" />
    <glyph glyph-name="onequarter" unicode="&#xbc;" 
d="M103 604q-17 -14 -33 -19t-43 -5v77q33 0 50 9.5t30 33.5h80v-350h-84v254zM95 172l377 410l50 -49l-377 -410zM426 58h-176v66l176 226h84v-226h48v-66h-48v-58h-84v58zM426 124v116l-94 -116h94z" />
    <glyph glyph-name="onehalf" unicode="&#xbd;" 
d="M103 604q-17 -14 -33 -19t-43 -5v77q33 0 50 9.5t30 33.5h80v-350h-84v254zM75 172l377 410l50 -49l-377 -410zM337 53l132 127q18 18 26.5 33.5t8.5 31.5q0 20 -11.5 30.5t-31.5 10.5t-33.5 -11t-13.5 -31q0 -10 4 -24l-76 -11q-7 17 -7 40q0 27 15.5 52t44.5 40.5
t66 15.5q58 0 91.5 -27.5t33.5 -75.5q0 -36 -13.5 -63t-47.5 -59l-65 -63h129v-69h-252v53z" />
    <glyph glyph-name="threequarters" unicode="&#xbe;" 
d="M64.5 372.5q-35.5 29.5 -35.5 75.5q0 22 7 36l79 -17q-2 -6 -2 -15q0 -20 14 -30t34 -10q22 0 36.5 11.5t14.5 32.5q0 27 -21 38t-61 11v60q32 0 50.5 11t18.5 30q0 35 -41 35q-18 0 -31 -8.5t-13 -24.5q0 -11 3 -17l-73 -10q-5 12 -5 27q0 40 32 69.5t87 29.5
q59 0 89.5 -23.5t30.5 -63.5q0 -24 -11 -41.5t-34 -33.5q28 -11 45.5 -34t17.5 -57q0 -51 -37.5 -81t-99.5 -30q-59 0 -94.5 29.5zM129 172l377 410l50 -49l-377 -410zM446 58h-176v66l176 226h84v-226h48v-66h-48v-58h-84v58zM446 124v116l-94 -116h94z" />
    <glyph glyph-name="questiondown" unicode="&#xbf;" 
d="M387 358h-132v138h132v-138zM384 272q0 -46 -18.5 -79.5t-67.5 -72.5q-51 -41 -71.5 -71.5t-20.5 -67.5q0 -39 29 -62t75 -23q51 0 83.5 26.5t32.5 72.5q0 20 -7 37l115 24q14 -30 14 -72q0 -51 -29 -97.5t-82.5 -75.5t-123.5 -29q-110 0 -171.5 52.5t-61.5 140.5
q0 58 28 102.5t103 109.5q27 23 37 45.5t10 55.5h126v-16z" />
    <glyph glyph-name="Agrave" unicode="&#xc0;" 
d="M237 700h128l237 -700h-142l-57 183h-204l-57 -183h-142zM366 301l-46 147q-8 28 -19 77q-11 -49 -19 -77l-46 -147h130zM133 912h159l73 -158h-103z" />
    <glyph glyph-name="Aacute" unicode="&#xc1;" 
d="M237 700h128l237 -700h-142l-57 183h-204l-57 -183h-142zM366 301l-46 147q-8 28 -19 77q-11 -49 -19 -77l-46 -147h130zM310 912h159l-129 -158h-103z" />
    <glyph glyph-name="Acircumflex" unicode="&#xc2;" 
d="M237 700h128l237 -700h-142l-57 183h-204l-57 -183h-142zM366 301l-46 147q-8 28 -19 77q-11 -49 -19 -77l-46 -147h130zM256 911h90l117 -157h-99l-63 60l-63 -60h-99z" />
    <glyph glyph-name="Atilde" unicode="&#xc3;" 
d="M237 700h128l237 -700h-142l-57 183h-204l-57 -183h-142zM366 301l-46 147q-8 28 -19 77q-11 -49 -19 -77l-46 -147h130zM319 765q-21 11 -41 31q-13 12 -22.5 18t-21.5 6q-10 0 -17.5 -6t-7.5 -16q0 -12 7 -26l-74 -15q-6 9 -10 24t-4 29q0 45 29.5 68t68.5 23
q36 0 57 -11t41 -31q13 -12 22.5 -18t21.5 -6q10 0 17.5 6t7.5 16q0 12 -7 26l74 15q6 -9 10 -24t4 -29q0 -45 -29.5 -68t-68.5 -23q-36 0 -57 11z" />
    <glyph glyph-name="Adieresis" unicode="&#xc4;" 
d="M237 700h128l237 -700h-142l-57 183h-204l-57 -183h-142zM366 301l-46 147q-8 28 -19 77q-11 -49 -19 -77l-46 -147h130zM148 904h122v-126h-122v126zM332 904h122v-126h-122v126z" />
    <glyph glyph-name="Aring" unicode="&#xc5;" 
d="M237 700h128l237 -700h-142l-57 183h-204l-57 -183h-142zM366 301l-46 147q-8 28 -19 77q-11 -49 -19 -77l-46 -147h130zM233 771.5q-28 27.5 -28 67.5t28 67.5t68 27.5t68 -27.5t28 -67.5t-28 -67.5t-68 -27.5t-68 27.5zM325 814q9 9 9 25t-9 25t-24 9t-24 -9t-9 -25
t9 -25t24 -9t24 9z" />
    <glyph glyph-name="AE" unicode="&#xc6;" 
d="M164 700h420v-118h-212v-161h184v-118h-184v-185h215v-118h-335v183h-91l-39 -183h-122zM252 301v281h-9q-9 -64 -17 -100l-39 -181h65z" />
    <glyph glyph-name="Ccedilla" unicode="&#xc7;" 
d="M488.5 47q-59.5 -57 -156.5 -61l-23 -39q17 9 40 9q35 0 56.5 -22t21.5 -56q0 -38 -27.5 -60t-67.5 -22q-38 0 -62.5 16t-31.5 45l66 17q4 -22 28 -22q11 0 18 6.5t7 18.5q0 14 -7.5 21.5t-20.5 7.5q-14 0 -24 -4.5t-21 -13.5l-37 33l24 68q-120 18 -184 115t-64 246
q0 105 37 188t106 129.5t160 46.5q99 0 161 -51t83 -140l-115 -55q-33 124 -138 124q-46 0 -82.5 -29t-57 -84t-20.5 -129q0 -115 42 -178.5t123 -63.5q51 0 86 37t52 101l116 -51q-28 -91 -87.5 -148z" />
    <glyph glyph-name="Egrave" unicode="&#xc8;" 
d="M72 700h454v-118h-322v-161h294v-118h-294v-185h325v-118h-457v700zM133 912h159l73 -158h-103z" />
    <glyph glyph-name="Eacute" unicode="&#xc9;" 
d="M72 700h454v-118h-322v-161h294v-118h-294v-185h325v-118h-457v700zM310 912h159l-129 -158h-103z" />
    <glyph glyph-name="Ecircumflex" unicode="&#xca;" 
d="M72 700h454v-118h-322v-161h294v-118h-294v-185h325v-118h-457v700zM256 911h90l117 -157h-99l-63 60l-63 -60h-99z" />
    <glyph glyph-name="Edieresis" unicode="&#xcb;" 
d="M72 700h454v-118h-322v-161h294v-118h-294v-185h325v-118h-457v700zM148 904h122v-126h-122v126zM332 904h122v-126h-122v126z" />
    <glyph glyph-name="Igrave" unicode="&#xcc;" 
d="M81 116h154v468h-148v116h428v-116h-148v-468h154v-116h-440v116zM133 912h159l73 -158h-103z" />
    <glyph glyph-name="Iacute" unicode="&#xcd;" 
d="M81 116h154v468h-148v116h428v-116h-148v-468h154v-116h-440v116zM310 912h159l-129 -158h-103z" />
    <glyph glyph-name="Icircumflex" unicode="&#xce;" 
d="M81 116h154v468h-148v116h428v-116h-148v-468h154v-116h-440v116zM256 911h90l117 -157h-99l-63 60l-63 -60h-99z" />
    <glyph glyph-name="Idieresis" unicode="&#xcf;" 
d="M81 116h154v468h-148v116h428v-116h-148v-468h154v-116h-440v116zM148 904h122v-126h-122v126zM332 904h122v-126h-122v126z" />
    <glyph glyph-name="Eth" unicode="&#xd0;" 
d="M68 295h-53v110h53v295h170q158 0 244 -93t86 -257t-86 -257t-244 -93h-170v295zM230 122q204 0 204 228t-204 228h-30v-173h107v-110h-107v-173h30z" />
    <glyph glyph-name="Ntilde" unicode="&#xd1;" 
d="M57 700h134l202 -408q21 -42 30 -64v472h122v-700h-134l-202 408q-18 36 -30 64v-472h-122v700zM319 765q-21 11 -41 31q-13 12 -22.5 18t-21.5 6q-10 0 -17.5 -6t-7.5 -16q0 -12 7 -26l-74 -15q-6 9 -10 24t-4 29q0 45 29.5 68t68.5 23q36 0 57 -11t41 -31
q13 -12 22.5 -18t21.5 -6q10 0 17.5 6t7.5 16q0 12 -7 26l74 15q6 -9 10 -24t4 -29q0 -45 -29.5 -68t-68.5 -23q-36 0 -57 11z" />
    <glyph glyph-name="Ograve" unicode="&#xd2;" 
d="M94.5 80q-73.5 94 -73.5 270t73.5 270t206.5 94t206.5 -94t73.5 -270t-73.5 -270t-206.5 -94t-206.5 94zM447 350q0 242 -146 242t-146 -242t146 -242t146 242zM133 912h159l73 -158h-103z" />
    <glyph glyph-name="Oacute" unicode="&#xd3;" 
d="M94.5 80q-73.5 94 -73.5 270t73.5 270t206.5 94t206.5 -94t73.5 -270t-73.5 -270t-206.5 -94t-206.5 94zM447 350q0 242 -146 242t-146 -242t146 -242t146 242zM310 912h159l-129 -158h-103z" />
    <glyph glyph-name="Ocircumflex" unicode="&#xd4;" 
d="M94.5 80q-73.5 94 -73.5 270t73.5 270t206.5 94t206.5 -94t73.5 -270t-73.5 -270t-206.5 -94t-206.5 94zM447 350q0 242 -146 242t-146 -242t146 -242t146 242zM256 911h90l117 -157h-99l-63 60l-63 -60h-99z" />
    <glyph glyph-name="Otilde" unicode="&#xd5;" 
d="M94.5 80q-73.5 94 -73.5 270t73.5 270t206.5 94t206.5 -94t73.5 -270t-73.5 -270t-206.5 -94t-206.5 94zM447 350q0 242 -146 242t-146 -242t146 -242t146 242zM319 765q-21 11 -41 31q-13 12 -22.5 18t-21.5 6q-10 0 -17.5 -6t-7.5 -16q0 -12 7 -26l-74 -15q-6 9 -10 24
t-4 29q0 45 29.5 68t68.5 23q36 0 57 -11t41 -31q13 -12 22.5 -18t21.5 -6q10 0 17.5 6t7.5 16q0 12 -7 26l74 15q6 -9 10 -24t4 -29q0 -45 -29.5 -68t-68.5 -23q-36 0 -57 11z" />
    <glyph glyph-name="Odieresis" unicode="&#xd6;" 
d="M94.5 80q-73.5 94 -73.5 270t73.5 270t206.5 94t206.5 -94t73.5 -270t-73.5 -270t-206.5 -94t-206.5 94zM447 350q0 242 -146 242t-146 -242t146 -242t146 242zM148 904h122v-126h-122v126zM332 904h122v-126h-122v126z" />
    <glyph glyph-name="multiply" unicode="&#xd7;" 
d="M94 230l135 135l-135 135l72 72l135 -135l135 135l72 -72l-135 -135l135 -135l-72 -72l-135 135l-135 -135z" />
    <glyph glyph-name="Oslash" unicode="&#xd8;" 
d="M65 0l37 71q-81 95 -81 279q0 176 73.5 270t206.5 94q71 0 125 -27l31 58l80 -45l-37 -71q81 -95 81 -279q0 -176 -73.5 -270t-206.5 -94q-71 0 -125 27l-31 -58zM368 575q-29 17 -67 17q-146 0 -146 -242q0 -87 19 -143zM447 350q0 87 -19 143l-194 -368q29 -17 67 -17
q146 0 146 242z" />
    <glyph glyph-name="Ugrave" unicode="&#xd9;" 
d="M112.5 55.5q-68.5 69.5 -68.5 197.5v447h132v-452q0 -69 33.5 -104.5t91.5 -35.5t91.5 35.5t33.5 104.5v452h132v-447q0 -128 -68.5 -197.5t-188.5 -69.5t-188.5 69.5zM133 912h159l73 -158h-103z" />
    <glyph glyph-name="Uacute" unicode="&#xda;" 
d="M112.5 55.5q-68.5 69.5 -68.5 197.5v447h132v-452q0 -69 33.5 -104.5t91.5 -35.5t91.5 35.5t33.5 104.5v452h132v-447q0 -128 -68.5 -197.5t-188.5 -69.5t-188.5 69.5zM310 912h159l-129 -158h-103z" />
    <glyph glyph-name="Ucircumflex" unicode="&#xdb;" 
d="M112.5 55.5q-68.5 69.5 -68.5 197.5v447h132v-452q0 -69 33.5 -104.5t91.5 -35.5t91.5 35.5t33.5 104.5v452h132v-447q0 -128 -68.5 -197.5t-188.5 -69.5t-188.5 69.5zM256 911h90l117 -157h-99l-63 60l-63 -60h-99z" />
    <glyph glyph-name="Udieresis" unicode="&#xdc;" 
d="M112.5 55.5q-68.5 69.5 -68.5 197.5v447h132v-452q0 -69 33.5 -104.5t91.5 -35.5t91.5 35.5t33.5 104.5v452h132v-447q0 -128 -68.5 -197.5t-188.5 -69.5t-188.5 69.5zM148 904h122v-126h-122v126zM332 904h122v-126h-122v126z" />
    <glyph glyph-name="Yacute" unicode="&#xdd;" 
d="M235 274l-219 426h145l118 -235q11 -23 22 -50q11 27 22 50l118 235h145l-219 -426v-274h-132v274zM310 912h159l-129 -158h-103z" />
    <glyph glyph-name="Thorn" unicode="&#xde;" 
d="M47 700h132v-122h112q121 0 191.5 -59.5t70.5 -168.5t-70.5 -168.5t-191.5 -59.5h-112v-122h-132v700zM295 240q126 0 126 110t-126 110h-116v-220h116z" />
    <glyph glyph-name="germandbls" unicode="&#xdf;" 
d="M281 -3q-33 11 -63 34l55 98q33 -33 77 -33q34 0 58 24t24 70q0 71 -42.5 103.5t-115.5 32.5h-31v110h35q47 0 76 24.5t29 67.5q0 34 -25 55t-63 21q-40 0 -67.5 -27.5t-27.5 -79.5v-497h-126v394h-56v102h56v7q0 68 31 115.5t82 71.5t111 24q63 0 110.5 -21t72.5 -59
t25 -86q0 -55 -26.5 -94t-74.5 -62q67 -17 110 -70.5t43 -133.5q0 -58 -26 -104t-70.5 -72t-98.5 -26q-49 0 -82 11z" />
    <glyph glyph-name="agrave" unicode="&#xe0;" 
d="M109 28.5q-48 42.5 -48 112.5q0 72 48.5 112t128.5 52l156 23v19q0 36 -24.5 55.5t-70.5 19.5q-42 0 -67 -16t-25 -40q0 -6 2 -12l-113 -38q-9 20 -9 42q0 39 25 74t73.5 56.5t113.5 21.5q106 0 163.5 -45.5t57.5 -134.5v-207q0 -42 7.5 -69t25.5 -54h-128
q-9 11 -16.5 31t-7.5 48q-55 -93 -169 -93q-75 0 -123 42.5zM355 126q39 38 39 106v9l-124 -20q-41 -7 -63.5 -25.5t-22.5 -47.5t21.5 -44.5t55.5 -15.5q55 0 94 38zM132 708h159l73 -158h-103z" />
    <glyph glyph-name="aacute" unicode="&#xe1;" 
d="M109 28.5q-48 42.5 -48 112.5q0 72 48.5 112t128.5 52l156 23v19q0 36 -24.5 55.5t-70.5 19.5q-42 0 -67 -16t-25 -40q0 -6 2 -12l-113 -38q-9 20 -9 42q0 39 25 74t73.5 56.5t113.5 21.5q106 0 163.5 -45.5t57.5 -134.5v-207q0 -42 7.5 -69t25.5 -54h-128
q-9 11 -16.5 31t-7.5 48q-55 -93 -169 -93q-75 0 -123 42.5zM355 126q39 38 39 106v9l-124 -20q-41 -7 -63.5 -25.5t-22.5 -47.5t21.5 -44.5t55.5 -15.5q55 0 94 38zM309 708h159l-129 -158h-103z" />
    <glyph glyph-name="acircumflex" unicode="&#xe2;" 
d="M109 28.5q-48 42.5 -48 112.5q0 72 48.5 112t128.5 52l156 23v19q0 36 -24.5 55.5t-70.5 19.5q-42 0 -67 -16t-25 -40q0 -6 2 -12l-113 -38q-9 20 -9 42q0 39 25 74t73.5 56.5t113.5 21.5q106 0 163.5 -45.5t57.5 -134.5v-207q0 -42 7.5 -69t25.5 -54h-128
q-9 11 -16.5 31t-7.5 48q-55 -93 -169 -93q-75 0 -123 42.5zM355 126q39 38 39 106v9l-124 -20q-41 -7 -63.5 -25.5t-22.5 -47.5t21.5 -44.5t55.5 -15.5q55 0 94 38zM255 707h90l117 -157h-99l-63 60l-63 -60h-99z" />
    <glyph glyph-name="atilde" unicode="&#xe3;" 
d="M109 28.5q-48 42.5 -48 112.5q0 72 48.5 112t128.5 52l156 23v19q0 36 -24.5 55.5t-70.5 19.5q-42 0 -67 -16t-25 -40q0 -6 2 -12l-113 -38q-9 20 -9 42q0 39 25 74t73.5 56.5t113.5 21.5q106 0 163.5 -45.5t57.5 -134.5v-207q0 -42 7.5 -69t25.5 -54h-128
q-9 11 -16.5 31t-7.5 48q-55 -93 -169 -93q-75 0 -123 42.5zM355 126q39 38 39 106v9l-124 -20q-41 -7 -63.5 -25.5t-22.5 -47.5t21.5 -44.5t55.5 -15.5q55 0 94 38zM318 561q-21 11 -41 31q-13 12 -22.5 18t-21.5 6q-10 0 -17.5 -6t-7.5 -16q0 -12 7 -26l-74 -15
q-6 9 -10 24t-4 29q0 45 29.5 68t68.5 23q36 0 57 -11t41 -31q13 -12 22.5 -18t21.5 -6q10 0 17.5 6t7.5 16q0 12 -7 26l74 15q6 -9 10 -24t4 -29q0 -45 -29.5 -68t-68.5 -23q-36 0 -57 11z" />
    <glyph glyph-name="adieresis" unicode="&#xe4;" 
d="M109 28.5q-48 42.5 -48 112.5q0 72 48.5 112t128.5 52l156 23v19q0 36 -24.5 55.5t-70.5 19.5q-42 0 -67 -16t-25 -40q0 -6 2 -12l-113 -38q-9 20 -9 42q0 39 25 74t73.5 56.5t113.5 21.5q106 0 163.5 -45.5t57.5 -134.5v-207q0 -42 7.5 -69t25.5 -54h-128
q-9 11 -16.5 31t-7.5 48q-55 -93 -169 -93q-75 0 -123 42.5zM355 126q39 38 39 106v9l-124 -20q-41 -7 -63.5 -25.5t-22.5 -47.5t21.5 -44.5t55.5 -15.5q55 0 94 38zM147 700h122v-126h-122v126zM331 700h122v-126h-122v126z" />
    <glyph glyph-name="aring" unicode="&#xe5;" 
d="M109 28.5q-48 42.5 -48 112.5q0 72 48.5 112t128.5 52l156 23v19q0 36 -24.5 55.5t-70.5 19.5q-42 0 -67 -16t-25 -40q0 -6 2 -12l-113 -38q-9 20 -9 42q0 39 25 74t73.5 56.5t113.5 21.5q106 0 163.5 -45.5t57.5 -134.5v-207q0 -42 7.5 -69t25.5 -54h-128
q-9 11 -16.5 31t-7.5 48q-55 -93 -169 -93q-75 0 -123 42.5zM355 126q39 38 39 106v9l-124 -20q-41 -7 -63.5 -25.5t-22.5 -47.5t21.5 -44.5t55.5 -15.5q55 0 94 38zM232 567.5q-28 27.5 -28 67.5t28 67.5t68 27.5t68 -27.5t28 -67.5t-28 -67.5t-68 -27.5t-68 27.5zM324 610
q9 9 9 25t-9 25t-24 9t-24 -9t-9 -25t9 -25t24 -9t24 9z" />
    <glyph glyph-name="ae" unicode="&#xe6;" 
d="M41 28q-40 42 -40 113q0 74 54 118t145 49l32 2v40q0 35 -12.5 53.5t-42.5 18.5q-27 0 -40.5 -15t-13.5 -36q0 -6 2 -14l-103 -36q-8 16 -8 42q0 39 18.5 72.5t54 54t83.5 20.5q94 0 134 -61q17 26 48 43.5t71 17.5q86 0 127.5 -65t41.5 -173v-54h-246q0 -54 14 -88
t53 -34q32 0 47.5 19.5t25.5 66.5l99 -32q-21 -79 -59 -121.5t-115 -42.5q-48 0 -80 24t-48 61q-23 -41 -53.5 -63t-77.5 -22q-71 0 -111 42zM473 310q0 47 -13 72.5t-47 25.5q-30 0 -48 -27t-19 -71h127zM216.5 122.5q15.5 34.5 15.5 95.5q-63 0 -91.5 -23t-28.5 -57
q0 -24 14.5 -37t34.5 -13q40 0 55.5 34.5z" />
    <glyph glyph-name="ccedilla" unicode="&#xe7;" 
d="M463 27.5q-56 -37.5 -131 -41.5l-23 -39q17 9 40 9q35 0 56.5 -22t21.5 -56q0 -38 -27.5 -60t-67.5 -22q-38 0 -62.5 16t-31.5 45l66 17q4 -22 28 -22q11 0 18 6.5t7 18.5q0 14 -7.5 21.5t-20.5 7.5q-14 0 -24 -4.5t-21 -13.5l-37 33l24 69q-62 10 -111 45t-77 90
t-28 123q0 77 36 136.5t96.5 92.5t131.5 33q83 0 140.5 -34.5t92.5 -105.5l-107 -63q-39 85 -127 85q-57 0 -96 -40t-39 -104q0 -65 38.5 -104.5t96.5 -39.5q48 0 79 22t54 69l104 -62q-36 -68 -92 -105.5z" />
    <glyph glyph-name="egrave" unicode="&#xe8;" 
d="M175.5 19q-58.5 33 -93 93t-34.5 136q0 77 35 136.5t94.5 92.5t131.5 33q70 0 125 -31.5t86 -88t31 -128.5v-44h-382q6 -57 43 -90.5t93 -33.5q94 0 137 91l94 -54q-39 -76 -94.5 -110.5t-138.5 -34.5q-69 0 -127.5 33zM435 310q-9 49 -43 76.5t-87 27.5
q-49 0 -85.5 -29.5t-50.5 -74.5h266zM137 708h159l73 -158h-103z" />
    <glyph glyph-name="eacute" unicode="&#xe9;" 
d="M175.5 19q-58.5 33 -93 93t-34.5 136q0 77 35 136.5t94.5 92.5t131.5 33q70 0 125 -31.5t86 -88t31 -128.5v-44h-382q6 -57 43 -90.5t93 -33.5q94 0 137 91l94 -54q-39 -76 -94.5 -110.5t-138.5 -34.5q-69 0 -127.5 33zM435 310q-9 49 -43 76.5t-87 27.5
q-49 0 -85.5 -29.5t-50.5 -74.5h266zM314 708h159l-129 -158h-103z" />
    <glyph glyph-name="ecircumflex" unicode="&#xea;" 
d="M175.5 19q-58.5 33 -93 93t-34.5 136q0 77 35 136.5t94.5 92.5t131.5 33q70 0 125 -31.5t86 -88t31 -128.5v-44h-382q6 -57 43 -90.5t93 -33.5q94 0 137 91l94 -54q-39 -76 -94.5 -110.5t-138.5 -34.5q-69 0 -127.5 33zM435 310q-9 49 -43 76.5t-87 27.5
q-49 0 -85.5 -29.5t-50.5 -74.5h266zM260 707h90l117 -157h-99l-63 60l-63 -60h-99z" />
    <glyph glyph-name="edieresis" unicode="&#xeb;" 
d="M175.5 19q-58.5 33 -93 93t-34.5 136q0 77 35 136.5t94.5 92.5t131.5 33q70 0 125 -31.5t86 -88t31 -128.5v-44h-382q6 -57 43 -90.5t93 -33.5q94 0 137 91l94 -54q-39 -76 -94.5 -110.5t-138.5 -34.5q-69 0 -127.5 33zM435 310q-9 49 -43 76.5t-87 27.5
q-49 0 -85.5 -29.5t-50.5 -74.5h266zM152 700h122v-126h-122v126zM336 700h122v-126h-122v126z" />
    <glyph glyph-name="igrave" unicode="&#xec;" 
d="M79 104h159v290h-134v102h260v-392h159v-104h-444v104zM133 708h159l73 -158h-103z" />
    <glyph glyph-name="iacute" unicode="&#xed;" 
d="M79 104h159v290h-134v102h260v-392h159v-104h-444v104zM310 708h159l-129 -158h-103z" />
    <glyph glyph-name="icircumflex" unicode="&#xee;" 
d="M79 104h159v290h-134v102h260v-392h159v-104h-444v104zM256 707h90l117 -157h-99l-63 60l-63 -60h-99z" />
    <glyph glyph-name="idieresis" unicode="&#xef;" 
d="M79 104h159v290h-134v102h260v-392h159v-104h-444v104zM148 700h122v-126h-122v126zM332 700h122v-126h-122v126z" />
    <glyph glyph-name="eth" unicode="&#xf0;" 
d="M170.5 17q-57.5 31 -89 85.5t-31.5 124.5q0 68 32 121.5t87 83.5t120 30q45 0 80.5 -13.5t58.5 -39.5q-23 72 -82 129l-110 -42l-31 83l60 23q-55 34 -114 54l54 94q113 -46 185 -99l96 37l32 -83l-57 -22q97 -109 97 -300q0 -137 -67.5 -217t-188.5 -80q-74 0 -131.5 31
zM370 108q30 16 48 46t18 70t-18 70t-48 46t-65 16q-53 0 -91 -36t-38 -96t38 -96t91 -36q35 0 65 16z" />
    <glyph glyph-name="ntilde" unicode="&#xf1;" 
d="M78 496h126v-80q61 94 161 94q79 0 125 -47t46 -125v-338h-126v286q0 106 -95 106q-49 0 -80 -39t-31 -101v-252h-126v496zM347 561q-21 11 -41 31q-13 12 -22.5 18t-21.5 6q-10 0 -17.5 -6t-7.5 -16q0 -12 7 -26l-74 -15q-6 9 -10 24t-4 29q0 45 29.5 68t68.5 23
q36 0 57 -11t41 -31q13 -12 22.5 -18t21.5 -6q10 0 17.5 6t7.5 16q0 12 -7 26l74 15q6 -9 10 -24t4 -29q0 -45 -29.5 -68t-68.5 -23q-36 0 -57 11z" />
    <glyph glyph-name="ograve" unicode="&#xf2;" 
d="M170.5 16q-60.5 30 -97.5 89.5t-37 142.5t37 142.5t97.5 89.5t130.5 30t130.5 -30t97.5 -89.5t37 -142.5t-37 -142.5t-97.5 -89.5t-130.5 -30t-130.5 30zM400 141q38 37 38 107t-38 107t-99 37t-99 -37t-38 -107t38 -107t99 -37t99 37zM133 708h159l73 -158h-103z" />
    <glyph glyph-name="oacute" unicode="&#xf3;" 
d="M170.5 16q-60.5 30 -97.5 89.5t-37 142.5t37 142.5t97.5 89.5t130.5 30t130.5 -30t97.5 -89.5t37 -142.5t-37 -142.5t-97.5 -89.5t-130.5 -30t-130.5 30zM400 141q38 37 38 107t-38 107t-99 37t-99 -37t-38 -107t38 -107t99 -37t99 37zM310 708h159l-129 -158h-103z" />
    <glyph glyph-name="ocircumflex" unicode="&#xf4;" 
d="M170.5 16q-60.5 30 -97.5 89.5t-37 142.5t37 142.5t97.5 89.5t130.5 30t130.5 -30t97.5 -89.5t37 -142.5t-37 -142.5t-97.5 -89.5t-130.5 -30t-130.5 30zM400 141q38 37 38 107t-38 107t-99 37t-99 -37t-38 -107t38 -107t99 -37t99 37zM256 707h90l117 -157h-99l-63 60
l-63 -60h-99z" />
    <glyph glyph-name="otilde" unicode="&#xf5;" 
d="M170.5 16q-60.5 30 -97.5 89.5t-37 142.5t37 142.5t97.5 89.5t130.5 30t130.5 -30t97.5 -89.5t37 -142.5t-37 -142.5t-97.5 -89.5t-130.5 -30t-130.5 30zM400 141q38 37 38 107t-38 107t-99 37t-99 -37t-38 -107t38 -107t99 -37t99 37zM319 561q-21 11 -41 31
q-13 12 -22.5 18t-21.5 6q-10 0 -17.5 -6t-7.5 -16q0 -12 7 -26l-74 -15q-6 9 -10 24t-4 29q0 45 29.5 68t68.5 23q36 0 57 -11t41 -31q13 -12 22.5 -18t21.5 -6q10 0 17.5 6t7.5 16q0 12 -7 26l74 15q6 -9 10 -24t4 -29q0 -45 -29.5 -68t-68.5 -23q-36 0 -57 11z" />
    <glyph glyph-name="odieresis" unicode="&#xf6;" 
d="M170.5 16q-60.5 30 -97.5 89.5t-37 142.5t37 142.5t97.5 89.5t130.5 30t130.5 -30t97.5 -89.5t37 -142.5t-37 -142.5t-97.5 -89.5t-130.5 -30t-130.5 30zM400 141q38 37 38 107t-38 107t-99 37t-99 -37t-38 -107t38 -107t99 -37t99 37zM148 700h122v-126h-122v126z
M332 700h122v-126h-122v126z" />
    <glyph glyph-name="divide" unicode="&#xf7;" 
d="M231 484h140v-144h-140v144zM59 293h484v-102h-484v102zM231 144h140v-144h-140v144z" />
    <glyph glyph-name="oslash" unicode="&#xf8;" 
d="M106 -3l25 44q-45 34 -70 86t-25 121q0 83 37 142.5t97.5 89.5t130.5 30q46 0 93 -14l26 45l76 -42l-25 -44q45 -34 70 -86t25 -121q0 -83 -37 -142.5t-97.5 -89.5t-130.5 -30q-46 0 -93 14l-26 -45zM332 389q-15 3 -31 3q-61 0 -99 -37t-38 -107q0 -60 30 -98zM400 141
q38 37 38 107q0 60 -30 98l-138 -239q15 -3 31 -3q61 0 99 37z" />
    <glyph glyph-name="ugrave" unicode="&#xf9;" 
d="M120 33.5q-48 47.5 -48 124.5v338h126v-286q0 -106 95 -106q49 0 80 39t31 101v252h126v-496h-126v74q-28 -44 -65 -66t-92 -22q-79 0 -127 47.5zM133 708h159l73 -158h-103z" />
    <glyph glyph-name="uacute" unicode="&#xfa;" 
d="M120 33.5q-48 47.5 -48 124.5v338h126v-286q0 -106 95 -106q49 0 80 39t31 101v252h126v-496h-126v74q-28 -44 -65 -66t-92 -22q-79 0 -127 47.5zM310 708h159l-129 -158h-103z" />
    <glyph glyph-name="ucircumflex" unicode="&#xfb;" 
d="M120 33.5q-48 47.5 -48 124.5v338h126v-286q0 -106 95 -106q49 0 80 39t31 101v252h126v-496h-126v74q-28 -44 -65 -66t-92 -22q-79 0 -127 47.5zM256 707h90l117 -157h-99l-63 60l-63 -60h-99z" />
    <glyph glyph-name="udieresis" unicode="&#xfc;" 
d="M120 33.5q-48 47.5 -48 124.5v338h126v-286q0 -106 95 -106q49 0 80 39t31 101v252h126v-496h-126v74q-28 -44 -65 -66t-92 -22q-79 0 -127 47.5zM148 700h122v-126h-122v126zM332 700h122v-126h-122v126z" />
    <glyph glyph-name="yacute" unicode="&#xfd;" 
d="M116.5 -206.5q-19.5 4.5 -42.5 16.5l38 107q22 -12 47 -12q22 0 37 10.5t25 36.5l21 54l-214 490h140l137 -331l133 331h137l-248 -586q-27 -64 -66.5 -92.5t-97.5 -28.5q-27 0 -46.5 4.5zM315 708h159l-129 -158h-103z" />
    <glyph glyph-name="thorn" unicode="&#xfe;" 
d="M48 700h126v-265q26 32 67 53.5t96 21.5q65 0 116 -31.5t80 -90.5t29 -140q0 -80 -31 -139.5t-83.5 -91t-116.5 -31.5q-104 0 -157 69v-259h-126v904zM397 144q37 40 37 104t-37 104t-97 40t-97 -40t-37 -104t37 -104t97 -40t97 40z" />
    <glyph glyph-name="ydieresis" unicode="&#xff;" 
d="M116.5 -206.5q-19.5 4.5 -42.5 16.5l38 107q22 -12 47 -12q22 0 37 10.5t25 36.5l21 54l-214 490h140l137 -331l133 331h137l-248 -586q-27 -64 -66.5 -92.5t-97.5 -28.5q-27 0 -46.5 4.5zM153 700h122v-126h-122v126zM337 700h122v-126h-122v126z" />
    <glyph glyph-name="Amacron" unicode="&#x100;" 
d="M237 700h128l237 -700h-142l-57 183h-204l-57 -183h-142zM366 301l-46 147q-8 28 -19 77q-11 -49 -19 -77l-46 -147h130zM177 886h248v-94h-248v94z" />
    <glyph glyph-name="amacron" unicode="&#x101;" 
d="M109 28.5q-48 42.5 -48 112.5q0 72 48.5 112t128.5 52l156 23v19q0 36 -24.5 55.5t-70.5 19.5q-42 0 -67 -16t-25 -40q0 -6 2 -12l-113 -38q-9 20 -9 42q0 39 25 74t73.5 56.5t113.5 21.5q106 0 163.5 -45.5t57.5 -134.5v-207q0 -42 7.5 -69t25.5 -54h-128
q-9 11 -16.5 31t-7.5 48q-55 -93 -169 -93q-75 0 -123 42.5zM355 126q39 38 39 106v9l-124 -20q-41 -7 -63.5 -25.5t-22.5 -47.5t21.5 -44.5t55.5 -15.5q55 0 94 38zM176 682h248v-94h-248v94z" />
    <glyph glyph-name="Abreve" unicode="&#x102;" 
d="M237 700h128l237 -700h-142l-57 183h-204l-57 -183h-142zM366 301l-46 147q-8 28 -19 77q-11 -49 -19 -77l-46 -147h130zM218.5 800q-31.5 32 -31.5 81h76q0 -19 10 -31t28 -12t28 12t10 31h76q0 -49 -31.5 -81t-82.5 -32t-82.5 32z" />
    <glyph glyph-name="abreve" unicode="&#x103;" 
d="M109 28.5q-48 42.5 -48 112.5q0 72 48.5 112t128.5 52l156 23v19q0 36 -24.5 55.5t-70.5 19.5q-42 0 -67 -16t-25 -40q0 -6 2 -12l-113 -38q-9 20 -9 42q0 39 25 74t73.5 56.5t113.5 21.5q106 0 163.5 -45.5t57.5 -134.5v-207q0 -42 7.5 -69t25.5 -54h-128
q-9 11 -16.5 31t-7.5 48q-55 -93 -169 -93q-75 0 -123 42.5zM355 126q39 38 39 106v9l-124 -20q-41 -7 -63.5 -25.5t-22.5 -47.5t21.5 -44.5t55.5 -15.5q55 0 94 38zM217.5 596q-31.5 32 -31.5 81h76q0 -19 10 -31t28 -12t28 12t10 31h76q0 -49 -31.5 -81t-82.5 -32
t-82.5 32z" />
    <glyph glyph-name="Aogonek" unicode="&#x104;" 
d="M604 -191q-26 -7 -60 -7q-45 0 -79.5 25t-34.5 69q0 61 59 104h-29l-57 183h-204l-57 -183h-142l237 700h128l237 -700q-32 -18 -52 -38t-20 -40q0 -18 11.5 -28t29.5 -10q9 0 22 2zM366 301l-46 147q-8 28 -19 77q-11 -49 -19 -77l-46 -147h130z" />
    <glyph glyph-name="aogonek" unicode="&#x105;" 
d="M555 -191q-26 -7 -60 -7q-45 0 -79.5 25t-34.5 69q0 61 59 104h-15q-9 11 -16.5 31t-7.5 48q-55 -93 -169 -93q-75 0 -123 42.5t-48 112.5q0 72 48.5 112t128.5 52l156 23v19q0 36 -24.5 55.5t-70.5 19.5q-42 0 -67 -16t-25 -40q0 -6 2 -12l-113 -38q-9 20 -9 42
q0 39 25 74t73.5 56.5t113.5 21.5q106 0 163.5 -45.5t57.5 -134.5v-207q0 -42 7.5 -69t25.5 -54q-32 -18 -52 -38t-20 -40q0 -18 11.5 -28t29.5 -10q9 0 22 2zM394 241l-124 -20q-41 -7 -63.5 -25.5t-22.5 -47.5t21.5 -44.5t55.5 -15.5q55 0 94 38t39 106v9z" />
    <glyph glyph-name="Cacute" unicode="&#x106;" 
d="M156.5 32.5q-66.5 46.5 -100 128.5t-33.5 189q0 105 37 188t106 129.5t160 46.5q99 0 161 -51t83 -140l-115 -55q-33 124 -138 124q-46 0 -82.5 -29t-57 -84t-20.5 -129q0 -115 42 -178.5t123 -63.5q51 0 86 37t52 101l116 -51q-29 -93 -91.5 -151t-165.5 -58
q-96 0 -162.5 46.5zM338 912h159l-129 -158h-103z" />
    <glyph glyph-name="cacute" unicode="&#x107;" 
d="M185.5 19q-60.5 33 -95.5 92.5t-35 136.5t36 136.5t96.5 92.5t131.5 33q83 0 140.5 -34.5t92.5 -105.5l-107 -63q-39 85 -127 85q-57 0 -96 -40t-39 -104q0 -65 38.5 -104.5t96.5 -39.5q48 0 79 22t54 69l104 -62q-38 -71 -97 -109t-139 -38q-73 0 -133.5 33zM328 708
h159l-129 -158h-103z" />
    <glyph glyph-name="Ccircumflex" unicode="&#x108;" 
d="M156.5 32.5q-66.5 46.5 -100 128.5t-33.5 189q0 105 37 188t106 129.5t160 46.5q99 0 161 -51t83 -140l-115 -55q-33 124 -138 124q-46 0 -82.5 -29t-57 -84t-20.5 -129q0 -115 42 -178.5t123 -63.5q51 0 86 37t52 101l116 -51q-29 -93 -91.5 -151t-165.5 -58
q-96 0 -162.5 46.5zM284 911h90l117 -157h-99l-63 60l-63 -60h-99z" />
    <glyph glyph-name="ccircumflex" unicode="&#x109;" 
d="M185.5 19q-60.5 33 -95.5 92.5t-35 136.5t36 136.5t96.5 92.5t131.5 33q83 0 140.5 -34.5t92.5 -105.5l-107 -63q-39 85 -127 85q-57 0 -96 -40t-39 -104q0 -65 38.5 -104.5t96.5 -39.5q48 0 79 22t54 69l104 -62q-38 -71 -97 -109t-139 -38q-73 0 -133.5 33zM274 707h90
l117 -157h-99l-63 60l-63 -60h-99z" />
    <glyph glyph-name="Cdotaccent" unicode="&#x10a;" 
d="M156.5 32.5q-66.5 46.5 -100 128.5t-33.5 189q0 105 37 188t106 129.5t160 46.5q99 0 161 -51t83 -140l-115 -55q-33 124 -138 124q-46 0 -82.5 -29t-57 -84t-20.5 -129q0 -115 42 -178.5t123 -63.5q51 0 86 37t52 101l116 -51q-29 -93 -91.5 -151t-165.5 -58
q-96 0 -162.5 46.5zM260 904h138v-132h-138v132z" />
    <glyph glyph-name="cdotaccent" unicode="&#x10b;" 
d="M185.5 19q-60.5 33 -95.5 92.5t-35 136.5t36 136.5t96.5 92.5t131.5 33q83 0 140.5 -34.5t92.5 -105.5l-107 -63q-39 85 -127 85q-57 0 -96 -40t-39 -104q0 -65 38.5 -104.5t96.5 -39.5q48 0 79 22t54 69l104 -62q-38 -71 -97 -109t-139 -38q-73 0 -133.5 33zM250 700
h138v-132h-138v132z" />
    <glyph glyph-name="Ccaron" unicode="&#x10c;" 
d="M156.5 32.5q-66.5 46.5 -100 128.5t-33.5 189q0 105 37 188t106 129.5t160 46.5q99 0 161 -51t83 -140l-115 -55q-33 124 -138 124q-46 0 -82.5 -29t-57 -84t-20.5 -129q0 -115 42 -178.5t123 -63.5q51 0 86 37t52 101l116 -51q-29 -93 -91.5 -151t-165.5 -58
q-96 0 -162.5 46.5zM167 911h99l63 -60l63 60h99l-117 -157h-90z" />
    <glyph glyph-name="ccaron" unicode="&#x10d;" 
d="M185.5 19q-60.5 33 -95.5 92.5t-35 136.5t36 136.5t96.5 92.5t131.5 33q83 0 140.5 -34.5t92.5 -105.5l-107 -63q-39 85 -127 85q-57 0 -96 -40t-39 -104q0 -65 38.5 -104.5t96.5 -39.5q48 0 79 22t54 69l104 -62q-38 -71 -97 -109t-139 -38q-73 0 -133.5 33zM157 707h99
l63 -60l63 60h99l-117 -157h-90z" />
    <glyph glyph-name="Dcaron" unicode="&#x10e;" 
d="M55 700h170q158 0 244 -93t86 -257t-86 -257t-244 -93h-170v700zM217 122q204 0 204 228t-204 228h-30v-456h30zM59 911h99l63 -60l63 60h99l-117 -157h-90z" />
    <glyph glyph-name="dcaron" unicode="&#x10f;" 
d="M116.5 17.5q-48.5 31.5 -76.5 91t-28 139.5t29.5 139.5t78.5 91t106 31.5q45 0 76.5 -13.5t53.5 -42.5v246h126v-700h-126v53q-18 -31 -51.5 -49t-78.5 -18q-61 0 -109.5 31.5zM512 486l33 88h-40v126h121v-126l-88 -103zM334.5 143.5q29.5 39.5 29.5 104.5t-29.5 104.5
t-82.5 39.5t-82.5 -39.5t-29.5 -104.5t29.5 -104.5t82.5 -39.5t82.5 39.5z" />
    <glyph glyph-name="Dcroat" unicode="&#x110;" 
d="M68 295h-53v110h53v295h170q158 0 244 -93t86 -257t-86 -257t-244 -93h-170v295zM230 122q204 0 204 228t-204 228h-30v-173h107v-110h-107v-173h30z" />
    <glyph glyph-name="dcroat" unicode="&#x111;" 
d="M155 17.5q-53 31.5 -83 91t-30 139.5q0 81 30.5 140t83.5 90.5t120 31.5q50 0 86.5 -17t63.5 -52v111h-144v96h144v52h126v-52h50v-96h-50v-552h-126v61q-28 -37 -63 -56t-90 -19q-65 0 -118 31.5zM398 144q36 40 36 104t-36 104t-96 40t-96 -40t-36 -104t36 -104t96 -40
t96 40z" />
    <glyph glyph-name="Emacron" unicode="&#x112;" 
d="M72 700h454v-118h-322v-161h294v-118h-294v-185h325v-118h-457v700zM177 886h248v-94h-248v94z" />
    <glyph glyph-name="emacron" unicode="&#x113;" 
d="M175.5 19q-58.5 33 -93 93t-34.5 136q0 77 35 136.5t94.5 92.5t131.5 33q70 0 125 -31.5t86 -88t31 -128.5v-44h-382q6 -57 43 -90.5t93 -33.5q94 0 137 91l94 -54q-39 -76 -94.5 -110.5t-138.5 -34.5q-69 0 -127.5 33zM435 310q-9 49 -43 76.5t-87 27.5
q-49 0 -85.5 -29.5t-50.5 -74.5h266zM181 682h248v-94h-248v94z" />
    <glyph glyph-name="Ebreve" unicode="&#x114;" 
d="M72 700h454v-118h-322v-161h294v-118h-294v-185h325v-118h-457v700zM218.5 800q-31.5 32 -31.5 81h76q0 -19 10 -31t28 -12t28 12t10 31h76q0 -49 -31.5 -81t-82.5 -32t-82.5 32z" />
    <glyph glyph-name="ebreve" unicode="&#x115;" 
d="M175.5 19q-58.5 33 -93 93t-34.5 136q0 77 35 136.5t94.5 92.5t131.5 33q70 0 125 -31.5t86 -88t31 -128.5v-44h-382q6 -57 43 -90.5t93 -33.5q94 0 137 91l94 -54q-39 -76 -94.5 -110.5t-138.5 -34.5q-69 0 -127.5 33zM435 310q-9 49 -43 76.5t-87 27.5
q-49 0 -85.5 -29.5t-50.5 -74.5h266zM222.5 596q-31.5 32 -31.5 81h76q0 -19 10 -31t28 -12t28 12t10 31h76q0 -49 -31.5 -81t-82.5 -32t-82.5 32z" />
    <glyph glyph-name="Edotaccent" unicode="&#x116;" 
d="M72 700h454v-118h-322v-161h294v-118h-294v-185h325v-118h-457v700zM232 904h138v-132h-138v132z" />
    <glyph glyph-name="edotaccent" unicode="&#x117;" 
d="M175.5 19q-58.5 33 -93 93t-34.5 136q0 77 35 136.5t94.5 92.5t131.5 33q70 0 125 -31.5t86 -88t31 -128.5v-44h-382q6 -57 43 -90.5t93 -33.5q94 0 137 91l94 -54q-39 -76 -94.5 -110.5t-138.5 -34.5q-69 0 -127.5 33zM435 310q-9 49 -43 76.5t-87 27.5
q-49 0 -85.5 -29.5t-50.5 -74.5h266zM236 700h138v-132h-138v132z" />
    <glyph glyph-name="Eogonek" unicode="&#x118;" 
d="M531 -191q-26 -7 -60 -7q-45 0 -79.5 25t-34.5 69q0 61 59 104h-344v700h454v-118h-322v-161h294v-118h-294v-185h325v-118q-32 -18 -52 -38t-20 -40q0 -18 11.5 -28t29.5 -10q9 0 22 2z" />
    <glyph glyph-name="eogonek" unicode="&#x119;" 
d="M551 218h-382q6 -57 43 -90.5t93 -33.5q94 0 137 91l94 -54q-28 -54 -63 -86.5t-82 -46.5q-68 -39 -68 -76q0 -18 11.5 -28t29.5 -10q9 0 22 2l11 -77q-26 -7 -60 -7q-45 0 -79.5 25t-34.5 69q0 52 45 92q-61 8 -111.5 43t-79.5 91t-29 126q0 77 35 136.5t94.5 92.5
t131.5 33q70 0 125 -31.5t86 -88t31 -128.5v-44zM435 310q-9 49 -43 76.5t-87 27.5q-49 0 -85.5 -29.5t-50.5 -74.5h266z" />
    <glyph glyph-name="Ecaron" unicode="&#x11a;" 
d="M72 700h454v-118h-322v-161h294v-118h-294v-185h325v-118h-457v700zM139 911h99l63 -60l63 60h99l-117 -157h-90z" />
    <glyph glyph-name="ecaron" unicode="&#x11b;" 
d="M175.5 19q-58.5 33 -93 93t-34.5 136q0 77 35 136.5t94.5 92.5t131.5 33q70 0 125 -31.5t86 -88t31 -128.5v-44h-382q6 -57 43 -90.5t93 -33.5q94 0 137 91l94 -54q-39 -76 -94.5 -110.5t-138.5 -34.5q-69 0 -127.5 33zM435 310q-9 49 -43 76.5t-87 27.5
q-49 0 -85.5 -29.5t-50.5 -74.5h266zM143 707h99l63 -60l63 60h99l-117 -157h-90z" />
    <glyph glyph-name="Gcircumflex" unicode="&#x11c;" 
d="M97 85.5q-72 99.5 -72 264.5q0 107 35.5 189.5t101.5 128.5t156 46q103 0 165.5 -50t88.5 -133l-109 -58q-17 62 -54.5 93.5t-92.5 31.5q-76 0 -116.5 -66t-40.5 -182t37.5 -179t115.5 -63q57 0 89.5 43t39.5 115h-161v108h293v-374h-74l-22 118q-20 -60 -65 -96
t-107 -36q-136 0 -208 99.5zM272 911h90l117 -157h-99l-63 60l-63 -60h-99z" />
    <glyph glyph-name="gcircumflex" unicode="&#x11d;" 
d="M133.5 -175.5q-61.5 42.5 -61.5 119.5q0 17 4 33t10 26l122 -37q-6 -17 -6 -30q0 -24 27.5 -39t78.5 -15q57 0 89.5 34.5t32.5 101.5v64q-20 -33 -55.5 -53.5t-85.5 -20.5q-65 0 -120 32t-87 89.5t-32 129.5t33 129.5t88 89.5t119 32q46 0 81.5 -17.5t58.5 -50.5v54h126
v-462q0 -124 -67.5 -188t-184.5 -64q-109 0 -170.5 42.5zM398 156q39 38 39 103t-39 103t-95 38q-55 0 -93 -37.5t-38 -103.5t38 -103.5t93 -37.5q56 0 95 38zM264 707h90l117 -157h-99l-63 60l-63 -60h-99z" />
    <glyph glyph-name="Gbreve" unicode="&#x11e;" 
d="M97 85.5q-72 99.5 -72 264.5q0 107 35.5 189.5t101.5 128.5t156 46q103 0 165.5 -50t88.5 -133l-109 -58q-17 62 -54.5 93.5t-92.5 31.5q-76 0 -116.5 -66t-40.5 -182t37.5 -179t115.5 -63q57 0 89.5 43t39.5 115h-161v108h293v-374h-74l-22 118q-20 -60 -65 -96
t-107 -36q-136 0 -208 99.5zM234.5 800q-31.5 32 -31.5 81h76q0 -19 10 -31t28 -12t28 12t10 31h76q0 -49 -31.5 -81t-82.5 -32t-82.5 32z" />
    <glyph glyph-name="gbreve" unicode="&#x11f;" 
d="M133.5 -175.5q-61.5 42.5 -61.5 119.5q0 17 4 33t10 26l122 -37q-6 -17 -6 -30q0 -24 27.5 -39t78.5 -15q57 0 89.5 34.5t32.5 101.5v64q-20 -33 -55.5 -53.5t-85.5 -20.5q-65 0 -120 32t-87 89.5t-32 129.5t33 129.5t88 89.5t119 32q46 0 81.5 -17.5t58.5 -50.5v54h126
v-462q0 -124 -67.5 -188t-184.5 -64q-109 0 -170.5 42.5zM398 156q39 38 39 103t-39 103t-95 38q-55 0 -93 -37.5t-38 -103.5t38 -103.5t93 -37.5q56 0 95 38zM226.5 596q-31.5 32 -31.5 81h76q0 -19 10 -31t28 -12t28 12t10 31h76q0 -49 -31.5 -81t-82.5 -32t-82.5 32z" />
    <glyph glyph-name="Gdotaccent" unicode="&#x120;" 
d="M97 85.5q-72 99.5 -72 264.5q0 107 35.5 189.5t101.5 128.5t156 46q103 0 165.5 -50t88.5 -133l-109 -58q-17 62 -54.5 93.5t-92.5 31.5q-76 0 -116.5 -66t-40.5 -182t37.5 -179t115.5 -63q57 0 89.5 43t39.5 115h-161v108h293v-374h-74l-22 118q-20 -60 -65 -96
t-107 -36q-136 0 -208 99.5zM248 904h138v-132h-138v132z" />
    <glyph glyph-name="gdotaccent" unicode="&#x121;" 
d="M133.5 -175.5q-61.5 42.5 -61.5 119.5q0 17 4 33t10 26l122 -37q-6 -17 -6 -30q0 -24 27.5 -39t78.5 -15q57 0 89.5 34.5t32.5 101.5v64q-20 -33 -55.5 -53.5t-85.5 -20.5q-65 0 -120 32t-87 89.5t-32 129.5t33 129.5t88 89.5t119 32q46 0 81.5 -17.5t58.5 -50.5v54h126
v-462q0 -124 -67.5 -188t-184.5 -64q-109 0 -170.5 42.5zM398 156q39 38 39 103t-39 103t-95 38q-55 0 -93 -37.5t-38 -103.5t38 -103.5t93 -37.5q56 0 95 38zM240 700h138v-132h-138v132z" />
    <glyph glyph-name="uni0122" unicode="&#x122;" 
d="M97 85.5q-72 99.5 -72 264.5q0 107 35.5 189.5t101.5 128.5t156 46q103 0 165.5 -50t88.5 -133l-109 -58q-17 62 -54.5 93.5t-92.5 31.5q-76 0 -116.5 -66t-40.5 -182t37.5 -179t115.5 -63q57 0 89.5 43t39.5 115h-161v108h293v-374h-74l-22 118q-20 -60 -65 -96
t-107 -36q-136 0 -208 99.5zM264 -286l30 108h-43v118h124v-118l-82 -119z" />
    <glyph glyph-name="uni0123" unicode="&#x123;" 
d="M133.5 -175.5q-61.5 42.5 -61.5 119.5q0 17 4 33t10 26l122 -37q-6 -17 -6 -30q0 -24 27.5 -39t78.5 -15q57 0 89.5 34.5t32.5 101.5v64q-20 -33 -55.5 -53.5t-85.5 -20.5q-65 0 -120 32t-87 89.5t-32 129.5t33 129.5t88 89.5t119 32q46 0 81.5 -17.5t58.5 -50.5v54h126
v-462q0 -124 -67.5 -188t-184.5 -64q-109 0 -170.5 42.5zM398 156q39 38 39 103t-39 103t-95 38q-55 0 -93 -37.5t-38 -103.5t38 -103.5t93 -37.5q56 0 95 38zM235 692l122 136l25 -22l-67 -114h52v-129h-132v129z" />
    <glyph glyph-name="Hcircumflex" unicode="&#x124;" 
d="M47 700h132v-282h244v282h132v-700h-132v296h-244v-296h-132v700zM256 911h90l117 -157h-99l-63 60l-63 -60h-99z" />
    <glyph glyph-name="hcircumflex" unicode="&#x125;" 
d="M64 700h126v-282q60 92 165 92q80 0 128.5 -46.5t48.5 -121.5v-342h-126v286q0 50 -25 78t-73 28q-52 0 -85 -39t-33 -101v-252h-126v700zM82 911h90l117 -157h-99l-63 60l-63 -60h-99z" />
    <glyph glyph-name="Hbar" unicode="&#x126;" 
d="M47 484h-53v94h53v122h132v-122h244v122h132v-122h53v-94h-53v-484h-132v296h-244v-296h-132v484zM423 418v66h-244v-66h244z" />
    <glyph glyph-name="hbar" unicode="&#x127;" 
d="M64 552h-58v96h58v52h126v-52h148v-96h-148v-134q60 92 165 92q80 0 128.5 -46.5t48.5 -121.5v-342h-126v286q0 50 -25 78t-73 28q-52 0 -85 -39t-33 -101v-252h-126v552z" />
    <glyph glyph-name="Itilde" unicode="&#x128;" 
d="M81 116h154v468h-148v116h428v-116h-148v-468h154v-116h-440v116zM319 765q-21 11 -41 31q-13 12 -22.5 18t-21.5 6q-10 0 -17.5 -6t-7.5 -16q0 -12 7 -26l-74 -15q-6 9 -10 24t-4 29q0 45 29.5 68t68.5 23q36 0 57 -11t41 -31q13 -12 22.5 -18t21.5 -6q10 0 17.5 6
t7.5 16q0 12 -7 26l74 15q6 -9 10 -24t4 -29q0 -45 -29.5 -68t-68.5 -23q-36 0 -57 11z" />
    <glyph glyph-name="itilde" unicode="&#x129;" 
d="M79 104h159v290h-134v102h260v-392h159v-104h-444v104zM319 561q-21 11 -41 31q-13 12 -22.5 18t-21.5 6q-10 0 -17.5 -6t-7.5 -16q0 -12 7 -26l-74 -15q-6 9 -10 24t-4 29q0 45 29.5 68t68.5 23q36 0 57 -11t41 -31q13 -12 22.5 -18t21.5 -6q10 0 17.5 6t7.5 16
q0 12 -7 26l74 15q6 -9 10 -24t4 -29q0 -45 -29.5 -68t-68.5 -23q-36 0 -57 11z" />
    <glyph glyph-name="Imacron" unicode="&#x12a;" 
d="M81 116h154v468h-148v116h428v-116h-148v-468h154v-116h-440v116zM177 886h248v-94h-248v94z" />
    <glyph glyph-name="imacron" unicode="&#x12b;" 
d="M79 104h159v290h-134v102h260v-392h159v-104h-444v104zM177 682h248v-94h-248v94z" />
    <glyph glyph-name="Ibreve" unicode="&#x12c;" 
d="M81 116h154v468h-148v116h428v-116h-148v-468h154v-116h-440v116zM218.5 800q-31.5 32 -31.5 81h76q0 -19 10 -31t28 -12t28 12t10 31h76q0 -49 -31.5 -81t-82.5 -32t-82.5 32z" />
    <glyph glyph-name="ibreve" unicode="&#x12d;" 
d="M79 104h159v290h-134v102h260v-392h159v-104h-444v104zM218.5 596q-31.5 32 -31.5 81h76q0 -19 10 -31t28 -12t28 12t10 31h76q0 -49 -31.5 -81t-82.5 -32t-82.5 32z" />
    <glyph glyph-name="Iogonek" unicode="&#x12e;" 
d="M523 -191q-26 -7 -60 -7q-45 0 -79.5 25t-34.5 69q0 61 59 104h-327v116h154v468h-148v116h428v-116h-148v-468h154v-116q-32 -18 -52 -38t-20 -40q0 -18 11.5 -28t29.5 -10q9 0 22 2z" />
    <glyph glyph-name="iogonek" unicode="&#x12f;" 
d="M370 568h-138v132h138v-132zM525 -191q-26 -7 -60 -7q-45 0 -79.5 25t-34.5 69q0 61 59 104h-331v104h159v290h-134v102h260v-392h159v-104q-32 -18 -52 -38t-20 -40q0 -18 11.5 -28t29.5 -10q9 0 22 2z" />
    <glyph glyph-name="Idotaccent" unicode="&#x130;" 
d="M81 116h154v468h-148v116h428v-116h-148v-468h154v-116h-440v116zM232 904h138v-132h-138v132z" />
    <glyph glyph-name="dotlessi" unicode="&#x131;" 
d="M79 104h159v290h-134v102h260v-392h159v-104h-444v104z" />
    <glyph glyph-name="IJ" unicode="&#x132;" 
d="M143 54q-64 68 -64 183h132q1 -61 31 -95t80 -34q48 0 75.5 28.5t27.5 79.5v484h132v-486q0 -66 -28.5 -118t-81.5 -81t-125 -29q-115 0 -179 68zM79 700h132v-400h-132v400z" />
    <glyph glyph-name="ij" unicode="&#x133;" 
d="M74 700h138v-132h-138v132zM390 700h138v-132h-138v132zM80 496h126v-496h-126v496zM215 -175q-46 36 -46 93q0 27 12 57l112 -39q-1 -3 -1 -10q0 -16 12 -25.5t33 -9.5q32 0 45.5 19.5t13.5 60.5v423h-127v102h253v-523q0 -87 -49 -135.5t-133 -48.5q-79 0 -125 36z" />
    <glyph glyph-name="Jcircumflex" unicode="&#x134;" 
d="M128 54q-64 68 -64 183l135 -16q1 -55 29.5 -84t78.5 -29q48 0 75.5 28.5t27.5 79.5v484h132v-486q0 -66 -28.5 -118t-81.5 -81t-125 -29q-115 0 -179 68zM431 911h90l117 -157h-99l-63 60l-63 -60h-99z" />
    <glyph glyph-name="jcircumflex" unicode="&#x135;" 
d="M161.5 -193q-41.5 18 -64 49t-22.5 69q0 32 12 56l118 -39q-2 -6 -2 -12q0 -15 14.5 -23t38.5 -8q32 0 45.5 19.5t13.5 58.5v417h-151v102h277v-523q0 -90 -48 -137t-134 -47q-56 0 -97.5 18zM333 707h90l117 -157h-99l-63 60l-63 -60h-99z" />
    <glyph glyph-name="uni0136" unicode="&#x136;" 
d="M62 700h132v-255l37 42l188 213h165l-251 -272l253 -428h-151l-194 328l-47 -52v-276h-132v700zM256 -286l30 108h-43v118h124v-118l-82 -119z" />
    <glyph glyph-name="uni0137" unicode="&#x137;" 
d="M78 700h126v-357l173 153h172l-211 -186l228 -310h-159l-166 224l-37 -32v-192h-126v700zM252 -286l30 108h-43v118h124v-118l-82 -119z" />
    <glyph glyph-name="kgreenlandic" unicode="&#x138;" 
d="M78 496h126v-153l173 153h172l-211 -186l228 -310h-159l-166 224l-37 -32v-192h-126v496z" />
    <glyph glyph-name="Lacute" unicode="&#x139;" 
d="M77 700h132v-578h335v-122h-467v700zM152 912h159l-129 -158h-103z" />
    <glyph glyph-name="lacute" unicode="&#x13a;" 
d="M68 104h170v492h-150v104h276v-596h170v-104h-466v104zM310 912h159l-129 -158h-103z" />
    <glyph glyph-name="uni013B" unicode="&#x13b;" 
d="M77 700h132v-578h335v-122h-467v700zM262 -286l30 108h-43v118h124v-118l-82 -119z" />
    <glyph glyph-name="uni013C" unicode="&#x13c;" 
d="M68 104h170v492h-150v104h276v-596h170v-104h-466v104zM252 -286l30 108h-43v118h124v-118l-82 -119z" />
    <glyph glyph-name="Lcaron" unicode="&#x13d;" 
d="M77 700h132v-578h335v-122h-467v700zM381 431l79 129h-56v140h140v-140l-138 -151z" />
    <glyph glyph-name="lcaron" unicode="&#x13e;" 
d="M68 104h170v492h-150v104h276v-596h170v-104h-466v104zM413 489l52 97h-46v114h114v-114l-93 -112z" />
    <glyph glyph-name="Ldot" unicode="&#x13f;" 
d="M77 700h132v-578h335v-122h-467v700zM344 428h156v-156h-156v156z" />
    <glyph glyph-name="ldot" unicode="&#x140;" 
d="M68 104h170v492h-150v104h276v-596h170v-104h-466v104zM524 428h156v-156h-156v156z" />
    <glyph glyph-name="Lslash" unicode="&#x141;" 
d="M93 180l-74 -47v122l74 47v398h132v-314l121 77v-122l-121 -77v-142h335v-122h-467v180z" />
    <glyph glyph-name="lslash" unicode="&#x142;" 
d="M68 104h170v126l-91 -58v110l91 58v256h-150v104h276v-280l92 59v-110l-92 -59v-206h170v-104h-466v104z" />
    <glyph glyph-name="Nacute" unicode="&#x143;" 
d="M57 700h134l202 -408q21 -42 30 -64v472h122v-700h-134l-202 408q-18 36 -30 64v-472h-122v700zM310 912h159l-129 -158h-103z" />
    <glyph glyph-name="nacute" unicode="&#x144;" 
d="M78 496h126v-80q61 94 161 94q79 0 125 -47t46 -125v-338h-126v286q0 106 -95 106q-49 0 -80 -39t-31 -101v-252h-126v496zM338 708h159l-129 -158h-103z" />
    <glyph glyph-name="uni0145" unicode="&#x145;" 
d="M57 700h134l202 -408q21 -42 30 -64v472h122v-700h-134l-202 408q-18 36 -30 64v-472h-122v700zM252 -286l30 108h-43v118h124v-118l-82 -119z" />
    <glyph glyph-name="uni0146" unicode="&#x146;" 
d="M78 496h126v-80q61 94 161 94q79 0 125 -47t46 -125v-338h-126v286q0 106 -95 106q-49 0 -80 -39t-31 -101v-252h-126v496zM258 -286l30 108h-43v118h124v-118l-82 -119z" />
    <glyph glyph-name="Ncaron" unicode="&#x147;" 
d="M57 700h134l202 -408q21 -42 30 -64v472h122v-700h-134l-202 408q-18 36 -30 64v-472h-122v700zM139 911h99l63 -60l63 60h99l-117 -157h-90z" />
    <glyph glyph-name="ncaron" unicode="&#x148;" 
d="M78 496h126v-80q61 94 161 94q79 0 125 -47t46 -125v-338h-126v286q0 106 -95 106q-49 0 -80 -39t-31 -101v-252h-126v496zM167 707h99l63 -60l63 60h99l-117 -157h-90z" />
    <glyph glyph-name="Eng" unicode="&#x14a;" 
d="M295.5 -212.5q-25.5 5.5 -51.5 18.5l46 114q15 -9 28 -12.5t33 -3.5q26 0 43 19.5t17 58.5v18l-202 408q-18 36 -30 64v-472h-122v700h134l202 -408q24 -50 30 -64v472h122v-700q0 -99 -45.5 -158.5t-144.5 -59.5q-34 0 -59.5 5.5z" />
    <glyph glyph-name="eng" unicode="&#x14b;" 
d="M248 -177q-45 34 -45 88q0 32 14 59l103 -36q-2 -8 -2 -12q0 -14 13 -22.5t31 -8.5q26 0 37 17.5t11 50.5v327q0 52 -20.5 79t-70.5 27t-82.5 -39t-32.5 -101v-252h-126v496h126v-80q30 45 72.5 69.5t94.5 24.5q78 0 121.5 -47t43.5 -125v-376q0 -79 -43 -126t-131 -47
q-69 0 -114 34z" />
    <glyph glyph-name="Omacron" unicode="&#x14c;" 
d="M94.5 80q-73.5 94 -73.5 270t73.5 270t206.5 94t206.5 -94t73.5 -270t-73.5 -270t-206.5 -94t-206.5 94zM447 350q0 242 -146 242t-146 -242t146 -242t146 242zM177 886h248v-94h-248v94z" />
    <glyph glyph-name="omacron" unicode="&#x14d;" 
d="M170.5 16q-60.5 30 -97.5 89.5t-37 142.5t37 142.5t97.5 89.5t130.5 30t130.5 -30t97.5 -89.5t37 -142.5t-37 -142.5t-97.5 -89.5t-130.5 -30t-130.5 30zM400 141q38 37 38 107t-38 107t-99 37t-99 -37t-38 -107t38 -107t99 -37t99 37zM177 682h248v-94h-248v94z" />
    <glyph glyph-name="Obreve" unicode="&#x14e;" 
d="M94.5 80q-73.5 94 -73.5 270t73.5 270t206.5 94t206.5 -94t73.5 -270t-73.5 -270t-206.5 -94t-206.5 94zM447 350q0 242 -146 242t-146 -242t146 -242t146 242zM218.5 800q-31.5 32 -31.5 81h76q0 -19 10 -31t28 -12t28 12t10 31h76q0 -49 -31.5 -81t-82.5 -32t-82.5 32z
" />
    <glyph glyph-name="obreve" unicode="&#x14f;" 
d="M170.5 16q-60.5 30 -97.5 89.5t-37 142.5t37 142.5t97.5 89.5t130.5 30t130.5 -30t97.5 -89.5t37 -142.5t-37 -142.5t-97.5 -89.5t-130.5 -30t-130.5 30zM400 141q38 37 38 107t-38 107t-99 37t-99 -37t-38 -107t38 -107t99 -37t99 37zM218.5 596q-31.5 32 -31.5 81h76
q0 -19 10 -31t28 -12t28 12t10 31h76q0 -49 -31.5 -81t-82.5 -32t-82.5 32z" />
    <glyph glyph-name="Ohungarumlaut" unicode="&#x150;" 
d="M94.5 80q-73.5 94 -73.5 270t73.5 270t206.5 94t206.5 -94t73.5 -270t-73.5 -270t-206.5 -94t-206.5 94zM447 350q0 242 -146 242t-146 -242t146 -242t146 242zM225 912h159l-129 -158h-103zM415 912h159l-129 -158h-103z" />
    <glyph glyph-name="ohungarumlaut" unicode="&#x151;" 
d="M170.5 16q-60.5 30 -97.5 89.5t-37 142.5t37 142.5t97.5 89.5t130.5 30t130.5 -30t97.5 -89.5t37 -142.5t-37 -142.5t-97.5 -89.5t-130.5 -30t-130.5 30zM400 141q38 37 38 107t-38 107t-99 37t-99 -37t-38 -107t38 -107t99 -37t99 37zM225 708h159l-129 -158h-103z
M415 708h159l-129 -158h-103z" />
    <glyph glyph-name="OE" unicode="&#x152;" 
d="M147 40.5q-60 40.5 -93 119t-33 190.5t33 190.5t93 119t141 40.5h293v-118h-170v-161h154v-118h-154v-185h173v-118h-296q-81 0 -141 40.5zM279 578q-64 -7 -94 -63t-30 -165t30 -165t94 -63v456z" />
    <glyph glyph-name="oe" unicode="&#x153;" 
d="M171 19q-58 33 -90 92t-32 137t32.5 137t91 92t133.5 33q70 0 126 -32t88 -88.5t32 -127.5v-44h-203v-115q59 16 88 86l101 -55q-39 -76 -96.5 -112t-137.5 -36q-75 0 -133 33zM433 310q-7 36 -28.5 60.5t-55.5 33.5v-94h84zM244 398q-36 -17 -57 -55t-21 -94
q0 -53 21 -89t57 -52v290z" />
    <glyph glyph-name="Racute" unicode="&#x154;" 
d="M57 700h252q115 0 182 -53.5t67 -144.5q0 -81 -38 -129t-110 -77l167 -296h-151l-159 284h-78v-284h-132v700zM316 400q110 0 110 92t-110 92h-127v-184h127zM280 912h159l-129 -158h-103z" />
    <glyph glyph-name="racute" unicode="&#x155;" 
d="M93 496h126v-68q24 38 63.5 60t88.5 22q82 0 121.5 -42.5t39.5 -105.5q0 -44 -17 -80l-112 41l1 14q0 28 -20.5 45.5t-52.5 17.5q-54 0 -83 -38.5t-29 -105.5v-256h-126v496zM340 708h159l-129 -158h-103z" />
    <glyph glyph-name="uni0156" unicode="&#x156;" 
d="M57 700h252q115 0 182 -53.5t67 -144.5q0 -81 -38 -129t-110 -77l167 -296h-151l-159 284h-78v-284h-132v700zM316 400q110 0 110 92t-110 92h-127v-184h127zM252 -286l30 108h-43v118h124v-118l-82 -119z" />
    <glyph glyph-name="uni0157" unicode="&#x157;" 
d="M93 496h126v-68q24 38 63.5 60t88.5 22q82 0 121.5 -42.5t39.5 -105.5q0 -44 -17 -80l-112 41l1 14q0 28 -20.5 45.5t-52.5 17.5q-54 0 -83 -38.5t-29 -105.5v-256h-126v496zM107 -286l30 108h-43v118h124v-118l-82 -119z" />
    <glyph glyph-name="Rcaron" unicode="&#x158;" 
d="M57 700h252q115 0 182 -53.5t67 -144.5q0 -81 -38 -129t-110 -77l167 -296h-151l-159 284h-78v-284h-132v700zM316 400q110 0 110 92t-110 92h-127v-184h127zM109 911h99l63 -60l63 60h99l-117 -157h-90z" />
    <glyph glyph-name="rcaron" unicode="&#x159;" 
d="M93 496h126v-68q24 38 63.5 60t88.5 22q82 0 121.5 -42.5t39.5 -105.5q0 -44 -17 -80l-112 41l1 14q0 28 -20.5 45.5t-52.5 17.5q-54 0 -83 -38.5t-29 -105.5v-256h-126v496zM169 707h99l63 -60l63 60h99l-117 -157h-90z" />
    <glyph glyph-name="Sacute" unicode="&#x15a;" 
d="M130.5 47q-71.5 61 -96.5 163l116 59q17 -82 57 -124.5t115 -42.5q52 0 84.5 27t32.5 71q0 46 -36.5 71.5t-121.5 40.5q-98 17 -159.5 69t-61.5 136q0 57 30 102t84.5 70t124.5 25q102 0 170 -49.5t92 -129.5l-104 -63q-22 68 -60 97t-98 29q-47 0 -80 -17.5t-33 -55.5
q0 -40 40.5 -66t129.5 -43q113 -22 164 -73t51 -140q0 -58 -30 -108t-87 -79.5t-132 -29.5q-120 0 -191.5 61zM310 912h159l-129 -158h-103z" />
    <glyph glyph-name="sacute" unicode="&#x15b;" 
d="M152 29q-60 43 -88 108l101 64q17 -51 50 -80t91 -29q39 0 66.5 14.5t27.5 40.5q0 28 -29.5 42t-94.5 22q-83 11 -131.5 50.5t-48.5 99.5q0 71 54 110t140 39q83 0 135 -31.5t81 -97.5l-90 -50q-17 40 -50 63.5t-77 23.5q-34 0 -57.5 -13t-23.5 -38q0 -51 123 -65
q92 -10 138.5 -48.5t46.5 -102.5q0 -77 -58 -121t-154 -44q-92 0 -152 43zM310 708h159l-129 -158h-103z" />
    <glyph glyph-name="Scircumflex" unicode="&#x15c;" 
d="M130.5 47q-71.5 61 -96.5 163l116 59q17 -82 57 -124.5t115 -42.5q52 0 84.5 27t32.5 71q0 46 -36.5 71.5t-121.5 40.5q-98 17 -159.5 69t-61.5 136q0 57 30 102t84.5 70t124.5 25q102 0 170 -49.5t92 -129.5l-104 -63q-22 68 -60 97t-98 29q-47 0 -80 -17.5t-33 -55.5
q0 -40 40.5 -66t129.5 -43q113 -22 164 -73t51 -140q0 -58 -30 -108t-87 -79.5t-132 -29.5q-120 0 -191.5 61zM256 911h90l117 -157h-99l-63 60l-63 -60h-99z" />
    <glyph glyph-name="scircumflex" unicode="&#x15d;" 
d="M152 29q-60 43 -88 108l101 64q17 -51 50 -80t91 -29q39 0 66.5 14.5t27.5 40.5q0 28 -29.5 42t-94.5 22q-83 11 -131.5 50.5t-48.5 99.5q0 71 54 110t140 39q83 0 135 -31.5t81 -97.5l-90 -50q-17 40 -50 63.5t-77 23.5q-34 0 -57.5 -13t-23.5 -38q0 -51 123 -65
q92 -10 138.5 -48.5t46.5 -102.5q0 -77 -58 -121t-154 -44q-92 0 -152 43zM256 707h90l117 -157h-99l-63 60l-63 -60h-99z" />
    <glyph glyph-name="Scedilla" unicode="&#x15e;" 
d="M543 99q-28 -48 -80.5 -78.5t-122.5 -34.5l-23 -39q17 9 40 9q35 0 56.5 -22t21.5 -56q0 -38 -27.5 -60t-67.5 -22q-38 0 -62.5 16t-31.5 45l66 17q4 -22 28 -22q11 0 18 6.5t7 18.5q0 14 -7.5 21.5t-20.5 7.5q-14 0 -24 -4.5t-21 -13.5l-37 33l23 67q-100 11 -161 70.5
t-83 151.5l116 59q17 -82 57 -124.5t115 -42.5q52 0 84.5 27t32.5 71q0 46 -36.5 71.5t-121.5 40.5q-98 17 -159.5 69t-61.5 136q0 57 30 102t84.5 70t124.5 25q102 0 170 -49.5t92 -129.5l-104 -63q-22 68 -60 97t-98 29q-47 0 -80 -17.5t-33 -55.5q0 -40 40.5 -66
t129.5 -43q113 -22 164 -73t51 -140q0 -56 -28 -104z" />
    <glyph glyph-name="scedilla" unicode="&#x15f;" 
d="M461.5 32.5q-54.5 -43.5 -146.5 -46.5l-23 -39q17 9 40 9q35 0 56.5 -22t21.5 -56q0 -38 -27.5 -60t-67.5 -22q-38 0 -62.5 16t-31.5 45l66 17q4 -22 28 -22q11 0 18 6.5t7 18.5q0 14 -7.5 21.5t-20.5 7.5q-14 0 -24 -4.5t-21 -13.5l-37 33l24 69q-71 11 -118.5 51
t-71.5 96l101 64q17 -51 50 -80t91 -29q39 0 66.5 14.5t27.5 40.5q0 28 -29.5 42t-94.5 22q-83 11 -131.5 50.5t-48.5 99.5q0 71 54 110t140 39q83 0 135 -31.5t81 -97.5l-90 -50q-17 40 -50 63.5t-77 23.5q-34 0 -57.5 -13t-23.5 -38q0 -51 123 -65q92 -10 138.5 -48.5
t46.5 -102.5q0 -75 -54.5 -118.5z" />
    <glyph glyph-name="Scaron" unicode="&#x160;" 
d="M130.5 47q-71.5 61 -96.5 163l116 59q17 -82 57 -124.5t115 -42.5q52 0 84.5 27t32.5 71q0 46 -36.5 71.5t-121.5 40.5q-98 17 -159.5 69t-61.5 136q0 57 30 102t84.5 70t124.5 25q102 0 170 -49.5t92 -129.5l-104 -63q-22 68 -60 97t-98 29q-47 0 -80 -17.5t-33 -55.5
q0 -40 40.5 -66t129.5 -43q113 -22 164 -73t51 -140q0 -58 -30 -108t-87 -79.5t-132 -29.5q-120 0 -191.5 61zM139 911h99l63 -60l63 60h99l-117 -157h-90z" />
    <glyph glyph-name="scaron" unicode="&#x161;" 
d="M152 29q-60 43 -88 108l101 64q17 -51 50 -80t91 -29q39 0 66.5 14.5t27.5 40.5q0 28 -29.5 42t-94.5 22q-83 11 -131.5 50.5t-48.5 99.5q0 71 54 110t140 39q83 0 135 -31.5t81 -97.5l-90 -50q-17 40 -50 63.5t-77 23.5q-34 0 -57.5 -13t-23.5 -38q0 -51 123 -65
q92 -10 138.5 -48.5t46.5 -102.5q0 -77 -58 -121t-154 -44q-92 0 -152 43zM139 707h99l63 -60l63 60h99l-117 -157h-90z" />
    <glyph glyph-name="uni0162" unicode="&#x162;" 
d="M327 0l-31 -53q17 9 40 9q35 0 56.5 -22t21.5 -56q0 -38 -27.5 -60t-67.5 -22q-38 0 -62.5 16t-31.5 45l66 17q4 -22 28 -22q11 0 18 6.5t7 18.5q0 14 -7.5 21.5t-20.5 7.5q-14 0 -24 -4.5t-21 -13.5l-37 33l27 79h-26v578h-188v122h508v-122h-188v-578h-40z" />
    <glyph glyph-name="uni0163" unicode="&#x163;" 
d="M439.5 -66q21.5 -22 21.5 -56q0 -38 -27.5 -60t-67.5 -22q-38 0 -62.5 16t-31.5 45l66 17q4 -22 28 -22q11 0 18 6.5t7 18.5q0 14 -7.5 21.5t-20.5 7.5q-14 0 -24 -4.5t-21 -13.5l-37 33l25 72q-57 16 -89.5 63t-32.5 123v215h-118v102h118v134h126v-134h161v-102h-161
v-207q0 -51 20 -70t54 -19q39 0 74 33l48 -93q-56 -50 -140 -52l-23 -39q17 9 40 9q35 0 56.5 -22z" />
    <glyph glyph-name="Tcaron" unicode="&#x164;" 
d="M235 578h-188v122h508v-122h-188v-578h-132v578zM139 911h99l63 -60l63 60h99l-117 -157h-90z" />
    <glyph glyph-name="tcaron" unicode="&#x165;" 
d="M233 35.5q-49 49.5 -49 143.5v215h-118v102h118v134h126v-134h161v-102h-161v-207q0 -51 20 -70t54 -19q39 0 74 33l48 -93q-58 -52 -143 -52q-81 0 -130 49.5zM399 539l52 97h-46v114h114v-114l-93 -112z" />
    <glyph glyph-name="Tbar" unicode="&#x166;" 
d="M235 344h-126v94h126v140h-188v122h508v-122h-188v-140h126v-94h-126v-344h-132v344z" />
    <glyph glyph-name="tbar" unicode="&#x167;" 
d="M233 35.5q-49 49.5 -49 143.5v33h-89v96h89v86h-118v102h118v134h126v-134h161v-102h-161v-86h133v-96h-133v-25q0 -51 20 -70t54 -19q39 0 74 33l48 -93q-58 -52 -143 -52q-81 0 -130 49.5z" />
    <glyph glyph-name="Utilde" unicode="&#x168;" 
d="M112.5 55.5q-68.5 69.5 -68.5 197.5v447h132v-452q0 -69 33.5 -104.5t91.5 -35.5t91.5 35.5t33.5 104.5v452h132v-447q0 -128 -68.5 -197.5t-188.5 -69.5t-188.5 69.5zM319 765q-21 11 -41 31q-13 12 -22.5 18t-21.5 6q-10 0 -17.5 -6t-7.5 -16q0 -12 7 -26l-74 -15
q-6 9 -10 24t-4 29q0 45 29.5 68t68.5 23q36 0 57 -11t41 -31q13 -12 22.5 -18t21.5 -6q10 0 17.5 6t7.5 16q0 12 -7 26l74 15q6 -9 10 -24t4 -29q0 -45 -29.5 -68t-68.5 -23q-36 0 -57 11z" />
    <glyph glyph-name="utilde" unicode="&#x169;" 
d="M120 33.5q-48 47.5 -48 124.5v338h126v-286q0 -106 95 -106q49 0 80 39t31 101v252h126v-496h-126v74q-28 -44 -65 -66t-92 -22q-79 0 -127 47.5zM319 561q-21 11 -41 31q-13 12 -22.5 18t-21.5 6q-10 0 -17.5 -6t-7.5 -16q0 -12 7 -26l-74 -15q-6 9 -10 24t-4 29
q0 45 29.5 68t68.5 23q36 0 57 -11t41 -31q13 -12 22.5 -18t21.5 -6q10 0 17.5 6t7.5 16q0 12 -7 26l74 15q6 -9 10 -24t4 -29q0 -45 -29.5 -68t-68.5 -23q-36 0 -57 11z" />
    <glyph glyph-name="Umacron" unicode="&#x16a;" 
d="M112.5 55.5q-68.5 69.5 -68.5 197.5v447h132v-452q0 -69 33.5 -104.5t91.5 -35.5t91.5 35.5t33.5 104.5v452h132v-447q0 -128 -68.5 -197.5t-188.5 -69.5t-188.5 69.5zM177 886h248v-94h-248v94z" />
    <glyph glyph-name="umacron" unicode="&#x16b;" 
d="M120 33.5q-48 47.5 -48 124.5v338h126v-286q0 -106 95 -106q49 0 80 39t31 101v252h126v-496h-126v74q-28 -44 -65 -66t-92 -22q-79 0 -127 47.5zM177 682h248v-94h-248v94z" />
    <glyph glyph-name="Ubreve" unicode="&#x16c;" 
d="M112.5 55.5q-68.5 69.5 -68.5 197.5v447h132v-452q0 -69 33.5 -104.5t91.5 -35.5t91.5 35.5t33.5 104.5v452h132v-447q0 -128 -68.5 -197.5t-188.5 -69.5t-188.5 69.5zM218.5 800q-31.5 32 -31.5 81h76q0 -19 10 -31t28 -12t28 12t10 31h76q0 -49 -31.5 -81t-82.5 -32
t-82.5 32z" />
    <glyph glyph-name="ubreve" unicode="&#x16d;" 
d="M120 33.5q-48 47.5 -48 124.5v338h126v-286q0 -106 95 -106q49 0 80 39t31 101v252h126v-496h-126v74q-28 -44 -65 -66t-92 -22q-79 0 -127 47.5zM218.5 596q-31.5 32 -31.5 81h76q0 -19 10 -31t28 -12t28 12t10 31h76q0 -49 -31.5 -81t-82.5 -32t-82.5 32z" />
    <glyph glyph-name="Uring" unicode="&#x16e;" 
d="M112.5 55.5q-68.5 69.5 -68.5 197.5v447h132v-452q0 -69 33.5 -104.5t91.5 -35.5t91.5 35.5t33.5 104.5v452h132v-447q0 -128 -68.5 -197.5t-188.5 -69.5t-188.5 69.5zM233 771.5q-28 27.5 -28 67.5t28 67.5t68 27.5t68 -27.5t28 -67.5t-28 -67.5t-68 -27.5t-68 27.5z
M325 814q9 9 9 25t-9 25t-24 9t-24 -9t-9 -25t9 -25t24 -9t24 9z" />
    <glyph glyph-name="uring" unicode="&#x16f;" 
d="M120 33.5q-48 47.5 -48 124.5v338h126v-286q0 -106 95 -106q49 0 80 39t31 101v252h126v-496h-126v74q-28 -44 -65 -66t-92 -22q-79 0 -127 47.5zM233 567.5q-28 27.5 -28 67.5t28 67.5t68 27.5t68 -27.5t28 -67.5t-28 -67.5t-68 -27.5t-68 27.5zM325 610q9 9 9 25t-9 25
t-24 9t-24 -9t-9 -25t9 -25t24 -9t24 9z" />
    <glyph glyph-name="Uhungarumlaut" unicode="&#x170;" 
d="M112.5 55.5q-68.5 69.5 -68.5 197.5v447h132v-452q0 -69 33.5 -104.5t91.5 -35.5t91.5 35.5t33.5 104.5v452h132v-447q0 -128 -68.5 -197.5t-188.5 -69.5t-188.5 69.5zM225 912h159l-129 -158h-103zM415 912h159l-129 -158h-103z" />
    <glyph glyph-name="uhungarumlaut" unicode="&#x171;" 
d="M120 33.5q-48 47.5 -48 124.5v338h126v-286q0 -106 95 -106q49 0 80 39t31 101v252h126v-496h-126v74q-28 -44 -65 -66t-92 -22q-79 0 -127 47.5zM225 708h159l-129 -158h-103zM415 708h159l-129 -158h-103z" />
    <glyph glyph-name="Uogonek" unicode="&#x172;" 
d="M558 700v-447q0 -102 -44 -167.5t-125 -88.5q-30 -17 -48.5 -36.5t-18.5 -38.5q0 -18 11.5 -28t29.5 -10q9 0 22 2l11 -77q-26 -7 -60 -7q-45 0 -79.5 25t-34.5 69q0 51 44 92q-104 10 -163 78.5t-59 186.5v447h132v-452q0 -69 33.5 -104.5t91.5 -35.5t91.5 35.5
t33.5 104.5v452h132z" />
    <glyph glyph-name="uogonek" unicode="&#x173;" 
d="M532 -191q-26 -7 -60 -7q-45 0 -79.5 25t-34.5 69q0 61 59 104h-13v74q-28 -44 -65 -66t-92 -22q-79 0 -127 47.5t-48 124.5v338h126v-286q0 -106 95 -106q49 0 80 39t31 101v252h126v-496q-32 -18 -52 -38t-20 -40q0 -18 11.5 -28t29.5 -10q9 0 22 2z" />
    <glyph glyph-name="Wcircumflex" unicode="&#x174;" 
d="M1 700h128l36 -394l6 -69l10 70l59 393h122l59 -393l10 -70l6 69l36 394h128l-97 -700h-134l-69 474l-69 -474h-134zM256 911h90l117 -157h-99l-63 60l-63 -60h-99z" />
    <glyph glyph-name="wcircumflex" unicode="&#x175;" 
d="M10 496h120l46 -322l66 322h118l66 -322l46 322h120l-99 -496h-126l-66 337l-66 -337h-126zM256 707h90l117 -157h-99l-63 60l-63 -60h-99z" />
    <glyph glyph-name="Ycircumflex" unicode="&#x176;" 
d="M235 274l-219 426h145l118 -235q11 -23 22 -50q11 27 22 50l118 235h145l-219 -426v-274h-132v274zM256 911h90l117 -157h-99l-63 60l-63 -60h-99z" />
    <glyph glyph-name="ycircumflex" unicode="&#x177;" 
d="M116.5 -206.5q-19.5 4.5 -42.5 16.5l38 107q22 -12 47 -12q22 0 37 10.5t25 36.5l21 54l-214 490h140l137 -331l133 331h137l-248 -586q-27 -64 -66.5 -92.5t-97.5 -28.5q-27 0 -46.5 4.5zM261 707h90l117 -157h-99l-63 60l-63 -60h-99z" />
    <glyph glyph-name="Ydieresis" unicode="&#x178;" 
d="M235 274l-219 426h145l118 -235q11 -23 22 -50q11 27 22 50l118 235h145l-219 -426v-274h-132v274zM148 904h122v-126h-122v126zM332 904h122v-126h-122v126z" />
    <glyph glyph-name="Zacute" unicode="&#x179;" 
d="M35 120l343 458h-330v122h483v-122l-341 -456h358v-122h-513v120zM300 912h159l-129 -158h-103z" />
    <glyph glyph-name="zacute" unicode="&#x17a;" 
d="M83 102l276 292h-265v102h411v-102l-277 -292h294v-102h-439v102zM310 708h159l-129 -158h-103z" />
    <glyph glyph-name="Zdotaccent" unicode="&#x17b;" 
d="M35 120l343 458h-330v122h483v-122l-341 -456h358v-122h-513v120zM222 904h138v-132h-138v132z" />
    <glyph glyph-name="zdotaccent" unicode="&#x17c;" 
d="M83 102l276 292h-265v102h411v-102l-277 -292h294v-102h-439v102zM232 700h138v-132h-138v132z" />
    <glyph glyph-name="Zcaron" unicode="&#x17d;" 
d="M35 120l343 458h-330v122h483v-122l-341 -456h358v-122h-513v120zM129 911h99l63 -60l63 60h99l-117 -157h-90z" />
    <glyph glyph-name="zcaron" unicode="&#x17e;" 
d="M83 102l276 292h-265v102h411v-102l-277 -292h294v-102h-439v102zM139 707h99l63 -60l63 60h99l-117 -157h-90z" />
    <glyph glyph-name="florin" unicode="&#x192;" 
d="M76 -208.5q-29 9.5 -58 26.5l41 105q34 -25 76 -25q34 0 50 21t16 67v408h-131v102h131v48q0 69 27 115t71 68.5t96 22.5q39 0 69 -9.5t59 -26.5l-41 -111q-40 31 -78 31q-35 0 -56 -21.5t-21 -62.5v-54h184v-102h-184v-406q0 -103 -50 -154.5t-129 -51.5q-43 0 -72 9.5z
" />
    <glyph glyph-name="uni01B5" unicode="&#x1b5;" 
d="M35 120l140 187h-115v94h185l133 177h-330v122h483v-122l-133 -177h117v-94h-187l-138 -185h358v-122h-513v120z" />
    <glyph glyph-name="uni01B6" unicode="&#x1b6;" 
d="M73 102l102 108h-69v96h160l83 88h-265v102h411v-102l-84 -88h69v-96h-160l-102 -108h294v-102h-439v102z" />
    <glyph glyph-name="AEacute" unicode="&#x1fc;" 
d="M164 700h420v-118h-212v-161h184v-118h-184v-185h215v-118h-335v183h-91l-39 -183h-122zM252 301v281h-9q-9 -64 -17 -100l-39 -181h65zM357 912h159l-129 -158h-103z" />
    <glyph glyph-name="aeacute" unicode="&#x1fd;" 
d="M41 28q-40 42 -40 113q0 74 54 118t145 49l32 2v40q0 35 -12.5 53.5t-42.5 18.5q-27 0 -40.5 -15t-13.5 -36q0 -6 2 -14l-103 -36q-8 16 -8 42q0 39 18.5 72.5t54 54t83.5 20.5q94 0 134 -61q17 26 48 43.5t71 17.5q86 0 127.5 -65t41.5 -173v-54h-246q0 -54 14 -88
t53 -34q32 0 47.5 19.5t25.5 66.5l99 -32q-21 -79 -59 -121.5t-115 -42.5q-48 0 -80 24t-48 61q-23 -41 -53.5 -63t-77.5 -22q-71 0 -111 42zM473 310q0 47 -13 72.5t-47 25.5q-30 0 -48 -27t-19 -71h127zM216.5 122.5q15.5 34.5 15.5 95.5q-63 0 -91.5 -23t-28.5 -57
q0 -24 14.5 -37t34.5 -13q40 0 55.5 34.5zM310 708h159l-129 -158h-103z" />
    <glyph glyph-name="uni0218" unicode="&#x218;" 
d="M130.5 47q-71.5 61 -96.5 163l116 59q17 -82 57 -124.5t115 -42.5q52 0 84.5 27t32.5 71q0 46 -36.5 71.5t-121.5 40.5q-98 17 -159.5 69t-61.5 136q0 57 30 102t84.5 70t124.5 25q102 0 170 -49.5t92 -129.5l-104 -63q-22 68 -60 97t-98 29q-47 0 -80 -17.5t-33 -55.5
q0 -40 40.5 -66t129.5 -43q113 -22 164 -73t51 -140q0 -58 -30 -108t-87 -79.5t-132 -29.5q-120 0 -191.5 61zM273 -286l30 108h-43v118h124v-118l-82 -119z" />
    <glyph glyph-name="uni0219" unicode="&#x219;" 
d="M152 29q-60 43 -88 108l101 64q17 -51 50 -80t91 -29q39 0 66.5 14.5t27.5 40.5q0 28 -29.5 42t-94.5 22q-83 11 -131.5 50.5t-48.5 99.5q0 71 54 110t140 39q83 0 135 -31.5t81 -97.5l-90 -50q-17 40 -50 63.5t-77 23.5q-34 0 -57.5 -13t-23.5 -38q0 -51 123 -65
q92 -10 138.5 -48.5t46.5 -102.5q0 -77 -58 -121t-154 -44q-92 0 -152 43zM248 -286l30 108h-43v118h124v-118l-82 -119z" />
    <glyph glyph-name="uni021A" unicode="&#x21a;" 
d="M235 578h-188v122h508v-122h-188v-578h-132v578zM252 -286l30 108h-43v118h124v-118l-82 -119z" />
    <glyph glyph-name="uni021B" unicode="&#x21b;" 
d="M233 35.5q-49 49.5 -49 143.5v215h-118v102h118v134h126v-134h161v-102h-161v-207q0 -51 20 -70t54 -19q39 0 74 33l48 -93q-58 -52 -143 -52q-81 0 -130 49.5zM299 -286l30 108h-43v118h124v-118l-82 -119z" />
    <glyph glyph-name="uni0237" unicode="&#x237;" 
d="M161.5 -193q-41.5 18 -64 49t-22.5 69q0 32 12 56l118 -39q-2 -6 -2 -12q0 -15 14.5 -23t38.5 -8q32 0 45.5 19.5t13.5 58.5v417h-151v102h277v-523q0 -90 -48 -137t-134 -47q-56 0 -97.5 18z" />
    <glyph glyph-name="circumflex" unicode="&#x2c6;" 
d="M256 707h90l117 -157h-99l-63 60l-63 -60h-99z" />
    <glyph glyph-name="caron" unicode="&#x2c7;" 
d="M139 707h99l63 -60l63 60h99l-117 -157h-90z" />
    <glyph glyph-name="uni02C9" unicode="&#x2c9;" 
d="M177 682h248v-94h-248v94z" />
    <glyph glyph-name="breve" unicode="&#x2d8;" 
d="M218.5 596q-31.5 32 -31.5 81h76q0 -19 10 -31t28 -12t28 12t10 31h76q0 -49 -31.5 -81t-82.5 -32t-82.5 32z" />
    <glyph glyph-name="dotaccent" unicode="&#x2d9;" 
d="M232 700h138v-132h-138v132z" />
    <glyph glyph-name="ring" unicode="&#x2da;" 
d="M233 567.5q-28 27.5 -28 67.5t28 67.5t68 27.5t68 -27.5t28 -67.5t-28 -67.5t-68 -27.5t-68 27.5zM325 610q9 9 9 25t-9 25t-24 9t-24 -9t-9 -25t9 -25t24 -9t24 9z" />
    <glyph glyph-name="ogonek" unicode="&#x2db;" 
d="M246.5 -173q-34.5 25 -34.5 69q0 36 21 65.5t56 50.5l95 -12q-32 -18 -52 -38t-20 -40q0 -18 11.5 -28t29.5 -10q9 0 22 2l11 -77q-26 -7 -60 -7q-45 0 -79.5 25z" />
    <glyph glyph-name="tilde" unicode="&#x2dc;" 
d="M319 561q-21 11 -41 31q-13 12 -22.5 18t-21.5 6q-10 0 -17.5 -6t-7.5 -16q0 -12 7 -26l-74 -15q-6 9 -10 24t-4 29q0 45 29.5 68t68.5 23q36 0 57 -11t41 -31q13 -12 22.5 -18t21.5 -6q10 0 17.5 6t7.5 16q0 12 -7 26l74 15q6 -9 10 -24t4 -29q0 -45 -29.5 -68
t-68.5 -23q-36 0 -57 11z" />
    <glyph glyph-name="hungarumlaut" unicode="&#x2dd;" 
d="M163 708h159l-129 -158h-103zM353 708h159l-129 -158h-103z" />
    <glyph glyph-name="gravecomb" unicode="&#x300;" horiz-adv-x="0" 
d="M-421 708h159l73 -158h-103z" />
    <glyph glyph-name="acutecomb" unicode="&#x301;" horiz-adv-x="0" 
d="M-340 708h159l-129 -158h-103z" />
    <glyph glyph-name="uni0302" unicode="&#x302;" horiz-adv-x="0" 
d="M-346 707h90l117 -157h-99l-63 60l-63 -60h-99z" />
    <glyph glyph-name="tildecomb" unicode="&#x303;" horiz-adv-x="0" 
d="M-283 561q-21 11 -41 31q-13 12 -22.5 18t-21.5 6q-10 0 -17.5 -6t-7.5 -16q0 -12 7 -26l-74 -15q-6 9 -10 24t-4 29q0 45 29.5 68t68.5 23q36 0 57 -11t41 -31q13 -12 22.5 -18t21.5 -6q10 0 17.5 6t7.5 16q0 12 -7 26l74 15q6 -9 10 -24t4 -29q0 -45 -29.5 -68
t-68.5 -23q-36 0 -57 11z" />
    <glyph glyph-name="uni0304" unicode="&#x304;" horiz-adv-x="0" 
d="M-425 682h248v-94h-248v94z" />
    <glyph glyph-name="uni0306" unicode="&#x306;" horiz-adv-x="0" 
d="M-383.5 596q-31.5 32 -31.5 81h76q0 -19 10 -31t28 -12t28 12t10 31h76q0 -49 -31.5 -81t-82.5 -32t-82.5 32z" />
    <glyph glyph-name="uni0307" unicode="&#x307;" horiz-adv-x="0" 
d="M-370 700h138v-132h-138v132z" />
    <glyph glyph-name="uni0308" unicode="&#x308;" horiz-adv-x="0" 
d="M-454 700h122v-126h-122v126zM-270 700h122v-126h-122v126z" />
    <glyph glyph-name="uni030A" unicode="&#x30a;" horiz-adv-x="0" 
d="M-369 567.5q-28 27.5 -28 67.5t28 67.5t68 27.5t68 -27.5t28 -67.5t-28 -67.5t-68 -27.5t-68 27.5zM-277 610q9 9 9 25t-9 25t-24 9t-24 -9t-9 -25t9 -25t24 -9t24 9z" />
    <glyph glyph-name="uni030B" unicode="&#x30b;" horiz-adv-x="0" 
d="M-439 708h159l-129 -158h-103zM-249 708h159l-129 -158h-103z" />
    <glyph glyph-name="uni030C" unicode="&#x30c;" horiz-adv-x="0" 
d="M-463 707h99l63 -60l63 60h99l-117 -157h-90z" />
    <glyph glyph-name="uni0312" unicode="&#x312;" horiz-adv-x="0" 
d="M-376 692l122 136l25 -22l-67 -114h52v-129h-132v129z" />
    <glyph glyph-name="uni0326" unicode="&#x326;" horiz-adv-x="0" 
d="M-335 -286l30 108h-43v118h124v-118l-82 -119z" />
    <glyph glyph-name="uni0327" unicode="&#x327;" horiz-adv-x="0" 
d="M-366.5 -188q-24.5 16 -31.5 45l66 17q4 -22 28 -22q11 0 18 6.5t7 18.5q0 14 -7.5 21.5t-20.5 7.5q-14 0 -24 -4.5t-21 -13.5l-37 33l33 95h70l-41 -69q17 9 40 9q35 0 56.5 -22t21.5 -56q0 -38 -27.5 -60t-67.5 -22q-38 0 -62.5 16z" />
    <glyph glyph-name="uni0328" unicode="&#x328;" horiz-adv-x="0" 
d="M-355.5 -173q-34.5 25 -34.5 69q0 36 21 65.5t56 50.5l95 -12q-32 -18 -52 -38t-20 -40q0 -18 11.5 -28t29.5 -10q9 0 22 2l11 -77q-26 -7 -60 -7q-45 0 -79.5 25z" />
    <glyph glyph-name="uni0394" unicode="&#x394;" 
d="M237 700h128l237 -700h-602zM423 118l-103 330q-11 36 -19 77q-8 -41 -19 -77l-103 -330h244z" />
    <glyph glyph-name="uni03A9" unicode="&#x3a9;" 
d="M31 96h108q-53 47 -91.5 132t-38.5 184q0 89 37.5 157.5t104 106.5t150.5 38t150.5 -38t104 -106.5t37.5 -157.5q0 -99 -38.5 -184t-91.5 -132h108v-96h-248v104q63 39 100.5 119.5t37.5 175.5q0 89 -44 141t-116 52t-116 -52t-44 -141q0 -95 37.5 -175.5t100.5 -119.5
v-104h-248v96z" />
    <glyph glyph-name="uni03BC" unicode="&#x3bc;" 
d="M75 496h126v-286q0 -106 95 -106q49 0 80 39t31 101v252h126v-496h-126v74q-28 -44 -65 -66t-92 -22q-29 0 -53 6q4 -44 4 -63v-133h-126v700z" />
    <glyph glyph-name="pi" unicode="&#x3c0;" 
d="M389 26.5q-39 40.5 -39 117.5v250h-101v-394h-126v394h-104v102h561v-102h-104v-230q0 -35 12.5 -50.5t37.5 -15.5q19 0 37 6l12 -104q-20 -7 -37 -10.5t-44 -3.5q-66 0 -105 40.5z" />
    <glyph glyph-name="Wgrave" unicode="&#x1e80;" 
d="M1 700h128l36 -394l6 -69l10 70l59 393h122l59 -393l10 -70l6 69l36 394h128l-97 -700h-134l-69 474l-69 -474h-134zM133 912h159l73 -158h-103z" />
    <glyph glyph-name="wgrave" unicode="&#x1e81;" 
d="M10 496h120l46 -322l66 322h118l66 -322l46 322h120l-99 -496h-126l-66 337l-66 -337h-126zM133 708h159l73 -158h-103z" />
    <glyph glyph-name="Wacute" unicode="&#x1e82;" 
d="M1 700h128l36 -394l6 -69l10 70l59 393h122l59 -393l10 -70l6 69l36 394h128l-97 -700h-134l-69 474l-69 -474h-134zM310 912h159l-129 -158h-103z" />
    <glyph glyph-name="wacute" unicode="&#x1e83;" 
d="M10 496h120l46 -322l66 322h118l66 -322l46 322h120l-99 -496h-126l-66 337l-66 -337h-126zM310 708h159l-129 -158h-103z" />
    <glyph glyph-name="Wdieresis" unicode="&#x1e84;" 
d="M1 700h128l36 -394l6 -69l10 70l59 393h122l59 -393l10 -70l6 69l36 394h128l-97 -700h-134l-69 474l-69 -474h-134zM148 904h122v-126h-122v126zM332 904h122v-126h-122v126z" />
    <glyph glyph-name="wdieresis" unicode="&#x1e85;" 
d="M10 496h120l46 -322l66 322h118l66 -322l46 322h120l-99 -496h-126l-66 337l-66 -337h-126zM148 700h122v-126h-122v126zM332 700h122v-126h-122v126z" />
    <glyph glyph-name="uni1E9E" unicode="&#x1e9e;" 
d="M268 13q-45 27 -70 79l103 64q12 -23 31 -35.5t43 -12.5q31 0 51 25.5t20 72.5q0 122 -153 122v102l104 152h-120q-49 0 -76 -26.5t-27 -78.5v-477h-132v477q0 223 235 223h250v-118l-109 -152q76 -18 117 -76t41 -148q0 -107 -55 -163.5t-149 -56.5q-59 0 -104 27z" />
    <glyph glyph-name="Ygrave" unicode="&#x1ef2;" 
d="M235 274l-219 426h145l118 -235q11 -23 22 -50q11 27 22 50l118 235h145l-219 -426v-274h-132v274zM133 912h159l73 -158h-103z" />
    <glyph glyph-name="ygrave" unicode="&#x1ef3;" 
d="M116.5 -206.5q-19.5 4.5 -42.5 16.5l38 107q22 -12 47 -12q22 0 37 10.5t25 36.5l21 54l-214 490h140l137 -331l133 331h137l-248 -586q-27 -64 -66.5 -92.5t-97.5 -28.5q-27 0 -46.5 4.5zM138 708h159l73 -158h-103z" />
    <glyph glyph-name="endash" unicode="&#x2013;" 
d="M74 362h454v-102h-454v102z" />
    <glyph glyph-name="emdash" unicode="&#x2014;" 
d="M30 362h542v-102h-542v102z" />
    <glyph glyph-name="quoteleft" unicode="&#x2018;" 
d="M244 556l138 151l25 -22l-79 -129h56v-140h-140v140z" />
    <glyph glyph-name="quoteright" unicode="&#x2019;" 
d="M195 431l79 129h-56v140h140v-140l-138 -151z" />
    <glyph glyph-name="quotesinglbase" unicode="&#x201a;" 
d="M205 -129l79 129h-56v140h140v-140l-138 -151z" />
    <glyph glyph-name="quotedblleft" unicode="&#x201c;" 
d="M142 556l138 151l25 -22l-79 -129h56v-140h-140v140zM322 556l138 151l25 -22l-79 -129h56v-140h-140v140z" />
    <glyph glyph-name="quotedblright" unicode="&#x201d;" 
d="M117 431l79 129h-56v140h140v-140l-138 -151zM297 431l79 129h-56v140h140v-140l-138 -151z" />
    <glyph glyph-name="quotedblbase" unicode="&#x201e;" 
d="M116 -129l79 129h-56v140h140v-140l-138 -151zM296 -129l79 129h-56v140h140v-140l-138 -151z" />
    <glyph glyph-name="dagger" unicode="&#x2020;" 
d="M239 394h-162v102h162v244h122v-244h164v-102h-164v-504h-122v504z" />
    <glyph glyph-name="daggerdbl" unicode="&#x2021;" 
d="M240 134h-162v102h162v158h-162v102h162v244h122v-244h164v-102h-164v-158h164v-102h-164v-244h-122v244z" />
    <glyph glyph-name="bullet" unicode="&#x2022;" 
d="M214 188q-36 36 -36 87t36 87t87 36t87 -36t36 -87t-36 -87t-87 -36t-87 36z" />
    <glyph glyph-name="ellipsis" unicode="&#x2026;" 
d="M40 124h122v-124h-122v124zM240 124h122v-124h-122v124zM440 124h122v-124h-122v124z" />
    <glyph glyph-name="perthousand" unicode="&#x2030;" 
d="M122.5 443.5q-33.5 19.5 -53 52.5t-19.5 73t19.5 73t53 52.5t74.5 19.5t74.5 -19.5t53 -52.5t19.5 -73t-19.5 -73t-53 -52.5t-74.5 -19.5t-74.5 19.5zM245 519q19 19 19 50t-19 50t-48 19t-48 -19t-19 -50t19 -50t48 -19t48 19zM7 328l529 171l23 -77l-529 -171z
M148.5 5.5q-33.5 19.5 -53 52.5t-19.5 73t19.5 73t53 52.5t74.5 19.5q64 0 107 -45q43 45 107 45q41 0 74.5 -19.5t53 -52.5t19.5 -73t-19.5 -73t-53 -52.5t-74.5 -19.5q-64 0 -107 45q-43 -45 -107 -45q-41 0 -74.5 19.5zM271 81q19 19 19 50t-19 50t-48 19t-48 -19
t-19 -50t19 -50t48 -19t48 19zM485 81q19 19 19 50t-19 50t-48 19t-48 -19t-19 -50t19 -50t48 -19t48 19z" />
    <glyph glyph-name="guilsinglleft" unicode="&#x2039;" 
d="M138 275l175 214h142l-175 -214l175 -212h-142z" />
    <glyph glyph-name="guilsinglright" unicode="&#x203a;" 
d="M322 275l-175 214h142l175 -214l-175 -212h-142z" />
    <glyph glyph-name="fraction" unicode="&#x2044;" 
d="M53 221l450 326l46 -66l-450 -326z" />
    <glyph glyph-name="uni2070" unicode="&#x2070;" 
d="M218.5 445.5q-37.5 22.5 -59 64t-21.5 95.5t21.5 95.5t59 64t82.5 22.5t82.5 -22.5t59 -64t21.5 -95.5t-21.5 -95.5t-59 -64t-82.5 -22.5t-82.5 22.5zM319 709q-10 2 -18 2q-36 0 -57.5 -27.5t-21.5 -78.5q0 -36 12 -62zM358.5 526.5q21.5 27.5 21.5 78.5q0 37 -12 62
l-85 -166q10 -2 18 -2q36 0 57.5 27.5z" />
    <glyph glyph-name="uni2074" unicode="&#x2074;" 
d="M316 488h-176v66l176 226h84v-226h48v-66h-48v-58h-84v58zM316 554v116l-94 -116h94z" />
    <glyph glyph-name="uni2075" unicode="&#x2075;" 
d="M230.5 438q-31.5 15 -48.5 39t-17 51q0 17 5 29l81 -15q-2 -6 -2 -13q0 -18 16 -28.5t40 -10.5q29 0 45 16.5t16 43.5q0 25 -16.5 41.5t-46.5 16.5q-41 0 -70 -34l-62 18l18 188h239v-66h-177l-10 -72q12 12 33.5 19.5t45.5 7.5q56 0 91.5 -33t35.5 -86
q0 -58 -40.5 -92.5t-102.5 -34.5q-42 0 -73.5 15z" />
    <glyph glyph-name="uni2076" unicode="&#x2076;" 
d="M207.5 467q-40.5 44 -40.5 119q0 41 12 81.5t36 70.5q41 49 106 49q53 0 84.5 -26t31.5 -64q0 -16 -7 -30l-72 15q4 10 4 18q0 11 -12 18.5t-31 7.5q-33 0 -54 -29.5t-25 -75.5q14 17 36 27t48 10q51 0 85 -32t34 -84t-37 -85.5t-95 -33.5q-63 0 -103.5 44zM351.5 501.5
q16.5 15.5 16.5 39.5t-16.5 39.5t-40.5 15.5t-41 -15.5t-17 -39.5t17 -39.5t41 -15.5t40.5 15.5z" />
    <glyph glyph-name="uni2077" unicode="&#x2077;" 
d="M362 714h-172v66h252v-63l-135 -287h-79z" />
    <glyph glyph-name="uni2078" unicode="&#x2078;" 
d="M205 453.5q-39 30.5 -39 76.5q0 59 57 88q-46 26 -46 74q0 42 34.5 68.5t89.5 26.5t89.5 -26.5t34.5 -68.5q0 -48 -46 -74q57 -29 57 -88q0 -46 -39 -76.5t-96 -30.5t-96 30.5zM336 657q15 12 15 32t-15 32t-35 12t-35 -12t-15 -32t15 -32t35 -12t35 12zM342 497
q16 14 16 37q0 24 -16 37.5t-41 13.5t-41 -13.5t-16 -37.5q0 -23 16 -37t41 -14t41 14z" />
    <glyph glyph-name="uni2079" unicode="&#x2079;" 
d="M214.5 449q-31.5 26 -31.5 64q0 19 6 30l72 -15q-3 -7 -3 -16q0 -13 11.5 -20.5t30.5 -7.5q38 0 56.5 27t22.5 78q-14 -17 -36 -27t-48 -10q-51 0 -85 32t-34 84t37 85.5t95 33.5q63 0 103.5 -44t40.5 -119q0 -41 -12 -81.5t-36 -70.5q-41 -49 -106 -49q-52 0 -83.5 26z
M349.5 629.5q16.5 15.5 16.5 39.5t-17 39.5t-41 15.5t-40.5 -15.5t-16.5 -39.5t16.5 -39.5t40.5 -15.5q25 0 41.5 15.5z" />
    <glyph glyph-name="uni2080" unicode="&#x2080;" 
d="M218.5 -108.5q-37.5 22.5 -59 64t-21.5 95.5t21.5 95.5t59 64t82.5 22.5t82.5 -22.5t59 -64t21.5 -95.5t-21.5 -95.5t-59 -64t-82.5 -22.5t-82.5 22.5zM319 155q-10 2 -18 2q-36 0 -57.5 -27.5t-21.5 -78.5q0 -36 12 -62zM358.5 -27.5q21.5 27.5 21.5 78.5q0 37 -12 62
l-85 -166q10 -2 18 -2q36 0 57.5 27.5z" />
    <glyph glyph-name="uni2081" unicode="&#x2081;" 
d="M187 -52h94v182q-17 -14 -36 -19t-48 -5v77q34 0 54.5 10t33.5 33h80v-278h94v-72h-272v72z" />
    <glyph glyph-name="uni2082" unicode="&#x2082;" 
d="M157 -71l132 127q18 18 26.5 33.5t8.5 31.5q0 20 -11.5 30.5t-31.5 10.5t-33.5 -11t-13.5 -31q0 -10 4 -24l-76 -11q-7 17 -7 40q0 27 15.5 52t44.5 40.5t66 15.5q58 0 91.5 -27.5t33.5 -75.5q0 -36 -13.5 -63t-47.5 -59l-65 -63h129v-69h-252v53z" />
    <glyph glyph-name="uni2083" unicode="&#x2083;" 
d="M200.5 -101.5q-35.5 29.5 -35.5 75.5q0 22 7 36l79 -17q-2 -6 -2 -15q0 -20 14 -30t34 -10q22 0 36.5 11.5t14.5 32.5q0 27 -21 38t-61 11v60q32 0 50.5 11t18.5 30q0 35 -41 35q-18 0 -31 -8.5t-13 -24.5q0 -11 3 -17l-73 -10q-5 12 -5 27q0 40 32 69.5t87 29.5
q59 0 89.5 -23.5t30.5 -63.5q0 -24 -11 -41.5t-34 -33.5q28 -11 45.5 -34t17.5 -57q0 -51 -37.5 -81t-99.5 -30q-59 0 -94.5 29.5z" />
    <glyph glyph-name="uni2084" unicode="&#x2084;" 
d="M316 -66h-176v66l176 226h84v-226h48v-66h-48v-58h-84v58zM316 0v116l-94 -116h94z" />
    <glyph glyph-name="uni2085" unicode="&#x2085;" 
d="M230.5 -116q-31.5 15 -48.5 39t-17 51q0 17 5 29l81 -15q-2 -6 -2 -13q0 -18 16 -28.5t40 -10.5q29 0 45 16.5t16 43.5q0 25 -16.5 41.5t-46.5 16.5q-41 0 -70 -34l-62 18l18 188h239v-66h-177l-10 -72q12 12 33.5 19.5t45.5 7.5q56 0 91.5 -33t35.5 -86
q0 -58 -40.5 -92.5t-102.5 -34.5q-42 0 -73.5 15z" />
    <glyph glyph-name="uni2086" unicode="&#x2086;" 
d="M207.5 -87q-40.5 44 -40.5 119q0 41 12 81.5t36 70.5q41 49 106 49q53 0 84.5 -26t31.5 -64q0 -16 -7 -30l-72 15q4 10 4 18q0 11 -12 18.5t-31 7.5q-33 0 -54 -29.5t-25 -75.5q14 17 36 27t48 10q51 0 85 -32t34 -84t-37 -85.5t-95 -33.5q-63 0 -103.5 44zM351.5 -52.5
q16.5 15.5 16.5 39.5t-16.5 39.5t-40.5 15.5t-41 -15.5t-17 -39.5t17 -39.5t41 -15.5t40.5 15.5z" />
    <glyph glyph-name="uni2087" unicode="&#x2087;" 
d="M362 160h-172v66h252v-63l-135 -287h-79z" />
    <glyph glyph-name="uni2088" unicode="&#x2088;" 
d="M205 -100.5q-39 30.5 -39 76.5q0 59 57 88q-46 26 -46 74q0 42 34.5 68.5t89.5 26.5t89.5 -26.5t34.5 -68.5q0 -48 -46 -74q57 -29 57 -88q0 -46 -39 -76.5t-96 -30.5t-96 30.5zM336 103q15 12 15 32t-15 32t-35 12t-35 -12t-15 -32t15 -32t35 -12t35 12zM342 -57
q16 14 16 37q0 24 -16 37.5t-41 13.5t-41 -13.5t-16 -37.5q0 -23 16 -37t41 -14t41 14z" />
    <glyph glyph-name="uni2089" unicode="&#x2089;" 
d="M214.5 -105q-31.5 26 -31.5 64q0 19 6 30l72 -15q-3 -7 -3 -16q0 -13 11.5 -20.5t30.5 -7.5q38 0 56.5 27t22.5 78q-14 -17 -36 -27t-48 -10q-51 0 -85 32t-34 84t37 85.5t95 33.5q63 0 103.5 -44t40.5 -119q0 -41 -12 -81.5t-36 -70.5q-41 -49 -106 -49q-52 0 -83.5 26z
M349.5 75.5q16.5 15.5 16.5 39.5t-17 39.5t-41 15.5t-40.5 -15.5t-16.5 -39.5t16.5 -39.5t40.5 -15.5q25 0 41.5 15.5z" />
    <glyph glyph-name="Euro" unicode="&#x20ac;" 
d="M159.5 50.5q-70.5 64.5 -96.5 178.5h-73l42 92h20q-1 10 -1 29t1 29h-62l42 92h33q28 111 100.5 177t173.5 66q93 0 155 -41t97 -132l-119 -53q-15 49 -49.5 76.5t-84.5 27.5q-59 0 -94 -31t-51 -90h252l-42 -92h-222q-1 -10 -1 -29t1 -29h264l-42 -92h-208
q37 -121 148 -121q52 0 84.5 33t54.5 101l111 -49q-31 -95 -93 -151t-157 -56q-113 0 -183.5 64.5z" />
    <glyph glyph-name="uni20BA" unicode="&#x20ba;" 
d="M574 312v-20q0 -149 -81 -220.5t-209 -71.5h-182v159l-64 -30v115l64 30v76l-64 -30v115l64 30v235h132v-172l121 57v-115l-121 -57v-76l121 57v-115l-121 -57v-100h50q90 0 133 39.5t43 130.5v20h114z" />
    <glyph glyph-name="uni2113" unicode="&#x2113;" 
d="M390 184l85 -52q-66 -146 -211 -146q-70 0 -114 38.5t-54 114.5q-19 -5 -57 -13v110q22 4 56 11q9 141 56.5 247t119 163t151.5 57q69 0 105 -40t36 -112q0 -122 -96 -225t-265 -165q6 -42 26.5 -62t49.5 -20q64 0 112 94zM327 571.5q-42 -42.5 -76 -118.5t-45 -171
q117 47 181 120t64 150q0 62 -48 62q-34 0 -76 -42.5z" />
    <glyph glyph-name="uni2117" unicode="&#x2117;" 
d="M160.5 108q-64.5 38 -102.5 102.5t-38 140.5t38 140.5t102.5 102.5t140.5 38t140.5 -38t102.5 -102.5t38 -140.5t-38 -140.5t-102.5 -102.5t-140.5 -38t-140.5 38zM414 154.5q52 30.5 82.5 82.5t30.5 114t-30.5 114t-82.5 82.5t-113 30.5t-113 -30.5t-82.5 -82.5
t-30.5 -114t30.5 -114t82.5 -82.5t113 -30.5t113 30.5zM188 520h129q56 0 86.5 -28t30.5 -78t-30 -77.5t-87 -27.5h-77v-127h-52v338zM313 354q70 0 70 60q0 59 -70 59h-73v-119h73z" />
    <glyph glyph-name="uni2120" unicode="&#x2120;" 
d="M48 324q-35 31 -41 78l47 24q8 -40 26 -61.5t56 -21.5q28 0 47.5 17.5t19.5 49.5q0 31 -20 48.5t-57 27.5q-55 14 -82 43.5t-27 75.5q0 44 32.5 73.5t81.5 29.5q48 0 80 -23t43 -65l-43 -24q-14 33 -32.5 47.5t-46.5 14.5q-30 0 -46.5 -14.5t-16.5 -37.5q0 -29 22 -46.5
t61 -29.5q51 -16 77 -41.5t26 -75.5q0 -54 -30.5 -87t-88.5 -33q-53 0 -88 31zM284 700h66l84 -344l84 344h66v-400h-52v284l-69 -284h-58l-69 284v-284h-52v400z" />
    <glyph glyph-name="trademark" unicode="&#x2122;" 
d="M105 650h-89v50h236v-50h-89v-350h-58v350zM279 700h66l84 -344l84 344h66v-400h-52v284l-69 -284h-58l-69 284v-284h-52v400z" />
    <glyph glyph-name="uni2126" unicode="&#x2126;" 
d="M31 96h108q-53 47 -91.5 132t-38.5 184q0 89 37.5 157.5t104 106.5t150.5 38t150.5 -38t104 -106.5t37.5 -157.5q0 -99 -38.5 -184t-91.5 -132h108v-96h-248v104q63 39 100.5 119.5t37.5 175.5q0 89 -44 141t-116 52t-116 -52t-44 -141q0 -95 37.5 -175.5t100.5 -119.5
v-104h-248v96z" />
    <glyph glyph-name="estimated" unicode="&#x212e;" 
d="M437.5 138.5q61.5 40.5 91.5 106.5h41q-32 -82 -105.5 -133t-163.5 -51q-78 0 -144.5 39t-105.5 105t-39 145t39 145t105.5 105t144.5 39t144.5 -39t105.5 -105t39 -145h-473v-168q34 -40 81.5 -62t102.5 -22q75 0 136.5 40.5zM198.5 580q-47.5 -22 -81.5 -62v-131h368
v128q-34 41 -82 64t-102 23q-55 0 -102.5 -22z" />
    <glyph glyph-name="uni2153" unicode="&#x2153;" 
d="M105 604q-17 -14 -33 -19t-43 -5v77q33 0 50 9.5t30 33.5h80v-350h-84v254zM76 172l377 410l50 -49l-377 -410zM356.5 22.5q-35.5 29.5 -35.5 75.5q0 22 7 36l79 -17q-2 -6 -2 -15q0 -20 14 -30t34 -10q22 0 36.5 11.5t14.5 32.5q0 27 -21 38t-61 11v60q32 0 50.5 11
t18.5 30q0 35 -41 35q-18 0 -31 -8.5t-13 -24.5q0 -11 3 -17l-73 -10q-5 12 -5 27q0 40 32 69.5t87 29.5q59 0 89.5 -23.5t30.5 -63.5q0 -24 -11 -41.5t-34 -33.5q28 -11 45.5 -34t17.5 -57q0 -51 -37.5 -81t-99.5 -30q-59 0 -94.5 29.5z" />
    <glyph glyph-name="uni2154" unicode="&#x2154;" 
d="M15 403l132 127q18 18 26.5 33.5t8.5 31.5q0 20 -11.5 30.5t-31.5 10.5t-33.5 -11t-13.5 -31q0 -10 4 -24l-76 -11q-7 17 -7 40q0 27 15.5 52t44.5 40.5t66 15.5q58 0 91.5 -27.5t33.5 -75.5q0 -36 -13.5 -63t-47.5 -59l-65 -63h129v-69h-252v53zM115 172l377 410l50 -49
l-377 -410zM367.5 22.5q-35.5 29.5 -35.5 75.5q0 22 7 36l79 -17q-2 -6 -2 -15q0 -20 14 -30t34 -10q22 0 36.5 11.5t14.5 32.5q0 27 -21 38t-61 11v60q32 0 50.5 11t18.5 30q0 35 -41 35q-18 0 -31 -8.5t-13 -24.5q0 -11 3 -17l-73 -10q-5 12 -5 27q0 40 32 69.5t87 29.5
q59 0 89.5 -23.5t30.5 -63.5q0 -24 -11 -41.5t-34 -33.5q28 -11 45.5 -34t17.5 -57q0 -51 -37.5 -81t-99.5 -30q-59 0 -94.5 29.5z" />
    <glyph glyph-name="oneeighth" unicode="&#x215b;" 
d="M103 604q-17 -14 -33 -19t-43 -5v77q33 0 50 9.5t30 33.5h80v-350h-84v254zM72 172l377 410l50 -49l-377 -410zM362 23.5q-39 30.5 -39 76.5q0 59 57 88q-46 26 -46 74q0 42 34.5 68.5t89.5 26.5t89.5 -26.5t34.5 -68.5q0 -48 -46 -74q57 -29 57 -88q0 -46 -39 -76.5
t-96 -30.5t-96 30.5zM493 227q15 12 15 32t-15 32t-35 12t-35 -12t-15 -32t15 -32t35 -12t35 12zM499 67q16 14 16 37q0 24 -16 37.5t-41 13.5t-41 -13.5t-16 -37.5q0 -23 16 -37t41 -14t41 14z" />
    <glyph glyph-name="threeeighths" unicode="&#x215c;" 
d="M48.5 372.5q-35.5 29.5 -35.5 75.5q0 22 7 36l79 -17q-2 -6 -2 -15q0 -20 14 -30t34 -10q22 0 36.5 11.5t14.5 32.5q0 27 -21 38t-61 11v60q32 0 50.5 11t18.5 30q0 35 -41 35q-18 0 -31 -8.5t-13 -24.5q0 -11 3 -17l-73 -10q-5 12 -5 27q0 40 32 69.5t87 29.5
q59 0 89.5 -23.5t30.5 -63.5q0 -24 -11 -41.5t-34 -33.5q28 -11 45.5 -34t17.5 -57q0 -51 -37.5 -81t-99.5 -30q-59 0 -94.5 29.5zM93 172l377 410l50 -49l-377 -410zM355 23.5q-39 30.5 -39 76.5q0 59 57 88q-46 26 -46 74q0 42 34.5 68.5t89.5 26.5t89.5 -26.5t34.5 -68.5
q0 -48 -46 -74q57 -29 57 -88q0 -46 -39 -76.5t-96 -30.5t-96 30.5zM486 227q15 12 15 32t-15 32t-35 12t-35 -12t-15 -32t15 -32t35 -12t35 12zM492 67q16 14 16 37q0 24 -16 37.5t-41 13.5t-41 -13.5t-16 -37.5q0 -23 16 -37t41 -14t41 14z" />
    <glyph glyph-name="fiveeighths" unicode="&#x215d;" 
d="M78.5 358q-31.5 15 -48.5 39t-17 51q0 17 5 29l81 -15q-2 -6 -2 -13q0 -18 16 -28.5t40 -10.5q29 0 45 16.5t16 43.5q0 25 -16.5 41.5t-46.5 16.5q-41 0 -70 -34l-62 18l18 188h239v-66h-177l-10 -72q12 12 33.5 19.5t45.5 7.5q56 0 91.5 -33t35.5 -86q0 -58 -40.5 -92.5
t-102.5 -34.5q-42 0 -73.5 15zM93 172l377 410l50 -49l-377 -410zM365 23.5q-39 30.5 -39 76.5q0 59 57 88q-46 26 -46 74q0 42 34.5 68.5t89.5 26.5t89.5 -26.5t34.5 -68.5q0 -48 -46 -74q57 -29 57 -88q0 -46 -39 -76.5t-96 -30.5t-96 30.5zM496 227q15 12 15 32t-15 32
t-35 12t-35 -12t-15 -32t15 -32t35 -12t35 12zM502 67q16 14 16 37q0 24 -16 37.5t-41 13.5t-41 -13.5t-16 -37.5q0 -23 16 -37t41 -14t41 14z" />
    <glyph glyph-name="seveneighths" unicode="&#x215e;" 
d="M222 634h-172v66h252v-63l-135 -287h-79zM68 172l377 410l50 -49l-377 -410zM360 23.5q-39 30.5 -39 76.5q0 59 57 88q-46 26 -46 74q0 42 34.5 68.5t89.5 26.5t89.5 -26.5t34.5 -68.5q0 -48 -46 -74q57 -29 57 -88q0 -46 -39 -76.5t-96 -30.5t-96 30.5zM491 227
q15 12 15 32t-15 32t-35 12t-35 -12t-15 -32t15 -32t35 -12t35 12zM497 67q16 14 16 37q0 24 -16 37.5t-41 13.5t-41 -13.5t-16 -37.5q0 -23 16 -37t41 -14t41 14z" />
    <glyph glyph-name="arrowleft" unicode="&#x2190;" 
d="M32 311l231 231l75 -75l-105 -105h307v-102h-307l105 -105l-75 -75z" />
    <glyph glyph-name="arrowup" unicode="&#x2191;" 
d="M250 423l-105 -105l-75 75l231 231l231 -231l-75 -75l-105 105v-307h-102v307z" />
    <glyph glyph-name="arrowright" unicode="&#x2192;" 
d="M264 155l105 105h-307v102h307l-105 105l75 75l231 -231l-231 -231z" />
    <glyph glyph-name="arrowdown" unicode="&#x2193;" 
d="M70 347l75 75l105 -105v307h102v-307l105 105l75 -75l-231 -231z" />
    <glyph glyph-name="arrowboth" unicode="&#x2194;" 
d="M-13 311l231 231l75 -75l-105 -105h226l-105 105l75 75l231 -231l-231 -231l-75 75l105 105h-226l105 -105l-75 -75z" />
    <glyph glyph-name="arrowupdn" unicode="&#x2195;" 
d="M70 267l75 75l105 -105v226l-105 -105l-75 75l231 231l231 -231l-75 -75l-105 105v-226l105 105l75 -75l-231 -231z" />
    <glyph glyph-name="uni2196" unicode="&#x2196;" 
d="M200 310v-148h-106v327h327v-106h-148l217 -218l-72 -72z" />
    <glyph glyph-name="uni2197" unicode="&#x2197;" 
d="M112 165l217 218h-148v106h327v-327h-106v148l-218 -217z" />
    <glyph glyph-name="uni2198" unicode="&#x2198;" 
d="M181 214h148l-217 218l72 72l218 -217v148h106v-327h-327v106z" />
    <glyph glyph-name="uni2199" unicode="&#x2199;" 
d="M94 435h106v-148l218 217l72 -72l-217 -218h148v-106h-327v327z" />
    <glyph glyph-name="partialdiff" unicode="&#x2202;" 
d="M168 15q-57 29 -90 82t-33 122t31.5 124.5t86.5 87t122 31.5q53 0 90 -13.5t71 -47.5q-9 62 -34.5 110t-62 75.5t-78.5 27.5q-37 0 -58.5 -17t-21.5 -41q0 -6 2 -12l-107 -45q-14 23 -14 56q0 38 20.5 74.5t64 60.5t109.5 24q95 0 161 -51t99.5 -142.5t33.5 -212.5
q0 -93 -31.5 -166t-91.5 -114.5t-142 -41.5q-70 0 -127 29zM396.5 127q40.5 35 40.5 100q0 39 -18.5 68.5t-49 45t-65.5 15.5q-60 0 -97.5 -38.5t-37.5 -97.5q0 -38 18.5 -67t48.5 -45t64 -16q56 0 96.5 35z" />
    <glyph glyph-name="uni2206" unicode="&#x2206;" 
d="M237 700h128l237 -700h-602zM423 118l-103 330q-11 36 -19 77q-8 -41 -19 -77l-103 -330h244z" />
    <glyph glyph-name="product" unicode="&#x220f;" 
d="M70 700h462v-904h-132v782h-198v-782h-132v904z" />
    <glyph glyph-name="summation" unicode="&#x2211;" 
d="M38 2l195 288l-185 288v122h494v-122h-338l181 -288l-191 -288h355v-122h-511v122z" />
    <glyph glyph-name="minus" unicode="&#x2212;" 
d="M59 416h484v-102h-484v102z" />
    <glyph glyph-name="uni2215" unicode="&#x2215;" 
d="M427 730h128l-380 -760h-128z" />
    <glyph glyph-name="uni2219" unicode="&#x2219;" 
d="M214 188q-36 36 -36 87t36 87t87 36t87 -36t36 -87t-36 -87t-87 -36t-87 36z" />
    <glyph glyph-name="radical" unicode="&#x221a;" 
d="M128 256h-87v100h186l48 -183l157 527h122l-220 -700h-126z" />
    <glyph glyph-name="infinity" unicode="&#x221e;" 
d="M61.5 178q-37.5 47 -37.5 122t37.5 122t97.5 47q45 0 78 -25.5t64 -71.5q29 45 63 71t79 26q60 0 97.5 -47t37.5 -122t-37.5 -122t-97.5 -47q-45 0 -79 26t-63 71q-31 -46 -64 -71.5t-78 -25.5q-60 0 -97.5 47zM212.5 240q20.5 21 44.5 60q-24 39 -44.5 60t-45.5 21
q-28 0 -46 -23.5t-18 -57.5t18 -57.5t46 -23.5q25 0 45.5 21zM481 242.5q18 23.5 18 57.5t-18 57.5t-46 23.5q-25 0 -46 -21t-45 -60q24 -39 45 -60t46 -21q28 0 46 23.5z" />
    <glyph glyph-name="integral" unicode="&#x222b;" 
d="M76 -208.5q-29 9.5 -58 26.5l41 105q34 -25 76 -25q34 0 50 21t16 67v558q0 69 27 115t71 68.5t96 22.5q39 0 69 -9.5t59 -26.5l-41 -111q-40 31 -78 31q-35 0 -56 -21.5t-21 -62.5v-562q0 -103 -50 -154.5t-129 -51.5q-43 0 -72 9.5z" />
    <glyph glyph-name="approxequal" unicode="&#x2248;" 
d="M106 414q0 48 30 76t76 28q39 0 64.5 -11t51.5 -31q3 -2 13 -8.5t17.5 -9.5t14.5 -3q11 0 19 6.5t8 18.5q0 11 -7 23l88 16q15 -22 15 -55q0 -47 -30 -74.5t-76 -27.5q-39 0 -63.5 10.5t-51.5 30.5q-16 12 -25.5 17t-20.5 5t-19 -6.5t-8 -18.5q0 -11 7 -23l-88 -16
q-15 23 -15 53zM106 230q0 48 30 76t76 28q39 0 64.5 -11t51.5 -31q3 -2 13 -8.5t17.5 -9.5t14.5 -3q11 0 19 6.5t8 18.5q0 11 -7 23l88 16q15 -22 15 -55q0 -47 -30 -74.5t-76 -27.5q-39 0 -63.5 10.5t-51.5 30.5q-16 12 -25.5 17t-20.5 5t-19 -6.5t-8 -18.5q0 -11 7 -23
l-88 -16q-15 23 -15 53z" />
    <glyph glyph-name="notequal" unicode="&#x2260;" 
d="M101 101l54 93h-96v102h154l57 98h-211v102h270l84 145l88 -52l-54 -93h96v-102h-154l-57 -98h211v-102h-270l-84 -145z" />
    <glyph glyph-name="lessequal" unicode="&#x2264;" 
d="M59 102h484v-102h-484v102zM84 371v98l434 222v-124l-296 -147l296 -147v-125z" />
    <glyph glyph-name="greaterequal" unicode="&#x2265;" 
d="M59 102h484v-102h-484v102zM84 273l296 147l-296 147v124l434 -222v-98l-434 -223v125z" />
    <glyph glyph-name="lozenge" unicode="&#x25ca;" 
d="M25 350l212 350h128l212 -350l-212 -350h-128zM445 350l-144 240l-144 -240l144 -240z" />
    <glyph glyph-name="uniF8FF" unicode="&#xf8ff;" 
d="M11.5 6.5q-6.5 6.5 -6.5 15.5v595q0 7 4.5 13.5t11.5 8.5l270 78l10 2l10 -2l270 -78q7 -2 11.5 -8.5t4.5 -13.5v-595q0 -9 -6.5 -15.5t-15.5 -6.5l-7 1l-267 77l-267 -77l-7 -1q-9 0 -15.5 6.5zM279 669l-230 -67q4 -62 35 -114t82.5 -84.5t112.5 -37.5v303z
M435.5 403.5q51.5 32.5 82.5 84.5t35 114l-230 67v-303q61 5 112.5 37.5zM279 118v204q-73 6 -134 43.5t-97 97.5v-412zM554 463q-37 -60 -97.5 -97.5t-133.5 -43.5v-204l231 -67v412z" />
    <glyph glyph-name="fi" unicode="&#xfb01;" 
d="M96 394h-59v102h59v70q0 62 25 103.5t65 61t85 19.5q36 0 61.5 -7t54.5 -24l-47 -106q-11 9 -25.5 15t-30.5 6q-30 0 -46 -18.5t-16 -51.5v-68h321v-496h-126v394h-195v-394h-126v394zM411 700h138v-132h-138v132z" />
    <glyph glyph-name="fl" unicode="&#xfb02;" 
d="M96 394h-59v102h59v70q0 62 25 103.5t65 61t85 19.5q36 0 62 -7t54 -24l-47 -106q-11 9 -25.5 15t-30.5 6q-30 0 -46 -18.5t-16 -51.5v-68h139v-102h-139v-394h-126v394zM417 700h126v-700h-126v700z" />
    <glyph glyph-name="i.loclTRK" 
d="M79 104h159v290h-134v102h260v-392h159v-104h-444v104zM232 700h138v-132h-138v132z" />
    <glyph glyph-name="ordfeminine.ss01" 
d="M187.5 314q-37.5 21 -60.5 62t-23 99t23 99t60.5 62t79.5 21q70 0 106 -45v38h99v-350h-99v48q-15 -24 -43.5 -39.5t-62.5 -15.5q-42 0 -79.5 21zM352 406q25 26 25 69t-25 69t-64 26t-64.5 -26t-25.5 -69t25.5 -69t64.5 -26t64 26z" />
    <glyph glyph-name="uni030C.alt" horiz-adv-x="0" 
d="M-362 489l52 97h-46v114h114v-114l-93 -112z" />
  </font>
</defs>
</svg>
