<?xml version="1.0" standalone="no"?>
<!DOCTYPE svg PUBLIC "-//W3C//DTD SVG 1.1//EN" "http://www.w3.org/Graphics/SVG/1.1/DTD/svg11.dtd" >
<svg xmlns="http://www.w3.org/2000/svg" xmlns:xlink="http://www.w3.org/1999/xlink" version="1.1">
<metadata>
Created by FontForge 20170731 at Fri Mar  6 15:30:06 2020
 By Aleksey,,,
Copyright (c) 2015 by Colophon Foundry. All rights reserved.
</metadata>
<defs>
<font id="BasisGrotesqueMono-Regular" horiz-adv-x="602" >
  <font-face 
    font-family="Basis Grotesque Mono"
    font-weight="400"
    font-stretch="normal"
    units-per-em="1000"
    panose-1="2 11 5 9 5 3 1 4 2 3"
    ascent="800"
    descent="-200"
    x-height="496"
    cap-height="700"
    bbox="-471 -279 661 934"
    underline-thickness="50"
    underline-position="-150"
    unicode-range="U+000D-FB02"
  />
<missing-glyph 
d="M68 700h466v-700h-466v700zM472 664h-342l171 -280zM280 350l-176 288v-576zM498 638l-176 -288l176 -288v576zM472 36l-171 280l-171 -280h342z" />
    <glyph glyph-name="f_i" unicode="fi" 
d="M116 427h-72v69h72v92q0 76 43 119t115 43q54 0 94 -26l-29 -65q-15 10 -29 14.5t-33 4.5q-34 0 -57 -22t-23 -65v-95h324v-496h-81v427h-243v-427h-81v427zM433 680h95v-97h-95v97z" />
    <glyph glyph-name="f_l" unicode="fl" 
d="M116 427h-72v69h72v92q0 76 43 119t115 43q54 0 94 -26l-29 -65q-15 10 -29 14.5t-33 4.5q-34 0 -57 -22t-23 -65v-95h152v-69h-152v-427h-81v427zM440 700h81v-700h-81v700z" />
    <glyph glyph-name=".notdef" 
d="M68 700h466v-700h-466v700zM472 664h-342l171 -280zM280 350l-176 288v-576zM498 638l-176 -288l176 -288v576zM472 36l-171 280l-171 -280h342z" />
    <glyph glyph-name=".null" horiz-adv-x="0" 
 />
    <glyph glyph-name="nonmarkingreturn" unicode="&#xd;" 
 />
    <glyph glyph-name="space" unicode=" " 
 />
    <glyph glyph-name="exclam" unicode="!" 
d="M259 477v223h84v-223l-13 -293h-58zM249 107h104v-107h-104v107z" />
    <glyph glyph-name="quotedbl" unicode="&#x22;" 
d="M160 642v58h88v-58l-13 -155h-62zM316 642v58h88v-58l-13 -155h-62z" />
    <glyph glyph-name="numbersign" unicode="#" 
d="M134 223h-101v59h110l21 136h-111v59h120l34 223h74l-34 -223h151l34 223h74l-34 -223h100v-59h-109l-21 -136h110v-59h-119l-34 -223h-74l34 223h-151l-34 -223h-74zM368 282l21 136h-151l-21 -136h151z" />
    <glyph glyph-name="dollar" unicode="$" 
d="M272 -11q-92 12 -147.5 69.5t-73.5 144.5l74 37q13 -74 50 -118.5t97 -56.5v270q-94 21 -145 67t-51 125q0 48 25 88.5t69.5 66t101.5 31.5v87h74v-89q73 -11 124.5 -55t73.5 -111l-66 -40q-18 56 -52 89t-80 43v-240q212 -43 212 -200q0 -54 -27.5 -100t-75.5 -75
t-109 -35v-87h-74v89zM272 639q-52 -6 -83.5 -35t-31.5 -74q0 -43 28.5 -70t86.5 -45v224zM439 106q35 37 35 85q0 50 -33 80.5t-95 47.5v-258q58 8 93 45z" />
    <glyph glyph-name="percent" unicode="%" 
d="M122.5 443.5q-33.5 19.5 -53 52.5t-19.5 73t19.5 73t53 52.5t74.5 19.5t74.5 -19.5t53 -52.5t19.5 -73t-19.5 -73t-53 -52.5t-74.5 -19.5t-74.5 19.5zM259.5 505q24.5 25 24.5 64t-24.5 64t-62.5 25t-62.5 -25t-24.5 -64t24.5 -64t62.5 -25t62.5 25zM66 217l438 315
l32 -47l-438 -316zM330.5 5.5q-33.5 19.5 -53 52.5t-19.5 73t19.5 73t53 52.5t74.5 19.5t74.5 -19.5t53 -52.5t19.5 -73t-19.5 -73t-53 -52.5t-74.5 -19.5t-74.5 19.5zM467.5 67q24.5 25 24.5 64t-24.5 64t-62.5 25t-62.5 -25t-24.5 -64t24.5 -64t62.5 -25t62.5 25z" />
    <glyph glyph-name="ampersand" unicode="&#x26;" 
d="M149 13q-48 27 -75 74.5t-27 106.5q0 69 34 121t96 91q-51 76 -51 146q0 47 20.5 84t57 57.5t82.5 20.5q65 0 107 -38t42 -100q0 -59 -37 -103.5t-116 -84.5l154 -208q31 77 41 154l64 -36q-17 -109 -58 -179l93 -119h-95l-45 58q-36 -35 -78.5 -53.5t-98.5 -18.5
q-62 0 -110 27zM335.5 501.5q27.5 30.5 27.5 71.5q0 32 -21 54t-56 22q-38 0 -62.5 -25t-24.5 -71q0 -29 11 -56t33 -57q65 31 92.5 61.5zM394 113l-176 239q-45 -30 -68 -66.5t-23 -88.5q0 -64 40 -102.5t98 -38.5q75 0 129 57z" />
    <glyph glyph-name="quotesingle" unicode="'" 
d="M244 642v58h88v-58l-13 -155h-62z" />
    <glyph glyph-name="parenleft" unicode="(" 
d="M220.5 42q-33.5 107 -33.5 234t33.5 234t86.5 190h72q-51 -94 -80 -201.5t-29 -222.5t29 -222.5t80 -201.5h-72q-53 83 -86.5 190z" />
    <glyph glyph-name="parenright" unicode=")" 
d="M303 53.5q29 107.5 29 222.5t-29 222.5t-80 201.5h72q53 -83 86.5 -190t33.5 -234t-33.5 -234t-86.5 -190h-72q51 94 80 201.5z" />
    <glyph glyph-name="asterisk" unicode="*" 
d="M279 501l-100 -74l-36 62l114 50l-114 49l36 62l100 -73l-14 123h72l-14 -123l100 73l36 -62l-114 -49l114 -50l-36 -62l-100 74l14 -124h-72z" />
    <glyph glyph-name="plus" unicode="+" 
d="M268 333h-178v64h178v179h65v-179h179v-64h-179v-179h-65v179z" />
    <glyph glyph-name="comma" unicode="," 
d="M235 -121l58 121h-51v120h118v-120l-99 -136z" />
    <glyph glyph-name="hyphen" unicode="-" 
d="M119 343h364v-64h-364v64z" />
    <glyph glyph-name="period" unicode="." 
d="M242 120h118v-120h-118v120z" />
    <glyph glyph-name="slash" unicode="/" 
d="M449 730h84l-380 -760h-84z" />
    <glyph glyph-name="zero" unicode="0" 
d="M162.5 30.5q-59.5 44.5 -91.5 127t-32 192.5t32 192.5t91.5 127t138.5 44.5t138.5 -44.5t91.5 -127t32 -192.5t-32 -192.5t-91 -127t-139 -44.5q-79 0 -138.5 44.5zM404 596q-44 44 -103 44q-53 0 -93.5 -35t-63 -100.5t-22.5 -154.5q0 -105 33 -177zM394.5 95
q40.5 35 63 100.5t22.5 154.5q0 105 -33 177l-249 -423q44 -44 103 -44q53 0 93.5 35z" />
    <glyph glyph-name="one" unicode="1" 
d="M112 74h172v516q-28 -32 -70 -52.5t-91 -20.5v76q57 0 100.5 29.5t68.5 77.5h75v-626h166v-74h-421v74z" />
    <glyph glyph-name="two" unicode="2" 
d="M76 59l269 266q53 53 75.5 94.5t22.5 90.5q0 60 -38 95.5t-104 35.5q-61 0 -100 -37.5t-39 -99.5q0 -25 8 -46l-79 -14q-12 31 -12 67q0 53 27 100t78 75t118 28q70 0 120.5 -25.5t76.5 -69.5t26 -101q0 -65 -27.5 -119.5t-98.5 -124.5l-194 -193h323v-81h-452v59z" />
    <glyph glyph-name="three" unicode="3" 
d="M176 14.5q-53 28.5 -81 74.5t-28 98q0 35 11 59l78 -20q-5 -17 -5 -36q0 -58 41.5 -95t108.5 -37q66 0 107.5 37.5t41.5 104.5q0 71 -53 105.5t-139 34.5v70q80 0 119 36t39 88q0 51 -33.5 80t-91.5 29q-54 0 -88.5 -32t-34.5 -84q0 -8 1.5 -15.5t4.5 -13.5l-78 -15
q-8 22 -8 48q0 50 25.5 92t72 66.5t106.5 24.5q64 0 110.5 -22t70.5 -61t24 -87q0 -52 -28.5 -96t-83.5 -64q65 -19 107 -65t42 -115q0 -66 -29.5 -115.5t-82.5 -76t-121 -26.5q-72 0 -125 28.5z" />
    <glyph glyph-name="four" unicode="4" 
d="M374 139h-316v75l316 486h84v-486h79v-75h-79v-139h-84v139zM374 214v353l-230 -353h230z" />
    <glyph glyph-name="five" unicode="5" 
d="M170 13q-53 27 -81 72t-28 97q0 27 9 50l78 -18q-4 -16 -4 -29q0 -59 41 -93t109 -34q72 0 116 48t44 130q0 81 -42 126.5t-115 45.5q-53 0 -96 -30.5t-68 -75.5l-67 19l35 379h393v-75h-330l-25 -235q33 44 77.5 66t94.5 22q71 0 122 -31t78 -85.5t27 -125.5
q0 -72 -30.5 -129t-86 -89t-127.5 -32q-71 0 -124 27z" />
    <glyph glyph-name="six" unicode="6" 
d="M123 71q-67 85 -67 238q0 131 39 230q34 85 91 130t134 45q91 0 144.5 -45.5t53.5 -119.5q0 -29 -9 -53l-78 17q7 19 7 38q0 42 -32 68t-87 26q-81 0 -128.5 -81t-52.5 -212q28 50 77.5 78t105.5 28q65 0 116.5 -30t81 -83t29.5 -120q0 -66 -30.5 -120.5t-85.5 -86.5
t-124 -32q-118 0 -185 85zM387 77q36 20 57 57.5t21 87.5q0 51 -21 88.5t-56.5 57t-79.5 19.5t-80.5 -19.5t-58 -57t-21.5 -88.5q0 -50 21.5 -87.5t58 -57.5t80.5 -20q43 0 79 20z" />
    <glyph glyph-name="seven" unicode="7" 
d="M436 625h-349v75h432v-69l-261 -631h-83z" />
    <glyph glyph-name="eight" unicode="8" 
d="M181 12q-53 26 -83 73.5t-30 108.5t32.5 108.5t84.5 72.5q-44 24 -69.5 66t-25.5 91q0 53 27 94.5t75.5 64.5t108.5 23t108.5 -23t75.5 -64.5t27 -94.5q0 -49 -25.5 -91t-69.5 -66q52 -25 84.5 -72.5t32.5 -108.5t-30 -108.5t-83 -73.5t-120 -26t-120 26zM395.5 438
q36.5 33 36.5 89q0 55 -37.5 88t-93.5 33t-93.5 -33t-37.5 -88q0 -56 36.5 -89t94.5 -33t94.5 33zM410 95.5q42 38.5 42 101.5q0 62 -43.5 101t-107.5 39t-107.5 -39t-43.5 -101q0 -63 42 -101.5t109 -38.5t109 38.5z" />
    <glyph glyph-name="nine" unicode="9" 
d="M138 32q-54 46 -54 119q0 29 9 53l78 -17q-7 -19 -7 -38q0 -42 32 -68t87 -26q81 0 128.5 80.5t52.5 212.5q-26 -50 -75 -78t-104 -28q-65 0 -118 30t-83 83t-30 120q0 66 30.5 120.5t85.5 86.5t124 32q119 0 185.5 -85t66.5 -238q0 -131 -39 -230q-71 -175 -223 -175
q-92 0 -146 46zM375.5 332.5q36.5 19.5 58 57t21.5 88.5q0 50 -21.5 87.5t-58 57.5t-80.5 20t-80 -20t-57 -57t-21 -88q0 -76 45 -120.5t113 -44.5q44 0 80.5 19.5z" />
    <glyph glyph-name="colon" unicode=":" 
d="M242 480h118v-120h-118v120zM242 120h118v-120h-118v120z" />
    <glyph glyph-name="semicolon" unicode=";" 
d="M242 480h118v-120h-118v120zM235 -121l58 121h-51v120h118v-120l-99 -136z" />
    <glyph glyph-name="less" unicode="&#x3c;" 
d="M93 272v76l405 203v-80l-327 -161l327 -161v-80z" />
    <glyph glyph-name="equal" unicode="=" 
d="M90 480h422v-65h-422v65zM90 285h422v-65h-422v65z" />
    <glyph glyph-name="greater" unicode="&#x3e;" 
d="M104 149l327 161l-327 161v80l405 -203v-76l-405 -203v80z" />
    <glyph glyph-name="question" unicode="?" 
d="M237 200q0 55 18 89.5t68 76.5q56 48 78 81t22 79q0 53 -38.5 85t-99.5 32q-59 0 -98.5 -35t-39.5 -98q0 -20 7 -41l-74 -15q-13 26 -13 64q0 50 26.5 95t76 73t114.5 28q69 0 119 -23.5t75.5 -65t25.5 -93.5q0 -61 -26.5 -105.5t-99.5 -106.5q-33 -28 -46 -55.5
t-13 -78.5h-82v14zM226 107h104v-107h-104v107z" />
    <glyph glyph-name="at" unicode="@" 
d="M101 -35q-81 107 -81 319q0 141 39.5 238t108 144.5t156.5 47.5q107 0 174.5 -58.5t67.5 -170.5v-443h-70v72q-18 -39 -56 -62.5t-87 -23.5q-60 0 -104.5 32t-69 90t-24.5 134q0 75 25 133.5t70 90.5t103 32q49 0 87 -21t56 -55v27q0 72 -44 116t-127 44q-64 0 -116 -36
t-84.5 -118t-32.5 -213q0 -196 66 -279t176 -83q38 0 71 8t76 28l25 -58q-45 -22 -87.5 -32t-95.5 -10q-141 0 -222 107zM466 142.5q36 49.5 36 141.5q0 91 -36.5 141t-100.5 50t-101 -50t-37 -141q0 -92 36.5 -141.5t101.5 -49.5t101 49.5z" />
    <glyph glyph-name="A" unicode="A" 
d="M258 700h86l245 -700h-90l-69 206h-258l-69 -206h-90zM407 278l-90 265q-13 45 -16 56q-3 -11 -16 -56l-90 -265h212z" />
    <glyph glyph-name="B" unicode="B" 
d="M74 700h223q64 0 111 -21.5t72 -59t25 -85.5q0 -60 -31 -101t-78 -59q135 -46 135 -172q0 -61 -31 -107t-83.5 -70.5t-116.5 -24.5h-226v700zM295 408q59 0 93.5 27t34.5 82q0 56 -34.5 83t-93.5 27h-137v-219h137zM289 74q72 0 115 33t43 97q0 66 -43 98.5t-115 32.5
h-131v-261h131z" />
    <glyph glyph-name="C" unicode="C" 
d="M162.5 33.5q-62.5 47.5 -94.5 129.5t-32 187q0 103 35 186t99.5 130.5t148.5 47.5q94 0 155 -49t82 -132l-69 -34q-40 140 -172 140q-59 0 -103 -37t-67.5 -102.5t-23.5 -149.5q0 -131 50 -210t145 -79q64 0 106.5 37t68.5 116l69 -29q-30 -93 -90.5 -146t-156.5 -53
q-88 0 -150.5 47.5z" />
    <glyph glyph-name="D" unicode="D" 
d="M70 700h147q97 0 168.5 -42t110 -121t38.5 -187t-38.5 -187t-110 -121t-168.5 -42h-147v700zM208 75q114 0 178 69.5t64 205.5t-64 205.5t-178 69.5h-54v-550h54z" />
    <glyph glyph-name="E" unicode="E" 
d="M87 700h422v-74h-338v-227h310v-74h-310v-251h341v-74h-425v700z" />
    <glyph glyph-name="F" unicode="F" 
d="M89 700h435v-74h-351v-247h321v-74h-321v-305h-84v700z" />
    <glyph glyph-name="G" unicode="G" 
d="M159 33q-61 47 -92.5 129.5t-31.5 187.5q0 103 36 186t100.5 130.5t147.5 47.5q90 0 148.5 -45.5t87.5 -129.5l-69 -37q-44 139 -169 139q-59 0 -103.5 -37t-69 -103.5t-24.5 -150.5q0 -132 49.5 -210.5t143.5 -78.5q71 0 112.5 61.5t48.5 157.5h-185v71h269v-351h-52
l-22 113q-22 -58 -67 -92.5t-111 -34.5q-86 0 -147 47z" />
    <glyph glyph-name="H" unicode="H" 
d="M68 700h84v-305h298v305h84v-700h-84v319h-298v-319h-84v700z" />
    <glyph glyph-name="I" unicode="I" 
d="M100 73h159v554h-153v73h390v-73h-153v-554h159v-73h-402v73z" />
    <glyph glyph-name="J" unicode="J" 
d="M145 47q-61 61 -61 167l85 -9q0 -69 39.5 -106.5t99.5 -37.5q61 0 97 38t36 109v492h84v-492q0 -67 -27 -117t-76 -77.5t-114 -27.5q-102 0 -163 61z" />
    <glyph glyph-name="K" unicode="K" 
d="M75 700h84v-314l59 64l230 250h103l-242 -266l258 -434h-97l-221 369l-90 -92v-277h-84v700z" />
    <glyph glyph-name="L" unicode="L" 
d="M93 700h84v-625h347v-75h-431v700z" />
    <glyph glyph-name="M" unicode="M" 
d="M39 700h101l161 -602l161 602h101v-700h-79v502l-33 -119l-105 -383h-90l-105 383l-33 119v-502h-79v700z" />
    <glyph glyph-name="N" unicode="N" 
d="M72 700h89l259 -496q24 -47 30 -59v555h80v-700h-89l-259 496q-21 39 -30 59v-555h-80v700z" />
    <glyph glyph-name="O" unicode="O" 
d="M160.5 30q-60.5 44 -93.5 126t-33 194t33 194t93.5 126t140.5 44t140.5 -44t93.5 -126t33 -194t-33 -194t-93.5 -126t-140.5 -44t-140.5 44zM397.5 96.5q41.5 35.5 64 100.5t22.5 153t-22.5 153t-64 100.5t-96.5 35.5t-96.5 -35.5t-64 -100.5t-22.5 -153t22.5 -153
t64 -100.5t96.5 -35.5t96.5 35.5z" />
    <glyph glyph-name="P" unicode="P" 
d="M60 700h234q113 0 179.5 -58.5t66.5 -160.5t-66.5 -161t-179.5 -59h-150v-261h-84v700zM294 335q81 0 121.5 38t40.5 108q0 69 -40.5 107t-121.5 38h-150v-291h150z" />
    <glyph glyph-name="Q" unicode="Q" 
d="M339 -11q-19 -3 -38 -3q-80 0 -140.5 44t-93.5 126t-33 194t33 194t93.5 126t140.5 44t140.5 -44t93.5 -126t33 -194q0 -122 -39.5 -208.5t-110.5 -126.5q27 -48 78 -99l-60 -56q-69 69 -97 129zM397.5 96.5q41.5 35.5 64 100.5t22.5 153t-22.5 153t-64 100.5t-96.5 35.5
t-96.5 -35.5t-64 -100.5t-22.5 -153t22.5 -153t64 -100.5t96.5 -35.5t96.5 35.5z" />
    <glyph glyph-name="R" unicode="R" 
d="M70 700h248q69 0 120 -25t78 -69.5t27 -100.5q0 -78 -42.5 -127.5t-121.5 -68.5l173 -309h-93l-171 303h-134v-303h-84v700zM311 376q72 0 110 31.5t38 93.5q0 63 -38 94.5t-110 31.5h-157v-251h157z" />
    <glyph glyph-name="S" unicode="S" 
d="M138.5 45.5q-66.5 59.5 -87.5 157.5l74 37q16 -88 64 -134.5t128 -46.5q47 0 82.5 18t55 48.5t19.5 65.5q0 58 -45.5 91t-132.5 49q-106 18 -163 65t-57 131q0 53 29 95.5t81 67t117 24.5q90 0 152.5 -46t88.5 -123l-66 -40q-22 69 -66.5 102.5t-107.5 33.5
q-64 0 -105.5 -29.5t-41.5 -81.5q0 -53 45 -84t139 -49q217 -40 217 -200q0 -58 -31.5 -106.5t-86.5 -76.5t-123 -28q-112 0 -178.5 59.5z" />
    <glyph glyph-name="T" unicode="T" 
d="M259 625h-199v75h482v-75h-199v-625h-84v625z" />
    <glyph glyph-name="U" unicode="U" 
d="M125 52q-64 66 -64 184v464h84v-465q0 -83 42 -128.5t114 -45.5t114 45.5t42 128.5v465h84v-464q0 -118 -64 -184t-176 -66t-176 66z" />
    <glyph glyph-name="V" unicode="V" 
d="M18 700h88l171 -526q11 -31 24 -79q13 48 24 79l171 526h88l-237 -700h-92z" />
    <glyph glyph-name="W" unicode="W" 
d="M4 700h82l72 -505q6 -46 8 -65l10 66l81 504h88l81 -504l10 -66q2 19 8 65l72 505h82l-110 -700h-99l-88 563l-88 -563h-99z" />
    <glyph glyph-name="X" unicode="X" 
d="M255 376l-198 324h95l148 -258l153 258h93l-198 -319l227 -381h-93l-182 308l-179 -308h-94z" />
    <glyph glyph-name="Y" unicode="Y" 
d="M259 277l-223 423h91l152 -299q8 -15 22 -47q14 32 22 47l152 299h91l-223 -423v-277h-84v277z" />
    <glyph glyph-name="Z" unicode="Z" 
d="M44 75l384 548h-371v77h464v-77l-380 -546h397v-77h-494v75z" />
    <glyph glyph-name="bracketleft" unicode="[" 
d="M189 700h245v-73h-164v-704h164v-73h-245v850z" />
    <glyph glyph-name="backslash" unicode="\" 
d="M69 730h84l380 -760h-84z" />
    <glyph glyph-name="bracketright" unicode="]" 
d="M168 -77h164v704h-164v73h245v-850h-245v73z" />
    <glyph glyph-name="asciicircum" unicode="^" 
d="M261 700h80l182 -252h-79l-143 195l-143 -195h-79z" />
    <glyph glyph-name="underscore" unicode="_" 
d="M85 -7h432v-65h-432v65z" />
    <glyph glyph-name="grave" unicode="`" 
d="M210 703h109l71 -145h-67z" />
    <glyph glyph-name="a" unicode="a" 
d="M124 28.5q-46 42.5 -46 109.5q0 68 47 108t122 51l176 26v25q0 48 -32 73t-91 25q-56 0 -88.5 -24t-32.5 -57q0 -6 2 -14l-69 -23q-8 18 -8 39q0 39 25 71.5t69.5 52t101.5 19.5q97 0 150 -43t53 -121v-222q0 -43 6.5 -69.5t24.5 -54.5h-81q-12 14 -20.5 38.5t-8.5 59.5
q-22 -50 -71.5 -81t-107.5 -31q-75 0 -121 42.5zM344.5 82q37.5 26 58 69t20.5 92v17l-158 -24q-51 -8 -79 -32.5t-28 -62.5t27.5 -61.5t72.5 -23.5q49 0 86.5 26z" />
    <glyph glyph-name="b" unicode="b" 
d="M213.5 14.5q-45.5 28.5 -66.5 69.5v-84h-80v700h80v-287q30 45 75 71t102 26q64 0 115.5 -33.5t80.5 -93t29 -135.5t-30 -135.5t-83.5 -93t-119.5 -33.5q-57 0 -102.5 28.5zM389 84.5q37 25.5 57 68.5t20 95q0 55 -20.5 98t-58 67t-84.5 24t-84 -24.5t-57.5 -67.5
t-20.5 -97t20.5 -97t57 -67.5t84.5 -24.5q49 0 86 25.5z" />
    <glyph glyph-name="c" unicode="c" 
d="M186 19.5q-56 33.5 -87 93t-31 135.5q0 75 32.5 135t88.5 93.5t125 33.5q82 0 137.5 -36t83.5 -105l-66 -38q-20 53 -60 79t-94 26q-47 0 -84.5 -23t-59 -65.5t-21.5 -99.5q0 -56 21 -98.5t58.5 -66t85.5 -23.5q57 0 96 27.5t66 82.5l64 -38q-34 -68 -92 -107t-135 -39
q-72 0 -128 33.5z" />
    <glyph glyph-name="d" unicode="d" 
d="M167 19.5q-53 33.5 -83 93t-30 135.5t29 135.5t80.5 93t115.5 33.5q57 0 102 -25t73 -70v285h81v-700h-81v84q-23 -42 -67 -70t-101 -28q-66 0 -119 33.5zM383.5 83.5q36.5 24.5 57 67.5t20.5 97t-20.5 97t-57.5 67.5t-84 24.5t-84 -24t-57.5 -67t-20.5 -98
q0 -84 45 -136.5t117 -52.5q48 0 84.5 24.5z" />
    <glyph glyph-name="e" unicode="e" 
d="M179 19.5q-54 33.5 -86 93.5t-32 135t33 135t89 93.5t122 33.5q71 0 123.5 -31.5t80 -87.5t27.5 -129v-27h-396q2 -48 22 -89t56.5 -66t82.5 -25q62 0 98.5 28.5t62.5 82.5l59 -36q-35 -71 -87.5 -107.5t-135.5 -36.5q-65 0 -119 33.5zM458 299q-3 69 -46.5 107.5
t-107.5 38.5q-58 0 -103 -39t-58 -107h315z" />
    <glyph glyph-name="f" unicode="f" 
d="M225 433h-145v63h145v58q0 91 49 143.5t128 52.5q31 0 60 -9t48 -22l-26 -68q-38 27 -79 27q-47 0 -73.5 -30t-26.5 -90v-62h192v-63h-192v-433h-80v433z" />
    <glyph glyph-name="g" unicode="g" 
d="M147.5 -178q-57.5 40 -57.5 105q0 28 13 54l76 -22q-7 -19 -7 -35q0 -35 36 -55t100 -20q76 0 115.5 45t39.5 133v72q-56 -91 -167 -91q-65 0 -118 30.5t-84 87.5t-31 133q0 77 32 134t85 87t116 30q57 0 100 -23t67 -62v71h80v-463q0 -119 -61.5 -185t-174.5 -66
q-102 0 -159.5 40zM424 127q45 49 45 132t-45 132t-118 49t-117.5 -49t-44.5 -132t44.5 -132t117.5 -49t118 49z" />
    <glyph glyph-name="h" unicode="h" 
d="M79 700h80v-295q29 50 76.5 77.5t105.5 27.5q81 0 128 -46t47 -125v-339h-81v316q0 58 -32 89.5t-88 31.5q-41 0 -76.5 -22t-57.5 -61t-22 -87v-267h-80v700z" />
    <glyph glyph-name="i" unicode="i" 
d="M98 69h167v358h-142v69h222v-427h158v-69h-405v69zM257 680h95v-97h-95v97z" />
    <glyph glyph-name="j" unicode="j" 
d="M137.5 -177q-43.5 34 -43.5 93q0 20 8 41l74 -24q-4 -7 -4 -19q0 -25 21.5 -39.5t58.5 -14.5q86 0 86 92v475h-157v69h238v-543q0 -75 -44 -119.5t-122 -44.5q-72 0 -115.5 34zM331 680h95v-97h-95v97z" />
    <glyph glyph-name="k" unicode="k" 
d="M97 700h81v-407l226 203h109l-207 -187l234 -309h-100l-194 255l-68 -61v-194h-81v700z" />
    <glyph glyph-name="l" unicode="l" 
d="M85 69h176v562h-153v69h233v-631h172v-69h-428v69z" />
    <glyph glyph-name="m" unicode="m" 
d="M41 496h80v-52q14 30 42.5 48t65.5 18q39 0 63.5 -18t34.5 -51q16 32 46.5 50.5t70.5 18.5q54 0 85.5 -32.5t31.5 -86.5v-391h-80v367q0 37 -16 55t-45 18q-34 0 -57 -27t-23 -82v-331h-80v373q0 33 -15.5 50t-43.5 17q-35 0 -57.5 -28t-22.5 -77v-335h-80v496z" />
    <glyph glyph-name="n" unicode="n" 
d="M95 496h80v-88q28 47 73.5 74.5t98.5 27.5q76 0 125 -44.5t49 -128.5v-337h-80v316q0 58 -32.5 89.5t-87.5 31.5q-38 0 -72 -21.5t-54 -59.5t-20 -85v-271h-80v496z" />
    <glyph glyph-name="o" unicode="o" 
d="M176.5 17q-57.5 31 -92 90.5t-34.5 140.5t34.5 140.5t92 90.5t124.5 31t124.5 -31t92 -90.5t34.5 -140.5t-34.5 -140.5t-92 -90.5t-124.5 -31t-124.5 31zM387.5 82.5q38.5 23.5 61 66.5t22.5 99t-22.5 99t-61 66.5t-86.5 23.5t-86.5 -23.5t-61 -66.5t-22.5 -99t22.5 -99
t61 -66.5t86.5 -23.5t86.5 23.5z" />
    <glyph glyph-name="p" unicode="p" 
d="M67 496h80v-84q22 40 68.5 69t102.5 29q66 0 119 -33.5t82.5 -93t29.5 -135.5t-29.5 -135.5t-81 -93t-114.5 -33.5q-58 0 -103.5 25.5t-73.5 69.5v-285h-80v700zM387.5 83q37.5 24 58 67t20.5 98t-20.5 98t-57.5 67t-85 24t-84.5 -24.5t-57 -67.5t-20.5 -97t20.5 -97
t57.5 -67.5t84 -24.5t84.5 24z" />
    <glyph glyph-name="q" unicode="q" 
d="M455 81q-28 -44 -73 -69.5t-102 -25.5q-64 0 -115.5 33.5t-81 93t-29.5 135.5t30.5 135.5t84.5 93t120 33.5q56 0 101 -28t65 -69v83h81v-700h-81v285zM383.5 83.5q37.5 24.5 58 67.5t20.5 97t-20.5 97t-57.5 67.5t-85 24.5q-72 0 -117 -52.5t-45 -136.5q0 -55 20.5 -98
t57.5 -67t84 -24t84.5 24.5z" />
    <glyph glyph-name="r" unicode="r" 
d="M112 496h80v-85q19 43 63 71t97 28q73 0 113 -39.5t40 -100.5q0 -29 -11 -57l-72 25q5 13 5 24q0 37 -25 57.5t-68 20.5q-67 0 -104.5 -49t-37.5 -125v-266h-80v496z" />
    <glyph glyph-name="s" unicode="s" 
d="M163 26q-56 40 -81 105l67 41q18 -55 56.5 -86t96.5 -31q57 0 90.5 23t33.5 62q0 38 -34.5 58t-109.5 29q-81 10 -126.5 47t-45.5 98q0 62 52 100t129 38q75 0 125 -33.5t75 -93.5l-61 -35q-19 46 -56 72t-83 26q-43 0 -75.5 -20.5t-32.5 -53.5q0 -35 33 -56t103 -29
q184 -20 184 -143q0 -43 -24.5 -79.5t-70 -57.5t-107.5 -21q-82 0 -138 40z" />
    <glyph glyph-name="t" unicode="t" 
d="M248.5 30.5q-42.5 44.5 -42.5 121.5v281h-125v63h125v134h81v-134h170v-63h-170v-280q0 -96 85 -96q25 0 45 7t40 22l30 -61q-49 -39 -125 -39q-71 0 -113.5 44.5z" />
    <glyph glyph-name="u" unicode="u" 
d="M137.5 30.5q-49.5 44.5 -49.5 128.5v337h81v-316q0 -58 32.5 -89.5t86.5 -31.5q38 0 72 21.5t54 59.5t20 85v271h81v-496h-81v86q-27 -47 -71.5 -73.5t-98.5 -26.5q-77 0 -126.5 44.5z" />
    <glyph glyph-name="v" unicode="v" 
d="M41 496h87l173 -408l173 408h87l-219 -496h-82z" />
    <glyph glyph-name="w" unicode="w" 
d="M23 496h76l80 -391l80 391h84l80 -391l80 391h76l-111 -496h-86l-81 398l-81 -398h-86z" />
    <glyph glyph-name="x" unicode="x" 
d="M259 264l-161 232h93l112 -169l113 169h92l-158 -228l176 -268h-90l-133 203l-133 -203h-94z" />
    <glyph glyph-name="y" unicode="y" 
d="M80 -188l24 69q30 -17 58 -17q46 0 66 51l35 87l-214 494h90l165 -391l161 391h87l-254 -606q-22 -52 -55 -76t-80 -24q-44 0 -83 22z" />
    <glyph glyph-name="z" unicode="z" 
d="M99 67l302 362h-293v67h384v-67l-303 -362h318v-67h-408v67z" />
    <glyph glyph-name="braceleft" unicode="{" 
d="M241.5 -110q-36.5 40 -36.5 130v127q0 53 -17.5 73t-57.5 20h-19v70h19q40 0 57.5 20t17.5 73v127q0 90 36.5 130t117.5 40h62v-73h-54q-81 0 -81 -90v-140q0 -55 -15 -80.5t-51 -41.5q36 -16 51 -41.5t15 -80.5v-140q0 -90 81 -90h54v-73h-62q-81 0 -117.5 40z" />
    <glyph glyph-name="bar" unicode="|" 
d="M261 740h80v-850h-80v850z" />
    <glyph glyph-name="braceright" unicode="}" 
d="M181 -77h54q81 0 81 90v140q0 55 15 80.5t51 41.5q-36 16 -51 41.5t-15 80.5v140q0 90 -81 90h-54v73h62q81 0 117.5 -40t36.5 -130v-127q0 -53 17.5 -73t57.5 -20h19v-70h-19q-40 0 -57.5 -20t-17.5 -73v-127q0 -90 -36.5 -130t-117.5 -40h-62v73z" />
    <glyph glyph-name="asciitilde" unicode="~" 
d="M115 313q0 40 27 62.5t67 22.5q33 0 57 -10t52 -28q21 -14 36 -20.5t32 -6.5q14 0 22.5 8.5t8.5 21.5q0 10 -7 22l65 13q12 -18 12 -45q0 -40 -27 -62.5t-67 -22.5q-33 0 -56.5 9.5t-52.5 28.5q-22 14 -36.5 20.5t-31.5 6.5q-14 0 -22.5 -8.5t-8.5 -21.5q0 -10 7 -22
l-65 -13q-12 18 -12 45z" />
    <glyph glyph-name="uni00A0" unicode="&#xa0;" 
 />
    <glyph glyph-name="exclamdown" unicode="&#xa1;" 
d="M249 496h104v-107h-104v107zM259 19l13 293h58l13 -293v-223h-84v223z" />
    <glyph glyph-name="cent" unicode="&#xa2;" 
d="M283 -12q-64 7 -113 41.5t-75.5 91.5t-26.5 127t28 126.5t77 91.5t110 42v112h74v-113q64 -9 109 -44t69 -94l-66 -38q-16 42 -45 67t-67 33v-366q39 9 68 35t52 70l64 -38q-29 -58 -75.5 -95.5t-108.5 -47.5v-99h-74v98zM283 432q-59 -11 -96 -60t-37 -124t36.5 -124
t96.5 -60v368z" />
    <glyph glyph-name="sterling" unicode="&#xa3;" 
d="M83 57q32 43 47.5 84t15.5 94q0 44 -10 81h-92v64h75q-22 70 -22 122q0 65 28.5 113t77.5 73.5t110 25.5q67 0 115.5 -22.5t73.5 -61.5t25 -88q0 -36 -14 -71l-76 13q10 29 10 55q0 43 -35.5 74t-98.5 31q-59 0 -96.5 -38t-37.5 -108q0 -27 5.5 -54.5t15.5 -63.5h199v-64
h-183q9 -45 9 -77q0 -50 -13 -88t-37 -78h341v-73h-433v57z" />
    <glyph glyph-name="currency" unicode="&#xa4;" 
d="M52 153l66 67q-39 57 -39 130t39 130l-66 67l52 52l68 -66q58 40 129 40t129 -40l68 66l52 -52l-66 -67q39 -57 39 -130t-39 -130l66 -67l-52 -52l-68 66q-58 -40 -129 -40t-129 40l-68 -66zM407.5 238.5q41.5 43.5 41.5 111.5t-41.5 111.5t-106.5 43.5t-106.5 -43.5
t-41.5 -111.5t41.5 -111.5t106.5 -43.5t106.5 43.5z" />
    <glyph glyph-name="yen" unicode="&#xa5;" 
d="M259 143h-163v64h163v79h-163v65h128l-185 349h90l150 -292q11 -21 22 -52q11 31 22 52l150 292h90l-185 -349h128v-65h-163v-79h163v-64h-163v-143h-84v143z" />
    <glyph glyph-name="brokenbar" unicode="&#xa6;" 
d="M261 740h80v-358h-80v358zM261 248h80v-358h-80v358z" />
    <glyph glyph-name="section" unicode="&#xa7;" 
d="M96 40l60 43q22 -53 61.5 -81t90.5 -28q48 0 81 24t33 67t-33.5 71t-122.5 49q-78 17 -120 56t-42 94q0 31 14.5 58t39.5 46q-50 47 -50 113q0 50 26 87t69.5 56t94.5 19q146 0 208 -132l-60 -44q-22 54 -60.5 81.5t-89.5 27.5q-48 0 -81 -24t-33 -69q0 -39 34 -69
t122 -49q87 -20 124.5 -54t37.5 -88q0 -67 -54 -109q50 -43 50 -116q0 -50 -26 -87t-69 -56t-94 -19q-149 0 -211 133zM427 284q0 32 -30 54.5t-101 36.5q-55 12 -87 30q-15 -12 -23 -28.5t-8 -32.5q0 -35 29 -58t100 -40q43 -10 85 -28q35 27 35 66z" />
    <glyph glyph-name="dieresis" unicode="&#xa8;" 
d="M165 680h94v-93h-94v93zM343 680h94v-93h-94v93z" />
    <glyph glyph-name="copyright" unicode="&#xa9;" 
d="M160.5 108q-64.5 38 -102.5 102.5t-38 140.5t38 140.5t102.5 102.5t140.5 38t140.5 -38t102.5 -102.5t38 -140.5t-38 -140.5t-102.5 -102.5t-140.5 -38t-140.5 38zM414 154.5q52 30.5 82.5 82.5t30.5 114t-30.5 114t-82.5 82.5t-113 30.5t-113 -30.5t-82.5 -82.5
t-30.5 -114t30.5 -114t82.5 -82.5t113 -30.5t113 30.5zM219 199q-38 22 -59.5 61.5t-21.5 90.5q0 49 22.5 89t61 62.5t84.5 22.5q55 0 92 -25.5t55 -70.5l-42 -25q-14 36 -42 55t-62 19q-51 0 -84 -35t-33 -92q0 -58 32.5 -93t84.5 -35q39 0 64.5 19t44.5 58l38 -24
q-20 -46 -57.5 -72.5t-90.5 -26.5q-49 0 -87 22z" />
    <glyph glyph-name="ordfeminine" unicode="&#xaa;" 
d="M159 322.5q-32 29.5 -32 76.5q0 48 32 75.5t88 36.5l111 18v11q0 68 -75 68q-36 0 -56 -14t-20 -35q0 -6 1 -10l-58 -20q-5 11 -5 28q0 26 17 49t48.5 37t72.5 14q68 0 103.5 -30t35.5 -86v-152q0 -30 4.5 -50t16.5 -39h-64q-20 24 -20 66q-16 -34 -47 -53.5t-69 -19.5
q-52 0 -84 29.5zM330 383q28 35 28 85v12l-101 -16q-31 -5 -48.5 -20.5t-17.5 -40.5t17 -40t44 -15q50 0 78 35z" />
    <glyph glyph-name="guillemotleft" unicode="&#xab;" 
d="M65 275l168 201h94l-167 -201l167 -200h-94zM252 275l168 201h94l-167 -201l167 -200h-94z" />
    <glyph glyph-name="logicalnot" unicode="&#xac;" 
d="M411 331h-320v68h401v-202h-81v134z" />
    <glyph glyph-name="uni00AD" unicode="&#xad;" 
d="M119 343h364v-64h-364v64z" />
    <glyph glyph-name="registered" unicode="&#xae;" 
d="M160.5 108q-64.5 38 -102.5 102.5t-38 140.5t38 140.5t102.5 102.5t140.5 38t140.5 -38t102.5 -102.5t38 -140.5t-38 -140.5t-102.5 -102.5t-140.5 -38t-140.5 38zM414 154.5q52 30.5 82.5 82.5t30.5 114t-30.5 114t-82.5 82.5t-113 30.5t-113 -30.5t-82.5 -82.5
t-30.5 -114t30.5 -114t82.5 -82.5t113 -30.5t113 30.5zM188 520h138q51 0 79.5 -26.5t28.5 -69.5q0 -36 -23 -60.5t-59 -32.5l84 -149h-59l-83 147h-54v-147h-52v338zM318 374q65 0 65 50q0 49 -65 49h-78v-99h78z" />
    <glyph glyph-name="macron" unicode="&#xaf;" 
d="M191 669h220v-68h-220v68z" />
    <glyph glyph-name="degree" unicode="&#xb0;" 
d="M231 459.5q-31 18.5 -49 49.5t-18 69q0 37 18 68.5t49 49.5t70 18t70 -18t49 -49.5t18 -68.5q0 -38 -18 -69t-49 -49.5t-70 -18.5t-70 18.5zM358 521q22 23 22 57t-22 56.5t-57 22.5t-57 -22.5t-22 -56.5t22 -57t57 -23t57 23z" />
    <glyph glyph-name="plusminus" unicode="&#xb1;" 
d="M268 340h-178v64h178v179h65v-179h179v-64h-179v-179h-65v179zM90 64h422v-64h-422v64z" />
    <glyph glyph-name="uni00B2" unicode="&#xb2;" 
d="M162 472l130 126q26 25 35.5 44t9.5 42q0 22 -15.5 36.5t-43.5 14.5q-26 0 -42.5 -15.5t-16.5 -40.5q0 -14 4 -23l-54 -8q-7 14 -7 36q0 41 32 72t84 31q55 0 86.5 -27.5t31.5 -72.5q0 -35 -15 -62t-49 -61l-83 -80h151v-54h-238v42z" />
    <glyph glyph-name="uni00B3" unicode="&#xb3;" 
d="M208 453.5q-34 30.5 -34 71.5q0 18 7 32l54 -12q-3 -7 -3 -18q0 -24 19 -38t48 -14q32 0 50 15.5t18 44.5q0 59 -96 59v46q79 0 79 51q0 23 -15 34.5t-40 11.5q-24 0 -40.5 -12.5t-16.5 -33.5q0 -7 2 -17l-52 -6q-4 11 -4 27q0 38 31 65t80 27q53 0 83.5 -24.5
t30.5 -61.5q0 -24 -13.5 -44.5t-41.5 -33.5q31 -10 51.5 -33t20.5 -56q0 -51 -35.5 -81t-92.5 -30q-56 0 -90 30.5z" />
    <glyph glyph-name="acute" unicode="&#xb4;" 
d="M283 703h109l-113 -145h-67z" />
    <glyph glyph-name="uni00B5" unicode="&#xb5;" 
d="M89 496h81v-316q0 -58 32.5 -89.5t86.5 -31.5q38 0 72 21.5t54 59.5t20 85v271h81v-496h-81v86q-27 -47 -71.5 -73.5t-98.5 -26.5q-26 0 -53.5 7.5t-44.5 19.5q0 -9 1.5 -27.5t1.5 -33.5v-156h-81v700z" />
    <glyph glyph-name="paragraph" unicode="&#xb6;" 
d="M271 357h-33q-54 0 -97.5 21.5t-68.5 60.5t-25 90t25 90t68.5 60t97.5 21h303v-69h-57v-751h-77v751h-59v-751h-77v477z" />
    <glyph glyph-name="periodcentered" unicode="&#xb7;" 
d="M242 410h118v-120h-118v120z" />
    <glyph glyph-name="cedilla" unicode="&#xb8;" 
d="M241.5 -188q-22.5 16 -29.5 44l49 13q7 -28 38 -28q16 0 26 9.5t10 26.5t-10.5 27.5t-27.5 10.5q-24 0 -48 -20l-31 29l31 84h54l-35 -65q19 13 46 13q33 0 54 -21.5t21 -55.5q0 -39 -26.5 -61t-64.5 -22q-34 0 -56.5 16z" />
    <glyph glyph-name="uni00B9" unicode="&#xb9;" 
d="M198 483h95v220q-13 -13 -31.5 -18.5t-46.5 -5.5v58q34 0 52.5 10t29.5 33h56v-297h93v-53h-248v53z" />
    <glyph glyph-name="ordmasculine" unicode="&#xba;" 
d="M213 314.5q-42 21.5 -68.5 63t-26.5 97.5t26.5 97.5t68.5 63t88 21.5t88 -21.5t68.5 -63t26.5 -97.5t-26.5 -97.5t-68.5 -63t-88 -21.5t-88 21.5zM386 385.5q34 35.5 34 89.5t-34 89.5t-85 35.5t-85 -35.5t-34 -89.5t34 -89.5t85 -35.5t85 35.5z" />
    <glyph glyph-name="guillemotright" unicode="&#xbb;" 
d="M255 275l-167 201h94l168 -201l-168 -200h-94zM442 275l-167 201h94l168 -201l-168 -200h-94z" />
    <glyph glyph-name="onequarter" unicode="&#xbc;" 
d="M115 623q-13 -13 -30.5 -18.5t-44.5 -5.5v58q33 0 50.5 9.5t28.5 33.5h56v-350h-60v273zM106 171l365 398l39 -37l-364 -398zM437 66h-178v51l178 233h61v-233h53v-51h-53v-66h-61v66zM437 117v152l-118 -152h118z" />
    <glyph glyph-name="onehalf" unicode="&#xbd;" 
d="M115 623q-13 -13 -30.5 -18.5t-44.5 -5.5v58q33 0 50.5 9.5t28.5 33.5h56v-350h-60v273zM86 171l365 398l39 -37l-364 -398zM342 42l130 126q26 25 35.5 44t9.5 42q0 22 -15.5 36.5t-43.5 14.5q-26 0 -42.5 -15.5t-16.5 -40.5q0 -14 4 -23l-54 -8q-7 14 -7 36q0 41 32 72
t84 31q55 0 86.5 -27.5t31.5 -72.5q0 -35 -15 -62t-49 -61l-83 -80h151v-54h-238v42z" />
    <glyph glyph-name="threequarters" unicode="&#xbe;" 
d="M72 373.5q-34 30.5 -34 71.5q0 18 7 32l54 -12q-3 -7 -3 -18q0 -24 19 -38t48 -14q32 0 50 15.5t18 44.5q0 59 -96 59v46q79 0 79 51q0 23 -15 34.5t-40 11.5q-24 0 -40.5 -12.5t-16.5 -33.5q0 -7 2 -17l-52 -6q-4 11 -4 27q0 38 31 65t80 27q53 0 83.5 -24.5t30.5 -61.5
q0 -24 -13.5 -44.5t-41.5 -33.5q31 -10 51.5 -33t20.5 -56q0 -51 -35.5 -81t-92.5 -30q-56 0 -90 30.5zM142 171l364 398l39 -37l-364 -398zM457 66h-178v51l178 233h61v-233h53v-51h-53v-66h-61v66zM457 117v152l-118 -152h118z" />
    <glyph glyph-name="questiondown" unicode="&#xbf;" 
d="M376 389h-104v107h104v-107zM365 296q0 -55 -18 -89.5t-68 -76.5q-56 -48 -78 -81t-22 -79q0 -53 38.5 -85t99.5 -32q59 0 98.5 35t39.5 98q0 20 -7 41l74 15q13 -26 13 -64q0 -50 -26.5 -95t-76 -73t-114.5 -28q-69 0 -119 23.5t-75.5 65t-25.5 93.5q0 61 26.5 105.5
t99.5 106.5q33 28 46 55.5t13 78.5h82v-14z" />
    <glyph glyph-name="Agrave" unicode="&#xc0;" 
d="M258 700h86l245 -700h-90l-69 206h-258l-69 -206h-90zM407 278l-90 265q-13 45 -16 56q-3 -11 -16 -56l-90 -265h212zM159 907h109l71 -145h-67z" />
    <glyph glyph-name="Aacute" unicode="&#xc1;" 
d="M258 700h86l245 -700h-90l-69 206h-258l-69 -206h-90zM407 278l-90 265q-13 45 -16 56q-3 -11 -16 -56l-90 -265h212zM334 907h109l-113 -145h-67z" />
    <glyph glyph-name="Acircumflex" unicode="&#xc2;" 
d="M258 700h86l245 -700h-90l-69 206h-258l-69 -206h-90zM407 278l-90 265q-13 45 -16 56q-3 -11 -16 -56l-90 -265h212zM269 906h64l107 -144h-66l-73 72l-73 -72h-66z" />
    <glyph glyph-name="Atilde" unicode="&#xc3;" 
d="M258 700h86l245 -700h-90l-69 206h-258l-69 -206h-90zM407 278l-90 265q-13 45 -16 56q-3 -11 -16 -56l-90 -265h212zM322.5 775.5q-20.5 10.5 -41.5 29.5q-14 14 -25 20.5t-27 6.5q-14 0 -22 -8t-8 -20q0 -13 6 -24l-58 -12q-11 20 -11 45q0 39 26 59t62 20
q35 0 55.5 -10.5t41.5 -29.5q14 -14 25 -20.5t27 -6.5q14 0 22 8t8 20q0 14 -6 24l58 12q11 -22 11 -45q0 -39 -26 -59t-62 -20q-35 0 -55.5 10.5z" />
    <glyph glyph-name="Adieresis" unicode="&#xc4;" 
d="M258 700h86l245 -700h-90l-69 206h-258l-69 -206h-90zM407 278l-90 265q-13 45 -16 56q-3 -11 -16 -56l-90 -265h212zM165 884h94v-93h-94v93zM343 884h94v-93h-94v93z" />
    <glyph glyph-name="Aring" unicode="&#xc5;" 
d="M258 700h86l245 -700h-90l-69 206h-258l-69 -206h-90zM407 278l-90 265q-13 45 -16 56q-3 -11 -16 -56l-90 -265h212zM233 771.5q-28 27.5 -28 67.5t28 67.5t68 27.5t68 -27.5t28 -67.5t-28 -67.5t-68 -27.5t-68 27.5zM334 805.5q13 13.5 13 33.5t-13 33.5t-33 13.5
t-33 -13.5t-13 -33.5t13 -33.5t33 -13.5t33 13.5z" />
    <glyph glyph-name="AE" unicode="&#xc6;" 
d="M191 700h383v-74h-226v-227h198v-74h-198v-251h229v-74h-309v206h-120l-49 -206h-84zM268 278v348h-23q-11 -56 -15 -74l-66 -274h104z" />
    <glyph glyph-name="Ccedilla" unicode="&#xc7;" 
d="M327 -14l-23 -43q19 13 46 13q33 0 54 -21.5t21 -55.5q0 -39 -26.5 -61t-64.5 -22q-34 0 -56.5 16t-29.5 44l49 13q7 -28 38 -28q16 0 26 9.5t10 26.5t-10.5 27.5t-27.5 10.5q-24 0 -48 -20l-31 29l24 64q-77 9 -131.5 58.5t-82.5 128t-28 175.5q0 103 35 186t99.5 130.5
t148.5 47.5q94 0 155 -49t82 -132l-69 -34q-40 140 -172 140q-59 0 -103 -37t-67.5 -102.5t-23.5 -149.5q0 -131 50 -210t145 -79q64 0 106.5 37t68.5 116l69 -29q-63 -191 -233 -199z" />
    <glyph glyph-name="Egrave" unicode="&#xc8;" 
d="M87 700h422v-74h-338v-227h310v-74h-310v-251h341v-74h-425v700zM159 907h109l71 -145h-67z" />
    <glyph glyph-name="Eacute" unicode="&#xc9;" 
d="M87 700h422v-74h-338v-227h310v-74h-310v-251h341v-74h-425v700zM334 907h109l-113 -145h-67z" />
    <glyph glyph-name="Ecircumflex" unicode="&#xca;" 
d="M87 700h422v-74h-338v-227h310v-74h-310v-251h341v-74h-425v700zM269 906h64l107 -144h-66l-73 72l-73 -72h-66z" />
    <glyph glyph-name="Edieresis" unicode="&#xcb;" 
d="M87 700h422v-74h-338v-227h310v-74h-310v-251h341v-74h-425v700zM165 884h94v-93h-94v93zM343 884h94v-93h-94v93z" />
    <glyph glyph-name="Igrave" unicode="&#xcc;" 
d="M100 73h159v554h-153v73h390v-73h-153v-554h159v-73h-402v73zM159 907h109l71 -145h-67z" />
    <glyph glyph-name="Iacute" unicode="&#xcd;" 
d="M100 73h159v554h-153v73h390v-73h-153v-554h159v-73h-402v73zM334 907h109l-113 -145h-67z" />
    <glyph glyph-name="Icircumflex" unicode="&#xce;" 
d="M100 73h159v554h-153v73h390v-73h-153v-554h159v-73h-402v73zM269 906h64l107 -144h-66l-73 72l-73 -72h-66z" />
    <glyph glyph-name="Idieresis" unicode="&#xcf;" 
d="M100 73h159v554h-153v73h390v-73h-153v-554h159v-73h-402v73zM165 884h94v-93h-94v93zM343 884h94v-93h-94v93z" />
    <glyph glyph-name="Eth" unicode="&#xd0;" 
d="M88 314h-58v72h58v314h147q96 0 167.5 -42t110.5 -121t39 -187t-39 -187t-110.5 -121t-167.5 -42h-147v314zM226 75q114 0 177.5 69.5t63.5 205.5t-63.5 205.5t-177.5 69.5h-54v-239h106v-72h-106v-239h54z" />
    <glyph glyph-name="Ntilde" unicode="&#xd1;" 
d="M72 700h89l259 -496q24 -47 30 -59v555h80v-700h-89l-259 496q-21 39 -30 59v-555h-80v700zM322.5 775.5q-20.5 10.5 -41.5 29.5q-14 14 -25 20.5t-27 6.5q-14 0 -22 -8t-8 -20q0 -13 6 -24l-58 -12q-11 20 -11 45q0 39 26 59t62 20q35 0 55.5 -10.5t41.5 -29.5
q14 -14 25 -20.5t27 -6.5q14 0 22 8t8 20q0 14 -6 24l58 12q11 -22 11 -45q0 -39 -26 -59t-62 -20q-35 0 -55.5 10.5z" />
    <glyph glyph-name="Ograve" unicode="&#xd2;" 
d="M160.5 30q-60.5 44 -93.5 126t-33 194t33 194t93.5 126t140.5 44t140.5 -44t93.5 -126t33 -194t-33 -194t-93.5 -126t-140.5 -44t-140.5 44zM397.5 96.5q41.5 35.5 64 100.5t22.5 153t-22.5 153t-64 100.5t-96.5 35.5t-96.5 -35.5t-64 -100.5t-22.5 -153t22.5 -153
t64 -100.5t96.5 -35.5t96.5 35.5zM159 907h109l71 -145h-67z" />
    <glyph glyph-name="Oacute" unicode="&#xd3;" 
d="M160.5 30q-60.5 44 -93.5 126t-33 194t33 194t93.5 126t140.5 44t140.5 -44t93.5 -126t33 -194t-33 -194t-93.5 -126t-140.5 -44t-140.5 44zM397.5 96.5q41.5 35.5 64 100.5t22.5 153t-22.5 153t-64 100.5t-96.5 35.5t-96.5 -35.5t-64 -100.5t-22.5 -153t22.5 -153
t64 -100.5t96.5 -35.5t96.5 35.5zM334 907h109l-113 -145h-67z" />
    <glyph glyph-name="Ocircumflex" unicode="&#xd4;" 
d="M160.5 30q-60.5 44 -93.5 126t-33 194t33 194t93.5 126t140.5 44t140.5 -44t93.5 -126t33 -194t-33 -194t-93.5 -126t-140.5 -44t-140.5 44zM397.5 96.5q41.5 35.5 64 100.5t22.5 153t-22.5 153t-64 100.5t-96.5 35.5t-96.5 -35.5t-64 -100.5t-22.5 -153t22.5 -153
t64 -100.5t96.5 -35.5t96.5 35.5zM269 906h64l107 -144h-66l-73 72l-73 -72h-66z" />
    <glyph glyph-name="Otilde" unicode="&#xd5;" 
d="M160.5 30q-60.5 44 -93.5 126t-33 194t33 194t93.5 126t140.5 44t140.5 -44t93.5 -126t33 -194t-33 -194t-93.5 -126t-140.5 -44t-140.5 44zM397.5 96.5q41.5 35.5 64 100.5t22.5 153t-22.5 153t-64 100.5t-96.5 35.5t-96.5 -35.5t-64 -100.5t-22.5 -153t22.5 -153
t64 -100.5t96.5 -35.5t96.5 35.5zM322.5 775.5q-20.5 10.5 -41.5 29.5q-14 14 -25 20.5t-27 6.5q-14 0 -22 -8t-8 -20q0 -13 6 -24l-58 -12q-11 20 -11 45q0 39 26 59t62 20q35 0 55.5 -10.5t41.5 -29.5q14 -14 25 -20.5t27 -6.5q14 0 22 8t8 20q0 14 -6 24l58 12
q11 -22 11 -45q0 -39 -26 -59t-62 -20q-35 0 -55.5 10.5z" />
    <glyph glyph-name="Odieresis" unicode="&#xd6;" 
d="M160.5 30q-60.5 44 -93.5 126t-33 194t33 194t93.5 126t140.5 44t140.5 -44t93.5 -126t33 -194t-33 -194t-93.5 -126t-140.5 -44t-140.5 44zM397.5 96.5q41.5 35.5 64 100.5t22.5 153t-22.5 153t-64 100.5t-96.5 35.5t-96.5 -35.5t-64 -100.5t-22.5 -153t22.5 -153
t64 -100.5t96.5 -35.5t96.5 35.5zM165 884h94v-93h-94v93zM343 884h94v-93h-94v93z" />
    <glyph glyph-name="multiply" unicode="&#xd7;" 
d="M129 238l127 128l-127 125l46 46l126 -126l127 127l45 -46l-126 -126l127 -127l-46 -46l-127 127l-126 -127z" />
    <glyph glyph-name="Oslash" unicode="&#xd8;" 
d="M80 1l37 70q-40 48 -61.5 118.5t-21.5 160.5q0 112 33 194t93.5 126t140.5 44q74 0 132 -40l30 57l59 -32l-37 -70q40 -48 61.5 -118.5t21.5 -160.5q0 -112 -33 -194t-93.5 -126t-140.5 -44q-74 0 -132 40l-30 -57zM396 604q-41 35 -95 35q-55 0 -96.5 -35.5t-64 -100.5
t-22.5 -153q0 -118 43 -196zM397.5 96.5q41.5 35.5 64 100.5t22.5 153q0 118 -43 196l-235 -450q41 -35 95 -35q55 0 96.5 35.5z" />
    <glyph glyph-name="Ugrave" unicode="&#xd9;" 
d="M125 52q-64 66 -64 184v464h84v-465q0 -83 42 -128.5t114 -45.5t114 45.5t42 128.5v465h84v-464q0 -118 -64 -184t-176 -66t-176 66zM159 907h109l71 -145h-67z" />
    <glyph glyph-name="Uacute" unicode="&#xda;" 
d="M125 52q-64 66 -64 184v464h84v-465q0 -83 42 -128.5t114 -45.5t114 45.5t42 128.5v465h84v-464q0 -118 -64 -184t-176 -66t-176 66zM334 907h109l-113 -145h-67z" />
    <glyph glyph-name="Ucircumflex" unicode="&#xdb;" 
d="M125 52q-64 66 -64 184v464h84v-465q0 -83 42 -128.5t114 -45.5t114 45.5t42 128.5v465h84v-464q0 -118 -64 -184t-176 -66t-176 66zM269 906h64l107 -144h-66l-73 72l-73 -72h-66z" />
    <glyph glyph-name="Udieresis" unicode="&#xdc;" 
d="M125 52q-64 66 -64 184v464h84v-465q0 -83 42 -128.5t114 -45.5t114 45.5t42 128.5v465h84v-464q0 -118 -64 -184t-176 -66t-176 66zM165 884h94v-93h-94v93zM343 884h94v-93h-94v93z" />
    <glyph glyph-name="Yacute" unicode="&#xdd;" 
d="M259 277l-223 423h91l152 -299q8 -15 22 -47q14 32 22 47l152 299h91l-223 -423v-277h-84v277zM334 907h109l-113 -145h-67z" />
    <glyph glyph-name="Thorn" unicode="&#xde;" 
d="M60 700h84v-131h150q113 0 179.5 -58.5t66.5 -160.5t-66.5 -160.5t-179.5 -58.5h-150v-131h-84v700zM294 205q82 0 122 37.5t40 107.5t-40 107.5t-122 37.5h-150v-290h150z" />
    <glyph glyph-name="germandbls" unicode="&#xdf;" 
d="M276 -1.5q-33 12.5 -65 37.5l38 65q40 -45 99 -45q50 0 82.5 36.5t32.5 90.5q0 80 -53.5 121.5t-136.5 41.5h-17v71h24q61 0 98.5 33.5t37.5 90.5q0 47 -32.5 75t-83.5 28q-53 0 -86 -33.5t-33 -100.5v-510h-81v433h-73v63h73v14q0 68 28.5 114t74 68t98.5 22
q88 0 140.5 -46t52.5 -119q0 -60 -32.5 -100.5t-83.5 -59.5q75 -20 120.5 -71t45.5 -133q0 -52 -23.5 -97.5t-67 -73.5t-99.5 -28q-45 0 -78 12.5z" />
    <glyph glyph-name="agrave" unicode="&#xe0;" 
d="M124 28.5q-46 42.5 -46 109.5q0 68 47 108t122 51l176 26v25q0 48 -32 73t-91 25q-56 0 -88.5 -24t-32.5 -57q0 -6 2 -14l-69 -23q-8 18 -8 39q0 39 25 71.5t69.5 52t101.5 19.5q97 0 150 -43t53 -121v-222q0 -43 6.5 -69.5t24.5 -54.5h-81q-12 14 -20.5 38.5t-8.5 59.5
q-22 -50 -71.5 -81t-107.5 -31q-75 0 -121 42.5zM344.5 82q37.5 26 58 69t20.5 92v17l-158 -24q-51 -8 -79 -32.5t-28 -62.5t27.5 -61.5t72.5 -23.5q49 0 86.5 26zM158 703h109l71 -145h-67z" />
    <glyph glyph-name="aacute" unicode="&#xe1;" 
d="M124 28.5q-46 42.5 -46 109.5q0 68 47 108t122 51l176 26v25q0 48 -32 73t-91 25q-56 0 -88.5 -24t-32.5 -57q0 -6 2 -14l-69 -23q-8 18 -8 39q0 39 25 71.5t69.5 52t101.5 19.5q97 0 150 -43t53 -121v-222q0 -43 6.5 -69.5t24.5 -54.5h-81q-12 14 -20.5 38.5t-8.5 59.5
q-22 -50 -71.5 -81t-107.5 -31q-75 0 -121 42.5zM344.5 82q37.5 26 58 69t20.5 92v17l-158 -24q-51 -8 -79 -32.5t-28 -62.5t27.5 -61.5t72.5 -23.5q49 0 86.5 26zM334 703h109l-113 -145h-67z" />
    <glyph glyph-name="acircumflex" unicode="&#xe2;" 
d="M124 28.5q-46 42.5 -46 109.5q0 68 47 108t122 51l176 26v25q0 48 -32 73t-91 25q-56 0 -88.5 -24t-32.5 -57q0 -6 2 -14l-69 -23q-8 18 -8 39q0 39 25 71.5t69.5 52t101.5 19.5q97 0 150 -43t53 -121v-222q0 -43 6.5 -69.5t24.5 -54.5h-81q-12 14 -20.5 38.5t-8.5 59.5
q-22 -50 -71.5 -81t-107.5 -31q-75 0 -121 42.5zM344.5 82q37.5 26 58 69t20.5 92v17l-158 -24q-51 -8 -79 -32.5t-28 -62.5t27.5 -61.5t72.5 -23.5q49 0 86.5 26zM269 702h64l107 -144h-66l-73 72l-73 -72h-66z" />
    <glyph glyph-name="atilde" unicode="&#xe3;" 
d="M124 28.5q-46 42.5 -46 109.5q0 68 47 108t122 51l176 26v25q0 48 -32 73t-91 25q-56 0 -88.5 -24t-32.5 -57q0 -6 2 -14l-69 -23q-8 18 -8 39q0 39 25 71.5t69.5 52t101.5 19.5q97 0 150 -43t53 -121v-222q0 -43 6.5 -69.5t24.5 -54.5h-81q-12 14 -20.5 38.5t-8.5 59.5
q-22 -50 -71.5 -81t-107.5 -31q-75 0 -121 42.5zM344.5 82q37.5 26 58 69t20.5 92v17l-158 -24q-51 -8 -79 -32.5t-28 -62.5t27.5 -61.5t72.5 -23.5q49 0 86.5 26zM322.5 571.5q-20.5 10.5 -41.5 29.5q-14 14 -25 20.5t-27 6.5q-14 0 -22 -8t-8 -20q0 -13 6 -24l-58 -12
q-11 20 -11 45q0 39 26 59t62 20q35 0 55.5 -10.5t41.5 -29.5q14 -14 25 -20.5t27 -6.5q14 0 22 8t8 20q0 14 -6 24l58 12q11 -22 11 -45q0 -39 -26 -59t-62 -20q-35 0 -55.5 10.5z" />
    <glyph glyph-name="adieresis" unicode="&#xe4;" 
d="M124 28.5q-46 42.5 -46 109.5q0 68 47 108t122 51l176 26v25q0 48 -32 73t-91 25q-56 0 -88.5 -24t-32.5 -57q0 -6 2 -14l-69 -23q-8 18 -8 39q0 39 25 71.5t69.5 52t101.5 19.5q97 0 150 -43t53 -121v-222q0 -43 6.5 -69.5t24.5 -54.5h-81q-12 14 -20.5 38.5t-8.5 59.5
q-22 -50 -71.5 -81t-107.5 -31q-75 0 -121 42.5zM344.5 82q37.5 26 58 69t20.5 92v17l-158 -24q-51 -8 -79 -32.5t-28 -62.5t27.5 -61.5t72.5 -23.5q49 0 86.5 26zM165 680h94v-93h-94v93zM343 680h94v-93h-94v93z" />
    <glyph glyph-name="aring" unicode="&#xe5;" 
d="M124 28.5q-46 42.5 -46 109.5q0 68 47 108t122 51l176 26v25q0 48 -32 73t-91 25q-56 0 -88.5 -24t-32.5 -57q0 -6 2 -14l-69 -23q-8 18 -8 39q0 39 25 71.5t69.5 52t101.5 19.5q97 0 150 -43t53 -121v-222q0 -43 6.5 -69.5t24.5 -54.5h-81q-12 14 -20.5 38.5t-8.5 59.5
q-22 -50 -71.5 -81t-107.5 -31q-75 0 -121 42.5zM344.5 82q37.5 26 58 69t20.5 92v17l-158 -24q-51 -8 -79 -32.5t-28 -62.5t27.5 -61.5t72.5 -23.5q49 0 86.5 26zM233 567.5q-28 27.5 -28 67.5t28 67.5t68 27.5t68 -27.5t28 -67.5t-28 -67.5t-68 -27.5t-68 27.5zM334 601.5
q13 13.5 13 33.5t-13 33.5t-33 13.5t-33 -13.5t-13 -33.5t13 -33.5t33 -13.5t33 13.5z" />
    <glyph glyph-name="ae" unicode="&#xe6;" 
d="M52.5 25q-37.5 39 -37.5 107q0 72 48.5 115.5t130.5 47.5l60 2v52q0 97 -80 97q-39 0 -57.5 -21t-18.5 -52q0 -1 2 -15l-65 -22q-8 16 -8 39q0 57 40 96t105 39q98 0 133 -70q19 33 50 51.5t70 18.5q76 0 115 -60t39 -169v-46h-248q0 -82 19.5 -130.5t68.5 -48.5
q34 0 53.5 24.5t33.5 80.5l60 -20q-18 -75 -52 -115t-98 -40q-47 0 -80.5 30t-45.5 77q-36 -107 -135 -107q-65 0 -102.5 39zM500 299q0 144 -78 144q-41 0 -63.5 -37t-26.5 -107h168zM232 101q22 45 22 132l-47 -2q-116 -5 -116 -100q0 -36 20 -55.5t52 -19.5q47 0 69 45z
" />
    <glyph glyph-name="ccedilla" unicode="&#xe7;" 
d="M453.5 27.5q-55.5 -38.5 -128.5 -41.5l-23 -43q19 13 46 13q33 0 54 -21.5t21 -55.5q0 -39 -26.5 -61t-64.5 -22q-34 0 -56.5 16t-29.5 44l49 13q7 -28 38 -28q16 0 26 9.5t10 26.5t-10.5 27.5t-27.5 10.5q-24 0 -48 -20l-31 29l24 65q-62 8 -109 43.5t-73 91t-26 124.5
q0 75 32.5 135t88.5 93.5t125 33.5q82 0 137.5 -36t83.5 -105l-66 -38q-20 53 -60 79t-94 26q-47 0 -84.5 -23t-59 -65.5t-21.5 -99.5q0 -56 21 -98.5t58.5 -66t85.5 -23.5q57 0 96 27.5t66 82.5l64 -38q-32 -66 -87.5 -104.5z" />
    <glyph glyph-name="egrave" unicode="&#xe8;" 
d="M179 19.5q-54 33.5 -86 93.5t-32 135t33 135t89 93.5t122 33.5q71 0 123.5 -31.5t80 -87.5t27.5 -129v-27h-396q2 -48 22 -89t56.5 -66t82.5 -25q62 0 98.5 28.5t62.5 82.5l59 -36q-35 -71 -87.5 -107.5t-135.5 -36.5q-65 0 -119 33.5zM458 299q-3 69 -46.5 107.5
t-107.5 38.5q-58 0 -103 -39t-58 -107h315zM162 703h109l71 -145h-67z" />
    <glyph glyph-name="eacute" unicode="&#xe9;" 
d="M179 19.5q-54 33.5 -86 93.5t-32 135t33 135t89 93.5t122 33.5q71 0 123.5 -31.5t80 -87.5t27.5 -129v-27h-396q2 -48 22 -89t56.5 -66t82.5 -25q62 0 98.5 28.5t62.5 82.5l59 -36q-35 -71 -87.5 -107.5t-135.5 -36.5q-65 0 -119 33.5zM458 299q-3 69 -46.5 107.5
t-107.5 38.5q-58 0 -103 -39t-58 -107h315zM338 703h109l-113 -145h-67z" />
    <glyph glyph-name="ecircumflex" unicode="&#xea;" 
d="M179 19.5q-54 33.5 -86 93.5t-32 135t33 135t89 93.5t122 33.5q71 0 123.5 -31.5t80 -87.5t27.5 -129v-27h-396q2 -48 22 -89t56.5 -66t82.5 -25q62 0 98.5 28.5t62.5 82.5l59 -36q-35 -71 -87.5 -107.5t-135.5 -36.5q-65 0 -119 33.5zM458 299q-3 69 -46.5 107.5
t-107.5 38.5q-58 0 -103 -39t-58 -107h315zM272 702h64l107 -144h-66l-73 72l-73 -72h-66z" />
    <glyph glyph-name="edieresis" unicode="&#xeb;" 
d="M179 19.5q-54 33.5 -86 93.5t-32 135t33 135t89 93.5t122 33.5q71 0 123.5 -31.5t80 -87.5t27.5 -129v-27h-396q2 -48 22 -89t56.5 -66t82.5 -25q62 0 98.5 28.5t62.5 82.5l59 -36q-35 -71 -87.5 -107.5t-135.5 -36.5q-65 0 -119 33.5zM458 299q-3 69 -46.5 107.5
t-107.5 38.5q-58 0 -103 -39t-58 -107h315zM168 680h94v-93h-94v93zM346 680h94v-93h-94v93z" />
    <glyph glyph-name="igrave" unicode="&#xec;" 
d="M98 69h167v358h-142v69h222v-427h158v-69h-405v69zM163 703h109l71 -145h-67z" />
    <glyph glyph-name="iacute" unicode="&#xed;" 
d="M98 69h167v358h-142v69h222v-427h158v-69h-405v69zM338 703h109l-113 -145h-67z" />
    <glyph glyph-name="icircumflex" unicode="&#xee;" 
d="M98 69h167v358h-142v69h222v-427h158v-69h-405v69zM273 702h64l107 -144h-66l-73 72l-73 -72h-66z" />
    <glyph glyph-name="idieresis" unicode="&#xef;" 
d="M98 69h167v358h-142v69h222v-427h158v-69h-405v69zM169 680h94v-93h-94v93zM347 680h94v-93h-94v93z" />
    <glyph glyph-name="eth" unicode="&#xf0;" 
d="M183 14q-55 28 -87.5 82t-32.5 129q0 74 33 128t86 81.5t112 27.5q57 0 100.5 -23.5t66.5 -60.5q-21 101 -96 181l-128 -49l-21 59l95 37q-70 50 -141 77l35 62q114 -51 184 -109l96 37l23 -59l-69 -26q104 -120 104 -311q0 -96 -32.5 -161.5t-87.5 -97.5t-121 -32
q-64 0 -119 28zM381.5 75q36.5 20 59 58t22.5 91t-22.5 91t-59 58t-78.5 20t-78 -20t-58.5 -58t-22.5 -91t22.5 -91t58.5 -58t78 -20t78.5 20z" />
    <glyph glyph-name="ntilde" unicode="&#xf1;" 
d="M95 496h80v-88q28 47 73.5 74.5t98.5 27.5q76 0 125 -44.5t49 -128.5v-337h-80v316q0 58 -32.5 89.5t-87.5 31.5q-38 0 -72 -21.5t-54 -59.5t-20 -85v-271h-80v496zM341.5 571.5q-20.5 10.5 -41.5 29.5q-14 14 -25 20.5t-27 6.5q-14 0 -22 -8t-8 -20q0 -13 6 -24l-58 -12
q-11 20 -11 45q0 39 26 59t62 20q35 0 55.5 -10.5t41.5 -29.5q14 -14 25 -20.5t27 -6.5q14 0 22 8t8 20q0 14 -6 24l58 12q11 -22 11 -45q0 -39 -26 -59t-62 -20q-35 0 -55.5 10.5z" />
    <glyph glyph-name="ograve" unicode="&#xf2;" 
d="M176.5 17q-57.5 31 -92 90.5t-34.5 140.5t34.5 140.5t92 90.5t124.5 31t124.5 -31t92 -90.5t34.5 -140.5t-34.5 -140.5t-92 -90.5t-124.5 -31t-124.5 31zM387.5 82.5q38.5 23.5 61 66.5t22.5 99t-22.5 99t-61 66.5t-86.5 23.5t-86.5 -23.5t-61 -66.5t-22.5 -99t22.5 -99
t61 -66.5t86.5 -23.5t86.5 23.5zM159 703h109l71 -145h-67z" />
    <glyph glyph-name="oacute" unicode="&#xf3;" 
d="M176.5 17q-57.5 31 -92 90.5t-34.5 140.5t34.5 140.5t92 90.5t124.5 31t124.5 -31t92 -90.5t34.5 -140.5t-34.5 -140.5t-92 -90.5t-124.5 -31t-124.5 31zM387.5 82.5q38.5 23.5 61 66.5t22.5 99t-22.5 99t-61 66.5t-86.5 23.5t-86.5 -23.5t-61 -66.5t-22.5 -99t22.5 -99
t61 -66.5t86.5 -23.5t86.5 23.5zM334 703h109l-113 -145h-67z" />
    <glyph glyph-name="ocircumflex" unicode="&#xf4;" 
d="M176.5 17q-57.5 31 -92 90.5t-34.5 140.5t34.5 140.5t92 90.5t124.5 31t124.5 -31t92 -90.5t34.5 -140.5t-34.5 -140.5t-92 -90.5t-124.5 -31t-124.5 31zM387.5 82.5q38.5 23.5 61 66.5t22.5 99t-22.5 99t-61 66.5t-86.5 23.5t-86.5 -23.5t-61 -66.5t-22.5 -99t22.5 -99
t61 -66.5t86.5 -23.5t86.5 23.5zM269 702h64l107 -144h-66l-73 72l-73 -72h-66z" />
    <glyph glyph-name="otilde" unicode="&#xf5;" 
d="M176.5 17q-57.5 31 -92 90.5t-34.5 140.5t34.5 140.5t92 90.5t124.5 31t124.5 -31t92 -90.5t34.5 -140.5t-34.5 -140.5t-92 -90.5t-124.5 -31t-124.5 31zM387.5 82.5q38.5 23.5 61 66.5t22.5 99t-22.5 99t-61 66.5t-86.5 23.5t-86.5 -23.5t-61 -66.5t-22.5 -99t22.5 -99
t61 -66.5t86.5 -23.5t86.5 23.5zM322.5 571.5q-20.5 10.5 -41.5 29.5q-14 14 -25 20.5t-27 6.5q-14 0 -22 -8t-8 -20q0 -13 6 -24l-58 -12q-11 20 -11 45q0 39 26 59t62 20q35 0 55.5 -10.5t41.5 -29.5q14 -14 25 -20.5t27 -6.5q14 0 22 8t8 20q0 14 -6 24l58 12
q11 -22 11 -45q0 -39 -26 -59t-62 -20q-35 0 -55.5 10.5z" />
    <glyph glyph-name="odieresis" unicode="&#xf6;" 
d="M176.5 17q-57.5 31 -92 90.5t-34.5 140.5t34.5 140.5t92 90.5t124.5 31t124.5 -31t92 -90.5t34.5 -140.5t-34.5 -140.5t-92 -90.5t-124.5 -31t-124.5 31zM387.5 82.5q38.5 23.5 61 66.5t22.5 99t-22.5 99t-61 66.5t-86.5 23.5t-86.5 -23.5t-61 -66.5t-22.5 -99t22.5 -99
t61 -66.5t86.5 -23.5t86.5 23.5zM165 680h94v-93h-94v93zM343 680h94v-93h-94v93z" />
    <glyph glyph-name="divide" unicode="&#xf7;" 
d="M244 476h114v-116h-114v116zM90 272h422v-65h-422v65zM244 116h114v-116h-114v116z" />
    <glyph glyph-name="oslash" unicode="&#xf8;" 
d="M117 -3l25 43q-43 34 -67.5 87t-24.5 121q0 81 34.5 140.5t92 90.5t124.5 31q56 0 104 -21l24 41l56 -31l-25 -43q43 -34 67.5 -87t24.5 -121q0 -81 -34.5 -140.5t-92 -90.5t-124.5 -31q-56 0 -104 21l-24 -41zM366 423q-30 14 -65 14q-48 0 -86.5 -23.5t-61 -66.5
t-22.5 -99q0 -43 13.5 -78.5t37.5 -60.5zM387.5 82.5q38.5 23.5 61 66.5t22.5 99q0 43 -13.5 78.5t-37.5 60.5l-184 -314q30 -14 65 -14q48 0 86.5 23.5z" />
    <glyph glyph-name="ugrave" unicode="&#xf9;" 
d="M137.5 30.5q-49.5 44.5 -49.5 128.5v337h81v-316q0 -58 32.5 -89.5t86.5 -31.5q38 0 72 21.5t54 59.5t20 85v271h81v-496h-81v86q-27 -47 -71.5 -73.5t-98.5 -26.5q-77 0 -126.5 44.5zM159 703h109l71 -145h-67z" />
    <glyph glyph-name="uacute" unicode="&#xfa;" 
d="M137.5 30.5q-49.5 44.5 -49.5 128.5v337h81v-316q0 -58 32.5 -89.5t86.5 -31.5q38 0 72 21.5t54 59.5t20 85v271h81v-496h-81v86q-27 -47 -71.5 -73.5t-98.5 -26.5q-77 0 -126.5 44.5zM334 703h109l-113 -145h-67z" />
    <glyph glyph-name="ucircumflex" unicode="&#xfb;" 
d="M137.5 30.5q-49.5 44.5 -49.5 128.5v337h81v-316q0 -58 32.5 -89.5t86.5 -31.5q38 0 72 21.5t54 59.5t20 85v271h81v-496h-81v86q-27 -47 -71.5 -73.5t-98.5 -26.5q-77 0 -126.5 44.5zM269 702h64l107 -144h-66l-73 72l-73 -72h-66z" />
    <glyph glyph-name="udieresis" unicode="&#xfc;" 
d="M137.5 30.5q-49.5 44.5 -49.5 128.5v337h81v-316q0 -58 32.5 -89.5t86.5 -31.5q38 0 72 21.5t54 59.5t20 85v271h81v-496h-81v86q-27 -47 -71.5 -73.5t-98.5 -26.5q-77 0 -126.5 44.5zM165 680h94v-93h-94v93zM343 680h94v-93h-94v93z" />
    <glyph glyph-name="yacute" unicode="&#xfd;" 
d="M80 -188l24 69q30 -17 58 -17q46 0 66 51l35 87l-214 494h90l165 -391l161 391h87l-254 -606q-22 -52 -55 -76t-80 -24q-44 0 -83 22zM336 703h109l-113 -145h-67z" />
    <glyph glyph-name="thorn" unicode="&#xfe;" 
d="M67 700h80v-288q22 40 68.5 69t102.5 29q66 0 119 -33.5t82.5 -93t29.5 -135.5t-29.5 -135.5t-81 -93t-114.5 -33.5q-58 0 -103.5 25.5t-73.5 69.5v-285h-80v904zM387.5 83q37.5 24 58 67t20.5 98t-20.5 98t-57.5 67t-85 24t-84.5 -24.5t-57 -67.5t-20.5 -97t20.5 -97
t57.5 -67.5t84 -24.5t84.5 24z" />
    <glyph glyph-name="ydieresis" unicode="&#xff;" 
d="M80 -188l24 69q30 -17 58 -17q46 0 66 51l35 87l-214 494h90l165 -391l161 391h87l-254 -606q-22 -52 -55 -76t-80 -24q-44 0 -83 22zM167 680h94v-93h-94v93zM345 680h94v-93h-94v93z" />
    <glyph glyph-name="Amacron" unicode="&#x100;" 
d="M258 700h86l245 -700h-90l-69 206h-258l-69 -206h-90zM407 278l-90 265q-13 45 -16 56q-3 -11 -16 -56l-90 -265h212zM191 873h220v-68h-220v68z" />
    <glyph glyph-name="amacron" unicode="&#x101;" 
d="M124 28.5q-46 42.5 -46 109.5q0 68 47 108t122 51l176 26v25q0 48 -32 73t-91 25q-56 0 -88.5 -24t-32.5 -57q0 -6 2 -14l-69 -23q-8 18 -8 39q0 39 25 71.5t69.5 52t101.5 19.5q97 0 150 -43t53 -121v-222q0 -43 6.5 -69.5t24.5 -54.5h-81q-12 14 -20.5 38.5t-8.5 59.5
q-22 -50 -71.5 -81t-107.5 -31q-75 0 -121 42.5zM344.5 82q37.5 26 58 69t20.5 92v17l-158 -24q-51 -8 -79 -32.5t-28 -62.5t27.5 -61.5t72.5 -23.5q49 0 86.5 26zM191 669h220v-68h-220v68z" />
    <glyph glyph-name="Abreve" unicode="&#x102;" 
d="M258 700h86l245 -700h-90l-69 206h-258l-69 -206h-90zM407 278l-90 265q-13 45 -16 56q-3 -11 -16 -56l-90 -265h212zM224.5 802q-30.5 30 -30.5 74h64q0 -20 11.5 -32.5t31.5 -12.5t31.5 12.5t11.5 32.5h64q0 -44 -30.5 -74t-76.5 -30t-76.5 30z" />
    <glyph glyph-name="abreve" unicode="&#x103;" 
d="M124 28.5q-46 42.5 -46 109.5q0 68 47 108t122 51l176 26v25q0 48 -32 73t-91 25q-56 0 -88.5 -24t-32.5 -57q0 -6 2 -14l-69 -23q-8 18 -8 39q0 39 25 71.5t69.5 52t101.5 19.5q97 0 150 -43t53 -121v-222q0 -43 6.5 -69.5t24.5 -54.5h-81q-12 14 -20.5 38.5t-8.5 59.5
q-22 -50 -71.5 -81t-107.5 -31q-75 0 -121 42.5zM344.5 82q37.5 26 58 69t20.5 92v17l-158 -24q-51 -8 -79 -32.5t-28 -62.5t27.5 -61.5t72.5 -23.5q49 0 86.5 26zM224.5 598q-30.5 30 -30.5 74h64q0 -20 11.5 -32.5t31.5 -12.5t31.5 12.5t11.5 32.5h64q0 -44 -30.5 -74
t-76.5 -30t-76.5 30z" />
    <glyph glyph-name="Aogonek" unicode="&#x104;" 
d="M596 -192q-20 -6 -46 -6q-43 0 -73.5 24.5t-30.5 68.5q0 31 17 58t45 47h-9l-69 206h-258l-69 -206h-90l245 700h86l245 -700q-35 -18 -53 -40t-18 -45q0 -20 14 -32t35 -12q12 0 19 2zM407 278l-90 265q-13 45 -16 56q-3 -11 -16 -56l-90 -265h212z" />
    <glyph glyph-name="aogonek" unicode="&#x105;" 
d="M541 -192q-20 -6 -46 -6q-43 0 -73.5 24.5t-30.5 68.5q0 31 17 58t45 47q-12 14 -20.5 38.5t-8.5 59.5q-22 -50 -71.5 -81t-107.5 -31q-75 0 -121 42.5t-46 109.5q0 68 47 108t122 51l176 26v25q0 48 -32 73t-91 25q-56 0 -88.5 -24t-32.5 -57q0 -6 2 -14l-69 -23
q-8 18 -8 39q0 39 25 71.5t69.5 52t101.5 19.5q97 0 150 -43t53 -121v-222q0 -43 6.5 -69.5t24.5 -54.5q-35 -18 -53 -40t-18 -45q0 -20 14 -32t35 -12q12 0 19 2zM423 260l-158 -24q-51 -8 -79 -32.5t-28 -62.5t27.5 -61.5t72.5 -23.5q49 0 86.5 26t58 69t20.5 92v17z" />
    <glyph glyph-name="Cacute" unicode="&#x106;" 
d="M162.5 33.5q-62.5 47.5 -94.5 129.5t-32 187q0 103 35 186t99.5 130.5t148.5 47.5q94 0 155 -49t82 -132l-69 -34q-40 140 -172 140q-59 0 -103 -37t-67.5 -102.5t-23.5 -149.5q0 -131 50 -210t145 -79q64 0 106.5 37t68.5 116l69 -29q-30 -93 -90.5 -146t-156.5 -53
q-88 0 -150.5 47.5zM352 907h109l-113 -145h-67z" />
    <glyph glyph-name="cacute" unicode="&#x107;" 
d="M186 19.5q-56 33.5 -87 93t-31 135.5q0 75 32.5 135t88.5 93.5t125 33.5q82 0 137.5 -36t83.5 -105l-66 -38q-20 53 -60 79t-94 26q-47 0 -84.5 -23t-59 -65.5t-21.5 -99.5q0 -56 21 -98.5t58.5 -66t85.5 -23.5q57 0 96 27.5t66 82.5l64 -38q-34 -68 -92 -107t-135 -39
q-72 0 -128 33.5zM347 703h109l-113 -145h-67z" />
    <glyph glyph-name="Ccircumflex" unicode="&#x108;" 
d="M162.5 33.5q-62.5 47.5 -94.5 129.5t-32 187q0 103 35 186t99.5 130.5t148.5 47.5q94 0 155 -49t82 -132l-69 -34q-40 140 -172 140q-59 0 -103 -37t-67.5 -102.5t-23.5 -149.5q0 -131 50 -210t145 -79q64 0 106.5 37t68.5 116l69 -29q-30 -93 -90.5 -146t-156.5 -53
q-88 0 -150.5 47.5zM287 906h64l107 -144h-66l-73 72l-73 -72h-66z" />
    <glyph glyph-name="ccircumflex" unicode="&#x109;" 
d="M186 19.5q-56 33.5 -87 93t-31 135.5q0 75 32.5 135t88.5 93.5t125 33.5q82 0 137.5 -36t83.5 -105l-66 -38q-20 53 -60 79t-94 26q-47 0 -84.5 -23t-59 -65.5t-21.5 -99.5q0 -56 21 -98.5t58.5 -66t85.5 -23.5q57 0 96 27.5t66 82.5l64 -38q-34 -68 -92 -107t-135 -39
q-72 0 -128 33.5zM282 702h64l107 -144h-66l-73 72l-73 -72h-66z" />
    <glyph glyph-name="Cdotaccent" unicode="&#x10a;" 
d="M162.5 33.5q-62.5 47.5 -94.5 129.5t-32 187q0 103 35 186t99.5 130.5t148.5 47.5q94 0 155 -49t82 -132l-69 -34q-40 140 -172 140q-59 0 -103 -37t-67.5 -102.5t-23.5 -149.5q0 -131 50 -210t145 -79q64 0 106.5 37t68.5 116l69 -29q-30 -93 -90.5 -146t-156.5 -53
q-88 0 -150.5 47.5zM271 884h95v-97h-95v97z" />
    <glyph glyph-name="cdotaccent" unicode="&#x10b;" 
d="M186 19.5q-56 33.5 -87 93t-31 135.5q0 75 32.5 135t88.5 93.5t125 33.5q82 0 137.5 -36t83.5 -105l-66 -38q-20 53 -60 79t-94 26q-47 0 -84.5 -23t-59 -65.5t-21.5 -99.5q0 -56 21 -98.5t58.5 -66t85.5 -23.5q57 0 96 27.5t66 82.5l64 -38q-34 -68 -92 -107t-135 -39
q-72 0 -128 33.5zM266 680h95v-97h-95v97z" />
    <glyph glyph-name="Ccaron" unicode="&#x10c;" 
d="M162.5 33.5q-62.5 47.5 -94.5 129.5t-32 187q0 103 35 186t99.5 130.5t148.5 47.5q94 0 155 -49t82 -132l-69 -34q-40 140 -172 140q-59 0 -103 -37t-67.5 -102.5t-23.5 -149.5q0 -131 50 -210t145 -79q64 0 106.5 37t68.5 116l69 -29q-30 -93 -90.5 -146t-156.5 -53
q-88 0 -150.5 47.5zM180 906h66l73 -72l73 72h66l-107 -144h-64z" />
    <glyph glyph-name="ccaron" unicode="&#x10d;" 
d="M186 19.5q-56 33.5 -87 93t-31 135.5q0 75 32.5 135t88.5 93.5t125 33.5q82 0 137.5 -36t83.5 -105l-66 -38q-20 53 -60 79t-94 26q-47 0 -84.5 -23t-59 -65.5t-21.5 -99.5q0 -56 21 -98.5t58.5 -66t85.5 -23.5q57 0 96 27.5t66 82.5l64 -38q-34 -68 -92 -107t-135 -39
q-72 0 -128 33.5zM175 702h66l73 -72l73 72h66l-107 -144h-64z" />
    <glyph glyph-name="Dcaron" unicode="&#x10e;" 
d="M70 700h147q97 0 168.5 -42t110 -121t38.5 -187t-38.5 -187t-110 -121t-168.5 -42h-147v700zM208 75q114 0 178 69.5t64 205.5t-64 205.5t-178 69.5h-54v-550h54zM81 906h66l73 -72l73 72h66l-107 -144h-64z" />
    <glyph glyph-name="dcaron" unicode="&#x10f;" 
d="M134.5 19.5q-51.5 33.5 -80.5 93t-29 135.5q0 75 29 135t78.5 93.5t110.5 33.5q56 0 99.5 -24.5t68.5 -66.5v281h81v-700h-81v82q-19 -40 -62.5 -68t-97.5 -28q-65 0 -116.5 33.5zM537 524l35 80h-39v96h93v-96l-67 -91zM375.5 112q42.5 53 42.5 136q0 54 -19.5 97
t-55 67.5t-80.5 24.5q-70 0 -113 -52.5t-43 -136.5t43 -136.5t113 -52.5t112.5 53z" />
    <glyph glyph-name="Dcroat" unicode="&#x110;" 
d="M88 314h-58v72h58v314h147q96 0 167.5 -42t110.5 -121t39 -187t-39 -187t-110.5 -121t-167.5 -42h-147v314zM226 75q114 0 177.5 69.5t63.5 205.5t-63.5 205.5t-177.5 69.5h-54v-239h106v-72h-106v-239h54z" />
    <glyph glyph-name="dcroat" unicode="&#x111;" 
d="M167 19.5q-53 33.5 -83 93t-30 135.5t29 135.5t80.5 93t115.5 33.5q57 0 102 -25t73 -70v156h-156v64h156v65h81v-65h60v-64h-60v-571h-81v84q-23 -42 -67 -70t-101 -28q-66 0 -119 33.5zM383.5 83.5q36.5 24.5 57 67.5t20.5 97t-20.5 97t-57.5 67.5t-84 24.5t-84 -24
t-57.5 -67t-20.5 -98q0 -84 45 -136.5t117 -52.5q48 0 84.5 24.5z" />
    <glyph glyph-name="Emacron" unicode="&#x112;" 
d="M87 700h422v-74h-338v-227h310v-74h-310v-251h341v-74h-425v700zM191 873h220v-68h-220v68z" />
    <glyph glyph-name="emacron" unicode="&#x113;" 
d="M179 19.5q-54 33.5 -86 93.5t-32 135t33 135t89 93.5t122 33.5q71 0 123.5 -31.5t80 -87.5t27.5 -129v-27h-396q2 -48 22 -89t56.5 -66t82.5 -25q62 0 98.5 28.5t62.5 82.5l59 -36q-35 -71 -87.5 -107.5t-135.5 -36.5q-65 0 -119 33.5zM458 299q-3 69 -46.5 107.5
t-107.5 38.5q-58 0 -103 -39t-58 -107h315zM194 669h220v-68h-220v68z" />
    <glyph glyph-name="Ebreve" unicode="&#x114;" 
d="M87 700h422v-74h-338v-227h310v-74h-310v-251h341v-74h-425v700zM224.5 802q-30.5 30 -30.5 74h64q0 -20 11.5 -32.5t31.5 -12.5t31.5 12.5t11.5 32.5h64q0 -44 -30.5 -74t-76.5 -30t-76.5 30z" />
    <glyph glyph-name="ebreve" unicode="&#x115;" 
d="M179 19.5q-54 33.5 -86 93.5t-32 135t33 135t89 93.5t122 33.5q71 0 123.5 -31.5t80 -87.5t27.5 -129v-27h-396q2 -48 22 -89t56.5 -66t82.5 -25q62 0 98.5 28.5t62.5 82.5l59 -36q-35 -71 -87.5 -107.5t-135.5 -36.5q-65 0 -119 33.5zM458 299q-3 69 -46.5 107.5
t-107.5 38.5q-58 0 -103 -39t-58 -107h315zM227.5 598q-30.5 30 -30.5 74h64q0 -20 11.5 -32.5t31.5 -12.5t31.5 12.5t11.5 32.5h64q0 -44 -30.5 -74t-76.5 -30t-76.5 30z" />
    <glyph glyph-name="Edotaccent" unicode="&#x116;" 
d="M87 700h422v-74h-338v-227h310v-74h-310v-251h341v-74h-425v700zM253 884h95v-97h-95v97z" />
    <glyph glyph-name="edotaccent" unicode="&#x117;" 
d="M179 19.5q-54 33.5 -86 93.5t-32 135t33 135t89 93.5t122 33.5q71 0 123.5 -31.5t80 -87.5t27.5 -129v-27h-396q2 -48 22 -89t56.5 -66t82.5 -25q62 0 98.5 28.5t62.5 82.5l59 -36q-35 -71 -87.5 -107.5t-135.5 -36.5q-65 0 -119 33.5zM458 299q-3 69 -46.5 107.5
t-107.5 38.5q-58 0 -103 -39t-58 -107h315zM257 680h95v-97h-95v97z" />
    <glyph glyph-name="Eogonek" unicode="&#x118;" 
d="M519 -192q-19 -6 -46 -6q-43 0 -73.5 24.5t-30.5 68.5q0 31 17 58t45 47h-344v700h422v-74h-338v-227h310v-74h-310v-251h341v-74q-35 -18 -53 -40t-18 -45q0 -20 14 -32t35 -12q12 0 19 2z" />
    <glyph glyph-name="eogonek" unicode="&#x119;" 
d="M536 235h-396q2 -48 22 -89t56.5 -66t82.5 -25q62 0 98.5 28.5t62.5 82.5l59 -36q-25 -50 -58 -83t-78 -48q-69 -37 -69 -84q0 -20 14 -32t35 -12q12 0 19 2l10 -65q-20 -6 -46 -6q-43 0 -73.5 24.5t-30.5 68.5q0 51 45 91q-63 2 -115 36.5t-82.5 93.5t-30.5 132
q0 75 33 135t89 93.5t122 33.5q71 0 123.5 -31.5t80 -87.5t27.5 -129v-27zM458 299q-3 69 -46.5 107.5t-107.5 38.5q-58 0 -103 -39t-58 -107h315z" />
    <glyph glyph-name="Ecaron" unicode="&#x11a;" 
d="M87 700h422v-74h-338v-227h310v-74h-310v-251h341v-74h-425v700zM162 906h66l73 -72l73 72h66l-107 -144h-64z" />
    <glyph glyph-name="ecaron" unicode="&#x11b;" 
d="M179 19.5q-54 33.5 -86 93.5t-32 135t33 135t89 93.5t122 33.5q71 0 123.5 -31.5t80 -87.5t27.5 -129v-27h-396q2 -48 22 -89t56.5 -66t82.5 -25q62 0 98.5 28.5t62.5 82.5l59 -36q-35 -71 -87.5 -107.5t-135.5 -36.5q-65 0 -119 33.5zM458 299q-3 69 -46.5 107.5
t-107.5 38.5q-58 0 -103 -39t-58 -107h315zM165 702h66l73 -72l73 72h66l-107 -144h-64z" />
    <glyph glyph-name="Gcircumflex" unicode="&#x11c;" 
d="M159 33q-61 47 -92.5 129.5t-31.5 187.5q0 103 36 186t100.5 130.5t147.5 47.5q90 0 148.5 -45.5t87.5 -129.5l-69 -37q-44 139 -169 139q-59 0 -103.5 -37t-69 -103.5t-24.5 -150.5q0 -132 49.5 -210.5t143.5 -78.5q71 0 112.5 61.5t48.5 157.5h-185v71h269v-351h-52
l-22 113q-22 -58 -67 -92.5t-111 -34.5q-86 0 -147 47zM286 906h64l107 -144h-66l-73 72l-73 -72h-66z" />
    <glyph glyph-name="gcircumflex" unicode="&#x11d;" 
d="M147.5 -178q-57.5 40 -57.5 105q0 28 13 54l76 -22q-7 -19 -7 -35q0 -35 36 -55t100 -20q76 0 115.5 45t39.5 133v72q-56 -91 -167 -91q-65 0 -118 30.5t-84 87.5t-31 133q0 77 32 134t85 87t116 30q57 0 100 -23t67 -62v71h80v-463q0 -119 -61.5 -185t-174.5 -66
q-102 0 -159.5 40zM424 127q45 49 45 132t-45 132t-118 49t-117.5 -49t-44.5 -132t44.5 -132t117.5 -49t118 49zM275 702h64l107 -144h-66l-73 72l-73 -72h-66z" />
    <glyph glyph-name="Gbreve" unicode="&#x11e;" 
d="M159 33q-61 47 -92.5 129.5t-31.5 187.5q0 103 36 186t100.5 130.5t147.5 47.5q90 0 148.5 -45.5t87.5 -129.5l-69 -37q-44 139 -169 139q-59 0 -103.5 -37t-69 -103.5t-24.5 -150.5q0 -132 49.5 -210.5t143.5 -78.5q71 0 112.5 61.5t48.5 157.5h-185v71h269v-351h-52
l-22 113q-22 -58 -67 -92.5t-111 -34.5q-86 0 -147 47zM241.5 802q-30.5 30 -30.5 74h64q0 -20 11.5 -32.5t31.5 -12.5t31.5 12.5t11.5 32.5h64q0 -44 -30.5 -74t-76.5 -30t-76.5 30z" />
    <glyph glyph-name="gbreve" unicode="&#x11f;" 
d="M147.5 -178q-57.5 40 -57.5 105q0 28 13 54l76 -22q-7 -19 -7 -35q0 -35 36 -55t100 -20q76 0 115.5 45t39.5 133v72q-56 -91 -167 -91q-65 0 -118 30.5t-84 87.5t-31 133q0 77 32 134t85 87t116 30q57 0 100 -23t67 -62v71h80v-463q0 -119 -61.5 -185t-174.5 -66
q-102 0 -159.5 40zM424 127q45 49 45 132t-45 132t-118 49t-117.5 -49t-44.5 -132t44.5 -132t117.5 -49t118 49zM230.5 598q-30.5 30 -30.5 74h64q0 -20 11.5 -32.5t31.5 -12.5t31.5 12.5t11.5 32.5h64q0 -44 -30.5 -74t-76.5 -30t-76.5 30z" />
    <glyph glyph-name="Gdotaccent" unicode="&#x120;" 
d="M159 33q-61 47 -92.5 129.5t-31.5 187.5q0 103 36 186t100.5 130.5t147.5 47.5q90 0 148.5 -45.5t87.5 -129.5l-69 -37q-44 139 -169 139q-59 0 -103.5 -37t-69 -103.5t-24.5 -150.5q0 -132 49.5 -210.5t143.5 -78.5q71 0 112.5 61.5t48.5 157.5h-185v71h269v-351h-52
l-22 113q-22 -58 -67 -92.5t-111 -34.5q-86 0 -147 47zM271 884h95v-97h-95v97z" />
    <glyph glyph-name="gdotaccent" unicode="&#x121;" 
d="M147.5 -178q-57.5 40 -57.5 105q0 28 13 54l76 -22q-7 -19 -7 -35q0 -35 36 -55t100 -20q76 0 115.5 45t39.5 133v72q-56 -91 -167 -91q-65 0 -118 30.5t-84 87.5t-31 133q0 77 32 134t85 87t116 30q57 0 100 -23t67 -62v71h80v-463q0 -119 -61.5 -185t-174.5 -66
q-102 0 -159.5 40zM424 127q45 49 45 132t-45 132t-118 49t-117.5 -49t-44.5 -132t44.5 -132t117.5 -49t118 49zM259 680h95v-97h-95v97z" />
    <glyph glyph-name="uni0122" unicode="&#x122;" 
d="M159 33q-61 47 -92.5 129.5t-31.5 187.5q0 103 36 186t100.5 130.5t147.5 47.5q90 0 148.5 -45.5t87.5 -129.5l-69 -37q-44 139 -169 139q-59 0 -103.5 -37t-69 -103.5t-24.5 -150.5q0 -132 49.5 -210.5t143.5 -78.5q71 0 112.5 61.5t48.5 157.5h-185v71h269v-351h-52
l-22 113q-22 -58 -67 -92.5t-111 -34.5q-86 0 -147 47zM270 -271l29 112h-37v99h100v-99l-70 -120z" />
    <glyph glyph-name="uni0123" unicode="&#x123;" 
d="M147.5 -178q-57.5 40 -57.5 105q0 28 13 54l76 -22q-7 -19 -7 -35q0 -35 36 -55t100 -20q76 0 115.5 45t39.5 133v72q-56 -91 -167 -91q-65 0 -118 30.5t-84 87.5t-31 133q0 77 32 134t85 87t116 30q57 0 100 -23t67 -62v71h80v-463q0 -119 -61.5 -185t-174.5 -66
q-102 0 -159.5 40zM424 127q45 49 45 132t-45 132t-118 49t-117.5 -49t-44.5 -132t44.5 -132t117.5 -49t118 49zM246 666l101 121l20 -16l-60 -105h42v-103h-103v103z" />
    <glyph glyph-name="Hcircumflex" unicode="&#x124;" 
d="M68 700h84v-305h298v305h84v-700h-84v319h-298v-319h-84v700zM269 906h64l107 -144h-66l-73 72l-73 -72h-66z" />
    <glyph glyph-name="hcircumflex" unicode="&#x125;" 
d="M79 700h80v-295q29 50 76.5 77.5t105.5 27.5q81 0 128 -46t47 -125v-339h-81v316q0 58 -32 89.5t-88 31.5q-41 0 -76.5 -22t-57.5 -61t-22 -87v-267h-80v700zM87 906h64l107 -144h-66l-73 72l-73 -72h-66z" />
    <glyph glyph-name="Hbar" unicode="&#x126;" 
d="M68 498h-70v66h70v136h84v-136h298v136h84v-136h70v-66h-70v-498h-84v319h-298v-319h-84v498zM450 395v103h-298v-103h298z" />
    <glyph glyph-name="hbar" unicode="&#x127;" 
d="M79 571h-61v64h61v65h80v-65h160v-64h-160v-166q29 50 76.5 77.5t105.5 27.5q81 0 128 -46t47 -125v-339h-81v316q0 58 -32 89.5t-88 31.5q-41 0 -76.5 -22t-57.5 -61t-22 -87v-267h-80v571z" />
    <glyph glyph-name="Itilde" unicode="&#x128;" 
d="M100 73h159v554h-153v73h390v-73h-153v-554h159v-73h-402v73zM322.5 775.5q-20.5 10.5 -41.5 29.5q-14 14 -25 20.5t-27 6.5q-14 0 -22 -8t-8 -20q0 -13 6 -24l-58 -12q-11 20 -11 45q0 39 26 59t62 20q35 0 55.5 -10.5t41.5 -29.5q14 -14 25 -20.5t27 -6.5q14 0 22 8
t8 20q0 14 -6 24l58 12q11 -22 11 -45q0 -39 -26 -59t-62 -20q-35 0 -55.5 10.5z" />
    <glyph glyph-name="itilde" unicode="&#x129;" 
d="M98 69h167v358h-142v69h222v-427h158v-69h-405v69zM326.5 571.5q-20.5 10.5 -41.5 29.5q-14 14 -25 20.5t-27 6.5q-14 0 -22 -8t-8 -20q0 -13 6 -24l-58 -12q-11 20 -11 45q0 39 26 59t62 20q35 0 55.5 -10.5t41.5 -29.5q14 -14 25 -20.5t27 -6.5q14 0 22 8t8 20
q0 14 -6 24l58 12q11 -22 11 -45q0 -39 -26 -59t-62 -20q-35 0 -55.5 10.5z" />
    <glyph glyph-name="Imacron" unicode="&#x12a;" 
d="M100 73h159v554h-153v73h390v-73h-153v-554h159v-73h-402v73zM191 873h220v-68h-220v68z" />
    <glyph glyph-name="imacron" unicode="&#x12b;" 
d="M98 69h167v358h-142v69h222v-427h158v-69h-405v69zM195 669h220v-68h-220v68z" />
    <glyph glyph-name="Ibreve" unicode="&#x12c;" 
d="M100 73h159v554h-153v73h390v-73h-153v-554h159v-73h-402v73zM224.5 802q-30.5 30 -30.5 74h64q0 -20 11.5 -32.5t31.5 -12.5t31.5 12.5t11.5 32.5h64q0 -44 -30.5 -74t-76.5 -30t-76.5 30z" />
    <glyph glyph-name="ibreve" unicode="&#x12d;" 
d="M98 69h167v358h-142v69h222v-427h158v-69h-405v69zM228.5 598q-30.5 30 -30.5 74h64q0 -20 11.5 -32.5t31.5 -12.5t31.5 12.5t11.5 32.5h64q0 -44 -30.5 -74t-76.5 -30t-76.5 30z" />
    <glyph glyph-name="Iogonek" unicode="&#x12e;" 
d="M508 -192q-19 -6 -46 -6q-43 0 -73.5 24.5t-30.5 68.5q0 31 17 58t45 47h-320v73h159v554h-153v73h390v-73h-153v-554h159v-73h-1q-35 -18 -53 -40t-18 -45q0 -20 14 -32t35 -12q12 0 19 2z" />
    <glyph glyph-name="iogonek" unicode="&#x12f;" 
d="M352 583h-95v97h95v-97zM510 -192q-20 -6 -46 -6q-43 0 -73.5 24.5t-30.5 68.5q0 31 17 58t45 47h-324v69h167v358h-142v69h222v-427h158v-69q-35 -18 -53 -40t-18 -45q0 -20 14 -32t35 -12q12 0 19 2z" />
    <glyph glyph-name="Idotaccent" unicode="&#x130;" 
d="M100 73h159v554h-153v73h390v-73h-153v-554h159v-73h-402v73zM253 884h95v-97h-95v97z" />
    <glyph glyph-name="dotlessi" unicode="&#x131;" 
d="M98 69h167v358h-142v69h222v-427h158v-69h-405v69z" />
    <glyph glyph-name="IJ" unicode="&#x132;" 
d="M150.5 47q-60.5 61 -60.5 167h84q0 -73 40 -113t99 -40q61 0 96.5 38t35.5 109v492h84v-492q0 -67 -27 -117t-76 -77.5t-113 -27.5q-102 0 -162.5 61zM90 700h84v-400h-84v400z" />
    <glyph glyph-name="ij" unicode="&#x133;" 
d="M94 680h95v-97h-95v97zM409 680h96v-97h-96v97zM101 496h81v-496h-81v496zM218.5 -178q-42.5 33 -42.5 91q0 17 9 42l71 -24q-3 -8 -3 -18q0 -25 20.5 -40t56.5 -15q43 0 65 22t22 70v477h-150v69h230v-543q0 -73 -44.5 -118.5t-121.5 -45.5q-70 0 -112.5 33z" />
    <glyph glyph-name="Jcircumflex" unicode="&#x134;" 
d="M145 47q-61 61 -61 167l85 -9q0 -69 39.5 -106.5t99.5 -37.5q61 0 97 38t36 109v492h84v-492q0 -67 -27 -117t-76 -77.5t-114 -27.5q-102 0 -163 61zM451 906h64l107 -144h-66l-73 72l-73 -72h-66z" />
    <glyph glyph-name="jcircumflex" unicode="&#x135;" 
d="M137.5 -177q-43.5 34 -43.5 93q0 20 8 41l74 -24q-4 -7 -4 -19q0 -25 21.5 -39.5t58.5 -14.5q86 0 86 92v475h-157v69h238v-543q0 -75 -44 -119.5t-122 -44.5q-72 0 -115.5 34zM347 702h64l107 -144h-66l-73 72l-73 -72h-66z" />
    <glyph glyph-name="uni0136" unicode="&#x136;" 
d="M75 700h84v-314l59 64l230 250h103l-242 -266l258 -434h-97l-221 369l-90 -92v-277h-84v700zM260 -271l29 112h-37v99h100v-99l-70 -120z" />
    <glyph glyph-name="uni0137" unicode="&#x137;" 
d="M97 700h81v-407l226 203h109l-207 -187l234 -309h-100l-194 255l-68 -61v-194h-81v700zM259 -271l29 112h-37v99h100v-99l-70 -120z" />
    <glyph glyph-name="kgreenlandic" unicode="&#x138;" 
d="M97 496h81v-203l226 203h109l-207 -187l234 -309h-100l-194 255l-68 -61v-194h-81v496z" />
    <glyph glyph-name="Lacute" unicode="&#x139;" 
d="M93 700h84v-625h347v-75h-431v700zM168 907h109l-113 -145h-67z" />
    <glyph glyph-name="lacute" unicode="&#x13a;" 
d="M85 69h176v562h-153v69h233v-631h172v-69h-428v69zM334 907h109l-113 -145h-67z" />
    <glyph glyph-name="uni013B" unicode="&#x13b;" 
d="M93 700h84v-625h347v-75h-431v700zM266 -271l29 112h-37v99h100v-99l-70 -120z" />
    <glyph glyph-name="uni013C" unicode="&#x13c;" 
d="M85 69h176v562h-153v69h233v-631h172v-69h-428v69zM259 -271l29 112h-37v99h100v-99l-70 -120z" />
    <glyph glyph-name="Lcaron" unicode="&#x13d;" 
d="M93 700h84v-625h347v-75h-431v700zM391 459l69 125h-48v116h112v-116l-112 -142z" />
    <glyph glyph-name="lcaron" unicode="&#x13e;" 
d="M85 69h176v562h-153v69h233v-631h172v-69h-428v69zM431 525l40 83h-40v92h90v-92l-69 -94z" />
    <glyph glyph-name="Ldot" unicode="&#x13f;" 
d="M93 700h84v-625h347v-75h-431v700zM361 410h118v-120h-118v120z" />
    <glyph glyph-name="ldot" unicode="&#x140;" 
d="M85 69h176v562h-153v69h233v-631h172v-69h-428v69zM543 410h118v-120h-118v120z" />
    <glyph glyph-name="Lslash" unicode="&#x141;" 
d="M114 215l-82 -51v79l82 52v405h84v-352l125 80v-80l-125 -79v-194h347v-75h-431v215z" />
    <glyph glyph-name="lslash" unicode="&#x142;" 
d="M85 69h176v192l-101 -63v77l101 63v293h-153v69h233v-311l98 63v-77l-98 -62v-244h172v-69h-428v69z" />
    <glyph glyph-name="Nacute" unicode="&#x143;" 
d="M72 700h89l259 -496q24 -47 30 -59v555h80v-700h-89l-259 496q-21 39 -30 59v-555h-80v700zM334 907h109l-113 -145h-67z" />
    <glyph glyph-name="nacute" unicode="&#x144;" 
d="M95 496h80v-88q28 47 73.5 74.5t98.5 27.5q76 0 125 -44.5t49 -128.5v-337h-80v316q0 58 -32.5 89.5t-87.5 31.5q-38 0 -72 -21.5t-54 -59.5t-20 -85v-271h-80v496zM353 703h109l-113 -145h-67z" />
    <glyph glyph-name="uni0145" unicode="&#x145;" 
d="M72 700h89l259 -496q24 -47 30 -59v555h80v-700h-89l-259 496q-21 39 -30 59v-555h-80v700zM259 -271l29 112h-37v99h100v-99l-70 -120z" />
    <glyph glyph-name="uni0146" unicode="&#x146;" 
d="M95 496h80v-88q28 47 73.5 74.5t98.5 27.5q76 0 125 -44.5t49 -128.5v-337h-80v316q0 58 -32.5 89.5t-87.5 31.5q-38 0 -72 -21.5t-54 -59.5t-20 -85v-271h-80v496zM266 -271l29 112h-37v99h100v-99l-70 -120z" />
    <glyph glyph-name="Ncaron" unicode="&#x147;" 
d="M72 700h89l259 -496q24 -47 30 -59v555h80v-700h-89l-259 496q-21 39 -30 59v-555h-80v700zM162 906h66l73 -72l73 72h66l-107 -144h-64z" />
    <glyph glyph-name="ncaron" unicode="&#x148;" 
d="M95 496h80v-88q28 47 73.5 74.5t98.5 27.5q76 0 125 -44.5t49 -128.5v-337h-80v316q0 58 -32.5 89.5t-87.5 31.5q-38 0 -72 -21.5t-54 -59.5t-20 -85v-271h-80v496zM181 702h66l73 -72l73 72h66l-107 -144h-64z" />
    <glyph glyph-name="Eng" unicode="&#x14a;" 
d="M268 -201l28 73q28 -15 64 -15q42 0 64 29.5t22 87.5v26l-264 496q-21 39 -30 59v-555h-80v700h89l259 -492q22 -42 30 -59v551h80v-720q0 -91 -43 -144.5t-129 -53.5q-51 0 -90 17z" />
    <glyph glyph-name="eng" unicode="&#x14b;" 
d="M249 -178.5q-42 32.5 -42 89.5q0 22 9 42l69 -23q-4 -7 -4 -19q0 -24 20.5 -38.5t56.5 -14.5q83 0 83 88v370q0 58 -32 89.5t-87 31.5q-38 0 -72 -21.5t-54.5 -59.5t-20.5 -85v-271h-80v496h80v-88q28 47 74.5 74.5t99.5 27.5q75 0 123.5 -44t48.5 -129v-388
q0 -71 -42 -115.5t-121 -44.5q-67 0 -109 32.5z" />
    <glyph glyph-name="Omacron" unicode="&#x14c;" 
d="M160.5 30q-60.5 44 -93.5 126t-33 194t33 194t93.5 126t140.5 44t140.5 -44t93.5 -126t33 -194t-33 -194t-93.5 -126t-140.5 -44t-140.5 44zM397.5 96.5q41.5 35.5 64 100.5t22.5 153t-22.5 153t-64 100.5t-96.5 35.5t-96.5 -35.5t-64 -100.5t-22.5 -153t22.5 -153
t64 -100.5t96.5 -35.5t96.5 35.5zM191 873h220v-68h-220v68z" />
    <glyph glyph-name="omacron" unicode="&#x14d;" 
d="M176.5 17q-57.5 31 -92 90.5t-34.5 140.5t34.5 140.5t92 90.5t124.5 31t124.5 -31t92 -90.5t34.5 -140.5t-34.5 -140.5t-92 -90.5t-124.5 -31t-124.5 31zM387.5 82.5q38.5 23.5 61 66.5t22.5 99t-22.5 99t-61 66.5t-86.5 23.5t-86.5 -23.5t-61 -66.5t-22.5 -99t22.5 -99
t61 -66.5t86.5 -23.5t86.5 23.5zM191 669h220v-68h-220v68z" />
    <glyph glyph-name="Obreve" unicode="&#x14e;" 
d="M160.5 30q-60.5 44 -93.5 126t-33 194t33 194t93.5 126t140.5 44t140.5 -44t93.5 -126t33 -194t-33 -194t-93.5 -126t-140.5 -44t-140.5 44zM397.5 96.5q41.5 35.5 64 100.5t22.5 153t-22.5 153t-64 100.5t-96.5 35.5t-96.5 -35.5t-64 -100.5t-22.5 -153t22.5 -153
t64 -100.5t96.5 -35.5t96.5 35.5zM224.5 802q-30.5 30 -30.5 74h64q0 -20 11.5 -32.5t31.5 -12.5t31.5 12.5t11.5 32.5h64q0 -44 -30.5 -74t-76.5 -30t-76.5 30z" />
    <glyph glyph-name="obreve" unicode="&#x14f;" 
d="M176.5 17q-57.5 31 -92 90.5t-34.5 140.5t34.5 140.5t92 90.5t124.5 31t124.5 -31t92 -90.5t34.5 -140.5t-34.5 -140.5t-92 -90.5t-124.5 -31t-124.5 31zM387.5 82.5q38.5 23.5 61 66.5t22.5 99t-22.5 99t-61 66.5t-86.5 23.5t-86.5 -23.5t-61 -66.5t-22.5 -99t22.5 -99
t61 -66.5t86.5 -23.5t86.5 23.5zM224.5 598q-30.5 30 -30.5 74h64q0 -20 11.5 -32.5t31.5 -12.5t31.5 12.5t11.5 32.5h64q0 -44 -30.5 -74t-76.5 -30t-76.5 30z" />
    <glyph glyph-name="Ohungarumlaut" unicode="&#x150;" 
d="M160.5 30q-60.5 44 -93.5 126t-33 194t33 194t93.5 126t140.5 44t140.5 -44t93.5 -126t33 -194t-33 -194t-93.5 -126t-140.5 -44t-140.5 44zM397.5 96.5q41.5 35.5 64 100.5t22.5 153t-22.5 153t-64 100.5t-96.5 35.5t-96.5 -35.5t-64 -100.5t-22.5 -153t22.5 -153
t64 -100.5t96.5 -35.5t96.5 35.5zM254 907h109l-110 -145h-68zM416 907h109l-110 -145h-68z" />
    <glyph glyph-name="ohungarumlaut" unicode="&#x151;" 
d="M176.5 17q-57.5 31 -92 90.5t-34.5 140.5t34.5 140.5t92 90.5t124.5 31t124.5 -31t92 -90.5t34.5 -140.5t-34.5 -140.5t-92 -90.5t-124.5 -31t-124.5 31zM387.5 82.5q38.5 23.5 61 66.5t22.5 99t-22.5 99t-61 66.5t-86.5 23.5t-86.5 -23.5t-61 -66.5t-22.5 -99t22.5 -99
t61 -66.5t86.5 -23.5t86.5 23.5zM254 703h109l-110 -145h-68zM416 703h109l-110 -145h-68z" />
    <glyph glyph-name="OE" unicode="&#x152;" 
d="M159.5 42q-60.5 42 -93 121t-32.5 187t32.5 187t93 121t143.5 42h269v-74h-188v-227h174v-74h-174v-251h191v-74h-272q-83 0 -143.5 42zM300 625q-89 -3 -135.5 -74t-46.5 -201t46.5 -201t135.5 -74v550z" />
    <glyph glyph-name="oe" unicode="&#x153;" 
d="M178 19.5q-54 33.5 -85 93t-31 135.5q0 75 32 135t87.5 93.5t122.5 33.5q71 0 124 -31.5t81 -88t28 -128.5v-27h-199v-175q45 7 72.5 33.5t49.5 73.5l62 -36q-36 -71 -89 -108t-134 -37q-67 0 -121 33.5zM458 299q-2 59 -35 95.5t-85 45.5v-141h120zM265 438
q-55 -14 -90.5 -64t-35.5 -129q0 -68 34.5 -120t91.5 -64v377z" />
    <glyph glyph-name="Racute" unicode="&#x154;" 
d="M70 700h248q69 0 120 -25t78 -69.5t27 -100.5q0 -78 -42.5 -127.5t-121.5 -68.5l173 -309h-93l-171 303h-134v-303h-84v700zM311 376q72 0 110 31.5t38 93.5q0 63 -38 94.5t-110 31.5h-157v-251h157zM300 907h109l-113 -145h-67z" />
    <glyph glyph-name="racute" unicode="&#x155;" 
d="M112 496h80v-85q19 43 63 71t97 28q73 0 113 -39.5t40 -100.5q0 -29 -11 -57l-72 25q5 13 5 24q0 37 -25 57.5t-68 20.5q-67 0 -104.5 -49t-37.5 -125v-266h-80v496zM354 703h109l-113 -145h-67z" />
    <glyph glyph-name="uni0156" unicode="&#x156;" 
d="M70 700h248q69 0 120 -25t78 -69.5t27 -100.5q0 -78 -42.5 -127.5t-121.5 -68.5l173 -309h-93l-171 303h-134v-303h-84v700zM311 376q72 0 110 31.5t38 93.5q0 63 -38 94.5t-110 31.5h-157v-251h157zM259 -271l29 112h-37v99h100v-99l-70 -120z" />
    <glyph glyph-name="uni0157" unicode="&#x157;" 
d="M112 496h80v-85q19 43 63 71t97 28q73 0 113 -39.5t40 -100.5q0 -29 -11 -57l-72 25q5 13 5 24q0 37 -25 57.5t-68 20.5q-67 0 -104.5 -49t-37.5 -125v-266h-80v496zM110 -271l29 112h-37v99h100v-99l-70 -120z" />
    <glyph glyph-name="Rcaron" unicode="&#x158;" 
d="M70 700h248q69 0 120 -25t78 -69.5t27 -100.5q0 -78 -42.5 -127.5t-121.5 -68.5l173 -309h-93l-171 303h-134v-303h-84v700zM311 376q72 0 110 31.5t38 93.5q0 63 -38 94.5t-110 31.5h-157v-251h157zM128 906h66l73 -72l73 72h66l-107 -144h-64z" />
    <glyph glyph-name="rcaron" unicode="&#x159;" 
d="M112 496h80v-85q19 43 63 71t97 28q73 0 113 -39.5t40 -100.5q0 -29 -11 -57l-72 25q5 13 5 24q0 37 -25 57.5t-68 20.5q-67 0 -104.5 -49t-37.5 -125v-266h-80v496zM181 702h66l73 -72l73 72h66l-107 -144h-64z" />
    <glyph glyph-name="Sacute" unicode="&#x15a;" 
d="M138.5 45.5q-66.5 59.5 -87.5 157.5l74 37q16 -88 64 -134.5t128 -46.5q47 0 82.5 18t55 48.5t19.5 65.5q0 58 -45.5 91t-132.5 49q-106 18 -163 65t-57 131q0 53 29 95.5t81 67t117 24.5q90 0 152.5 -46t88.5 -123l-66 -40q-22 69 -66.5 102.5t-107.5 33.5
q-64 0 -105.5 -29.5t-41.5 -81.5q0 -53 45 -84t139 -49q217 -40 217 -200q0 -58 -31.5 -106.5t-86.5 -76.5t-123 -28q-112 0 -178.5 59.5zM337 907h109l-113 -145h-67z" />
    <glyph glyph-name="sacute" unicode="&#x15b;" 
d="M163 26q-56 40 -81 105l67 41q18 -55 56.5 -86t96.5 -31q57 0 90.5 23t33.5 62q0 38 -34.5 58t-109.5 29q-81 10 -126.5 47t-45.5 98q0 62 52 100t129 38q75 0 125 -33.5t75 -93.5l-61 -35q-19 46 -56 72t-83 26q-43 0 -75.5 -20.5t-32.5 -53.5q0 -35 33 -56t103 -29
q184 -20 184 -143q0 -43 -24.5 -79.5t-70 -57.5t-107.5 -21q-82 0 -138 40zM330 703h109l-113 -145h-67z" />
    <glyph glyph-name="Scircumflex" unicode="&#x15c;" 
d="M138.5 45.5q-66.5 59.5 -87.5 157.5l74 37q16 -88 64 -134.5t128 -46.5q47 0 82.5 18t55 48.5t19.5 65.5q0 58 -45.5 91t-132.5 49q-106 18 -163 65t-57 131q0 53 29 95.5t81 67t117 24.5q90 0 152.5 -46t88.5 -123l-66 -40q-22 69 -66.5 102.5t-107.5 33.5
q-64 0 -105.5 -29.5t-41.5 -81.5q0 -53 45 -84t139 -49q217 -40 217 -200q0 -58 -31.5 -106.5t-86.5 -76.5t-123 -28q-112 0 -178.5 59.5zM272 906h64l107 -144h-66l-73 72l-73 -72h-66z" />
    <glyph glyph-name="scircumflex" unicode="&#x15d;" 
d="M163 26q-56 40 -81 105l67 41q18 -55 56.5 -86t96.5 -31q57 0 90.5 23t33.5 62q0 38 -34.5 58t-109.5 29q-81 10 -126.5 47t-45.5 98q0 62 52 100t129 38q75 0 125 -33.5t75 -93.5l-61 -35q-19 46 -56 72t-83 26q-43 0 -75.5 -20.5t-32.5 -53.5q0 -35 33 -56t103 -29
q184 -20 184 -143q0 -43 -24.5 -79.5t-70 -57.5t-107.5 -21q-82 0 -138 40zM264 702h64l107 -144h-66l-73 72l-73 -72h-66z" />
    <glyph glyph-name="Scedilla" unicode="&#x15e;" 
d="M529 94q-29 -47 -80.5 -76t-115.5 -32l-23 -43q19 13 46 13q33 0 54 -21.5t21 -55.5q0 -39 -26.5 -61t-64.5 -22q-34 0 -56.5 16t-29.5 44l49 13q7 -28 38 -28q16 0 26 9.5t10 26.5t-10.5 27.5t-27.5 10.5q-24 0 -48 -20l-31 29l23 64q-96 9 -154.5 67t-77.5 148l74 37
q16 -88 64 -134.5t128 -46.5q47 0 82.5 18t55 48.5t19.5 65.5q0 58 -45.5 91t-132.5 49q-106 18 -163 65t-57 131q0 53 29 95.5t81 67t117 24.5q90 0 152.5 -46t88.5 -123l-66 -40q-22 69 -66.5 102.5t-107.5 33.5q-64 0 -105.5 -29.5t-41.5 -81.5q0 -53 45 -84t139 -49
q217 -40 217 -200q0 -56 -29 -103z" />
    <glyph glyph-name="scedilla" unicode="&#x15f;" 
d="M480.5 67q-22.5 -35 -65 -56.5t-100.5 -24.5l-23 -43q19 13 46 13q33 0 54 -21.5t21 -55.5q0 -39 -26.5 -61t-64.5 -22q-34 0 -56.5 16t-29.5 44l49 13q7 -28 38 -28q16 0 26 9.5t10 26.5t-10.5 27.5t-27.5 10.5q-24 0 -48 -20l-31 29l24 64q-68 9 -115 47.5t-69 95.5
l67 41q18 -55 56.5 -86t96.5 -31q57 0 90.5 23t33.5 62q0 38 -34.5 58t-109.5 29q-81 10 -126.5 47t-45.5 98q0 62 52 100t129 38q75 0 125 -33.5t75 -93.5l-61 -35q-19 46 -56 72t-83 26q-43 0 -75.5 -20.5t-32.5 -53.5q0 -35 33 -56t103 -29q184 -20 184 -143
q0 -42 -22.5 -77z" />
    <glyph glyph-name="Scaron" unicode="&#x160;" 
d="M138.5 45.5q-66.5 59.5 -87.5 157.5l74 37q16 -88 64 -134.5t128 -46.5q47 0 82.5 18t55 48.5t19.5 65.5q0 58 -45.5 91t-132.5 49q-106 18 -163 65t-57 131q0 53 29 95.5t81 67t117 24.5q90 0 152.5 -46t88.5 -123l-66 -40q-22 69 -66.5 102.5t-107.5 33.5
q-64 0 -105.5 -29.5t-41.5 -81.5q0 -53 45 -84t139 -49q217 -40 217 -200q0 -58 -31.5 -106.5t-86.5 -76.5t-123 -28q-112 0 -178.5 59.5zM165 906h66l73 -72l73 72h66l-107 -144h-64z" />
    <glyph glyph-name="scaron" unicode="&#x161;" 
d="M163 26q-56 40 -81 105l67 41q18 -55 56.5 -86t96.5 -31q57 0 90.5 23t33.5 62q0 38 -34.5 58t-109.5 29q-81 10 -126.5 47t-45.5 98q0 62 52 100t129 38q75 0 125 -33.5t75 -93.5l-61 -35q-19 46 -56 72t-83 26q-43 0 -75.5 -20.5t-32.5 -53.5q0 -35 33 -56t103 -29
q184 -20 184 -143q0 -43 -24.5 -79.5t-70 -57.5t-107.5 -21q-82 0 -138 40zM157 702h66l73 -72l73 72h66l-107 -144h-64z" />
    <glyph glyph-name="uni0162" unicode="&#x162;" 
d="M327 0l-31 -57q19 13 46 13q33 0 54 -21.5t21 -55.5q0 -39 -26.5 -61t-64.5 -22q-34 0 -56.5 16t-29.5 44l49 13q7 -28 38 -28q16 0 26 9.5t10 26.5t-10.5 27.5t-27.5 10.5q-24 0 -48 -20l-31 29l28 76h-15v625h-199v75h482v-75h-199v-625h-16z" />
    <glyph glyph-name="uni0163" unicode="&#x163;" 
d="M411 -65.5q21 -21.5 21 -55.5q0 -39 -26.5 -61t-64.5 -22q-34 0 -56.5 16t-29.5 44l49 13q7 -28 38 -28q16 0 26 9.5t10 26.5t-10.5 27.5t-27.5 10.5q-24 0 -48 -20l-31 29l28 77q-39 18 -61 57t-22 94v281h-125v63h125v134h81v-134h170v-63h-170v-280q0 -96 85 -96
q25 0 45 7t40 22l30 -61q-49 -39 -125 -39q-9 0 -27 2l-24 -45q19 13 46 13q33 0 54 -21.5z" />
    <glyph glyph-name="Tcaron" unicode="&#x164;" 
d="M259 625h-199v75h482v-75h-199v-625h-84v625zM162 906h66l73 -72l73 72h66l-107 -144h-64z" />
    <glyph glyph-name="tcaron" unicode="&#x165;" 
d="M248.5 30.5q-42.5 44.5 -42.5 121.5v281h-125v63h125v134h81v-134h170v-63h-170v-280q0 -96 85 -96q25 0 45 7t40 22l30 -61q-49 -39 -125 -39q-71 0 -113.5 44.5zM415 553l40 83h-40v92h90v-92l-69 -94z" />
    <glyph glyph-name="Tbar" unicode="&#x166;" 
d="M259 358h-135v66h135v201h-199v75h482v-75h-199v-201h135v-66h-135v-358h-84v358z" />
    <glyph glyph-name="tbar" unicode="&#x167;" 
d="M248.5 30.5q-42.5 44.5 -42.5 121.5v79h-97v60h97v142h-125v63h125v134h81v-134h170v-63h-170v-142h139v-60h-139v-78q0 -96 85 -96q25 0 45 7t40 22l30 -61q-49 -39 -125 -39q-71 0 -113.5 44.5z" />
    <glyph glyph-name="Utilde" unicode="&#x168;" 
d="M125 52q-64 66 -64 184v464h84v-465q0 -83 42 -128.5t114 -45.5t114 45.5t42 128.5v465h84v-464q0 -118 -64 -184t-176 -66t-176 66zM322.5 775.5q-20.5 10.5 -41.5 29.5q-14 14 -25 20.5t-27 6.5q-14 0 -22 -8t-8 -20q0 -13 6 -24l-58 -12q-11 20 -11 45q0 39 26 59
t62 20q35 0 55.5 -10.5t41.5 -29.5q14 -14 25 -20.5t27 -6.5q14 0 22 8t8 20q0 14 -6 24l58 12q11 -22 11 -45q0 -39 -26 -59t-62 -20q-35 0 -55.5 10.5z" />
    <glyph glyph-name="utilde" unicode="&#x169;" 
d="M137.5 30.5q-49.5 44.5 -49.5 128.5v337h81v-316q0 -58 32.5 -89.5t86.5 -31.5q38 0 72 21.5t54 59.5t20 85v271h81v-496h-81v86q-27 -47 -71.5 -73.5t-98.5 -26.5q-77 0 -126.5 44.5zM322.5 571.5q-20.5 10.5 -41.5 29.5q-14 14 -25 20.5t-27 6.5q-14 0 -22 -8t-8 -20
q0 -13 6 -24l-58 -12q-11 20 -11 45q0 39 26 59t62 20q35 0 55.5 -10.5t41.5 -29.5q14 -14 25 -20.5t27 -6.5q14 0 22 8t8 20q0 14 -6 24l58 12q11 -22 11 -45q0 -39 -26 -59t-62 -20q-35 0 -55.5 10.5z" />
    <glyph glyph-name="Umacron" unicode="&#x16a;" 
d="M125 52q-64 66 -64 184v464h84v-465q0 -83 42 -128.5t114 -45.5t114 45.5t42 128.5v465h84v-464q0 -118 -64 -184t-176 -66t-176 66zM191 873h220v-68h-220v68z" />
    <glyph glyph-name="umacron" unicode="&#x16b;" 
d="M137.5 30.5q-49.5 44.5 -49.5 128.5v337h81v-316q0 -58 32.5 -89.5t86.5 -31.5q38 0 72 21.5t54 59.5t20 85v271h81v-496h-81v86q-27 -47 -71.5 -73.5t-98.5 -26.5q-77 0 -126.5 44.5zM191 669h220v-68h-220v68z" />
    <glyph glyph-name="Ubreve" unicode="&#x16c;" 
d="M125 52q-64 66 -64 184v464h84v-465q0 -83 42 -128.5t114 -45.5t114 45.5t42 128.5v465h84v-464q0 -118 -64 -184t-176 -66t-176 66zM224.5 802q-30.5 30 -30.5 74h64q0 -20 11.5 -32.5t31.5 -12.5t31.5 12.5t11.5 32.5h64q0 -44 -30.5 -74t-76.5 -30t-76.5 30z" />
    <glyph glyph-name="ubreve" unicode="&#x16d;" 
d="M137.5 30.5q-49.5 44.5 -49.5 128.5v337h81v-316q0 -58 32.5 -89.5t86.5 -31.5q38 0 72 21.5t54 59.5t20 85v271h81v-496h-81v86q-27 -47 -71.5 -73.5t-98.5 -26.5q-77 0 -126.5 44.5zM224.5 598q-30.5 30 -30.5 74h64q0 -20 11.5 -32.5t31.5 -12.5t31.5 12.5t11.5 32.5
h64q0 -44 -30.5 -74t-76.5 -30t-76.5 30z" />
    <glyph glyph-name="Uring" unicode="&#x16e;" 
d="M125 52q-64 66 -64 184v464h84v-465q0 -83 42 -128.5t114 -45.5t114 45.5t42 128.5v465h84v-464q0 -118 -64 -184t-176 -66t-176 66zM233 771.5q-28 27.5 -28 67.5t28 67.5t68 27.5t68 -27.5t28 -67.5t-28 -67.5t-68 -27.5t-68 27.5zM334 805.5q13 13.5 13 33.5t-13 33.5
t-33 13.5t-33 -13.5t-13 -33.5t13 -33.5t33 -13.5t33 13.5z" />
    <glyph glyph-name="uring" unicode="&#x16f;" 
d="M137.5 30.5q-49.5 44.5 -49.5 128.5v337h81v-316q0 -58 32.5 -89.5t86.5 -31.5q38 0 72 21.5t54 59.5t20 85v271h81v-496h-81v86q-27 -47 -71.5 -73.5t-98.5 -26.5q-77 0 -126.5 44.5zM233 567.5q-28 27.5 -28 67.5t28 67.5t68 27.5t68 -27.5t28 -67.5t-28 -67.5
t-68 -27.5t-68 27.5zM334 601.5q13 13.5 13 33.5t-13 33.5t-33 13.5t-33 -13.5t-13 -33.5t13 -33.5t33 -13.5t33 13.5z" />
    <glyph glyph-name="Uhungarumlaut" unicode="&#x170;" 
d="M125 52q-64 66 -64 184v464h84v-465q0 -83 42 -128.5t114 -45.5t114 45.5t42 128.5v465h84v-464q0 -118 -64 -184t-176 -66t-176 66zM254 907h109l-110 -145h-68zM416 907h109l-110 -145h-68z" />
    <glyph glyph-name="uhungarumlaut" unicode="&#x171;" 
d="M137.5 30.5q-49.5 44.5 -49.5 128.5v337h81v-316q0 -58 32.5 -89.5t86.5 -31.5q38 0 72 21.5t54 59.5t20 85v271h81v-496h-81v86q-27 -47 -71.5 -73.5t-98.5 -26.5q-77 0 -126.5 44.5zM254 703h109l-110 -145h-68zM416 703h109l-110 -145h-68z" />
    <glyph glyph-name="Uogonek" unicode="&#x172;" 
d="M541 700v-464q0 -92 -40 -153.5t-113 -84.5q-34 -18 -51 -39.5t-17 -43.5q0 -20 14 -32t35 -12q12 0 19 2l10 -65q-20 -6 -46 -6q-43 0 -73.5 24.5t-30.5 68.5q0 49 45 91q-108 2 -170 68t-62 182v464h84v-465q0 -83 42 -128.5t114 -45.5t114 45.5t42 128.5v465h84z" />
    <glyph glyph-name="uogonek" unicode="&#x173;" 
d="M521 -192q-19 -6 -46 -6q-43 0 -73.5 24.5t-30.5 68.5q0 60 63 105v86q-27 -47 -71.5 -73.5t-98.5 -26.5q-77 0 -126.5 44.5t-49.5 128.5v337h81v-316q0 -58 32.5 -89.5t86.5 -31.5q38 0 72 21.5t54 59.5t20 85v271h81v-496h-1q-35 -18 -53 -40t-18 -45q0 -20 14 -32
t35 -12q12 0 19 2z" />
    <glyph glyph-name="Wcircumflex" unicode="&#x174;" 
d="M4 700h82l72 -505q6 -46 8 -65l10 66l81 504h88l81 -504l10 -66q2 19 8 65l72 505h82l-110 -700h-99l-88 563l-88 -563h-99zM269 906h64l107 -144h-66l-73 72l-73 -72h-66z" />
    <glyph glyph-name="wcircumflex" unicode="&#x175;" 
d="M23 496h76l80 -391l80 391h84l80 -391l80 391h76l-111 -496h-86l-81 398l-81 -398h-86zM269 702h64l107 -144h-66l-73 72l-73 -72h-66z" />
    <glyph glyph-name="Ycircumflex" unicode="&#x176;" 
d="M259 277l-223 423h91l152 -299q8 -15 22 -47q14 32 22 47l152 299h91l-223 -423v-277h-84v277zM269 906h64l107 -144h-66l-73 72l-73 -72h-66z" />
    <glyph glyph-name="ycircumflex" unicode="&#x177;" 
d="M80 -188l24 69q30 -17 58 -17q46 0 66 51l35 87l-214 494h90l165 -391l161 391h87l-254 -606q-22 -52 -55 -76t-80 -24q-44 0 -83 22zM271 702h64l107 -144h-66l-73 72l-73 -72h-66z" />
    <glyph glyph-name="Ydieresis" unicode="&#x178;" 
d="M259 277l-223 423h91l152 -299q8 -15 22 -47q14 32 22 47l152 299h91l-223 -423v-277h-84v277zM165 884h94v-93h-94v93zM343 884h94v-93h-94v93z" />
    <glyph glyph-name="Zacute" unicode="&#x179;" 
d="M44 75l384 548h-371v77h464v-77l-380 -546h397v-77h-494v75zM324 907h109l-113 -145h-67z" />
    <glyph glyph-name="zacute" unicode="&#x17a;" 
d="M99 67l302 362h-293v67h384v-67l-303 -362h318v-67h-408v67zM334 703h109l-113 -145h-67z" />
    <glyph glyph-name="Zdotaccent" unicode="&#x17b;" 
d="M44 75l384 548h-371v77h464v-77l-380 -546h397v-77h-494v75zM243 884h95v-97h-95v97z" />
    <glyph glyph-name="zdotaccent" unicode="&#x17c;" 
d="M99 67l302 362h-293v67h384v-67l-303 -362h318v-67h-408v67zM253 680h95v-97h-95v97z" />
    <glyph glyph-name="Zcaron" unicode="&#x17d;" 
d="M44 75l384 548h-371v77h464v-77l-380 -546h397v-77h-494v75zM152 906h66l73 -72l73 72h66l-107 -144h-64z" />
    <glyph glyph-name="zcaron" unicode="&#x17e;" 
d="M99 67l302 362h-293v67h384v-67l-303 -362h318v-67h-408v67zM162 702h66l73 -72l73 72h66l-107 -144h-64z" />
    <glyph glyph-name="florin" unicode="&#x192;" 
d="M87 -208.5q-30 9.5 -50 23.5l26 66q17 -13 39 -20t42 -7q40 0 60 27.5t20 88.5v463h-145v63h145v58q0 91 49 143.5t128 52.5q30 0 59 -9t49 -22l-26 -68q-38 27 -79 27q-47 0 -73.5 -29.5t-26.5 -89.5v-63h192v-63h-192v-455q0 -92 -42 -144t-113 -52q-32 0 -62 9.5z" />
    <glyph glyph-name="uni01B5" unicode="&#x1b5;" 
d="M44 75l172 247h-141v66h189l164 235h-371v77h464v-77l-164 -235h146v-66h-192l-170 -245h397v-77h-494v75z" />
    <glyph glyph-name="uni01B6" unicode="&#x1b6;" 
d="M96 67l132 160h-97v64h152l115 138h-293v67h383v-67l-114 -138h94v-64h-150l-132 -160h317v-67h-407v67z" />
    <glyph glyph-name="AEacute" unicode="&#x1fc;" 
d="M191 700h383v-74h-226v-227h198v-74h-198v-251h229v-74h-309v206h-120l-49 -206h-84zM268 278v348h-23q-11 -56 -15 -74l-66 -274h104zM386 907h109l-113 -145h-67z" />
    <glyph glyph-name="aeacute" unicode="&#x1fd;" 
d="M52.5 25q-37.5 39 -37.5 107q0 72 48.5 115.5t130.5 47.5l60 2v52q0 97 -80 97q-39 0 -57.5 -21t-18.5 -52q0 -1 2 -15l-65 -22q-8 16 -8 39q0 57 40 96t105 39q98 0 133 -70q19 33 50 51.5t70 18.5q76 0 115 -60t39 -169v-46h-248q0 -82 19.5 -130.5t68.5 -48.5
q34 0 53.5 24.5t33.5 80.5l60 -20q-18 -75 -52 -115t-98 -40q-47 0 -80.5 30t-45.5 77q-36 -107 -135 -107q-65 0 -102.5 39zM500 299q0 144 -78 144q-41 0 -63.5 -37t-26.5 -107h168zM232 101q22 45 22 132l-47 -2q-116 -5 -116 -100q0 -36 20 -55.5t52 -19.5q47 0 69 45z
M334 703h109l-113 -145h-67z" />
    <glyph glyph-name="uni0218" unicode="&#x218;" 
d="M138.5 45.5q-66.5 59.5 -87.5 157.5l74 37q16 -88 64 -134.5t128 -46.5q47 0 82.5 18t55 48.5t19.5 65.5q0 58 -45.5 91t-132.5 49q-106 18 -163 65t-57 131q0 53 29 95.5t81 67t117 24.5q90 0 152.5 -46t88.5 -123l-66 -40q-22 69 -66.5 102.5t-107.5 33.5
q-64 0 -105.5 -29.5t-41.5 -81.5q0 -53 45 -84t139 -49q217 -40 217 -200q0 -58 -31.5 -106.5t-86.5 -76.5t-123 -28q-112 0 -178.5 59.5zM273 -271l29 112h-37v99h100v-99l-70 -120z" />
    <glyph glyph-name="uni0219" unicode="&#x219;" 
d="M163 26q-56 40 -81 105l67 41q18 -55 56.5 -86t96.5 -31q57 0 90.5 23t33.5 62q0 38 -34.5 58t-109.5 29q-81 10 -126.5 47t-45.5 98q0 62 52 100t129 38q75 0 125 -33.5t75 -93.5l-61 -35q-19 46 -56 72t-83 26q-43 0 -75.5 -20.5t-32.5 -53.5q0 -35 33 -56t103 -29
q184 -20 184 -143q0 -43 -24.5 -79.5t-70 -57.5t-107.5 -21q-82 0 -138 40zM256 -271l29 112h-37v99h100v-99l-70 -120z" />
    <glyph glyph-name="uni021A" unicode="&#x21a;" 
d="M259 625h-199v75h482v-75h-199v-625h-84v625zM259 -271l29 112h-37v99h100v-99l-70 -120z" />
    <glyph glyph-name="uni021B" unicode="&#x21b;" 
d="M248.5 30.5q-42.5 44.5 -42.5 121.5v281h-125v63h125v134h81v-134h170v-63h-170v-280q0 -96 85 -96q25 0 45 7t40 22l30 -61q-49 -39 -125 -39q-71 0 -113.5 44.5zM275 -271l29 112h-37v99h100v-99l-70 -120z" />
    <glyph glyph-name="uni0237" unicode="&#x237;" 
d="M137.5 -177q-43.5 34 -43.5 93q0 20 8 41l74 -24q-4 -7 -4 -19q0 -25 21.5 -39.5t58.5 -14.5q86 0 86 92v475h-157v69h238v-543q0 -75 -44 -119.5t-122 -44.5q-72 0 -115.5 34z" />
    <glyph glyph-name="circumflex" unicode="&#x2c6;" 
d="M269 702h64l107 -144h-66l-73 72l-73 -72h-66z" />
    <glyph glyph-name="caron" unicode="&#x2c7;" 
d="M162 702h66l73 -72l73 72h66l-107 -144h-64z" />
    <glyph glyph-name="uni02C9" unicode="&#x2c9;" 
d="M191 669h220v-68h-220v68z" />
    <glyph glyph-name="breve" unicode="&#x2d8;" 
d="M224.5 598q-30.5 30 -30.5 74h64q0 -20 11.5 -32.5t31.5 -12.5t31.5 12.5t11.5 32.5h64q0 -44 -30.5 -74t-76.5 -30t-76.5 30z" />
    <glyph glyph-name="dotaccent" unicode="&#x2d9;" 
d="M252 680h95v-97h-95v97z" />
    <glyph glyph-name="ring" unicode="&#x2da;" 
d="M233 567.5q-28 27.5 -28 67.5t28 67.5t68 27.5t68 -27.5t28 -67.5t-28 -67.5t-68 -27.5t-68 27.5zM334 601.5q13 13.5 13 33.5t-13 33.5t-33 13.5t-33 -13.5t-13 -33.5t13 -33.5t33 -13.5t33 13.5z" />
    <glyph glyph-name="ogonek" unicode="&#x2db;" 
d="M256.5 -173.5q-30.5 24.5 -30.5 68.5q0 35 21 64t55 50l67 -9q-35 -18 -53 -40t-18 -45q0 -20 14 -32t35 -12q12 0 19 2l10 -65q-20 -6 -46 -6q-43 0 -73.5 24.5z" />
    <glyph glyph-name="tilde" unicode="&#x2dc;" 
d="M322.5 571.5q-20.5 10.5 -41.5 29.5q-14 14 -25 20.5t-27 6.5q-14 0 -22 -8t-8 -20q0 -13 6 -24l-58 -12q-11 20 -11 45q0 39 26 59t62 20q35 0 55.5 -10.5t41.5 -29.5q14 -14 25 -20.5t27 -6.5q14 0 22 8t8 20q0 14 -6 24l58 12q11 -22 11 -45q0 -39 -26 -59t-62 -20
q-35 0 -55.5 10.5z" />
    <glyph glyph-name="hungarumlaut" unicode="&#x2dd;" 
d="M200 703h109l-110 -145h-68zM362 703h109l-110 -145h-68z" />
    <glyph glyph-name="gravecomb" unicode="&#x300;" horiz-adv-x="0" 
d="M-392 703h109l71 -145h-67z" />
    <glyph glyph-name="acutecomb" unicode="&#x301;" horiz-adv-x="0" 
d="M-319 703h109l-113 -145h-67z" />
    <glyph glyph-name="uni0302" unicode="&#x302;" horiz-adv-x="0" 
d="M-333 702h64l107 -144h-66l-73 72l-73 -72h-66z" />
    <glyph glyph-name="tildecomb" unicode="&#x303;" horiz-adv-x="0" 
d="M-279.5 571.5q-20.5 10.5 -41.5 29.5q-14 14 -25 20.5t-27 6.5q-14 0 -22 -8t-8 -20q0 -13 6 -24l-58 -12q-11 20 -11 45q0 39 26 59t62 20q35 0 55.5 -10.5t41.5 -29.5q14 -14 25 -20.5t27 -6.5q14 0 22 8t8 20q0 14 -6 24l58 12q11 -22 11 -45q0 -39 -26 -59t-62 -20
q-35 0 -55.5 10.5z" />
    <glyph glyph-name="uni0304" unicode="&#x304;" horiz-adv-x="0" 
d="M-411 669h220v-68h-220v68z" />
    <glyph glyph-name="uni0306" unicode="&#x306;" horiz-adv-x="0" 
d="M-377.5 598q-30.5 30 -30.5 74h64q0 -20 11.5 -32.5t31.5 -12.5t31.5 12.5t11.5 32.5h64q0 -44 -30.5 -74t-76.5 -30t-76.5 30z" />
    <glyph glyph-name="uni0307" unicode="&#x307;" horiz-adv-x="0" 
d="M-350 680h95v-97h-95v97z" />
    <glyph glyph-name="uni0308" unicode="&#x308;" horiz-adv-x="0" 
d="M-437 680h94v-93h-94v93zM-259 680h94v-93h-94v93z" />
    <glyph glyph-name="uni030A" unicode="&#x30a;" horiz-adv-x="0" 
d="M-369 567.5q-28 27.5 -28 67.5t28 67.5t68 27.5t68 -27.5t28 -67.5t-28 -67.5t-68 -27.5t-68 27.5zM-268 601.5q13 13.5 13 33.5t-13 33.5t-33 13.5t-33 -13.5t-13 -33.5t13 -33.5t33 -13.5t33 13.5z" />
    <glyph glyph-name="uni030B" unicode="&#x30b;" horiz-adv-x="0" 
d="M-402 703h109l-110 -145h-68zM-240 703h109l-110 -145h-68z" />
    <glyph glyph-name="uni030C" unicode="&#x30c;" horiz-adv-x="0" 
d="M-440 702h66l73 -72l73 72h66l-107 -144h-64z" />
    <glyph glyph-name="uni0312" unicode="&#x312;" horiz-adv-x="0" 
d="M-364 666l101 121l20 -16l-60 -105h42v-103h-103v103z" />
    <glyph glyph-name="uni0326" unicode="&#x326;" horiz-adv-x="0" 
d="M-328 -271l29 112h-37v99h100v-99l-70 -120z" />
    <glyph glyph-name="uni0327" unicode="&#x327;" horiz-adv-x="0" 
d="M-360.5 -188q-22.5 16 -29.5 44l49 13q7 -28 38 -28q16 0 26 9.5t10 26.5t-10.5 27.5t-27.5 10.5q-24 0 -48 -20l-31 29l31 84h54l-35 -65q19 13 46 13q33 0 54 -21.5t21 -55.5q0 -39 -26.5 -61t-64.5 -22q-34 0 -56.5 16z" />
    <glyph glyph-name="uni0328" unicode="&#x328;" horiz-adv-x="0" 
d="M-345.5 -173.5q-30.5 24.5 -30.5 68.5q0 35 21 64t55 50l67 -9q-35 -18 -53 -40t-18 -45q0 -20 14 -32t35 -12q12 0 19 2l10 -65q-20 -6 -46 -6q-43 0 -73.5 24.5z" />
    <glyph glyph-name="uni0394" unicode="&#x394;" 
d="M258 700h86l245 -700h-576zM475 73l-158 470l-16 56l-16 -56l-158 -470h348z" />
    <glyph glyph-name="uni03A9" unicode="&#x3a9;" 
d="M48 71h126q-61 54 -103.5 147.5t-42.5 206.5q0 83 35.5 149t97.5 103t140 37t140 -37t97.5 -103t35.5 -149q0 -113 -42.5 -206.5t-103.5 -147.5h126v-71h-217v80q38 27 73 74.5t57.5 114t22.5 145.5q0 65 -24.5 116.5t-67.5 80t-97 28.5t-97 -28.5t-67.5 -80
t-24.5 -116.5q0 -79 22.5 -145.5t57.5 -114t73 -74.5v-80h-217v71z" />
    <glyph glyph-name="uni03BC" unicode="&#x3bc;" 
d="M89 496h81v-316q0 -58 32.5 -89.5t86.5 -31.5q38 0 72 21.5t54 59.5t20 85v271h81v-496h-81v86q-27 -47 -71.5 -73.5t-98.5 -26.5q-26 0 -53.5 7.5t-44.5 19.5q0 -9 1.5 -27.5t1.5 -33.5v-156h-81v700z" />
    <glyph glyph-name="pi" unicode="&#x3c0;" 
d="M415.5 20.5q-32.5 34.5 -32.5 100.5v313h-168v-434h-81v434h-105v62h540v-62h-106v-306q0 -36 15 -53.5t47 -17.5q16 0 33 5l8 -67q-15 -5 -27 -7t-34 -2q-57 0 -89.5 34.5z" />
    <glyph glyph-name="Wgrave" unicode="&#x1e80;" 
d="M4 700h82l72 -505q6 -46 8 -65l10 66l81 504h88l81 -504l10 -66q2 19 8 65l72 505h82l-110 -700h-99l-88 563l-88 -563h-99zM159 907h109l71 -145h-67z" />
    <glyph glyph-name="wgrave" unicode="&#x1e81;" 
d="M23 496h76l80 -391l80 391h84l80 -391l80 391h76l-111 -496h-86l-81 398l-81 -398h-86zM159 703h109l71 -145h-67z" />
    <glyph glyph-name="Wacute" unicode="&#x1e82;" 
d="M4 700h82l72 -505q6 -46 8 -65l10 66l81 504h88l81 -504l10 -66q2 19 8 65l72 505h82l-110 -700h-99l-88 563l-88 -563h-99zM334 907h109l-113 -145h-67z" />
    <glyph glyph-name="wacute" unicode="&#x1e83;" 
d="M23 496h76l80 -391l80 391h84l80 -391l80 391h76l-111 -496h-86l-81 398l-81 -398h-86zM334 703h109l-113 -145h-67z" />
    <glyph glyph-name="Wdieresis" unicode="&#x1e84;" 
d="M4 700h82l72 -505q6 -46 8 -65l10 66l81 504h88l81 -504l10 -66q2 19 8 65l72 505h82l-110 -700h-99l-88 563l-88 -563h-99zM165 884h94v-93h-94v93zM343 884h94v-93h-94v93z" />
    <glyph glyph-name="wdieresis" unicode="&#x1e85;" 
d="M23 496h76l80 -391l80 391h84l80 -391l80 391h76l-111 -496h-86l-81 398l-81 -398h-86zM165 680h94v-93h-94v93zM343 680h94v-93h-94v93z" />
    <glyph glyph-name="uni1E9E" unicode="&#x1e9e;" 
d="M252 15.5q-43 29.5 -65 77.5l66 40q17 -37 43.5 -54.5t63.5 -17.5q48 0 81.5 39.5t33.5 104.5q0 82 -51 123.5t-140 41.5v67l135 189h-139q-131 0 -131 -137v-489h-84v489q0 102 55 156.5t160 54.5h226v-74l-137 -190q83 -12 136 -71t53 -160q0 -63 -26 -112.5t-71.5 -78
t-101.5 -28.5q-64 0 -107 29.5z" />
    <glyph glyph-name="Ygrave" unicode="&#x1ef2;" 
d="M259 277l-223 423h91l152 -299q8 -15 22 -47q14 32 22 47l152 299h91l-223 -423v-277h-84v277zM159 907h109l71 -145h-67z" />
    <glyph glyph-name="ygrave" unicode="&#x1ef3;" 
d="M80 -188l24 69q30 -17 58 -17q46 0 66 51l35 87l-214 494h90l165 -391l161 391h87l-254 -606q-22 -52 -55 -76t-80 -24q-44 0 -83 22zM160 703h109l71 -145h-67z" />
    <glyph glyph-name="endash" unicode="&#x2013;" 
d="M87 343h428v-64h-428v64z" />
    <glyph glyph-name="emdash" unicode="&#x2014;" 
d="M42 343h518v-64h-518v64z" />
    <glyph glyph-name="quoteleft" unicode="&#x2018;" 
d="M259 573l114 134l20 -16l-69 -118h45v-112h-110v112z" />
    <glyph glyph-name="quoteright" unicode="&#x2019;" 
d="M209 470l69 118h-45v112h110v-112l-114 -134z" />
    <glyph glyph-name="quotesinglbase" unicode="&#x201a;" 
d="M220 -118l69 118h-46v112h111v-112l-115 -134z" />
    <glyph glyph-name="quotedblleft" unicode="&#x201c;" 
d="M161 573l114 134l20 -16l-69 -118h45v-112h-110v112zM334 573l115 134l19 -16l-69 -118h46v-112h-111v112z" />
    <glyph glyph-name="quotedblright" unicode="&#x201d;" 
d="M134 470l69 118h-46v112h111v-112l-115 -134zM307 470l69 118h-45v112h110v-112l-114 -134z" />
    <glyph glyph-name="quotedblbase" unicode="&#x201e;" 
d="M134 -118l69 118h-45v112h110v-112l-114 -134zM307 -118l69 118h-45v112h111v-112l-115 -134z" />
    <glyph glyph-name="dagger" unicode="&#x2020;" 
d="M261 427h-163v69h163v244h79v-244h164v-69h-164v-537h-79v537z" />
    <glyph glyph-name="daggerdbl" unicode="&#x2021;" 
d="M261 134h-163v69h163v224h-163v69h163v244h80v-244h164v-69h-164v-224h164v-69h-164v-244h-80v244z" />
    <glyph glyph-name="bullet" unicode="&#x2022;" 
d="M227 201q-31 31 -31 74q0 44 31 74.5t74 30.5q44 0 74.5 -30.5t30.5 -74.5q0 -43 -30.5 -74t-74.5 -31q-43 0 -74 31z" />
    <glyph glyph-name="ellipsis" unicode="&#x2026;" 
d="M47 109h108v-109h-108v109zM247 109h108v-109h-108v109zM447 109h108v-109h-108v109z" />
    <glyph glyph-name="perthousand" unicode="&#x2030;" 
d="M122.5 443.5q-33.5 19.5 -53 52.5t-19.5 73t19.5 73t53 52.5t74.5 19.5t74.5 -19.5t53 -52.5t19.5 -73t-19.5 -73t-53 -52.5t-74.5 -19.5t-74.5 19.5zM259.5 505q24.5 25 24.5 64t-24.5 64t-62.5 25t-62.5 -25t-24.5 -64t24.5 -64t62.5 -25t62.5 25zM19 320l514 165
l17 -55l-515 -165zM138 5.5q-33 19.5 -52 52.5t-19 73t19 73t52 52.5t73 19.5q35 0 65 -15t49 -41q20 26 50 41t65 15q40 0 73 -19.5t52 -53t19 -72.5t-19 -72.5t-52 -53t-73 -19.5q-35 0 -65 15t-50 41q-19 -26 -49 -41t-65 -15q-40 0 -73 19.5zM271 67q24 25 24 64t-24 64
t-60 25t-60 -25t-24 -64t24 -64t60 -25t60 25zM500 67q24 25 24 64t-24 64t-60 25q-37 0 -61 -25t-24 -64t24 -64t61 -25q36 0 60 25z" />
    <glyph glyph-name="guilsinglleft" unicode="&#x2039;" 
d="M165 275l167 201h94l-167 -201l167 -200h-94z" />
    <glyph glyph-name="guilsinglright" unicode="&#x203a;" 
d="M343 275l-167 201h94l167 -201l-167 -200h-94z" />
    <glyph glyph-name="fraction" unicode="&#x2044;" 
d="M66 217l438 315l32 -47l-438 -315z" />
    <glyph glyph-name="uni2070" unicode="&#x2070;" 
d="M222 446q-35 23 -55 64t-20 95t20 95t55 64t79 23t79 -23t55 -64t20 -95t-20 -95t-55 -64t-79 -23t-79 23zM332 724q-16 7 -31 7q-41 0 -67 -34t-26 -92q0 -49 21 -85zM368 513q26 34 26 92q0 49 -21 85l-103 -204q16 -7 31 -7q41 0 67 34z" />
    <glyph glyph-name="uni2074" unicode="&#x2074;" 
d="M327 496h-178v51l178 233h61v-233h53v-51h-53v-66h-61v66zM327 547v152l-118 -152h118z" />
    <glyph glyph-name="uni2075" unicode="&#x2075;" 
d="M209 452.5q-35 29.5 -35 68.5q0 16 4 27l56 -10q-2 -6 -2 -15q0 -23 19.5 -36.5t51.5 -13.5q34 0 55.5 19t21.5 55q0 34 -21 54t-57 20q-25 0 -45 -13t-31 -32l-47 15l18 189h222v-50h-177l-12 -101q13 18 36.5 29t48.5 11q56 0 90 -34t34 -87q0 -54 -38.5 -89.5
t-99.5 -35.5q-57 0 -92 29.5z" />
    <glyph glyph-name="uni2076" unicode="&#x2076;" 
d="M212 466.5q-37 43.5 -37 118.5q0 78 29 127q17 36 47 55.5t67 19.5q47 0 77.5 -23t30.5 -60q0 -18 -6 -30l-53 10q4 10 4 18q0 17 -15 27t-38 10q-39 0 -61.5 -36t-24.5 -90q13 20 37 32.5t51 12.5q50 0 83 -32t33 -84t-36.5 -85.5t-91.5 -33.5q-59 0 -96 43.5z
M358.5 491q20.5 19 20.5 50t-20.5 49.5t-50.5 18.5t-50 -18.5t-20 -49.5t20 -50t50 -19t50.5 19z" />
    <glyph glyph-name="uni2077" unicode="&#x2077;" 
d="M377 730h-171v50h231v-47l-141 -303h-60z" />
    <glyph glyph-name="uni2078" unicode="&#x2078;" 
d="M211 453q-36 30 -36 77q0 60 57 88q-46 28 -46 76q0 40 32.5 66.5t82.5 26.5t82.5 -26.5t32.5 -66.5q0 -48 -46 -76q57 -28 57 -88q0 -47 -36 -77t-90 -30t-90 30zM342 652.5q16 14.5 16 37.5t-16.5 37t-40.5 14t-40.5 -14t-16.5 -37t16 -37.5t41 -14.5t41 14.5z
M346.5 487.5q18.5 16.5 18.5 44.5q0 29 -18.5 45t-45.5 16t-45.5 -16t-18.5 -45q0 -28 18.5 -44.5t45.5 -16.5t45.5 16.5z" />
    <glyph glyph-name="uni2079" unicode="&#x2079;" 
d="M225.5 446q-30.5 23 -30.5 60q0 18 5 30l53 -10q-4 -10 -4 -17q0 -18 15 -28t39 -10q41 0 62 34.5t23 91.5q-12 -21 -34.5 -33t-51.5 -12q-50 0 -83.5 32t-33.5 84t36 85.5t91 33.5q61 0 97 -42t36 -120q0 -77 -28 -127q-18 -36 -48 -55.5t-67 -19.5q-46 0 -76.5 23z
M362 618q20 19 20 51q0 31 -20 50t-50 19t-50 -19t-20 -50q0 -32 20 -51t50 -19t50 19z" />
    <glyph glyph-name="uni2080" unicode="&#x2080;" 
d="M222 -108q-35 23 -55 64t-20 95t20 95t55 64t79 23t79 -23t55 -64t20 -95t-20 -95t-55 -64t-79 -23t-79 23zM332 170q-16 7 -31 7q-41 0 -67 -34t-26 -92q0 -49 21 -85zM368 -41q26 34 26 92q0 49 -21 85l-103 -204q16 -7 31 -7q41 0 67 34z" />
    <glyph glyph-name="uni2081" unicode="&#x2081;" 
d="M198 -71h95v220q-13 -13 -31.5 -18.5t-46.5 -5.5v58q34 0 52.5 10t29.5 33h56v-297h93v-53h-248v53z" />
    <glyph glyph-name="uni2082" unicode="&#x2082;" 
d="M162 -82l130 126q26 25 35.5 44t9.5 42q0 22 -15.5 36.5t-43.5 14.5q-26 0 -42.5 -15.5t-16.5 -40.5q0 -14 4 -23l-54 -8q-7 14 -7 36q0 41 32 72t84 31q55 0 86.5 -27.5t31.5 -72.5q0 -35 -15 -62t-49 -61l-83 -80h151v-54h-238v42z" />
    <glyph glyph-name="uni2083" unicode="&#x2083;" 
d="M208 -100.5q-34 30.5 -34 71.5q0 18 7 32l54 -12q-3 -7 -3 -18q0 -24 19 -38t48 -14q32 0 50 15.5t18 44.5q0 59 -96 59v46q79 0 79 51q0 23 -15 34.5t-40 11.5q-24 0 -40.5 -12.5t-16.5 -33.5q0 -7 2 -17l-52 -6q-4 11 -4 27q0 38 31 65t80 27q53 0 83.5 -24.5
t30.5 -61.5q0 -24 -13.5 -44.5t-41.5 -33.5q31 -10 51.5 -33t20.5 -56q0 -51 -35.5 -81t-92.5 -30q-56 0 -90 30.5z" />
    <glyph glyph-name="uni2084" unicode="&#x2084;" 
d="M327 -58h-178v51l178 233h61v-233h53v-51h-53v-66h-61v66zM327 -7v152l-118 -152h118z" />
    <glyph glyph-name="uni2085" unicode="&#x2085;" 
d="M209 -101.5q-35 29.5 -35 68.5q0 16 4 27l56 -10q-2 -6 -2 -15q0 -23 19.5 -36.5t51.5 -13.5q34 0 55.5 19t21.5 55q0 34 -21 54t-57 20q-25 0 -45 -13t-31 -32l-47 15l18 189h222v-50h-177l-12 -101q13 18 36.5 29t48.5 11q56 0 90 -34t34 -87q0 -54 -38.5 -89.5
t-99.5 -35.5q-57 0 -92 29.5z" />
    <glyph glyph-name="uni2086" unicode="&#x2086;" 
d="M212 -87.5q-37 43.5 -37 118.5q0 78 29 127q17 36 47 55.5t67 19.5q47 0 77.5 -23t30.5 -60q0 -18 -6 -30l-53 10q4 10 4 18q0 17 -15 27t-38 10q-39 0 -61.5 -36t-24.5 -90q13 20 37 32.5t51 12.5q50 0 83 -32t33 -84t-36.5 -85.5t-91.5 -33.5q-59 0 -96 43.5z
M358.5 -63q20.5 19 20.5 50t-20.5 49.5t-50.5 18.5t-50 -18.5t-20 -49.5t20 -50t50 -19t50.5 19z" />
    <glyph glyph-name="uni2087" unicode="&#x2087;" 
d="M377 176h-171v50h231v-47l-141 -303h-60z" />
    <glyph glyph-name="uni2088" unicode="&#x2088;" 
d="M211 -101q-36 30 -36 77q0 60 57 88q-46 28 -46 76q0 40 32.5 66.5t82.5 26.5t82.5 -26.5t32.5 -66.5q0 -48 -46 -76q57 -28 57 -88q0 -47 -36 -77t-90 -30t-90 30zM342 98.5q16 14.5 16 37.5t-16.5 37t-40.5 14t-40.5 -14t-16.5 -37t16 -37.5t41 -14.5t41 14.5z
M346.5 -66.5q18.5 16.5 18.5 44.5q0 29 -18.5 45t-45.5 16t-45.5 -16t-18.5 -45q0 -28 18.5 -44.5t45.5 -16.5t45.5 16.5z" />
    <glyph glyph-name="uni2089" unicode="&#x2089;" 
d="M225.5 -108q-30.5 23 -30.5 60q0 18 5 30l53 -10q-4 -10 -4 -17q0 -18 15 -28t39 -10q41 0 62 34.5t23 91.5q-12 -21 -34.5 -33t-51.5 -12q-50 0 -83.5 32t-33.5 84t36 85.5t91 33.5q61 0 97 -42t36 -120q0 -77 -28 -127q-18 -36 -48 -55.5t-67 -19.5q-46 0 -76.5 23z
M362 64q20 19 20 51q0 31 -20 50t-50 19t-50 -19t-20 -50q0 -32 20 -51t50 -19t50 19z" />
    <glyph glyph-name="Euro" unicode="&#x20ac;" 
d="M175 55.5q-67 69.5 -89 188.5h-78l28 62h43q-2 30 -2 44t2 44h-71l28 62h51q23 118 92 188t170 70q90 0 149 -46t85 -129l-73 -32q-19 66 -60.5 99t-101.5 33q-69 0 -115 -48t-63 -135h282l-28 -62h-262q-2 -28 -2 -44t2 -44h290l-28 -62h-254q17 -87 62.5 -135
t116.5 -48q62 0 101.5 35.5t66.5 116.5l69 -29q-30 -94 -87.5 -146t-151.5 -52q-105 0 -172 69.5z" />
    <glyph glyph-name="uni20BA" unicode="&#x20ba;" 
d="M555 293v-19q0 -83 -36 -144.5t-103 -95.5t-158 -34h-140v213l-76 -36v78l76 36v94l-76 -36v79l76 36v236h84v-196l125 60v-79l-125 -60v-94l125 60v-78l-125 -60v-178h56q106 0 162.5 54t56.5 145v19h78z" />
    <glyph glyph-name="uni2113" unicode="&#x2113;" 
d="M334 86.5q34 31.5 69 97.5l55 -36q-40 -80 -90.5 -121t-117.5 -41q-61 0 -97.5 42.5t-41.5 129.5q-24 -7 -66 -16v77q34 6 66 15q6 149 50 258t110 165.5t138 56.5q69 0 102.5 -40t33.5 -111q0 -124 -95 -223.5t-266 -159.5q6 -125 79 -125q37 0 71 31.5zM305.5 594
q-46.5 -52 -79 -141.5t-40.5 -196.5q136 48 209.5 126.5t73.5 174.5q0 44 -18 66.5t-53 22.5q-46 0 -92.5 -52z" />
    <glyph glyph-name="uni2117" unicode="&#x2117;" 
d="M160.5 108q-64.5 38 -102.5 102.5t-38 140.5t38 140.5t102.5 102.5t140.5 38t140.5 -38t102.5 -102.5t38 -140.5t-38 -140.5t-102.5 -102.5t-140.5 -38t-140.5 38zM414 154.5q52 30.5 82.5 82.5t30.5 114t-30.5 114t-82.5 82.5t-113 30.5t-113 -30.5t-82.5 -82.5
t-30.5 -114t30.5 -114t82.5 -82.5t113 -30.5t113 30.5zM188 520h129q56 0 86.5 -28t30.5 -78t-30 -77.5t-87 -27.5h-77v-127h-52v338zM313 354q70 0 70 60q0 59 -70 59h-73v-119h73z" />
    <glyph glyph-name="uni2120" unicode="&#x2120;" 
d="M48 324q-35 31 -41 78l47 24q8 -40 26 -61.5t56 -21.5q28 0 47.5 17.5t19.5 49.5q0 31 -20 48.5t-57 27.5q-55 14 -82 43.5t-27 75.5q0 44 32.5 73.5t81.5 29.5q48 0 80 -23t43 -65l-43 -24q-14 33 -32.5 47.5t-46.5 14.5q-30 0 -46.5 -14.5t-16.5 -37.5q0 -29 22 -46.5
t61 -29.5q51 -16 77 -41.5t26 -75.5q0 -54 -30.5 -87t-88.5 -33q-53 0 -88 31zM284 700h66l84 -344l84 344h66v-400h-52v284l-69 -284h-58l-69 284v-284h-52v400z" />
    <glyph glyph-name="trademark" unicode="&#x2122;" 
d="M105 650h-89v50h236v-50h-89v-350h-58v350zM279 700h66l84 -344l84 344h66v-400h-52v284l-69 -284h-58l-69 284v-284h-52v400z" />
    <glyph glyph-name="uni2126" unicode="&#x2126;" 
d="M48 71h126q-61 54 -103.5 147.5t-42.5 206.5q0 83 35.5 149t97.5 103t140 37t140 -37t97.5 -103t35.5 -149q0 -113 -42.5 -206.5t-103.5 -147.5h126v-71h-217v80q38 27 73 74.5t57.5 114t22.5 145.5q0 65 -24.5 116.5t-67.5 80t-97 28.5t-97 -28.5t-67.5 -80
t-24.5 -116.5q0 -79 22.5 -145.5t57.5 -114t73 -74.5v-80h-217v71z" />
    <glyph glyph-name="estimated" unicode="&#x212e;" 
d="M437.5 138.5q61.5 40.5 91.5 106.5h41q-32 -82 -105.5 -133t-163.5 -51q-78 0 -144.5 39t-105.5 105t-39 145t39 145t105.5 105t144.5 39t144.5 -39t105.5 -105t39 -145h-473v-168q34 -40 81.5 -62t102.5 -22q75 0 136.5 40.5zM198.5 580q-47.5 -22 -81.5 -62v-131h368
v128q-34 41 -82 64t-102 23q-55 0 -102.5 -22z" />
    <glyph glyph-name="uni2153" unicode="&#x2153;" 
d="M116 623q-14 -13 -31.5 -18.5t-44.5 -5.5v58q33 0 51 9.5t29 33.5h56v-350h-60v273zM87 171l364 398l39 -37l-364 -398zM370 23.5q-34 30.5 -34 71.5q0 18 7 32l54 -12q-3 -7 -3 -18q0 -24 19 -38t48 -14q32 0 50 15.5t18 44.5q0 59 -96 59v46q79 0 79 51q0 23 -15 34.5
t-40 11.5q-24 0 -40.5 -12.5t-16.5 -33.5q0 -7 2 -17l-52 -6q-4 11 -4 27q0 38 31 65t80 27q53 0 83.5 -24.5t30.5 -61.5q0 -24 -13.5 -44.5t-41.5 -33.5q31 -10 51.5 -33t20.5 -56q0 -51 -35.5 -81t-92.5 -30q-56 0 -90 30.5z" />
    <glyph glyph-name="uni2154" unicode="&#x2154;" 
d="M21 392l131 126q26 25 35 44t9 42q0 22 -15.5 36.5t-42.5 14.5t-43.5 -15.5t-16.5 -40.5q0 -14 4 -23l-54 -8q-6 15 -6 36q0 41 32 72t84 31q54 0 85.5 -28t31.5 -72q0 -35 -15 -62t-49 -61l-82 -80h150v-54h-238v42zM127 171l364 398l40 -37l-365 -398zM377 23.5
q-34 30.5 -34 71.5q0 20 6 32l54 -12q-2 -10 -2 -18q0 -24 18.5 -38t47.5 -14q33 0 51 15.5t18 44.5q0 30 -25 44.5t-71 14.5v46q79 0 79 51q0 22 -15.5 34t-40.5 12q-24 0 -40.5 -12.5t-16.5 -33.5q0 -9 3 -17l-53 -6q-4 11 -4 27q0 38 31 65t80 27q53 0 83.5 -24.5
t30.5 -61.5q0 -24 -13.5 -44.5t-40.5 -33.5q31 -10 51 -33t20 -56q0 -51 -35.5 -81t-91.5 -30t-90 30.5z" />
    <glyph glyph-name="oneeighth" unicode="&#x215b;" 
d="M115 623q-13 -13 -30.5 -18.5t-44.5 -5.5v58q33 0 50.5 9.5t28.5 33.5h56v-350h-60v273zM85 171l365 398l39 -37l-364 -398zM368 23q-36 30 -36 77q0 60 57 88q-46 28 -46 76q0 40 32.5 66.5t82.5 26.5t82.5 -26.5t32.5 -66.5q0 -48 -46 -76q57 -28 57 -88q0 -47 -36 -77
t-90 -30t-90 30zM499 222.5q16 14.5 16 37.5t-16.5 37t-40.5 14t-40.5 -14t-16.5 -37t16 -37.5t41 -14.5t41 14.5zM503.5 57.5q18.5 16.5 18.5 44.5q0 29 -18.5 45t-45.5 16t-45.5 -16t-18.5 -45q0 -28 18.5 -44.5t45.5 -16.5t45.5 16.5z" />
    <glyph glyph-name="threeeighths" unicode="&#x215c;" 
d="M56 373.5q-34 30.5 -34 71.5q0 18 7 32l54 -12q-3 -7 -3 -18q0 -24 19 -38t48 -14q32 0 50 15.5t18 44.5q0 59 -96 59v46q79 0 79 51q0 23 -15 34.5t-40 11.5q-24 0 -40.5 -12.5t-16.5 -33.5q0 -7 2 -17l-52 -6q-4 11 -4 27q0 38 31 65t80 27q53 0 83.5 -24.5t30.5 -61.5
q0 -24 -13.5 -44.5t-41.5 -33.5q31 -10 51.5 -33t20.5 -56q0 -51 -35.5 -81t-92.5 -30q-56 0 -90 30.5zM104 171l365 398l39 -37l-364 -398zM361 23q-36 30 -36 77q0 60 57 88q-46 28 -46 76q0 40 32.5 66.5t82.5 26.5t82.5 -26.5t32.5 -66.5q0 -48 -46 -76q57 -28 57 -88
q0 -47 -36 -77t-90 -30t-90 30zM492 222.5q16 14.5 16 37.5t-16.5 37t-40.5 14t-40.5 -14t-16.5 -37t16 -37.5t41 -14.5t41 14.5zM496.5 57.5q18.5 16.5 18.5 44.5q0 29 -18.5 45t-45.5 16t-45.5 -16t-18.5 -45q0 -28 18.5 -44.5t45.5 -16.5t45.5 16.5z" />
    <glyph glyph-name="fiveeighths" unicode="&#x215d;" 
d="M57 372.5q-35 29.5 -35 68.5q0 16 4 27l56 -10q-2 -6 -2 -15q0 -23 19.5 -36.5t51.5 -13.5q34 0 55.5 19t21.5 55q0 34 -21 54t-57 20q-25 0 -45 -13t-31 -32l-47 15l18 189h222v-50h-177l-12 -101q13 18 36.5 29t48.5 11q56 0 90 -34t34 -87q0 -54 -38.5 -89.5
t-99.5 -35.5q-57 0 -92 29.5zM105 171l364 398l40 -37l-365 -398zM371 23q-36 30 -36 77q0 60 57 88q-46 28 -46 76q0 40 32.5 66.5t82.5 26.5t82.5 -26.5t32.5 -66.5q0 -48 -46 -76q57 -28 57 -88q0 -47 -36 -77t-90 -30t-90 30zM502 222.5q16 14.5 16 37.5t-16.5 37
t-40.5 14t-40.5 -14t-16.5 -37t16 -37.5t41 -14.5t41 14.5zM506.5 57.5q18.5 16.5 18.5 44.5q0 29 -18.5 45t-45.5 16t-45.5 -16t-18.5 -45q0 -28 18.5 -44.5t45.5 -16.5t45.5 16.5z" />
    <glyph glyph-name="seveneighths" unicode="&#x215e;" 
d="M237 650h-171v50h231v-47l-141 -303h-60zM77 171l365 398l39 -37l-364 -398zM366 23q-36 30 -36 77q0 60 57 88q-46 28 -46 76q0 40 32.5 66.5t82.5 26.5t82.5 -26.5t32.5 -66.5q0 -48 -46 -76q57 -28 57 -88q0 -47 -36 -77t-90 -30t-90 30zM497 222.5q16 14.5 16 37.5
t-16.5 37t-40.5 14t-40.5 -14t-16.5 -37t16 -37.5t41 -14.5t41 14.5zM501.5 57.5q18.5 16.5 18.5 44.5q0 29 -18.5 45t-45.5 16t-45.5 -16t-18.5 -45q0 -28 18.5 -44.5t45.5 -16.5t45.5 16.5z" />
    <glyph glyph-name="arrowleft" unicode="&#x2190;" 
d="M61 311l205 204l49 -47l-125 -125h331v-64h-331l125 -125l-49 -47z" />
    <glyph glyph-name="arrowup" unicode="&#x2191;" 
d="M269 473l-125 -124l-47 48l204 205l204 -205l-47 -48l-125 124v-331h-64v331z" />
    <glyph glyph-name="arrowright" unicode="&#x2192;" 
d="M287 154l125 125h-331v64h331l-125 125l49 47l205 -204l-205 -204z" />
    <glyph glyph-name="arrowdown" unicode="&#x2193;" 
d="M97 347l47 48l125 -124v331h64v-331l125 124l47 -48l-204 -205z" />
    <glyph glyph-name="arrowboth" unicode="&#x2194;" 
d="M14 311l205 204l49 -47l-125 -125h316l-125 125l49 47l205 -204l-205 -204l-49 47l125 125h-316l125 -125l-49 -47z" />
    <glyph glyph-name="arrowupdn" unicode="&#x2195;" 
d="M97 267l47 48l125 -124v316l-125 -124l-47 48l204 205l204 -205l-47 -48l-125 124v-316l125 124l47 -48l-204 -205z" />
    <glyph glyph-name="uni2196" unicode="&#x2196;" 
d="M185 359v-176h-67v290h290v-67h-176l234 -236l-45 -45z" />
    <glyph glyph-name="uni2197" unicode="&#x2197;" 
d="M136 170l234 236h-176v67h290v-290h-67v176l-236 -234z" />
    <glyph glyph-name="uni2198" unicode="&#x2198;" 
d="M194 197h176l-234 236l45 45l236 -234v176h67v-290h-290v67z" />
    <glyph glyph-name="uni2199" unicode="&#x2199;" 
d="M118 420h67v-176l236 234l45 -45l-234 -236h176v-67h-290v290z" />
    <glyph glyph-name="partialdiff" unicode="&#x2202;" 
d="M175.5 12.5q-51.5 26.5 -83 79t-31.5 124.5q0 68 29.5 124.5t83.5 89t126 32.5q53 0 97 -22t68 -60q-5 68 -29.5 128.5t-67.5 98.5t-102 38q-47 0 -73.5 -21.5t-26.5 -50.5q0 -13 5 -25l-71 -30q-12 21 -12 52q0 37 22 70t63 53.5t96 20.5q137 0 206 -116.5t69 -306.5
q0 -86 -30.5 -155.5t-89 -109.5t-138.5 -40q-59 0 -110.5 26.5zM377.5 78q38.5 22 61 62t22.5 93q0 50 -21.5 86t-57 54.5t-77.5 18.5q-48 0 -85.5 -24t-58 -65t-20.5 -89q0 -50 22 -85.5t57 -54t73 -18.5q46 0 84.5 22z" />
    <glyph glyph-name="uni2206" unicode="&#x2206;" 
d="M258 700h86l245 -700h-576zM475 73l-158 470l-16 56l-16 -56l-158 -470h348z" />
    <glyph glyph-name="product" unicode="&#x220f;" 
d="M82 700h438v-904h-84v829h-270v-829h-84v904z" />
    <glyph glyph-name="summation" unicode="&#x2211;" 
d="M50 -45l221 335l-212 332v78h464v-78h-368l209 -332l-220 -335h390v-75h-484v75z" />
    <glyph glyph-name="minus" unicode="&#x2212;" 
d="M90 397h422v-64h-422v64z" />
    <glyph glyph-name="uni2215" unicode="&#x2215;" 
d="M449 730h84l-380 -760h-84z" />
    <glyph glyph-name="uni2219" unicode="&#x2219;" 
d="M227 201q-31 31 -31 74q0 44 31 74.5t74 30.5q44 0 74.5 -30.5t30.5 -74.5q0 -43 -30.5 -74t-74.5 -31q-43 0 -74 31z" />
    <glyph glyph-name="radical" unicode="&#x221a;" 
d="M151 288h-97v68h158l65 -247l182 591h77l-222 -700h-79z" />
    <glyph glyph-name="infinity" unicode="&#x221e;" 
d="M66 186q-36 44 -36 114t36 114t93 44q45 0 78 -27t64 -74q31 47 64 74t78 27q57 0 93 -44t36 -114t-36 -114t-93 -44q-45 0 -78 27t-64 74q-31 -47 -64 -74t-78 -27q-57 0 -93 44zM217.5 228.5q22.5 24.5 49.5 71.5q-27 47 -49.5 71.5t-50.5 24.5q-33 0 -53.5 -27
t-20.5 -69t20.5 -69t53.5 -27q28 0 50.5 24.5zM488.5 231q20.5 27 20.5 69t-20.5 69t-53.5 27q-28 0 -50.5 -24.5t-49.5 -71.5q27 -47 49.5 -71.5t50.5 -24.5q33 0 53.5 27z" />
    <glyph glyph-name="integral" unicode="&#x222b;" 
d="M87 -208.5q-30 9.5 -50 23.5l26 66q17 -13 39 -20t42 -7q40 0 60 27.5t20 88.5v584q0 91 49 143.5t128 52.5q30 0 59 -9t49 -22l-26 -68q-38 27 -79 27q-47 0 -73.5 -29.5t-26.5 -89.5v-581q0 -92 -42 -144t-113 -52q-32 0 -62 9.5z" />
    <glyph glyph-name="approxequal" unicode="&#x2248;" 
d="M115 421q0 40 27 62.5t67 22.5q33 0 57 -10t52 -28q21 -14 36 -20.5t32 -6.5q14 0 22.5 8.5t8.5 21.5q0 10 -7 22l65 13q12 -18 12 -45q0 -40 -27 -62.5t-67 -22.5q-33 0 -56.5 9.5t-52.5 28.5q-22 14 -36.5 20.5t-31.5 6.5q-14 0 -22.5 -8.5t-8.5 -21.5q0 -10 7 -22
l-65 -13q-12 18 -12 45zM115 237q0 40 27 62.5t67 22.5q33 0 57 -10t52 -28q21 -14 36 -20.5t32 -6.5q14 0 22.5 8.5t8.5 21.5q0 10 -7 22l65 13q12 -18 12 -45q0 -40 -27 -62.5t-67 -22.5q-33 0 -56.5 9.5t-52.5 28.5q-22 14 -36.5 20.5t-31.5 6.5q-14 0 -22.5 -8.5
t-8.5 -21.5q0 -10 7 -22l-65 -13q-12 18 -12 45z" />
    <glyph glyph-name="notequal" unicode="&#x2260;" 
d="M129 118l59 101h-98v65h136l74 129h-210v64h248l78 135l56 -34l-59 -101h99v-64h-136l-75 -129h211v-65h-248l-79 -134z" />
    <glyph glyph-name="lessequal" unicode="&#x2264;" 
d="M90 64h422v-64h-422v64zM98 370v76l405 203v-80l-327 -161l327 -161v-80z" />
    <glyph glyph-name="greaterequal" unicode="&#x2265;" 
d="M90 64h422v-64h-422v64zM99 247l327 161l-327 161v80l405 -203v-76l-405 -203v80z" />
    <glyph glyph-name="lozenge" unicode="&#x25ca;" 
d="M45 350l212 350h88l212 -350l-212 -350h-88zM469 350l-168 281l-168 -281l168 -281z" />
    <glyph glyph-name="uniF8FF" unicode="&#xf8ff;" 
d="M11.5 6.5q-6.5 6.5 -6.5 15.5v595q0 7 4.5 13.5t11.5 8.5l270 78l10 2l10 -2l270 -78q7 -2 11.5 -8.5t4.5 -13.5v-595q0 -9 -6.5 -15.5t-15.5 -6.5l-7 1l-267 77l-267 -77l-7 -1q-9 0 -15.5 6.5zM279 669l-230 -67q4 -62 35 -114t82.5 -84.5t112.5 -37.5v303z
M435.5 403.5q51.5 32.5 82.5 84.5t35 114l-230 67v-303q61 5 112.5 37.5zM279 118v204q-73 6 -134 43.5t-97 97.5v-412zM554 463q-37 -60 -97.5 -97.5t-133.5 -43.5v-204l231 -67v412z" />
    <glyph glyph-name="fi" unicode="&#xfb01;" 
d="M116 427h-72v69h72v92q0 76 43 119t115 43q54 0 94 -26l-29 -65q-15 10 -29 14.5t-33 4.5q-34 0 -57 -22t-23 -65v-95h324v-496h-81v427h-243v-427h-81v427zM433 680h95v-97h-95v97z" />
    <glyph glyph-name="fl" unicode="&#xfb02;" 
d="M116 427h-72v69h72v92q0 76 43 119t115 43q54 0 94 -26l-29 -65q-15 10 -29 14.5t-33 4.5q-34 0 -57 -22t-23 -65v-95h152v-69h-152v-427h-81v427zM440 700h81v-700h-81v700z" />
    <glyph glyph-name="i.loclTRK" 
d="M98 69h167v358h-142v69h222v-427h158v-69h-405v69zM257 680h95v-97h-95v97z" />
    <glyph glyph-name="ordfeminine.ss01" 
d="M196.5 313.5q-36.5 20.5 -59 62t-22.5 99.5t22.5 99.5t59 62t78.5 20.5q39 0 70.5 -16t50.5 -46v55h65v-350h-65v58q-19 -31 -51 -48t-70 -17q-42 0 -78.5 20.5zM368.5 384.5q31.5 34.5 31.5 90.5t-31.5 90.5t-79.5 34.5t-79.5 -34.5t-31.5 -90.5t31.5 -90.5t79.5 -34.5
t79.5 34.5z" />
    <glyph glyph-name="uni030C.alt" horiz-adv-x="0" 
d="M-347 525l40 83h-40v92h90v-92l-69 -94z" />
  </font>
</defs>
</svg>
